<?xml version="1.0" encoding="utf-8"?>
<svg height="212.51785mm" viewBox="0 0 172.65033 212.51786" width="172.65033mm" xmlns="http://www.w3.org/2000/svg">
	<title>A diagram showing two shapes and views onto them. The first shape, an equilateral triangle has the near corner to the point of view labelled A and the furthest visible points labelled B and C. Points D and E are level with point A and sit on the lines of sight from the point of view to corners B and C. The second shape is a regular pentagon and has the same points marked (with prime marks) to show that the outside visible points are closer to the point of view than with the triangle.</title>
	<path d="m208.512 353.92971c-.25025-.4049.42087-1.00397 1.13538-1.01349.39726-.005.76406-2.49076.53883-3.65111-.069-.35554-.45218-.58762-.97014-.58762-.52577 0-.85608-.20417-.85608-.52917 0-.34948.34957-.52917 1.02948-.52917.56621 0 1.2409-.0777 1.4993-.17268.25841-.095.70796-.0127.999.18284.46162.31016.45037.40197-.0882.71939-.60156.35454-.83276 1.4069-.40342 1.83625.43081.4308 1.64456-1.10757 1.4527-1.84123-.1422-.54378-.0217-.72457.48306-.72457.50906 0 .67252.25217.67252 1.03752 0 .57063-.17041 1.14283-.37868 1.27155-.23542.1455-.0901.43619.38416.76836.63762.44661.72342.74447.5227 1.81445-.13209.70407-.42402 1.39712-.64875 1.54011-.65382.41602-5.10184.31548-5.37186-.12143zm4.48749-1.01889c.19165 0 .29773-.35719.23573-.79375-.15208-1.07079-1.55219-1.28675-1.86909-.2883-.29034.91479.0833 1.54316.76256 1.28249.28729-.11024.67915-.20044.8708-.20044zm1.8792-4.85069c.29752-1.5921.75285-2.20486 1.63838-2.20486.70319 0 .89303.52135.31903.87611-.18884.1167-.6038.76107-.92214 1.43193-.77706 1.63751-1.3499 1.58042-1.03527-.10318zm-27.03286-4.84495c-.0939-.0938-2.54124-.19647-5.43865-.22806-2.89741-.0316-5.94567-.17297-6.7739-.31421-.82823-.14123-1.59326-.11539-1.70007.0574-.10681.17282-.30229.25132-.4344.17444-.41095-.23911-16.89304-.71063-22.55341-.64521-2.95892.0342-5.37986.009-5.37986-.057 0-.0656-.48297-1.45335-1.07328-3.08394-.5903-1.63059-2.08902-5.98096-3.33048-9.66749s-2.7345-7.81403-3.31786-9.17222c-1.41872-3.30311-4.09275-9.88721-5.5161-13.58195-1.0808-2.80556-1.80592-4.49462-3.90429-9.09448-.99128-2.17299-1.03836-2.54718-.32049-2.54718.66357 0 .67115-.37779.0252-1.25549-.47971-.65182-.5159-.65402-.7516-.0458-.18513.47773-.63663-.21871-1.78908-2.75969-.8478-1.86927-1.54146-3.63083-1.54146-3.91459 0-.28375-.21924-.86751-.4872-1.29725s-.58629-1.20918-.70741-1.73211c-.21936-.94706.267-1.48335 2.65785-2.93067.31971-.19354 1.35159-.8903 2.29305-1.54835.94147-.65806 2.50551-1.62873 3.47565-2.15706s2.39889-1.32211 3.175-1.76394c1.50668-.85774 1.81886-1.04209 6.06825-3.58346 1.51316-.90495 3.46557-2.02411 4.3387-2.48702.87312-.46291 1.98437-1.09107 2.46944-1.3959.48507-.30482 2.07257-1.18964 3.52778-1.96625s3.13681-1.70992 3.73688-2.07402c.60008-.3641 1.94946-1.16747 2.99862-1.78526 1.04915-.6178 2.06721-1.2528 2.26233-1.41112.19513-.15831 1.02769-.65469 1.85013-1.10307 2.22603-1.21356 8.23558-5.29152 9.36118-6.35229l.98274-.92614.20665.79023c.18351.7017.38796.77466 1.82484.65117.89-.0765 1.68505-.33968 1.76678-.58487.0934-.28027-.014-.34529-.28938-.17512-.24719.15278-.56277.0688-.72444-.19279-.22468-.36355-.39669-.37199-.79778-.0391-.50828.42183-1.6591.22624-1.6591-.28197 0-.14626 1.03799-.9372 2.30664-1.75766l2.30664-1.49173 1.22114.9314c.67162.51227 1.22113 1.07709 1.22113 1.25516 0 .17806.21901.2397.48669.13699.26769-.10273.78566.1933 1.15105.65782.3654.46453.90045.84888 1.18901.8541.46849.009 5.00029 2.61172 9.60867 5.51957.92163.58154 1.67569 1.26375 1.67569 1.51603 0 .26375.22596.37197.53169.25466.29321-.11252 1.62626.44625 2.97209 1.24579 1.34223.7974 2.61109 1.44982 2.8197 1.44982.20862 0 .3793.12394.3793.27543s.43656.47074.97014.70943c.53358.2387 1.70153.86882 2.59545 1.40026 5.35215 3.18191 9.76794 5.66518 10.45733 5.88081.87415.27343 1.03777.74903.35278 1.02543-.24254.0979-.0542.19047.4185.20579.84595.0274 6.10009 2.82662 9.90025 5.27448 4.35402 2.80463 5.64444 3.50928 5.64444 3.08224 0-.24151-.57161-2.01587-1.27025-3.94302-3.27507-9.03409-6.52502-19.37116-6.33202-20.14015.12078-.48124.56399-.90569 1.08125-1.03552.48212-.121.87658-.44092.87658-.71093 0-.33755.44083-.49092 1.41111-.49092.77611 0 1.41111.15875 1.41111.35278s-.3175.35278-.70556.35278c-.74288 0-.89989.33938-.41617.89958.59402.68795 3.14568 7.49973 4.48644 11.97681 1.78951 5.97549 3.70027 11.88205 4.06321 12.56021.29851.55778.49194.60882 1.09143.28798.5032-.26931.84182-.27674 1.09455-.024.25272.25273.0673.44088-.59931.6082-.82462.20696-.93449.37683-.7542 1.16605.57662 2.52406.63392 3.21685.26603 3.21685-.21194 0-.55966-.67468-.77271-1.4993-.68805-2.66307-.7108-2.70704-1.28609-2.48627-.43048.16519-.49992.0482-.31581-.53185.25562-.80539-.79677-4.60926-1.79701-6.49527-.33782-.63698-.57061-1.44855-.51731-1.80349s-.1766-1.22168-.51086-1.9261c-.33427-.70442-.68453-1.96183-.77836-2.79424-.0938-.8324-.30869-1.51347-.47748-1.51347-.1688 0-.3069-.25331-.3069-.56293 0-.30961-.21697-.9843-.48216-1.4993-.26518-.51501-.85101-2.07661-1.30185-3.47023l-.81971-2.53386-1.07557.76587c-.86372.61503-.95472.78915-.46203.88403.65855.12683.8129.60713.29749.92567-.17383.10743-.19774.71211-.0531 1.34374.34528 1.50815 5.49129 17.0286 6.69704 20.1984.51664 1.3582 1.22898 3.42195 1.58298 4.58611.35399 1.16417.78262 2.39233.9525 2.72924.16989.33692.30888.92286.30888 1.3021s.16854.79369.37454.921c.40689.25147 1.06642 1.69398 1.27509 2.78883.14336.75223 1.67905 5.12742 2.30808 6.57573.29185.67197.658.91134 1.39405.91134 1.06572 0 1.31439-.70808.67275-1.91566-.17901-.33692-.67517-1.76351-1.10257-3.17022-.6396-2.10514-.90968-2.56256-1.52659-2.58549-.41224-.0153-.55108-.10792-.30854-.20578.62406-.25182.54663-1.71981-.16073-3.04708-.33093-.62095-.57449-1.23179-.54123-1.35741.0333-.12562-.29129-.15439-.72122-.0639-.65604.13804-.68883.10462-.20398-.20791.5215-.33616.52773-.51744.064-1.8634-.45037-1.3072-.45005-1.53756.002-1.86855.28396-.20764.71685-1.04691.96197-1.86503.24512-.81813.57929-1.48751.7426-1.48751.50786 0 .32553 1.52954-.33643 2.82222-.70347 1.37378-.69632 1.40469 2.04083 8.81945 1.44335 3.90955 3.53157 10.17969 3.53157 10.60356 0 .1829-.19994.33255-.44431.33255s-.65681.34028-.91655.75617c-.46204.73985-.43911.75112 1.06167.52167 1.03711-.15856 1.77781-.53164 2.28697-1.15191.41419-.50457.92117-.85839 1.12664-.78625.20547.0721-.3698.91614-1.27837 1.87557-1.34453 1.4198-1.94809 1.7902-3.24331 1.99038-.87524.13528-1.6447.19653-1.70989.13612-.18218-.16882-2.33982-6.26888-3.6487-10.31556-1.0656-3.29455-1.24086-3.60593-1.93627-3.44018-.42054.10024-1.13491.0338-1.5875-.14757-.45259-.18141-.61392-.33989-.35852-.35219.60021-.0289.38305-2.38235-.43404-4.7038-.65892-1.87208-.42318-2.90588.41279-1.8102.48122.63071.49627.6181.25182-.21114-.63499-2.15411-.82001-2.41681-1.56495-2.222-.56426.14756-.6427.29953-.34175.66215.37557.45255-.33685 2.73744-1.98792 6.37567-.6535 1.44002-.63593 1.62936.11396 1.22803.34014-.18204.832-1.05427 1.09301-1.93828.26102-.88402.70216-1.79617.98031-2.02701.43045-.35725.45154-.27723.1417.53772-.47312 1.2444-.48956 1.19239.42974 1.35942.71906.13064.68587.18598-.35278.58821-1.20545.46682-1.63975 1.78609-.58797 1.78609.30722 0 .48858.19844.40303.44097-.0942.26699-.70475.41734-1.54761.38106l-1.39208-.0599-.97092 2.70575c-.53402 1.48816-1.45066 3.97574-2.03698 5.52796-.58633 1.55223-1.60859 4.40973-2.27169 6.35-.66311 1.94028-1.36514 3.80344-1.56009 4.14035-.19494.33692-.35444.86855-.35444 1.18141s-.2159 1.06908-.47978 1.68048c-.26387.61141-.75699 2.06415-1.09581 3.22832-.33881 1.16416-1.49776 4.61698-2.57543 7.67291-1.75482 4.97611-2.04341 5.55625-2.76393 5.55625-.85535 0-1.56045.67662-.77879.74734.25399.023.58086.023.72638 0s.26458.11697.26458.311-.12413.35278-.27583.35278c-.15171 0-.30877.39792-.34902.88427-.0403.48636-.31301 1.45825-.60612 2.15976-.2931.7015-.53292 1.58438-.53292 1.96196 0 .66523.0328.66315 1.05833-.0671 1.55843-1.10969 1.29108-.52603-.68202 1.48895-1.40997 1.4399-1.91226 1.74444-2.64583 1.60421-.49802-.0952-.90548-.016-.90548.17608 0 .31586-3.33374.2437-9.26042-.20044-.92163-.0691-1.67569.00071-1.67569.15542 0 .39827-3.96585.27116-4.49792-.14417-.29531-.23052-.44097-.21342-.44097.0518 0 .39008-5.67419.60141-6.05027.22533zm14.38333-1.07981c-.18209-.4745.34859-.53907 4.10739-.49977 2.37407.0248 4.71337-.11874 5.19844-.31903l.88194-.36417-.79375-.23554c-.94215-.27959-.91763-.12337-.26458-1.68635.29104-.69656.53014-1.62876.53134-2.07155.001-.4428.23932-1.25979.52917-1.81555.28984-.55575.52699-1.20073.52699-1.43328s.39688-1.2455.88195-2.251c.48506-1.0055.88194-2.00341.88194-2.21757s.25431-.969.56514-1.67742c.89542-2.04083 1.09243-2.57811 1.70117-4.63943.69378-2.34933 1.00997-2.89244 1.60248-2.75265.249.0588.5255-.0916.61443-.33415.0889-.24254-.0897-.44098-.39688-.44098-.30721 0-.55856-.06-.55856-.1333 0-.43003 1.10699-2.67735 1.41152-2.86556.20013-.12369.28974-.34483.19914-.49143-.19232-.31119 1.46755-5.54556 2.80862-8.85693.51076-1.26118 1.21158-3.0868 1.55737-4.05694 2.29513-6.43918 3.28127-9.32759 3.55451-10.41114.31559-1.25147 1.0359-3.11876 1.99565-5.17342.28792-.61637.47123-1.48949.40736-1.94028-.0987-.69678-.29048-.80267-1.27962-.70657-.63992.0622-2.05383.41935-3.14203.79375-2.3569.81089-2.22086.79876-2.22086.19804 0-.49183 3.40685-1.63399 4.87384-1.63399 1.28251 0 .8909-.50895-1.78703-2.32244-1.4067-.95261-3.35139-2.30199-4.32153-2.99862-.97014-.69662-2.47826-1.66733-3.35139-2.15714-.87312-.4898-2.38125-1.38436-3.35139-1.98791-.97013-.60354-2.87513-1.67477-4.23333-2.38049-1.35819-.70573-2.94569-1.63332-3.52778-2.06131-1.10809-.81476-4.18071-2.67536-6.87916-4.16562-7.72297-4.26512-14.46389-8.42765-14.46389-8.93148 0-.26923-.21049-.40874-.46775-.31002-.25725.0987-1.46254-.50158-2.67841-1.334-1.21587-.83241-2.72385-1.85538-3.35106-2.27327l-1.14038-.7598-1.91384 1.28547c-1.05261.70701-3.73947 2.33433-5.97079 3.61628-3.48969 2.00492-4.08981 2.24657-4.292 1.72827-.12929-.33141-.48647-.69903-.79375-.81695-.65624-.25182-.66537-.21026-.21441.97585.31063.81701.2158.98659-.97014 1.73487-1.72531 1.08861-7.28523 4.35985-9.07553 5.3397-5.31012 2.90627-9.00119 4.76583-9.45981 4.76583-.29456 0-.58848.13851-.65315.30779-.0647.1693-.91135.72903-1.88148 1.24387-3.85794 2.04735-8.70414 4.85853-11.64167 6.75308-4.829 3.11446-6.52639 3.87636-6.52639 2.92947 0-.24378-.25915-.17293-.64514.17639-.35483.32112-.83108.58384-1.05833.58384-.22726 0-.4132.17727-.4132.39393 0 .21778.30969.31293.69259.21281.88487-.23141 1.56365.58503 1.65908 1.99552.041.60605.7277 2.43389 1.526 4.06187.79831 1.62798 1.36864 3.17579 1.26742 3.43958-.10123.2638-.0498.47963.11421.47963.16404 0 .65383.83343 1.08841 1.85208 2.12744 4.98669 4.32763 9.47866 6.82689 13.93794 1.11563 1.99055 2.26093 4.27819 2.54511 5.08365.79951 2.26605 1.88067 7.94879 1.66743 8.76423-.12889.49286-.0383.6974.27788.62781.50191-.11045 5.17942 13.20762 5.23574 14.90748.0482 1.45376.65236 1.74625 3.60731 1.74625 1.50197 0 2.81219.13161 2.9116.29246.0994.16086.86285.2272 1.69652.14744.83367-.0798 4.53201-.21047 8.21854-.29045 4.80533-.10426 6.52591-.04 6.07799.22702-.34363.20485-.53243.52187-.41956.7045.28139.4553 1.59036-.27517 1.48181-.82692-.13028-.6622 7.09483-.65594 13.32087.0115 2.91041.31202 6.56166.52478 8.11389.47278 1.55222-.052 3.29847-.0905 3.88055-.0855.58209.005 1.69334.015 2.46945.0224 2.39867.0229 4.05694.40842 4.05694.94323 0 .27399.17573.49816.39052.49816s.29643-.24521.18143-.5449zm-39.3775-34.49352c0-.23407.76867-.79051 1.70817-1.23656.93949-.44604 2.6993-1.61295 3.9107-2.59313 1.47503-1.19351 2.31958-1.6651 2.55692-1.42776.36358.36358-1.91404 2.17163-4.10353 3.25751-.59051.29287-1.07365.68974-1.07365.88195 0 .19362 1.49457.42969 3.35139.52936 4.03965.21685 2.86282.58005-2.73403.8438-2.68197.12639-3.61597.0605-3.61597-.25517zm5.10758-1.66292c-.0974-.15758.7039-.61611 1.78063-1.01897 2.22389-.83207 2.28401-.84337 2.28401-.42954 0 .42605-3.84886 1.79765-4.06464 1.44851zm-13.00734-1.60391c-.38512-1.0036-.22512-2.79708.31882-3.57366.33734-.48162.40208-.84177.17638-.98125-.59757-.36933-.3991-1.79338.38971-2.79619.8472-1.07705 2.17092-1.12314 2.36936-.0825.10087.52892-.0228.60474-.6578.40322-.85357-.27092-1.38492.25039-1.39409 1.36774-.004.48579.17966.61012.70015.474.90829-.23752.90747.23072-.001.85294-.46567.31877-.78312 1.05606-.92989 2.1597-.2144 1.61212-.18936 1.67569.66016 1.67569.63857 0 1.14014-.38854 1.81184-1.40355.51085-.77195.92882-1.69411.92882-2.04924s.23308-.95384.51795-1.33048c.48538-.64172.51865-.6016.52917.63813.009 1.07603.14057 1.32292.70436 1.32292.38123 0 .88241-.35365 1.11374-.78588.40891-.76406.42841-.76651.70239-.0882.17046.42205.20325.12285.083-.75731-.12188-.89195-.0476-1.54846.19197-1.69651.2759-.17052.39078.79553.39078 3.28626 0 1.97131-.15565 3.62397-.35278 3.74581-.19963.12337-.37546-.21217-.40501-.77293-.0287-.54503-.0684-1.30846-.0882-1.69652-.0229-.44991-.22769-.65108-.56512-.55522-.29105.0827-.94243.17549-1.44751.20623-.58575.0356-1.39915.5881-2.24591 1.52536-1.41838 1.56997-3.08189 2.00307-3.50079.91144zm18.83587-.2864c0-.27586 1.0081-.89523 2.29676-1.41112 2.66344-1.06625 2.64213-1.06253 2.64213-.45998 0 .25272-.83344.75114-1.85209 1.10761-1.01864.35648-2.00289.78471-2.18722.95164-.49867.45159-.89958.36774-.89958-.18815zm7.20031-2.73453c-.22003-.35601 2.76239-1.71271 3.76505-1.71271.37197 0 .6763.14472.6763.3216 0 .44949-4.2086 1.7677-4.44135 1.39111zm-15.13503-1.7082c-.10933-.17691.28187-.67703.86935-1.11137.73963-.54683 1.06814-1.08876 1.06814-1.76203 0-1.14227 1.457-3.00686 2.05889-2.63488.64245.39706.46686 2.41313-.295 3.3871-.37942.48507-.69339 1.01952-.69771 1.18766-.008.31364 1.09902.16344 2.19702-.29809 1.09567-.46055.66969.47636-.48901 1.07555-.9198.47565-1.2465.49714-1.93727.12745-.63156-.338-1.04017-.34932-1.70325-.0472-.50879.23182-.95521.26341-1.07116.0758zm4.05416-4.15828c0-.94207-.8827-.19342-.97812.82959-.0917.98359-.0714.99956.44097.34634.29543-.37664.53715-.9058.53715-1.17593zm17.28611 3.43568c0-.39821 2.90726-1.75136 3.76281-1.75136 1.13471 0 .16023.85397-1.66563 1.45964-2.30574.76486-2.09718.73585-2.09718.29172zm5.83254-2.0852c-.27698-.44815 3.11651-2.12697 4.30982-2.13215 1.34348-.006.88409.56906-1.05833 1.32443-1.01865.39613-2.11384.82586-2.43376.95496-.31992.12908-.6879.0628-.81773-.14724zm-8.88101-1.25638c-.11226-.29254.0642-.94131.39204-1.44172.68389-1.04375 1.14225-.91604.5674.1581-.21028.3929-.24635.79839-.0802.90109.42115.26029 1.17758-1.51518.86165-2.02243-.142-.228-.21178-.77361-.15507-1.21248.0945-.73173.0297-.76448-.78214-.39459-1.72521.78605-2.59808-.42612-1.46831-2.03909.28615-.40853 1.14484-1.05179 1.90821-1.42948l1.38794-.6867.19887.99435c.10938.54689.10068 1.25023-.0193 1.56298-.12002.31274-.0152.69408.23287.84741.35673.22047.33058.45081-.12498 1.10122-.31684.45234-.57606 1.22805-.57606 1.72379 0 1.76613-1.82845 3.27823-2.34292 1.93755zm1.73631-5.0924c.15144-.13933.14776-.59822-.008-1.01975-.26497-.71629-.3349-.73043-1.06909-.21618-.43206.30262-.78556.86943-.78556 1.25955 0 .57147.15426.66272.79375.46951.43656-.13189.91765-.3538 1.06908-.49313zm-11.03506 4.62537c0-.56562 1.27667-1.46127 2.4044-1.68682 1.09753-.21951 1.61337.29125.68241.67568-.24254.10016-1.03629.43677-1.76389.74804-.72761.31126-1.32292.42966-1.32292.2631zm25.04722-1.12648c0-.34375.60503-.64933 2.38125-1.20266 1.28284-.39963.97977.72475-.31722 1.17688-1.3886.48407-2.06403.49251-2.06403.0258zm5.11487-1.75581c-.22498-.36402 1.02688-.96093 2.73444-1.30383 1.60631-.32257 1.10322.48726-.68021 1.09494-1.95334.66557-1.78271.64821-2.05423.20889zm-16.53418-2.20421c-.117-.43656-.21489-1.53647-.21754-2.44424-.003-1.04656-.21419-1.85987-.57702-2.2227-.52774-.52775-.52089-.61008.0882-1.05978.36322-.26817.77921-.37152.92442-.22967.14521.14186.30695 1.52023.35941 3.06306l.0954 2.80514 1.02591-.11133c.89591-.0972.96782-.0414.56753.44097-.69712.83998-2.01408.69968-2.26629-.24145zm21.84904.47785c-.24016-.3886.74772-1.01132 2.31945-1.46209.77486-.22223 1.00916-.17228 1.00916.21512 0 .2775-.32309.50454-.71797.50454s-1.09456.24675-1.55483.54834c-.5252.34411-.91841.4164-1.05581.19409zm-18.8996-2.33379c-.35609-.42906-.34486-.7903.0576-1.85208.40071-1.05727.70748-1.34276 1.5457-1.43847.57518-.0657 1.23726-.27778 1.4713-.47134.60524-.50058 1.12863-.0635.91271.76222-.10068.38496-.0881.94727.0279 1.24958.34979.91155 1.52693-.001 2.51444-1.95022 1.29744-2.56038 2.95441-3.14508 2.99915-1.05833.006.29104.34176.0132.7456-.61736.95442-1.4903 2.07608-1.55121 2.07608-.11273 0 .80051.17912 1.06151.79375 1.15662.7348.1137.7086.1686-.35277.73915l-1.14653.61633v-1.24378c0-1.69947-.60475-1.56135-1.44099.3291-.67772 1.5321-1.25336 2.20036-1.59826 1.85546-.31206-.31206.287-2.01563.63348-1.80149.18765.11598.13253-.12324-.12249-.53161-.62753-1.00483-.92684-.9374-1.63329.36798-1.15907 2.14175-2.60376 3.54596-3.47652 3.37912-.49842-.0953-1.03924.0974-1.40357.49994-.71636.79157-1.99767.85157-2.60324.12191zm2.18029-.75637c.83761-.75803.84367-1.8856.0101-1.8856-.86942 0-1.48167.68513-1.48167 1.65805 0 .95498.57028 1.04317 1.47153.22755zm22.24504.84843c.0766-.24254 1.16138-.78656 2.41065-1.20893 2.64841-.89544 3.26419-.97572 3.07248-.4006-.0768.23042-1.24097.78131-2.58703 1.22421-2.8634.94214-3.08109.9711-2.8961.38532zm-8.77386-5.75998c-.83042-1.26737-.3058-2.75212 1.02698-2.90651.71218-.0825.96364.0433.96364.48212 0 .41519-.20708.53959-.68863.41366-.80747-.21116-1.11335.3676-.66 1.24879.21392.41581.66566.59549 1.36344.54233.57394-.0437 1.04353-.17027 1.04353-.2812 0-.11092.46654-.47727 1.03677-.81411.98491-.5818 1.05401-.58163 1.38142.004.32695.58421.4102.58461 1.61994.008.7014-.33447 1.36675-.84649 1.47854-1.13782.22487-.586 1.18611-.73296 1.18611-.18134 0 .35694-2.13637 1.80801-3.28875 2.23379-.35361.13066-.94904.0737-1.32317-.12651-.53532-.28649-.96072-.17347-1.99662.53043-1.66507 1.13145-2.39441 1.12801-3.1432-.0148zm4.10729-3.06127c0-.29104.24609-.7334.54687-.98303.45052-.37389.64435-.35639 1.10008.0993.30426.30426.4352.74413.29097.9775-.20116.32549-.32784.31812-.54402-.0317-.23-.37215-.38398-.37114-.83784.006-.46419.38522-.55606.37404-.55606-.0677zm4.58611 51.06638c0-.29104-.15875-.52916-.35277-.52916-.19403 0-.35278.23812-.35278.52916s.15875.52917.35278.52917c.19402 0 .35277-.23813.35277-.52917zm-74.08873-3.79236c-.004-.61973-.0765-.68142-.3295-.28143-.17826.28178-.24583.63897-.15017.79375.30599.4951.48522.30367.47967-.51232zm-7.05016-18.60902c0-.19403-.16812-.35278-.3736-.35278-.20547 0-.27548.15875-.15556.35278.11991.19402.28803.35277.37359.35277.0856 0 .15557-.15875.15557-.35277zm106.18612-3.88056c0-.19403-.32687-.35278-.72638-.35278s-.62826.15875-.50835.35278c.11992.19403.44679.35278.72638.35278s.50835-.15875.50835-.35278zm-5.93867-11.63018-.69391-1.14105.0524 1.00576c.0594 1.13998.61646 1.96569 1.04737 1.55252.15842-.1519-.0242-.78966-.40587-1.41723zm-107.871-.98163c-.12576-.53357-.3885-1.12888-.58388-1.32291-.23811-.23648-.28284-.062-.13566.52916.12077.48507.22174 1.08039.22439 1.32292.003.24254.16659.44097.36431.44097.21243 0 .26596-.39688.13084-.97014zm106.75244-1.75059c-.38439-.59947-.39434-.5987-.20136.0156.11167.35541.21556.83166.23088 1.05833.0201.29745.0761.29312.20136-.0156.0954-.23522-.008-.71147-.23088-1.05833zm-99.30777-12.79745c.12359-.19997-.018-.25911-.33196-.13864-.61116.23452-.72298.48738-.21553.48738.18257 0 .42894-.15693.54749-.34874zm76.02611-6.70682c0-.19402-.15875-.35277-.35278-.35277s-.35278.15875-.35278.35277c0 .19403.15875.35278.35278.35278s.35278-.15875.35278-.35278zm-62.88999-.91869c-.11723-.11722-.4215-.12975-.67616-.0278-.28142.11261-.19783.1962.21314.21313.37188.0153.58024-.0681.46302-.18528zm5.03443-2.60908c0-.19403-.22876-.35278-.50835-.35278s-.60646.15875-.72637.35278c-.11992.19402.10884.35277.50834.35277.39951 0 .72638-.15875.72638-.35277zm7.40833-4.60694c0-.3995-.15181-.63254-.33737-.51786-.18555.11467-.24794.44154-.13864.72637.27983.72923.47601.6433.47601-.20851zm2.23841-1.22911c-.1149-.29941-.28456-.46872-.37704-.37625-.0925.0925-.0635.33745.0644.54438.34786.56284.55118.4535.31264-.16813zm1.28937-.55559c0-.19403-.15875-.25467-.35278-.13475-.19402.11991-.35277.37678-.35277.5708 0 .19403.15875.25467.35277.13475.19403-.11991.35278-.37677.35278-.5708zm1.33027-.59777c.0768-.23041-.11171-.41893-.41893-.41893-.30721 0-.55856.25136-.55856.55857 0 .62298.75944.51448.97749-.13964zm59.91738-1.78739c0-1.4175-.0814-1.63984-.46132-1.25992-.25373.25372-.46133.59976-.46133.76897 0 .23527.8006 2.19568.9023 2.20944.0112.001.0203-.77181.0203-1.71849zm-57.36709-.0426c0-.19403-.15875-.35278-.35278-.35278s-.35278.15875-.35278.35278.15875.35278.35278.35278.35278-.15875.35278-.35278zm1.41111-1.27636c0-.29104-.15875-.43105-.35278-.31114-.19403.11992-.35278.45615-.35278.7472 0 .29104.15875.43105.35278.31114.19403-.11992.35278-.45616.35278-.7472zm1.05833.21803c0-.19403-.07-.35278-.15557-.35278-.0856 0-.25368.15875-.3736.35278-.11991.19403-.0499.35278.15557.35278.20548 0 .3736-.15875.3736-.35278zm7.53669-5.11325c-.11126-.28993-.3444-.43931-.5181-.33196-.17369.10735-.31581-.0617-.31581-.37562 0-.31395-.15182-.47698-.33737-.3623-.47687.29472-.0681 1.17422.63199 1.35962.32303.0856.62203.17397.66445.19648.0424.0225-.0139-.1963-.12516-.48622zm38.6772 85.89342c0-.44019 3.23366-3.58077 3.45697-3.35746.2178.21779-2.73539 3.71618-3.13704 3.71618-.17596 0-.31993-.16143-.31993-.35872zm4.58611-4.85681c0-.15215.87313-1.13891 1.94028-2.19281 2.35263-2.32341 2.5584-1.92921.32542.62342-1.49708 1.71139-2.2657 2.24379-2.2657 1.56939zm4.93889-5.30282c0-.37521 3.21756-3.59277 3.59276-3.59277.61398 0 .2229.61962-1.40002 2.21813-1.64365 1.61894-2.19274 1.96316-2.19274 1.37464zm4.58611-4.92894c0-.49882 3.38608-3.62682 3.64537-3.36753.13879.13878-.49962 1.01577-1.41867 1.94885-1.59824 1.62264-2.2267 2.02305-2.2267 1.41868zm17.81528-4.30827c-.18734-.59024-.53376-.70556-2.11962-.70556-1.9488 0-2.83466-.54914-1.81047-1.12231.33702-.18861.5787-.76845.5787-1.38843 0-.89721.10883-1.03004.69223-.84487.38073.12083 1.01573.0466 1.41111-.16503.63611-.34044.71888-.28098.71888.51634 0 .77122-.12021.87091-.83413.69173-.84019-.21088-1.52116.58274-1.09361 1.27452.21814.35295 2.28656.042 2.79205-.41971.84249-.76956 1.17035.23505.67723 2.07513-.26345.98307-.71584 1.02248-1.01237.0882zm-13.22917-.5666c0-.50378 2.2203-2.96118 2.67548-2.96118.80208 0 .58901.47499-.83827 1.86868-1.26529 1.23553-1.83721 1.57562-1.83721 1.0925zm9.87778-4.42159c0-.22114-.27756-.60504-.61681-.8531-.90453-.66141-.50592-.83522 2.49778-1.08913 2.91423-.24634 3.28843.006 2.20117 1.48313-.46967.63818-.52026.64277-.7433.0674-.34019-.87755-1.94271-.81266-2.17829.0882-.19403.742-1.16055.99473-1.16055.30348zm-5.99722-.23427c0-.47242 2.44184-2.68385 2.68974-2.43594.33546.33545-1.57435 2.71951-2.17853 2.71951-.28116 0-.51121-.12761-.51121-.28357zm10.93611-3.24421c0-.77611.15875-1.41111.35278-1.41111s.35278.635.35278 1.41111-.15875 1.41111-.35278 1.41111-.35278-.635-.35278-1.41111zm-1.76389-5.91094c0-.51291 2.86711-3.30511 3.25948-3.17432.21788.0726-.33779.87652-1.23482 1.78643-1.60448 1.62752-2.02466 1.91555-2.02466 1.38789zm4.45268-4.60288c-.1284-.20776.42628-1.06246 1.23263-1.89932.89726-.93122 1.52705-1.35135 1.62321-1.08284.21124.58987-2.55141 3.47473-2.85584 2.98216zm4.01399-4.58069c0-.49882 3.38608-3.62682 3.64537-3.36752.13878.13878-.49962 1.01577-1.41867 1.94885-1.59825 1.62264-2.2267 2.02304-2.2267 1.41867zm4.93889-4.52584c0-.45588 2.05198-2.43414 2.28409-2.20203.0961.0961-.37846.71101-1.05466 1.3664-.67619.65539-1.22943 1.03142-1.22943.83563zm4.31634-4.55447c1.28713-1.19671 2.03366-1.53417 2.03366-.91928 0 .32994-2.63011 2.16976-3.07924 2.154-.14968-.005.32083-.56087 1.04558-1.23472zm2.73921-2.56708c0-.48941 2.44639-2.6793 2.70463-2.42106.13517.13517-.29047.799-.94586 1.47519-1.16191 1.19879-1.75877 1.51978-1.75877.94587zm-29.63333-2.44689c0-.53341 2.90894-1.55727 3.30348-1.16273.21707.21707-.005.46991-.61576.70227-1.66706.63381-2.68772.80867-2.68772.46046zm4.58611-1.69651c0-.25125 2.86423-1.55239 3.43958-1.5625.90026-.0158.40323.72299-.6247.92858-.58612.11722-1.15111.35138-1.25554.52035-.20563.3327-1.55934.4313-1.55934.11357zm29.28056-.0931c0-.15773.47625-.74305 1.05833-1.30072 1.24328-1.19114 1.37879-.93404.28643.54345-.74707 1.01047-1.34476 1.34705-1.34476.75727zm-23.63612-1.73582c0-.37387 2.98297-1.85796 3.73443-1.85796.81946 0 .24141.65628-1.05525 1.19806-1.89035.78984-2.67918.98413-2.67918.6599zm26.81637-1.70776c.009-.58534 2.34116-3.10411 2.55433-2.7592.11401.18448-.41525.95425-1.17614 1.7106-.7609.75635-1.38108 1.22822-1.37819 1.0486zm-21.17192-.84216c0-.18655.67469-.50946 1.4993-.7176.82462-.20813 1.86397-.53174 2.30966-.71915 1.01404-.42638 1.48271-.43281 1.48271-.0203 0 .32137-3.9667 1.79628-4.831 1.79628-.25337 0-.46067-.15264-.46067-.33919zm6.86986-2.14532c-.20862-.33754 1.84137-1.312 3.44889-1.63942.53358-.10868.97-.0587.96982.11108-.00035.45241-4.18843 1.90094-4.41871 1.52834zm18.83265-2.47965c.84548-.78517 1.62838-1.33643 1.73978-1.22504.30989.3099-2.10582 2.66202-2.72886 2.65702-.33543-.003.0484-.55839.98908-1.43198zm-12.41905.006c.20448-.20448 1.12125-.59734 2.03726-.87302 2.05415-.61821 2.06528.0331.0128.74738-1.72078.59889-2.57567.65128-2.05003.12564zm5.41376-1.96722c0-.34045 2.54333-1.23246 2.79538-.98041.30193.30193-.53623.83913-1.65987 1.06386-.62453.12491-1.13551.0874-1.13551-.0835zm9.87778-.82303c0-.17472.50988-.68074 1.13306-1.12449l1.13306-.8068-.69209.94418c-.72879.99424-1.57403 1.52432-1.57403.98711zm-5.29167-1.00594c0-.2498 2.20814-1.47645 2.65781-1.47645.0904 0 .16442.20623.16442.4583 0 .25206-.52721.64894-1.17158.88194-1.38193.49971-1.65065.52189-1.65065.13621zm12.50339-.52001c-.30329-.79036.0704-2.19116.58455-2.19116.2717 0 .51633.3175.54362.70555.0273.38806.16333.98337.30233 1.32292.19414.47428.0779.61736-.50166.61736-.4149 0-.83288-.2046-.92884-.45467zm-7.91728-1.30922c0-.19403.16812-.35278.3736-.35278s.27549.15875.15557.35278-.28804.35278-.3736.35278c-.0856 0-.15557-.15875-.15557-.35278zm4.23334-.64154c0-.20633.16957-.47995.37682-.60804.20726-.1281.29162-.45496.18747-.72638-.12342-.32161.0568-.49348.51753-.49348.576 0 .64284.11968.36096.64637-.46257.86433-1.44278 1.66705-1.44278 1.18153zm3.60676-1.26915c-.44164-.20967-.99213-.80856-1.22333-1.33087-.47365-1.07005-.86419-1.22302-3.01151-1.1796-1.17661.0238-1.48588-.0884-1.40064-.50818.0768-.37826.44699-.50583 1.2429-.42829.90339.088 1.09094-.00036.9238-.43607-.30064-.78347 1.03033-1.19231 4.50682-1.38438 1.61696-.0893 3.21773-.27404 3.55728-.41047.89822-.36089.77421.22751-.57549 2.73056-1.37464 2.54931-2.74377 3.55314-4.01983 2.9473zm3.44879-2.91781c0-.48697-.86909-.53603-2.64583-.14936-.7409.16124-.91954.31771-.5956.52169.2545.16026.61709.69736.80574 1.19356l.34301.90219 1.04634-1.00246c.57549-.55135 1.04634-1.21088 1.04634-1.46562zm-2.49658-.83875c1.18855-.23383 2.24257-.55714 2.34227-.71846.24694-.39956-5.18626-.0565-5.5961.35335-.43658.43657.0573 1.18765.63509.96592.25177-.0966 1.4302-.36698 2.61874-.60081zm-6.67564 3.19781c-.40049-.25882-.24531-.34329.63818-.34738.68952-.003 1.07811.139.94932.34738-.2739.44318-.90172.44318-1.5875 0zm-2.29305-.35278c-.11992-.19403.10883-.35278.50834-.35278s.72638.15875.72638.35278-.22876.35278-.50835.35278-.60646-.15875-.72637-.35278zm-5.34353-.44097c-.22671-.36099 1.99976-.28873 2.87408.0933.50978.22273.23196.28927-1.00118.23979-.9387-.0377-1.78151-.18754-1.8729-.33306zm-4.44606-.1688c-.7276-.0761-1.32291-.28754-1.32291-.46986 0-.36865 2.09875-.45158 2.96975-.11735.6606.2535.75259.87037.11705.7849-.24253-.0326-1.03628-.12157-1.76389-.19769zm-5.64444-.70124c-1.29018-.19545-1.24523-.80566.0593-.80566 1.23984 0 2.14552.31377 2.14552.7433 0 .31808-.4355.33039-2.20486.0624zm-7.82589-.7696c-1.0389-.40683-.1805-.71065 1.58036-.55933.86417.0743 2.00778.143 2.54136.15276.53358.01.97014.17649.97014.37051 0 .40855-4.06712.43736-5.09186.0361zm-4.35883-.34708c-1.67493-.31487-1.39186-.91584.37141-.78853 1.69827.12262 2.12269.30125 1.83227.77115-.21773.35229-.41387.35384-2.20368.0174zm-5.5273-.72293c-.11163-.18063-.0813-.39985.0674-.48716.43638-.25627 2.5634.16095 2.5634.50282 0 .41724-2.37195.40312-2.63077-.0157zm-2.43898-.27283c-.13664-.13664-.59966-.2557-1.02893-.26458-.42927-.009-.78049-.17489-.78049-.36891 0-.58776 2.35921-.15431 2.56791.47179.14968.44904-.36206.55813-.75849.1617zm-5.83897-.79834c-2.32674-.28028-2.34321-1.10484-.0182-.91164 1.00639.0836 1.92138.24363 2.03331.35556.45561.45561-.54863.73274-2.0151.55608zm-7.07273-1.0561c-.28543-.1805-.44418-.38615-.35278-.457.34088-.26424 3.87034.171 3.87034.47727 0 .41861-2.84956.40219-3.51756-.0203zm-3.80258-.24741c-.87526-.35318-.41598-.86693.67839-.75886 1.30998.12937 1.84299 1.00718.58573.96464-.45273-.0153-1.02159-.10792-1.26412-.20578zm-8.64306-.72891c-1.85491-.19403-1.65439-.80135.26459-.80135 1.17592 0 1.5875.1372 1.5875.52917 0 .29104-.11907.50248-.26459.46987-.14552-.0326-.85989-.12158-1.5875-.19769zm-6.4527-.82482c-.39156-.63356.0874-.77771 1.75388-.52781 2.23306.33487 2.38577.90406.24254.90406-.97013 0-1.86852-.16931-1.99642-.37625zm-4.83619-.26697c-.33954-.0627-.61736-.26988-.61736-.46031 0-.49189 3.26717-.21956 3.43355.28621.13009.39545-1.17982.47643-2.81619.1741zm-3.70416-.3408c-1.63075-.16928-1.4236-.77987.26458-.77987.77611 0 1.41111.14938 1.41111.33196 0 .48022-.38165.58223-1.67569.44791zm-3.43959-.26591c-.19402-.0569-.94809-.20297-1.67569-.32466-2.11723-.35412-1.64173-1.02804.52277-.74091 1.01513.13466 1.91736.31651 2.00495.40411.24191.24191-.45022.77924-.85203.66146zm-8.12839-1.24298c-.39157-.63357.0874-.77771 1.75388-.52781 2.23306.33486 2.38576.90406.24254.90406-.97014 0-1.86853-.16932-1.99642-.37625zm-4.15016-.22347c-1.11889-.29004-.43174-.9949.84295-.86466 1.4344.14656 1.81638.34048 1.54276.7832-.20854.33742-1.25982.37331-2.38571.0815zm-4.93917-.68421c-.46776-.46776.10324-.67545 1.49274-.54294.79062.0754 1.43748.27916 1.43748.45281 0 .35753-2.58336.43699-2.93022.0901zm35.033-.12719c0-.19402.15875-.35277.35278-.35277s.35278.15875.35278.35277c0 .19403-.15875.35278-.35278.35278s-.35278-.15875-.35278-.35278zm-39.95208-.2593c-.92163-.0727-1.6757-.29824-1.6757-.50125 0-.23832.78132-.30029 2.20486-.17488 1.21268.10682 2.32393.20225 2.46945.21205.14552.01.26458.17658.26458.37061 0 .19402-.35719.32416-.79375.28919-.43656-.035-1.54781-.12305-2.46944-.19572zm41.36319.0829c0-.097.3139-.49029.69756-.87395.38365-.38365.63504-.89959.55863-1.14653-.0764-.24693-.23685-.89455-.35653-1.43915-.16929-.77034-.36505-.94338-.88172-.7794-.36526.11593-.75357.066-.86291-.11087-.29191-.47232 2.37752-.74326 3.91237-.39709 3.33959.7532 2.7238 3.69407-.95073 4.54046-1.82918.42134-2.11667.44939-2.11667.20653zm3.60112-1.32292c1.3309-1.0462 1.02291-2.50513-.5887-2.7887-.55603-.0978-.73506.13529-.9125 1.18828-.29909 1.77481.37082 2.489 1.5012 1.60042zm-49.00644-1.36119c-2.211-.63852-1.81588-4.24826.51881-4.73977.53112-.11181 1.25895-.36345 1.61739-.55921.8164-.44584.82426-.4286.58353 1.28048-.17195 1.22072-.2362 1.30402-.47619.61736-.34319-.98189-1.06802-1.01395-1.99377-.0882-1.36762 1.36762-.80269 2.82222 1.09607 2.82222.75535 0 1.37337.15875 1.37337.35277 0 .19403-.14577.35278-.32392.35278-.17816 0-.53535.0649-.79375.1442-.25841.0793-.9791-.003-1.60154-.18264zm4.25011-3.70974c.10745-.36385.30121-1.25861.43056-1.98835.21782-1.22879.69895-1.95121 1.05942-1.59073.24895.24895-.89082 3.74957-1.30395 4.0049-.24246.14984-.31023-.005-.18603-.42582zm47.98795-1.07463c.22787-1.66253.42771-2.14545.75314-1.82002.31119.3112-.25883 3.46783-.62622 3.46783-.21708 0-.2659-.63388-.12692-1.64781zm-23.76607-.40465c0-.19037.63868-1.19551 1.41929-2.23364.78062-1.03813 1.37098-2.12563 1.31191-2.41667-.11198-.55183-1.05585-.63503-2.11384-.18634-.5102.21637-.61736.0752-.61736-.81343 0-1.14364.5887-1.8319.89165-1.04243.12213.31827.6373.42846 1.58197.33837 1.04653-.0998 1.45587.01 1.61833.43313.36512.95147-.16599 2.27673-1.50745 3.76158l-1.27816 1.41476 1.41164-.22573c1.11124-.17769 1.45784-.1053 1.62881.34023.16591.43236-.009.56911-.74189.57929-.52749.007-1.55438.0996-2.28198.20517-.76019.11024-1.32292.0446-1.32292-.15429zm8.11389-.55287c0-.0747.22302-.66629.4956-1.31457.44717-1.06351.42753-1.31211-.201-2.54413-.38313-.751-.60998-1.45206-.50413-1.55793.41227-.41226 1.20847.7104 1.59638 2.25093.3408 1.35346.3172 1.75287-.14533 2.45877-.4681.71441-1.24152 1.1548-1.24152.70693zm-12.26236-.91766c-.66481-1.06452-.53934-3.32896.23755-4.28723.92914-1.14608 1.21093-.68237.54861.90278-.30215.72314-.47558 1.58095-.3854 1.90625.0902.32531.26662.94866.3921 1.38522.28216.98163-.20241 1.03845-.79286.093zm-26.19042-24.4983c0-.27755.35719-.55536.79375-.61736.74257-.10547.79375-.28333.79375-2.75857 0-2.53354-.0337-2.64226-.79375-2.5618-.44898.0475-.79375-.10972-.79375-.36206 0-.30605.52606-.42584 1.67569-.3816.92164.0355 2.19164.0793 2.82223.0975.85666.0247 1.14652.19352 1.14652.66798 0 .65433-.63035 1.48167-1.12888 1.48167-.15523 0-.28223-.3175-.28223-.70556 0-.51741-.23518-.70555-.88194-.70555-.9446 0-1.22315.92879-.49649 1.65546.27876.27876.27876.58482 0 1.10569-.55289 1.03309-.47502 2.51829.1445 2.75602.29148.11185.92648.10384 1.41111-.0178 1.11833-.28068 1.16998-1.4423.11411-2.56623-.74134-.78912-.74371-.81648-.0706-.81648 1.03668 0 1.54316.69472 1.54316 2.11666 0 1.82009-.47947 2.11667-3.42194 2.11667-1.9983 0-2.57528-.11306-2.57528-.50463zm2.91548-9.44529c-.31599-.38763-.36552-6.98417-.12362-16.46341.0275-1.07825.0876-1.14436.64163-.70556.57444.45499.57736.43091.0484-.39963-.47286-.74253-.5345-1.71825-.3856-6.10425.13475-3.96923.28268-5.17999.61719-5.05162.28858.11073.3792-.0635.26339-.50637-.0971-.37136-.30428-.59627-.46036-.4998-.15609.0965-.29495-1.25469-.30858-3.00258-.018-2.30195.0956-3.17946.41209-3.18337.31605-.004.30453-.0893-.0416-.30861-.32635-.20678-.42023-.73792-.29524-1.67029.1008-.7519.0602-5.65334-.0901-10.89209-.15035-5.23875-.17165-9.64071-.0473-9.78214.12431-.14142 1.88831.27415 3.92.9235 4.85847 1.55281 5.71646 1.91384 5.47537 2.30392-.11247.18198-1.13395-.0397-2.31428-.50229-1.39808-.5479-2.11295-.68661-2.11295-.40997 0 .47311 1.4249 1.49014 1.89624 1.35346.1698-.0492.56668.13059.88194.39961.31526.26903 1.52571 1.01601 2.68987 1.65996 2.8748 1.59017 7.3682 4.28315 7.58473 4.54566.097.11761.73201.5234 1.41111.90176.6791.37835 1.39347.81383 1.5875.96774.81624.64746 6.00324 4.04539 7.18567 4.70723.70595.39515 2.34853 1.54496 3.65019 2.55514 1.30166 1.01019 4.75264 3.43719 7.66887 5.39334 2.91622 1.95615 5.45739 3.82259 5.64704 4.14764.18966.32505.34966.46041.35556.30081.006-.15961.43479.0434.95311.45109.51831.4077 1.05907.61766 1.2017.46657.14263-.15108.32552-3.1055.40644-6.56538.10711-4.58044.2692-6.36613.59618-6.56822.30794-.19032.0975-.40011-.66972-.66755-.61534-.21451-1.01902-.55145-.89707-.74877.14329-.23186.68297-.15828 1.52576.208.71723.31172 1.97016.77638 2.7843 1.03258 1.93815.60991 2.92947 1.15466 2.92947 1.60981 0 .22282-.40354.27976-1.02123.14409-1.00228-.22013-1.02398-.19283-1.16924 1.47128-.23863 2.73376-.29385 24.17847-.0651 25.27547.17258.82753.34116.96261.96768.77536 1.67654-.50107 3.40454-.62949 3.40454-.25301 0 .49323-1.43736.88699-8.05945 2.20782-5.43524 1.08411-7.26547 1.1311-5.93618.15242.35455-.26104 1.41383-.58041 2.35396-.70971 2.44531-.33632 2.73446-.67995 2.89421-3.43958l.13784-2.38125h-1.16325c-.63978 0-1.16325-.15875-1.16325-.35278s.15875-.35278.35278-.35278.35278-.29472.35278-.65492c0-.51141-.25124-.6467-1.14653-.61736-1.30684.0428-1.80901.51018-1.25954 1.17225.29287.3529.12067.45281-.78041.45281-1.06564 0-1.11515-.0484-.63205-.61736.28828-.33955.95458-1.37143 1.48066-2.29306 1.41917-2.48623 2.38652-2.11437 2.90307 1.11599.13522.84563.40195 1.41231.6286 1.33548.42876-.14533.57263-6.36129.15681-6.77557-.13029-.12981-.95898.18716-1.84153.70437-.88256.51721-1.76018.84426-1.95027.72678-.1901-.11749-.51477.10242-.72149.48868-.22185.41454-.59048.61995-.89964.50131-.28809-.11055-.52379-.0301-.52379.17868 0 .20883-.88307.94458-1.96237 1.635-2.09398 1.3395-12.48843 6.70054-18.32235 9.44994-1.94028.91441-5.64959 2.77405-8.24292 4.13255-2.59332 1.35849-4.92166 2.46999-5.17407 2.46999-.25242 0-.51186.11906-.57653.26458-.16111.36249-2.66673 1.49931-3.30457 1.49931-.28445 0-.51719.13386-.51719.29748s1.07042.0963 2.37871-.14952c1.3083-.24585 2.43916-.38657 2.51303-.3127.42971.42971-.40916 1.11347-1.41867 1.15634-1.08102.0459-4.98603 1.04714-6.32697 1.62221-.30933.13266-.72792.0356-.9334-.21651zm1.0682-2.04104c-.20465-.78261-.24049-.79496-.46702-.16098-.13607.3808-.0749.79597.13725.93206.52929.33949.5857.20759.32977-.77108zm1.30799.005c0-.1895.59531-.64228 1.32291-1.00617.72761-.36389 2.59292-1.36835 4.14514-2.23212 4.80853-2.67584 5.53976-3.06104 9.17222-4.83183 3.05456-1.48906 4.8053-2.23728 5.46806-2.33689.097-.0146.57326-.27808 1.05833-.58555.89178-.56527 4.66561-2.5844 11.1125-5.94557 1.94028-1.01159 3.76591-2.03761 4.05695-2.28004.53483-.44549 6.28182-3.68335 7.58472-4.27323.53143-.2406.16141-.34658-1.4993-.42942-1.64201-.0819-2.20487-.24076-2.20487-.62231 0-.38716.49559-.5152 2.02848-.52407l2.02847-.0117-.88195-.6937c-.48507-.38153-1.04069-.82082-1.23472-.97619s-.61052-.38087-.92554-.5011c-.31502-.12024-1.61429-.93166-2.88726-1.80317-2.86895-1.96417-3.61093-2.22869-3.9048-1.39212-.12119.34499-.30803.81123-.4152 1.03609-.11589.24316.24161.5047.88217.64539 1.53275.33665 1.33329.88605-.32168.88605-1.74026 0-2.49944-.99035-1.51433-1.97546.33734-.33735.63452-1.03417.66038-1.54851.0426-.84699-.85503-1.53434-9.52169-7.29112-5.26279-3.49577-11.47372-7.50099-13.80205-8.90049-2.32833-1.39949-5.82903-3.53806-7.77933-4.75237-2.90939-1.81147-3.55462-2.09332-3.59404-1.56994-.0264.35085.0849.6379.24749.6379.16255 0 .23241 3.45281.15524 7.67292-.0772 4.2201-.11286 8.86354-.0793 10.31875.2881 12.50032-.10031 31.03182-.66217 31.59369-.54121.5412-.6118.99813-.10591.68547.20934-.12938.35277.2807.35277 1.00866 0 .67468.0964 1.4778.21414 1.78471.2344.61085.8442.76505.8442.21348zm10.41841-23.63167c-.34487-.38108-1.32197-.95827-2.17134-1.28265-1.68472-.6434-2.0195-1.19947-.72214-1.19947.45219 0 1.60312-.39621 2.55764-.88047 2.00413-1.01676 1.91187-.99152 1.91187-.52308 0 .19819-.39687.54117-.88194.76218-1.56511.71311-1.00198 1.09886 1.23472.84581 1.81556-.20541 2.11667-.15807 2.11667.33278 0 .46918-.34859.55612-1.93502.48263-2.27478-.10537-2.55069.0535-1.59492.91847.73546.66559.92462 1.23668.40961 1.23668-.16395 0-.58027-.3118-.92515-.69288zm17.61647-1.08873c-.33521-.54239.12395-.89234.57674-.43955.25335.25336.25944.45068.0185.59959-.19753.12208-.46538.0501-.59523-.16004zm1.3239-.047c.084-.25547.7525-.51476 1.48558-.5762.979-.0821 1.29235.0116 1.18019.35278-.084.25547-.7525.51476-1.48559.5762-.979.082-1.29234-.0116-1.18018-.35278zm4.50788.10292c0-.50238 1.62947-.77363 3.16879-.52748 2.18864.34998 1.6769.84202-.87573.84202-1.26118 0-2.29306-.14154-2.29306-.31454zm-12.08752-.24892c-.55737-.55736.27699-.84765 2.43635-.84765 1.68377 0 2.26255.11837 2.15604.44097-.15643.4738-4.16986.82922-4.59239.40668zm-5.83653-.52133c.0695-.20858.24151-.36733.38218-.35278.14067.0146.97014.0265 1.84326.0265.87313 0 1.5875.15875 1.5875.35277 0 .19403-.88635.35278-1.96967.35278-1.24794 0-1.92336-.13896-1.84327-.37923zm-10.65095-1.45584c0-.0715.40545-1.31503.90099-2.76343.49554-1.44839.9903-2.91125 1.09948-3.2508.20342-.63269.82176-.86419.82176-.30767 0 .17033-.2586.9244-.57467 1.6757-.31606.75129-.75263 2.06815-.97014 2.92633-.21751.85819-.59391 1.62548-.83644 1.7051-.24254.0796-.44098.0863-.44098.0148zm9.525-.46555c0-.2952.43657-.70915.97014-.9199.53358-.21075 1.24795-.52619 1.5875-.70098.99951-.51453.75917.58375-.31216 1.42645-1.09108.85825-2.24548.95821-2.24548.19443zm1.76389-.5216c0-.19403-.07-.35278-.15557-.35278-.0856 0-.25368.15875-.37359.35278-.11992.19403-.0499.35278.15556.35278.20548 0 .3736-.15875.3736-.35278zm13.05278-.54158c0-.10384.26784-.59758.5952-1.09719l.5952-.90839.28743.77699c.15809.42735.19838.92109.0895 1.09719-.20948.33896-1.56736.4528-1.56736.1314zm-7.95155-.47201c-.41587-.41587-.0997-2.45921.45502-2.94095.73586-.63902 3.2632-1.09742 3.2632-.59187 0 .19146-.24462.82114-.54359 1.39929s-.44808 1.20569-.33137 1.39455c.28789.4658 1.58051-.24294 1.58051-.86659 0-.26272.31753-.85245.70561-1.31051.63368-.74793.74148-.77324 1.0575-.24828.20701.34388.62634.51278 1.01847.41024.36662-.0959.77881.007.91599.22925.3358.54334-.10528 2.20886-.5175 1.95409-.17987-.11116-.2376-.43516-.12831-.71998.12551-.32706-.0169-.51787-.38653-.51787-.33312 0-.74421.45595-.9542 1.05833-.20292.58208-.50819 1.05833-.67839 1.05833-.17019 0-.21419-.47625-.0978-1.05833.26877-1.34385-.0574-1.35567-.74452-.027-.49779.96263-.66389 1.0283-2.49255.98549-1.07758-.0252-2.03228-.11892-2.12156-.20821zm1.75274-1.30466c.65079-.6508.73316-1.56231.14117-1.56231-.5857 0-1.70347 1.07755-1.70347 1.64218 0 .64434.88325.59918 1.5623-.0799zm-3.67897.54903c0-.39098.26942-1.67992.59871-2.8643.56549-2.03395.56491-2.17813-.0104-2.59878-.55077-.40274-.55466-.46624-.0407-.66348.78488-.30119 1.9218-.27369 1.92174.0465-.00002.14553-.38512 1.5126-.85577 3.03795s-.77115 2.99379-.66777 3.2632c.11232.29269-.0402.48983-.37894.48983-.33314 0-.56691-.29314-.56691-.71089zm-10.197.0335c-.67575-.42781-.56829-2.41742.17492-3.23866.807-.89172 2.26097-.8967 2.26097-.008 0 .71929-.93977 1.69045-1.29352 1.33671-.11997-.11997-.002-.47841.26188-.79652.41952-.50548.39251-.56159-.21431-.44517-.98828.18959-1.10518 2.42236-.14003 2.67475.36987.0967.58553.31656.47925.48853-.24525.39682-.8915.39179-1.52916-.0119zm6.55163.0894c-.52158-.52157-.19701-2.24234.55511-2.94304.70375-.65564 2.11271-.73914 2.6923-.15954.24889.24888-.93344 2.8086-1.29728 2.8086-.19945 0-.48169.11906-.62721.26458-.32787.32788-1.0093.34302-1.32292.0294zm2.00758-1.59997c.20796-.33025.25705-.72151.10909-.86947-.37636-.37637-1.44536.36231-1.59014 1.09878-.15477.78729.94844.61648 1.48105-.22931zm-16.57341 1.05979c-.14364-.23242-.29074-1.26629-.32687-2.29747-.056-1.59825.009-1.81252.44362-1.45218.39854.33075.57165.32188.79579-.0408.15754-.25492.46636-.35229.68625-.21639.27266.16851.18201.43531-.28505.83894-.37668.32552-.78958 1.1078-.91756 1.73839-.33943 1.67236.69683 1.52161 2.42493-.35278 1.36609-1.48172 2.08468-1.41727 1.26544.1135-.32538.60796-.31163.83477.0653 1.07789.39605.25545.38881.36486-.0425.64207-.62037.39877-1.08766-.16836-.83032-1.00772.0946-.30864-.20384-.12459-.66326.40898-.86792 1.00804-2.1636 1.27925-2.61582.54755zm10.98565-.27262c-.1164-.18834.19912-.44553.70116-.57154 1.00676-.25268 1.42846-.0409 1.07084.53772-.29061.47023-1.48816.49308-1.772.0338zm18.7595-.25948c-.35028-.0896-.57518-.348-.49977-.57424.19842-.59526 1.84221-.51636 1.84221.0884 0 .5692-.42091.72152-1.34244.48582zm-26.81447-4.1176c-.10261-.2674-.0223-.65044.17846-.85121.43983-.43982.0789-1.13205-.59023-1.13205-.26467 0-.95746.47625-1.53954 1.05833-.58209.58208-1.14993 1.05833-1.26187 1.05833-.50681 0-.11456-.84878.82768-1.79102 1.20053-1.20053 2.78862-1.36729 3.67662-.38606.72891.80543.73583 1.26915.0295 1.97549-.68281.68281-1.07694.70316-1.32061.0682zm42.63139 21.63571c.15582-.25213.38981-.23612.7349.0503.81716.67818.95681.16008.8876-3.29307-.036-1.79655-.0637-6.38991-.0615-10.20746.003-5.28058-.11787-7.22158-.50542-8.11389-.28018-.64509-.53208-1.09352-.55977-.9965-.0277.097-.11981 1.03611-.20469 2.08689-.10643 1.31753-.013 2.00186.30113 2.20486.35847.23167.36269.35443.0199.57646-.40306.261-.6609 3.96926-.97382 14.0054-.0423 1.35819-.19763 2.82663-.34506 3.26319-.27484.8138.26549 1.13783.70676.42384zm-3.63915-5.1543c-.16877-.88285-.20744-.89966-.65663-.28536-.64901.88758-.59978 1.22346.17933 1.22346.52066 0 .6195-.19425.4773-.9381zm-23.18255-24.4619c.11992-.19402.0629-.35277-.12672-.35277-.18961 0-.63554-.1091-.99095-.24244-.56886-.21342-.58826-.17119-.16205.35277.55046.67673.96301.75488 1.27972.24244zm24.41005 42.8133c-.37564-.37564.0952-.81553.64644-.60398.28372.10887.42801.34006.32066.51376-.22867.37-.64818.40913-.9671.0902zm1.85772-.69363c-.18728-.4926-.3004-1.79698-.25137-2.89862.0821-1.84396.0257-2.012-.70983-2.11641-1.56679-.22241-.35752-.76853 1.70175-.76853 2.14472 0 2.79292.45412 1.2139.85042-.69291.17392-.89577.46566-.94646 1.36116-.11167 1.9727.0724 3.21943.51693 3.50191.79206.50329 1.9887.29029 2.36981-.42182.54594-1.02011 1.12369-.86626.99357.26458-.10748.93411-.19401.97298-2.3297 1.04654-2.08192.0717-2.23898.0214-2.5586-.81923zm-38.7096-.20807c.13997-.41992.82311-.66975 3.00502-1.09897.96164-.18917 1.14653-.1203 1.14653.42709 0 .44874-.34443.72153-1.10243.87313-1.79728.35946-3.20505.26654-3.04912-.20125zm5.73864-.99004c-.28149-.45547.92246-.9031 3.30598-1.22915 2.57504-.35226 2.32554.48538-.32913 1.105-2.3738.55406-2.70267.56778-2.97685.12415zm34.92541-.5601c-.66101-.50434-.66658-.56041-.0882-.88825.33955-.19246.61736-.58017.61736-.86157s.1371-.51164.30467-.51164.30467.635.30467 1.41111c0 1.55689-.10737 1.63709-1.13851.85035zm-27.60486-.74341c-1.3494-.26522-.88313-.69714 1.20536-1.11657 2.43947-.48991 2.93978-.50032 2.93978-.0611 0 .74058-2.60436 1.48051-4.14514 1.17768zm30.13898-1.0418c-.13258-.13258-.24106-.5321-.24106-.88782s-.15875-.64676-.35278-.64676-.35278-.15875-.35278-.35278.299-.35278.66443-.35278c.4435 0 .72774.32259.85481.97014.1933.98504-.13327 1.70934-.57262 1.27zm-24.35714-.36824c-.39729-.3973-.24196-.81356.30358-.81356.29104 0 .52916.14938.52916.33195 0 .44485-.55089.76345-.83274.48161zm1.6328-.54898c.0843-.24253.49442-.42837.91134-.41296.41693.0154.75805-.10366.75805-.26458 0-.16093.15875-.2926.35278-.2926.56939 0 .40426.96309-.20525 1.19698-.96019.36846-1.97962.24119-1.81692-.22684zm3.0805-.97014c0-.19403.15875-.35278.35278-.35278s.35278.15875.35278.35278-.15875.35278-.35278.35278-.35278-.15875-.35278-.35278zm2.11667-.49816c0-.30549.54073-.58951 1.39816-.73437 1.38373-.23378 2.12961-.0563 2.12961.50667 0 .43513-1.67727.67136-2.05868.28995-.20632-.20631-.42047-.18656-.56815.0524-.33762.54627-.90094.47459-.90094-.11465zm3.76296-.44258c-.44725-.44725-.23245-.82315.47037-.82315.39197 0 .70556.23519.70556.52917 0 .53707-.74627.72364-1.17593.29398zm18.30151-3.97248c-.29399-.47569.25901-.72657 2.36028-1.07078 1.02146-.16732 2.31445-.4199 2.87333-.56129.78589-.19882.97956-.14587.85475.2337-.0887.26992-1.04425.66754-2.12332.88361-1.07908.21608-2.36681.49447-2.86162.61866s-.99135.0774-1.10342-.1039zm8.27442-1.85762c0-.487 3.11859-1.34305 4.89274-1.34305 1.46029 0 .43957.60576-1.74488 1.03553-1.18854.23383-2.38303.51036-2.65442.6145-.27864.10692-.49344-.0267-.49344-.30698zm7.40833-1.66687c0-.38647 6.65548-1.95774 6.96814-1.64507.43961.43961-.51323.8353-3.35933 1.39507-3.39173.66708-3.60881.68211-3.60881.25zm8.46667-1.74635c0-.16847.91281-.5502 2.02847-.84832 3.62329-.96816 3.96875-1.01204 3.96875-.50412 0 .29498-.95716.69525-2.55764 1.06957-2.88578.67495-3.43958.72049-3.43958.28287zm7.40833-1.70845c0-.30146 3.66809-1.51304 4.58078-1.51304.8993 0 .22282.71479-.98403 1.03976-2.49561.67199-3.59675.81689-3.59675.47328zm17.06229-.7287c.0261-.33438.36493-.69726.75299-.80641.49705-.1398.6782-.45256.613-1.05833-.0509-.47293-.10071-1.09801-.11068-1.38905-.0516-1.50689-.36936-2.07518-1.21971-2.18151-.49063-.0614-.88144-.23628-.86848-.38872.0129-.15246-.22023-.52098-.5182-.81895-.29797-.29798-.54177-.68918-.54177-.86935 0-.56909.68247-.35498 1.12447.35278.41918.6712.43797.67104 1.39717-.012l.97228-.69232 2.19209 2.30502c1.20565 1.26776 2.45867 2.30502 2.78448 2.30502.56805 0 1.76007 1.03423 1.76007 1.52708 0 .13024-.29115.23681-.647.23681-.3598 0-1.785-1.25221-3.2107-2.82098-1.41004-1.55153-2.66894-2.75593-2.79757-2.67644-.34764.21486-.0285 3.38075.34079 3.38075.17449 0 .31726-.26987.31726-.59972 0-.45426.099-.50067.40838-.19134.30932.30932.30564.53218-.0152.91876-.2377.2864-.32674.8962-.20291 1.38959.20477.81586.30906.85481 1.44733.54052 2.3169-.63972 2.0059-.0784-.39285.70905-1.31976.43325-2.67702.93621-3.01613 1.11769-.48009.25694-.60605.19542-.56912-.27798zm-10.54961-.80652c-.29802-.48221-.40991-.43222 2.48315-1.10936 1.3582-.31789 2.9457-.69239 3.52778-.83221l1.05833-.25422-.88194-.29004c-.7017-.23077-.57553-.27259.61736-.20461 1.8942.10793 1.96291-.37991.0956-.67851-.77206-.12346-1.68487-.43779-2.02848-.69851-.58952-.44732-.58503-.47467.0796-.48526 1.07863-.0172 6.20338 1.77383 6.00306 2.09796-.0971.15716-.7729.37162-1.50172.47658-2.25609.32491-4.43903.83222-5.91124 1.37376-2.28114.8391-3.29003 1.01129-3.54149.60442zm-5.03565-2.35388c-.97515-.0873-1.47094-.28682-1.38058-.55573.13446-.40014 3.57315-.40479 4.23083-.006.44523.27016-.0903.82552-.73213.75921-.3281-.0339-1.28125-.12289-2.11812-.19776zm19.68964-.0934c-.31796-.20548-.36147-.34413-.10902-.34737.23108-.003.51827.15334.63818.34737.27069.43799.14856.43799-.52916 0zm-25.66459-.24896c-1.20288-.23169-.94929-.81002.35278-.80456 1.48086.006 2.73403.34628 2.73403.74189 0 .31367-1.61352.34643-3.08681.0627zm11.02779-.10945c.22821-.36924 2.49051-.2638 2.88896.13465.12307.12307-.52644.22376-1.44335.22376-1.03904 0-1.58367-.13503-1.44561-.35841zm-28.49565-.3454c-1.31264-.098-2.42389-.33688-2.46945-.53091-.13479-.57412 4.04938-.63348 4.82216-.0684.9265.67747.42069.80632-2.35271.59932zm4.91485.11585c-.55378-.55379-.13816-.82284 1.26412-.81833 1.8729.006 3.1389.33104 2.88563.74084-.22353.36168-3.7988.42844-4.14975.0775zm5.76204-.094c0-.50186 1.34604-.79174 2.92445-.62982 2.12643.21815 1.67619.77356-.71959.88768-1.34375.064-2.20486-.0367-2.20486-.25786zm-17.72708-.28054c-.72761-.0761-1.32292-.28036-1.32292-.45388 0-.69459 3.81289-.8855 4.47436-.22403.33176.33176-.58143.94332-1.29936.87019-.29104-.0296-1.12448-.11617-1.85208-.19228zm-6.05806-.41244c-2.362-.28906-2.59999-1.09608-.32134-1.08965 2.14753.006 3.35968.32296 3.18959.83385-.16168.48566-.64086.5284-2.86825.2558zm42.74695-.98487c-.33955-.0887-.61736-.30844-.61736-.48824s.27781-.32474.61736-.32209c1.01434.008 2.20486.4085 2.20486.74188 0 .32014-1.10991.3546-2.20486.0685zm-2.29306-.71576c-.69616-.24972-.51366-.80494.26458-.80494.38806 0 .70556.14938.70556.33195 0 .45157-.43653.6644-.97014.47299zm-4.73755-1.44964c-1.93883-.69299-2.35287-1.02643-1.62255-1.30668.58515-.22454 4.15524 1.20574 4.15524 1.66471 0 .4081-.64388.31707-2.53269-.35803zm-6.26017-1.78147c-1.86507-.57434-2.85603-1.48299-1.55529-1.42611 1.08917.0476 4.0673 1.18519 4.05894 1.5504-.0122.5328-.43861.51163-2.50365-.12429zm-6.72936-2.11345c-2.22347-.65968-2.9089-1.03196-2.65535-1.44221.24352-.39403 5.2217 1.15726 5.39649 1.68165.1752.52559-.30351.48377-2.74114-.23944zm-5.82084-1.64284c-.19402-.0712-1.02746-.30296-1.85208-.51492-.90416-.2324-1.49931-.59003-1.49931-.90094 0-.65464.36725-.647 2.88728.0601 1.22017.34236 2.05161.77127 2.05161 1.05834 0 .45018-.77569.59552-1.5875.29744zm-7.58472-2.29562c-1.17809-.36592-1.98508-.8285-2.05434-1.17757-.0631-.318.11295-.57491.39393-.57491.75841 0 4.12986 1.46137 4.12986 1.7901 0 .56376-.5608.55522-2.46945-.0376zm34.57222.34337c0-.20548.15875-.27549.35278-.15557.19403.11991.35278.28803.35278.3736 0 .0856-.15875.15557-.35278.15557s-.35278-.16812-.35278-.3736zm-40.5403-2.39813c-1.5657-.58239-2.3403-1.46161-1.2877-1.46161 1.0866 0 3.37523.88135 3.37523 1.2998 0 .72446-.47579.76134-2.08753.16181zm-7.34928-5.23437c-1.39828-.18598-1.50657-.72506-.17639-.87811.53358-.0614.95426-.31006.93486-.5526-.0194-.24253-.0591-1.15535-.0882-2.02847-.0481-1.44404-.13262-1.5875-.93486-1.5875-.58323 0-.88195-.19651-.88195-.58018 0-.50258.31591-.55068 2.3618-.35963 1.29899.1213 2.58709.44584 2.86245.7212.67988.67988.71313 3.9615.0467 4.6107-.58957.57434-2.47637.8738-4.12444.65459zm3.61108-1.50348c.52134-1.64262-.53221-3.8934-1.824-3.89672-.15828-.00042-.23454 1.03147-.16948 2.29306.11027 2.13813.17449 2.29379.94637 2.29379.51207 0 .91166-.26336 1.04711-.69013zm-12.7833.67968c-1.33329-.59241-2.02077-1.40066-1.19138-1.40066.53603 0 3.5342 1.41631 3.75523 1.77393.33304.53888-.92227.35612-2.56385-.37327zm-4.32153-1.75344c0-.19403.23812-.35278.52917-.35278.29104 0 .52916.15875.52916.35278s-.23812.35278-.52916.35278c-.29105 0-.52917-.15875-.52917-.35278zm-4.14514-1.06932c-.8242-.33129-1.09337-1.04734-.39371-1.04734.80825 0 3.12774.82625 3.12774 1.11417 0 .38511-1.71389.34321-2.73403-.0668zm-4.49792-1.28929c-1.69674-.38501-3.70416-1.29951-3.70416-1.68746 0-.78705.37222-.80038 2.56952-.092 1.20614.38886 2.40929.7665 2.67368.83921.38483.10583.3938.2369.045.65718-.23964.28875-.53533.50658-.65709.48407-.12177-.0225-.53889-.11296-.92695-.20102zm-8.37847-3.00182c-1.13991-.38563-2.02847-.89658-2.02847-1.16643 0-.3687.61465-.27355 2.64676.40968 1.45572.48944 2.5576 1.03416 2.44862 1.21048-.26049.42149-.65015.36384-3.06691-.45373zm-6.33484-1.98705c-1.92613-.68439-2.95578-1.48859-1.8496-1.44462 1.12723.0448 4.16148 1.22114 4.31162 1.67156.18294.54882-.44048.49135-2.46202-.22694zm-15.00457-5.79349c-1.47745-1.87578-.1614-6.28125 1.72982-5.79051.36706.0952.68555-.12971.85019-.60047.21639-.61875.28878-.51093.40661.60554.1671 1.58333-.0311 1.91356-.77688 1.2946-.43478-.36084-.64619-.3562-1.10459.0242-.56062.46527-.53401 1.94263.0741 4.11382.24856.88748-.56613 1.1312-1.17925.35278zm2.25733-.97014c.58996-.99871 1.17861-1.39031 1.17861-.78405 0 .47059-1.08043 1.84239-1.45106 1.84239-.194 0-.0714-.47625.27245-1.05834z" stroke-width=".352778" transform="translate(-122.80414 -141.79779)"/>
</svg>
