<?xml version="1.0" encoding="utf-8"?>
<svg height="118.94807mm" viewBox="0 0 312.05969 118.94807" width="312.05969mm" xmlns="http://www.w3.org/2000/svg">
	<title>A diagram showing two shapes and views onto them. The first shape, an equilateral triangle has the near corner to the point of view labelled A and the furthest visible points labelled B and C. Points D and E are level with point A and sit on the lines of sight from the point of view to corners B and C. The second shape is a regular pentagon and has the same points marked (with prime marks) to show that the outside visible points are closer to the point of view than with the triangle.</title>
	<path d="m189.74405 201.88153c0-.30369.39688-.70306.88195-.88748.78024-.29665.88194-.541.88194-2.119 0-1.12165-.16367-1.8325-.44097-1.91517-1.55528-.4637-1.77082-.59792-1.45973-.90902.18368-.18367 1.44054-.40514 2.79302-.49216 2.20737-.14202 2.52146-.0796 3.06859.6101l.60951.76831.008-.81695c.0125-1.30491.65864-2.18166 1.60775-2.18166.47825 0 .86954.10241.86954.22759 0 .55497-1.97587 3.28574-2.29306 3.16914-.19403-.0713-.62455.10688-.95671.39599-.56623.49284-.55618.56432.16106 1.1451.67383.54563.72478.7823.42755 1.98595l-.33744 1.3665-2.91042.10246c-2.44937.0862-2.91042.015-2.91042-.4497zm4.7625-1.76942c0-.46311-.27276-.7443-.79375-.81829-.43656-.062-.79375.0441-.79375.23573 0 .19165-.10121.61222-.22492.9346-.18282.47642-.0343.56436.79375.46982.74472-.085 1.01867-.30606 1.01867-.82186zm-.17639-3.18741c0-.64344-.37996-.65623-1.22119-.0411-.86742.63427-.40576 1.42858.53705.924.37628-.20138.68414-.59868.68414-.88289zm-27.59452-5.6511c-.0755-.0755-5.04986-.20957-11.05404-.29784-6.00419-.0883-12.14442-.27319-13.64495-.41091s-5.52128-.26843-8.935-.29046l-6.20677-.0401-.88526-2.46945c-1.22305-3.41173-3.08236-8.82182-4.54653-13.22916-.67681-2.0373-1.69337-4.81542-2.25903-6.17361-.56565-1.3582-1.5323-3.73945-2.1481-5.29167s-1.51266-3.68989-1.99301-4.75037c-.48034-1.06048-1.11621-2.64343-1.41302-3.51767-.53951-1.58912-1.24256-3.2149-3.49379-8.07938-.65901-1.424-1.1982-2.8792-1.1982-3.2338 0-.35459-.12792-.69762-.28427-.7623-.15636-.0647-.97199-1.78447-1.81252-3.82176s-1.72774-4.18042-1.97157-4.7625-.54641-1.54856-.67241-2.14774c-.20698-.98428-.0922-1.18001 1.18995-2.02847.78047-.51649 1.56796-.93907 1.74998-.93907.18201 0 .38385-.13502.44853-.30005.18188-.46408 10.10847-6.40273 10.70232-6.40273.10023 0 .94182-.51593 1.87022-1.14652 1.92134-1.30504 2.76629-1.81291 5.00755-3.00985.87313-.4663 2.46063-1.36426 3.52778-1.99548 1.06715-.63123 3.05153-1.75179 4.40972-2.49015 1.3582-.73836 4.25572-2.42971 6.43894-3.75857 2.18322-1.32885 4.05913-2.41609 4.16868-2.41609s.70453-.35759 1.32217-.79464 1.3867-.95299 1.70901-1.14653c1.15434-.69316 5.07195-3.45182 5.76398-4.05882 1.28448-1.12667 5.50502-3.87779 5.94896-3.87779.23997 0 .61987.18355.84421.40788.23146.23147 1.58431.4222 3.1278.44098 1.83736.0224 2.76766.17617 2.86706.47405.10788.32328-.49628.44466-2.2635.45478-2.38679.0137-2.3993.0187-1.26411.51214.63059.27408 1.14652.73914 1.14652 1.03345 0 .29432.20243.45745.44984.36251.41276-.15839 9.90828 5.27602 11.23967 6.43261.31736.27568 1.66673 1.0513 2.99861 1.72358 3.03302 1.53095 4.70808 2.47765 10.88827 6.15379 2.71639 1.61578 5.57389 3.24872 6.35 3.62877.77611.38004 1.46403.82937 1.5287.9985.0647.16913.2783.30751.47471.30751.19642 0 .7785.29892 1.29352.66426 1.05554.74876 2.70288 1.7006 6.05168 3.49668 1.26118.67642 2.61056 1.49692 2.99861 1.82334 1.16214.97754 4.42439 2.9381 4.59873 2.76376.0892-.0892-.40591-1.73681-1.10023-3.66135-2.78663-7.72413-6.4846-19.07295-6.48542-19.90335-.001-1.13595.34471-1.6495 1.22303-1.81611.38806-.0736.70732-.36978.70947-.65817.003-.39659.34674-.49408 1.41111-.40017.77396.0683 1.52885.19833 1.67754.28896.47529.28973-.1088.82141-.90852.827-.42511.003-.6107.12203-.41243.26458.19828.14255.76411 1.21168 1.25742 2.37585.84165 1.98624 1.75494 4.74328 5.81243 17.54646 1.59701 5.0393 1.67628 5.19666 2.57673 5.11528 1.14096-.10311 1.59323.57737.48806.73433-.93802.13322-.94181.1651-.28099 2.36087.28203.93708.41749 1.87513.30103 2.08454-.14255.25632-.0886.26546.16517.028.2073-.19403.5157-.8976.68532-1.5635.16963-.6659.49956-1.27445.73318-1.35232.65814-.21938.51242 1.70702-.22042 2.9138-.56032.92269-.58438 1.21277-.19017 2.29306.24822.68021 1.35068 3.69736 2.44992 6.70479 3.55717 9.73216 3.72876 10.39057 2.91895 11.20037-.94507.94508 1.34526.26865 2.39407-.70706 1.78976-1.66501 1.67148-.52295-.14628 1.41251-1.45537 1.54961-1.88906 1.80103-3.42992 1.98842l-1.76389.21451-2.36277-6.95423-2.36277-6.95422-1.3937.10062c-1.42142.10263-2.31008-.48711-1.31145-.87032 1.31626-.50509.21569-1.92701-1.21051-1.56397-.98509.25076-1.44418 1.42782-.55689 1.42782.30527 0 .55504.25026.55504.55614 0 .42963-.31759.53322-1.39609.45534-.76784-.0554-1.48211-.0148-1.58725.0904-.20503.20503-2.87053 7.45574-5.16432 14.04799-.77264 2.22053-1.53742 4.20491-1.69953 4.40972-.1621.20481-.37589.84863-.4751 1.43072-.0992.58208-.35077 1.53458-.55905 2.11666-.20827.58209-1.36575 3.99521-2.57217 7.58473-1.20642 3.58951-2.6266 7.47889-3.15594 8.64305-1.09145 2.40039-2.17182 5.85439-1.91235 6.11385.0952.0952.48231-.10687.86033-.44897s.8673-.56201 1.0873-.48867c.21999.0733-.53483 1.02499-1.67738 2.1148l-2.07736 1.98146-12.91275.009c-7.10201.005-12.97455-.0528-13.05009-.12833zm21.13635-1.61088c2.29081-.014 4.48262-.15781 4.87067-.31951.60138-.2506.6144-.29768.0882-.31881-.74201-.0298-.7403-.003-.13158-2.07517.26719-.90959.66914-2.42914.89325-3.37679.2241-.94765.8171-2.61452 1.31779-3.70417.50068-1.08964 1.11642-2.61616 1.3683-3.39228.42045-1.29553 1.25047-3.55244 3.56786-9.70139.47531-1.26118 1.26801-3.56305 1.76156-5.11527.49355-1.55223 1.38312-4.09223 1.97683-5.64445 1.74044-4.55034 2.72212-7.21387 3.83562-10.40694.57512-1.64924 1.18597-3.31611 1.35742-3.70417.17146-.38806.39509-1.19685.49695-1.79731.10186-.60047.61777-2.02922 1.14647-3.175 1.31381-2.84728 1.31547-3.8132.007-3.96278-.55647-.0636-1.93547.2298-3.06444.65201s-2.2292.65855-2.44495.52521c-.61077-.37748.1862-1.1175 1.48275-1.37681.61567-.12314 1.75144-.39407 2.52394-.60209l1.40454-.3782-1.04866-.82071c-3.23858-2.53456-16.81808-11.11293-17.59171-11.11293-.11384 0-1.66973-.92765-3.45752-2.06144-1.7878-1.13378-4.40147-2.67071-5.80818-3.41538-1.4067-.74466-2.55763-1.48389-2.55763-1.64273 0-.15883-.19894-.28879-.44208-.28879-.24315 0-2.18783-1.04541-4.32153-2.32313-2.1337-1.27773-4.3457-2.58741-4.91556-2.91042-.56986-.323-1.38285-.90478-1.80665-1.29283-.4238-.38806-.96312-.74971-1.19849-.80367-.23538-.054-1.82384-1.04614-3.52993-2.20486-1.70609-1.15871-3.24052-2.10579-3.40985-2.1046-.16932.001-1.33973.71459-2.60091 1.58535s-2.45181 1.58419-2.64584 1.5854c-.19402.001-1.5434.76431-2.99861 1.69579-3.28647 2.10366-3.84799 2.32944-4.10804 1.65175-.32246-.84033-.86397-.60164-.64195.28296.16855.67154-.0513.94751-1.3162 1.6525-.83519.46548-3.02665 1.74024-4.86992 2.83279-1.84326 1.09256-3.58951 2.10141-3.88055 2.24189-.29105.14048-.84699.44764-1.23545.68256-2.8572 1.72795-7.66624 4.1313-8.26665 4.1313-.40065 0-.72846.14642-.72846.32537s-1.65841 1.21492-3.68536 2.30217c-2.02695 1.08724-5.99455 3.39678-8.81688 5.1323-6.70627 4.12386-7.19455 4.36977-7.75427 3.90524-.33022-.27406-.6239-.18185-1.10141.3458-.59211.65427-.59543.69811-.0366.48367.78479-.30115 1.59409.75335 1.559 2.03134-.0143.51917.63291 2.21028 1.43814 3.75803s1.46405 3.11529 1.46405 3.48343c0 .36812.13581.82013.30179 1.00446.16599.18433 1.41432 2.79576 2.77406 5.80319s2.80995 6.02368 3.22269 6.70278 1.02345 1.79035 1.35714 2.46945c.33369.67909.79562 1.47284 1.0265 1.76389.95042 1.19807 2.30319 5.16289 2.97752 8.72678.39512 2.08825 1.02167 4.43183 1.39233 5.20794.51318 1.0745 4.35891 12.72901 5.15556 15.6239.0896.32544.86126.43738 2.71835.39433 1.42631-.0331 3.19199.13746 3.92373.37895.96358.31801 1.53903.33576 2.08691.0644.7747-.38375 13.63286-.75806 13.63286-.39687 0 .1091-.1905.38886-.42333.6217-.32926.32926-.32192.42333.033.42333.251 0 .53938-.3175.64086-.70555.17449-.66723.47452-.70472 5.52323-.6902 2.93629.008 6.05309.17288 6.92621.36539.87313.19251 5.34357.42356 9.93433.51346 4.59075.0899 8.71825.30371 9.17222.47514.45397.17144.93547.24715 1.07.16826.13452-.0789 2.1189-.15491 4.40972-.16894zm-43.78658-33.78203c-.12404-.20071.29559-.6291.93253-.95198 1.64684-.83483 5.22447-3.2555 6.32284-4.2781.59549-.55442 1.01652-.72952 1.16734-.48549.35068.56742.1017.81881-2.6189 2.64413-1.36861.91824-2.38806 1.83184-2.26544 2.03024.13827.22373 1.34599.29131 3.17994.17796 2.61705-.16176 3.56174.0529 2.66687.60594-.62446.38593-9.16104.61997-9.38518.2573zm5.0892-1.81482c0-.19883.43656-.5164.97014-.7057.53358-.18932 1.24579-.50289 1.58271-.69683.81316-.46809 1.77167-.44978 1.61148.0308-.0703.21088-.99024.68713-2.04433 1.05834-2.24623.79105-2.12.77239-2.12.31343zm-5.12126-1.11436c-.11302-.29454-.1788-.67827-.14617-.85274.0326-.17447.0405-.8526.0175-1.50694-.0356-1.01356-.11984-1.12495-.56892-.75224-.28992.24062-.92152.3621-1.40354.26995-.66442-.12701-1.01688.0549-1.45724.75224-1.2479 1.97608-3.65833 2.90133-4.15906 1.59647-.38512-1.00361-.22511-2.79708.31882-3.57366.33735-.48163.40209-.84177.17639-.98126-1.20423-.74426.40192-3.7065 2.00969-3.7065.8963 0 1.2939.86209.64571 1.40004-.35363.29349-.5128.27765-.62722-.0624-.22969-.68266-1.3264.32288-1.3264 1.21614 0 .52982.17419.65795.70556.519.89316-.23357.8883-.1984-.19274 1.3946-1.07621 1.58588-1.04864 3.06606.0601 3.22424.5666.0808.97513-.2785 1.67569-1.47393.50954-.86946.92643-1.89031.92643-2.26857 0-.37825.21969-.87005.48819-1.09289.39565-.32836.53241-.16938.72154.83875.12835.68415.34523 1.24147.48195 1.2385.81833-.0178 1.8361-1.58262 1.8361-2.82302 0-.4498.17935-.69831.44097-.61101.32428.10819.40935 1.07285.32146 3.64537-.11402 3.33742-.49328 4.78649-.9448 3.60986zm11.1709-.78564c.0726-.3518 1.00074-.95696 2.24064-1.46095 2.43419-.98945 2.64601-1.0233 2.64534-.42268-.00035.36889-1.17587.96403-4.5332 2.29517-.30968.12279-.43331-.0214-.35278-.41154zm7.00314-2.77096c0-.2455.83344-.74217 1.85208-1.10371 1.01865-.36154 2.05052-.73329 2.29306-.82611.24253-.0928.44097.0671.44097.35536 0 .50785-.62835.83565-3.13945 1.63777-1.486.47467-1.44666.4764-1.44666-.0633zm-15.16945-1.65974c0-.18822.47625-.69433 1.05834-1.12468.78302-.57891 1.05833-1.0691 1.05833-1.88432 0-1.05313 1.06265-2.64601 1.76522-2.64601.17964 0 .50425.3319.72136.73756.43668.81595-.0397 2.42975-.93704 3.17449-1.17753.97727-.13825 1.28371 1.71365.5053.42738-.17965.61737-.0982.61737.26461 0 .28826-.48422.72468-1.07605.96982-.87312.36166-1.23845.35879-1.93726-.0152-.67099-.3591-1.06037-.37017-1.76278-.0501-1.09511.49897-1.22114.50605-1.22114.0686zm4.23334-4.16433c0-.94207-.88271-.19342-.97813.82958-.0918.9836-.0714.99957.44097.34634.29544-.37663.53716-.9058.53716-1.17592zm17.28611 3.33841c0-.33699.69425-.76965 1.85208-1.15422 2.07927-.69062 2.13964-.69555 2.30866-.18849.11794.35383-1.69638 1.26326-3.34641 1.67739-.58448.1467-.81433.0522-.81433-.33468zm5.88351-1.8854c-.47356-.47356-.20988-.70889 1.61301-1.4396 3.04574-1.22089 3.52229-1.30817 3.38382-.61974-.0692.34406-.87252.8857-1.88451 1.27063-2.59216.98599-2.84977 1.05127-3.11232.78871zm-8.73172-1.03472c-.419-.50487-.35448-.81713.47622-2.30499 1.02884-1.84274 1.29403-2.90047.53754-2.14398-.23283.23283-.86783.42333-1.41111.42333-1.98507 0-.9904-2.6194 1.47161-3.87542l1.35444-.69099.34072 1.97766c.26192 1.52022.22934 2.19111-.14085 2.90056-.26486.5076-.48255 1.33181-.48375 1.83156-.001.49975-.37522 1.2591-.83116 1.68745-.76397.71771-.86702.73299-1.31366.19482zm1.4317-2.01799c-.004-.62837-.0694-.67396-.34738-.24376-.44915.69502-.44915 1.51231 0 1.23472.19403-.11991.35035-.56584.34738-.99096zm.35277-3.76068c-.003-.10299-.1572-.42537-.34273-.71641-.44329-.69537-1.54642-.0578-1.70192.98367-.10166.6808-.0298.70505.97013.3276.59396-.22419 1.07749-.49188 1.07452-.59486zm-11.20244 4.8613c.18235-.54706 1.64518-1.57719 2.65298-1.86825 1.52787-.44124.85394.81701-.83859 1.5657-1.90467.84252-1.99967.85836-1.81439.30255zm24.75922-.68828c-.11906-.19265-.11824-.4485.002-.56856.23626-.23626 2.68271-1.13187 3.11555-1.14056.53233-.0107.24641.98492-.35278 1.22841-1.57152.63861-2.56071.81061-2.7646.48071zm5.14585-2.08521c0-.35203 1.3108-1.00814 3.11923-1.5613.66646-.20386.80286-.13421.70555.36029-.0743.37739-.73079.7952-1.70812 1.08704-1.92904.57602-2.11666.58613-2.11666.11397zm-16.16733-1.65769c-.17443-.33955-.4105-1.56732-.5246-2.72837-.11411-1.16106-.37385-2.16648-.57721-2.23427-.60805-.20268-.41997-.9217.37016-1.41514.40695-.25415.80061-.40138.87481-.32717.0742.0742.2407 1.51115.36999 3.19322l.23508 3.05831.91858-.19475.91857-.19475-.83283.73014c-1.01625.89094-1.34203.9119-1.75255.11278zm21.54324-.17639c.1953-.60205 2.70405-1.7642 3.30806-1.53242.81916.31434.54417.91506-.4189.91506-.49892 0-1.14526.23812-1.43631.52916-.64081.64082-1.65203.7022-1.45285.0882zm-18.73956-2.15436c-.99073-1.19377.77395-4.09632 2.16575-3.56223.29876.11464.648.0389.77609-.16839.12809-.20726.47426-.37683.76927-.37683.41147 0 .48268.24446.30582 1.04973-.36156 1.64615.11222 1.96416 1.27152.85348.5608-.53728 1.01964-1.17312 1.01964-1.41298 0-.66475 1.7563-2.6069 2.35744-2.6069.29196 0 .61616.32627.72044.72504.17628.6741.2563.64514 1.13908-.41229 1.06884-1.28029 1.59025-1.17463 1.90227.38547.12533.62667.43475 1.06567.75112 1.06567.83623 0 .63436.5484-.3704 1.00619-1.14936.52369-1.67655.20756-1.41196-.84666.38298-1.52594-.51148-1.28583-1.22582.32905-.70352 1.59041-1.26366 2.22752-1.63337 1.85781-.10654-.10654-.0283-.6683.17394-1.24836.27814-.79785.25652-1.14688-.0888-1.43347-.54373-.45125-.87406-.10799-1.79106 1.86117-.7255 1.55795-1.98657 2.51563-2.97291 2.25769-.40675-.10637-.93014.0919-1.28878.48819-.70492.77893-2.00044.87404-2.56929.18862zm2.13517-.81074c.8697-.78706.84173-1.8856-.048-1.8856-.71692 0-1.42352.9516-1.42352 1.91709 0 .71818.65873.70409 1.47152-.0315zm22.16459.94904c0-.42912 1.02921-.98427 2.92946-1.58012.81414-.25528 1.75807-.57959 2.09762-.72069.46478-.19314.61736-.0863.61736.43238 0 .5531-.51566.83876-2.61538 1.44886-2.99936.8715-3.02906.87562-3.02906.41957zm-8.61786-5.50567c-1.35373-1.35373.0271-4.14782 1.62672-3.29171.79447.42519.52401 1.02385-.46255 1.02385-.53387 0-.68131.1963-.59619.79375.0903.63364.31735.77917 1.12571.72147 1.09257-.078 2.44008-1.06473 2.13286-1.56184-.10371-.1678.17784-.26565.62567-.21743.44784.0482.93218.37626 1.07633.729.24833.60768.33628.59964 1.6757-.15315.77748-.43697 1.41361-.92401 1.41361-1.08231s.23812-.28782.52916-.28782c1.16165 0 .42449 1.05766-1.33825 1.92008-1.30971.64079-2.17981.85117-2.91343.70445-.76492-.15299-1.27301-.0123-1.89072.52341-1.00477.87142-2.23827.9446-3.00462.17825zm3.9235-3.19925c-.12084-.12084-.0558-.52597.14453-.90029.50082-.9358 1.86863-.71037 2.01672.33238.11552.81334-.41917 1.08675-.82887.42384-.15839-.25628-.36439-.25723-.67064-.003-.24311.20177-.54089.26798-.66174.14714zm29.37758 20.6616c.0122-.98994-.96289-4.18868-1.43521-4.70795-.17179-.18885-.3883-.0787-.52003.26459-.12413.32348-.37683.58815-.56155.58815s-.22501-.17934-.0895-.39854c.15086-.24409.0564-.32954-.24376-.22049-.26954.0979-.4264.39634-.34858.66313.42074 1.44228 1.77344 5.27394 1.97968 5.60765.35024.56671 1.20535-.69355 1.21899-1.79654zm-2.63461-5.18352c.51731-.38007.60584-1.59907.19467-2.68053-.29846-.78501-.51108-.90835-1.24737-.72355-1.00612.25252-1.11682-.075-.38063-1.12606.54201-.77382.27734-2.67629-.68184-4.90127-.25094-.58208-.56498-1.57427-.69788-2.20486-.14492-.68768-.45729-1.14653-.7805-1.14653-.31005 0-.46052-.20422-.35434-.48092.21555-.5617-.80948-4.61683-1.46552-5.79777-.24768-.44585-.8471-.96149-1.33205-1.14587-.89826-.34152-.85707-1.0421.0613-1.0421.32781 0 .46082-.27967.37752-.79375-.10385-.64091-.34119-.78374-1.23251-.74174-1.23955.0584-1.48157-.41376-.3897-.76031.63817-.20255.68964-.42099.4835-2.05225-.12688-1.00406-.42948-2.06369-.67246-2.35473s-.55273-.89299-.68834-1.33766c-.18222-.5975-.42328-.75241-.92367-.59359-.37894.12027-.67711.0491-.67711-.16165 0-.2071.17965-.37655.39923-.37655.48191 0 .18469-2.81181-.33167-3.13765-.18629-.11755-.39677-.51995-.46772-.89421-.14932-.78765-.87457-.64221-.75447.15131.044.29104-.0948.87315-.3085 1.29357-.31768.62494-.0856 1.68696 1.27188 5.82084.91326 2.78103 1.80614 5.33208 1.98419 5.66899.17805.33692.32373.85286.32373 1.14653 0 .29368.27781.53639.61736.53936.4475.004.49436.0835.17032.28915-.45456.28852.12373 2.42002 2.02572 7.46656.4022 1.06715 1.29156 3.60593 1.97636 5.64173s1.56243 4.03926 1.95031 4.45213c.38786.41287.73068 1.08877.76181 1.50201.0602.79887.22187.89759.7884.48137zm-6.52639-17.72169c.69501-.44915 1.51231-.44915 1.23472 0-.11992.19403-.56585.35035-.99096.34738-.62838-.004-.67397-.0694-.24376-.34738zm-2.82222-7.40833c0-.19403.16812-.35278.37359-.35278.20548 0 .27549.15875.15557.35278-.11991.19403-.28803.35278-.3736.35278-.0856 0-.15556-.15875-.15556-.35278zm.35277-1.76389c-.2798-.17293-.39162-.43153-.24848-.57466.14313-.14314.44545-.075.67182.15133.53301.53301.23551.83052-.42334.42333zm-2.29305-5.99722c.11991-.19403.36741-.35278.54999-.35278.18257 0 .33195.15875.33195.35278s-.24749.35278-.54999.35278c-.30249 0-.45187-.15875-.33195-.35278zm-98.39381 31.4872c-.38538-.38537-.64964.22749-.37295.86495.26235.60443.28137.60388.42754-.0124.0841-.35473.0596-.73838-.0546-.85254zm102.09797-.87889c0-.38639.33355-1.35914.74122-2.16167 1.55947-3.06997 1.69637-3.42474 1.50944-3.91188-.30694-.79985-1.01241-.27674-1.05319.78094-.0396 1.02734-1.42684 4.97223-1.9463 5.53472-.17022.18432-.3095.56095-.3095.83694 0 .40605.10098.41801.52917.0626.29104-.24154.52916-.7553.52916-1.14169zm4.62989.34206c-.34841-.34582-.38893-.3053-.19748.19748.13248.34792.32973.54371.43835.4351.10862-.10862.00023-.39328-.24087-.63258zm-2.29909-1.87506c-.11777-.30691-.21656-.74347-.21953-.97014-.007-.54977-.68774.51517-.69475 1.08719-.003.24254.2497.44097.56151.44097.37201 0 .49329-.19184.35277-.55802zm-80.29468-24.4892c0-.19403-.15875-.35278-.35278-.35278s-.35278.15875-.35278.35278.15875.35278.35278.35278.35278-.15875.35278-.35278zm12.50499-7.08569c-.11359-.18378-.35689-.24122-.54068-.12763-.18378.11358-.24122.35689-.12763.54067.11358.18379.35688.24122.54067.12764.18379-.11359.24122-.35689.12764-.54068zm51.34778 77.84762c0-.67856 3.29609-3.54728 3.47141-3.02131.13894.41682-2.6752 3.52049-3.19208 3.52049-.15363 0-.27933-.22463-.27933-.49918zm6.05491-6.55637c1.87476-2.12985 2.41176-2.5 2.41176-1.66244 0 .58476-3.23338 3.7791-3.82528 3.7791-.24731 0 .38877-.9525 1.41352-2.11666zm-236.859761-2.03742c-1.1717-.0824-1.67569-.27125-1.67569-.62774 0-.28042.29592-.50984.6576-.50984.51489 0 .70629-.3552.88195-1.63674.42446-3.09682.32405-3.65493-.65761-3.65493-.53034 0-.88194-.20149-.88194-.50541 0-.40077.56608-.49207 2.73402-.44098 2.70357.0637 2.73528.0753 2.84585 1.03659.0729.63377-.0805 1.04594-.44067 1.18416-.46507.17846-.40805.38367.36041 1.29693.71082.84475.86547 1.32205.69864 2.1562-.11784.58921-.33035 1.17433-.47223 1.30025-.39794.35319-2.19921.53175-4.05033.40151zm3.61597-1.84314c0-.38805-.28895-.99451-.64212-1.34768-.46181-.4618-.59956-1.00665-.49057-1.94027.14041-1.20275.0839-1.29816-.76899-1.29816-1.00761 0-1.27136.91918-.4884 1.70214.341.341.33981.57998-.006 1.13315-.24078.38556-.33866 1.09597-.2175 1.57869.18051.71924.43628.87769 1.41676.87769.96129 0 1.19648-.13869 1.19648-.70556zm236.566521.75252c-.26066-.42175 2.96194-3.92752 3.61029-3.92752.76236 0 .4361.53503-1.4805 2.42782-1.11672 1.10285-1.99349 1.72023-2.12979 1.4997zm4.3807-5.17735c0-.43555 3.30941-3.68906 3.75244-3.68906.88501 0 .49466.75468-1.1948 2.30995-1.48286 1.36508-2.55764 1.94461-2.55764 1.37911zm-243.563491-3.95364c-.2066-.65622-.005-15.66663.34433-25.66459.16966-4.85257.1704-17.35292.002-31.57361-.0167-1.412.16911-2.2014.68257-2.89933.38805-.52748.82461-.96404.97014-.97014.51164-.0214.25718 1.05465-.40629 1.71812-.65932.65932-.64564.6797.79375 1.18268.80554.28149 2.58371.85162 3.95148 1.26695 2.60282.79036 4.03532 1.58741 3.61264 2.0101-.13717.13716-.93067-.026-1.76334-.36265-.83267-.33662-1.71238-.69097-1.95491-.78746-1.00044-.39798-.35032.68371.70555 1.17394.6306.29278 1.46403.72229 1.85209.95448.38805.23219 2.01524 1.12638 3.61597 1.98707 1.60073.8607 2.91042 1.69309 2.91042 1.84974 0 .15666.2118.28484.47068.28484.25887 0 1.37717.635 2.48511 1.41111 1.10793.77611 2.07873 1.41111 2.15732 1.41111.0786 0 1.88461 1.19062 4.01338 2.64583s4.02657 2.64584 4.21734 2.64584c.19076 0 1.6133 1.01418 3.16119005 2.25374 1.54788995 1.23956 3.50779795 2.67466 4.35535395 3.18911s3.207886 2.12062 5.245177 3.56927c4.765887 3.38886 6.097888 4.27876 6.501525 4.34364.187227.0301.389559-2.63448.471597-6.21056.07902-3.44479.302659-6.45516.496969-6.6897.256339-.30942.102725-.48932-.559792-.6556-.502193-.12604-.913077-.45008-.913077-.72009 0-.65141.431561-.61984 2.404047.17584.909094.36672 2.40696.93548 3.328592 1.2639 1.250555.44563 1.675694.77831 1.675694 1.31126 0 .7157-.01686.71608-1.675694.0379-.329424-.13469-.455697.56546-.49918 2.76787-.103022 5.21795-.01986 9.82063.187219 10.36023.141005.36746.726595.52543 1.947732.52543 2.07525 0 2.862146.25285 2.862146.91969 0 .57023-2.947236.69448-4.298562.18121l-.816716-.31021.03366 6.48808c.01852 3.56845.105297 6.55972.192853 6.64728.08755.0875.936085-.0746 1.885625-.36039 1.161789-.34965 1.842915-.40311 2.082568-.16346.224345.22435.232113.47079.02099.66598-.616691.57015-8.663308 2.33122-12.594166 2.75634-1.330675.14391-1.675695.0729-1.675695-.34463 0-.36283.847556-.73443 2.734028-1.19868l2.734028-.67284.176388-2.36618.176389-2.36618-1.146527-.21477c-1.235728-.23147-1.384505-.46271-.723195-1.12402.232833-.23283.351896-.43405.264583-.44714-2.095556-.31428-2.451805-.28476-2.451805.20317 0 .28941.15875.52619.352778.52619s.352778.15875.352778.35278c0 .43376-1.408335.45544-2.077025.032-.399789-.25318-.351286-.45839.264583-1.11945.414761-.44519.754112-.95343.754112-1.12943 0-.69808 1.498243-2.36919 2.124106-2.36919.648223 0 1.396722 1.7314 1.401703 3.24237.0011.3281.160718.69466.354746.81457.226254.13984.352778-1.05467.352778-3.33056 0-1.95173-.09455-3.5486-.210125-3.5486-.11557 0-.631508.29667-1.146528.65927s-1.26982.76263-1.677328.88895c-.407507.12633-2.074382 1.11206-3.704166 2.19053s-3.995117 2.48096-5.256297 3.11663c-7.64882 3.85526-12.83053 6.43462-14.99306 7.46328-1.35819.64606-3.34256 1.64997-4.40972 2.23089-3.34945 1.82335-7.78808 3.91156-8.3143 3.91156-.27783 0-.50514.12995-.50514.28877 0 .15883-.51594.5602-1.14653.89192l-1.14653.60315 1.70093-.18307c1.47669-.15894 1.68543-.10262 1.5834.42722-.0833.43245-.60683.68029-1.79661.85048-.92349.1321-2.70109.57036-3.95022.97391-2.75547.8902-2.90698.89579-3.15238.11637zm2.67507-2.16196c.0647-.17043 1.38759-.96916 2.93981-1.77495 1.55223-.80579 4.09223-2.17364 5.64445-3.03966 3.03468-1.69311 4.78663-2.57497 8.11389-4.0842 3.95727-1.795 8.81473-4.18066 10.33433-5.07553.83319-.49066 3.21444005-1.77526 5.29167-2.85467 2.077226-1.07941 4.0149-2.17129 4.305942-2.42639.291041-.25511 1.481666-.95921 2.645833-1.56466 2.317457-1.20526 4.392097-2.37096 4.613208-2.59207.07764-.0776-.690443-.17853-1.706855-.22421-3.280449-.14742-3.088834-.98946.268647-1.18055l1.763889-.1004-1.322917-.68092c-.727604-.37451-1.322916-.81027-1.322916-.96836 0-.1581-.213523-.28744-.47449-.28744-.260971 0-.761824-.3175-1.11301-.70556-.351187-.38806-.783749-.70556-.961253-.70556-.177503 0-1.014941-.47625-1.86097-1.05833-1.777749-1.22312-2.215352-1.29059-2.860304-.44097-.650011.85628-.603017 1.14653.185618 1.14653.998036 0 1.81666.38145 1.593507.74252-.10735.17369-.88949.31581-1.73809.31581-1.270561 0-1.585542-.13433-1.784445-.76102-.172628-.5439-.03524-.92133.481542-1.32292.530666-.41237.671695-.81927.529981-1.52909-.161032-.80656-1.83697-2.05911-10.091137-7.54183-5.44392-3.61605-10.78348-7.05817-11.86568-7.64916-1.08221-.59099-3.47578-2.04684-5.31905-3.23523-3.23569-2.08611-6.531-4.06656-6.76559-4.06607-.0625.00014-.10682 3.77045-.0986 8.37848.008 4.60803-.11125 8.64641-.26554 8.97418-.16238.34494-.12428.69253.0905.82524.25571.15804.29321 3.97404.12068 12.28044-.13768 6.62813-.21106 13.67123-.16308 15.65133.048 1.9801-.0371 3.8013-.18897 4.04711-.2788.45111-.21061 3.06186.0928 3.55277.22309.36098.74262.33481.88662-.0447zm10.54456-23.12572c-.23053-.27778-1.28185-.86262-2.33625-1.29964-1.05441-.43703-1.91711-.90385-1.91711-1.03737 0-.13353.62692-.34302 1.39315-.46555.76622-.12252 1.96363-.55937 2.66089-.97076 1.46287-.86312 2.15869-.56474.95632.41007l-.81047.65708 1.96106.1063c2.64751.14351 2.49164.76983-.24594.98824-2.10178.16769-2.17169.20233-1.41709.70222.78173.51787 1.08863 1.41445.48417 1.41445-.17027 0-.4982-.22727-.72873-.50504zm24.930347-.8733c-2.306489-.28642-1.948614-.90993.537192-.93593 2.285245-.0239 3.238528.3354 2.381882.89776-.291042.19105-.687917.32486-.881945.29735-.194028-.0275-1.110735-.14414-2.037129-.25918zm-7.664257-.53254c0-.30721.25135-.55857.55856-.55857.62298005 0 .51449005.75945-.13964.97749-.23041.0768-.41892-.11171-.41892-.41892zm1.41111005.21148c0-.6413.89315-1.05812 1.86683195-.87121.54169.10398.926292.36772.854674.58608-.158372.48289-2.72150595.75143-2.72150595.28513zm-13.28382005-.60887c-.33203-.86525.0631-.97384 2.24319-.61649 1.99109.32637 2.01871.34602 1.05169.74803-1.40877.58564-3.04474.52033-3.29488-.13154zm5.52271.0152c0-.41997.50957-.52916 2.46944-.52916 1.95988 0 2.46945.10919 2.46945.52916 0 .41998-.50957.52917-2.46945.52917-1.95987 0-2.46944-.10919-2.46944-.52917zm-16.22778-1.95161c0-.20025.23813-.93402.52917-1.63058.66876-1.60058.66291-1.73047-.0513-1.13774-.49584.41151-.63364.3974-.9454-.0968-.33251-.52715-.45275-.51366-1.35273.15172-.93114.68843-1.02563.69605-1.64781.13299-.5266-.47657-.66552-1.12869-.68725-3.22611-.0259-2.50349.0233-2.6713 1.03277-3.52072 1.26286-1.06263 2.7787-1.15104 3.62883-.21166.70002.77351.49335 1.9536-.40232 2.29731-.84492.32422-1.37538-.3555-.80953-1.03731.32887-.39626.35433-.66873.0874-.93564-.4985-.49849-2.36655.5901-2.85599 1.6643-.44889.98522-.17616 1.2941.67389.76324.86192-.53828 1.392.0214.58155.61401-.34655.2534-.77416.96311-.95026 1.57714-.52746 1.83914.51194 1.83123 2.1095-.0161 1.45852-1.6865 2.06321-1.67863 1.47136.0192-.58136 1.66768.39842 1.38867 1.17558-.33477.34998-.77611.77096-1.41111.93552-1.41111.42099 0 .40211.0982-.58274 3.03203-.48507 1.44499-.88195 2.86205-.88195 3.149 0 .28696-.23812.52174-.52916.52174s-.52917-.16384-.52917-.36411zm9.525-.0945c0-.63143.73009-1.30528 1.41424-1.30528.31217 0 .86055-.21422 1.21863-.47605.59005-.43146.55005-.46124-.42689-.31786-.84335.12378-1.12586.007-1.29816-.53568-.28768-.90639.3001-2.4174 1.10872-2.85015.95719-.51228 2.56908-.32456 2.56903.29919-.00007.98832-1.31811 4.0053-2.10865 4.82667-.84476.8777-2.47692 1.11437-2.47692.35916zm3.02381-3.57313c.62876-.62876.65148-1.25992.0454-1.25992-.58996 0-1.30528.71532-1.30528 1.30527 0 .60613.63116.58341 1.25992-.0454zm11.79286005 2.09147c0-.29105.13578-.52917.30174-.52917s.44971-.51594.63057-1.14653c.25641995-.89411.52007295-1.14653 1.19755795-1.14653 1.120813 0 1.166674 1.01611.05298 1.17395-.703626.0997-.784634.25732-.589333 1.14653.20458.93144.138628 1.03091-.68354495 1.03091-.57368 0-.90998-.19556-.90998-.52916zm-10.01619005-.11494c-.11169-.18071.10815-1.49878.48853-2.92904.85471-3.21372.85599-3.03518-.0239-3.31445-.92686-.29418-.70904-.50869.88058-.8672 1.09553-.24709 1.26267-.19851 1.26267.36702 0 .35849-.16318 1.01646-.36263 1.46216-.19944.44569-.56867 1.833-.8205 3.08292-.43013 2.13483-.95937 2.95155-1.42472 2.19859zm2.09119.01c-.29517-.29517-.21113-2.31225.11796-2.8313.31562-.49781 3.18295-1.27613 3.5071-.95198.10618.10618-.0735.75207-.39934 1.43531-.73689 1.54531-.73592 1.57112.0596 1.57112.4194 0 .87897-.50338 1.2883-1.41111.6721-1.49044 1.34094-1.78905 1.87393-.83664.20968.37466.40375.44137.55800005.19179.13007-.21047.46954-.29324.75437-.18394.54004.20723.67026 1.07952.30374 2.03466-.3164.82453-.958.6785-.73672-.16768.27014-1.03301-.52880005-.67817-1.09687005.48716-.65174 1.33696-1.26769 1.21118-.99132-.20243l.22415-1.14653-.68655 1.11776c-.64012 1.0422-.81841 1.11658-2.63699 1.10024-1.07274-.01-2.03545-.10253-2.13934-.20642zm1.72811-1.55624c.81742-1.16703.0173-1.78349-.88371-.68085-.37428.45808-.68051.97401-.68051 1.14654 0 .60897 1.02531.30372 1.56422-.46568zm-14.28834.57394c-.38356-.46217-.37582-.81121.045-2.02848.44386-1.2839.65712-1.48452 1.68255-1.58286 1.03863-.0996 1.16087-.0223 1.05833.66952-.0638.43019-.43343.95712-.82149 1.17096-.38805.21385-.81623.54337-.95151.73228-.31308.43719.3848.88352 1.00772.64448.26013-.0998.47296-.0227.47296.17129 0 .84619-1.83976 1.0106-2.49356.22282zm1.62612-2.28748c.37969-.61434-.0528-.74444-.5366-.16144-.27825.33529-.30501.5377-.0711.5377.20634 0 .4798-.16931.60769-.37624zm1.65896 1.69917c.0796-.24254.64732-.49064 1.26155-.55133.89216-.0882 1.07424.0007.90523.44097-.25859.67388-2.38736.7823-2.16678.11036zm36.098032 8.41844c.01397-8.60136-.01108-8.94-.633113-8.55487-.484911.30025-.63754.79992-.607392 1.98851.02215.87313-.07412 2.57685-.213928 3.78606-.19142 1.65563-.133335 2.34496.235204 2.7914.38045.46086.391231.62588.04843.74125-.562574.18935-.581561 2.20629-.02078 2.20629.253541 0 .200339.1749-.134148.44097-.436298.34707-.516618.91234-.377179 2.65443.155924 1.94804.234114 2.13839.652092 1.5875.434961-.57328.475869-.54432.486145.34418.0062.53358.132468.97014.280667.97014.148195 0 .275992-4.03014.283993-8.95586zm-5.139553 4.01699c0-.38806-.141767-.70556-.315034-.70556-.396536 0-.766424.91762-.483806 1.20023.42466.42467.79884.19296.79884-.49467zm5.291667-14.09029c0-.84971-.639622-1.2862-1.144676-.78115-.26834.26834-.246941.53513.07393.92176.616557.74291 1.070741.68326 1.070741-.14061zm-28.574996-10.60431c0-.19402-.27782-.35034-.61736-.34737-.5276.005-.54042.0551-.0882.34737.66577.43025.70556.43025.70556 0zm238.981701 44.29868c-.21195-.84447-.36952-.90701-2.28525-.90701-2.1502 0-2.788-.34032-1.94654-1.03867.27373-.22718.60512-1.04883.7364-1.8259.18617-1.10191.0983-1.568-.39937-2.11789-.91658-1.01281-.18654-1.35549 2.9019-1.36214l2.50968-.005-.0402-1.28629c-.0233-.7437.14578-1.35135.40074-1.44052.75257-.26317.53808 2.2993-.26459 3.16086-.38805.41653-.70555.96552-.70555 1.21997 0 .63703-.93609.58452-1.18591-.0665-.31746-.82727-1.48122-.62099-1.91917.34019-.46575 1.02221.0314 1.54237.836.87464.60539-.50244.74577-.41798.91262.54906.0927.53705-.0749.70767-.70176.71437-.88919.01-1.86945 1.19484-1.04612 1.26496 1.00931.086 2.24064-.11729 2.55753-.42217.69052-.66435.93509-.27407.83072 1.32568-.11896 1.82338-.83569 2.43883-1.19109 1.02278zm-13.20393-.67819c0-.81384 2.52881-3.48556 2.92455-3.08982.24536.24536-.0231.80455-.8411 1.75176-1.33448 1.54533-2.08345 2.02634-2.08345 1.33806zm-201.436108-1.18163c0-.39428.231715-.47663.881944-.31343.859744.21578.881944.17307.881944-1.6968 0-1.05498.09151-2.15662.203359-2.44809.139365-.36318-.05491-.56654-.617361-.64621-1.658309-.23492-.75566-.8249 1.419458-.92777 1.715177-.0811 2.204752.001 2.089033.35278-.08313.2523-.4869.50827-.897272.56883-.580224.0856-.770181.3994-.854312 1.41111-.170582 2.05139.396322 3.24128 1.544246 3.24128.611989 0 1.109546-.26339 1.351471-.71544.506042-.94554 1.053045-.56135 1.053045.73962v1.04086l-3.527778-.036c-2.901272-.0296-3.527777-.13095-3.527777-.57076zm-36.688883-.59543c0-.28831.54438-.58855 1.32291-.72964.72761-.13186 1.68011-.32548 2.11667-.43028.62125-.14914.79375-.0378.79375.51211 0 .78848-.86569 1.12546-2.91042 1.1329-.89593.003-1.32291-.1533-1.32291-.48509zm5.64444-1.06879c0-.51419 4.43192-1.75324 5.00476-1.3992.7599.46964.10986 1.07474-1.57551 1.46657-2.44368.56813-3.42925.54877-3.42925-.0674zm35.630554.17136c0-.18095-.348965-.43976-.775476-.57513l-.77548-.24613.77548-.62794c.426511-.34537.775476-.79157.775476-.99155 0-.19999.15875-.46172.352777-.58163.217428-.13438.352778.4667.352778 1.56667 0 .9816-.15875 1.78471-.352778 1.78471-.194027 0-.352777-.14805-.352777-.329zm-28.927774-1.55514c0-.28805.79323-.65052 2.02847-.92692 1.11566-.24964 2.22691-.53001 2.46944-.62305.26481-.10158.44098.12116.44098.55757 0 .53926-.34125.82148-1.32292 1.09411-1.88068.52229-3.61597.47348-3.61597-.10171zm229.658321-.33971c0-.47104 2.12778-2.71503 2.57444-2.71503.52518 0 .20412.73074-.84709 1.928-1.14257 1.30131-1.72735 1.56775-1.72735.78703zm-198.864441-.95115c-.10148-.38805-.324743-.70555-.49614-.70555s-.311633-.24917-.311633-.5537c0-.37243.259863-.5168.79375-.44098.608365.0864.81957.38051.904296 1.25926.121998 1.26531-.583342 1.61468-.890273.44097zm-24.44388-.15052c0-.32725.30162-.55503.73495-.55503.85973 0 .73821.82436-.14683.996-.3481.0675-.58812-.11245-.58812-.44097zm1.76388-.37864c0-.51038.39456-.67605 1.32292005-.5555.24254.0315.44097-.10845.44097-.31098s.15875-.36824.35278-.36824.35277995.39687.35277995.88194c0 .77275-.15286995.88194-1.23471995.88194-.86235005 0-1.23473005-.15958-1.23473005-.52916zm3.175005-.68474c0-.30249.15875-.54998.352778-.54998s.352778.14938.352778.33195c0 .18258-.15875.43007-.352778.54999s-.352778-.0295-.352778-.33196zm1.954139-.52756c-.316869-.5127.810895-.96398 3.104458-1.24225 1.846594-.22404 2.047586-.18595 1.940278.36766-.06584.33967-.437208.66163-.825264.71547-2.986408.41431-4.03727.45393-4.219472.15912zm22.034749-4.76894c0-.31912.500267-.59551 1.322917-.7309.727604-.11974 2.157331-.39054 3.177173-.60177 1.82221-.37742 2.651996-.20937 2.002779.40563-.28522.27018-5.312215 1.44022-6.187824 1.44022-.173274 0-.315045-.23093-.315045-.51318zm8.325877-1.54589c-.277615-.44918-.07792-.55828 1.904679-1.0405 2.999866-.72965 3.880555-.79585 3.880555-.2917 0 .28828-.788617.64168-2.028472.90902-1.11566.24055-2.367051.51554-2.78087.61109-.413819.0955-.85297.011-.975892-.18791zm195.226891-.41825c0-.45416 2.80448-3.5199 3.21993-3.5199.69133 0 .22373.94095-1.17671 2.3679-1.48583 1.51395-2.04322 1.82821-2.04322 1.152zm-187.543529-1.11865c-.32342-.52331.0074-.67798 2.934917-1.37201 3.331023-.78971 3.986399-.82157 3.986399-.19375 0 .28613-.53878.56634-1.322916.68803-.727605.11291-2.238799.43119-3.358212.70727-1.229787.30331-2.116384.37077-2.240188.17046zm8.462366-1.77085c-.322354-.52158.425023-.87261 3.184779-1.49585 1.461032-.32994 2.589974-.42652 2.778774-.23773.438746.43875.108994.59089-3.015717 1.39136-1.762898.45162-2.805427.57264-2.947836.34222zm7.410287-1.76073c-.307594-.4977.309796-.81501 2.569813-1.32078 1.770917-.39632 2.659105-.32267 2.157536.17891-.507407.5074-4.520395 1.47673-4.727349 1.14187zm175.904216-.0633c0-.53739 2.61452-3.03966 3.17601-3.03966.64101 0 .36766.48626-1.1328 2.01512-1.56014 1.58966-2.04321 1.83189-2.04321 1.02454zm-159.102776-.74665c0-.29104.0032-.64823.0068-.79375.0037-.14552.360944-.26458.79375-.26458.590338 0 .757985-.17626.6711-.70556-.0637-.38805-.154778-1.19138-.202403-1.78516-.11878-1.48096-.456054-1.919-1.47756-1.919-.479708 0-.959729-.22811-1.066709-.5069-.106983-.27879-.379814-.46355-.606291-.41059-.226476.053-.292713.0297-.147193-.0517.145521-.0814.264584-.45224.264584-.82412 0-.8164.278701-.85255 1.067731-.13849.588377.53248 1.754491.3845 1.754491-.22263 0-.8348 1.152327-.10476 3.122196 1.97802 1.192816 1.26118 2.382435 2.29305 2.643604 2.29305.575627 0 1.642533 1.12193 1.642533 1.72725 0 .57749-1.304272.16366-2.244263-.71207-.391061-.36432-1.068581-.6624-1.505613-.6624-1.020381 0-1.421391-.61925-.497678-.76853.623267-.10072.54494-.28786-.699819-1.67202-.770897-.85723-1.500297-1.45994-1.62089-1.33934-.456724.45672.237687 1.93879 1.002058 2.13868.627316.16405.701304.29721.356637.64188-.239187.23919-.434887.87939-.434887 1.42266 0 1.07801.417961 1.21379 1.946917.63248.513983-.19542 1.095022-.2561 1.291198-.13486.397253.24552-2.27935 1.54725-3.188444 1.55067-.318361.001-1.033547.23932-1.589302.52916-1.247193.65046-1.282591.6504-1.282591-.002zm-10.583333-1.02596c0-.33282.934124-.70768 2.830251-1.13576 1.978131-.44659 2.778065-.77498 2.656907-1.09071-.117358-.30583.17163-.45173.894733-.45173 1.393172 0 1.029293-.56032-.55716-.85794-1.335133-.25048-1.704968-.90595-.511157-.90595.400106 0 1.551044.25089 2.557639.55754 4.272643 1.3016 4.414012 1.6773.860037 2.28558-1.406702.24076-3.696878.8108-5.089285 1.26675-2.923628.95737-3.641965 1.0229-3.641965.33222zm-5.57658-2.25146c-1.013524-.15982-.817873-.96513.226116-.93071 3.23929.10679 3.586575.17294 3.586575.6832 0 .52191-1.468148.61722-3.812691.24751zm5.57658-.27064c0-.42695.328147-.52527 1.471888-.44097 2.104813.15512 2.22711.99042.145009.99042-1.228584 0-1.616897-.13196-1.616897-.54945zm-17.220578-.19826c-1.398909-.52202-.477101-1.01618 1.895566-1.01618 1.771587 0 2.272235.11511 2.272235.52245 0 .79262-2.555533 1.09536-4.167801.49373zm5.604979-.10283c-.562991-.67836-.126739-.86336 1.670032-.70821 1.646572.14218 2.184456.35739 2.184456.87402 0 .53986-3.389852.39405-3.854488-.16581zm185.593838.17206c.20338-.56333 3.13899-3.55485 3.4884-3.55485.71139 0 .2673.79607-1.28652 2.30621-1.50525 1.46293-2.47852 2.01486-2.20188 1.24864zm-203.407606-.34172c-.760945-.11799-1.448862-.41296-1.528702-.65549-.106747-.32426.492904-.43955 2.265479-.43558 2.507749.006 3.554673.34348 3.140579 1.0135-.254307.41147-1.555958.43751-3.877356.0776zm5.615326-.0406c-.331706-.53672.583943-.75513 2.661698-.63491 1.099389.0636 1.930403.29002 2.015818.5492.180753.54848-4.340306.63132-4.677516.0857zm-12.617682-.37398c-1.081708-.64484-.297092-1.03464 2.082578-1.03464 1.998196 0 2.282786.0806 2.180738.61736-.09031.47506-.52317.63722-1.877953.70354-.968318.0474-2.041733-.0814-2.385363-.28626zm38.107417-1.14237c-.957491-.37628-1.2215-.77082-.705555-1.05439.496785-.27304 2.605941.48804 2.47136.89178-.187611.56283-.641121.6046-1.765805.16261zm-2.839423-.82082c-.482374-.48237-.237353-.88284.472147-.77168.395743.062.721628.27148.724189.4655.0057.42937-.853313.64921-1.196336.30618zm-4.648581-1.39848c-1.775657-.64999-2.253058-1.10614-1.471535-1.40604.612331-.23497 4.444831 1.23124 4.455601 1.70459.0094.41185-1.43933.26691-2.984066-.29855zm184.555829-.37481c-.24124-.24125 1.78288-2.23705 2.26878-2.23705.54877 0 .34315.55765-.47828 1.29713-1.0504.94562-1.53198 1.19843-1.7905.93992zm-190.88885-1.47161c-2.11396-.71634-2.706631-1.68356-.846666-1.38173 1.661671.26966 3.819775 1.2056 3.819775 1.6566 0 .50761-.91314.42319-2.973109-.27487zm-4.788002-1.4677c-.291041-.18627-1.36985-.52822-2.39735-.7599-1.924431-.43392-2.498683-.8385-1.957822-1.37936.334476-.33447 4.52017.83537 5.29765 1.48062.253478.21037.37387.52325.267539.69529-.2456.39739-.546025.38829-1.210017-.0367zm198.966672-.62068c.00001-.36237 2.34264-2.20486 2.80336-2.20486.67768 0 .38631.51744-.84426 1.4993-1.19424.95289-1.95912 1.22836-1.9591.70556zm-207.609727-1.85682c-1.384014-.38159-2.156146-.78704-2.230727-1.17137-.144642-.74536.650604-.75709 3.048642-.045 1.074914.31922 1.827918.74662 1.827918 1.03751 0 .777-.382436.80284-2.645833.17881zm-6.533913-2.05108c-2.04947-.75812-2.526041-1.0828-2.2485-1.53188.466499-.75481 4.725469.7662 4.725469 1.68761 0 .61483-.474546.58499-2.476969-.15573zm34.579745.29193c0-.19403.15875-.35278.352778-.35278s.352778.15875.352778.35278-.15875.35278-.352778.35278-.352778-.15875-.352778-.35278zm183.444435.0692c0-.34388 2.22571-2.53865 2.57444-2.53865.48885 0 .23208.67009-.66552 1.73682-.84914 1.00916-1.90892 1.45431-1.90892.80183zm-224.278461-2.41951c-1.354614-.47949-1.836893-1.07507-1.302942-1.60902.107999-.108.981124.0546 1.940277.36132 1.241891.39714 1.743915.7414 1.743915 1.1959 0 .75378-.37507.76194-2.38125.0518zm194.859551.33047c-.60806-.60806.15536-1.1446 2.44697-1.71976 1.20429-.30226 1.12005.47954-.10375.9629-.53358.21074-1.23083.5155-1.54947.67723-.31863.16173-.67581.19756-.79375.0796zm4.56808-1.78193c-.42781-.4278-.13671-.73161 1.22186-1.27521 1.54936-.61993 2.46231-.72549 2.46231-.2847 0 .36693-3.42639 1.8177-3.68417 1.55991zm29.05743-.73438c.42054-.78578 2.11911-1.95574 2.41288-1.66197.29161.29161-1.70864 2.31756-2.28817 2.31756-.35418 0-.38601-.16735-.12471-.65559zm-23.96215-1.39819c0-.27604 2.81191-1.66449 3.83646-1.89434.26678-.0599.55002.0662.62941.28011.0794.21391-.676.72985-1.67864 1.14653-1.92703.80083-2.78723.94518-2.78723.4677zm-220.397575-2.28634c-1.680902-.70364-2.506673-1.66859-1.411446-1.64935.677499.0119 3.321836 1.28022 3.596826 1.72516.134359.2174.392067.30393.572689.1923.180619-.11163.328401-.0348.328401.17064 0 .5668-1.036218.4195-3.08647-.43875zm8.090891.44019c-1.002249-.40196-.693921-1.03896.502892-1.03896.838644 0 .874599-.0855.772929-1.83774-.09208-1.58696-.217791-1.86378-.921202-2.02848-1.585588-.37125-.926274-.89738 1.254764-1.00129 1.955972-.0932 2.303451-.006 3.086805.77772 1.389232 1.38923.970559 4.85277-.638771 5.28435-1.117269.29963-3.113215.22308-4.057417-.1556zm4.144507-1.50686c.476889-1.25431-.0417-3.2162-.882565-3.33886-.616338-.0899-.713081.12127-.782084 1.70712-.04331.99535.01062 1.95433.119867 2.13107.371877.60171 1.231854.32374 1.544782-.49933zm235.326067 1.41905c0-.58281 2.38381-2.91826 2.67821-2.62386.23822.23822-1.98041 3.06705-2.41363 3.07746-.14552.004-.26458-.20062-.26458-.4536zm-21.01928-.29252c-.11992-.19403-.12124-.44959-.003-.5679.45109-.4511 5.16016-1.76627 5.33152-1.48902.24616.3983-.3411.72792-2.91202 1.63447-1.37743.48571-2.27997.64348-2.41658.42245zm-231.054943-1.74043c-.324676-.52534.05176-.81096.727205-.55177.311708.11961.467935.37735.347176.57275-.285955.46268-.781442.453-1.074381-.021zm237.610333-.66184c0-.40049 1.69167-1.2456 3.61121-1.80407 1.66686-.48495 1.46098.34065-.26997 1.08262-2.30738.98906-3.34124 1.21229-3.34124.72145zm-242.00555095-.63016c-.63319-.24104-1.07104-.848-.8591-1.19093.1836-.29708 3.33745095.6103 3.82867195 1.10153.376231.37623-2.026083.44855-2.96957195.0894zm259.67430095-.713c.0598-.52941 2.78605-2.61848 3.22401-2.47045.58479.19765-1.91029 2.73503-2.68943 2.73503-.31044 0-.55101-.11906-.53458-.26458zm-264.436801-.66871c-1.75334-.39336-3.35139-1.3196-3.35139-1.94251 0-.80243.29243-.78654 3.175.17257 2.96482.98646 3.10845 2.42773.17639 1.76994zm253.118051-.23174c0-.43675 2.82412-1.66264 3.82176-1.65894 1.048.004.0981.80965-1.70176 1.44349-2.27743.80202-2.12.78602-2.12.21545zm5.46764-2.01063c-.20532-.33222.33177-.6271 2.20527-1.21073 1.29538-.40353.93348.48346-.42964 1.053-1.45429.60765-1.49531.61129-1.77563.15773zm-265.259831-.30578c-.10416-.16854-.80729-.40525-1.5625-.52601-1.5122-.24181-2.61076-1.14353-1.76906-1.45208.62331-.2285 4.99648 1.36798 5.16956 1.8872.15477.46434-1.55494.54888-1.838.0909zm275.314411-.6904c0-.47793 1.74133-1.96553 1.99907-1.70779.13089.13088-.13429.63422-.58926 1.11852-.83319.88689-1.40981 1.1279-1.40981.58927zm-5.29167-1.12553c0-.19717.55722-.62421 1.23826-.94897.94366-.45 1.3362-.49253 1.64996-.17878.31375.31376.10578.53953-.87415.94897-1.50387.62835-2.01407.67364-2.01407.17878zm-278.253461-.74289c-1.65441-.63585-2.45402-1.36807-1.49398-1.36807 1.12773 0 4.58079 1.24027 4.58079 1.64534 0 .64513-.89631.56463-3.08681-.27727zm290.695261-.90459c.16273-1.44372.0792-1.73751-.65967-2.31866-.46531-.36601-.84602-.89208-.84602-1.16904s-.23812-.50356-.52916-.50356-.52917-.13713-.52917-.30474-.79375-.24592-1.76389-.17403c-1.33011.0986-1.76389.0106-1.76389-.35762 0-.75984.82648-1.28997 1.42295-.91272.73822.4669 1.0465.41424 1.0465-.17876 0-.86542 1.25658-1.26329 5.0325-1.59345 3.65076-.31921 4.61702-.1362 3.6255.68669-.29926.24837-.54411.67342-.54411.94456 0 .76242-1.6653 3.22032-2.59426 3.82899-.63666.41716-.79196.77236-.65942 1.50823.0953.52942.30943 1.13593.47573 1.34781.4107.52324.0148.84948-1.0309.84948-.82639 0-.85988-.0811-.68269-1.65318zm2.6613-3.97698c.42455-.57422.7719-1.11474.7719-1.20115 0-.15838-2.89859.14204-3.11499.32285-.17779.14855 1.04513 1.92235 1.32533 1.92235.13523 0 .59322-.46982 1.01776-1.04405zm-1.43335-1.94377c1.01843-.1393 1.92733-.37568 2.01979-.52528.24275-.39277-4.84587.008-5.3669.42294-.66654.53051-.16824.98478.71416.65107.42969-.1625 1.61452-.40943 2.63295-.54873zm-9.43641 5.81004c0-.19402.23812-.35277.52916-.35277s.52917.15875.52917.35277c0 .19403-.23813.35278-.52917.35278s-.52916-.15875-.52916-.35278zm4.43537-.31127c-.11745-.19004-.0522-.44524.14498-.56711.1972-.12188.35853-.43423.35853-.69413 0-.32656-.76813-.54968-2.48634-.72224-1.63446-.16414-2.43522-.38793-2.33715-.65316.0821-.22191.35675-.35413.61044-.29382.25368.0603 1.50384.19307 2.77812.29504 2.62123.20974 3.06777.46212 2.54521 1.43853-.5338.99741-1.35888 1.60934-1.61379 1.19689zm-9.64007-2.94825c.16162-.48487 2.55345-.41034 3.44081.10721.34664.20218-.18065.31234-1.52871.31936-1.48386.008-2.01721-.11124-1.9121-.42657zm-4.84947-.15914c-1.68579-.42434-1.3318-.84921.62142-.74584 1.11789.0592 2.07039.26631 2.11666.46034.0924.38757-1.62229.56637-2.73808.2855zm-5.90903-.70507c-1.27373-.33286-.55942-.85003 1.03076-.74629 1.92094.12532 2.63511 1.01371.76253.94855-.64676-.0225-1.45374-.11353-1.79329-.20226zm-281.447891-1.44645c-.29453-.98306-.29761-1.71909-.0116-2.78113.45514-1.69027 1.15847-2.3885 2.14585-2.13029.52536.13738.70743.0119.70743-.48753 0-.81429.54719-.88852.8442-.11451.31063.80949.25417 1.65901-.1505 2.2642-.30946.46282-.39842.45359-.70948-.0735-.21197-.35921-.58325-.51537-.919-.38654-.46472.17833-.53309.63898-.39055 2.63119.155 2.16635.10645 2.415-.4715 2.415-.44006 0-.77125-.42376-1.04482-1.33685zm274.215951.75044c-.24254-.0979-.44097-.32496-.44097-.50466 0-.26689 1.92692-.26797 5.20347-.003.24253.0196.44097.19442.44097.38845 0 .35675-4.36682.45673-5.20347.11914zm-4.95922-.37078c-1.55963-.298-.59573-.98791 1.20133-.85985 1.93141.13764 2.07567.19846 1.74392.73524-.23098.37373-1.38574.42259-2.94525.12461zm-4.03661-.35382c-1.24522-.18863-1.29963-1.15843-.065-1.15843 1.13471 0 2.35719.63164 2.08254 1.07603-.21007.3399-.29484.34336-2.01753.0824zm-5.15209-1.02983c-.31869-.23303-.46385-.53928-.32258-.68056.367-.367 3.15792.30466 3.02647.72835-.15347.49467-2.00683.46192-2.70389-.0478zm-4.81389-.43839c-.58208-.12447-1.02493-.3835-.98411-.57562.18458-.86874 3.98272-.51376 3.98272.37223 0 .54402-1.06715.6164-2.99861.20339zm-4.7351-.71334c-2.14388-.29077-2.42297-1.18577-.33132-1.06247 1.7652.10405 2.88732.55748 2.58604 1.04496-.1139.1843-.31678.31124-.45085.2821-.13407-.0291-.94582-.14821-1.80387-.26459zm-5.58584-.62236c-.79189-.31925-.0755-.82396 1.16954-.82396.84384 0 1.2139.16132 1.2139.52917 0 .52282-1.39108.69488-2.38344.29479zm-8.81725-.72015c-.43656-.0841-.79375-.38716-.79375-.6735 0-.4055.29251-.472 1.32292-.30075 1.92209.31944 2.2756.47058 2.03001.86795-.22016.35623-1.07685.39181-2.55918.1063zm-5.35371-.41329c-.47068-.13153-.92759-.45455-1.01534-.71782-.12585-.37754.25986-.44389 1.82552-.31406 2.11785.17563 2.54709.36594 2.17679.96511-.25434.41153-1.64226.44255-2.98697.0668zm-5.84698-.74885c-.41822-.67669.15176-.93262 1.62939-.73161 2.10484.28633 2.24078 1.08439.18471 1.08439-.87784 0-1.69419-.15875-1.8141-.35278zm-4.054-.3349c-.36883-.2392-.41499-.4525-.15434-.71315.47387-.47388 2.69317-.0532 2.51921.47754-.16964.51756-1.6957.6696-2.36487.23561zm-4.50087-.42545c-1.85394-.41981-1.95733-1.00521-.17638-.99872 1.79395.007 2.96686.3549 2.80741.83385-.17651.53018-.83541.57147-2.63103.16487zm-4.85069-.56038c-1.61938-.15783-2.35421-.65924-1.46577-1.00017.87931-.33742 3.82482.18265 3.66972.64794-.16165.48496-.41946.52616-2.20395.35223zm-6.05187-.98754c-.1149-.29941-.13388-.61941-.0422-.71111.30966-.30966 2.866.39077 3.01071.82492.22657.67969-2.7072.56721-2.96853-.11381zm-3.20855-.0933c-1.02687-.0743-1.4993-.27014-1.4993-.62153 0-.40442.31743-.46443 1.4993-.2834 1.66927.25569 1.80343.31572 1.62425.72678-.0687.15765-.79963.23782-1.62425.17815zm33.60209-.42068c.11991-.19403.36741-.35278.54998-.35278.18258 0 .33196.15875.33196.35278 0 .19402-.24749.35277-.54999.35277-.30249 0-.45187-.15875-.33195-.35277zm1.5875-.1962c0-.29232.23812-.62288.52916-.73456.53703-.20608.7102-1.71477.31504-2.74456-.11777-.30691-.59402-.55802-1.05834-.55802-.92344 0-1.14018-.51649-.34482-.8217.27466-.10539 1.38594-.14695 2.46952-.0923 2.15483.10858 3.3811.86875 3.3811 2.09594 0 .97912-1.7133 2.69866-2.68887 2.69866-.43614 0-1.20018.15482-1.69788.34404-.72319.27496-.90491.23731-.90491-.18746zm4.23333-2.65888c0-.66664-.22359-1.0489-.7024-1.20087-1.04124-.33047-1.42214.0756-1.25677 1.3397.0812.62081.15838 1.24441.17147 1.38577.0131.14136.42069.0762.90575-.14482.63201-.28796.88195-.67899.88195-1.37978zm-49.84989.14649c-.6729-.18273-1.30289-1.45058-1.30289-2.62208 0-.9387 1.54293-2.43045 2.51383-2.43045.4301 0 1.07232-.26272 1.42715-.58384.60374-.54638.64246-.54072.6034.0882-.023.36962-.14861 1.14828-.27922 1.73037-.23155 1.03192-.24801 1.03931-.6592.2964-.5632-1.01754-1.658-.71052-2.20889.61945-.56057 1.35333.0258 2.08276 1.67414 2.08276.81876 0 1.17324.14525 1.07616.44097-.15155.46167-1.75302.67461-2.84448.37822zm52.58392-3.13986c-.37194-.37445-.31994-2.69.0744-3.31356.57452-.90844.79146-.12405.48604 1.75735-.16273 1.00242-.41493 1.70272-.56045 1.55621zm-48.13197-.85433c.12801-.48507.23492-1.40287.23757-2.03955.003-.71451.21318-1.23755.5492-1.36649.29941-.1149.6057-.14759.68064-.0726.30913.30913-.60932 3.46642-1.13333 3.89597-.50009.40995-.53942.36082-.33408-.41729zm-142.696145-1.6757c-.289115-.33954-.888827-1.22325-1.332696-1.96378-.988437-1.64907-.83162-3.758681.374862-5.042925 1.050643-1.118358 1.525355-.613069 1.071958 1.141001-.423439 1.63816-.321871 2.681464.438132 4.500404.313288.7498.569613 1.50264.569613 1.67297 0 .50659-.559111.35326-1.121869-.30767zm6.060757.37552c0-.13302.330758-.59392.735016-1.02424 1.473408-1.56837 1.436864-3.742069-.09853-5.860745-.239324-.330242-.321063-.714514-.181642-.853938.327995-.327995 1.937823 1.17795 2.581272 2.414701.684667 1.315972.134344 3.710602-1.096744 4.772312-.881369.76011-1.939368 1.0612-1.939368.55191zm160.866658.0663c0-.44791 1.03713-2.18993 1.56424-2.62739.79503-.65982.73435-2.488752-.0826-2.488752-.34925 0-.8255.1905-1.05833.423333-.32926.329259-.42334.09407-.42334-1.058333 0-1.081852.14279-1.481667.52917-1.481667.29104 0 .52917.177265.52917.393923 0 .226927.31515.311507.74341.199515.40888-.106924 1.12326-.04999 1.5875.126512 1.2882.489773 1.11599 2.010392-.43256 3.819529-1.40083 1.63655-1.40944 2.00955-.0343 1.48673.68452-.26025 1.00787-.21782 1.33392.17505.23671.28521.3353.61364.2191.72984-.28646.28647-4.47538.56886-4.47538.30171zm-163.057506-.971c-.567747-.99749-.554567-6.12695.01722-6.698728.757336-.757337 1.07194.210044 1.117279 3.435528.02455 1.74625.03415 3.37344.02134 3.61597-.03714.70286-.663846.51158-1.155816-.35277zm171.411496.54405c-.11751-.19013-.0555-.91842.13777-1.61842.2693-.97532.22499-1.57532-.18961-2.567615-.62958-1.506789-.67158-1.914268-.19732-1.914268.50601 0 1.37099 1.842624 1.59724 3.402553.1474 1.01623.029 1.57269-.4686 2.20169-.36621.46295-.76198.68618-.87948.49606zm-12.52611-1.07322c-.96565-1.88426-.661-3.797351.79747-5.007778.68581-.569167.69637-.163194.0439 1.686195-.36715 1.040613-.4162 1.763503-.17639 2.599663.40529 1.41318.40574 1.33928-.008 1.33928-.18721 0-.48274-.27781-.65676-.61736z" stroke-width=".352778" transform="translate(34.975381 -83.41479)"/>
</svg>
