<?xml version="1.0" encoding="utf-8"?>
<svg height="62.320663mm" viewBox="0 0 244.43642 62.320663" width="244.43642mm" xmlns="http://www.w3.org/2000/svg">
	<path d="m110.86219 203.48627c-.0795-.0795-6.4879-.18014-14.240943-.22371-7.753047-.0436-16.477696-.19203-19.388113-.32993-2.910416-.13789-8.942916-.27297-13.405555-.30016-10.908047-.0665-19.931944-.42251-19.931944-.78643 0-.39672 17.381936-.36599 26.458333.0468 13.961095.63491 20.42741.54649 20.474968-.27998.05454-.94781.08175-5.00743.03885-5.79706-.04515-.83104-.204455-.97014-1.111038-.97014-.582083 0-1.058333-.15875-1.058333-.35278s.47625-.35278 1.058333-.35278h1.058333v-4.89479c0-2.69214.09922-5.39088.220487-5.99722.203524-1.01763.146991-1.10243-.734953-1.10243-1.140979 0-1.057176-.82424.101127-.99468 1.008804-.14844 1.063269-1.47477.06056-1.47477-.388056 0-.705556-.15875-.705556-.35277 0-.19403.3175-.35278.705556-.35278.683598 0 .705555-.23519.705555-7.55756v-7.55756l7.672917.14484c8.504906.16053 22.386576.51681 25.664586.65867 1.16416.0504 2.30175-.051 2.52797-.2253.62414-.4809.89223.7941.81674 3.88444-.0921 3.77165-.0675 3.956.50016 3.73818.27141-.10415.59828-.0198.72637.18746.13637.22065-.0682.37683-.49348.37683-.64521 0-.90638.53754-.63818 1.31349.0485.14034.45957.20649.91347.14701.63768-.0836.79724.0389.70195.53859-.0678.35571-.46207.69527-.8761.75457-.46587.0667-.81347.42535-.91202.9409-.13625.71274-.027.82455.75638.77411 1.15692-.0745 1.24112.85658.12187 1.34762-.94275.41361-1.00506.83057-.2109 1.41128.53533.39144.52483.4842-.12881 1.13784-.64436.64436-.71787 1.21656-.77731 6.0509l-.0657 5.33924h.90002c.49501 0 .90002.15875.90002.35278s-.39687.35278-.88194.35278c-.64676 0-.88194.18815-.88194.70555 0 .47037.23518.70556.70555.70556.38806 0 .70556.15875.70556.35278 0 .19402-.3175.35277-.70556.35277-.47711 0-.70555.23519-.70555.72638 0 .39951.14442.63712.32094.52802.46707-.28867 1.47523.17184 1.23328.56334-.11309.18298-.54874.28541-.96812.22762-.69021-.0951-.77283.0771-.87153 1.81634-.06 1.05679-.0138 2.30098.10266 2.76488l.21169.84344 15.94873-.19816c8.77181-.109 27.69623-.29358 42.05429-.41019 15.97301-.12972 26.5545-.35054 27.26221-.56893 1.1479-.35421 16.45113-.11261 17.06938.26949.62358.38539.2527 1.19601-.65096 1.42281-.52017.13056-4.36986.0939-8.55486-.0815-4.18501-.17537-15.54661-.29127-25.24799-.25756-32.10403.11154-80.04562.48189-82.24378.63533-1.18978.0831-2.22825.086-2.30772.007zm15.14247-1.31499c.24254-.19606.44097-.8709.44097-1.49963v-1.14316l-17.28611-.0589c-14.535669-.0496-17.286108.0189-17.286108.43054 0 .79347 2.982044.90896 18.794138.7279 13.71099-.15702 16.10869-.0727 15.13047.53184-.20359.12582-7.98405.22427-17.2899.21877-15.304658-.009-16.891301.0431-16.621793.54673.264689.49457 2.161296.55928 16.987653.57957 10.75035.0147 16.84664-.10401 17.13068-.33362zm.44097-4.14501c0-.66605-.24324-.69913-5.02708-.68374-12.89719.0415-17.19792-.048-17.19792-.35793 0-.28273 5.65064-.43365 19.84375-.52999 2.08696-.0142 2.38125-.0979 2.38125-.67728 0-.60483-.19858-.63984-2.33284-.41128-3.46788.37137-31.8866-.18686-31.8866-.62636 0-.24196 4.705279-.27919 14.41166-.11404 16.01505.27249 20.25763.10303 20.08351-.80219-.0974-.50656-1.91132-.58366-17.45017-.74171l-17.341426-.17639-.121225 1.05833c-.06667.58209-.06403 1.89177.0059 2.91042l.127098 1.85208h17.252053c16.97058 0 17.25208-.0114 17.25208-.69992zm-33.720249-1.01546c.22081-.35728 9.248629-.81801 10.348729-.52814 1.77769.46841.51261.66006-4.867529.73739-3.113448.0448-5.579985-.0494-5.4812-.20925zm33.720249-5.15501c0-.47109-1.47969-.54018-11.90625-.55595-6.54843-.01-14.00968-.002-16.580552.017-3.048621.0228-4.674305-.0937-4.674305-.33508 0-.25224 4.91333-.3768 15.434027-.39129 17.95228-.0247 17.79904-.0197 17.99137-.5955.1165-.34878-3.47245-.44097-17.16822-.44097-9.52353 0-17.434573-.005-17.580094-.011-.33177-.0138-.556644 1.67014-.309164 2.31505.151977.39606 3.22863.48545 17.488808.50814 15.28393.0243 17.30438-.0353 17.30438-.5104zm0-3.76037c0-.66508-.23413-.69182-5.37986-.61435-6.6087.0995-17.49943-.38098-17.74788-.78298-.10049-.1626 5.06214-.19603 11.47252-.0743l11.65522.22136-.00011-1.02686-.00011-1.02686-17.19781.0541c-17.171027.054-17.197976.0553-17.31053.79375-.110422.72451.0011.73965 5.450417.73965 3.769793 0 5.447523.11563 5.204463.35868-.20526.20526-2.57425.38144-5.538607.41189l-5.179931.0532v.82569.82569l17.286108-.0317c16.9556-.0311 17.28611-.045 17.28611-.72702zm.22817-5.53184.0518-1.74555-7.28373-.26557c-4.00604-.14607-11.84796-.3633-17.42649-.48274l-10.14277-.21715.000353.74537c.000352.72576.183733.75138 6.96777.97362 3.832047.12554 11.452047.25603 16.933337.28997 5.48128.0339 9.96597.19113 9.96597.3493s-.99219.30425-2.20486.32463c-4.14214.0696-17.36452-.0524-24.351385-.22479-6.004211-.14812-7.005577-.0978-7.181494.36059-.540067 1.4074-.504761 1.4105 17.377909 1.52625l17.24177.11162.0518-1.74555zm-.66914-2.86225c.61112-.0194.79375-.23414.79375-.93346v-.90832l-3.43958.0957c-6.70563.18664-30.784601-.11803-30.953712-.39166-.348202-.56341 2.438873-.63644 16.934632-.44373 8.15127.10836 15.41408.0857 16.13958-.0505.94408-.17711 1.31908-.4282 1.31908-.88322 0-.59355-.69697-.64973-10.49514-.84594-11.96909-.2397-23.018747-.91492-23.018747-1.40664 0-.20393 1.815101-.24562 4.674305-.10737 15.796842.76384 19.208232.87982 23.018752.78261 6.11403-.15598 5.88678-.11946 5.75717-.9252-.11009-.68441-.51397-.70616-17.24837-.92898l-17.135646-.22815-.08313 2.05474c-.04572 1.13012-.164882 2.18703-.264802 2.3487-.09992.16168-.08002.75678.04423 1.32246l.225898 1.02851 7.82594.10168c4.30426.0559 10.04843.0645 12.76482.0191s6.05014.0563 7.40833.22612c1.3582.1698 3.02507.26146 3.70417.20368.6791-.0578 1.59191-.11637 2.02847-.1302zm.79375-8.61161v-.82536l-9.4368-.32117c-9.86021-.33558-23.809795-.46625-24.870837-.23297-.3796.0835-.617361.4631-.617361.98576v.85003l6.261805.10502c3.443993.0577 11.302113.14079 17.462503.18453l11.20069.0795zm0-2.387c0-.70413-.14731-.73622-2.82222-.61475-1.55222.0705-2.82222.008-2.82222-.13903 0-.14696.55562-.2672 1.23472-.2672s1.23472-.17724 1.23472-.39388c0-.27779-.7018-.31416-2.38125-.12342-1.30969.14875-2.80738.24489-3.3282.21365-.52082-.0312-1.04608.1036-1.16724.29965-.13804.22336-1.69441.28994-4.16833.17832-4.39164-.19815-14.485217-.49229-17.618173-.51342-1.210063-.008-2.028472-.16754-2.028472-.39504 0-.42397 18.119355-.12011 21.432245.35941 1.36533.19763 1.95387.14679 2.236-.19315.29507-.35555.16577-.51588-.56369-.69896-.60584-.15206-.79473-.33144-.52473-.49832.71931-.44455-2.33887-.66157-9.70344-.68859-3.88055-.0142-8.520458-.1127-10.3109-.21881l-3.255349-.19294.08035 2.05011c.07653 1.95271.122251 2.04656.962293 1.97534 2.507138-.21256 20.955126-.0416 22.930556.21246 1.26118.16222 4.15837.31666 6.43819.34321 3.99471.0465 4.14514.0213 4.14514-.69464zm-6.87917-.6682c-.11991-.19403.0388-.35278.35278-.35278.31395 0 .4727.15875.35278.35278s-.27867.35278-.35278.35278c-.0741 0-.23286-.15875-.35278-.35278zm6.17362-.92307c0-.0744-.48562-.13527-1.07916-.13527-.59353 0-.9942.13746-.89036.30547.17563.28419 1.96952.12916 1.96952-.1702zm-130.027551 34.81913c-.4061025-.40484-.046051-.70419.8226891-.684.5335764.0124 10.7332635.023 22.6659719.0235 24.611883.001 23.663228-.0173 23.546762.45476-.08394.3402-46.6960169.54413-47.035423.20578zm-9.584255-2.48793c-1.099934-1.03093-.996457-1.58551.4557-2.4423.788389-.46516 1.223484-.57565 1.179082-.29943-.09638.59962.400861 1.67248.775152 1.67248.391782 0 1.4979712-2.11871 1.2405757-2.37611-.1066316-.10663-.4217037-.005-.7001607.22631-.281623.23372-.593514.27904-.70286.10211-.108116-.17493.385476-.69858 1.096871-1.16366.88294-.57722 1.3927472-1.23746 1.6063337-2.08031.4016738-1.58509 1.2555943-2.52825 2.1699879-2.39678 1.1934165.17159 1.0774648 1.30794-.2755529 2.70048-1.2620748 1.29894-3.1569652 4.88675-2.8463561 5.38932.3363934.5443 1.7529609-.3169 2.5794596-1.56817.9795742-1.48303 1.5658694-1.42592.9912046.0965-.5686718 1.50659-.1320634 1.64223 1.4030141.4359 2.0212536-1.5884 2.8053019-1.72328 3.0358531-.52226.1807834.94176-.2281622 1.86219-.8273733 1.86219-.1573822 0-.3363817-.42158-.3977766-.93685l-.1116267-.93684-1.1661016.98468c-.7445548.62871-1.7010267 1.0395-2.6458333 1.13635-2.6239899.26897-3.9263605.43845-5.0075095.65163-.787574.15529-1.261402.0183-1.852083-.53528zm1.587665-.80466c-.08075-.24254-.410927-.49219-.733717-.5548-.409266-.0794-.522457.0541-.373995.44097.250257.65217 1.323682.76247 1.107712.11383zm5.7212542-6.92236c-.00943-.48236-.094036-.46468-.5291666.11062-.6741509.89131-.6670132 1.46559.011218.90271.2910417-.24154.5241177-.69754.5179473-1.01333zm15.7850518 7.36367c-.4486141-.64049-.6528276-.67013-2.224865-.32294-3.8086124.84115-4.3227581.82707-4.7590024-.13038-.5207243-1.14287.2449442-2.89841 1.2641238-2.89841.8773699 0 1.0905422.97581.3704762 1.69587-.6544966.6545-.7323218 1.78747-.1058153 1.54045.2425347-.0956 1.5125347-.46152 2.8222221-.81309 2.3670284-.6354 2.3812845-.64666 2.3870532-1.884.00318-.68463.3654301-1.87978.8049744-2.6559.691744-1.22142.963633-1.41111 2.022668-1.41111 1.111657 0 1.233286.10055 1.330572 1.09998.08865.91067-.168377 1.36601-1.493478 2.64583-2.2046282 2.12929-2.1312814 3.4584.163043 2.95448.700742-.15391 1.400604-.73715 2.094146-1.74518.950277-1.38118 1.167225-1.51071 2.472821-1.47648 1.051618.0276 1.382353.1647 1.247132.51708-.567821 1.47972-.600836 2.18149-.09347 1.98679.285347-.10949.717323-.57.959947-1.02335s.851507-1.01125 1.353074-1.23977c.79777-.36349.9858-.31759 1.5019.36662.560165.74262.631931.75273 1.420855.20015 1.159051-.81183 1.61889-.72883 1.887319.34068.205489.81873.356887.89759 1.344199.70012.611946-.12239 1.471038-.55923 1.909089-.97076.529061-.49702 1.255963-.74823 2.165117-.74823 1.35255 0 1.376052-.0233 1.996856-1.98037.345507-1.0892.683543-2.1788.751188-2.42134.16329-.58547 1.556244-.56968 1.556244.0176 0 .25224-.130221.60943-.289384.79375-.611248.7079-2.232769 5.07973-2.014855 5.43233.126065.20397.537344.37087.913948.37087.964015 0 .851511.64469-.195777 1.12187-.712562.32466-1.000076.29298-1.507363-.16611-.428995-.38824-.79133-.46328-1.14796-.23776-.872589.55179-1.913883.38037-2.397954-.39475-.309781-.49603-.652854-.65489-1.054996-.4885-.327766.13561-1.121347.37244-1.763515.52628-1.037696.2486-1.204112.18363-1.495972-.58402-.276934-.72839-.438213-.80497-1.029197-.48868-.385442.20628-.868779.68892-1.074081 1.07253-.57767 1.07939-1.174201.85748-.933269-.34719.304269-1.52134-.26488-1.60751-1.782143-.26983-1.673591 1.47551-4.078886 2.31967-4.830992 1.69548-.378966-.31452-.707313-.32866-1.222969-.0527-1.14922.61504-2.773742.45466-3.32191-.32796zm6.739182-1.50266c.08051-.69756-.04557-.96712-.45234-.96712-.576262 0-1.299253 1.35848-.996085 1.87161.369292.62506 1.341992.0176 1.448425-.90449zm14.706998-.26373c.783608-.86588.642475-1.0499-.619319-.80751-.64897.12467-.970139.40633-.970139.8508 0 .86897.783174.84764 1.589458-.0433zm-18.482838-3.11425c.374856-.97095.134516-1.51451-.553006-1.25068-.47632.18278-1.603613 2.55699-1.603613 3.37739 0 .59688 1.784518-1.16289 2.156619-2.12671zm-12.83323807 5.0222c-.1159831-.11598-.11930909-.4495-.007391-.74116.11191839-.29166-.0167569-.6664-.2859412-.83276-.36995275-.22865-.39000534-.40191-.0821439-.70977.53053896-.53054 1.17431711-.11856 1.17431711.7515 0 .3766.17818805.68473.39597364.68473.27358122 0 .26022962.16357-.0431959.52917-.4683661.56435-.81089215.65901-1.15161875.31829zm47.01272907-.10726c0-.17497.515937-.64855 1.146527-1.05239.635505-.40699.910671-.74454.617361-.75733-.291041-.0127-2.791354-.008-5.556249.0103-4.508564.0299-5.027084-.0285-5.027084-.56616 0-.54792.508441-.58302 5.909028-.40791 3.249965.10538 5.670903.10911 5.379861.008-2.152198-.74547-2.917359-1.19595-2.589043-1.52426.242281-.24228 1.149865-.04 2.806135.62545 1.346423.54096 2.52307 1.09227 2.614779 1.22513.154499.22384-4.445325 2.73569-5.036732 2.75044-.145521.004-.264583-.13656-.264583-.31153zm81.138882-.0346c-.40155-.2595-.25266-.34328.61737-.34738.63059-.003 1.14652.15335 1.14652.34738 0 .4481-1.0705.4481-1.76389 0zm87.59676-1.91442c-.91051-.78749-.93685-.87665-.32878-1.11283.44625-.17333.76716-.0671.98767.32692.51042.91208 1.16318.69947 2.54358-.82846 1.53094-1.69457 1.57425-1.97136.30563-1.95317-1.26038.0181-1.45884-1.0814-.43105-2.38802.9028-1.14773 1.84705-1.20916 2.86953-.18668l.76279.76279-.85098 1.60666c-1.11426 2.10373-2.28818 3.4747-3.52132 4.11238-1.26753.65547-1.17024.6696-2.33707-.33959zm4.40769-4.50614c.50152-.50152.56145-1.34055.0958-1.34055-.52566 0-1.4617 1.08463-1.24234 1.43955.27161.43948.63991.40768 1.14659-.099zm-130.565226 4.43108c-.375641-.37564.09517-.81553.646441-.60398.283714.10887.428011.34006.320661.51376-.228671.37-.648187.40913-.967102.0902zm-93.7308825-4.00774c0-.39198.2351853-.70556.5291666-.70556.2939814 0 .5291667.31358.5291667.70556 0 .39197-.2351853.70555-.5291667.70555-.2939813 0-.5291666-.31358-.5291666-.70555zm220.0179185-1.0987c.20632-1.03158.16808-1.08258-.62618-.83532-.46525.14484-.89883.40112-.9635.5695-.0647.16838-.36016.30614-.65663.30614-.42497 0-.49001-.26127-.30739-1.23472.25493-1.35888.0947-1.4522-1.21145-.70555-1.23761.70748-1.45516.6511-1.21285-.3143.11643-.4639.0395-.94989-.17101-1.07998-.41346-.25552 1.37076-1.95711 2.05215-1.95711.52741 0 .49292.2206-.19982 1.27785l-.58987.90025 1.69842-.25469 1.69843-.25469-.18523.96897c-.17764.92923-.13629.96103 1.00811.77532.96212-.15613 1.19229-.0783 1.18794.40153-.003.32735-.15264.82798-.3326 1.11252-.20742.32795-.18963.68309.0486.97013.28947.34879.1653.45281-.54053.45281-.83746 0-.89741-.0945-.69659-1.09866zm-8.81304-1.63537c-.69973-.53358-2.22683-1.68451-3.39355-2.55764-1.16673-.87312-2.12595-1.70656-2.13161-1.85208-.02-.51453.96516-.25402 2.19464.58033l1.24505.84491 1.81007-2.59248c.99554-1.42586 1.96555-2.68857 2.15557-2.80601.59905-.37023.37721-.793-.53644-1.02231-.83885-.21054-1.25302-1.36863-.61737-1.72623.41581-.23393 9.03906 4.10929 9.1963 4.63183.0968.32177-.30711.23922-1.29463-.26458-.78945-.40275-1.68614-.73227-1.99264-.73227s-1.2195-.33784-2.02889-.75076l-1.47161-.75076-.98378 1.17841c-1.12527 1.34789-1.26136 1.92489-.36641 1.55355 1.72142-.71427 3.32046-.9615 3.70857-.57339.29987.29986.22742.40178-.28663.40326-.37835.001-1.25677.15998-1.95203.35312-1.22325.3398-1.26417.40533-1.26558 2.02651-.001 1.11589.18556 1.81885.55857 2.10509.48.36835.41499.43136-.45501.44098-1.00656.0111-1.01361-.004-.84553-1.75267.19062-1.9839-.21007-2.26623-1.37686-.97014-1.35701 1.50738-1.32976 1.65376.64243 3.4503 2.05125 1.86855 1.67154 2.44856-.51263.78303zm7.28848-4.15467c-.13005-.33889-.0168-.72365.26564-.90228.69905-.44216 1.19794-.19912 1.19794.5836 0 .85215-1.1618 1.10512-1.46358.31868zm-16.94344-.0597c-.42247-.0822-.95785-.37812-1.18972-.65751-.23188-.2794-.77258-.50799-1.20155-.50799-1.13122 0-1.287-.31688-.70709-1.43832.79867-1.54445.62092-1.62487-.71962-.32557-1.71689 1.66407-1.54174.83541.52917-2.50357.97014-1.56419 1.76389-2.99016 1.76389-3.16882 0-.36259-1.17433-.37499-2.3742-.0251-.47924.13976-1.47327 1.33237-2.54351 3.05164-1.99419 3.20355-2.38036 3.70417-2.85732 3.70417-.62168 0-.3521-.64714 1.42498-3.4207.97011-1.51411 1.76386-2.86368 1.76389-2.99906.00002-.13538-.79579-.29413-1.76847-.35278-3.35471-.20227-1.57009-.6892 3.13567-.85558 5.36377-.18963 5.14425-.39604 3.05399 2.87156-1.4202 2.22012-1.46198 2.34779-.66868 2.04338.47822-.18351.54918-.0289.41289.89971-.22986 1.56614.50737 2.09585 1.27865.91872.96234-1.46873 3.02266-1.88912 3.02266-.61676 0 .38971-.23452.4708-.88758.30689-.73079-.18341-.94891-.0615-1.23472.69028-.49909 1.31268-.44866 1.4707.54923 1.72116.493.12374.80113.37907.68473.56741s-.32133.32082-.4554.29439c-.13407-.0264-.58942-.11533-1.01189-.19757zm-107.181866-1.51827c-.119916-.19403-.04991-.35278.155568-.35278.205479 0 .373599.15875.373599.35278s-.07001.35278-.155568.35278c-.08556 0-.253683-.15875-.373599-.35278zm-37.321909-6.51216c-1.4951-1.44738-2.718367-2.81978-2.718367-3.04977 0-.30227.684448-.3608 2.469444-.21115 1.358194.11387 2.469444.15423 2.469444.0897 0-.0645-.314014-.80936-.697808-1.65517-.759443-1.67366-.923632-3.12533-.353491-3.12533.677926 0 5.744637 5.14638 5.573166 5.6608-.115923.34776-.844416-.14384-2.371157-1.6001-2.051974-1.95725-2.185741-2.03004-1.941375-1.05641.144346.57512.473798 1.25702.732113 1.51534.258314.25831.469663.71695.469663 1.01919 0 .46295-.332803.51189-2.112119.31058-2.577719-.29164-2.550968.0157.192888 2.21601 1.833665 1.4704 2.442143 2.51793 1.462599 2.51793-.251146 0-1.679896-1.18423-3.175-2.63161zm119.274545-.47185c-.2974-.40905-.89909-.6281-1.69569-.61736-.98937.0133-1.25561-.12954-1.33985-.71901-.0743-.51992-.48813-.8303-1.41111-1.05834-1.10671-.27343-1.30836-.47132-1.32155-1.29691-.0212-1.32927-1.38402-2.31144-2.3608-1.70144-1.01344.63291-1.1639.20486-.30969-.88109 1.19417-1.51814.98065-2.11399-.44239-1.2345-1.41788.8763-2.28428.93623-2.57519.17814-.11738-.30591-.59966-.70304-1.07172-.88251-1.20837-.45942-.94-1.59281.68839-2.90724 1.20685-.97416 1.39794-1.02563 2.20486-.59378.95735.51236 1.14357 1.2105.44252 1.659-.5205.33298-1.32292 1.69553-1.32292 2.24637 0 .21249.55308.0445 1.22907-.37327 1.62574-1.00476 2.85828-.8478 2.74278.34929-.0468.48507.14912 1.18664.43537 1.55906.47191.61396.57855.62648 1.14342.13422.34263-.29859.82141-.47099 1.06394-.38313.68784.24919.51803 1.446-.26458 1.86485-.38805.20768-.70555.59944-.70555.87058 0 .88135 1.36435.99058 2.67964.21455.94762-.55911 1.40459-.64817 1.91747-.37369.57801.30934.77574.15963 1.39667-1.05749.66992-1.31315 1.48707-1.80394 1.89758-1.13971.0945.15297-.3907 1.11752-1.07832 2.14344-1.08009 1.61149-1.22009 2.05368-1.02885 3.24964.23746 1.485-.14871 1.80219-.9135.75033zm-.78802-1.39986c.20818-.14255.48101-.537.60629-.87654.28786-.78019-.87313-.86035-1.50114-.10365-.67573.8142.0217 1.5781.89485.98019zm-9.91589-8.40368c.32886-.5019.51082-.99966.40436-1.10612-.31966-.31965-1.97948.93614-1.97948 1.49764 0 .83244.92357.60287 1.57512-.39152zm-97.53067 7.17024c0-.47117-.322096-1.14816-.715765-1.50443-.69687-.63066-.729995-.62744-1.254728.12171-.689338.98417-.914386.96805-2.257058-.16174-.763915-.64279-.993411-1.04449-.74096-1.29694.252455-.25245.582771-.16931 1.066482.26844.752814.68129 1.785363.52653 1.785363-.26759 0-.26706-.3175-.7729-.705556-1.12408-.800855-.72477-.916259-1.24967-.264583-1.20345.817675.058 4.196581 4.19059 4.078802 4.98861-.159134 1.07825-.991997 1.22893-.991997.17947zm85.37222-7.09206c0-.26487.35719-.93442.79375-1.48789.43656-.55346 2.03442-2.75768 3.55078-4.89827 1.51637-2.14058 2.90543-3.94488 3.08681-4.00956.61037-.21765.33665.6012-.72856 2.17954-1.24615 1.84644-1.29901 2.11893-.35278 1.81861.5217-.16558.70556-.0634.70556.39215 0 1.04508-.81106 2.92424-1.35166 3.13168-.75556.28994-.9742-.10924-.48708-.88926.51234-.82037.55954-1.75263.0888-1.75263-.40543 0-.54258.16128-2.9213 3.43523-1.84029 2.53287-2.38428 3.00753-2.38428 2.0804zm-83.531859-.48133c-.248984-.0891-1.254118-1.34967-2.233634-2.80125-1.369702-2.02981-1.916842-2.58309-2.369523-2.39612-1.251338.51687-1.823315.58318-1.823315.21139 0-.36222 2.782881-1.9939 2.982317-1.74862.05044.062.832209 1.24712 1.737254 2.63351.905041 1.38639 1.878379 2.71396 2.162972 2.95015.827814.68702 1.117222-.62233.409945-1.85469-.759692-1.32369-.742696-1.73903.115846-2.83049.388055-.49333.704123-1.11005.702377-1.37049-.0018-.26043.499498-.88671 1.113885-1.39172l1.117067-.9182.826393 1.55423c1.047961 1.97095 1.079821 3.4731.08494 4.00554-.627362.33576-.899513.24537-1.768789-.58745-.931362-.8923-1.078833-.93277-1.578437-.43316-.499604.4996-.484159.67596.16528 1.88768.52554.98054.624508 1.50825.371521 1.98097-.421213.78704-1.404327 1.32769-2.016104 1.10872zm4.862417-5.68218c0-.83596-.989471-2.17434-1.607502-2.17434-.758931 0-.622851 1.50882.21742 2.41075.783336.84081 1.390082.73762 1.390082-.23641zm86.487022 5.50213c-.57658-.57658-.51326-1.15069.30348-2.75163.53389-1.04651.927-1.39706 1.56668-1.39706.46967 0 .95638.16573 1.08157.36829.35895.58079-.83024 2.10115-1.64346 2.10115-.60363 0-.69692.15442-.51974.86033.24637.98164-.18147 1.42598-.78853.81892zm1.7145-2.56972c.24543-.29573.34808-.63585.22811-.75582-.25622-.25622-1.29352.53282-1.29352.98393 0 .48594.57497.36283 1.06541-.22811zm-12.58757-1.73436c.308-.80263 4.89298-6.54739 5.22557-6.54739.4423 0 .3634.85319-.12397 1.34056-.32926.32926-.24106.42333.39688.42333.73048 0 .79608.1206.59972 1.10243-.12127.60634-.22049 1.32071-.22049 1.5875s-.3175.48507-.70555.48507c-.78624 0-.88508-.4165-.34037-1.4343.60446-1.12944-.81323-.85775-1.50162.28777-1.29481 2.15465-3.93931 4.34243-3.33017 2.75503zm-67.0099-2.35725c.150361-1.00523.0377-2.19445-.322724-3.40677l-.55372-1.86247-1.04158 1.04158c-.572873.57287-1.041584 1.21868-1.041584 1.43513 0 .74777-2.726792 3.25845-3.402933 3.13323-.359706-.0666-.943067-.71259-1.296352-1.43551-.618346-1.26529-.618709-1.3544-.0097-2.38544.62067-1.05071.616327-1.10099-.228604-2.64771-.602707-1.10331-.749843-1.68812-.490082-1.94788.259764-.25976.726997.34725 1.556258 2.02183 1.436024 2.89985 2.018707 3.63968 2.669797 3.38984.595362-.22846.637618-1.36727.107192-2.88885-.213854-.61347-.279739-1.39122-.146407-1.72834.198752-.50254.348224-.39516.829801.59615.873869 1.79882 1.625289 1.88635 1.380447.1608-.106902-.75344-.306377-1.64771-.443269-1.98726-.166147-.41212-.08505-.61736.243925-.61736.277139 0 1.013619 1.19652 1.682849 2.73403.951254 2.18545 1.196174 3.22264 1.220621 5.16919.02233 1.7779-.101063 2.48036-.457185 2.60264-.388116.13326-.440581-.14806-.256784-1.37683zm-5.429052-1.17493c0-.82473-.781512-2.30435-1.10992-2.10138-.165654.10238-.301191.7324-.301191 1.40005 0 .97871.136698 1.2139.705555 1.2139.388056 0 .705556-.23066.705556-.51257zm73.377772-.72215c0-.29104-.22678-.52917-.50396-.52917-1.53978 0-1.83104-2.02941-.43191-3.0094.9818-.68768 1.63673-.64339 2.69976.18256l.88195.68525-.94055.88125c-.63575.59565-.87965 1.11417-.75261 1.59996.13186.50422.0177.71871-.38237.71871-.31367 0-.57031-.23812-.57031-.52916zm.37597-1.95269c.3753-.20086.68237-.51836.68237-.70556 0-.4814-1.18714-.42323-1.69334.083-.90855.90855-.26448 1.30519 1.01097.62259zm-62.462564 1.24989c-.242207-.29184-.476515-1.83298-.535806-3.52421-.08676-2.47467-.266001-3.27967-1.014733-4.55728-.75129-1.28199-.818628-1.58653-.387382-1.75201 1.045831-.40133 2.993965 4.87578 2.993965 8.11006 0 1.98-.358101 2.56441-1.056044 1.72344zm.158066-3.16172c-.134945-.89987-.317515-1.56397-.405709-1.47578-.08819.0882-.04994.89661.085 1.79648.134945.89987.317514 1.56397.405709 1.47578.08819-.0882.04994-.89661-.085-1.79648zm56.372278.63993c-.82461-.4972-1.4993-1.1109-1.4993-1.36378 0-.33276-.38981-.40749-1.41111-.2705-1.14708.15385-1.41111.0816-1.41111-.38635 0-.60201-.11086-.63915-2.11667-.709-1.83187-.0638-1.88556-1.29126-.1349-3.08411 1.36719-1.40013 2.16077-1.67108 2.85655-.9753.38902.38902 1.22358-.69244 2.54944-3.30373.53787-1.05934.9989-1.23634 1.28414-.49301.16611.43287-.57921 1.86663-2.91146 5.60072-.86238 1.38073-1.08356 2.74159-.44558 2.74159.74464 0 1.79021-.76992 2.3941-1.76293.42397-.69716.76316-.92118 1.08945-.71952.37999.23485.32421.50292-.28175 1.35391-1.0475 1.47108-.95215 2.05088.39098 2.37744 1.77835.43239 1.81469.41476 1.83395-.88963.0207-1.40444.81391-1.80615 1.7392-.88086.78589.78589.71787 1.32099-.13357 1.05076-.57691-.18311-.70555-.0634-.70555.65658 0 .82226-.80818 2.00653-1.34812 1.97549-.13166-.008-.91407-.42057-1.73869-.91777zm-4.33762-4.24341c.40737-.51789.68347-1.1132.61357-1.32292-.23299-.69898-1.39459-.39294-2.1013.55362-1.254 1.6796.18598 2.42421 1.48773.7693zm-29.44408 3.40582c-.13436-.21739-.13214-1.81218.005-3.54397l.24921-3.14871-1.237.51685c-1.03364.43188-1.30173.43884-1.63084.0423-.21662-.26101-.29476-.73281-.17363-1.04845.14706-.38327.0319-.57388-.3467-.57388-.83153 0-.69692-.51967.46377-1.79047 1.08757-1.19073 2.15371-1.22706 2.1331-.0727-.0138.77164-.80501 1.86315-1.35059 1.86315-.53274 0-.51188.52811.0389.98487.78371.64994 2.35115-1.083 2.71575-3.00251.5065-2.66656.97604-3.6268 1.77343-3.6268.91306 0 .90844.51141-.0129 1.4328-.40522.40522-.6786 1.06912-.61736 1.49931.0873.6137.32695.76065 1.16822.71645 6.46596-.33975 6.22099-.36268 6.98162.65337l.71161.95055.5631-1.10593c1.24209-2.43943 2.34982-1.11278 1.14372 1.36975-.64891 1.33564-.68188 1.59022-.2285 1.7642.59812.22953.72799 1.18616.16101 1.18616-.51581 0-1.80797-1.41473-2.53831-2.7791-.75114-1.40322-1.18796-1.19993-1.50936.70243-.20421 1.20871-.32152 1.36839-.71136.96829-.33757-.34646-.38915-.89425-.1863-1.97842.38554-2.06065-.46305-2.0405-.98273.0233-.46291 1.83839-1.61191 3.05692-2.26585 2.40298-.23768-.23768-.4048-1.13881-.37138-2.0025.056-1.44756-.007-1.57034-.80296-1.57034-1.18681 0-1.56088 1.1377-1.84653 5.61606-.2208 3.46163-.64052 4.61158-1.29603 3.55093zm5.67417-7.55944c.24072-.95912-.0744-1.72857-.58004-1.41609-.43839.27094-.42284 2.27799.0176 2.27799.19033 0 .4434-.38786.56238-.8619zm6.78454-1.79327c-.10862-.10862-.30587.0872-.43835.43509-.19145.50278-.15093.5433.19748.19748.2411-.2393.34949-.52396.24087-.63257zm-13.6902-.2087c0-.19402-.15875-.25466-.35278-.13475-.19403.11992-.35278.37678-.35278.57081s.15875.25467.35278.13475.35278-.37678.35278-.57081zm-19.993779 5.4215c-.651227-1.55229-.788909-3.04265-.294961-3.19285.19182-.0583.510442.65604.70805 1.5875.234678 1.10619.541948 1.69355.885959 1.69355.41741 0 .513959-.45744.465378-2.20486-.07363-2.64836.47021-2.92819.803786-.41358.193432 1.45817.396448 1.85167 1.091713 2.116 1.028397.391.708293 1.16154-.394924.95065-.424092-.0811-.96737.0627-1.20728.31955-.758627.81212-1.484612.51013-2.057721-.85596zm40.683489 1.08115c-.39155-.39155-2.80771-1.15827-3.66818-1.16403-.46801-.003-.79375-.22247-.79375-.53448 0-.61206.63348-.67323 1.91731-.18512.82371.31318.90491.26389.90491-.54934 0-1.18994.7202-4.09301 1.15244-4.6454.48955-.62562-.3271-1.4993-1.40142-1.4993-.54179 0-.81003-.16578-.71355-.44098.0891-.25407.58745-.39372 1.17592-.3295 1.16426.12708 4.01994 1.68739 4.01994 2.19646 0 .48267-.43373.41834-1.30797-.194-.90658-.635-.78115-.95713-2.03477 5.22557-.0847.41781.16451.74836.72487.96141.46969.17858.85398.56674.85398.86258 0 .56199-.41556.7103-.82973.29613zm-35.607771-1.74111c-.515088-.51508-.226099-1.19212.50885-1.19212.700789 0 .716731-.0483.203874-.61736-.305996-.33955-.660965-1.03661-.788819-1.54901-.272662-1.09279.235547-1.53394 1.643507-1.42666.526377.0401 1.056224-.0876 1.177446-.28369.121218-.19614.535724-.35661.92112-.35661.609759 0 .670652-.16028.469085-1.23472-.186866-.99609-.121775-1.23473.336793-1.23473.414447 0 .568428.33448.568428 1.23473 0 .99953.13439 1.23472.705555 1.23472.410397 0 .705556.23518.705556.56219 0 .30921-.3175.64522-.705556.7467-.521755.13644-.705555.4812-.705555 1.32341 0 .69088.277555 1.39008.705555 1.77742.893339.80846.897626 1.23472.01242 1.23472-.878981 0-1.423529-1.0076-1.423529-2.63401 0-.99311-.172706-1.3339-.79375-1.56628-.485214-.18155-.882756-.15715-1.022731.0628-.125938.19787-.483125.26224-.79375.14305-.717613-.27538-.720922.25319-.0084 1.34064.805265 1.22899.535238 2.45298-.569577 2.58182-.492333.0574-1.008271-.009-1.146528-.14699zm10.211591-1.34971c-.10772-.2807-.0633-1.3489.0987-2.37377.29852-1.88841.26657-2.65185-.17086-4.08322-.14772-.48337-.0934-.79375.13894-.79375.79006 0 1.18265 1.53704 1.05223 4.11964-.13086 2.59147-.12356 2.61707.68775 2.41344.73431-.1843.77991-.13089.43633.51111-.44407.82975-1.95073.96849-2.24311.20655z" stroke-width=".352778" transform="translate(14.25964 -141.22342)"/>
</svg>
