<?xml version="1.0" encoding="utf-8"?>
<svg height="124.78572mm" viewBox="0 0 402.83976 124.78572" width="402.83975mm" xmlns="http://www.w3.org/2000/svg">
	<path d="m-31.495353 154.05278c-3.04023-.35245-8.79632-1.88716-11.465281-3.0569-2.457739-1.07718-6.908666-4.03897-8.087727-5.38185-.584616-.66584-1.192819-1.21062-1.351562-1.21062-.758888 0-4.890625-4.91179-6.563984-7.80324-1.266487-2.18839-3.399505-8.22962-3.399505-9.62821 0-.61856-.17671-1.30137-.392684-1.51734-.553134-.55314-.487468-10.9119.07789-12.28733.235804-.57368.405459-1.15502.377014-1.29188-.132708-.63851 2.223841-7.053 3.343067-9.09978 2.607476-4.768389 6.819226-9.295209 12.057391-12.959339 4.939968-3.45555 9.265691-5.03506 16.745431-6.11451 5.07475-.73237 11.67942.37705 18.17557 3.05302 1.68418.69377 3.4590301 1.6081 3.9441001 2.03185s1.43757 1.07435 2.11667 1.44577c1.61462.8831 4.83582 3.49759 5.76569004 4.67974.40361.5131 1.06294 1.28802 1.46517996 1.72204.40224.43403.96343 1.23934 1.24709 1.78959.28367.55025 1.01318 1.714829 1.62114 2.587959.60797.87312 1.46294 2.61937 1.89993 3.88055.437 1.26118 1.09098 2.93849 1.45331 3.72735.36232.78887.65877 1.60162.65877 1.80613 0 .2045.29527 1.30532.65615 2.44626.36089 1.14094.73948 3.14599.84132 4.45568.16046 2.06343.10651 2.38125-.40417 2.38125-.35415 0-.58933.28156-.58933.70555 0 .38806.14171.70556.31492.70556s.22859.22499.12307.49997.0362.5875.31504.69449c.6082799.23341.6510699 1.23592.11019 2.5813-.21819.54271-.52487 1.30424-.68152 1.69229-.15665.38806-.36483 1.18181-.46263 1.76389-.27742 1.65119-1.81725 5.84935-2.71729 7.40834-.44806.77611-1.85609 2.83039-3.12895 4.56506-4.11502 5.60801-9.20465 8.95429-18.0639001 11.87648-3.65556 1.20577-5.07014 1.48735-8.76846 1.74539-4.47454.31221-5.33995.32483-7.23194.10549zm11.81835-2.59387c4.58571-.90385 6.42031-1.44278 8.8921-2.61212 1.0644701-.50358 2.0344201-.9156 2.1554401-.9156s1.38286-.78897 2.8041-1.75327c3.00019-2.0356 6.40923004-5.47162 7.77346-7.83498.52408-.90791 1.16133-1.86041 1.41611-2.11666.25477-.25626.89536-1.38095 1.42352-2.49931.52816-1.11837 1.26403-2.22307 1.63526-2.45491.47843-.29879.57109-.54667.31825-.85132-.47704-.5748.336-3.30344.9843-3.30344.3359 0 .41358-.26484.2587-.88194-.13039-.51953-.0698-.88195.14748-.88195.3069 0 .20003-2.34903-.1252-2.75213-.0472-.0585-1.3063.45747-2.79806 1.14653-1.49175.68905-2.94875 1.25282-3.23776 1.25282-.28902 0-1.50773996.31229-2.70826996.69396-6.54330004 2.08028-8.32012004 2.45118-15.23556014 3.18037-10.52297 1.10958-21.69774.63833-28.751389-1.21248-1.067153-.28001-3.130903-.82115-4.586112-1.20253-3.908143-1.02425-9.238312-2.69014-10.119169-3.16264-1.264204-.67814-1.875275-.51315-1.875275.50632 0 1.84119 1.148369 6.02566 2.410022 8.78173 2.678691 5.85157 5.053934 9.09054 8.996568 12.26808 2.434343 1.96195 8.334918 5.19442 9.481915 5.19442.3055 0 .65315.25459.77256.56576.12463.3248.44253.47927.74636.36268.29109-.1117.9342-.0491 1.42912.13903 1.88308.71595 8.349 1.38842 11.62044 1.20855 1.35975-.0748 4.13674-.46399 6.17109-.86497zm5.40614-23.88337c.18378-.11359 1.30471-.31938 2.49094-.45731 2.2718501-.26418 4.6337001-.79076 7.2720701-1.62133.87312-.27487 1.88536-.49897 2.24942-.49801.36405.001 1.57841004-.46399 2.69859004-1.03322 1.12017996-.56924 2.11562996-.95602 2.21211996-.85953.0965.0965.98595-.24836 1.97656-.76634.99062-.51798 2.03886-.85055 2.32944-.73904.65196.25018.67765-.14159.0643-.98042-.25521-.34902-1.23999-.83161-2.1884-1.07242-1.58296-.40193-2.71519-1.29171-2.24368-1.76322.10683-.10683 1.11825.12369 2.24761.51224 1.12937.38856 2.42541.70647 2.88011.70647.70262 0 .82672-.17743.82672-1.18208 0-.65014-.15798-1.64233-.35105-2.20486-.19308-.56253-.41033-1.49903-.48279-2.08111-.0725-.58209-.21385-1.29646-.31421-1.5875-.43376-1.2578-1.08767-3.75915-1.14813-4.3918-.0361-.3782-.23755-.74491-.44757-.81492-.37184-.12394-3.60625-6.4544-3.60625-7.058219 0-.65525-5.15068-5.84426-7.14623-7.19941-1.16307-.78983-2.19431-1.74058-2.29164-2.11278-.0973-.3722-.35519-.61684-.57302-.54366-.21784.0732-1.74543-.53761-3.3946701-1.35734-3.76307-1.87039-5.74252-2.49256-9.52341-2.99336-1.64836-.21834-3.16474-.53618-3.36974-.70632-.205-.17013-.68197-.2322-1.05993-.13794-.37796.0943-2.51282.39493-4.74414.66814s-5.23612.75749-6.67733 1.07617c-8.752231 1.93535-18.640285 10.85345-22.441378 20.240029-1.102423 2.72237-2.631295 9.43822-2.631295 11.55846 0 1.84111.211853 1.88371 3.242832.65211 2.484924-1.00971 3.107168-1.0862 3.107168-.38195 0 .27769-.745021.76482-1.675695 1.09565-2.5111.89262-3.263194 1.30106-3.263194 1.77216 0 .61233 1.041756 1.38995 1.906139 1.42285.671178.0255 5.011752 1.13975 9.559139 2.45379 2.112359.6104 4.44615 1.06224 9.172224 1.77582 1.94028.29296 4.32153.67499 5.29167.84895 1.84343.33057 19.4651.1207 20.04671-.23875zm-41.918938-6.1151c-1.164166-.1058-1.878541-.29177-1.5875-.41327.97849-.40849 12.639778-.66271 12.875871-.2807.121895.19722.01312.42516-.241706.50652-.793799.25343-8.821656.38965-11.046665.18745zm31.296468-.39086c.0739-.22181.99997-.45053 2.05787-.50828 1.05789-.0577 3.47125-.19697 5.36302-.30939 1.89178-.11242 3.43959-.0699 3.43959.0945 0 .50092-4.29978 1.12644-7.74299 1.12644-2.28265 0-3.21185-.12021-3.11749-.40328zm-13.39299-.2047c-.6306-.0783-1.14653-.26033-1.14653-.40462 0-.14428 2.34156-.22788 5.20347-.18579 6.16529.0907 5.73264.0535 5.73264.49283 0 .34162-7.24149.4138-9.78958.0976zm28.9260101-.18047c.10076-.30229 1.32484-.46431 3.99814-.52922 2.11911-.0514 4.62026004-.25344 5.55811004-.44887 1.65955996-.34582 2.35175996-.24974 2.35175996.32644 0 .3651-6.35457 1.08732-9.56704 1.08732-1.81603 0-2.44705-.11744-2.34097-.43567zm-44.3449761-3.06773c-.295106-.47749.142579-.66148 3.006676-1.26397 3.740464-.78683 4.297362.2906.614401 1.18868-2.005573.48905-3.348108.51696-3.621077.0753zm51.0495161-.44597c-1.99687-.36419-2.38335-.84274-.96757-1.19807.55146-.13841 1.21097-.008 1.75148.34605.47683.31243 1.19005004.56806 1.58493004.56806.39488 0 .71797.15875.71797.35277 0 .40857-.53458.39665-3.08681004-.0688zm-43.1241341-.98066c-.883359-.55776.0051-.98793 2.599384-1.25862 1.939978-.20241 2.394719-.15945 2.270068.21451-.254868.7646-4.030094 1.57409-4.869452 1.04411zm34.935134-.42381c-2.51853-.35707-2.78664-.48038-2.23776-1.02926.56904-.56904 5.2232901.0629 5.2232901.70926 0 .6661-.30999.69933-2.9855301.32zm-27.08821-1.28813c.98845-.6518 5.55568-1.05778 5.55568-.49384 0 .3788-3.42958 1.13908-5.1256 1.13626l-1.40079-.002.97071-.6401zm17.46193.38544c-1.64734-.12989-2.19385-.62233-1.13962-1.02688.85649-.32867 5.21347.35652 5.37457.84521.14835.44998-.48677.47722-4.23495.18167zm-9.43325-.40829c-1.29597-.3607-.39042-.75932 2.18935-.96371 2.58377-.20472 3.80432.0379 3.80432.75608 0 .41661-.51816.51533-2.55764.48728-1.4067-.0193-2.95291-.14518-3.43603-.27965zm-31.047998 7.15079c0-.46877-.09578-.49287-.529166-.13319-.291042.24154-.529167.4991-.529167.57236 0 .0733.238125.13319.529167.13319.291041 0 .529166-.25756.529166-.57236zm149.401388 11.63813c-2.73155-.42965-7.81634-2.03284-9.12715-2.87771-.8009-.51622-2.0118-1.19685-2.6909-1.5125-.6791-.31566-1.92631-1.15461-2.77157-1.86434-.84527-.70972-1.72165-1.4079-1.94751-1.5515-.918-.58369-3.74759-4.17237-3.74759-4.75296 0-.7191-.7769-.78865-3.39143-.30363-.94812.17588-3.23197.2056-5.07523.066-2.14278-.16223-4.87807-.0849-7.58473.21442-2.32833.25748-6.29708.482-8.81944.49893-5.90883.0397-5.64391.0669-5.1483-.53022.48612-.58575 8.69757-1.00571 20.75884-1.0617 8.42944-.0391 8.57525-.075 7.36299-1.81002-.2674-.38272-1.10084-2.60086-1.85208-4.92919-1.35722-4.20645-1.3658-4.26918-1.35067-9.87778.009-3.364849.20134-6.428049.47606-7.584719.88194-3.71332 1.78302-6.35456 2.79698-8.19858.56119-1.02057 1.11992-2.25246 1.24163-2.73753.53375-2.12714 8.03854-10.58333 9.39262-10.58333.30142 0 .75163-.32599 1.00045-.72443.44234-.70828 1.60489-1.30807 5.89092-3.03924 5.47198-2.21019 11.08085-2.46511 17.638893-.8017 2.32834.59057 4.86834 1.36235 5.64445 1.71507s1.94149.84606 2.58973 1.09634c3.20941 1.23907 9.82767 6.89141 11.16636 9.53664.33767.66723.88502 1.53065 1.21634 1.91871.99748 1.16828 2.40267 4.73857 3.33446 8.47215 1.67443 6.70918 1.47979 15.481489-.4832 21.778539-.68411 2.19451-.81729 2.37804-1.69828 2.34033-.63121-.027-.73988-.097-.31987-.20587.49865-.1293.54827-.27076.22965-.65467-.31378-.37809-.24711-.75336.29248-1.64622.3844-.63606.81111-1.95024.94822-2.92038.13712-.97013.44919-2.00201.6935-2.29305.72318-.86152.94295-1.75661.37807-1.53984-.40455.15524-.45544-.35649-.29122-2.92839.21805-3.41489-.32738-9.517159-1.09838-12.288719-1.34547-4.83661-4.5331-10.56631-7.35987-13.22923-2.87243-2.70592-6.12993-4.64857-9.97315-5.94759-2.12199-.71724-4.01693-1.40037-4.21095-1.51807-.19403-.1177-1.02664-.3255-1.85024-.46177-.823603-.13628-1.587783-.39393-1.698183-.57255-.32359-.52359-8.55771-.32379-10.91547.26486-3.83242.95684-5.47356 1.6066-7.68938 3.04438-1.20362.781-2.62496 1.42176-3.15854 1.42392-.65771.003-.97014.18808-.97014.57575 0 .31451-.80557 1.35961-1.79016 2.32245-2.97746 2.91171-6.8587 9.15224-8.21952 13.21591-2.43306 7.26565-2.56242 13.950149-.42514 21.969419 1.05257 3.94931 2.02443 6.26146 2.62609 6.24767.1232-.003.93838-.25803 1.81151-.56713 2.47919-.87765 6.26838-1.89718 7.05109-1.89718.39051 0 .71002.21299.71002.47332 0 .49078-1.20646.92196-4.67431 1.67053-1.11566.24083-2.02847.54192-2.02847.6691s2.89409.25136 6.43131.27597c4.17286.029 6.47502.17588 6.55578.41819.1226.3678-4.84206.61092-10.249.5019-1.42893-.0288-2.29428.0862-2.16936.28833.1143.18494-.12566.42346-.53323.53005-.40758.10658-.74105.47567-.74105.8202 0 .81932 3.75043 4.27831 5.70354 5.26033.84062.42266 1.76653.90986 2.05757 1.08265 3.27523 1.94456 7.21203 3.15309 11.91557 3.65788 4.30486.46201 13.456243-1.35113 17.794233-3.52551.91518-.45873 1.83908-.83405 2.0531-.83405.52979 0 3.43354-1.97703 4.83251-3.29023.62768-.5892 1.24387-.96864 1.3693-.84321s.5267.0682.89172-.12712c.51572-.27601.58546-.50128.31286-1.01065-.31064-.58042-.21019-.65546.87745-.65546 2.25716 0 1.25019 1.37953-2.6523 3.63361-1.00776.58208-2.25405 1.37583-2.76954 1.76389-.85756.64557-1.34127.94215-3.13948 1.9249-1.45335.79427-7.17497 2.85499-9.28674 3.34475-2.334313.54136-10.220483.98347-12.144523.68084zm-18.52083-12.47688c0-.19403-.23812-.35278-.52917-.35278-.29104 0-.52916.15875-.52916.35278s.23812.35278.52916.35278c.29105 0 .52917-.15875.52917-.35278zm16.93333 5.14795c-1.4552-.25413-2.83207-.39283-3.05969-.30821-.51795.19252-4.68123-.85604-5.23995-1.31973-.22736-.1887-1.25697-.50307-2.28801-.6986-1.03104-.19554-2.36467-.66955-2.96362-1.05335l-1.089-.69784.91749-.006c1.22231-.008 3.13945.67917 3.13945 1.12515 0 .19739.36761.26424.82366.14978.45301-.1137 1.36582-.0381 2.02847.168 4.44804 1.38341 9.35632 1.93628 16.10968 1.81461 3.33387-.0601 4.6743.032 4.6743.3211 0 .25925.222503.21572.617363-.12076.33955-.28934 2.83987-.97335 5.55625-1.52002 2.71639-.54667 5.24881-1.15105 5.62759-1.34307.48064-.24366.72931-.22727.82314.0542.1828.54839.80349.5147.69302-.0376-.049-.2451.26106-.44549.6981-.45115.43246-.006.98015-.20404 1.21709-.44098.23693-.23693.66176-.43079.94407-.43079.70859 0-.48738 1.30663-1.83278 2.00236-1.87002.96703-7.08023 2.16585-10.63967 2.44809-.97014.0769-2.24014.22986-2.82222.33984-2.386003.45082-11.363123.45397-13.934733.005zm174.990953-1.42793c-.34343-.41379-.24166-.75506.52489-1.76003.76349-1.00097.849-1.28581.43396-1.44508-.28434-.1091-.81139-1.10303-1.17123-2.20872-.83432-2.56348-1.08966-2.8923-2.24599-2.8923-.52123 0-1.25586-.22831-1.63252-.50735-.67666-.50135-.67641-.51375.0208-1.04712.85905-.65717 1.72558-.70226 2.63087-.13688.55598.34721.80314.31483 1.34592-.17639.71603-.64799 1.68526-.79126 1.99228-.29449.10442.16897.64742.39872 1.20667.51057.985.197 6.4062 5.15694 6.4062 5.86114 0 .54332-2.09776.83149-2.65945.36533-.41359-.34326-.7378-.25599-1.66123.4472-.63105.48053-1.50456.98661-1.94112 1.12461-.43657.13801-.79375.45068-.79375.69482 0 .43118-1.43235 1.978-1.83163 1.978-.10925 0-.39034-.23099-.62466-.51331zm4.0562-3.93698c1.10469-.72383 1.10112-1.31404-.0123-2.04365-.87235-.57159-.88194-.5665-.88194.46777 0 .57511-.15875 1.14376-.35278 1.26367-.46239.28578-.45399.88195.0124.88195.20083 0 .75646-.25638 1.23472-.56974zm-.1397-4.38089c-.84938-.70761-3.09732-.99208-2.69494-.34104.11991.19403.59616.35278 1.05833.35278.46218 0 .93843.15875 1.05834.35278s.48648.34749.81456.34104c.48352-.01.43871-.14322-.23629-.70556zm-66.89549 7.5401c-1.35544-.2904-4.13356-1.25831-6.17361-2.15089l-3.70918-1.62289-14.46389.0887c-11.79202.0723-14.38148.005-14.01778-.36548.76368-.77749 4.47239-.97637 15.32513-.82181 7.74517.11031 10.54596.0418 10.73399-.26241.13993-.22641.0605-.4763-.1766-.55533-.23706-.079-1.54496-1.19331-2.90644-2.47619-1.72446-1.62491-2.42533-2.52409-2.3103-2.96396.11476-.43884-.0341-.63142-.48816-.63142-.3593 0-.86038-.37922-1.1135-.8427-.25313-.46349-.90804-1.5682-1.45537-2.45492-2.69519-4.36641-4.47147-10.787669-4.47243-16.167829-.0007-4.15386.97667-10.63989 1.77147-11.75539.13825-.19402.52321-1.1861.85548-2.20461.37016-1.1347 1.66111-3.25109 3.33354-5.46505 4.75728-6.29768 10.81486-10.14433 18.20431-11.56 1.16417-.22303 2.67302-.52489 3.35301-.6708s3.45812-.12964 6.17361.0361c9.63788.58842 15.257 3.35593 21.61806 10.64727 5.1528 5.90637 8.18115 15.6205 7.16254 22.97539-1.1823 8.536839-1.9757 10.910379-5.24768 15.698609-1.78381 2.61044-4.86121 5.90127-5.79597 6.19795-.34587.10978-.62885.5064-.62885.88138s-.15875.68178-.35278.68178c-.19402 0-.35277.2464-.35277.54757 0 .47096.41871.5136 2.99277.30474 1.89278-.15358 3.157-.10947 3.43958.12002.24575.19957.76431.4409 1.15237.53628.38805.0954-1.63276.19185-4.49071.21436l-5.19626.0409-3.62318 1.60799c-5.35327 2.37583-7.97043 2.98358-12.70073 2.94936-2.18638-.0158-5.08423-.26636-6.43967-.55677zm12.97313-1.49326c2.8104-.61599 4.40272-1.29544 3.99393-1.70423-.0851-.0851-.48907.0243-.89776.24297-1.17751.63019-1.40734.13724-.64982-1.39384.80249-1.62197 1.02572-1.67629 2.91996-.71056.76115.38806 1.64062.70556 1.95439.70556.90475 0 3.50637-1.88495 5.80672-4.20714 1.16417-1.17523 2.32447-2.13814 2.57846-2.13982.25398-.002.36834-.15425.25412-.33906-.16988-.27487.94202-2.03267 2.58786-4.09113.66692-.83411 2.97556-6.11231 3.46416-7.92007.59817-2.213029.73251-3.102059.97561-6.455629.0956-1.31928.26035-2.53862.36604-2.70965.10573-.17103.0531-.39697-.11702-.50209-.17011-.10511-.41694-1.51854-.5486-3.14094-.45808-5.64572-3.1041-11.31248-7.57616-16.22527-3.3761-3.70882-5.60702-5.35102-9.43329-6.9439-3.37257-1.404-5.3879-1.81771-9.81879-2.01563-6.16076-.27518-12.92598.91353-16.95184 2.97861-2.60707 1.33729-6.25439 4.02177-7.60749 5.59921-.81252.94723-1.7351 1.98058-2.05019 2.29632-2.39996 2.40505-4.24753 6.69605-5.53424 12.85328-.73107 3.49835-.53001 8.85589.50226 13.38374.95044 4.168929 1.3339 5.148949 3.22438 8.240639.87313 1.42791 1.78045 2.9462 2.01628 3.37398.69025 1.25207 5.78112 5.95535 7.35398 6.79409l1.44362.76981 3.42622-1.06687c3.26802-1.01762 4.45713-1.10143 4.45713-.31416 0 .41405-1.32508.79467-3.14114.90227-1.69001.10012-1.79775.1275-1.79775.45672 0 .15557.56577.29889 1.25726.3185 1.18229.0335 2.62329.89961 2.62329 1.5767 0 .16765-.39687.20521-.88194.0835-1.21562-.3051-1.14633.46765.0882.98361.53358.223 1.60514.4453 2.38125.494.77612.0487 2.28424.23364 3.35139.41098 2.64884.44017 6.27318.22791 9.97953-.58447zm-8.03925.0256c-1.65029-.30866-1.27016-.76903.635-.76903 1.10596 0 2.01083.14073 2.01083.31273 0 .36598-1.62781.64671-2.64583.4563zm-3.15215-.37929c-.10735-.17369.0265-.40088.29747-.50486.51727-.1985.9144.0302.9144.52669 0 .39397-.96564.37657-1.21187-.0218zm-2.65847-.37596c-.28542-.18051-.43724-.40991-.33737-.50977.27334-.27334 1.73827.17933 1.73827.53713 0 .40464-.74068.39017-1.4009-.0274zm9.25618.12723c.1398-.1398.69174-.2824 1.22653-.31689.5348-.0345 1.34833-.18443 1.80784-.33321.62631-.20278.79602-.15083.67783.20748-.10021.30381-.85164.51786-2.06202.5874-1.0474.0602-1.78998-.005-1.65018-.14478zm-10.6775-1.88892c0-.63391 2.78246-.85683 4.93889-.39568.097.0208-.0617.19161-.35278.3797-.68554.44303-4.58611.45662-4.58611.016zm7.31275.0794c-.73167-.0763-1.23824-.28779-1.12571-.46986.2287-.37005 2.2728-.4469 3.13069-.11769.61669.23665.40852.87926-.25453.78567-.23108-.0326-1.01878-.12177-1.75045-.19812zm3.79403-.10461c-.11847-.19167.008-.43421.28095-.53897.83684-.32112 5.72199-.004 5.72199.37184 0 .46513-5.72034.6244-6.00294.16713zm4.65626-1.27863c-.12626-.12625-1.22428-.32469-2.44005-.44097s-2.21049-.37017-2.21049-.5642c0-.48228 2.29585-.66748 2.74213-.22119.19766.19765.81208.26882 1.36538.15816 1.03489-.20698 2.21611.41685 1.865.98495-.22597.36564-.99138.41384-1.32197.0833zm-13.73151-.67768c-.47796-.47988.50837-1.20951 1.62763-1.20403 1.2242.006 2.25134.49408 1.72471.81955-.59832.36979-3.08313.65477-3.35234.38448zm4.75927-.59207c.18348-.55105 1.11681-.74562 2.23293-.46549 1.42137.35674.95874.90646-.76285.90646-1.13665 0-1.57329-.13098-1.47008-.44097zm-278.136583 4.70707c-4.234113-.19814-5.610539-.47983-4.474591-.91574.278095-.10672 3.039255-.15014 6.13591-.0965 4.726168.0819 5.630284.1825 5.630284.6267 0 .63227-.948108.6824-7.291603.38554zm-44.743117-.3455c0-.44536 1.36338-.59138 6.45875-.69172 4.53538-.0893 6.06491.36271 2.62528.77586-2.76871.33256-9.08403.27406-9.08403-.0841zm26.811109-.0678c0-.69313 1.27939-.96911 5.027083-1.08442 3.128317-.0962 4.145139-.0204 4.145139.30923 0 .24022-.357187.51654-.79375.61404-1.279651.2858-8.378472.42234-8.378472.16115zm-11.239759-.33145c.84463-.49325 7.711981-.89161 7.711981-.44736 0 .45663-2.564286.80957-5.781881.79581-1.7693-.008-2.338-.11024-1.9301-.34845zm114.074487.006c-.9591099-.41214-.6573799-.43775 4.409-.37422 2.42495.0304 4.56014.20642 4.74486.39114.42635.42635-8.15925.41048-9.15386-.0169zm11.90647-.21237c.53529-.5589 1.36974-.66363 6.26181-.78595 3.64556-.0911 5.64422-.0154 5.64422.21397 0 .55605-1.18781.7206-7.05556.97746-5.28989.23155-5.44793.21834-4.85047-.40548zm95.537053.23385c-.37698-.23853-.40703-.44032-.11755-.78913.32197-.38794-.44032-.42194-4.42727-.1974-4.9782.28035-5.9287.19576-5.50491-.48996.17312-.2801 1.51748-.34938 4.4422-.22893 3.84188.15823 5.11651-.0265 4.17948-.60556-.60723-.37529-.39719-.8855.36455-.8855.39769 0 1.16711.22962 1.70983.51027 1.20137.62125 2.41975.35918 3.45928-.74407 1.2468-1.32324 1.9854-.9494 1.16242.58836-.21891.40903-.2271.73922-.0215.86629.44412.27448 15.53118.29093 18.10231.0197 2.07947-.21934 2.49773.0472 1.44551.92108-.65264.54204-2.82883.59004-13.95392.30778-6.22927-.15805-7.01503-.11377-7.55693.42578-.57018.56772-.63097.56772-1.06232 0-.43-.56592-.45822-.56501-.46876.0152-.0121.66524-.9192.81332-1.75243.28607zm-28.044103-1.0403c-.27944-.45214 2.11488-.68246 7.6485-.73575 4.790833-.0461 6.453873.3806 3.213953.82468-2.457543.33684-10.640713.26985-10.862453-.0889zm61.358913-.016c-1.59808-.11319-2.63405-.32177-2.3884-.48087.62596-.40544 10.58449-.71519 10.14951-.3157-.59948.55057-2.69579 1.12912-3.845 1.06115-.60164-.0356-2.36388-.15464-3.91611-.26458zm82.28542-.27917c-.33955-.0819-.61736-.30654-.61736-.49928 0-.20607 1.05361-.32246 2.55764-.28254 2.86321.076 3.79236.24111 3.79236.67393 0 .29724-4.58911.38361-5.73264.10789zm6.5864-.14275c-.10442-.16892.12767-.30714.51572-.30714.38806 0 .80367-.15875.92358-.35278.31898-.51614 2.71769-.40958 3.46068.15374.3653.27696.48958.5761.29051.69915-.52518.32458-4.97283.15923-5.19049-.19297zm5.93721-.0426c.0809-.24253.35867-.44097.61736-.44097.2587 0 .53651.19844.61737.44097.0875.26233-.16267.44098-.61737.44098-.45469 0-.70481-.17865-.61736-.44098zm2.45474.2109c-.34992-.1469-.36037-.30621-.045-.68618.31973-.38521 1.60803-.49486 5.81473-.49486 5.00155 0 7.15384.37615 4.8314.84435-1.42155.28658-10.06648.56114-10.60111.33669zm-229.026273-2.59172c-.91369-.91369-.8923-1.13504.23969-2.48033.84796-1.00775 1.09176-1.10371 2.36887-.93241 2.2717.30469 2.98192 2.08889 1.02684 2.57958-.57405.14408-1.06971.0223-1.4478-.35582-.53135-.53135-.48573-.57491.60222-.57491 1.00634 0 1.11341-.0768.73796-.52916-.61421-.74008-1.16396-.66134-2.06283.29547l-.77471.82463.73882.93926.73882.93925h-.73116c-.40214 0-1.04866-.3175-1.43672-.70556zm91.369453.29165c-3.34125-.92515-3.88056-1.14512-3.88056-1.58283 0-.25999.33877-.47271.75282-.47271.83724 0 3.55791.73896 3.83329 1.04116.097.10646.49172.19357.87711.19357.38688 0 .75398.2765.81962.61736.13411.69637-.44494.74541-2.40228.20345zm-193.773591-.88641c-.147349-.23011-.109954-1.10323.0831-1.94028.193058-.83705.354891-2.03784.359632-2.66843.0047-.63059.167376-1.14653.361403-1.14653.194028 0 .352778.46556.352778 1.03456 0 1.21629.286163 1.34261 4.35017 1.92022 1.553528.22081 2.883856.57925 2.956289.79655.20793.62378-.644628.77312-2.54839.44638-.967701-.16609-2.481061-.40304-3.363016-.52655l-1.603562-.22457-.340251 1.36351c-.208816.83681-.443738 1.2019-.608153.94514zm164.140248-.19918c0-.74426.64784-.93428 4.08632-1.19858 2.61466-.20098 2.96924-.15882 2.96924.35298 0 .31966-.19844.60606-.44097.63643-.24254.0304-.83785.0967-1.32292.14744-.48507.0507-1.87413.20725-3.08681.34782-1.85829.21541-2.20486.17045-2.20486-.28609zm10.01487-.76875c-.12334-.32142-.16495-.6418-.0925-.71195.0725-.0702 1.3204-.18151 2.77315-.24746 2.28859-.1039 2.6572-.0377 2.75989.49554.10067.52273-.1644.61618-1.75942.62027-1.03287.003-2.23321.10004-2.66742.21641-.54666.14652-.85843.0319-1.01372-.37281zm8.32958-.2012c0-.76908.57926-.86444 2.910413-.47912.77808.12861 1.32292.41759 1.32292.70167 0 .35516-.56027.48301-2.11667.48301-1.881483 0-2.116663-.0784-2.116663-.70556zm-83.89702-1.24163c-.97659-.42418-1.15201-.66991-1.05833-1.48248.15729-1.36439 1.2585-1.5263 1.40975-.20727.0817.71234.30908.99111.80846.99111.53559 0 .7079-.26039.75195-1.13634.0478-.95004-.143-1.25443-1.16365-1.85664-.67145-.39616-1.15857-.90702-1.0825-1.13525.26416-.79247 1.927-1.74538 3.38757-1.94128 1.87422-.25139 1.98029.43263.14585.94054-2.67352.74023-2.91871 1.77758-.42015 1.77758 1.50951 0 1.635.17614.8575 1.20357-.28644.3785-.42233 1.02513-.30972 1.47378.15908.63383-.0215.91426-.87202 1.35407-1.26047.65181-1.00142.64985-2.45471.0186zm-91.433542-3.03394c-.679098-.15448-2.465035-.5416-3.968751-.86028-1.831925-.38823-2.734027-.74233-2.734027-1.07317 0-.62567.501801-.61589 2.404685.0469 1.792739.62441 2.234671.44958 2.102428-.83173-.09394-.91016-.03482-.94364 1.666498-.94364 1.561673 0 1.776836-.0912 1.876827-.79532.07463-.52557-.104849-.86336-.529167-.99589-2.163642-.67583-2.93516-1.22352-2.93516-2.08363 0-.69106.179701-.88766.811389-.88766.806517 0 1.658055.58323 1.658055 1.13561 0 .15892-.396875.18934-.881944.0676-.536473-.13464-.881945-.0708-.881945.16295 0 .53286 1.867864.96776 2.032692.47328.07126-.21377.353737-.30265.627733-.19751.305784.11734.659451-.1628.915779-.72537.229683-.5041.550873-.91655.713758-.91655.477858 0 .339855 1.5445-.207878 2.3265-.277216.39579-.555029 1.34392-.617361 2.10697-.119281 1.4602-.283147 1.53326-2.582778 1.15167-.546012-.0906-.705556.0791-.705556.7504 0 .70035.2272.91395 1.179213 1.10866 1.246459.25493 2.081061.83498 1.585553 1.10196-.162426.0875-.850946.0327-1.530043-.12173zm336.550015-1.07769c0-.26025.37419-1.18629.83153-2.05788.45737-.87158.93662-2.02125 1.06507-2.55483.20782-.86338.13571-.97014-.65514-.97014-.64449 0-.88869-.18815-.88869-.68473 0-.37661.15875-.78285.35278-.90277.19403-.11991.35278.0295.35278.33196 0 .30249.14464.54999.32142.54999.39133 0 2.14802-2.0417 2.14802-2.49651 0-.17915.23813-.32571.52917-.32571s.52917.15128.52917.33618c0 .4988-.78634 2.13313-1.02676 2.13406-.11437.00036-.22356.45056-.24261 1.00025-.0652 1.88238-3.31674 7.4116-3.31674 5.64013zm11.83798-.61169c-.12266-.19846.11945-1.03211.53799-1.85254l.76101-1.4917-.79696-.64534c-.72496-.58705-.87104-.5968-1.6172-.1079-1.2893.84478-3.39895.69213-4.3445-.31435l-.8002-.85179.72559-.38831c.40919-.21901.64255-.60468.53517-.88454-.50878-1.32583 2.12382-3.221079 3.2156-2.31498.88706.73621.59902 1.64857-.93504 2.96168-1.19157 1.01995-1.35459 1.29497-.8763 1.47851.81778.31381 3.91834-1.88873 4.37981-3.11127.38717-1.0258 1.13538-1.33565 1.13538-.4702 0 .27841-.14478.88697-.3217 1.35236-.18729.49254-.19149 1.055-.01 1.34588.44207.70878 1.38931.0595 2.27203-1.55741.38806-.71079.904-1.29278 1.14653-1.2933.54956-.001.54868.02-.0529 1.26776-.27163.56339-.91355 1.97684-1.42645 3.14101-.51291 1.16416-1.12942 2.51354-1.36998 2.99861-.45455.91647-1.7695 1.3661-2.1578.73782zm-2.66576-7.48379c0-.62556-.0871-.6765-.52917-.30959-.29104.24154-.52917.57848-.52917.74875s.23813.30958.52917.30958c.30417 0 .52917-.31837.52917-.74874zm-240.241673 6.25737c0-.50525-.3478-1.06925-.87061-1.41181-.51364-.33655-.79041-.77942-.67502-1.08013.11415-.29746-.33124-1.03652-1.06967-1.77494-.69589-.6959-1.26526-1.41647-1.26526-1.60128 0-.1848.64141-.76047 1.42536-1.27927 1.03078-.68214 1.31849-1.04974 1.0393-1.327919-.27892-.2779-.9699-.0617-2.48966.778999-1.15698.64001-2.26225 1.06561-2.45616.94576-.57388-.35468-.13437-.7158 2.26763-1.863169 1.91126-.91295 2.24463-1.20283 2.08506-1.813-.13621-.52089-.0219-.72631.40415-.72631.4532 0 .53623.18824.35011.79375l-.24398.79375.83757-.73421c1.41788-1.24291 3.44153-2.26477 3.68973-1.86317.30598.49508-.35993 1.10802-1.69758 1.56257-1.45886.49575-1.99337 1.33996-1.42482 2.25036.38371.614409.27863.773999-.97271 1.477289-2.20579 1.23973-1.51293 1.98641.75498.81363.58547-.30276 1.33165-.48569 1.65817-.40652.37423.0908-.1812.49927-1.50253 1.10515-1.57881.72395-1.97065 1.04064-1.5875 1.28306 1.1332.71699 2.31696.44997 6.54458-1.47623 1.63636-.74557 1.90163-.79364 1.90163-.34463 0 .34164-4.20311 2.46387-5.64444 2.84998-.5541.14844-.88195.4891-.88195.91644 0 .99848 1.63108.81984 4.6625-.51066 2.62337-1.1514 3.275-1.30917 3.275-.79289 0 .17013-.83343.65982-1.85208 1.08819-3.48565 1.46582-4.90763 2.22093-5.09326 2.70465-.31153.81185-1.16854.54971-1.16854-.35744zm-18.11938-.86872c-.34081-.37659-.5239-1.0096-.43367-1.49931.0859-.46614.16797-.9666.18239-1.11212.0144-.14552.18496-.26459.37899-.26459s.35278.47625.35278 1.05834c0 .81071.15946 1.05833.68153 1.05833.73548 0 1.60699-1.06778 2.80735-3.43958.66576-1.31549.904-1.49931 1.94315-1.49931 1.4189 0 2.06786.67146 1.9136 1.97994-.15865 1.34564-.85845 1.43999-1.11635.15051-.40919-2.04595-1.45763-1.33107-3.08048 2.10045-.8842 1.86963-1.12209 2.1191-2.02081 2.1191-.56025 0-1.28407-.29329-1.60848-.65176zm268.010303.0879c-1.44061-.71056-1.72449-2.03116-.72676-3.38067.79795-1.0793 1.51698-1.34212 1.16544-.42599-.17886.46608-.0428.52862.756.34739l.97412-.22103-.82066.70108c-1.24485 1.06348-.76063 1.99984 1.18505 2.29161 1.71019.25646 2.04099.69171.78214 1.02907-1.2561.33662-2.12129.24751-3.31533-.34146zm-258.704273-.58272c.003-.24253.39945-.81407.88022-1.27009l.87413-.82913.30814.82913c.44154 1.18804.12119 1.71107-1.048 1.71107-.58454 0-1.01799-.18841-1.01449-.44098zm236.220723-1.5875c.29234-1.22305.7893-2.20455 1.11685-2.20589.13868-.00071.26409-.5562.27863-1.23473.0145-.67852-.0779-1.23368-.20553-1.23368-.1276 0-.74231.635-1.36603 1.41111-1.356 1.68741-1.87155 1.76306-2.40386.35278-.21971-.58209-.55481-1.05834-.74464-1.05834-.37829 0-.93663 1.66116-.80994 2.40963.0985.5819-.91529 2.17648-1.38378 2.17648-.18954 0-.34484-.27781-.34508-.61736 0-.78697 1.36013-6.711589 1.78255-7.761109.44104-1.09588 1.33611-.9964 1.587.17639.11413.53358.35529 1.3348.53587 1.78049.18059.44569.32837 1.120379.32837 1.499299 0 .37893.0953.68896.21174.68896.11645 0 1.15125-1.01413 2.29958-2.253619 1.89498-2.04543 3.4859-3.10102 3.4859-2.31292 0 .16846-.55562 1.47686-1.23472 2.907559-.6791 1.43071-1.23472 2.80741-1.23472 3.05934s-.18387 1.07179-.40863 1.82191c-.28409.94824-.60864 1.36384-1.06503 1.36384-.53718 0-.61429-.17629-.42453-.97014zm24.21346-2.71191c-.85996-.47566-.7077-.90406.32131-.90406.41155 0 .64675.25657.64675.70556 0 .38805-.0397.68999-.0882.67096-.0485-.019-.44443-.23163-.87987-.47246zm-19.70987-1.31931c.27171-1.358539.46863-1.590699.94513-1.1142.24987.24986.23029.65678-.0625 1.29939-.59259 1.30059-1.15616 1.18235-.88265-.18519zm-111.41293-.55489c.4772-2.160809 1.64077-5.379859 1.94462-5.379859.17821 0 .32402.69553.32402 1.54562v1.54562l1.67569.40598c2.5006.60583 3.61597 1.11814 3.61597 1.660859 0 .6629-.71914.61178-3.08339-.21919-2.7595-.969879-3.2411-.921289-3.49591.35278-.11642.58208-.43297 1.05833-.70346 1.05833-.35325 0-.43144-.27329-.27754-.97014zm114.29047-3.382379c-1.03484-1.76581-1.08084-1.99748-.39645-1.99748.27524 0 .84381.55563 1.26351 1.23472.89986 1.45604 1.38518 1.52663 2.70287.39319.751-.64597.88858-.95341.59204-1.32292-1.01047-1.25907-.88629-1.98418.57076-3.33227.78429-.72566 1.42599-1.44871 1.42599-1.60676 0-.38708-1.78929.31434-2.54384.99721-.35677.32287-.86064.44926-1.22837.30815-.53111-.20381-.41547-.41725.78062-1.44066l1.40409-1.20139-1.07597-.0132c-.59178-.007-1.25049.16127-1.46378.37458-.42869.42869-1.98628.0858-1.70173-.37464.0982-.15883-.21703-.54794-.70044-.86468-1.16992-.76655-1.10913-1.71428.17942-2.79854.58209-.48979 1.05834-1.05953 1.05834-1.26608 0-.60049-1.15789-.41997-2.11667.33-.93811.7338-1.76389.91416-1.76389.38525 0-.17616.46143-.61273 1.02539-.97014.56395-.35741 2.54878-1.80077 4.41067-3.20747 3.17719-2.40039 4.69078-3.13598 4.35543-2.11667-.0798.24254-1.36447 1.3-2.85482 2.34992-2.47177 1.74128-2.66301 1.96062-2.17738 2.49722.78641.86901.66499 1.27878-.70234 2.36977-1.95235 1.55777-1.52478 1.82478 1.5875.99136l.88194-.23617-.79375.70071c-.43656.38539-.79375.79432-.79375.90874s.88008.20804 1.95573.20804c1.63908 0 1.93897.0962 1.85208.59392-.0666.3819.20186.66872.75216.80348 1.36204.33353 1.23321.8874-.57545 2.47378-.93031.81596-1.37396 1.32655-.98591 1.13463 1.68621-.83395 5.11528-.28981 5.11528.81171 0 .24214-.9803.8654-2.17847 1.38503-1.19818.51963-2.87299 1.41351-3.72184 1.98639-2.19453 1.48105-3.04338 1.38082-4.13897-.48869zm7.24613-2.54167c1.25416-.64856 1.08941-1.19648-.28522-.94866-1.06772.1925-1.86052.69671-1.86052 1.18327 0 .47562.97938.36853 2.14574-.23461zm-249.795753 1.26216c0-.1872.3175-.51029.70556-.71797s.70556-.59701.70556-.86518.72778-.76552 1.61728-1.10522c1.67138-.63831 1.78251-.92831 1.03617-2.7039-.37466-.89135.74598-.8108 1.2271.0882.46063.8607.9725.89259 1.83264.11417.51904-.46973.74248-.50153 1.08611-.15457.34245.34575.19077.63495-.72756 1.38721-1.07563.88111-1.12145 1.00167-.62858 1.65387.67676.89555.68696 1.23265.0373 1.23265-.28421 0-.68667-.3175-.89435-.70555-.55554-1.03803-1.37781-.86492-3.35139.70555-1.72994 1.3766-2.64584 1.74726-2.64584 1.07075zm-94.178841-.52613c-.649235-.78228-.120629-1.25017 1.412385-1.25017 1.194551 0 1.414914-.12487 1.612981-.91404.166211-.66224.03295-1.1105-.483743-1.6272l-.713155-.71315-2.356365.9427c-2.795534 1.11839-3.926293 1.06235-4.89633-.24267l-.718682-.96686 1.013241-2.11995c.557283-1.16597 1.135331-2.11994 1.284556-2.11994.488131 0 2.068399.81284 2.068399 1.06392 0 .13482-.513923.39251-1.142051.57266-1.313345.37666-2.218411 1.77182-1.61841 2.49478.547642.65987 2.117725.55874 4.22577-.27217 2.256352-.88937 3.224315-.68964 3.931775.81129.712809 1.51228.407194 2.89342-.879905 3.97644-1.180864.99363-2.115129 1.11785-2.740466.36436zm228.939964-.72101c-.96065-.70874-1.05881-.88194-.49981-.88194.79144 0 2.2637.93077 2.2637 1.43111 0 .5413-.49454.38734-1.76389-.54917zm-136.348353-.88112c-.12303-.38761-.60998-.80169-1.08211-.92019-1.08784-.27303-1.10547-1.19501-.042-2.19414.91699-.86146 2.75447-1.02322 3.47985-.30633.25639.25339.77216.57672 1.14616.71852.6065.22994.62241.31539.14719.79061-.29305.29304-.99592.5723-1.56194.62058-.88092.0751-1.01957.22517-.96272 1.04174.0787 1.12995-.78425 1.32119-1.12448.24921zm1.58377-1.93692c.35198-.42412.33035-.56542-.11259-.73539-.86977-.33376-1.80564-.0207-1.93423.64707-.15102.78418 1.41329.85168 2.04682.0883zm.18341 2.28312c.12187-.19719.36936-.2672.54999-.15556.48931.30241.39807.5141-.22159.5141-.30249 0-.45027-.16134-.3284-.35854zm130.193113-1.3677c-.95823-.33728-1.80489-.80122-1.88148-1.031-.19388-.58163.46014-.52118 1.78743.16519.62002.32062 1.51188.59843 1.98191.61736.47003.0189.92058.23285 1.00124.47538.19742.59365-.77469.51729-2.8891-.22693zm3.68543-1.07746c-.28942-.18807-.90543-.24677-1.36891-.13045-.62183.15607-.80038.0829-.68128-.27926.20817-.63297 1.81126-.81844 3.12269-.36128 1.35452.4722 1.78747-.18244.67543-1.02126-.74419-.56134-.76897-.66967-.2678-1.17084s.61092-.48745 1.18625.14827c.34869.3853.63477 1.21177.63574 1.83661.002 1.07195-.0766 1.14127-1.38705 1.22812-.76386.0506-1.62564-.0618-1.91507-.24991zm-140.599383-1.45311c-.12789-.20693-.14783-.46095-.0443-.56449.2527-.2527.94074.19256.94074.60878 0 .45084-.60904.42075-.89645-.0443zm-84.165538-3.69937c-1.62584-1.65951-3.008987-3.16764-3.073661-3.35139-.238556-.67777.814796-.30514 1.797942.63604.682389.65325 1.437693.9917 2.31236 1.03615 2.420468.12302 3.944789.52566 3.944789 1.04199 0 .81558-1.100843.99716-2.20467.36365-.565129-.32434-1.173392-.58971-1.351697-.58971-.73691 0-.242397 1.09352.910523 2.01344 1.155242.92176 1.624905 1.86712.927608 1.86712-.168917 0-1.637354-1.35778-3.263194-3.01729zm84.709208 2.5396c0-.11021.34838-.52494.77417-.92163 1.10354-1.02811.43835-1.48311-1.28983-.88227-.76868.26725-1.46247.42104-1.54176.34176-.0793-.0793.4159-.67234 1.10039-1.3179 1.25375-1.18243 2.01537-1.34004 2.01537-.41704 0 .27487.29806.49977.66236.49977.36429 0 .84861.22442 1.07626.49872.32742.39452.24884.6525-.37611 1.23472-.4345.4048-.90583.736-1.0474.736-.14158 0-.50852.0964-.81543.21413-.30691.11778-.55802.12396-.55802.0137zm143.580563-.12792c0-.17139.14678-.46243.32617-.64675.18749-.19265.20704-.97583.046-1.84205-.32151-1.72916.13124-2.32139.74495-.97444.47782 1.0487.0407 3.39577-.67613 3.63048-.24253.0794-.44097.004-.44097-.16724zm-4.34767-1.30018c-.37593-.97965 1.1106-1.3122 1.85519-.41502.34146.41143.2859.46735-.30958.31163-.41246-.10786-.72572-.0198-.72572.20414 0 .56117-.59389.48819-.81989-.10075zm-144.379693-2.50393c-.13851-.5519-.4710799-.88195-.8886599-.88195-.71361 0-.9503-1.19458-.31454-1.5875.19403-.11992.35278-.46864.35278-.77495 0-.46967-.31403-.52-2.00458-.32131-1.93785.22775-1.98483.21376-1.41111-.42018.94756-1.04705.71148-1.30403-1.22436-1.33269-1.556-.023-1.94374-.17522-2.69645-1.05833-.48351-.56729-1.37216996-1.20267-1.97477996-1.41197-.60262-.2093-1.30027004-.79941-1.55035004-1.31136-.37296-.76353-.62893-.89596-1.42429-.73689-.65297.1306-1.23985-.0249-1.79714-.47617-.70803-.57332-.76801-.7813-.41538-1.4402.48468-.90565.84427-.96558 1.44566-.24095.80491.96986 1.4522.55614 2.34577-1.4993 1.00717004-2.31677 2.37003-3.5767 3.26096-3.01472.77087.48625.72529 2.22332-.0711 2.71168-.50468.30947-.7343.26179-1.09866996-.22811-.4139-.55649-.53664-.43649-1.20946 1.18251-.67343 1.62044-.68712 1.77558-.13605 1.54096.33702-.14348 1.2167-.4329 1.95483996-.64314 1.09555-.31204 1.40238-.28693 1.6703.1367.18051.28544.33064.6267.33361.75836.0117.51938-1.14513 1.34769-1.87189 1.34027-.75266996-.008-.75042996-.0218.10813-.68143 1.04092-.79978.71628-1.35109-.47577-.80795-.86493996.39409-1.47114996 2.12871-.93675996 2.68048.35037.36178 3.09456996-.0513 3.37704996-.50839.10948-.17715.35744-.32209.55102-.32209s.10483.35283-.19721.78406c-.30204.43122-.54917 1.16781-.54917 1.63685 0 .82001.0727.8453 1.88945.6578 1.86391-.19238 4.9903299-1.54645 7.6794299-3.32601 1.46573-.96997 2.32227-.84817 1.64636.23413-.33851.54204-.25297.90084.47973 2.01212 1.44988 2.19902 1.74683 2.8759 1.36516 3.11178-.19102.11807-.92905-.70573-1.64006-1.83067-.711-1.12493-1.3385-2.10109-1.39443-2.16924-.22293-.27162-5.4924699 2.4972-5.6793199 2.98413-.28108.7325-.12966.81412 2.3064799 1.24324 1.19166.20991 2.16664.50417 2.16664.65393s-.47098.46738-1.04663.70582c-.57566.23844-1.23009.65457-1.4543099.92474-.32912.39657-.24641.48905.4292799.47999.46031-.006 1.14509-.24429 1.52173-.52916.83682-.63295 2.53027-.68024 2.75643-.077.44784 1.19463-1.31002 2.73403-3.12204 2.73403-.59635 0-.89815-.252-1.05626-.88194zm2.70055-.1888c.72172-.38626.9435-1.3987.30639-1.3987-.64256 0-1.64791.66048-1.86451 1.22492-.2428.63274.53785.7198 1.55812.17378zm-16.8918499-11.00014c-.25314-.25314-.41745-.27397-.41745-.0529 0 .47088.41719.88808.65263.65264.10025-.10024-.006-.37012-.23518-.59972zm64.7784299 9.14314-2.98065-2.22219-.63062 1.52471c-.34685.83859-.92127 1.68025-1.27649 1.87036-1.17673.62977-1.12043-.29891.13411-2.21236.66843-1.01949 1.6414-2.76643 2.16216-3.88209.52077-1.11566 1.0847-2.02847 1.25318-2.02847.64663 0 .69193.71335.13388 2.10805-.31887.79695-.52021 1.49226-.44742 1.54513.98849.71799 3.87796 3.0335 4.60366 3.6892.8413.76015 1.01589 1.82984.29866 1.82984-.14841 0-1.61112-.99998-3.25047-2.22218zm-125.953342-.90909c-.422105-1.4365-1.367105-3.08641-3.081069-5.37937-2.500129-3.34469-2.927033-4.3941-1.941389-4.77233.809332-.31057 1.690663.67751 2.964928 3.32405 1.314757 2.73063 2.537707 4.66141 2.954732 4.6649.158595.001.187586-.31509.06442-.70315-.678335-2.13725 1.149276-2.80451 2.842049-1.03764l1.033773 1.07903.619728-.76533c.814775-1.00621.785745-1.3596-.266326-3.24196-.766897-1.37212-.816617-1.64296-.369708-2.01386 1.103718-.916 2.666873.68097 2.666873 2.72457 0 .60714.169803.80519.617361.72009.49856-.0948.651306-.60207.79375-2.63601.219873-3.1395.747208-3.81877 3.042183-3.91865 2.367111-.10302 2.926595-.35641 3.155022-1.42889.418472-1.96472.835251-2.58656 1.655512-2.47002 1.081674.15367 1.247867 1.68878.277869 2.56661-.812729.73552-.929195 1.60734-.298919 2.23762.587164.58716 1.344867.52878 2.108691-.16247.876832-.79352 1.270772-.30281.468545.58364-.946595 1.04597-2.529805.91473-3.593895-.29793-.838363-.95542-.946288-.9837-2.160683-.56621-1.528731.52555-1.73136.95827-.983323 2.09992.712199 1.08695.713712 1.5886.0048 1.5886-.323568 0-.791841-.59646-1.115861-1.42133-.307071-.78173-.730863-1.3644-.941758-1.29482-.210894.0696-.473794 1.14575-.584224 2.39147-.246363 2.7792-.727657 3.72913-2.034879 4.01624-.553741.12162-1.353566.69015-1.777383 1.2634-.42382.57325-.919053 1.04227-1.100522 1.04227s-.899241-.49986-1.595049-1.11078c-1.751246-1.53762-2.133286-1.00209-1.268141 1.77763.562278 1.80661.59854 2.23364.202568 2.38559-.265267.10179-.648659.0823-.851976-.0434-.203319-.12566-.369672.019-.369672.32151 0 1.19363-.55995.44425-1.138012-1.523zm6.308292-7.27287c-.224279-.48355-.523438-.88043-.6648-.88194-.141361-.001-.07619.39412.144819.87919.221015.48507.520175.88194.664803.88194s.07946-.39563-.144822-.87919zm10.351943-7.05831c0-.29104-.15875-.52916-.352778-.52916s-.352778.23812-.352778.52916c0 .29105.15875.52917.352778.52917s.352778-.23812.352778-.52917zm172.45196 15.35032c-.71011-.38183-1.62847-1.12314-2.04081-1.64735-.65228-.82924-.68374-1.01906-.24205-1.46074.65844-.65845 1.28091-.25839 1.28091.82324 0 1.27048 1.69976 2.15194 3.79236 1.96664.62456-.0553.55044-.74461-.0801-.74461-.28657 0-.79447-.43656-1.12867-.97013-.33421-.53358-.89349-1.25414-1.24286-1.60125-.88377-.87805-.81015-1.09507.5995-1.76729 2.14367-1.02225 1.33007-1.89337-1.0077-1.07896-1.89312.65951-2.34322.19778-.70368-.72189 2.00444-1.12436 1.80787-1.82178-.47932-1.70059-1.63582.0867-1.90293-.002-2.42904-.80476-.32511-.49618-.49581-.99744-.37934-1.11391s.0562-.5024-.13389-.85761c-.26255-.49057-.53521-.57572-1.13411-.35416-1.33413.49356-2.98409-.65095-2.14627-1.48878.12634-.12633.44394.0456.70579.38218.44521.5722.52171.55802 1.17952-.21862.95768-1.13068.62738-1.45682-1.04539-1.03222-1.68118.42672-3.18629.121-3.18629-.64721 0-.30592.27144-1.01571.60319-1.57732.67242-1.13833.45542-1.553-1.00073-1.91235-.7516-.18549-1.13281-.008-2.01752.93848-1.46531 1.56788-2.2093.9657-.93718-.75856 1.06727-1.4466 1.09924-1.76505.17724-1.76505-.95584 0-.89545-.57237.0882-.83598 1.29239-.34635 1.61588-.261 1.85396.48912.23077.72711 2.53286 2.11075 3.51184 2.11075.80028 0 .67268.36202-.58498 1.65959-.87187.89954-1.03287 1.25934-.70863 1.58358.38868.38868 2.58745.0536 4.61916-.70386.50404-.18792.44827.77492-.15703 2.7115-.26141.83631-.25157.83967 1.7309.59198 1.36903-.17105 1.9938-.12714 1.9938.14012 0 .21408-.27781.47508-.61736.58001-1.14848.35489-1.67569.74396-1.67569 1.23664 0 .35069.65436.54106 2.29305.66711 2.2505.17311 2.29332.19537 2.30699 1.19947.01.71069.24102 1.10707.75765 1.29819 1.28036.47363 1.30522 1.04115.0901 2.05561-1.34363 1.1217-1.16596 1.95837.34537 1.62643 1.2183-.26759 2.80902.3223 3.0611 1.13514.10621.34247.33048.88264.49838 1.2004.24539.46441.0154.68554-1.17228 1.1273-2.53456.9427-3.82126 1.00159-5.2381.23972zm5.34805-2.10874c0-.1872-.27782-.48594-.61736-.66387-.73683-.3861-2.35108.12948-2.03032.64848.28094.45457 2.64768.46833 2.64768.0154zm128.8058 1.27282c-.22116-.2665-.30346-.94765-.18563-1.53674.16037-.80183.0656-1.11409-.39123-1.28939-.48648-.18668-.51979-.33142-.17251-.74985.36262-.43693.53611-.4444 1.10275-.0475.51727.36231 1.0807.39027 2.44168.12117.9731-.19241 1.85808-.261 1.96666-.15243.20042.20041-.87788 1.89527-2.12474 3.33966-.7674.88894-2.035 1.04041-2.63698.31509zm2.72203-1.75237c.42365-.45096.67363-.91659.55549-1.03474-.33038-.33036-1.71934.41269-2.19492 1.17421-.3617.57921-.32868.68045.22211.68045.35588 0 .99367-.36896 1.41732-.81992zm-101.53176.78758c-1.07836-.43974-1.40872-.93665-1.41567-2.12933-.006-1.09559.73102-1.82027 1.53738-1.51084.72981.28005.72854.80023-.004 1.60962-.54051.59726-.52342.65876.26459.95203 2.50855.93362 3.34356-2.00573 1.22055-4.2965-.48049-.51845-1.12105-.94264-1.42347-.94264-.99983 0-3.75784-1.49801-4.31026-2.34111-.70074-1.06946-.37836-2.33626.74794-2.93903.71038-.38018.98272-.38494 1.41674-.0247.57653.47848.40574 1.12317-.27528 1.0391-1.08542-.13399-1.33861.0721-1.23155 1.00258.0878.76283.38509 1.0594 1.39133 1.38785 1.43202.46742 5.05589 2.69233 5.46599 3.35589.44172.71471.24936 3.84721-.26726 4.35244-.69202.67675-2.10666.89672-3.11708.48468zm-93.188413-.90205c-.50988-.55324-2.21644-2.10707-3.79236-3.45295-1.57592-1.34589-2.8653-2.5762-2.8653-2.73403 0-.7541 1.3733-.11882 3.22532 1.49201l2.04533 1.77898.22514-.89703c.25336-1.00947.94615-1.12197 2.26532-.36787.48507.27729 1.001.50979 1.14652.51666.49281.0233.26819-1.662-.28242-2.11896-.74916-.62176-.55427-2.9364.26025-3.09067.43546-.0825.76551.36686 1.2299 1.67437.72536 2.04228 1.20806 2.1165 1.67672.25778.3522-1.39686.90792-1.74973.90792-.57651 0 1.14601-1.31194 3.40549-2.09647 3.61066-.39449.10316-.87399.5998-1.06556 1.10364-.44107 1.16012-1.17731 1.16887-1.92818.0229-.32188-.49125-.73701-.79938-.92251-.68474-.58039.3587-.36917 1.6749.4002 2.49386.40561.43175.68343 1.05338.61736 1.3814-.0991.49191-.28252.42018-1.04718-.4095zm189.963853-2.60531c-1.22471-.47106-1.25942-.94368-.12845-1.74902 1.48957-1.06065 1.33985-1.46648-.43681-1.18412-1.37012.21776-1.45757.18772-1.01515-.3486.55643-.67448 3.73193-.83284 4.11967-.20545.12968.20979-.21816.86423-.77294 1.4543l-1.00866 1.07286 1.05833-.1866c.58208-.10263 1.41552-.29933 1.85208-.43711 1.01195-.31938 1.00577.19329-.0109.92122-1.01449.72623-2.69826 1.03127-3.657.66252zm-250.7141129-.92882c-.44378-.44379-.23515-1.5287.29398-1.5287.32926 0 .52917.33317.52917.88194 0 .8565-.34351 1.1264-.82315.64676zm158.1620429-2.92267c-1.26118-1.29077-2.9898-2.91093-3.84138-3.60034-.88632-.71753-1.3893-1.35174-1.17639-1.48333.20455-.12642.84484.16808 1.42285.65444 1.20362 1.01277 1.67249 1.10075 1.95418.36667.1746-.455.34856-.455 1.43753 0 1.84176.76953 2.0889.68564 1.82768-.62043-.32566-1.62833-1.38947-3.68999-3.02616-5.86472-1.74705-2.32136-1.8877-3.58055-.39994-3.58055 1.12154 0 1.0368-.12874 2.65434 4.03275.84343 2.16991 1.32515 2.92844 2.1459 3.379 1.17476.64488 2.258 2.26867 1.80828 2.71061-.15928.15653-.74708-.2611-1.30621-.92805-1.17905-1.40641-1.63544-1.25088-1.07202.36533.21646.62094.39356 1.34342.39356 1.60551 0 .76108-2.01884.57434-2.8575-.26431-.54667-.54668-.84435-.63732-1.13583-.34584-.58219.58219.36011 1.94113 2.43163 3.50679 1.6721 1.26378 2.46971 2.57562 1.49938 2.46606-.25676-.029-1.49872-1.1088-2.7599-2.39959zm-.35278-11.14716c0-.59347-1.14025-2.26655-1.42484-2.09067-.39816.24608.56651 2.28457 1.08113 2.28457.18904 0 .34371-.0873.34371-.1939zm93.34525 10.48195c-.10036-.16241-1.45912-.22139-3.01942-.13107l-2.83693.16423v-.936c0-.6738-.24705-1.02993-.88195-1.27132-1.0734-.4081-1.12963-1.27836-.15004-2.3211.63285-.67365.66968-.8787.27217-1.51523-.62628-1.00284-1.34754-1.21986-2.02522-.60938-.742.66842-2.37367 1.06569-2.63571.64172-.33232-.53773 1.0258-2.97519 2.38799-4.28578 1.45841-1.40313 2.1851-1.19386.84786.24415-1.10772 1.19114-2.21735 2.90673-1.88006 2.90673.13723 0 .67141-.33204 1.1871-.73787l.93758-.73787 1.06059 1.2264c.58332.67452 1.65488 1.47471 2.38125 1.7782 1.67354.69926 1.76364 1.40844.14023 1.10389-.85418-.16025-1.34264-.0593-1.76714.36523-1.29695 1.29693.80607 1.73503 2.38118.49604 1.07372-.84458 2.36185-.67804 1.62479.21006-.2377.28641-.96993.8531-1.62722 1.25932-1.91379 1.18279-1.51684 1.48852 1.57702 1.21465 2.29073-.20277 2.8072-.15388 2.97431.28157.30356.79111-.51481 1.35497-.94838.65343zm-100.04802-1.4686c0-.19403.14576-.35278.32392-.35278s.57504-.0964.88195-.21413c.36618-.14052.55802-.0192.55802.35278 0 .36952-.30709.56691-.88195.56691-.48507 0-.88194-.15875-.88194-.35278zm-167.750353-.71055c-.40709-.44982-.88641-.63329-1.30633-.50002-.36481.11579-.88203.029-1.14936-.19287-.26734-.22187-.77566-.35405-1.1296-.29373-.69285.11807-.79987-.84054-.27726-2.48356.21598-.679.1496-.80689-.36621-.70555-.64371.12647-.85259.40554-1.65742 2.2144-.25262.56775-.68198 1.10499-.95412 1.19387-.50203.16394-.47569-.28455.1908-3.24873.16258-.72309.11162-.94946-.17401-.77293-.80496.4975-.37916-.66616.62773-1.71548.64323-.67034 1.40695-2.20411 2.02847-4.07374.78267-2.3544 1.14014-2.99861 1.66393-2.99861 2.02101 0 1.42773 2.99504-1.20178 6.06697-.96366 1.1258-1.75353 2.16598-1.75525 2.3115-.002.14552.55249.26458 1.23159.26458 1.20532 0 1.23472.0336 1.23472 1.41112 0 1.73108.5696 1.82264 1.24738.20051.2782-.66583.67753-1.31673.88741-1.44644.74058-.4577.76755.17467.0678 1.58904-.3942.79675-.56321 1.5202-.38138 1.63257.53587.33119 1.85366-.74169 2.5896801-2.10839 1.11377-2.06815 1.65936-1.67931 1.45571 1.03745-.24324 3.24499-1.37314 4.2748-2.8724801 2.61804zm2.0641501-1.65218c.27341-1.68485.0709-1.8507-.62252-.5098-.6823101 1.31945-.7019901 1.8142-.0722 1.8142.28358 0 .57041-.53859.69469-1.3044zm-4.7621001-8.76637c.4828-1.05962.55327-2.22307.10477-1.72965-.46876.51571-1.10533 2.62819-.79198 2.62819.1528 0 .46204-.40434.68721-.89854zm89.86768 9.41167c-.56608-.12257-1.10272-.44369-1.19253-.71361-.15881-.4773.63641-.42155 2.12277.14881.29387.11277.68799-.16902.96789-.69202.59205-1.10626.1043-1.81106-1.4967-2.16269-2.71409-.59612-3.80406-2.53976-2.42767-4.32901.82295-1.06979 2.96341-1.26573 3.16331-.28957.10397.5077-.0186.60319-.55541.4328-.41549-.13187-.98762.0296-1.44183.40691-1.10243.9158-.66822 2.02209.98849 2.51845 2.79655.83787 3.95809 2.71535 2.70288 4.36889-.48213.63512-1.04752.69723-2.8312.31104zm-103.07381-1.88319c.22472-1.94054-.2208-2.43838-1.04982-1.17312-.76664 1.17004-1.56242 1.15654-1.56242-.0265 0-.65927.14511-.864.5125-.72302.69349.26612 2.30972-1.70543 2.30972-2.81751 0-.75003-.14169-.86201-.97014-.76668-.83662.0963-.98491.28873-1.07748 1.3984-.0761.91238-.30237 1.33778-.77768 1.46208-.37488.098-.77368.61932-.90477 1.18266-.77708 3.3393-3.02996 3.5116-3.36991.25773-.11568-1.10728.58107-2.395 1.11674-2.06394.15774.0975.13976.69001-.04 1.3167-.46067 1.60626-.424 1.73639.45356 1.60961.65619-.0948.95772-.68275 1.89524-3.69552.6132-1.97054 1.22371-4.3084 1.3567-5.19525s.41649-1.72042.63-1.85237c.27684-.1711.31982.49582.14982 2.32495-.21041 2.26389-.17218 2.53946.32583 2.34836.31031-.11909.78935-.21652 1.06452-.21652s.50032-.3175.50032-.70555c0-.38806.19843-.70799.44097-.71096.32078-.004.30905-.089-.0431-.31201-.40624-.25733-.4097-.59662-.0215-2.11126.43185-1.68496 1.0587-2.26925 1.5616-1.45555.11867.19202.0355 1.26358-.18476 2.38125-.62302 3.16101-.63171 3.10371.4516 2.97703 1.06644-.1247 1.3443.54913.35278.85552-1.26913.39218-1.63048.74352-2.06981 2.01249-.46506 1.34329-.20036 1.70205.57051.77321.67959-.81886 1.04765-.64128 1.64515.79375.30295.7276.73008 1.43537.94918 1.57281.29391.18437.28973.35854-.0159.6642-.60531.60531-1.51922.11715-1.52547-.81483-.003-.44265-.14963-1.03273-.32589-1.3113-.47562-.75164-1.4326.15964-1.4326 1.3642 0 .52124-.24926 1.25586-.5539 1.63249-.51749.63976-.54127.57561-.36164-.97555zm106.95154-2.4848c-.50856-2.18281-1.01884-4.32594-1.13397-4.7625-.15024-.56968-.0562-.79375.33296-.79375.32617 0 .64027.4569.78818 1.14653.33004 1.53878.5462 1.84352.90255 1.27239.45176-.72405 1.46532.0599 1.81321 1.40249.15927.61462.4041 1.11243.54407 1.10626.43991-.0194 1.31021-.83005 2.10004-1.95613.6679-.95225.76261-1.56984.77204-5.03392.006-2.17167.17901-4.26292.38468-4.64722.45409-.84847 1.34757-.9125 1.65229-.1184.25226.65736-.32409 5.59497-.77228 6.61622-.26142.59567-.18355.64241.70056.42052 1.20698-.30294 1.57784.15914 1.58538 1.9753.003.71616.1711 1.40451.37363 1.52968.70182.43375 1.33686-.57011 1.33686-2.11328 0-1.73025.54551-3.01155 1.28216-3.01155.70559 0 .97509 1.15403.69917 2.994-.15153 1.01044-.10619 1.59211.1241 1.59211.41576 0 3.24503-3.1191 3.24503-3.57744 0-.59341.94804-.2896 1.74563.55939.44565.47438 1.27176 1.02338 1.835803 1.22.9884.34456 1.05398.29754 1.8121-1.29927.8005-1.68608 1.852-2.31281 2.4081-1.43531.53556.84508.33702 1.37092-.96952 2.56787-1.61825 1.48251-1.34802 2.12182.76305 1.80525 1.73637-.26039 2.33301.21534 1.02024.81348-1.5798.71981-4.02929.43279-4.02929-.47213 0-.60105-.68385-1.13274-1.825443-1.41926-.79241-.19889-.95786-.11097-1.05637.56136-.2168 1.4797-.99874 1.20343-.99874-.35287 0-1.76001-.49528-1.83723-1.44624-.22548-.48715.82566-1.13338 1.33905-2.01657 1.60205-.71483.21286-1.8832.56074-2.59638.77306-1.69097.50341-2.40615.20066-2.41288-1.02143-.008-1.46758-.53427-2.13064-1.30747-1.64756-.50998.31863-.6043.77199-.50394 2.42241.0964 1.58608.0193 1.99562-.35278 1.87139-.30164-.10072-.43416-.56848-.36146-1.27587.0631-.61428.0171-1.11686-.10235-1.11686-.11942 0-.82611.65952-1.57043 1.46561-1.52706 1.6538-2.49539 1.67111-2.50435.0448-.008-1.46344-.46852-2.03816-1.061-1.32427-.38638.46557-.39702.94962-.0571 2.59558.50068 2.42401.5252 3.21553.0996 3.21553-.17506 0-.73438-1.78594-1.24293-3.96875zm12.85011-4.89233c0-.38806-.15875-.60745-.35278-.48753s-.35278.53553-.35278.92359c0 .38805.15875.60744.35278.48752.19403-.11991.35278-.53553.35278-.92358zm10.774233-.68739c.37968-.61434-.0528-.74444-.5366-.16144-.27825.33527-.30502.53769-.0711.53769.20633 0 .47979-.16931.60769-.37625zm-16.090703-5.20082c.014-.45793-.12966-.71911-.32798-.59654-.19403.11991-.34162.80397-.32798 1.52012.02 1.0494.0836 1.16517.32798.59655.16676-.38806.31435-1.07212.32798-1.52013zm-128.580705 13.17312c-.600512-1.43723-.647079-2.17874-.155896-2.48231.366903-.22676.494058.0222.856711 1.67723.11692.53358.45108.97014.74258.97014.29151 0 .70232-.43656.91291-.97014.64818-1.64227.8245-1.91071 1.17645-1.79113.18687.0635.29562.53626.24167 1.05059-.12603 1.20148.61198 1.6805 1.22395.79444 1.36883-1.98189 1.87337-1.96122 1.03618.0424-.52455 1.25543-.61591 1.31044-1.89234 1.13923-.84326-.1131-1.58815.00071-2.00638.30651-1.04779.76616-1.58526.58071-2.135835-.737zm166.352728-.0113c0-.29398.31358-.52916.70556-.52916.39197 0 .70555.23518.70555.52916s-.31358.52917-.70555.52917c-.39198 0-.70556-.23519-.70556-.52917zm42.89847-2.17786c-.73843-.79637-.96026-.872-1.42538-.48597-.68893.57175-.71836.0281-.0479-.88471.48889-.66563.53378-.65535 1.6042.36735.91852.87757 1.15609.96537 1.43191.52916.5305-.83898.40106-1.50623-.56917-2.93406-.50086-.73708-.81828-1.58088-.70537-1.87511.29664-.77306 1.10174-.35728 1.00523.51914-.0571.51805.0713.68259.4262.54639.33529-.12866.58577.11569.73723.71915.12617.50271.3511.91402.49984.91402.34288 0 .71141-1.8138.71141-3.50132 0-1.74456.49641-2.15829 2.294-1.9119l1.47622.20233-.16331-1.11263c-.17218-1.17319.65616-2.49592 1.56305-2.49592.65652 0 .61076 1.91717-.059 2.47305-.4058.33679-.43769.55825-.1332.92514.87932 1.05952 1.57625.49297 3.09533-2.51625 1.36681-2.7076 2.1575-3.66547 2.1575-2.61367 0 .7558-3.28852 6.73632-3.81526 6.93845-.2953.11332-.97747-.0468-1.51593-.35586-.53846-.30903-1.30548-.47651-1.70448-.37217-.76092.19899-.97498.96989-.37267 1.34214.42108.26024.47765 1.94028.0653 1.94028-.15809 0-.5524-.55563-.87623-1.23472-.97747-2.04977-1.75623-1.40518-1.41109 1.16797.16182 1.20653.0551 1.55953-.67964 2.2483-.47938.44938-1.06009 1.17425-1.29046 1.61081-.55212 1.0463-1.23052 1.00221-2.29834-.14939zm8.75404-9.5143c.12234-.31881.14988-.65221.0612-.74088-.28036-.28036-.91372.28262-.91372.8122 0 .69198.57817.64361.85251-.0713zm59.4725 9.95708c0-.2752.72679-1.34676 1.61512-2.38125s1.77945-2.18193 1.98032-2.54987c.32452-.59449.27234-.63913-.4686-.40092-.45857.14743-1.4291.34608-2.1567.44145-1.27565.1672-1.32292.13522-1.32292-.89493 0-.63933.3731-1.51173.92914-2.17255.73544-.87402 1.15835-1.08192 2.02848-.99721.96252.0937 1.09932.23875 1.09932 1.16536 0 1.09464.3579 1.57277 1.18428 1.5821.27061.003.39476-.21341.28557-.49794-.21586-.56251 2.04146-3.29343 3.6963-4.47176.75876-.54029 1.17031-.64761 1.44191-.376s.0803.66158-.67038 1.36629c-.57778.54241-1.57731 1.58843-2.2212 2.32448l-1.17069 1.33828.75558.70393c1.56436 1.45743.58159 2.35556-1.11623 1.02007l-.90861-.71472-.55273 1.1648c-.62901 1.32548-3.61051 4.85075-4.10253 4.85075-.179 0-.32543-.22516-.32543-.50036zm2.24275-6.62647c.20796-.33024.26564-.71291.1282-.85038-.27923-.27921-1.6654.8486-1.6654 1.35498 0 .52044 1.12409.15145 1.5372-.5046zm-250.245543 2.57012c0-.81387.65544-1.10889 1.49931-.67488 1.0198001.52451.7500201 1.35103-.44097 1.35103-.80782 0-1.05834-.16005-1.05834-.67615zm243.769453-3.49316c0-.40037.15875-.82605.35278-.94596.19403-.11992.35278-.47139.35278-.78106 0-.50754-.0608-.5096-.61736-.0209-.8675.76176-2.09961 1.08128-2.38554.61863-.13203-.21364-.0431-.86392.19763-1.44509.55265-1.33423-.0117-2.15405-.9968-1.4479-1.93962 1.39045-3.47693 1.43916-1.71648.0544 1.29061-1.01519.8319-1.507-.76213-.81714-2.39438 1.03625-2.47421 1.02663-2.43679-.29368.0369-1.30176 1.22592-2.53104 2.25311-2.32941.47087.0924.40156.3138-.39406 1.25868-1.13044 1.34251-1.01307 1.39714.90233.41998 1.57649-.80426 2.95748-.79446 2.95748.021 0 .29104.3175.61588.70555.72187.55327.15111.68078.43665.59078 1.32292-.0631.62161-.0128 1.13021.11192 1.13021.43384 0 2.9888-2.29573 2.99512-2.69123.004-.219-.4699-.59544-1.05198-.83655-1.08091-.44773-1.4617-1.41111-.55776-1.41111.27532 0 1.00935.27781 1.63119.61736.66319.36213 1.18604.47152 1.26471.26458.0738-.19403.46154-.88991.86173-1.5464.52744-.86526.83393-1.08729 1.11414-.80709s.10993.78568-.61891 1.8374c-1.09182 1.57549-1.11154 1.52371 1.01974 2.67569 1.43884.7777.68647 1.44904-.77622.69264-.59475-.30755-1.28768-.5534-1.53984-.54633-.66788.0187-2.39878 2.43759-2.39878 3.35215 0 .43007-.23813.97957-.52917 1.22111-.44129.36624-.52917.31829-.52917-.28876zm-267.405563-1.13342c0-.80693.92691-1.3198 1.44639-.80032.50655.50655-.012 1.51694-.77858 1.51694-.43606 0-.66781-.24868-.66781-.71662zm249.413903-1.49215c0-1.00527 5.64378-11.90234 6.16442-11.90234.81568 0 .65093.85632-.51998 2.70265-1.28516 2.02649-1.30171 2.23624-.17639 2.23624.57519 0 .88195.19736.88195.56741 0 .41904-.21627.51313-.82708.35983-.8954-.22473-1.85007.57853-2.74324 2.30817-1.65995 3.21448-2.23172 4.17292-2.48944 4.17292-.15963 0-.29024-.20019-.29024-.44488zm-27.61473-2.46553c-.3328-.25058-.62274-1.03026-.67152-1.8058-.10289-1.63606 1.01912-2.82001 2.35476-2.48479.44401.11144.91335.031 1.04298-.17874.12964-.20975.67083-.38137 1.20266-.38137s1.14678-.17983 1.36658-.39962c.70384-.70384 1.45501-.0583 1.5711 1.35007.0845 1.02564.25013 1.31958.70142 1.24506 1.01368-.16739 1.08392.60212.096 1.05223-.81394.37085-1.00649.33825-1.43101-.24232-.26978-.36895-.49052-1.03736-.49052-1.48534 0-.44799-.127-.81452-.28222-.81452-.67326 0-1.058.86905-.87741 1.9819.12437.76639.0509 1.1931-.20532 1.1931-.21941 0-.39894-.38389-.39894-.85309 0-1.08008-.33559-1.96913-.7433-1.96913-.17326 0-.31503.3175-.31503.70555 0 .83748-.89026.94684-1.19716.14705-.278-.72444-.95387-.48887-1.30268.45403-.17624.47645-.0937.97391.23113 1.39294.48689.62808.52982.62291 1.17897-.14193.82503-.97209 1.08974-.99964 1.08974-.1134 0 1.46352-1.7153 2.25536-2.92028 1.34812zm33.17098-.16449c-1.09803-.16633-1.27506-.97322-.45219-2.06114.50498-.66766.51822-.66493.52916.10896.0152 1.07822.43367.9972 1.36655-.26458.50208-.6791 1.09471-1.05834 1.65384-1.05834.78014 0 .87139.14646.87139 1.3987 0 1.96097-.82759 2.35225-3.96875 1.8764zm3.0868-1.48181c0-.81992-.80376-.83465-1.2383-.0227-.36374.67965-.32205.7435.41708.6388.45167-.064.82122-.34123.82122-.6161zm-14.27088-.71722c-.28191-.17833-.95452-.23585-1.4947-.12781-.80375.16075-1.03865.0444-1.29318-.6405-.17107-.46031-.24169-1.0193-.15695-1.24221.36037-.94788-.61816-.75844-1.12277.21736-.59574 1.15204-.88401 1.28544-1.48309.68636-.27617-.27617-.44986-.27617-.62054 0-.35703.57768-1.88121.46037-2.23512-.17204-.31417-.56139.27824-4.51273 1.01418-6.76459.40597-1.24218 1.02555-1.54421 1.02555-.49992 0 .46144.22729.62139.79375.55856.43656-.0484.91281-.10126 1.05833-.11743.14553-.0162.26702-.46596.26999-.99954.007-1.28878.49891-2.00479 1.19372-1.73817.34718.13322.56477.63164.56477 1.29369 0 .80937.22141 1.17785.89108 1.48297 1.10273.50244.95506 1.12931-.30106 1.27801-1.42996.16928-1.75317 1.12109-.92938 2.73691.38067.74667.69213 1.73253.69213 2.1908 0 1.32431 1.09304.81176 1.63983-.76894.62423-1.80457 1.09489-2.33013 2.08672-2.33013 1.30806 0 1.36047.63693.20531 2.49519l-1.08049 1.73814h1.39654c1.41339 0 1.86186.45151.83852.8442-.81947.31446-2.36495.25119-2.95314-.12091zm-6.25836-2.41189c.31371-.34665.80203-1.18468 1.08516-1.86229.47043-1.12591.45804-1.3071-.14389-2.10376-.75066-.9935-1.10012-.78201-1.70694 1.03299-.46968 1.40482-.53197 3.56333-.10282 3.56333.16396 0 .55478-.28362.86849-.63027zm7.5823-.49862c.51005-.51006.55018-.98778.083-.98778-.1872 0-.51028.3175-.71796.70556-.41586.77703-.0309.94812.635.28222zm-4.16278-5.92667c0-.38805-.15875-.70555-.35278-.70555s-.35278.3175-.35278.70555c0 .38806.15875.70556.35278.70556s.35278-.3175.35278-.70556zm-113.414253 7.06402c-.471-1.0445-.58455-1.92277-.44468-3.43959.17669-1.91612 1.16369-4.32281 1.77486-4.32775.6551-.005.61747 1.13112-.0745 2.25081-.92363 1.49445-1.00686 3.14154-.24933 4.93379.70126 1.6591.71798 1.98539.10178 1.98539-.26157 0-.76021-.63119-1.1081-1.40265zm4.99388.81469c-.41692-.41692-.25058-1.42954.31144-1.89598.75507-.62665 1.92282-3.28416 1.92282-4.37587 0-1.40341-1.17003-1.17605-1.71586.33342-.52348 1.44765-1.10637 1.62129-1.10637.32959 0-1.15081.53482-2.15366 1.39364-2.61329.9116-.48788 1.70521-.12159 2.322383 1.0719.5838 1.12894.39027 1.8969-1.054933 4.18625-.49346.78169-.8972 1.52443-.8972 1.65053s.70812.14946 1.573613.0519c1.81545-.20463 2.06374-.0727 1.57657.83755-.27636.51638-.75767.65917-2.221853.65917-1.02799 0-1.9749-.10583-2.10425-.23518zm7.729533-.0735c-.10494-.1698.0633-1.05455.37393-1.96611.71963-2.11201.46212-3.70385-.89847-5.55397-1.26668-1.72241-1.09887-2.3544.35102-1.32198 1.46438 1.04273 2.08658 2.45462 2.08658 4.73488 0 2.80567-1.16785 5.31295-1.91306 4.10718zm105.98251-12.61421c0-.12262.33817-.77013.7515-1.43891.89076-1.44127 1.00473-3.27906.33011-5.32316-.57749-1.74983-.23834-2.34937.65732-1.16196.9398 1.24592 1.50305 4.04294 1.05368 5.23243-.56021 1.4829-2.79261 3.63455-2.79261 2.6916zm-5.21878-.5336c.0861-.263.62082-.63693 1.18833-.83096s1.23027-.48121 1.47281-.63818c.61419-.39751.55257-1.88934-.0882-2.13522-.29104-.11169-.52916-.44119-.52916-.73223 0-.32453.20385-.45094.52714-.32689.28992.11126.4393.3444.33195.5181s-.0307.31581.17029.31581c.61751 0 1.51229 1.6861 1.28119 2.41423-.22736.71636-1.31729 1.26021-3.32251 1.65787-.91417.18129-1.15223.12533-1.03184-.24253zm-4.33064-1.24797c-.56116-1.47594-.27709-4.84401.41973-4.9765.42912-.0816.53202.0989.41258.72372-.0875.45783.0743 1.72648.3597 2.81923.28536 1.09275.43043 2.07522.32238 2.18327-.47356.47356-1.1828.12245-1.51439-.74972zm4.39988-4.48393c-.33468-.87217.22903-1.71952 1.42803-2.14659.7957-.28341 1.05594-.22434 1.46276.33201.58074.79421.5909.90207.15061 1.59853-.28611.45256-.40993.42752-.87213-.17639-.5328-.69614-.54622-.69422-1.22677.1758-.64159.82021-.70527.83485-.9425.21664z" stroke-width=".352778" transform="translate(119.51341 -29.416119)"/>
</svg>
