<?xml version="1.0" encoding="utf-8"?>
<svg xmlns="http://www.w3.org/2000/svg" height="54.451553mm" viewBox="0 0 230.77757 54.451553" width="230.77757mm">
	<title>A diagram of three triangles, points downwards. They all have the same width, but the second has a smaller height than the first, and the thrid has a smaller height again.</title>
	<path d="m49.06802 129.47149c-.44242-.69122-.91705-1.55442-1.05474-1.91823-.13769-.3638-1.26246-2.27394-2.4995-4.24475-2.46847-3.93268-3.94911-6.62049-6.84408-12.424-1.05256-2.11005-2.56322-4.90802-3.35701-6.2177-.7938-1.30969-1.67935-2.79738-1.9679-3.30598-.28855-.50859-.84512-1.401555-1.23682-1.984365s-1.41914-2.22555-2.28321-3.65054c-3.67892-6.06713-4.11764-6.88245-3.80681-7.07456.22226-.13736.22645-.24062.0151-.37126-.16105-.0995-.29661-.0251-.30124.16536-.0123.50449-.72207-.48205-1.46411-2.03491-.34769-.7276-.870165-1.73252-1.161062-2.23316-.493016-.84849-.516002-1.62463-.02457-.82947.308919.49984 1.070652.15206 1.070652-.48883 0-.44388-.13981-.50746-.901517-.40994-.833946.10677-.962845.0198-1.719791-1.15975-.450052-.70134-.818277-1.46242-.818277-1.69128 0-.64066 3.584655-.83354 10.968525-.59019 3.49893.11532 6.65934.20126 7.02315.19099.3638-.0103 2.74505-.0151 5.29166-.0107 15.6665.0269 24.68846-.002 30.12665-.0963 6.71919-.11663 6.85879-.0864 5.91259 1.28127-.81167 1.17319-3.70305 6.07721-5.04918 8.56382-2.51188 4.64004-5.79474 10.19872-8.09266 13.702835-1.30366 1.98798-2.72226 4.26936-3.15244 5.06972-.93181 1.73371-2.24667 3.81895-3.8595 6.12084-1.0728 1.53113-2.09505 3.25277-3.90647 6.57916-.3566.65485-1.05463 1.80612-1.55117 2.55838-.49655.75227-.90282 1.44826-.90282 1.54666s-.25521.53731-.56713.97537c-.31193.43806-.60698 1.13863-.65567 1.55683-.16723 1.43625-1.48789 3.68151-2.16547 3.68151-.1434 0-.62271-.56554-1.06514-1.25677zm1.32372-1.29778c.26613-.24083.48386-.55106.48386-.68941 0-.13834.29766-.60527.66146-1.03762.3638-.43236.66146-1.01481.66146-1.29435s.40944-.94234.90987-1.47289 1.53166-2.16794 2.29162-3.63864 2.22575-4.01897 3.25731-5.66282c1.03156-1.64386 2.17323-3.50556 2.53703-4.13711.3638-.63156.9765-1.6161 1.36156-2.18788.88685-1.31688 2.69976-4.93411 3.11544-6.2161.20789-.64114.44064-.9304.67598-.8401.41596.15963 2.88189-3.440095 3.93751-5.747905.37197-.81323.86142-1.63221 1.08766-1.81997s.65263-.88685.94754-1.55354c.2949-.66668.6948-1.39509.88866-1.61869s.68653-1.00185 1.09481-1.72946c1.28802-2.29536 2.22733-3.90858 3.44087-5.90949.64738-1.06741 1.17705-2.08903 1.17705-2.27026 0-.25703-1.66004-.31271-7.54793-.25316-4.15137.042-7.65548.14281-7.78693.22405-.13144.0812-.31378.0267-.40518-.1212-.21068-.3409-4.10371-.35636-4.10371-.0163 0 .13892.44649.32545.99219.41449 1.74496.28473 1.80958.32842.59531.40248-1.65336.10083-2.06163.0499-3.57187-.44591-1.10061-.3613-2.90135-.44998-10.71563-.52772-5.16599-.0514-11.41677-.2215-13.89062-.37803-5.00876-.31692-7.84006-.21504-8.927435.32124-.768166.37884-.842493.94041-.107098.80915.239563-.0428.435573.0849.435573.2836 0 .19873.35387.82903.78639 1.40066.83099 1.09827 1.0518 2.22994.43509 2.22994-.20131 0-.42828.23813-.50439.52917-.10156.38834-.008.52917.35109.52917.34564 0 .79171.60251 1.5181 2.05052.56575 1.12778 1.48344 2.82442 2.03931 3.77031 1.29367 2.20133 2.25106 4.03939 2.25247 4.32445.00061.12287.73552 1.24071 1.63313 2.4841 1.61335 2.234835 2.7503 4.171585 5.32235 9.066445.72642 1.38245 1.99811 3.70417 2.82596 5.15937.82786 1.45521 1.74517 3.12209 2.03847 3.70417s1.86172 3.35165 3.48536 6.15459c1.62365 2.80294 2.95209 5.19014 2.95209 5.30489 0 .22583.55633.84365.75968.84365.0686 0 .34242-.19705.60854-.43789zm78.80052-19.32943c-.3638-.0629-2.0902-.50598-3.83645-.98455-3.67822-1.00804-6.43564-1.6626-7.9375-1.88421-.58209-.0859-1.29646-.25615-1.5875-.37834-.29105-.12219-1.24355-.35355-2.11667-.51413-.87313-.16058-1.62719-.40922-1.67569-.55254s-.45239-.26058-.89752-.26058-1.59607-.22679-2.55764-.50398-2.67105-.70203-3.79884-.94409c-1.12778-.24206-2.05052-.52756-2.05052-.63444 0-.32379 3.35731.20376 6.64528 1.04421.52621.1345 1.2505.24455 1.60955.24455s.73525.0824.83602.18321c.10076.10076.44803.21956.7717.264.32367.0444 1.06474.25526 1.64683.4685.58208.21325 2.72021.63216 4.7514.9309 3.03757.44677 4.03217.71073 5.60348 1.48713 2.72899 1.34842 5.28849 1.66537 7.70404.95401.98165-.28909 1.96342-.53518 2.1817-.54688s1.34938-.25378 2.51354-.53799c1.16417-.2842 3.00964-.64926 4.10104-.81125 1.09141-.16199 2.81782-.45989 3.83646-.662 1.01865-.20211 3.2213-.60984 4.89479-.90608 9.19111-1.62696 9.47999-1.69133 9.33111-2.07929-.12313-.32089-1.31264-.35473-7.84697-.22322-10.99989.22137-13.60857.22204-22.58466.006-6.45215-.15547-8.00364-.26217-8.00364-.55045 0-.19668-.11906-.3576-.26459-.3576-.14552 0-.26458.19133-.26458.42518 0 .29625-.14041.37129-.46302.24747-.25466-.0978-3.38005-.24316-6.94531-.32315-8.58045-.1925-11.06738-.52088-4.7625-.62884 2.54661-.0436 5.22552-.0644 5.95312-.0462.72761.0182 4.12089.11058 7.54063.20533 3.41974.0948 13.59958.2094 22.62187.25475 9.02229.0453 16.7536.18896 17.18068.31913s.82032.36811.87386.52875c.15555.46662-2.64188 1.36938-5.56839 1.79699-3.38488.49458-7.87944 1.33237-10.63406 1.98221-2.9505.69604-3.79349.84334-5.15938.90152-.65484.0279-1.60734.14205-2.11667.25368-.50932.11162-1.75947.38592-2.77812.60955s-2.38787.5632-3.04271.75459c-1.51823.44375-2.86341.61386-3.70417.46843zm-6.08541-2.17748c0-.31218-.51603-.64612-.70556-.45659-.18952.18952.14442.70555.45659.70555.13693 0 .24897-.11203.24897-.24896zm120.45702.78806c-.77523-.72225-1.22024-2.24944-1.02011-3.50093.21989-1.37517 1.11961-3.12358 1.60737-3.12358.28205 0 .20328.26251-.29771.99218-.6231.90753-.66915 1.15798-.53971 2.93527.0957 1.31364.28983 2.10696.59938 2.44901.62194.68724.33839.88865-.34922.24805zm2.30964-.52246c0-.43431.13621-.49043.89241-.36772.52575.0853.96759.0231 1.07541-.15129.30972-.50115-.12643-1.36687-.82183-1.63126l-.66081-.25124.68345-.81224c.3759-.44673.68346-.97467.68346-1.1732 0-.64502-.49668-.68926-1.08894-.097-.55754.55754-.59235.56094-.9357.0914-.54216-.74146-.45753-.84052.89091-1.04273 1.0896-.16339 1.30667-.11404 1.71469.38984.40895.50504.42256.66472.1092 1.28152-.22027.43358-.27635.90814-.14578 1.23376.11669.29104.22054.97146.23077 1.51205.0211 1.11296-.47453 1.53066-1.81609 1.53066-.62598 0-.81115-.117-.81115-.51253zm4.3718.11565c.42166-1.05224.54018-3.84376.21058-4.96004-.38377-1.29975-.28458-1.5456.27647-.68531 1.05382 1.61589.99985 4.55947-.10283 5.60769-.56787.53982-.58618.54162-.38422.0377zm-41.7516-1.35237c-.089-.089-1.92451-.26339-4.07899-.38763-2.15449-.12424-5.28647-.35061-6.95996-.50306-1.67349-.15244-5.03822-.39046-7.47719-.52894-2.43897-.13847-4.87975-.36762-5.42396-.50921-.54421-.1416-2.1014-.34064-3.46043-.44232-1.35902-.10167-2.32473-.27524-2.146-.3857.45288-.27989 7.92425-.23948 7.92425.0429 0 .12645-.32742.23745-.7276.24668-.69829.0161-.70367.0264-.13358.25558.32671.13135 1.6364.23438 2.91042.22897 2.39677-.0102 9.74485.54036 16.53246 1.23866 2.76984.28496 4.0469.3209 4.41438.12424.31363-.16786 2.74567-.27672 6.18183-.27672 6.20551 0 11.30334-.23967 11.30334-.53141 0-.10252-.32742-.18039-.7276-.17306-.40019.007-2.87073-.0834-5.49011-.20172-2.61937-.11829-8.27484-.30293-12.56771-.41031-5.05751-.1265-1.65782-.15449 9.65729-.0795 15.30478.10145 21.0832.18557 21.56355.31393.0728.0194-.34396.25135-.92605.51535-1.27059.57627-8.98833.93326-21.03437.97295-5.16565.017-7.77522.12362-8.28545.33847-.86783.36541-.83914.36126-1.04852.15187zm22.56314-1.42575c0-.14552-.42375-.26458-.94166-.26458-.5604 0-.87545.10712-.77814.26458.0899.14552.51369.26458.94166.26458.42798 0 .77814-.11906.77814-.26458zm4.6302 0c.0899-.14552-.0816-.26458-.38125-.26458-.29963 0-.54479.11906-.54479.26458s.17157.26458.38126.26458c.2097 0 .45485-.11906.54478-.26458zm-65.48437.4821c0-.22961.17859-.84491.39688-1.36733.21828-.52242.4071-1.51923.41961-2.21513.0209-1.16251.0418-1.201585.25682-.48114.15449.51753.11204 1.31239-.12487 2.33786-.35295 1.52776-.94844 2.6113-.94844 1.72574zm-6.10093-1.04872c-.45829-1.10642-.46709-3.06666-.0185-4.129725.46303-1.09737.89417-1.12926.51376-.038-.17602.504905-.21934 1.627395-.11234 2.910415.0958 1.14869.1263 2.08852.0678 2.08852s-.26132-.37404-.45068-.8312zm1.97062-.3861c.0991-.42189.65226-1.21786 1.22922-1.76882.57695-.55096 1.04901-1.21175 1.04901-1.46843 0-1.034365-1.33016-1.498375-1.83089-.638675-.35496.609425-.36557.18046-.0119-.48041.3628-.6779 1.43463-.65533 2.13492.045.42777.42777.51831.74953.39088 1.389065-.0912.45778-.28661.87349-.43421.92378-.52733.17971-1.83537 1.41582-1.71105 1.61698.19178.31031 1.52993-.001 2.08452-.48548.46159-.40295.4846-.38944.39687.23299-.0818.58027-.259.68097-1.45541.82701-.74926.0915-1.51076.25804-1.69223.37019-.24815.15336-.28527.0138-.14974-.56315zm28.97376.0434c-.0636-.0636-1.75029-.14855-3.74826-.18885-1.99798-.0403-3.63269-.17863-3.63269-.3074 0-.13235 1.29396-.1575 2.97656-.0579 1.63711.0969 4.49593.20922 6.35293.24951 4.09193.0888 4.8374.42018.94516.42018-1.52797 0-2.83013-.052-2.8937-.11558zm-95.13635-1.57455c-1.60559-.4334-1.60043-.59735.0241-.76502 1.88799-.19485 2.51255-.0279 2.34158.62589-.14843.56759-.66571.59801-2.36568.13913zm70.85276-2.190825c-.0169-.17-.10775-.52719-.20193-.79375-.13285-.37605-.0976-.41684.15711-.18204.18058.16644.27145.52363.20192.79375-.0695.27012-.14022.35203-.1571.18204zm-87.88176-18.23368c-.58261-1.35917-.67506-3.1842-.21271-4.19895.4608-1.01136.73211-.8108.43054.31828-.45189 1.69185-.26628 2.83918.79186 4.89479.0562.10914-.0311.19844-.19389.19844-.16282 0-.52993-.54566-.8158-1.21256zm6.38088.18176c.77682-1.0507.95384-2.87769.38536-3.97703-.54088-1.04594-.35599-1.38518.25048-.45958.23926.36515.49427 1.29822.56669 2.07348.10457 1.11953.0202 1.58648-.40999 2.26945-.29791.47294-.72557.85989-.95034.85989-.3322 0-.30267-.1434.1578-.76621zm-3.49522-.62285c-.0188-.61846-.0761-1.66026-.12729-2.3151-.11642-1.48829.0867-2.45027.48903-2.31616.32704.10902.58137 4.083.33025 5.16043-.23122.99207-.65564.66752-.69199-.52917z" stroke-width=".264583" transform="translate(-20.713135 -76.276765)"/>
</svg>
