<?xml version="1.0" encoding="utf-8"?>
<svg height="186.79651mm" viewBox="0 0 83.470566 186.79651" width="83.470566mm" xmlns="http://www.w3.org/2000/svg">
	<title>A diagram showing two cubes; the first is composed from stacked squares, the second is drawn as a solid.</title>
	<path d="m-143.02537 211.83513c-.87313-.47247-2.54-1.41728-3.70417-2.09957-1.16416-.68229-3.29654-1.89701-4.73862-2.69937s-3.94063-2.32725-5.55234-3.38864-4.64085-2.93005-6.73143-4.15257c-3.948-2.3087-8.0786-5.17334-8.787-6.09392-.28784-.37406-.3075-.86525-.0662-1.65431.436-1.42585.59103-6.48805.6718-21.93618.0355-6.79097.14695-13.32915.24765-14.52929l.1831-2.18208 1.27403-.0516c1.55671-.0631 1.6915-.0632 10.44625-.0147 3.88056.0215 10.23056-.0841 14.11112-.23466 3.88055-.15059 9.7543-.18589 13.05277-.0784 5.16374.16822 6.27759.10693 8.01457-.44097 2.91474-.91941 4.37545-.84831 4.94607.24075.44784.85475 1.08233 1.22536 8.91159 5.20538 1.94027.98634 4.32152 2.29781 5.29166 2.91437 4.21005 2.67564 8.381134 5.28878 11.994447 7.51442l3.880555 2.39025-.100746 4.92494c-.374382 18.3017-.673096 24.74843-1.160702 25.04979-.150739.0932-.166349.6038-.03468 1.13476.131663.53097.159653 3.02914.06221 5.5515l-.177183 4.58611-8.995833.0794c-4.947708.0437-15.980838.13369-24.518058.2001-8.53722.0664-15.83972.23388-16.22778.37216-.46191.1646-1.25375-.0452-2.29305-.60762zm11.4764-1.17721c.37345-.51072.52935-.5313 1.00904-.1332.37627.31229.71585.35662 1.00831.13164.24253-.18657 1.23472-.28367 2.20486-.21578.97014.0679 3.17728.12247 4.90477.12131 1.89922-.001 3.33932.16257 3.64286.41449.3632.30143.56873.30859.74344.0259.14274-.23095 1.46603-.40595 3.23631-.42798 3.77929-.047 11.28848-.33128 13.49375-.51076.92371-.0752 2.256288-.007 2.961293.15242 1.548561.34925 2.084913-.0701 2.427866-1.89819.19013-1.01348.118452-1.3285-.342512-1.50539-.530211-.20346-.532931-.27898-.03006-.83465.329501-.3641.455482-.86483.311792-1.23927-.17296-.45073-.100577-.57755.256078-.4487.273452.0988.888022-.15736 1.365708-.56923.841435-.72549.838683-.70833-.08819.55053-1.060228 1.43997-1.236857 2.67221-.427549 2.98277.633832.24323.698944 1.58058.105833 2.17369-.329258.32926-.227344.42333.458611.42333.48507 0 1.067241.1853 1.293714.41177.590843.59084.799599-.14579.925572-3.26601.05804-1.4376.220264-4.43944.360497-6.67076.37103-5.90375.479661-23.55004.148191-24.07223-.226088-.35616-.284088-.35403-.288406.0106-.0028.25104-.216666.40979-.474881.35278-.258213-.057-1.325838.92821-2.372502 2.18939-3.871256 4.6647-6.735855 7.07597-5.448295 4.58611.301007-.58208.779303-1.05833 1.062883-1.05833.283581 0 1.509815-1.22468 2.724969-2.72152 1.215153-1.49684 2.895377-3.39868 3.733831-4.22632.838454-.82763 1.432631-1.65338 1.320395-1.83498-.11224-.18161-.04943-.73693.13958-1.23406.39697-1.04412.873382-.63474-5.63027-4.83809-2.425347-1.56752-4.590048-3.07886-4.810458-3.35854-.32984-.41855-.71247-.11628-2.163 1.70875-.96925 1.2195-2.07514 2.77289-2.45754 3.45198-.38239.6791-1.45388 2.46138-2.38108 3.96062-1.51641 2.45199-1.64667 2.8242-1.29632 3.70417.21423.53805.54972 1.41784.74554 1.9551l.35604.97684 1.47023-1.06503c.80862-.58576 1.68453-1.06503 1.94646-1.06503.80394 0 .54502 1.82-.71583 5.03167l-1.19208 3.03649.55472 2.40411c.30509 1.32227.60578 2.47265.66819 2.5564.0624.0838.66672-.38395 1.34291-1.03934 1.59516-1.5461 1.59143-1.01024-.005.75713-1.36587 1.51186-1.38336 1.62216-.77572 4.89243.3558 1.91488.55111 2.31092 1.18427 2.40134 1.08399.1548 1.64667-1.81693 1.64169-5.75273-.005-3.7449.0207-3.49252-.86612-8.58111-.75583-4.33693-.70388-6.12845.0785-2.70777.26628 1.16416.54181 1.82592.61229 1.47057.1924-.97003-1.03032-5.15351-1.48198-5.07054-.23379.043-.43751-.63135-.50298-1.66482-.0942-1.4877-.0363-1.67581.40375-1.31062.42277.35086.94214.0146 2.93225-1.89855 3.646512-3.50547 4.40454-3.7304 2.947649-.87466-.827303 1.62165-.926895 2.62076-.158246 1.5875.93973-1.26322 3.080516-3.36893 3.251363-3.19808.09164.0916.05727.60229-.07638 1.13478-.166271.66248-.330401.82675-.519825.52025-.193805-.31358-.980038.32257-2.621594 2.12118-1.289621 1.413-2.344767 2.4528-2.344767 2.31065 0-.14214.47625-1.30878 1.058335-2.59254.582083-1.28376 1.058333-2.41569 1.058333-2.5154 0-.0997-.913063.68963-2.029028 1.75408-1.11597 1.06445-2.2567 2.01125-2.53496 2.104-.42358.1412-.35224.82539.43835 4.20375.79718 3.40656 1.03611 4.81363 1.27625 7.51584.0267.30058.6607.1982 1.879249-.30345 1.175671-.484.611992.39877-.634039.99296l-1.2514.59675.0531 2.73179c.0539 2.77309-.41664 5.90555-1.07077 7.1278-.19806.37008-.36011 1.00081-.36011 1.40162 0 .92178-.28577.90259-1.51267-.1016-.80396-.65802-1.05227-1.25141-1.3602-3.25051-.20719-1.34504-.42911-2.50149-.49316-2.56988-.0641-.0684-1.07327.84442-2.24271 2.02847-1.16943 1.18405-2.2361 2.15282-2.37037 2.15282-.2926 0 .87163-1.40753 1.65603-2.0021.30585-.23184 1.14314-1.13793 1.86064-2.01355l1.30455-1.59204-.58061-2.31143c-.31934-1.27129-.68223-2.31143-.80643-2.31143s-.93404 1.44163-1.79965 3.20362c-.86561 1.762-1.63274 3.02691-1.70474 2.81092s.1048-.75244.39289-1.19212c.28809-.43967 1.02461-1.97631 1.63672-3.41475.95942-2.25461 1.08096-2.87121.88116-4.4704-.34367-2.75059-.8459-2.92888-2.60878-.92615-1.44173 1.63789-1.47107 1.72189-1.26688 3.62655.30806 2.87355.33933 11.36363.0449 12.18038-.65711 1.82258-1.2797 2.99861-1.58746 2.99861-.70883 0-.7288-.70883-.0394-1.39824.39513-.39513.71842-.87717.71842-1.0712 0-.63265-.67079-.37136-1.09854.4279l-.4178.78068-.29648-.80145c-.16307-.4408-.32519-2.78384-.36028-5.20674-.0351-2.42291-.1713-4.47172-.30268-4.55292s-.95982.91834-1.84097 2.2212c-1.40025 2.0704-1.63089 2.67993-1.83069 4.83827-.29666 3.20457-1.2928 6.58081-1.87698 6.36168-.25206-.0946-.76109.46995-1.19282 1.3228-1.05656 2.08719-3.61237 5.68502-3.74846 5.27675-.141-.42299 3.22116-5.9335 4.37536-7.17115.78722-.84412.86084-2.08591.12367-2.08591-.15251 0-.37728-.26058-.49949-.57906-.1858-.48418-.13418-.50601.31503-.1332.68555.56896.68124.0847-.0141-1.57936-.32281-.77261-.62733-2.87392-.73475-5.07017-.24294-4.96679-.30077-5.08762-1.53954-3.21645-.56659.85585-.91428 1.64138-.77263 1.74564.14164.10425.63341 1.38017 1.09281 2.83538 1.20374 3.81302 1.20703 3.83248.40343 2.3859-.40277-.72504-.94413-2.14592-1.20302-3.15752-.76806-3.00127-1.28109-2.56277-1.28109 1.095 0 1.92113-.14261 3.2044-.35612 3.2044-.21079 0-.30837-.7953-.2391-1.94878.0766-1.27614-.0135-1.90531-.26124-1.82285-.20804.0693-.43318.40922-.5003.75547-.20059 1.03478.31779 3.75138.67385 3.53133.18157-.11222.33013.28158.33013.87512 0 2.24209-.9621.77387-1.47253-2.24715-.17381-1.02873-.80536-.86252-.93273.24547-.0627.54593-.269.87922-.46799.75624-.19568-.12094-.66731.11449-1.04806.52318-.38076.40869-.85204.74308-1.04731.74308-.42568 0-.0771-2.12453.62421-3.80486.41568-.99591.4079-1.41452-.0554-2.97445-.60283-2.02992-.70602-3.59604-.21704-3.29383.17714.10948.43358.87291.56986 1.69651.34607 2.09149.52924 2.25633 1.12966 1.01661.44579-.92046.46026-1.53251.0968-4.09309-.23506-1.65593-.53339-3.01078-.66296-3.01078-.12956 0-.82765 1.15093-1.5513 2.55764l-1.31572 2.55764.00023 4.88009c.00019 3.74627-.10221 4.84642-.44073 4.73516-.24864-.0817-.67999-1.51782-.98898-3.2926l-.54801-3.14765-.89956 1.41111c-.49477.77611-1.23678 2.04611-1.64891 2.82222-.41214.77611-1.00086 1.72861-1.30827 2.11667-.51164.64587-.59533.65652-.98936.12596-.23673-.31878-.65199-1.82655-.92279-3.35062l-.49236-2.77102-.4741 1.16188c-.26075.63904-.62943 1.06588-.81928.94855-.55057-.34027-.40824-1.12905.54213-3.00451.80558-1.58974.85032-1.8979.48577-3.34566-.22084-.87705-.52953-1.67374-.68597-1.77042-.15643-.0967-.72704.63744-1.26802 1.63138-.54787 1.00662-1.35254 1.94745-1.81648 2.12384-.71603.27224-.80084.47729-.60446 1.46142.35903 1.79927 1.2682 4.93792 1.39001 4.79864.0607-.0694-.0333-1.2983-.20883-2.73098-.29207-2.38399-.22096-3.25852.22841-2.80915.0944.0944.29388 1.50992.44331 3.1456.23298 2.5504.35927 2.95921.8867 2.87031.82124-.13841.78217.43236-.25266 3.69106-.47722 1.50279-.81428 2.78573-.74902 2.85099.0653.0653.78847-.64231 1.60714-1.57237.81868-.93006 1.58235-1.65569 1.69706-1.61252.3468.13052.37791 1.05407.08 2.375-.15514.68787-.20882 1.25067-.1193 1.25067.0895 0 .70619-.41448 1.37036-.92107.69708-.53169 1.44226-.83101 1.76271-.70805.6963.2672.33033.92357-.51495.92357-.34701 0-1.40921.70602-2.36043 1.56895-1.83583 1.66542-2.29959 1.62681-1.39814-.11641.30283-.5856.5506-1.42522.5506-1.86581 0-.68233-.33848-.46561-2.28341 1.46204-1.25588 1.24471-2.3705 2.17602-2.47694 2.06958s.26845-1.12943.83308-2.2733c1.75267-3.55067 2.78837-7.34004 1.3974-5.11274-.5625.90071-1.00795.95891-.93786.12255.10119-1.20743-.0645-2.20486-.36634-2.20486-.27963 0-1.47339 3.65992-1.44586 4.43286.006.1813.32792-.05.71437-.51409.38645-.46405.80047-.7459.92003-.62634.2107.2107-2.47695 3.93364-3.13202 4.3385-.67697.41839-.61196-.17738.22614-2.07248.94247-2.13109 2.02403-5.91123 1.69131-5.91123-.11386 0-1.5213 1.28284-3.12765 2.85076-3.38069 3.29981-4.24367 3.52554-4.08439 1.06833.0543-.83742.32897-2.07371.61041-2.7473.50506-1.20876.49149-1.20255-1.04184.47744-1.32776 1.45476-1.64721 1.64392-2.19791 1.30145-.50897-.31651-.62188-.76127-.53737-2.11667.10338-1.65803.0879-1.68926-.45906-.92494-.92596 1.29396-1.82195 1.61204-3.05029 1.08287-1.03909-.44764-1.06754-.52046-.86968-2.22666.11249-.97014.43968-2.47827.72708-3.35139l.52254-1.5875-.17376 1.94027-.17377 1.94028.70591-1.28908c.38825-.709.89095-2.45525 1.11712-3.88056.23696-1.4934 1.2705-4.75895 2.43914-7.70675 1.11537-2.8134 2.29786-5.9884 2.62777-7.05555.32991-1.06716.93927-2.49591 1.35412-3.175l.75429-1.23472-.95149.61853c-.77461.50354-.91366.51994-.74799.0882.38437-1.00164-.21667-.52911-1.09328.85953-.92284 1.46187-2.30647 1.86532-2.30647.67255 0-.82069.70165-1.21783.72002-.40754.0107.47018.38213.23156 1.41111-.9065.76816-.84957 1.39665-1.35992 1.39665-1.13411 0 .5039.88858.0642 2.01372-.99654.94452-.89044 1.49187-.98007.71466-.11703-.73624.81754-2.10306 4.32153-1.68572 4.32153.41667 0 .75795-.5278 1.4621-2.26118l.56448-1.38957.19077.99796c.19669 1.02891-.2117 1.61579-2.21659 3.18537-.81645.63919-1.83714 3.1824-2.65234 6.60873-.12663.53223-.37841.87612-.55952.76419s-.2667.16698-.19019.6198c.0765.45282.0634.58518-.0291.29414s-.54425.58208-1.00382 1.94028c-.98833 2.92085-1.0517 3.74158-.13619 1.76389.35927-.77611.665-1.30877.67939-1.18369.0514.44713-1.41733 4.88785-1.61666 4.88785-.11184 0-.11435-.34036-.006-.75637.13735-.52521.0853-.64388-.17029-.38829-.20244.20245-.25696.71819-.12115 1.14609.23985.75569.28427.74153 1.54922-.49366.71626-.69941 1.63956-1.27165 2.05177-1.27165.41222 0 .83579-.19844.94127-.44098.10548-.24253.10159-.005-.009.52838-.11024.53314-.0971 1.23862.0292 1.56773.19151.49907.31493.43396.7436-.39231.67898-1.30874.64938-1.69564-.18433-2.40949-.66022-.56529-.71863-.55995-1.07075.098-.32674.61052-1.40594 1.00432-1.40594.51302 0-.10058.33611-1.41026.74692-2.91041.4108-1.50015.86582-3.2038 1.01115-3.78588 1.01755-4.07569 2.47526-7.96574 2.47526-6.60549 0 .22813-.71437 2.71576-1.5875 5.52807-.87312 2.8123-1.5875 5.1974-1.5875 5.30021s.30438.18693.67639.18693c.54864 0 .92482-.74958 1.99172-3.96875 1.67065-5.04087 3.93262-10.88697 4.38892-11.34327.51783-.51784.44457.34425-.12602 1.48301-.50055.99896-1.3643 3.50374-3.57877 10.37804-1.27455 3.95652-1.30654 4.17205-.74631 5.02709.32194.49133.74043.89333.92998.89333.18956 0 .34465.46688.34465 1.03751s.17576 1.14614.39057 1.2789c.25077.15498.32741.005.21411-.42015-1.00017-3.74952-1.0262-3.97043-.61468-5.21734.22962-.69577.52425-1.26444.65472-1.26371.34351.002 2.53028 1.36635 2.53028 1.57878 0 .36617-1.47945-.0615-1.75498-.50736-.2172-.35143-.38266-.28161-.68896.29071-.2648.49479-.27781.75321-.0379.75321.20086 0 .36532.35719.36548.79375.00016.43657.2446 1.96483.54321 3.39615.2986 1.43132.47082 2.67449.3827 2.76261-.0881.0881-.47189-.007-.85282-.21046-.62014-.33189-.81584-.12267-1.8706 1.99989-.6479 1.30381-1.14214 2.54496-1.0983 2.75812.0438.21315-.15987 1.06655-.45267 1.89644-.64961 1.84117-.68553 3.18406-.0852 3.18406.24596 0 1.75727-1.42057 3.35847-3.15681 2.90382-3.14872 2.91069-3.16069 2.67965-4.6743-.12739-.83463-.40208-1.73273-.6104-1.99578-.20833-.26306-.40057-1.37431-.42719-2.46945-.0266-1.09514-.16113-2.38804-.2989-2.87311-.2322-.81755-.20835-.80884.32657.11939.31738.55073.65019.92819.73957.8388.0894-.0894.6153-1.49248 1.16871-3.11799.5534-1.62551 1.55588-4.38422 2.22773-6.13047s1.32787-3.47554 1.45782-3.84286c.12996-.36732.32132-.58282.42525-.47888.22846.22846-.67362 2.99523-2.6743 8.20229-2.96429 7.71501-3.00376 8.1638-.26375 2.99861 2.25563-4.25206 5.4661-10.11413 6.04404-11.03595.2697-.43015.68538-1.39641.92374-2.14723.27828-.87655.52958-1.20947.70217-.93022.20757.33586.30768.32539.43958-.046.0939-.26448.25881-.40137.36639-.30419.10757.0972-.71706 1.68468-1.83251 3.52778-1.11546 1.84309-2.80546 4.83485-3.75556 6.64835-1.59296 3.04057-1.67998 3.33198-1.1178 3.74306.33531.24518.60965.6611.60965.92427 0 .26316.26664 1.17667.59253 2.03.54015 1.41436.63372 1.49521 1.05833.91451.25619-.35036.4658-1.24677.4658-1.99203 0-2.04433.8487-3.8018 1.83592-3.8018.63343 0 1.15391-.56632 2.35065-2.55764.94051-1.565 1.24787-2.29682.79192-1.8856-.92893.83778-.96195.4469-.0683-.80814.37228-.52282 1.01979-1.97608 1.43891-3.22946.96205-2.87701 1.82053-4.0515 1.08385-1.48281-.72251 2.51924.83351.59948 3.50462-4.32385 1.95914-3.61105 4.77649-8.72546 5.98457-10.86398 3.17388-5.61832-1.81516-.0184-7.12591 7.99845-.52991.79993-.97364 1.77192-.98605 2.15997-.0124.38806-.25444 1.18181-.53783 1.76389l-.51526 1.05834.1783-1.05834c.20369-1.20901.49415-1.64428-3.48967 5.22945-2.14318 3.69789-3.02913 4.94781-3.30878 4.66816-.0885-.0885.62509-1.47853 1.58573-3.08897.96063-1.61045 2.41257-4.14673 3.22652-5.63618.81396-1.48945 1.61301-2.75945 1.77567-2.82222.16266-.0628.41113-.48494.55215-.93816.23399-.75196.19143-.78925-.48657-.42639-.40864.21869-1.3275 1.18057-2.04191 2.13749-1.50932 2.02167-1.96309 2.09675-.70354.1164.82263-1.29338 3.3007-3.77648 3.86196-3.86979.14589-.0243.40833-.0639.58319-.0882s.66073-.6251 1.07971-1.33521c1.34467-2.27906 5.72086-7.87923 6.84399-8.75822l1.08783-.85135-.86462-.31984c-1.18345-.43779-3.1201.1353-4.35061 1.28742-.55058.5155-1.73214 1.92946-2.62568 3.14213-.89355 1.21267-1.76084 2.20486-1.92732 2.20486-.34035 0 .89815-1.75194 3.15713-4.46599.83323-1.00108 1.51497-1.8864 1.51497-1.96737 0-.28863-2.30193.17911-2.78492.56589-.40051.32073-.44638.25062-.24702-.37751.23065-.72672.17755-.7521-.91693-.43821-.63896.18326-1.19506.33319-1.23576.33319s-.38096.69389-.75611 1.54197c-.67637 1.52905-1.69123 2.67102-1.2324 1.38677.12491-.34963.38384-.83796.5754-1.08518.19155-.24723.27132-.52646.17725-.62053-.21352-.21352-4.51562 4.01909-4.51562 4.44268 0 .17015-.21842.22556-.48537.12312-.43938-.16861-1.53204.93096-8.06067 8.11166-.72275.79494-1.31807 1.23737-1.32292.98317-.005-.25419 3.28524-3.77869 7.31132-7.83222l7.32014-7.37004-2.46945.0271c-1.35819.0149-5.87948.013-10.0473-.004-6.81224-.0283-7.61114.0297-7.9073.57314-.5257.9647-9.37368 9.72998-9.59669 9.50698-.111-.111 1.97848-2.38969 4.64328-5.06376 2.66481-2.67407 4.65588-4.92501 4.42462-5.0021-.86565-.28855-1.99725.29651-2.5813 1.33457-.33198.59003-.75384 1.03103-.93749.97999-.18364-.051-3.21527 2.72505-6.73695 6.16904-6.01771 5.88495-8.02682 7.53984-6.42435 5.29167.83523-1.17178 2.17876-2.42399 2.17876-2.03067 0 .15595 2.60301-2.39914 5.78446-5.67796 3.18145-3.27883 5.72955-6.01955 5.66245-6.09049-.0671-.0709-.64438.0531-1.28284.27568-.78176.27253-1.20044.28585-1.28213.0408-.067-.20107-1.165-.36388-2.45405-.36388-2.29521 0-2.3558.0246-3.76297 1.52595-.78661.83926-1.21621 1.24614-.95466.90417.26154-.34197.37615-.78256.2547-.97908-.12146-.19652.10112-.5296.49461-.74019 1.27108-.68027.77398-.88609-2.28337-.94543l-2.99842-.0582-.0455 2.52763c-.025 1.3902-.0982 3.00388-.16261 3.58597-.0644.58208-.17332 7.77768-.24201 15.99022-.0964 11.52972-.22631 14.99458-.57001 15.20699-.31541.19494-.008.64962 1.05656 1.56047.82592.70695 1.63185 1.28537 1.79095 1.28537s.28928.2475.28928.54999.13753.46499.30563.3611c.16809-.10389.58424.11897.92477.49525.56637.62583.70431.64011 1.61814.16755.76691-.39659 1.1623-1.02869 1.70196-2.72094.38663-1.21238 1.39915-4.19372 2.25005-6.62518.8509-2.43147 1.66809-4.97147 1.81597-5.64445.14789-.67298.34427-1.03228.43642-.79844.0921.23383-.33337 2.5357-.94557 5.11528-.61221 2.57956-1.3472 5.72199-1.63333 6.98318-.28612 1.26118-.60768 2.61055-.71456 2.99861-.34752 1.26168.47827.0845.92804-1.32292.23251-.7276.56919-1.32292.74817-1.32292s.32542.0842.32542.18702c0 .5066-1.90387 4.65392-2.38482 5.19501-.30287.34073-.44581.72438-.31765.85254s.23302.0327.23302-.21222c0-.57436 3.23962 1.22284 7.58568 4.20821.42369.29104 2.01444 1.24354 3.53499 2.11667 1.52055.87312 3.12332 1.92784 3.56171 2.34383.4384.41598.86762.6858.95383.59959.26431-.26431 6.20541 2.81791 6.01755 3.12188-.2188.35402.27262.36369.74763.0147.19403-.14255.60794-.81481.9198-1.49391 1.82183-3.96718 1.73157-3.80705 1.4913-2.64583-.21163 1.02286-.16898 1.00217 1.27259-.61736 1.6965-1.90595 2.85175-2.32352 2.27579-.82261-.11777.30692-.40361.55802-.6352.55802-.23158 0-1.32417 1.09778-2.42797 2.43951l-2.0069 2.43951 2.30663.11813c1.26865.065 2.70098.0114 3.18295-.11906.5628-.15234 1.02989-.0625 1.3056.25116.55685.63346.62149.62845 1.14598-.0888zm-4.6684-1.44501c.23317-.54489.78585-1.45771 1.22817-2.02847.44233-.57077 1.32298-1.7514 1.957-2.62364 1.30378-1.79364 2.35405-2.26124 2.35405-1.04807 0 .5212-.16226.7069-.50331.57603-.5758-.22096-1.63385 1.07388-3.33912 4.0864-.63153 1.11566-1.36705 2.02847-1.63449 2.02847-.39835 0-.40961-.17908-.0623-.99072zm5.53922.34278c0-.37448.29092-.75696.64648-.84994.35556-.093 1.70574-1.73868 3.0004-3.65712 2.91526-4.31983 3.74355-5.37916 3.75361-4.80058.0125.71665-5.50145 8.65373-6.49873 9.35469-.87461.61475-.90176.61333-.90176-.0471zm8.46667-.16494c0-.71786.54561-1.687 2.90667-5.16293.33749-.49685.79953-1.26054 1.02676-1.69711.47369-.91005.84704-1.00987 1.11969-.29934.11361.29606-.0896.56746-.50667.67652-.46932.12273-1.23782 1.34147-2.35684 3.73769-1.67561 3.58806-2.18961 4.23247-2.18961 2.74517zm6.70759.0191c.003-.43656.11772-1.19062.25571-1.67569.23666-.83192.26191-.8119.44515.35278l.19427 1.23472 2.24489-2.38125c2.31488-2.45549 3.20517-2.91516 3.20517-1.65487 0 .39951-.15657.62961-.34792.51135s-.86604.37586-1.4993 1.09806c-1.18502 1.35141-3.67127 3.30866-4.20294 3.30866-.16491 0-.29768-.35719-.29503-.79375zm-17.6437-.0323c0-.76545 2.01456-4.16989 3.43173-5.79934 1.3728-1.57843 1.69483-2.1712 1.47937-2.72317-.15147-.38806-.28173-1.02306-.28947-1.41111-.0197-.98533.50643-.0339.83722 1.51411.21854 1.02274.085 1.33849-1.11886 2.64583-.75186.81648-1.88691 2.39396-2.52235 3.50552-1.00956 1.76602-1.81764 2.77439-1.81764 2.26816zm26.10555-.36427c0-.26665.22963-1.13565.51029-1.93112.59679-1.69147.12478-2.30251-.66338-.8588-.57545 1.0541-2.15812 2.92196-2.47582 2.92196-.10632 0-.19331-.23468-.19331-.5215 0-.49232 3.652-4.41739 4.11006-4.41739.11779 0 .10913.83343-.0193 1.85208l-.23343 1.85208.62895-.90202c1.22968-1.76359 2.75026-3.50768 3.05815-3.50769.30315-.00001.10253 2.18056-.3489 3.79235-.39017 1.39308.42129.85275 1.38869-.92468 1.08715-1.99746 2.031247-2.93658 2.262221-2.25032.257066.76378 1.000679.48942 3.10745-1.14652 2.187056-1.69829 2.982634-1.95781 2.973994-.97014-.0045.52117-.05693.53587-.33608.0944-.278593-.4406-.486128-.37931-1.317516.38903-1.489424 1.37649-4.111336 3.06216-5.180164 3.33042-.613935.15409-1.185835.70027-1.615875 1.54322-.68105 1.33497-1.66093 2.37164-1.9595 2.07308-.0918-.0918.002-1.08248.20918-2.20147.20686-1.119.30432-2.10634.21657-2.19408-.0877-.0877-.92303.8803-1.85619 2.1512-1.68174 2.29041-2.26613 2.76128-2.26613 1.82592zm6.60065-.22039c-.10142-.38786-.0406-.79411.13525-.90276.17581-.10866.319658.0499.319658.35242 0 1.22592 1.117949.44336 1.986142-1.39029.505273-1.06715.98098-1.94028 1.057124-1.94028.07615 0 .06689.57689-.02057 1.28197-.282794 2.28002-3.02508 4.32943-3.477614 2.59894zm-17.72978-1.76424c.12282-.80622.58222-1.5714 1.32376-2.20486 1.41736-1.21078 1.90479-1.2211 2.19958-.0466.29247 1.16533-.0214 1.51109-.62383.68722-.43107-.58951-.51732-.56209-1.31927.41947-.47193.57762-1.06287 1.3493-1.3132 1.71484-.40179.5867-.4331.51986-.26704-.5701zm.57365-3.38079c.0169-.41096.10052-.49456.21313-.21313.10191.25466.0894.55893-.0278.67615-.11723.11723-.2006-.0911-.18529-.46302zm21.011766-1.85748c2.039095-1.92598 3.954502-4.8102 3.497764-5.26694-.113457-.11346-.719843.27361-1.347527.86015-1.637002 1.52971-3.145737 2.50392-4.337759 2.80095-.928384.23134-.987435.19841-.564642-.31487.259698-.31528.403363-1.0163.319257-1.55782-.08411-.54153-.08651-.78615-.0053-.54362.08117.24254.453443.44098.827271.44098.373832 0 .67969.17242.67969.38315s1.014698-.42427 2.254881-1.41111c3.233064-2.57263 3.839246-2.29605 2.173284.99156-.852851 1.68302-4.595837 5.68901-5.299738 5.67213-.199732-.005.611555-.92934 1.802857-2.05456zm-10.443516 1.09313c.007-.14552.82695-.82021 1.82207-1.4993.99512-.6791 2.5706-2.11188 3.50106-3.18395l1.69174-1.94922-.52898-1.53539c-.29094-.84445-.46177-1.6026-.37961-1.68475.0822-.0822.31822.33498.52459.92696.33404.95824 1.470251 1.55282 1.470251.76939 0-.16883 1.010197-1.81789 2.244877-3.66459 1.234683-1.8467 2.355674-3.79908 2.491091-4.33862s.474595-1.30705.753734-1.70557c.495441-.70734.507513-.70803.507242-.0288-.000353 1.06014-1.844287 4.69957-3.469746 6.84861-.798484 1.05568-1.378645 1.99256-1.289255 2.08195.08939.0894 1.035608-.41716 2.1027-1.12567 1.067093-.70851 2.118572-1.2882 2.336617-1.2882 1.02012 0-1.153668 3.96186-3.179918 5.79559-1.157785 1.04778-1.239594.40391-.115351-.90785 1.24001-1.44684 2.664781-3.47663 2.440354-3.47663-.09052 0-1.093519.48772-2.228881 1.08383-1.549697.81364-2.560338 1.71892-4.054125 3.63146-2.52662 3.23488-6.70251 6.5368-6.64046 5.25068zm-60.1521-8.87839c-.11805-.37196.03-1.73119.32901-3.0205.72019-3.10539.67706-3.44047-.23934-1.85944-.42174.7276-.89434 1.32291-1.05023 1.32291-.5187 0-.29272-2.53862.44712-5.02284.4018-1.34919.66544-2.51819.58585-2.59778-.0796-.0796-.44444.41187-.81078 1.09213-.36634.68025-.81065 1.23683-.98735 1.23683-.68741 0 .75576-8.90819 1.5655-9.66325.46809-.43649.37394.37016-.51028 4.37158-.57628 2.60789-.15393 3.71391.52174 1.36631.24421-.84848.73268-1.82669 1.0855-2.1738.61626-.60629.64129-.60629.63666 0-.003.34711-.10869 1.01947-.23565 1.49415-.21582.8069-.25038.81838-.5311.17639-.21199-.48483-.2469-.33912-.11876.49573.0999.65069-.14313 2.45376-.54037 4.00961-.6853 2.68407-.69131 3.62956-.0184 2.89837.25003-.27169.91207-2.18912 2.71563-7.86507.10467-.32939-.0364-.40773-.44898-.2494-.51082.19602-.49812.11747.0842-.52067.37717-.41334.96406-1.49174 1.30419-2.39643l.61842-1.64491-.1987 1.41111c-.29605 2.1025-2.65309 10.56713-2.97627 10.68844-.15401.0578-.2083.37939-.12064.71461.0877.33522-.006 1.6373-.20894 2.8935-.22413 1.38985-.2399 2.32745-.0403 2.39499.38556.13044.0746 1.12374-.35182 1.12374-.1602 0-.38786-.30434-.50592-.67631zm2.08613-.55841c.23357-1.32506.2152-1.36809-.30113-.70556-.64438.82684-.74189 1.20022 1.54617-5.9209.79696-2.48038 1.34991-4.67014 1.22878-4.86614-.12114-.196-.0529-.55805.15171-.80455.20457-.24649.60424-1.39048.88814-2.54218s.6684-2.64963.85444-3.32873.61383-2.42489.95064-3.87953.70358-2.88339.81504-3.175-.93108.47678-2.31677 1.70753c-1.79298 1.59251-2.58387 2.55884-2.74295 3.35139-.37089 1.84776-.55673 2.34839-.87176 2.34839-.16531 0-.14656-.55776.0417-1.23947.18823-.6817.25656-1.37809.15184-1.54752-.10472-.16944.046-.50424.33489-.74401.2889-.23977.52889-.61495.53329-.83372.004-.21878.51304-.64664 1.13028-.9508.7768-.38278 1.22277-.92577 1.44871-1.76389.17954-.66598.39809-1.0137.48568-.77272.11838.32573.34.34141.8637.0611.38745-.20736.6222-.59135.52167-.85333-.20964-.54631.59526-1.35423.97292-.97657.13792.13792.1574.007.0433-.2899-.12039-.31374.11543-.82747.56185-1.22397l.76933-.6833-.45976.88195c-.25288.48507 1.49394-1.0714 3.88181-3.45882 3.90477-3.90403 6.89385-6.41896 7.62916-6.41896.14686 0-.18926.47625-.74693 1.05833-.55767.58209-1.22237 1.05834-1.47711 1.05834s-.46771.27781-.47326.61736c-.006.33954-1.15649 1.97614-2.55764 3.63687-5.696 6.75124-6.25112 7.43394-6.23702 7.67033.008.13545 2.90526-2.7054 6.43819-6.31299 6.01653-6.14369 7.40949-7.37546 8.34059-7.37546.79585 0 .27212.75346-2.73712 3.93775-1.7122 1.8118-4.39229 4.72294-5.95575 6.46919-1.56347 1.74625-3.33758 3.64126-3.94247 4.21114s-1.0998 1.30456-1.0998 1.63261c0 .32806-.23812 1.16639-.52916 1.86295-.60308 1.44335-.70126 2.84824-.17639 2.52386.70046-.43291.33281.42493-.52917 1.23472-.48507.4557-.88194 1.039-.88194 1.29621 0 .25722-.2032.46768-.45154.46768-.24835 0-.94571.52391-1.54969 1.16425-.9567 1.01428-1.31276 2.0253-2.76431 7.8493-1.58696 6.36726-2.32136 8.68602-1.78211 5.62673zm6.85095-17.43649c.63922-2.13353.48304-2.35939-.783-1.1323-1.06291 1.03022-1.98975 3.03468-1.98975 4.30322 0 .8837 2.36999-1.82663 2.77275-3.17092zm-.20182-2.41727c.51647-.53909 1.12953-1.53127 1.36234-2.20486.27003-.78127 2.29674-3.14075 5.59734-6.51638 6.63647-6.78735 8.26596-8.60297 7.97878-8.89015-.12796-.12797-3.68336 3.24872-7.90088 7.50374-7.01867 7.08107-7.7013 7.87835-8.05869 9.4121-.21475.92163-.28414 1.67569-.15419 1.67569.12994 0 .65883-.44106 1.1753-.98014zm4.11502-9.45632c.49432-.64477 1.67543-2.05671 2.62467-3.13763 3.20857-3.6537 1.40144-2.34649-2.8814 2.08428-3.46557 3.58528-4.21741 4.54547-4.05261 5.17568.18465.70611.34259.61097 1.80645-1.08813.88226-1.02403 2.00856-2.38942 2.50289-3.0342zm-6.33317 27.61236c0-.0606.48506-1.52905 1.07791-3.26319 1.37893-4.03347 3.6011-12.77143 3.3509-13.17627-.1674-.27086.84165-.90785 1.04001-.65655.0419.0531-.67896 3.19213-1.6019 6.97567-.92293 3.78354-1.7817 7.47889-1.90837 8.21189-.12667.73299-.38216 1.23887-.56775 1.12417-.1856-.11471-.43269.0396-.54909.34297-.17587.45831-.84171.80742-.84171.44131zm60.677778-1.82905c0-.0965.527685-.77114 1.17263-1.4993 1.651504-1.8646 4.289869-6.24529 5.206075-8.64407.426124-1.11566.904445-2.02848 1.062937-2.02848.354482 0-.565531 2.68153-1.309648 3.8172-.757488 1.15607-.421548 1.29604.572089.23836 1.357552-1.44505 2.256264-1.05107 1.371886.60141-.277139.51784-.467664.60548-.655507.30155-.265469-.42954-4.05184 3.4875-5.950109 6.15544-.769105 1.08095-1.470353 1.58548-1.470353 1.05789zm-55.005478-5.32208c.0169-.41096.10052-.49456.21313-.21313.10191.25466.0894.55893-.0279.67615-.11723.11723-.2006-.0911-.18529-.46302zm7.73326-.98222c0-1.34695 4.23674-12.74099 4.47198-12.0267.0613.18608-.35973 1.59958-.93558 3.14113-.57585 1.54154-1.00399 2.8458-.95143 2.89837.0526.0526.88151-1.27603 1.8421-2.95243 1.94222-3.38949 4.86177-6.64444 6.2788-7.00009.63928-.16045 1.27012-.83323 2.03528-2.17058.81952-1.43239 1.19173-1.81392 1.42651-1.46224.21286.31884.25367.18486.12372-.40612-.12718-.57835.0641-1.24625.55566-1.94027.7143-1.0085.73331-.89673.12004.70555l-.27006.70556.82602-.70556c.48378-.41323.69697-.48631.51455-.17639-.71774 1.21944-3.40731 4.94034-3.70319 5.1232-.17643.10904-.48997.82655-.69675 1.59447-.21678.80508-.5908 1.39622-.8834 1.39622-.27909 0-.77072.40183-1.09252.89296-.3218.49112-.66948.80856-.77262.70541-.10314-.10314.33117-.83299.96514-1.62189.63398-.78889 1.08042-1.50662.9921-1.59494-1.19706-1.19706-6.78781 6.72752-9.41717 13.34832-.7567 1.90542-1.42918 2.63287-1.42918 1.54602zm48.945958-3.22171c.207977-.38806.817781-1.10243 1.355122-1.5875l.976979-.88195-.751731 1.08967c-.413452.59931-1.023256 1.31369-1.355121 1.5875-.54579.45031-.567292.43048-.225249-.20772zm-71.347348-1.23472c-.11992-.19403-.0499-.35278.15557-.35278s.37359.15875.37359.35278c0 .19402-.07.35277-.15557.35277-.0856 0-.25368-.15875-.37359-.35277zm3.90526-1.72392c-.10633-.17204.0306-.49862.3042-.72572.40652-.33738.46281-.28016.30775.31281-.20955.80131-.32413.87862-.61195.41291zm70.159316-.53868c1.475776-2.37075 2.038252-3.42022 1.90469-3.55378-.07799-.078-1.010486.63628-2.072203 1.58729-2.24174 2.00797-2.690389 2.17096-1.9304.70131.301008-.58209.717286-1.05834.925065-1.05834s1.099178-.635 1.980886-1.41111c1.628563-1.43352 2.209327-1.70711 2.209327-1.04081 0 .52633-1.008013 2.41543-2.061294 3.86304-1.217221 1.67291-1.740116 2.17192-.956071.9124zm-67.165316-1.97074c-.005-.29104.20347-1.14081.46374-1.88839.36962-1.06165.5123-1.20977.65173-.67657.0982.37545-.1105 1.22522-.46374 1.88838s-.64652.96762-.65173.67658zm-4.25343-.52029c0-.43339.39546-1.80183 1.27405-4.40871.12121-.35962.25114-.39612.42258-.11871.15195.24586 2.42687-1.86989 5.89005-5.47794 3.10337-3.23318 6.32802-6.47383 7.16589-7.20143 1.48012-1.28533 2.53354-1.6887 2.53354-.97014 0 .19403-.28218.35278-.62706.35278-.90621 0-2.27295 1.05234-2.06626 1.59095.097.25269-.1305.73707-.50547 1.07641s-.68321.47332-.68497.29773c-.002-.17559-2.14489 1.86964-4.7625 4.54496-2.61761 2.67533-4.75929 5.09627-4.75929 5.37987s-.20843.51563-.46317.51563c-.69786 0-2.23661 1.80657-2.50414 2.93998-.15452.65461-.10932.92142.13094.77293.60432-.37349.41566-.0309-.33863.61496-.57596.49315-.70556.50982-.70556.0907zm14.15611-15.61929c.43881-.55953.42633-.57201-.13319-.1332-.58764.46086-.77452.75056-.48417.75056.0733 0 .35107-.27781.61736-.61736zm45.11056 15.8334c0-.16839.9525-1.53874 2.11666-3.04521 1.16417-1.50646 2.11667-2.76384 2.11667-2.79417 0-.0303.31177-.92216.69283-1.98187.52749-1.46694.69587-1.69808.70555-.96857.0185 1.38883-.99443 3.38101-2.71592 5.34179-2.76703 3.15168-1.52689 2.56206 1.59102-.75644 1.69285-1.80176 3.19697-3.27019 3.342492-3.26319.578358.0278.218783 1.70748-.500792 2.3393-.68711.60332-.74235.60892-.54024.0547.42266-1.159-.31826-.61779-3.25994 2.38125-2.76975 2.82376-3.54833 3.41454-3.54833 2.69243zm-60.67778-1.26582c0-.98861 1.16501-4.778 1.46895-4.778.3869 0 .39898-.0721-.38697 2.31025-.37505 1.13685-.61058 2.18239-.52341 2.32344.0872.14105-.003.35616-.20004.47803-.19719.12187-.35853-.0283-.35853-.33372zm14.11395-3.41553c4.46559-4.34728 9.52216-8.99557 9.52216-8.75333 0 .37988-9.0127 9.00148-10.33864 9.89-.72301.48449-.43051.0773.81648-1.13667zm2.4666.26823c0-.0733.27782-.35107.61737-.61737.55952-.4388.572-.42633.13319.1332-.46086.58764-.75056.77452-.75056.48417zm12.55203-2.7393c.67365-1.19181 1.89534-2.81477 2.71487-3.60657.81953-.79181 1.21033-1.047.86845-.5671s-1.43457 2.10286-2.4282 3.60658c-2.15656 3.26365-2.88008 3.61886-1.15512.56709zm-9.45002-.4789c.38698-.58208 2.54283-3.04271 4.79077-5.46805 3.79659-4.09621 5.36976-6.19866 3.14763-4.20664l-.95403.85525.55025-.87315c.70303-1.11558 3.04712-3.0232 3.34674-2.72358.2726.2726-1.82535 2.86323-5.95887 7.35825-1.66602 1.81172-3.61344 3.92903-4.32761 4.70514-.97246 1.05682-1.12183 1.14539-.59488.35278zm-17.91867.41878c0-.0607.51594-.57665 1.14653-1.14653l1.14652-1.03614-1.03614 1.14653c-.96583 1.06873-1.25691 1.30868-1.25691 1.03614zm25.57965-1.30589c2.86533-4.53898 3.48438-5.40691 3.60289-5.05137.16503.4951-3.65973 6.46765-4.14182 6.46765-.19532 0 .0472-.63733.53893-1.41628zm-5.29493.0185c.38806-.47774 1.95902-2.14462 3.49104-3.70416 1.53202-1.55955 2.18071-2.12117 1.44155-1.24804-2.02019 2.38631-3.83627 4.32686-4.78717 5.11528l-.85098.70555zm-16.97199-.17359c.0446-.30383.26997-.74131.50084-.97218.3245-.3245.41976-.29346.41976.13676 0 .30609-.22538.74357-.50084.97219-.39799.3303-.48419.30222-.41976-.13677zm-6.84051-.0712c0-.19001.87313-1.28365 1.94028-2.43032 1.06715-1.14666 1.94556-2.24717 1.95201-2.44558.0132-.40466 1.22778-1.94823 1.53305-1.94823.10833 0 .0919.27781-.0366.61736-.12847.33955 1.09354-.61295 2.71557-2.11666 1.62204-1.50372 3.08151-2.73403 3.24327-2.73403.47528 0 .3371.64614-.20372.95261-.71252.40377-2.64287 2.17601-7.17508 6.58738-2.18281 2.12462-3.96875 3.70748-3.96875 3.51747zm4.40972-2.23802c.35119-.38805.7179-.70555.81491-.70555.097 0-.11094.3175-.46213.70555-.35119.38806-.71789.70556-.81491.70556-.097 0 .11095-.3175.46213-.70556zm3.52778-.70555c.35119-.38806.71789-.70556.81491-.70556.097 0-.11095.3175-.46213.70556-.35119.38805-.7179.70555-.81491.70555-.097 0 .11094-.3175.46213-.70555zm32.98472 0c.20768-.38806.45698-.70556.55399-.70556.097 0 .006.3175-.20121.70556-.20768.38805-.45698.70555-.55399.70555-.097 0-.006-.3175.20121-.70555zm-7.40833.10199c0-.20261.27781-.58625.61736-.85255.57106-.44785.57855-.43125.0998.22139-.28465.38806-.56246.7717-.61737.85255-.0549.0808-.0998-.0188-.0998-.22139zm-33.51389-.43395c0-.18258.15875-.43007.35278-.54999.19403-.11991.35278.0295.35278.33196 0 .30249-.15875.54999-.35278.54999s-.35278-.14938-.35278-.33196zm2.35084-1.78471c3.26661-3.99102 6.11583-6.48175 6.11583-5.34634 0 .47073-1.26634 1.49297-1.52681 1.2325-.12915-.12916-1.44191 1.02143-2.91723 2.55687-1.47532 1.53543-2.22763 2.23607-1.67179 1.55697zm40.40869-1.22339c.61885-1.25495 1.18338-2.22351 1.25453-2.15236.15773.15773-1.97527 4.43408-2.21168 4.43408-.0924 0 .33831-1.02677.95715-2.28172zm-41.39322.60603c.18303-.33955.77518-1.01424 1.31587-1.49931.90774-.81435.89443-.76704-.17364.61737-1.19746 1.55211-1.7217 1.95689-1.14223.88194zm25.09202-.26458c.4557-.48507.90792-.88195 1.00494-.88195.097 0-.19646.39688-.65216.88195s-.90792.88194-1.00493.88194c-.097 0 .19645-.39687.65215-.88194zm4.30774-.17639c.49612-.6791 1.00257-1.5668 1.12544-1.97268.23175-.76555 1.97516-2.60896 1.97516-2.08845 0 .5303-2.08037 3.552-3.05289 4.43425l-.94974.8616zm-19.64054-.49955c.30716-.46877.82649-.95517 1.15407-1.08087.34948-.13411.16768.21809-.43995.85232-1.24748 1.30209-1.46265 1.37095-.71412.22855zm24.8245.20899c.21443-.40066.56361-.83586.77595-.96709.27662-.17096.27555-.0321-.004.48987-.21443.40067-.5636.83586-.77595.96709-.27662.17096-.27554.0321.004-.48987zm2.86093.54508c-.01-.50052 2.15408-4.56263 2.33447-4.38224.0974.0974-.22417.94685-.71449 1.88778-1.04407 2.00355-1.61242 2.87871-1.61998 2.49446zm-38.45818-.73514c0-.15111.61226-1.0176 1.36057-1.92554.74832-.90793 1.45771-1.9286 1.57643-2.26815s.3658-.61736.54906-.61736c.67855 0-.50768 2.16273-1.97738 3.60513-.82977.81436-1.50868 1.35703-1.50868 1.20592zm38.75282-3.12933c.39717-.62727.91337-1.20425 1.14712-1.28216.23375-.0779-.0151.4353-.55295 1.1405-1.21243 1.58957-1.56399 1.6734-.59417.14166zm-37.87088-.10516c.58209-.47712 1.21709-.8675 1.41111-.8675.19403 0-.12347.39038-.70555.8675-.58209.47713-1.21709.86751-1.41111.86751-.19403 0 .12347-.39038.70555-.86751zm73.906947 52.75122c0-.19403-.07-.35278-.155568-.35278-.08556 0-.253683.15875-.373599.35278s-.04991.35278.155568.35278c.205479 0 .373599-.15875.373599-.35278zm-58.404717-10.14236c1.06439-1.46008 4.07694-6.87851 4.07694-7.33287 0-.09-.15132-.16366-.33627-.16366s-.64332.67469-1.01861 1.49931c-.37528.82461-.94386 1.8168-1.2635 2.20486-.55485.67361-.57759.6257-.50218-1.05834.055-1.22815-.12878-2.11144-.60509-2.90818-.85311-1.42706-1.21324-1.4539-1.21324-.0904 0 .58209.16812 1.05834.3736 1.05834s.26156-.19844.12463-.44098c-.1945-.3445-.14889-.34836.20848-.0176.37167.34395.20885 1.1211-.86826 4.14429-1.76871 4.96435-1.32131 6.32177 1.0235 3.1053zm33.35749-.4299c0-1.09955-.11357-1.35646-.52916-1.19698-.31111.11938-.52694.006-.52377-.27566.007-.6457.53153-1.43413.90717-1.36433.16748.0311.36877-.13616.44729-.37175.0912-.2735-.023-.32591-.31571-.14498-.34859.21544-.38413.12151-.14827-.39187.45901-.99909.65544-10.50491.2114-10.23048-.19716.12186-.82416 1.05163-1.39334 2.06618l-1.03487 1.84463.44887 4.25128c.46008 4.35744 1.10688 7.214 1.63346 7.214.16331 0 .29693-.63002.29693-1.40004zm6.64557.37232c.52568-.28133.61575-1.10841.71076-6.52639.0611-3.48369-.0293-6.20423-.20603-6.20423-.17316 0-.66219.46983-1.08673 1.04405-.70362.95169-.77147 1.4588-.76708 5.73264.004 4.32074.18785 6.27609.58868 6.27609.0871 0 .42932-.14497.7604-.32216zm-43.62625-1.35353c.85196-.89273 1.33106-1.78179 1.47332-2.73403.11596-.77611.31484-1.9299.44196-2.56398.34898-1.74065-.59108-1.1631-2.05949 1.2653-1.53785 2.54325-2.16964 4.13907-1.9083 4.82012.30808.80284.66587.66558 2.05251-.78741zm27.59433.0593c.28418-.74056.27132-.85309-.0975-.85309-.1714 0-.39466.3175-.49614.70555-.21786.83311.28281.95754.59364.14754zm-6.01685-9.81423c-.3785-1.18325-.83792-2.14917-1.02095-2.14649-.18304.003-.714.95519-1.17992 2.11667-.67759 1.68915-.87408 2.92371-.98178 6.16873l-.13466 4.05695 2.00274-4.02225 2.00273-4.02225zm-27.33648 7.81461c.20313-1.01865.4653-2.32833.58259-2.91042.1173-.58208-.34898.11042-1.03617 1.5389-1.2341 2.56534-1.31354 3.2236-.38903 3.2236.28886 0 .61719-.72169.84261-1.85208zm34.95378-.94937c-.0136-.30247-.15139-.86744-.30612-1.25549-.2417-.60621-.33458-.51558-.65959.64368-.20804.74207-.28289 1.59778-.16631 1.90157.18512.48242.27176.47055.68438-.0937.25984-.35535.46128-.89356.44764-1.19602zm-11.6276-.81452c-.008-1.58653-.1061-2.0415-.35081-1.62235-.30008.51401-.0983 3.82721.2331 3.82721.0706 0 .12361-.99219.11771-2.20486zm4.08369.26907c.51024-.87066.85917-1.78347.7754-2.02848-.12678-.37077-2.02614 2.8384-2.02614 3.42338 0 .49986.40512.0481 1.25074-1.3949zm2.27704-.60421c0-.72711-.12145-1.00744-.34123-.78766-.18767.18767-.24853.69567-.13524 1.12888.29057 1.11113.47647.978.47647-.34122zm6.64775-.72319c.42275-.80473.4238-3.78718.001-3.79054-.37536-.003-1.00465 2.12807-1.00465 3.40221 0 1.36793.40612 1.52512 1.00331.38833zm9.42482-2.0243c.86147-1.39726 1.56632-2.68419 1.56632-2.85983s.13716-.31935.3048-.31935.73624-.62257 1.26355-1.38348c.86581-1.24936.93502-1.57348.71393-3.34302l-.24482-1.95953-1.53474 1.57913c-1.77218 1.82344-2.24329 1.96812-1.98293.60899.10222-.53358.25722-.75658.34446-.49556.1066.31896.65327-.0109 1.66714-1.00594 1.36007-1.3348 1.49113-1.61021 1.33176-2.79841-.10972-.81806.0298-1.71737.36789-2.37115.70153-1.35662 1.50841-2.04474 1.81531-1.54816.54671.88459 1.3034.15587 3.18757-3.06967 1.98255-3.39399 4.12868-6.34678 5.01261-6.8967.2494-.15516.45347-.47585.45347-.71264 0-.49257-5.58026-3.66385-10.71292-6.0882-3.80307-1.79634-3.52052-1.83274-4.81791.62082-.37778.71444-.88127 1.41913-1.11887 1.56597-.2376.14685-.0865-.31863.33584-1.03439.91378-1.54875.67836-1.65498-.73409-.33125-.85462.80094-.96747.83911-.64701.2189.21349-.41318.97811-1.22451 1.69917-1.80296l1.311-1.05173-1.3243-.43705c-.72836-.24039-1.35707-.38155-1.39713-.31371-.04.0678-.38756.75836-.77224 1.53447-1.63734 3.30342-7.04268 13.09124-7.46586 13.51895-.25368.25639-.46124.63205-.46124.83479 0 .20275.631-.20144 1.40222-.89819s1.76415-1.35765 2.20652-1.46868c.44524-.11175 1.17049-.83813 1.62456-1.62709.45114-.78387.89612-1.34935.98885-1.25661.0927.0927-.31842.96012-.91367 1.92752-.75845 1.23265-1.37148 1.81744-2.04885 1.95448-1.85239.37477-3.11202 1.97052-7.416 9.3949l-3.15753 5.44675.83128 1.7852c.45721.98186.83283 1.98364.83473 2.22617.002.24254.25855.44097.57036.44097.3639 0 .49023.18949.35277.52917-.11777.29104-.31049.76729-.42826 1.05833s-.0556.52917.13814.52917c.47477 0 .66868-1.08027.75943-4.23081.10121-3.51327.98419-5.86951 3.40472-9.08547 1.09824-1.45914 2.3898-3.62395 2.87014-4.81071 1.02438-2.53088 1.33335-2.95555.99238-1.36398-.1351.63059-.17297 1.14653-.0842 1.14653.17596 0 1.68259-2.21868 4.31208-6.35 4.0433-6.35265 5.50243-8.11389 6.72209-8.11389.84838 0 .54404.50138-.65244 1.07485-.86234.41331-2.37936 2.39554-6.25379 8.17161-2.81341 4.19427-5.92563 8.70294-6.91606 10.01928-1.76629 2.34751-1.78825 2.40679-1.14653 3.0956.35984.38624.65425.91044.65425 1.1649 0 .77626.65568.51737 1.28529-.50749 2.53251-4.12234 5.3859-7.9985 5.6751-7.7093.0869.0869-.45494 1.00371-1.204 2.03744-1.58139 2.18235-2.95741 4.28816-4.39282 6.72263-.99905 1.6944-1.01136 1.77745-.60558 4.08765.2278 1.29696.53446 2.49605.68146 2.66466.4924.56477 1.64602-2.39909 1.80256-4.63108.14083-2.00811.0969-2.18948-.48525-2.0047-.89994.28563-.81269.0786.62172-1.47574 1.24038-1.34404 4.68735-5.76828 5.86422-7.52681 2.65269-3.96378 10.12354-13.22098 10.4258-12.91871.30245.30245-2.38806 4.46569-3.77879 5.84723-1.46579 1.4561-3.36321 3.83933-6.74226 8.46853-1.34548 1.84327-2.95734 3.97788-3.58192 4.74359-.85726 1.05098-1.24271 2.00207-1.57267 3.88055-.48046 2.73535-.53294 5.18448-.14025 6.54531.24737.85725.27587.84064 1.01812-.59343.42-.81145.92465-1.57488 1.12145-1.69651.50399-.31148.44443-2.16131-.14242-4.42368-.27514-1.06067-.43597-1.99277-.35741-2.07132.27105-.27105 1.21043 2.41504 1.21043 3.46112 0 .57686.15875 1.14696.35278 1.26687.19403.11992.35278.056.35278-.14194 0-.60548 3.86011-6.11519 5.3998-7.70736 2.11864-2.19087 2.3404-1.83156.32659.52916-2.51549 2.94881-3.32966 4.24117-3.11128 4.93865.10635.33968.22176 2.64282.25647 5.11808.0347 2.47526.12671 4.43688.20445 4.35914.0777-.0777.84618-1.28456 1.70765-2.68183zm-.19757-3.51113c0-.18258.15693-.42895.34874-.54749.19997-.12359.25911.018.13864.33195-.23452.61116-.48738.72298-.48738.21554zm1.41111-.54999c0-.29104-.15875-.52917-.35278-.52917-.50729 0-.43422-.8121.14424-1.6032.47563-.65044.4954-.64196.45912.19716-.0208.48228.0837 1.23406.2323 1.67063.16891.49616.12905.79375-.10633.79375-.20711 0-.37655-.23813-.37655-.52917zm-6.35-4.09068c0-.21258.28353-.8079.63007-1.32292s.85124-1.37599 1.12155-1.91327c.29749-.5913.58643-.82324.73204-.58763.25579.41389.66639-.0524 2.808-3.18922.6791-.99465 1.96236-2.71419 2.85169-3.8212s2.06382-2.72614 2.61-3.59808c1.567-2.50163 4.21064-5.99505 4.53676-5.99505.16338 0-.0244.51593-.41725 1.14652-1.22555 1.96713-4.03151 7.05125-5.06222 9.17222-1.07029 2.20243-1.6869 2.79964-.81954.79375 1.3335-3.0839 1.60661-3.87109 1.16248-3.35055-.58411.68461-4.61808 6.17541-5.65302 7.69455-1.00561 1.4761-4.16048 5.35739-4.35471 5.35739-.0802 0-.14585-.17393-.14585-.38651zm2.82848-4.69809c-.007-.36336 3.84626-6.90984 4.06719-6.90984.0783 0 .00036.37348-.17313.82996-.40808 1.07333-3.88582 6.50321-3.89406 6.07988zm-2.6306-5.23415c.37669-1.21828 1.51373-3.36563 1.91268-3.61219.42587-.26321.0211.89089-1.0461 2.98282-.79212 1.55268-1.25631 1.88981-.86658.62937zm6.85948-2.27223c.002-.38055 1.73695-3.18554 1.75107-2.83171.0212.53012-.97861 2.63859-1.3641 2.87684-.21383.13215-.38796.11184-.38697-.0451zm-3.31073-4.24413c.73144-1.40119 1.38898-2.48854 1.46119-2.41633.17831.17831-1.48231 3.38183-2.20743 4.25839-.32102.38805.0148-.44087.74624-1.84206zm-7.62719 1.47077c0-.2909 3.89826-6.1551 4.09164-6.1551.25626 0-.50241 1.35336-2.22483 3.96875-1.45042 2.20238-1.86681 2.69005-1.86681 2.18635zm4.12588-3.15206c.32268-.67666.64932-1.16766.72586-1.09112.16138.16139-.90953 2.32141-1.15092 2.32141-.0889 0 .10238-.55363.42506-1.23029zm5.39912-1.78126c0-.43566 1.21035-2.28011 1.49624-2.28011.34637 0-.64062 1.98228-1.14095 2.2915-.19541.12077-.35529.11564-.35529-.0114zm-33.88258 27.37086c.0296-.95223-.61034.12942-.82445 1.39347l-.20915 1.23472.50885-1.05833c.27986-.58208.516-1.28852.52475-1.56986zm8.12291-2.29845c.28136-.75651.10899-1.59975-.327-1.59975-.36896 0-1.07722 1.66295-1.07722 2.52924 0 .63339.0767.66849.56863.26023.31275-.25955.68876-.79493.83559-1.18972zm11.56517-1.90551c1.00568-1.82934 1.09306-2.19801.75247-3.175-.52293-1.50009-1.18448-1.38913-1.8655.3129-.57866 1.44622-.78794 4.93175-.29612 4.93175.14924 0 .78336-.93134 1.40915-2.06965zm-6.61939-.39979c.30138-.56314.26829-.70556-.16397-.70556-.3064 0-.54158.3064-.54158.70556 0 .38805.0738.70555.16398.70555.0902 0 .33389-.3175.54157-.70555zm31.18365-3.81339c.50552-1.41826.91913-2.64858.91913-2.73403 0-.44703-1.02169-.007-2.07424.89302-1.01035.86409-1.15513 1.17145-.94876 2.01413.13394.54694.33306 1.44297.44249 1.99118.2624 1.31459.55918.92797 1.66138-2.1643zm3.62956 2.33613c-.11261-.28142-.19621-.19783-.21313.21314-.0153.37188.0681.58024.18528.46302.11723-.11723.12976-.4215.0278-.67616zm-8.07462-2.05183c1.11684-1.34505 1.1456-1.45514.73666-2.82005-.23405-.78119-.63798-1.59666-.89762-1.81214s-.47207-.61047-.47207-.87775c0-.78953-1.05522-.55437-1.38106.30778-.38083 1.00764-.11534 1.48009.53052.94407.65256-.54158.63285-.15529-.0448.87902-.37957.57929-.49655 1.39707-.38933 2.72161.0843 1.04142.16974 1.93318.18984 1.98169.1381.33324.7254-.11684 1.72791-1.32423zm-26.71173-36.59015c-1.99231-2.41701-1.76578-4.63464.71635-7.01267 1.31768-1.26242 1.72971-.84193.54945.56073-1.47698 1.75528-1.67243 4.9546-.36877 6.03654.28916.23998.68141.7272.87167 1.08271.64229 1.20012-.62285.7228-1.7687-.66731zm10.45467-.36201c1.08872-2.11999.97963-4.59912-.26048-5.91915-.88223-.93909-.68722-1.61098.29101-1.00263 1.096.68157 2.18798 2.66683 2.18662 3.97534-.001 1.29744-1.02026 3.38879-2.03709 4.18116-1.01065.78756-1.05665.47217-.18006-1.23472zm-6.95375-.21981c0-.71492 1.00559-1.89491 2.29279-2.69045.84685-.52338 1.23499-1.02486 1.23499-1.59561 0-1.05209-.49544-1.37585-1.06156-.69372-.5808.69983-1.72788.66842-2.00544-.0549-.30441-.79326.87101-1.59348 2.15018-1.46383.63049.0639 1.30496.48243 1.75664 1.09004.67053.90201.68859 1.06486.21127 1.90543-.28706.50552-.79974 1.05387-1.13929 1.21856-.33954.16468-.88572.42983-1.21372.58921-.328.15939-.66104.48381-.74008.72095-.13775.41324.43188.37072 2.48297-.18535.46238-.12536.61736.0442.61736.67533 0 .79897-.11896.84421-2.29305.87199-1.54531.0198-2.29306-.10667-2.29306-.38765zm37.345117-45.560655c-4.596827-.627211-14.463747-1.087674-19.000667-.886711-7.51901.333054-29.28056.07179-29.28056-.351529 0-.318978-3.78895-2.874257-6.52639-4.401418-.97014-.541221-3.03389-1.81218-4.58611-2.824353-1.55222-1.012175-3.79962-2.457023-4.99421-3.210771-1.1946-.753749-3.85269-2.448119-5.90688-3.765268-3.29121-2.110338-3.8261-2.345993-4.50285-1.983803-.63924.342106-.84829.301177-1.24705-.244154-.26349-.360342-.398-1.055127-.29892-1.543971.22443-1.10726.22465-.248656-.006-23.182384l-.19241-19.118574 1.1659-.213944c.64125-.117669 12.46629-.162628 26.27788-.09991 20.54058.09328 25.04288.03077 24.73237-.343368-.6809-.820435-.018-.866713 1.67673-.117054.91392.404269 2.28586.735033 3.04876.735033.83489 0 1.30029.14044 1.16905.352778-.11991.194028-.64286.352778-1.16209.352778-.74035 0-.4504.240781 1.34373 1.115842 1.2583.613713 4.11343 2.225921 6.34475 3.582685 2.23132 1.356763 6.32117 3.706635 9.088552 5.221938 8.893397 4.869647 8.070581 4.179967 8.348207 6.997431.132214 1.341757.215614 3.600692.185332 5.019858-.03027 1.419165.05973 6.787177.200011 11.928913.163879 6.006514.106465 12.064506-.160602 16.945592-.287588 5.256156-.303809 7.891187-.05264 8.551799.811353 2.13402.228656 2.28655-5.663738 1.482563zm-32.229837-1.932732c-.12293-.1989.16293-.352778.65534-.352778.48035 0 .93387.181515 1.00782.403366.0993.297953.32515.301308.86416.01284.54004-.289016 1.0212-.280504 1.8511.03274.77499.292527 1.1982.308762 1.37009.05256.14046-.209367 1.70736-.392141 3.6001-.419947 1.84326-.02709 5.13241-.110945 7.30921-.186372 2.6626-.09226 4.00035-.01097 4.08777.248419.0891.264372.30156.243949.67595-.06497.41256-.34042 2.22666-.423121 7.422526-.338384 3.782088.06168 7.054702.05275 7.272479-.01986.825143-.275046.349535-1.058252-.739715-1.21812-.624618-.09168-10.98306-.125367-23.01875-.07487-29.29612.122929-26.99836.06415-26.99836.690662 0 .291041-.15875.529166-.35278.529166-.19402 0-.35283.119063-.3529.264584-.00006.14552 3.24662.227612 7.21486.182428 4.43788-.05053 7.29746.0513 7.42928.264583.11786.190705.37304.346739.56707.346739s.25467-.15875.13475-.352778zm-16.27659-1.940278c.25849-.673622-.0814-1.579132-.60629-1.615228-.22178-.01525-1.11761-.478286-1.99073-1.028961-.87313-.550676-3.25438-1.951532-5.29167-3.113007-6.35301-3.621906-13.23572-8.112181-12.91933-8.428566.14327-.143267.43116.02656 9.39634 5.542707 3.31112 2.037291 6.57845 3.987397 7.26073 4.333568.68228.346173 1.89496 1.103489 2.69485 1.682922 1.02345.741384 1.53064.930064 1.71187.636824.71851-1.162575-.61451-2.136753-12.2014-8.916828-5.282-3.090768-7.52698-4.640838-5.29167-3.653695 1.81566.801818 3.86007 1.937064 8.10337 4.499747 2.25469 1.361687 4.18351 2.475795 4.28626 2.475795s1.28618.711172 2.62985 1.580384l2.44302 1.580385v-.996541c0-1.190103-.50995-1.668558-3.52778-3.309927-1.26118-.685941-4.43618-2.452091-7.05555-3.924776-4.40241-2.475153-4.91763-2.678099-6.81417-2.68412-1.12841-.0036-2.36981-.176781-2.75865-.384885-.57252-.306401-.83104-.235327-1.35923.373684-.56693.653672-.7483.692065-1.38649.293507-.96601-.603285-.92619-.871601.18431-1.241767.9026-.300863.88746-.323105-.87107-1.280223-.9843-.535722-1.89555-1.14542-2.02501-1.354889-.20628-.333767 4.02841 1.845112 4.98471 2.56479.19874.149563 1.03726.181274 1.86338.07047l1.50205-.201464-1.15784-.780539c-1.93251-1.302784-8.39008-4.532482-8.61423-4.308337-.11544.115446-.0411.694256.16532 1.286242.22405.642701.24137 1.076342.043 1.076342-.45636 0-.18987 1.518832.29484 1.680401.28355.09452.28019.372177-.0122 1.014028-.3224.70758-.30118.950196.10638 1.216374 1.6579 1.082763 6.32766 3.850308 6.49675 3.850308.55603 0 3.0082 1.9244 3.0082 2.360754 0 .276712.1547.407497.34378.290636.35434-.218994 6.93744 3.810339 10.06316 6.159383.97014.729079 2.52314 1.608463 3.4511 1.954185.92797.345722 1.77078.763788 1.87291.929037.28731.464879.75283.355921.97718-.228717zm-25.1748-16.756944c-.31796-.205479-.36147-.344132-.10901-.347377.23108-.003.51826.153349.63818.347377.27068.437984.14856.437984-.52917 0zm77.899126 15.610416c-.104807-.910879-.229676-.976824-2.04422-1.07956l-1.932594-.109424 1.260884.855659c2.28975 1.553866 2.864485 1.624404 2.71593.333325zm-3.639404-.238968c-1.042793-.86923-1.161937-.883412-8.113892-.96574-3.88055-.04596-13.64368-.04993-21.69583-.0088-8.05215.0411-15.39434.07299-16.31597.07087-1.39114-.0032-1.6757.105964-1.6757.642892 0 .35572.0709.717613.15745.804209.0866.0866 11.08004.198247 24.42986.248113l24.272416.09066zm-16.845322-1.776783c13.372984.01228 13.839183-.0098 13.636759-.647636-.183529-.578252-.11648-.610532.539228-.259606.41185.220416.653898.554341.537884.742058-.131406.212619.962194.305699 2.900535.246881 3.105556-.09424 3.111684-.09626 3.223098-1.064557l.111626-.970139-4.168571-.06776c-2.292713-.03727-4.565449-.04582-5.050519-.01899-2.46583.136345-42.14215.04274-42.28465-.09976-.0915-.09145-.0799-.252645.0257-.358217.10557-.105573 9.37922-.192141 20.6081-.192374l20.41615-.000352-1.05833-.864207c-.72228-.589792-.87866-.864761-.49248-.865957.31121-.0011.99535.396304 1.52031.882816.92415.85647 1.10505.883677 5.695956.856513l4.741491-.02813.000317-1.297485.000318-1.297485-4.321846.09642c-6.968286.155462-30.461266.199979-39.093646.07408-4.37838-.06386-8.109-.02455-8.29028.08734-.18127.111894-.25021 1.290277-.1532 2.618634l.17639 2.415194 7.05556.08972c3.88055.04934 7.29368.145994 7.58472.214775.29104.06878.92604.0284 1.41111-.08971.48507-.118124 7.1128-.209049 14.72829-.202054zm-31.91285-5.125452c.15478-.591876-.61159-1.175381-4.84803-3.691219-2.76753-1.643518-5.70161-3.138689-6.52017-3.32261-1.57216-.35324-2.28362-.749829-1.34516-.749829.30721 0 .61273-.162482.67893-.361075.0662-.198589 1.23036.322905 2.58703 1.158882 3.38056 2.083082 8.48909 4.846638 8.95918 4.846638.21267 0 .38667-.289095.38667-.642437 0-.787904-5.4877-3.971463-7.37785-4.280083-.90619-.147962-1.26597-.387128-1.2679-.842832-.002-.455447-1.55577-1.490045-5.46805-3.640794-6.34799-3.489762-12.16893-6.468854-12.63969-6.468854-.45967 0-.74985 1.776359-.3994 2.444891.15965.304546.36978.814648.46695 1.133559.0972.318912 1.05142.980317 2.12057 1.469789 1.06915.489469 4.29529 2.227118 7.16922 3.861439 6.08955 3.462954 8.03757 4.556961 10.69337 6.005399 1.06716.582009 2.89278 1.667754 4.05695 2.412764 1.16416.745014 2.21721 1.357901 2.3401 1.361973.12289.0041.30617-.308946.40728-.695601zm-18.74136-11.648376c-6.77693-3.705511-8.26856-4.602276-8.03827-4.832572.15751-.157512 3.93853 1.861619 9.92114 5.298062 3.79584 2.180354 4.61634 2.702468 4.23333 2.693822-.19403-.0044-2.94632-1.426069-6.1162-3.159312zm28.87037 10.53356c.29104.02649 6.72041.140021 14.2875.252303l13.75833.204149-1.14653-.725241c-1.14364-.723413-1.51162-1.441164-.73885-1.441164.22422 0 .97355.431617 1.66518.95915l1.25751.95915 6.801485.04126 6.801482.04125v-1.541519-1.541519l-3.439584.201683c-1.89177.110924-10.583333.272976-19.314583.360112-14.12686.140981-21.2805.429602-27.25208 1.099513-1.5566.174622-1.85209.321825-1.85209.922655 0 .694182.12513.706851 4.32153.437473 2.37684-.152576 4.55965-.255739 4.8507-.229255zm-1.5875-2.4696c3.10444-.22117 9.74931-.448832 14.76638-.505915 8.21301-.09345 10.46095-.278613 9.13431-.752411-.50975-.182051-.59892-.804249-.11526-.804249.17914 0 .83113.425281 1.44886.94507l1.12316.945074 6.40044-.422243c3.520241-.23223 7.560958-.419389 8.979375-.415904l2.578933.0063-.109488-1.322916-.109492-1.322917h-4.409722c-2.425348 0-6.870346.116099-9.877776.257993-6.83136.322319-14.2643.570421-23.8125.79483-4.07459.09577-8.7974.278821-10.49514.406795l-3.08681.232678v1.386745c0 1.327753.0413 1.377946.97014 1.179953.53358-.113735 3.51014-.387748 6.61459-.608919zm-8.98528-2.226243c-.31296-.377091-.24207-.532828.32435-.712604.57936-.183882.6795-.419929.49896-1.176196-.12422-.520379-.29061-1.061893-.36974-1.203361-.16532-.295543-3.46617-2.266699-6.81413-4.069168-3.03753-1.63534-7.05555-4.011753-7.05555-4.172923 0-.211604 1.76803.637229 4.7625 2.28649 8.63097 4.753659 9.03016 4.946347 9.22035 4.450715.35886-.935175-.0548-1.709247-1.27885-2.392814-.6769-.378026-4.64565-2.434654-8.81945-4.570286-9.52634-4.874394-12.09781-6.28608-11.86837-6.515512.0999-.0999 1.57994.616814 3.28898 1.592703 1.70903.975889 4.39959 2.340963 5.97902 3.03349 1.57942.692531 4.80869 2.292544 7.17614 3.555584 4.17741 2.228653 5.29801 2.645865 5.29801 1.972515 0-.17816.0964-.575035.21413-.881945.14763-.384725.0107-.559403-.44097-.562469-.36031-.0024-1.9251-.714283-3.47733-1.581855-2.04534-1.143187-19.85277-10.165809-23.19514-11.752449-.14552-.06908-.26458.282509-.26458.781309 0 .769215.37493 1.095717 2.46945 2.150499 1.35819.683977 2.46944 1.317043 2.46944 1.406815 0 .215709-1.40201-.325914-3.14379-1.214501-1.42402-.726484-2.06478-.521981-1.66104.530137.10812.281749.0648.512272-.0962.512272-.16103 0-.21564.403549-.12136.896778.0943.49323.25115.817062.34859.719625.0974-.09743.64803.06635 1.22354.363957.57552.29761.94962.637882.83134.756162-.11828.118279-.40291.0272-.63251-.202403-.55145-.551452-1.6894-.53552-1.68015.02353.004.242535 1.12576.989048 2.49277 1.65892 3.33921 1.63631 3.48405 2.056084.19175.555734-1.4428-.657507-2.70081-1.117935-2.79557-1.023175-.0948.09476-.0892.489874.0123.878028.12347.472119 1.5413 1.398112 4.28316 2.797341 4.0663 2.075117 5.08946 2.638743 9.62834 5.303944 1.2951.760472 2.43905 1.38268 2.54212 1.38268.10306 0 1.0278.502123 2.05499 1.115829 1.02718.61371 2.14343 1.099976 2.48055 1.080594.33712-.01937.81435.252307 1.06051.603751.24617.351448 1.47847 1.21182 2.73845 1.911939 1.83389 1.01902 2.31428 1.165222 2.4082.732914.0645-.297018-.0629-.757181-.28316-1.022583zm-3.18556-1.951545c-2.06637-1.089304-2.96197-1.743185-2.71958-1.985575.082-.08198.84649.249622 1.6989.736897 1.47369.842415 3.67443 1.272166 2.94332.574756-.18433-.175828-1.92264-1.152465-3.86292-2.170303-1.94027-1.017842-4.32152-2.353257-5.29166-2.967592-.97014-.614337-3.90702-2.279907-6.52639-3.701267-4.58686-2.488984-7.4772-4.246703-6.98315-4.246703.34301 0 10.03092 5.185131 14.58947 7.808524 2.14618 1.235104 5.11434 2.880643 6.5959 3.656754 1.62576.851644 2.76555 1.684736 2.87483 2.101261.20948.798417.24204.749405-.67288 1.012892-.42543.122512-1.47592-.202915-2.64584-.819644zm-4.07458-2.44885c-.18433-.181902-1.68451-1.039057-3.33375-1.904788-6.52562-3.425483-10.58333-5.781506-10.58333-6.144973 0-.166514 9.03066 4.546854 10.93611 5.707874.67909.413788 1.83003 1.061752 2.55764 1.439923.7276.378171 1.32291.810235 1.32291.960137 0 .374354-.49363.342431-.89958-.05817zm-8.62491-8.159457c-2.27929-1.256196-3.11777-1.962707-1.68944-1.423546 1.36076.513651 4.38616 2.547468 3.7174 2.499007-.0485-.0035-.96108-.487472-2.02796-1.075461zm-6.58831-3.612144c-1.586-.813788-2.89569-1.600271-2.91042-1.747739-.0147-.147468 1.40197.449439 3.14822 1.326458 2.86043 1.436593 3.68074 1.977916 2.91042 1.920586-.14552-.01083-1.56222-.685514-3.14822-1.499305zm39.04336 15.068906c4.55965-.07099 9.29316-.132514 10.51891-.136716 2.06653-.0071 2.21234-.05896 2.0047-.713193-.27268-.859144-.0665-.880985 1.10015-.116547.82254.538949 1.6235.553639 9.4244.172833 4.68899-.228896 9.676386-.414574 11.083088-.41262 2.200194.0032 2.558313-.08272 2.562454-.613805.0028-.339548.106899-.998858.231662-1.465132l.226843-.847767-5.787912.220677c-11.734405.447403-19.194405.948517-19.310615 1.29716-.14013.420363-1.82313.482762-1.82313.0676 0-.376206-24.9426-.520968-25.17427-.14611-.0979.15839-.0855.9776.0276 1.820467l.20555 1.532484 3.21017-.265126c1.76559-.145817 6.94079-.323208 11.50044-.394201zm-14.11111-.490411c0-.837632 3.87444-.926302 4.14737-.09491.10515.320315-.44244.440972-2.00131.440972-1.18033 0-2.14606-.155727-2.14606-.346058zm5.90658.13782c-.60137-.601366-.16198-.850096 1.50175-.850096.97014 0 1.76389.15875 1.76389.352778s-.21828.352778-.48507.352778-.94258.0915-1.50175.203338c-.55918.111834-1.13465.08538-1.27882-.0588zm5.02953-.497318c0-.194028.19844-.36855.44097-.38783 2.05642-.163466 2.86802-.08232 2.99686.299636.10607.314452-.36577.440972-1.64455.440972-.9863 0-1.79328-.15875-1.79328-.352778zm5.15515.09868c-.56746-.567465-.0513-.804231 1.75341-.804231 1.35707 0 1.9265.129522 1.83087.41644-.14474.434195-3.2066.765464-3.58428.387791zm4.87807-.05969c-.0749-.07557-.0518-.274006.0513-.440972.25184-.407483 4.37932-.390638 4.37932.01789 0 .308705-4.15099.7051-4.43067.4231zm3.66035-4.007739c.12478-1.084477.77032-1.3424.77032-.307777 0 1.058841.88239 1.544902 2.36904 1.304978 1.42258-.229578 5.28017-.402901 16.328179-.733623 4.040526-.120957 6.864611-.3452 6.843889-.543436-.0194-.185625-.05909-.653525-.08819-1.039774-.05187-.688315-.254501-.698581-10.195278-.516576-5.5783.102133-17.08965.229626-25.58078.283326-9.68856.06127-15.56981.229027-15.79122.450431-.19404.194038-.25963.819125-.14576 1.389083l.20704 1.036285 12.58557-.176389 12.58556-.176389zm19.379345-2.583437 6.790972-.227676v-1.240275c0-1.200965-.03496-1.23329-1.102431-1.019792-.606337.121267-6.321337.220486-12.699996.220486-11.24484 0-11.59757.02081-11.59757.684734 0 1.258101-1.04096 1.214837-1.51223-.06285-.20867-.565715-1.13753-.611654-12.08003-.597416-6.51969.0085-12.08171.102803-12.36003.209607-.29097.111658-.5061.665434-.50617 1.302974l-.00013 1.108784 19.13832-.07545c10.52608-.0415 22.19426-.177906 25.929295-.303124zm-46.125695-2.443646c0-.48507-.15688-.881945-.34863-.881945s-3.40644-1.612279-7.14375-3.582839c-3.73732-1.970564-9.70308-5.068583-13.25726-6.88449-6.33318-3.235762-6.4599-3.282624-6.35-2.348293.0826.702081.53056 1.197136 1.69964 1.878274 2.29015 1.334297 8.70565 4.608561 13.40556 6.841764 2.23132 1.060232 5.64442 2.812345 7.58467 3.893584 1.94026 1.081239 3.72619 1.965889 3.96875 1.965889s.44102-.396875.44102-.881944zm52.133969-.879838c.700088-.0018.79398-.162751.721646-1.236829l-.08315-1.234722h-12.627905c-10.75975 0-12.62789.0752-12.62789.508346 0 .832785-.73776 1.032199-.94116.254391-.18584-.710646-.3341-.717225-12.23529-.542889-6.62594.09706-12.39479.246676-12.81967.332479-.60743.122671-.74795.363018-.65759 1.124757.0632.532811.13303 1.029021.15515 1.102692.0221.07367 11.35116.03493 25.17564-.08609 13.82448-.121017 25.497578-.22098 25.940219-.222137zm-52.133969-2.107703c0-1.05005-.12254-1.353016-.49018-1.21194-.70478.27045-11.46468-5.219904-20.88052-10.654516-4.37885-2.527369-5.79485-2.841749-5.79044-1.285586.003 1.038163.22095 1.192598 3.87781 2.747137 1.06715.453649 3.7659 1.809871 5.99722 3.013828 2.23132 1.203958 6.12069 3.259188 8.64305 4.567179 2.52237 1.307991 5.30049 2.77706 6.17362 3.264591 2.22486 1.242318 2.46944 1.198669 2.46944-.440693zm20.90208-1.063981 5.90903-.0054v-1.114174-1.114171l-9.26042.250768c-5.09322.137926-10.25995.233804-11.48161.213064s-2.92822.06832-3.79236.197901c-1.37094.205585-1.57116.346407-1.57116 1.105003v.869392l7.14375-.198469c3.92906-.109156 9.80281-.200907 13.05277-.203891zm32.014587-1.446407v-1.440981l-9.260417.244052c-8.0033.210922-11.97252.336649-15.34583.486085-.63895.02829-.79375.241569-.79375 1.093495v1.058333h12.7 12.699997zm-53.287237-.587488c-.0177-1.318623-.0289-1.328346-3.43959-2.99612-1.88198-.920261-4.37428-2.229538-5.53845-2.909505s-2.35479-1.347348-2.64583-1.483069c-.29105-.135722-1.87855-1.029792-3.52778-1.986824-7.26371-4.215037-10.31931-5.771264-11.02431-5.614706-.48985.108782-.61736.510633-.61736 1.945675 0 1.344362.10231 1.706263.39862 1.409963.45249-.452496 3.22223.640719 5.95024 2.34856 2.93318 1.836285 19.58336 10.572963 20.19767 10.598113.14552.006.25657-.584483.24679-1.312087zm13.95251-.610355c5.82084-.115658 16.61584-.383314 23.98889-.594797 7.373059-.21148 13.842121-.361657 14.375698-.333728.91071.04767.970139-.03894.970139-1.413884v-1.464665l-1.675695.276269c-.921632.151948-6.676322.371963-12.788192.488923-10.63663.203547-11.1125.241568-11.1125.887839 0 .371351-.19844.741768-.44097.82315-.26572.08916-.44098-.166624-.44098-.643607v-.791572l-9.26041.232285c-5.09323.127755-10.88761.232607-12.87639.233002l-3.61597.000724v1.175924c0 1.451434.24689 1.717573 1.3941 1.502753.49442-.09258 5.66145-.262961 11.48228-.378616zm-13.93472-2.575479c0-1.313184-.0422-1.354414-2.73403-2.673383-3.2167-1.576133-12.52675-6.71804-13.96132-7.710782-2.30371-1.594213-10.56563-5.624513-10.34354-5.045751.12528.326477.22778 1.06623.22778 1.643895s.13825.964859.30722.86043c.27727-.171363 6.70808 2.950647 7.67854 3.72775.22056.176623 1.09369.680882 1.94027 1.120576 3.00251 1.559424 13.55764 7.425896 15.12119 8.404262.87313.54634 1.62719.996365 1.6757 1.000051.0485.0037.0882-.593485.0882-1.327048zm15.69861-.778986c8.21238-.04165 10.81216-.304634 11.02412-1.115169.22095-.844889.81125-.83903 1.03335.01025.16552.632978.62193.656819 10.10933.528066 5.46479-.07416 11.086919-.227264 12.49362-.340227l2.557639-.205388.000007-1.116428.000007-1.116429-16.492373.073c-9.0708.04015-19.66736.216379-23.54792.391619-3.88055.17524-8.04427.29666-9.2527.269824-2.34692-.05212-2.60524.132615-2.31421 1.655021.17228.901205.2721.937186 2.87408 1.035974 1.48259.05629 3.40998.06998 4.28311.03042.87312-.03955 4.1275-.0848 7.23194-.100542zm-15.69861-2.288752c0-.658397-.32601-1.034565-1.32291-1.526434-4.18222-2.063493-13.69484-7.627096-18.60903-10.883784-3.36954-2.23303-6.33023-4.002182-6.69769-4.002182-.12213 0-.17323.666811-.11357 1.481803l.10848 1.481803 3.52931 1.781391c1.94112.979766 5.10748 2.71767 7.03636 3.86201 1.92887 1.14434 4.54756 2.643919 5.8193 3.332398s3.97913 2.15391 6.01642 3.256511c2.03729 1.102602 3.82323 2.02396 3.96875 2.047463.14552.0235.26458-.350438.26458-.830979zm.35155-2.586692c-.001-.788083-.33057-1.126969-1.94028-1.995279-1.23541-.666403-1.93905-1.274477-1.93905-1.675694 0-.799273.0288-.795963 1.83957.211056l1.51182.840792 15.08125-.106747c10.28966-.07283 15.08125.01001 15.08125.260738 0 .254595.13617.25448.44325-.000388.25713-.213402 1.62728-.314268 3.26319-.240225 6.37699.28863 15.799038.138654 16.535571-.263206.711391-.388141.687413-.425182-.486452-.751533-.679097-.188798-5.755429-.40452-11.280729-.479383-9.13969-.123833-10.08553-.08206-10.48411.463031-.34251.468402-.54652.509165-.93495.186805-.32589-.27047-2.78756-.460475-7.15477-.552245-3.66187-.07693-10.2387-.254918-14.61517-.395504-5.87067-.188584-8.29566-.143919-9.24786.170335-1.22679.404875-1.40905.354089-3.68444-1.026652-1.31659-.798928-2.63193-1.591986-2.92297-1.76235s-1.56104-.914561-2.82222-1.65377-3.08681-1.709169-4.05695-2.155466c-2.12338-.97683-6.17361-3.654839-6.17361-4.081992 0-.168097.39688-.206021.88195-.08428.48507.121745.88194.07659.88194-.100335 0-.334025 3.6865-.288251 12.18977.151355 2.70598.139895 5.63433.239926 6.50745.222291.87313-.01763 7.9375-.139029 15.69861-.269766 10.79143-.181783 14.26828-.347112 14.7792-.702772.62987-.438465.6101-.479622-.34561-.719489-.55753-.139931-2.18207-.0861-3.61009.119628-2.08793.300798-2.7802.278152-3.53495-.115636-1.1679-.609348-2.06513-.630282-2.27417-.05306-.11659.321961-.33875.342612-.82315.07652-.3649-.20045-1.4572-.349023-2.42734-.330161-10.3558.201341-18.04998.218171-27.68748.06056-6.30284-.103073-11.60287-.09892-11.77785.0092-.17498.108143.0583.480552.51832.827574.96965.731406.62073 1.390856-.39897.754044-.3766-.23519-.925-.427618-1.21868-.427618-1.0093 0-.52424.882718.84553 1.538707.75426.361219 2.93525 1.653115 4.84665 2.870879 2.89072 1.8417 8.61771 5.329651 18.82109 11.46274 1.81027 1.088125 2.11716 1.047109 2.11544-.282729zm18.87484-15.942375c.11992-.194027.28804-.352777.3736-.352777.0856 0 .15557.15875.15557.352777 0 .194028-.16812.352778-.3736.352778s-.27549-.15875-.15557-.352778zm-1.5875 16.738619c1.06715-.0707 6.14715-.09943 11.28889-.06385 18.985435.131376 22.906817.07064 23.338952-.3615.318336-.318334.277989-.46777-.173016-.640837-.323487-.124133-.588158-.446838-.588158-.71712 0-.716381-2.345648-.64999-2.753007.07792-.218356.390184-.558518.493203-1.080986.32738-.419301-.133081-.671314-.389286-.560031-.569345.11128-.180058.03421-.327379-.171266-.327379-.205479 0-.373599.168119-.373599.373598 0 .205478-.152555.279314-.339009.164079-.186454-.115236-3.55989-.265554-7.49653-.33404-3.93663-.06849-7.31627-.16112-7.51029-.205855-.19403-.04473-1.02747-.06253-1.85209-.03956-1.25019.03484-1.4993.159005-1.4993.747332 0 .886867-.71345.927952-.94193.05424-.16138-.617083-.72046-.647085-10.6385-.570886-15.87818.12199-14.47668.02438-14.72801 1.025759-.41833 1.666768-.19219 1.711924 7.21778 1.44131 3.8059-.138992 7.79295-.310556 8.8601-.381252zm-13.37395-6.018529c4.15421.09441 10.85558.285731 14.89192.425159 7.31948.252839 7.33932.251504 7.53767-.506983.23633-.90371.66571-.977365 1.10645-.189798.28211.504086 1.38105.566875 9.41611.537999 5.0032-.01798 9.160398-.09636 9.238218-.174179.07782-.07782-.424304-.475312-1.115826-.883321-1.203262-.709938-1.791642-.746475-13.685202-.849823-6.83534-.05939-18.44274-.02306-25.79423.08074l-13.36635.188729 1.88115.968672c1.19759.61668 1.96397.834674 2.10906.599913.15247-.2467 2.72798-.311941 7.78103-.197106zm22.45798-2.598974c.0485-.004.0882-.306212.0882-.671638 0-.365425-.27781-.735631-.61736-.822678-.70472-.180665-37.59317.06892-37.77987.255617-.0672.06717.48817.456901 1.23408.86607 1.34206.736182 1.54208.742044 19.17149.561899 9.7984-.100123 17.85496-.185295 17.90347-.18927zm15.60374.229796c-.0933-.08866-.76986-.495762-1.50336-.904668-1.20994-.674501-1.88896-.743466-7.32014-.743466-3.29257 0-5.98649.08981-5.98649.199581 0 .10977.14984.479564.33298.821766.29896.558602 1.06436.630656 7.48986.705087 3.93628.0456 7.0805.01036 6.98715-.0783zm-34.96438-2.559237c12.05317-.115946 19.40496-.317205 19.67163-.538523.29647-.246048.52085-.183555.73871.205742.26647.476162 1.03854.544499 5.20313.460534l4.89022-.09859-1.38229-.95071-1.38229-.950709-11.28889-.107624c-6.20889-.05919-17.08326-.06894-24.16528-.02165-11.36849.0759-16.1247-.05169-16.52396-.443264-.28442-.278944 43.42447-.37733 48.71599-.109657 2.6153.132295 2.92582-.232375.81562-.95783-.74993-.257812-1.496-.677704-1.65795-.933095-.22348-.352427-.29575-.358061-.29985-.02338-.003.25461-.45735.440972-1.0748.440972-.62515 0-1.15377.219829-1.27247.529167-.28529.743449-1.24012.6678-1.11318-.08819.0978-.58241-1.1346-.617546-21.76856-.620627-12.02972-.0018-23.06285-.136091-24.51806-.298433l-2.64583-.295166 1.41111.986613c.77611.542637 1.56986 1.116268 1.76389 1.274734.91488.747205 5.70122 2.97399 6.14086 2.856965.27304-.07267 9.15705-.215447 19.74225-.317272zm22.07182-5.123085c-.24623-.398403-1.21188-.415798-1.21188-.02183 0 .496445.39714.725189.91441.526691.27096-.103976.40482-.331163.29747-.504861zm-26.09227-7.091885c-1.33229-1.580062-1.90556-3.070674-1.66777-4.336517.25501-1.357467 1.09149-2.645743 1.7179-2.645743.58958 0 .59279.04361.0955 1.299951-.57472 1.45205-.4363 3.030448.42678 4.866567.94605 2.012646.71473 2.342293-.57244.815742zm7.2407-.20295c1.22598-1.658225 1.301-3.380516.21849-5.016296-1.11043-1.677974-.70254-1.840812.81351-.324766 1.4484 1.448392 1.55084 3.953807.22037 5.389405-.4758.513402-1.11555.933458-1.42167.933458-.46635 0-.43891-.159144.1693-.981801zm-3.16178-.05334c-.20086-.3753-.36519-1.974441-.36519-3.553645 0-2.544476.0703-2.857805.61736-2.752876.52929.101515.63131.608452.71513 3.553645.0967 3.398761-.18799 4.209045-.9673 2.752876z" stroke-width=".352778" transform="translate(173.05008 -25.700803)"/>
</svg>
