<?xml version="1.0" encoding="utf-8"?>
<svg height="218.25237mm" viewBox="0 0 273.53717 218.25237" width="273.53717mm" xmlns="http://www.w3.org/2000/svg">
	<path d="m-140.18005 237.4289c-.13696-.22161.0548-.74837.42616-1.17058.37136-.42219.86724-1.21827 1.10198-1.76905.38253-.89756.35293-1.02073-.28545-1.18767-1.11156-.29068-.85094-.71516.9201-1.49857 1.91937-.84903 3.65932-.95446 3.65932-.22175 0 1.03543-.47955 1.66669-1.76389 2.32191-1.48136.75573-1.8644 1.41696-1.54894 2.67387.17392.69296.0796.85391-.50063.85391-.39322 0-.94999.0902-1.23728.20044-.28728.11024-.6344.0191-.77137-.20251zm4.34844-5.05301c.0794-.40927-.0541-.52246-.44098-.374-.65216.25026-.76246 1.32369-.11382 1.10772.24253-.0808.49219-.41093.5548-.73372zm-54.57031 4.10385c-.3145-.55383-.46065-.57539-1.12803-.16634-1.23221.75525-1.48889-.0281-.41699-1.27254.88518-1.02768 1.0967-1.10551 2.46748-.90801 1.62422.23401 1.99956.9471.70555 1.34044-.52912.16084-.63644.3054-.32191.43361.25951.10578.64846.0157.86431-.20013.67706-.67707 1.3676-.45468 1.24603.40128-.0933.65697-.36626.81221-1.58392.90085-1.12331.0818-1.55664-.0434-1.83252-.52916zm54.98565-.65616c0-1.29168 1.99255-3.06997 2.89732-2.58576.47745.25553.59856.57284.43047 1.12783-.36181 1.19464-1.5998 2.35976-2.50734 2.35976-.64479 0-.82045-.19309-.82045-.90183zm2.13284-.89227c.21657-.40467.30537-.82417.19732-.93222-.29137-.29137-1.27183.61985-1.27183 1.18202 0 .73036.62808.58434 1.07451-.2498zm-63.10596.90245c-1.46263-.63518-1.31617-1.14527.62335-2.17091 1.17377-.6207 1.66935-.71787 2.20346-.43202 1.01612.54381.14483 1.50298-1.09418 1.20453l-.90812-.21874.88195.60825c.48507.33454.95672.66952 1.04811.74441.21225.17391-.75803.79526-1.2245.78415-.19403-.005-.88256-.23848-1.53007-.51967zm64.50603-.0785c.003-.14552.24237-.94566.53232-1.77809.28996-.83243.43669-1.87408.32608-2.3148-.15783-.62884.005-.89514.75607-1.23741 1.51955-.69235 1.7226-.0413.74328 2.38324-.47998 1.1883-.73173 2.24767-.55945 2.35414.6597.40772.26888.85751-.7451.85751-.58208 0-1.05602-.11907-1.0532-.26459zm-68.33451-.82161c.15262-.58365.071-.68197-.39983-.48148-.65262.27792-1.09618.31273-2.79648.21946-1.30834-.0718-1.55744-.87649-.45411-1.46697.40701-.21783.60957-.58648.49142-.89436-.14533-.37874.0479-.52379.69787-.52379.49438 0 .99012.14764 1.10164.32809s1.07339.43687 2.13749.56982c1.94185.24261 2.57385.89801 1.32724 1.37638-.4853.18623-.51168.29232-.13119.52747.73798.4561.11045 1.0788-1.08719 1.0788-.91864 0-1.0502-.1088-.88686-.73342zm71.69222.31852c-.0896-.25687-.20813-.93577-.26352-1.50865-.0829-.85767.0694-1.10287.86254-1.38859 1.27629-.45976 1.4411-.21569 1.08165 1.6019-.30131 1.52365-1.32584 2.31327-1.68067 1.29534zm2.83597-.49224c-.30491-.3049-.55437-.75797-.55437-1.00682 0-.75098 1.67837-2.31937 2.482-2.31937.93679 0 .75278.75464-.29996 1.23018-.96521.436-1.00759 1.23926-.0654 1.23926.89784 0 .9105.57105.0232 1.04592-.88249.4723-.92964.46667-1.58549-.18917zm-82.05984-.697c-.76007-.91583.23846-2.42102 1.70051-2.56335.82741-.0806 1.13552.0344 1.13552.42344 0 .2937-.22708.66107-.50462.81639s-.47598.59969-.44097.9875c.0819.90761-1.22349 1.13965-1.89044.33602zm85.1038.12247c-.62332-.62332-.51721-1.45952.29597-2.33237.92126-.98886 2.10292-1.02624 2.10292-.0665 0 .65243-.34581.86032-1.23472.74226-.19403-.0258-.005.25086.41947.61472.57769.4949.67101.76282.37042 1.06341-.52244.52244-1.42.51256-1.95406-.0215zm3.28534-.62771c-.11744-.19002-.048-.65477.15431-1.03277.2023-.37801.27203-.93692.15496-1.24202-.16893-.44021.0455-.55472 1.03877-.55472.68841 0 1.34976-.15875 1.46968-.35278.22569-.36518 2.99861-.50684 2.99861-.15319 0 .10977-.16434.50664-.36519.88194-.30738.57435-.24745.68236.37864.68236.51836 0 .70793.18714.62537.61736-.0951.49539-.52497.62891-2.17589.67577-1.94656.0553-2.04698.0172-1.86363-.70556.15518-.61176.004-.53491-.7604.38575-1.00758 1.21405-1.3084 1.35905-1.65523.79786zm-92.0207-.24247c-.61393-.61394-.18633-1.88863.80563-2.40159 1.44204-.74571 2.57363-.70858 2.4121.0791-.0899.43855-.40396.58795-1.0842.51582-1.0446-.11077-1.37559.7476-.42844 1.11106.88804.34077.58988.93076-.47037.93076-.54974 0-1.10537-.10583-1.23472-.23518zm-5.79143-.70556c-.75538-.30215-.48615-1.35342.61736-2.41065.58208-.55767 1.05833-1.21678 1.05833-1.4647 0-.6905 1.39973-1.33363 1.87284-.86051.27947.27947.001.7807-1.00801 1.81621-.7667.78662-1.394 1.76455-1.394 2.17318 0 .77926-.40512 1.04303-1.14652.74647zm2.73402-.23978c0-1.00504 1.12354-2.70003 1.78973-2.70003.80134 0 .91737.98928.15055 1.28353-.29104.11169-.52917.58295-.52917 1.04727 0 .60901-.19656.8442-.70555.8442-.38806 0-.70556-.21374-.70556-.47497zm102.1106-.26062c-.39258-.63521.98481-2.75256 2.02692-3.11584 1.06652-.37179 1.47023-.0655 1.11925.8491-.18417.47995-.0373.56756.79261.4728.82009-.0936 1.01867-.28807 1.01867-.99742 0-.77639.18867-.90735 1.5875-1.10185 1.75351-.24383 2.11667-.14719 2.11667.56327 0 .26343.19843.55115.44097.63938.33197.12078.34486.32425.0522.82315-.49433.84259-1.83944 1.0657-2.11383.35063-.16768-.43694-.36466-.36724-1.04903.3712-.57597.62149-1.07528.84832-1.57799.71686-.40448-.10578-1.27598.0335-1.93668.3096-1.43779.60075-2.15815.63539-2.47722.11912zm1.81445-1.99584c-.24465-.24465-.91394.25243-.91394.67878 0 .23392.20241.20716.53769-.0711.29573-.24543.46504-.51889.37625-.60768zm-110.52158 1.08834c-.29274-.76288 1.39393-2.23747 2.55926-2.23747 1.18606 0 1.09231.80205-.22313 1.90892-1.25196 1.05346-2.01669 1.16101-2.33613.32855zm-4.19685-.25771c-.13181-.34347.48207-1.32691 1.67676-2.68624 1.59363-1.81324 2.04262-2.12857 2.90743-2.04188 2.40256.24084 1.75772 2.60225-.76938 2.81749-.97746.0833-1.38997.34412-1.84321 1.16559-.6552 1.18753-1.65659 1.56594-1.9716.74504zm4.72561-3.10865c.57244-.57244.53316-.98778-.0934-.98778-.28422 0-.68668.3175-.89436.70556-.28997.54181-.26828.70556.0934.70556.25906 0 .66152-.1905.89436-.42334zm93.97705 2.16077c.0695-.20858.27722-.37924.46155-.37924s.39202.17066.46155.37924c.0695.20858-.13817.37923-.46155.37923s-.53108-.17065-.46155-.37923zm-84.32858-1.7198c.0776-.23283.2562-.41142.39687-.39687.42182.0436.34013.5275-.11465.6791-.23283.0776-.35983-.0494-.28222-.28223zm90.61096-1.92316c0-.31431.41621-.64077.97014-.76094.53358-.11576 1.92264-.51379 3.08681-.88451 1.16416-.37073 3.14854-.97799 4.40972-1.34947s3.13237-1.00835 4.1582-1.41527c2.08959-.82887 2.54457-.89826 2.54457-.38807 0 .19347-.51593.58559-1.14652.87138l-1.14653.51963 1.67569-.20589c1.81077-.22249 2.23116.21344.8241.85454-.46839.21341-2.7269.72883-5.01892 1.14538-2.29203.41654-4.40912.88399-4.70465 1.03875-.29553.15477-1.25171.3877-2.12483.51763-.87313.12994-2.02406.31973-2.55764.42178-.72312.13829-.97014.0454-.97014-.36494zm-90.36117-.3788c-.21157-.21157-4.49756-1.20743-6.8291-1.58676-.97014-.15783-3.51014-.61399-5.64444-1.01369-2.13431-.3997-4.91243-.90493-6.17361-1.12274s-2.89158-.62209-3.62312-.89841c-.73153-.27633-1.85071-.50241-2.48708-.50241-1.70893 0-2.04215-.50785-1.44456-2.20161.27456-.77818.4992-1.69298.4992-2.03288 0-1.23817.9127-1.53307 2.36644-.76462.73575.38892 2.3696 1.10306 3.63078 1.58697s4.11868 1.61915 6.35 2.52275c2.23132.90361 6.59032 2.48536 9.68666 3.51501 5.46127 1.81608 7.01243 2.66605 4.86543 2.66605-.56592 0-1.10439-.0754-1.1966-.16766zm-8.24021-3.00734c-.11992-.19403-.37363-.35278-.5638-.35278-.39953 0-7.17008-2.55621-11.71877-4.4244-1.7107-.7026-3.33789-1.19015-3.61598-1.08343-.28141.10799-.50561.65712-.50561 1.23839 0 .95699.15497 1.08899 1.85208 1.57758 2.20425.6346 5.33862 1.35664 9.4368 2.17387 1.64924.32888 3.39549.72619 3.88056.8829 1.2301.39743 1.48629.39491 1.23472-.0121zm116.06388-.35278c.11992-.19403.6149-.35278 1.09997-.35278.49813 0 .78706.15353.66392.35278-.11992.19403-.6149.35278-1.09997.35278-.49814 0-.78706-.15353-.66392-.35278zm2.998611-.29316c0-.47827 1.44635-1.05485 3.70417-1.47666 3.2545-.60801 3.40432-.67753 3.28354-1.52367-.14866-1.04151-1.36121-.91461-6.17515.64623-4.022421 1.3042-4.693111 1.43479-4.693111.91376 0-.40478 10.900541-4.00008 11.467801-3.7824.53701.20607 1.38214 3.20521 1.10598 3.92486-.14185.36965-.47478.48385-1.01519.34822-.44227-.11101-2.19815.12322-3.90196.5205-3.47364.80994-3.77608.84432-3.77608.42916zm-125.831501-15.61012c-.73582-.2722-1.52127-1.95358-1.52127-3.25654 0-.96708-1.01902-4.42597-1.66554-5.65335-.2899-.55038-.64937-1.98661-.79881-3.19163-.14945-1.20502-.68798-3.10098-1.19674-4.21325-.50876-1.11226-.92502-2.32572-.92502-2.69658 0-.37085-.15358-.76919-.34128-.8852s-.91388-2.07006-1.61372-4.34235c-1.77002-5.74704-5.14913-15.28037-6.34106-17.88976-.98602-2.15861-.88377-2.38025 1.49339-3.237 2.39033-.8615 2.93715-.65092 2.00479.77205-.46381.70786-.51162 1.08686-.21833 1.73057.27009.59279.26433.93543-.0205 1.22028-.29288.29288-.23694.39605.21474.39605.33594 0 .67195.19844.74668.44097 2.16639 7.03015 2.82448 9.11912 3.19516 10.14236l.44729 1.23472 5.06712.17639 5.06713.17639v1.05834c0 .92761-.10894 1.04262-.88195.93117-1.96173-.28282-8.11389-.43045-8.11389-.19469 0 .31701 4.10284 13.28942 4.73214 14.96213.89968 2.39138 2.6762 8.33389 2.6762 8.95194 0 .57967.38089.61058 5.20347.42219 2.86191-.1118 7.89287-.28622 11.17992-.3876 3.28705-.10139 6.06518-.27316 6.17361-.3817.10844-.10855.19716-5.46248.19716-11.89762v-11.70027l-4.58611-.004-4.58611-.004v-.87762-.87763l8.99583-.0887c4.94771-.0488 9.2174.0543 9.48821.22898.27081.17472.39485.57181.27566.88244-.18072.47095-.86803.56474-4.13868.56474h-3.92197l.19911 11.86092c.14252 8.49011.32018 12.0068.62513 12.37425.32382.39017.89693.46079 2.38888.29437 1.6188-.18058 11.35761-.41305 21.73677-.51888l2.13504-.0218-.0765-11.90625-.0765-11.90625-1.353-.24426c-.74415-.13434-2.18644-.2534-3.20508-.26458-1.61987-.0178-1.85208-.1102-1.85208-.73708 0-.68546.18098-.71241 4.14513-.61737l4.14514.0994-.12724 3.35139c-.07 1.84327-.1314 3.58952-.13647 3.88056-.0313 1.79544.47914 14.65511.65192 16.42477l.20868 2.13727 1.81822-.2457c1.00002-.13514 2.57812-.1613 3.50687-.0581l1.68864.18758-.0517-13.01102-.0517-13.01101.83253-.23366c.45789-.12852 2.3829-.24949 4.27781-.26883l3.4453-.0352.58879-1.23472c.41592-.87219.82245-1.23472 1.38459-1.23472 1.07233 0 1.38305.61329.69559 1.37292-.31005.3426-.56372.78424-.56372.98143 0 1.00377-1.36197 1.50851-4.70453 1.74346-3.93274.27645-4.07334.3887-3.92571 3.13413.0522.97014.21359 6.26009.35871 11.75544l.26385 9.99155 4.6212-.20533c2.54166-.11294 14.06682-.29865 25.61147-.4127 11.54466-.11405 22.23111-.31097 23.74767-.43761l2.75738-.23024 1.67124-3.88055c.91917-2.13431 1.954371-4.91243 2.300431-6.17361s1.07895-3.20587 1.62864-4.32153l.99944-2.02847h-.82082c-.45145 0-3.018461-1.09861-5.704481-2.44136-2.68601-1.34274-5.67741-2.75226-6.64755-3.13226-5.38597-2.10967-8.87819-3.67394-15.875-7.11089-4.26861-2.09682-8.31674-4.04784-8.99583-4.33559-.6791-.28776-3.21599-1.43264-5.63753-2.54418-4.88024-2.24014-6.18053-2.54014-6.18053-1.426 0 .77907-1.08305 1.09854-1.9093.56321-.42063-.27254-.3862-.58862.22122-2.0305.39567-.93924.9903-2.54265 1.3214-3.56315.63379-1.95341 1.5194-2.73982 2.67306-2.37366.79511.25236.89455.71611.24118 1.12477-.48506.3034-1.87031 3.20286-1.63262 3.41725.22249.20068 3.69585 1.76548 7.19895 3.24324 1.74625.73664 5.15218 2.35296 7.56873 3.59182 2.41656 1.23886 5.35343 2.6555 6.52639 3.14809 2.29733.96477 9.13284 4.13716 10.18087 4.72498.35193.19739 1.93943.89567 3.52778 1.55174 6.73548 2.78209 10.3828 4.36311 11.702111 5.07258.77324.41581 1.68998.75602 2.03721.75602.65594 0 .72009-.12361 2.37998-4.58611.54128-1.45521 1.42715-3.59833 1.96859-4.7625.54144-1.16416 1.03394-2.59291 1.09446-3.175.0605-.58208.75141-2.72521 1.53534-4.7625s1.72409-4.49791 2.08924-5.46805c.92695-2.46267 3.12871-8.15447 3.88926-10.05417.34956-.87313.84131-2.52284 1.09278-3.66604.45406-2.06421.45078-2.08367-.47612-2.82222-.51333-.40903-1.53582-1.03556-2.2722-1.3923s-2.05324-1.04165-2.92637-1.52202c-.87312-.48037-3.09562-1.5763-4.93889-2.4354-1.84326-.85909-4.62139-2.21717-6.17361-3.01796-8.744661-4.51132-24.660221-12.30795-25.124701-12.30795-.17591 0-1.39792-.65022-2.71556-1.44493-1.31764-.7947-2.51406-1.31064-2.6587-1.14652-.71374.80985-1.34631 3.17688-1.00972 3.77832.50456.90161.161 1.05908-1.27601.58482-1.41972-.46855-1.55248-.9486-.59878-2.16509.36277-.46272.7759-1.37382.91806-2.02464.14215-.65082.57144-1.89084.95397-2.7556.52864-1.1951.80282-1.48322 1.14287-1.20099.24606.2042.55184.26683.67951.13916.12766-.12767.23212.0925.23212.4892 0 .39673-.35719.98582-.79375 1.30909l-.79375.58777.95-.19363c.68257-.13912 1.3777.0923 2.46943.82203.8357.55861 1.91633 1.13745 2.4014 1.28631s3.18382 1.42254 5.99722 2.8304c2.81341 1.40786 5.70838 2.74635 6.43328 2.97442.72491.22808 1.40181.55027 1.50422.71599.10242.16572.77119.49436 1.48617.73032.71496.23596 2.02243.85402 2.90549 1.37346s2.12107 1.1233 2.75113 1.34192c.63007.21861 1.66194.77693 2.29306 1.24071s2.020611 1.20494 3.087761 1.64702c1.73223.71762 8.15819 3.8854 14.41923 7.10821 2.16756 1.11573 2.26586 1.13346 2.73403.4932.2671-.36527.48563-.95762.48563-1.31632s.3175-1.27453.70556-2.03519c.38805-.76065.70555-1.63303.70555-1.93863s.23714-.91755.52697-1.35989.6192-1.50832.73193-2.36884c.18925-1.44471.12861-1.60768-.79155-2.12707-.54808-.30937-3.61589-2.0956-6.81735-3.96941-3.20145-1.87381-6.49334-3.68444-7.31531-4.02362-1.80118-.74327-1.93076-1.0071-1.26486-2.57546l.5164-1.21624.48067 1.13129c.55089 1.29655 2.25793 2.46184 7.40671 5.05611 5.25187 2.6462 6.6415 3.45175 7.2885 4.22505.73775.88177 1.22974.8869 1.69493.0177.55674-1.04028.44671-1.42077-.51676-1.78708-1.12756-.4287-1.12805-.98313-.001-1.26597.57956-.14546 1.45436.0634 2.55764.61064 1.56455.77604 1.66892.91202 1.55895 2.03126-.0648.65975-.49443 2.00912-.95468 2.99861-1.09837 2.36137-2.29737 5.41561-2.64513 6.73796-.15307.58208-.62242 1.93146-1.04298 2.99861s-1.12621 3.05153-1.56811 4.40972c-1.03409 3.17834-1.60826 4.4415-2.3605 5.19306-.44406.44367-.66279.49112-.81301.17639-.11304-.23681-.12653.20444-.03.98055.11389.91555-.0909 2.21641-.58304 3.70417-1.50399 4.54628-3.02964 8.1721-3.53503 8.40127-.13462.061-.16709.31342-.0721.56083.0949.24743-.0633.64565-.35163.88495-.28834.2393-.43786.66021-.33228.93535.19077.49713-.45459 2.73838-1.6765 5.82227-1.22931 3.10258-3.14331 8.623-3.14341 9.06634-.00006.24606-.57054 1.83356-1.26772 3.52778-.69719 1.6942-1.80555 4.66037-2.46303 6.59147s-1.57006 4.31235-2.02794 5.29167c-.73426 1.57042-1.32203 2.98693-2.378561 5.73235-.16441.42723-.77578 1.02337-1.35858 1.32475-1.04647.54115-1.57055.57098-12.02372.68435l-3.35139.0363.0723-1.01303c.0783-1.09705-.12885-1.0384-.75237.21304l-.3986.79999-10.39677.0838c-5.71827.0461-15.15932.15959-20.98015.25224-5.82083.0926-17.56832.23197-26.10555.3096-16.23718.14766-43.87412.58271-46.94165.73894-.98235.05-2.11342-.0301-2.51347-.1781zm74.48441-2.3215c-.83082-.60751-1.21679-.59884-1.21679.0273 0 .58141.66823.88634 1.37241.62625.38631-.14269.35326-.28149-.15562-.65359zm27.14807-.33532c.15966-.41606.0675-.51063-.34389-.35278-.30911.11862-.63778.21567-.73037.21567-.0926 0-.0702.15875.0497.35278.3236.52359.77758.42802 1.02459-.21567zm21.72958-.46907c0-.18258-.15875-.43007-.35278-.54999-.19403-.11991-.35278.0295-.35278.33196 0 .30249.15875.54999.35278.54999s.35278-.14938.35278-.33196zm-50.27083-27.83147c0-.63805-.69049-.52157-.82744.13959-.0762.36784.056.52912.35277.4302.26107-.087.47467-.34342.47467-.56979zm-82.08896-4.12507c-.10862-.10862-.30588.0872-.43836.43509-.19144.50278-.15092.5433.19749.19748.24109-.2393.34949-.52396.24087-.63257zm159.170901-41.29507c0-.62298-.75945-.51449-.97749.13964-.0768.23041.11171.41893.41892.41893s.55857-.25136.55857-.55857zm-143.227771 65.08907c-1.51896-1.02698-1.5987-1.1676-1.84681-3.25677l-.2593-2.18345 1.67042-1.48576c2.05037-1.8237 2.97444-1.88701 5.24652-.35944l1.71556 1.15342-.12327 2.10978c-.13649 2.33598-.32024 2.6627-2.31091 4.10887-1.72173 1.25079-2.12676 1.24221-4.09221-.0866zm4.18199-1.15224c.48602-.51734.85378-1.47555.98161-2.55763.22907-1.93903-.13416-2.46332-2.30199-3.32277-1.17419-.46551-1.21862-.44893-2.51223.9379-1.17045 1.25478-1.29254 1.55552-1.09773 2.70415.15961.94106.55481 1.52866 1.45391 2.1617 1.56344 1.10079 2.495 1.12134 3.47643.0767zm25.89231.62142-1.85208-1.25096.0134-2.35839.0134-2.35839 1.90575-1.32291c2.26296-1.57089 2.91876-1.62436 4.78387-.3901 1.5997 1.05864 1.83663 1.67343 1.68292 4.36681-.10689 1.87293-.14667 1.93677-2.02137 3.24434-1.05179.73359-2.08366 1.33083-2.29306 1.32718-.20939-.004-1.21415-.56956-2.2328-1.25758zm4.39805-1.12653c.9511-.80511 1.14742-1.23214 1.2125-2.63741.0814-1.75754-.0461-1.94378-2.20712-3.22528-.86823-.51485-1.00916-.48667-2.59467.51883-1.38048.87547-1.63974 1.20066-1.46797 1.84129.11473.42791.21352 1.25428.21952 1.83636.008.78554.30359 1.26293 1.14638 1.85209 1.47541 1.03139 2.30255.98974 3.69136-.18588zm124.294871.2821c-.66961-.1654-1.42042-.57825-1.66845-.91745s-.86835-.66123-1.37849-.71562c-.51014-.0544-1.19394-.33999-1.51956-.63467s-.91476-.45138-1.30922-.34823c-.41778.10925-.90903-.0436-1.17671-.36615-.25274-.30452-.83138-.55369-1.28586-.55369-.46529 0-.99133-.30828-1.20394-.70555-.21262-.39728-.73866-.70556-1.20394-.70556-.45448 0-1.02184-.23557-1.26079-.52349-.36048-.43434-.24807-.62958.66012-1.14652.60203-.34268 1.09559-.82148 1.09682-1.06402.001-.24253.39911-.44097.88418-.44097 1.1806 0 1.12838.82933-.0882 1.40074-.53357.25061-.77885.52506-.54507.60989.23379.0848.99353-.11552 1.68831-.44521 1.52633-.72429 2.09436-.35882.9209.5925-.8126.65878-.82021.70515-.19117 1.16512.8318.60822 1.44748.37467 1.70372-.6463.1301-.51835.69794-.99527 1.61299-1.35471l1.4122-.55473-.12213 1.11566c-.10783.98493-.24969 1.11565-1.21073 1.11565-1.03317 0-2.16322.66576-1.78019 1.04878.0982.0982.64533.27194 1.21578.38603.89454.17891 1.29219-.0371 2.89126-1.57023 1.14674-1.09948 2.05345-1.70116 2.37667-1.57713.94075.361.54796.98716-1.40619 2.24172-1.92674 1.23695-2.49156 2.12759-1.3344 2.10416.33954-.007 1.01423-.23937 1.4993-.51666s1.31851-.50979 1.85208-.51667c1.39202-.0179 1.32854 1.20466-.0882 1.69853-.58208.20292-1.05833.47355-1.05833.60142 0 .12786.21878.14853.48617.0459.2674-.10261.64723-.0255.84408.17133.46775.46775 1.84475-.24481 1.84475-.95461 0-.57116 1.07837-.70139 1.60514-.19385.18432.1776.73201.37604 1.21708.44097.6074.0813.88194.3377.88194.82363 0 .59135-.25694.71612-1.5875.77083-.87312.0359-2.14312.14505-2.82222.24256-.6791.0975-1.78259.042-2.45221-.12342zm-95.158211-4.32956c-.15697-.24253-.2854-1.39347-.2854-2.55764v-2.11666l-1.23072-.17639c-.80175-.11491-1.27187-.39157-1.34878-.79375-.1039-.54328.19726-.61736 2.50953-.61736 1.44518 0 3.14496-.10347 3.77728-.22994 1.66012-.33202 1.23135.6567-.47091 1.08591-1.2175.30697-1.2985.41398-1.33518 1.76388-.0215.7904-.009 1.80269.0277 2.24952.11191 1.36219-1.03448 2.33345-1.64352 1.39243zm4.51421-.0435c-.59275-.71421-.37142-4.52293.27523-4.73647.38385-.12675.4372.11333.2486 1.11866-.15164.80832-.10424 1.28004.12863 1.28004.20282 0 .36876-.17642.36876-.39204 0-.25891.43043-.31129 1.26762-.15423 1.26495.23731 1.26712.23554 1.0303-.84268-.18356-.83576-.11583-1.08049.29906-1.08049.79985 0 .8707.3164.62564 2.79397-.24218 2.4485-.98341 3.31792-1.1702 1.37258-.0942-.98072-.25352-1.16794-.99409-1.16794-.67407 0-.90977.20787-1.00001.88194-.16025 1.19704-.56606 1.54538-1.07954.92666zm13.44181-.0683c-.88416-.61929-1.83726-2.63367-1.83726-3.88306 0-.48227.53256-1.3391 1.28884-2.07358 1.05572-1.0253 1.55343-1.25171 2.75167-1.25171 1.38431 0 2.30949.46465 2.30949 1.1599 0 .17228-.60619.21081-1.34709.0856-1.56838-.26497-2.67927.46122-3.02145 1.97511-.39374 1.74203 1.92775 3.55725 3.45576 2.70213.31108-.17408.71615-.22347.90017-.10974.52837.32656.005 1.24252-.70987 1.24252-.35584 0-.7451.15875-.86502.35278-.33219.53749-2.03892.42081-2.92524-.19999zm-7.83448-1.34106c0-.86693-.0777-1.78767-.17269-2.04607-.31338-.85263.3883-1.38209 1.92914-1.45564.98522-.047 1.57593.0891 1.6809.3874.11324.32178-.1365.42774-.83146.35278-1.21965-.13156-1.63975.9388-.50929 1.2976.92189.2926.9312.75226.0201.99053-1.16198.30386-.79872.90581.61736 1.02301 1.9801.16388 1.43475.7998-.7897.92085l-1.94433.1058v-1.57626zm14.06933 1.27646c-.023-.14552.004-.42333.0589-.61736.0553-.19403.11382-1.30528.12997-2.46944l.0293-2.11667h1.5875c1.99809 0 2.25785.9399.35278 1.27648-.69507.1228-.90042.23844-.46983.26458 1.81873.11042 2.6735 1.10477.94969 1.10477-.83692 0-1.85046.80841-1.87976 1.49931-.006.14552.78253.26458 1.75267.26458 1.33272 0 1.76389.12936 1.76389.52917 0 .41158-.47037.52917-2.11666.52917-1.16417 0-2.13547-.11907-2.15845-.26459zm5.58489.0457c-.13829-.13829-.25144-1.34788-.25144-2.68796 0-2.13006.0777-2.42174.61736-2.31903.48698.0927.6397.54514.72316 2.14254l.1058 2.02504h1.24651c1.84583 0 1.30892.85852-.61688.98641-.86518.0575-1.68621-.009-1.82451-.147zm4.48092-.61432c-.1014-.26427-.1361-1.4152-.0771-2.55764.0807-1.56352.23811-2.07717.63642-2.07717.39795 0 .55568.51223.63608 2.06572l.10691 2.06572 1.65698-.24664c.91133-.13565 1.68326-.27147 1.71538-.30183.0321-.0304.36003-.92815.72869-1.99509.77646-2.24719 1.65474-2.70932 2.22844-1.17258.20447.5477.66593 1.56675 1.02547 2.26456.81119 1.5744.43801 2.57396-.60766 1.62764-.8757-.7925-1.70903-.76216-2.80792.10222-1.09433.8608-4.93444 1.0257-5.24167.22509zm6.9093-2.53896c0-.3025-.15875-.45188-.35278-.33196-.19402.11992-.35277.36741-.35277.54999 0 .18257.15875.33195.35277.33195.19403 0 .35278-.24749.35278-.54998zm2.82506.99096c.002-.92164-.0381-2.15195-.0882-2.73403-.0753-.87496.0527-1.07868.73858-1.17577 2.00493-.28379 3.23694.72137 2.52186 2.05751-.27928.52184-.13625.86812.70682 1.71119.58133.58133 1.05696 1.22792 1.05696 1.43688 0 .76076-1.11093.35082-2.31657-.85481-1.43174-1.43174-1.56326-1.48456-1.31293-.52729.18474.70645-.41423 1.76201-.99984 1.76201-.17028 0-.30831-.75406-.30671-1.67569zm2.422-2.05709c.0725-.0645.0327-.37552-.0884-.69106-.28958-.75465-.95947-.50472-1.3297.4961-.26338.71198-.20973.77212.49548.55538.43495-.13369.85013-.29588.92261-.36042zm31.822461 1.8755c-1.36121-.69452-1.23236-1.15037.67029-2.3713.9816-.62989 2.08236-1.52364 2.44614-1.98611.76615-.974 1.66534-1.06854 2.77444-.2917.90556.63428 1.01828 1.6395.25489 2.27306-.29105.24154-.52917.66019-.52917.93032 0 .7472-2.13785 1.88975-3.52778 1.88538-.6791-.002-1.61906-.19998-2.08881-.43965zm4.04986-1.13463c.59272-.45222.61364-.57007.15562-.87654-1.069-.71529-3.175-.054-3.175.99692 0 .58223 2.21419.49395 3.01938-.12038zm1.28451-2.72309c-.32926-.32926-.52068-.32599-.86136.0147-.34885.34886-.33149.50388.0853.76143.70744.43722 1.34844-.20378.77611-.77611zm-208.138881 2.82222c-.60323-.60324-.5257-1.13856.26909-1.85783.81144-.73434 1.76404-.49053 2.02805.51906.1946.74413.6331.91827.96402.38283.4333-.7011-.31325-1.47221-1.78383-1.8425-1.76731-.44501-1.96608-.99117-.59285-1.62892 1.24184-.57673 2.73894-.56169 3.23205.0325.47719.57498.1791.92999-.80629.96024-.58988.0181-.50864.1352.41157.59317 1.39047.69201 1.46419 1.55263.21701 2.53366-1.03359.81302-3.25965.987-3.93882.30783zm230.028741-.289c-.43657-.17779-.79375-.58371-.79375-.90204 0-.4338-.21081-.52587-.84158-.36755-.53256.13366-1.0018.0182-1.27792-.31454-.23999-.28917-.69471-.52815-1.0105-.53107-1.08886-.01-3.39664-.98631-3.4972-1.47939-.0586-.28718.57798-.8333 1.51906-1.3033 1.40703-.70271 1.75633-.75248 2.65845-.37881 1.29751.53744 1.3249 1.15921.0761 1.72819-.8846.40305-.91002.46787-.31428.80127.71707.40129 2.33506-.12962 2.33506-.76619 0-.55565 1.62283-.42622 2.11666.16882.24155.29104.65786.52917.92514.52917.26729 0 .48598.22875.48598.50834 0 .65682-.79757 1.15591-.97872.61245-.2315-.69448-1.13795-.46322-1.13795.29032 0 .52348.23519.70556.91134.70556.5722 0 .8567.1641.76452.44097-.18881.56705-.937.66645-1.94044.2578zm-34.21945-1.8485c-1.53847-.77284-1.97159-1.76855-.94128-2.16392.88276-.33875 1.20587-.25434 1.20587.31503 0 .67718.39299.66681 1.89624-.05 1.31572-.62743 2.33709-.46165 2.33709.37934 0 .2903-.3175.69775-.70555.90543-.38806.20768-.70556.61014-.70556.89435 0 .73194-1.30844.61317-3.08681-.28019zm-3.77308-1.64132c-.10932-.17687.55884-.87772 1.48479-1.55743.92596-.67972 1.98314-1.56688 2.34929-1.97146.65835-.72747.6557-.73562-.23922-.73562-.81768 0-4.07348 2.20582-4.6625 3.15886-.38083.61621-1.24469.41239-1.24469-.29368 0-.40598.75144-1.18013 1.94028-1.99891 2.15293-1.48279 2.42528-2.00207.97013-1.84976-.7688.0805-.97013-.0449-.97013-.60401 0-.99398 1.31857-1.09336 2.98465-.22494.74975.39079 1.93273.81737 2.62885.94796 1.34643.2526 1.74287.86448.56011.86448-.38806 0-.70556.21869-.70556.48597s-.25208.69518-.56018.95088c-.50374.41807-.48597.49236.17639.73738 1.21755.4504.89185 1.10842-.42624.86115-.90847-.17043-1.425-.0247-2.36159.66629-1.3024.96088-1.62083 1.05401-1.92438.56284zm28.55572-.73673c-.11991-.19403-.11598-.51789.009-.7197.14702-.23789-.0935-.28653-.68395-.13834-1.37914.34614-2.08468-.0336-1.63246-.87854.34025-.63577.27364-.67329-.86674-.48824-1.513.24553-1.74074-.60664-.33347-1.24784.49601-.22599.81092-.55801.6998-.7378-.11112-.1798-.0556-.41739.12332-.52799.37583-.23227 3.91948 1.52431 3.91948 1.94288 0 .15359.42433.32949.94294.39089 1.35262.16012 1.43524.93911.14721 1.38811-.59958.20902-1.09015.60263-1.09015.87469 0 .56654-.90779.67086-1.23472.14188zm-218.786701-2.55764c-.18592-.2505-.28648-4.02184-.23283-8.73125.0519-4.55965.0746-9.08403.0503-10.05417s-.0433-6.49969-.0422-12.28789l.002-10.52401-1.24453.23348c-1.56308.29323-10.43392.2897-11.36094-.005-1.93758-.61497-.15305-.87678 5.9762-.87678h6.66545l.0345-.79375c.10869-2.50089-.0495-6.0989-.29672-6.74913-.15745-.41413-.21293-1.54546-.12328-2.51407.0897-.96861.14426-1.99923.12136-2.29027-.0229-.29105-.0522-.88636-.0651-1.32292-.0176-.59559-.23436-.79375-.86812-.79375-.78638 0-.84462-.13095-.84462-1.89913 0-1.60245.11022-1.92796.70555-2.08364.48679-.1273.71443-.49555.73418-1.18768.10063-3.52766.15642-3.8144.76513-3.93311.53075-.10351.62582.19256.6777 2.11033.0332 1.2269.0729 2.54823.0882 2.93628.0153.38806.17117.92808.34633 1.20005.37438.58128-.73571 1.56423-1.45488 1.28825-.2481-.0952-.4511-.0193-.4511.16861 0 .53114 1.30025.40217 1.88988-.18746.29105-.29104.7109-.52917.93301-.52917.70537 0 .20522 1.2203-.65065 1.5875-.74737.32065-.8022.50613-.60205 2.03672.1211.92617.20491 3.30742.18624 5.29167-.0473 5.02618.019 7.08825.23467 7.30358.10177.10158 3.02915.12741 6.5053.0574 5.6289-.11339 6.32027-.0651 6.32027.44097 0 .60724-1.71802.72291-9.6538.64997l-3.48018-.032.20528 2.18002c.11291 1.19901.17962 4.24377.14824 6.76613-.0314 2.52236-.0256 5.60116.0127 6.84177.041 1.32568-.1031 2.46398-.34954 2.76092-.32845.39576-.30956.57314.0872.81855.421.26043.4926 1.72957.42419 8.70436-.0453 4.61509.0551 9.34356.22294 10.50773.31685 2.19727.036 3.35139-.81541 3.35139-.26046 0-.62084-.19844-.80084-.44097zm212.150811-.31885c-.83109-.46511-.74419-1.09469.2845-2.0611 1.23658-1.1617.79345-1.34356-.53994-.22159-1.12252.94454-2.24498 1.16115-3.12605.60327-.2708-.17148-.40057-.55102-.28836-.84343.1654-.43101-.10636-.52123-1.43553-.47658-1.25086.042-1.66718-.0792-1.75614-.5112-.16009-.77751 1.41284-1.73279 3.00668-1.82603 1.09479-.064 1.33608.0467 1.42285.65314.0849.59351.30057.70149 1.15152.5766.57587-.0845 1.5299.0463 2.12007.2908.80561.33369 1.17366.34385 1.47675.0408.65133-.65133 1.67371-.4847 1.67371.27279 0 .43164-.47885.91048-1.32292 1.32292-.99527.48632-1.2974.83224-1.2199 1.39673.1201.8748-.59337 1.26077-1.44724.78292zm-1.15407-2.62931c.5764-.22119.77763-.8442.27267-.8442-.15695 0-.59351.23307-.97014.51795-.6991.52877-.30756.71192.69747.32625zm-3.12538-1.36215c.57529-.43513.59298-.51974.11062-.52917-.31579-.006-.77179.22691-1.01333.51795-.56288.67823.0114.68537.90271.0112zm-41.517381-.29465c-.898-1.01367-3.1205-2.96606-4.93889-4.33864-7.96208-6.01005-10.77642-8.01789-11.68463-8.33615-1.05562-.36992-1.26016-.88736-.47055-1.19036.61001-.23408 6.43753.64833 13.08235 1.98094 2.71639.54477 6.36764 1.18431 8.11389 1.42119 1.74625.23689 3.27612.58895 3.3997.78237.21514.3367-.16357 1.30757-2.64099 6.77059-1.67438 3.69221-2.20447 4.59736-2.74013 4.67884-.26841.0408-1.22275-.75512-2.12075-1.76878zm3.61747-2.97976c2.41954-5.20033 2.60438-5.75539 2.03633-6.11505-.27132-.17179-1.28705-.31856-2.25719-.32616-.97013-.008-2.39888-.17465-3.175-.37122-.77611-.19657-2.20486-.48911-3.175-.65009-.97013-.16099-3.35138-.61895-5.29166-1.0177-6.3783-1.31082-6.6814-1.24645-3.61597.76799 4.99416 3.28189 8.9832 6.27902 11.66469 8.76415 1.20001 1.11213 2.22588 2.02495 2.27972 2.02847.0538.004.74417-1.38265 1.53408-3.08039zm-112.54099 3.69896c-1.03447-.53515-.86976-1.18024.26393-1.03368 1.36814.17688 2.16594-.85748 2.16594-2.80816 0-1.28411.1316-1.70921.52916-1.70921.29104 0 .52917.18336.52917.40746 0 .23249.2998.13613.6982-.22441.5712-.51693.73288-.54149.88885-.13503.29159.75986-1.40165 3.96659-2.64839 5.01566-1.26953 1.06824-1.29438 1.07323-2.42686.48737zm144.995071-.9309c-.5299-.33563-.24903-1.09237.40545-1.09237.22374 0 1.07433-.65514 1.8902-1.45586 1.33312-1.30835 1.60789-1.43251 2.71194-1.22538 1.32708.24896 2.20386 1.0157 1.83813 1.60746-.33503.54209-1.13822.44786-1.37185-.16094-.11168-.29104-.55729-.52917-.99024-.52917-.61225 0-.6931.0941-.36385.42333.68504.68504.49291.98778-.62687.98778-.73092 0-1.22587.26812-1.62807.88195-.60973.93057-1.06686 1.06863-1.86484.5632zm-154.736041-1.44518c-.38863-.62883.16583-1.04476.98263-.73711 1.21647.45819 2.34989-.16155 4.89044-2.67404 2.36096-2.33489 3.39743-2.67014 2.96824-.96009-.279 1.11165.37056 1.09404 1.42014-.0385.7182-.77495 1.90939-1.21039 1.90939-.69799 0 .10117-.41516.81129-.92257 1.57804-.65922.99614-.8587 1.64853-.69883 2.28549.19492.77665.10933.8914-.66494.8914-1.02376 0-1.12938-.55767-.32351-1.7082 1.0302-1.47083.093-1.31613-1.26562.2089-.73462.82462-1.59192 1.4993-1.90511 1.4993-.66232 0-.73592-.39795-.17696-.9569.21586-.21586.32363-.59898.2395-.85138-.10215-.30644-.43766-.12971-1.00983.53192-.47127.54496-1.28553 1.21383-1.80948 1.48638-1.10126.57287-3.31394.6598-3.63349.14276zm182.346701-.0637c-.15032-.24324.0612-.62805.50835-.92497.42117-.27965.76577-.74606.76577-1.03646 0-.38765-.33617-.2716-1.26456.43652-.91881.7008-1.37055.85854-1.65218.57691-.48742-.48742-.13857-.85252.88844-.92981.64153-.0483.77184-.23975.68014-.99936-.0888-.73508.0362-.93964.57416-.93964.37819 0 .88524.23812 1.12678.52916.24154.29105.64849.52917.90432.52917.68531 0 .93049.58923.5445 1.30857-.18644.34744-.42496.90952-.53005 1.24907-.22131.71506-2.13457.866-2.54567.20084zm-163.755311-.35963c-.5292-.5292-.54865-2.44344-.0362-3.56803.77493-1.7008 4.61975-2.6373 6.16007-1.50044.51768.38208.58573.60596.27886.91745-.30944.3141-.7073.30306-1.6739-.0465-1.14263-.41318-1.36405-.38697-2.23991.26511-1.28854.95934-1.81914 2.42497-1.12809 3.11602.73693.73693 2.18352.30593 1.90617-.56793-.14564-.45886-.0371-.66182.35396-.66182.85819 0 1.0571.99965.35358 1.77703-.71752.79284-3.27742.96616-3.97449.26908zm131.079651-.56364c-1.78016-1.01581-2.05814-1.58039-1.06341-2.15977.33955-.19777.45861-.35878.26458-.35781-.19402.001-.74965.22865-1.23472.50594-2.06904 1.18277-1.92626-.0396.18143-1.55323.87589-.62902 1.50152-1.29093 1.39029-1.47092-.4237-.68556-1.91422-.28005-3.33561.90748-1.39092 1.16209-2.46944 1.58049-2.46944.95801 0-.15219.43656-.53525.97014-.85124.53357-.31598 1.35681-.98714 1.8294-1.49145l.85927-.91694-1.12385.22477c-.99818.19964-1.12385.13558-1.12385-.57283 0-.74615.1058-.7831 1.6401-.57281.90206.12365 1.81487.36266 2.02847.53115.21361.16849.98369.49809 1.71129.73245s1.32292.52263 1.32292.6406-.34518.58191-.76705 1.03097c-.42188.44907-.58063.81649-.35278.81649.67759 0 .47046 1.00344-.29128 1.41111-.8455.4525-.91091 1.00168-.1539 1.29217.33655.12915.75704-.0815 1.07834-.54024.33465-.47778.90524-.75193 1.565-.75193 1.23068 0 1.3916.77089.31792 1.52293-.39623.27752-.67404.71366-.61736.96919.17902.80709-.89695.68249-2.6259-.30409zm-124.263421-.33594c.14273-.33955.34212-1.01424.4431-1.49931.23665-1.1368.66269-1.39909 2.28331-1.40571 1.63932-.007 1.67827.34834.12969 1.1823-.65627.35343-1.36725 1.02453-1.57994 1.49134-.4536.99555-1.69172 1.22003-1.27616.23138zm4.08891.33657c-1.33527-.44509.44135-2.69425 2.59871-3.28993 1.81708-.50172 2.22537.0117 1.08605 1.36574-.7588.90178-.81426 1.10487-.35029 1.28291 1.53856.59041-1.64838 1.20331-3.33447.64128zm2.05101-1.27531c.65634-.79083-.15797-.97897-.8634-.19947-.53127.58704-.54555.69723-.0903.69723.29736 0 .72654-.22399.95375-.49776zm3.0939 1.33134c-.12362-.12363.11962-.70841.54054-1.29953.52181-.73281.63073-1.11962.34235-1.21575-1.13088-.37696-.18434-.73137 1.87011-.70022 1.26118.0191 2.29306.0931 2.29306.1643s-.3362.58426-.7471 1.14004c-.41091.55578-.63967 1.18435-.50835 1.39682.14346.23213-.0512.38632-.48762.38632-.41048 0-.72637-.23013-.72637-.52917 0-.75982-.81185-.65209-1.32925.17639-.4518.72345-.85088.87728-1.24737.4808zm5.29364-.35081c-.94643-.94643.39502-3.10412 2.22186-3.57383.98244-.2526 1.22781-.48491 1.20088-1.13699-.0186-.45074.23568-1.08906.56512-1.4185.56345-.56345.62399-.55891 1.02076.0764.51268.82093.21598 1.88736-.89475 3.21596-.99281 1.18756-1.05134 1.61439-.21631 1.57751.33955-.015 1.05392.0915 1.5875.23656 1.07468.29225 1.17017.14528.55039-.84714-.3306-.52937-.31828-.79438.058-1.24777.50333-.60648 2.21839-.61553 2.04841-.0108-.0545.19403-.30889.32885-.56523.2996-.34944-.0399-.40847.28769-.23592 1.30901.21173 1.25327.15739 1.38043-.67968 1.59053-.5004.12559-1.18798.10987-1.52796-.0349-.64923-.27652-2.46697-.25982-3.98654.0366-.49443.0965-1.01036.064-1.14653-.0722zm2.19704-1.49472c.19403-.36254.25218-.75976.12924-.88271-.25227-.25226-1.51553.78449-1.51553 1.24379 0 .56574 1.03447.29631 1.38629-.36108zm15.56366 1.38247c-.2819-.17834-.96578-.2336-1.51973-.12281-.82205.16441-1.04341.0629-1.20429-.5523-.24616-.94133-.40022-.94002-1.41361.012-1.01484.9534-1.45881.60854-.70253-.54569.52073-.79474.51765-.87804-.0404-1.09307-.92024-.35458.0629-.76723 2.31688-.97249 2.10859-.19201 2.48953.0579 1.48042.97109-.92525.83734-.90783 1.56899.0315 1.32335.40081-.10481 1.11987.0188 1.59791.2746.74161.3969.95109.38326 1.42727-.0929.50894-.50894.49536-.57801-.15421-.78417-1.625-.51576-1.1465-1.995.67357-2.08223 1.39465-.0668 1.73082.9251.37847 1.11675-.78579.11137-.7948.14851-.24098.99375.45117.68857.48478.98717.15576 1.38362-.47169.56835-2.00845.6624-2.78602.17051zm-9.35217-.3494c-.30633-.49565 1.89767-2.84334 2.66932-2.84334.85475 0 .84526.58854-.0327 2.02847-.69243 1.13568-2.15837 1.58874-2.63665.81487zm2.10361-1.07945c.11992-.19403.0593-.35278-.13475-.35278-.19403 0-.45089.15875-.5708.35278-.11992.19403-.0593.35278.13475.35278.19402 0 .45088-.15875.5708-.35278zm127.617351.8247c-1.42734-.57595.41444-2.58859 2.36884-2.58859 1.46511 0 1.41598.99642-.10002 2.02847-1.183.80536-1.47958.87858-2.26882.56012zm1.93293-1.39062c-.11722-.11722-.4215-.12975-.67616-.0278-.28142.11261-.19783.19621.21314.21313.37188.0153.58025-.0681.46302-.18528zm-4.25538-.022c-.46498-.46498-.21978-1.06495.6186-1.51363.49042-.26247.77463-.66318.66781-.94156-.11108-.28946.0468-.48463.39201-.48463.93166 0 1.09091 1.04062.24944 1.63001-.41357.28966-.75194.75579-.75194 1.03583 0 .52102-.75335.69655-1.17592.27398zm-2.25373-1.21892c-.47036-.47036-.20309-1.36812.40729-1.36812.56641 0 2.14971-1.6958 1.85679-1.98872-.12519-.12519-.93305.35043-1.79525 1.05694-1.67228 1.3703-2.6665 1.56529-4.11824.80769-.49801-.25988-1.33144-.57942-1.85209-.7101-1.11813-.28063-1.23285-1.09775-.24107-1.71712.91113-.56901.88907-.77508-.15625-1.46-.78009-.51114-.91389-.51259-1.41111-.0154-.7503.75029-.69017 1.08533.23836 1.32815.61467.16074.69426.29939.36235.6313-.32667.32667-.63439.33006-1.32673.0146-1.24236-.56605-1.47474-1.39159-.62962-2.23671.80431-.8043 3.62856-1.33923 3.62856-.68726 0 .22438.39687.55886.88194.74328 1.03496.39349 1.1245.95709.26459 1.6656-.57693.47534-.57115.49225.0882.25811 2.15817-.7664 3.17559-.36417 1.5875.6276-.9382.58591-.89225.97646.1149.97646 1.14368 0 2.38459-1.39638 2.12457-2.39074-.2725-1.04203.58022-1.04156 2.78761.001 1.54325.72927 2.25389 1.68362 1.25369 1.68362-.23211 0-1.02901.42065-1.77089.93478-.99244.68776-1.29414 1.10726-1.14172 1.5875.2337.73634-.50861.90172-1.15337.25696zm5.7664-2.61619c-.12064-.31439.0218-.63078.33875-.75241.65876-.25279 1.37961.37431 1.04767.91141-.34618.56012-1.14565.46843-1.38642-.159zm-18.88417-2.94797c-.54507-.41904-.76995-.85808-.62844-1.22687.31087-.8101 1.5336-.7187 1.75586.13124.271 1.03631 1.66167.94774 1.66167-.10583 0-.44626-.19844-1.01316-.44097-1.25976-.67488-.68622.98257-1.9252 2.18255-1.63151 1.26682.31005 1.83497.93666 1.43535 1.58304-.25909.41909-.4145.43705-.76335.0882-.51334-.51334-1.70802-.58753-1.70802-.10607 0 .18258.15875.43007.35278.54999.61659.38108.38068 1.52794-.43128 2.09666-1.04062.72888-2.37362.68241-3.41615-.11909zm-37.623741-2.96811c-3.65186-2.43401-7.26028-4.9292-8.07706-5.5852-5.97983-4.80278-7.77551-5.94787-9.32718-5.94787-.4214 0-.8637-.25415-.9829-.56477-.3953-1.03013.64107-1.1487 2.84836-.32588 1.18415.44142 5.328 1.70183 9.20856 2.80091s8.42011 2.3889 10.0879 2.86626c1.66779.47735 3.29498.86792 3.61597.86792.880211 0 .716231.92297-.78055 4.39348-1.98141 4.59418-1.9531 4.58776-6.5931 1.49515zm5.42911-1.76504c.64681-1.32154 1.09992-2.60108 1.00692-2.84343-.16943-.44152-1.25758-.79565-7.82736-2.54735-4.66349-1.24342-8.89812-2.46506-10.33676-2.98203-1.33312-.47904-2.02424-.17307-.72491.32093.46984.17863 1.58085.87942 2.46893 1.5573.88808.67789 2.7085 1.96956 4.04538 2.87037 5.2765 3.55543 7.05268 4.78676 7.89875 5.4758 1.46134 1.19011 2.16388.81514 3.46905-1.85159zm27.575391 2.75558c-.24154-.29104-.71779-.52917-1.05833-.52917-.90722 0-1.63405-.97651-1.11394-1.49662.78273-.78272.39979-.95731-.82191-.37472-1.91874.91498-1.93183.20936-.0268-1.44332 1.45932-1.266 1.63248-1.54006 1.10171-1.74373-.68364-.26234-2.45504.6748-3.53849 1.872-.709.78343-1.59781.95577-1.59781.30982 0-.22392.635-.95067 1.41111-1.61499 1.68727-1.44424 1.76398-1.78803.35278-1.58091-1.10631.16237-1.35398-.19355-.635-.91253.62126-.62126 1.88913-.51776 3.45722.28222.76065.38806 1.69746.70556 2.08179.70556 1.08772 0 1.24428.67566.37177 1.60441-.7024.74767-.72734.87272-.21335 1.06996.79559.3053.73017.7931-.21174 1.57887-.52985.44202-.62705.66608-.29236.67391.27576.006.79122-.25056 1.14547-.57115.6168-.55819 2.59969-.75621 3.0512-.3047.41127.41127-.54483 1.41779-1.56079 1.64309-.97134.21541-.98248.23863-.23082.48108.43438.14011.70282.39545.59654.56742-.30999.50157-1.78952.36036-2.26827-.2165zm-195.361151-4.36173c-.56334-.34816-2.27376-5.27865-1.99031-5.73729.23931-.3872 2.209-.26111 3.39382.21725.46648.18833.66656-.019.9028-.93538.20598-.79903.54061-1.21208 1.04141-1.28548.59393-.087.91852.28638 1.66365 1.91395 1.50849 3.29498 1.53391 4.36839.0903 3.81443-.48013-.18424-.68012-.5605-1.48723-2.79801-.22361-.61991-.2919-.57095-.56257.40336-.35593 1.28116-1.12755 1.7198-1.73591.98678-.47839-.57643-1.3937-.6841-1.3937-.16395 0 .18934.3169.86403.70423 1.49931s.70483 1.33651.70556 1.55828c.002.51332-.82492.84019-1.33207.52675zm7.08734-3.48762c-.12161-.33955-.52146-1.39748-.88855-2.35097-.78277-2.0332-.537-2.48107 1.57279-2.86603 1.08122-.19728 1.32292-.13753 1.32292.32705 0 .31263-.21869.56843-.48597.56843-.26729 0-.70385.26565-.97014.59034-.43128.52585-.3975.56801.30923.38589 1.03716-.26725 1.39806.34852.56484.96376-.97863.72263-.1912 1.3774 1.07672.89534 1.29222-.4913 1.62198-.46146 1.62198.14677 0 .28196-.73455.83759-1.63234 1.23472-1.98834.87954-2.2106.88888-2.49148.1047zm4.89304-2.29305c.062-.43657.35085-.79375.6419-.79375.29104 0 .57989.35718.64189.79375.0868.6109-.0611.79375-.64189.79375-.5808 0-.72866-.18285-.6419-.79375zm157.27051-1.5743c-1.06457-.72035-3.1262-1.96265-4.58141-2.76068-4.90282-2.68869-6.16499-3.42575-8.51138-4.97038-1.28578-.84642-3.38922-2.03097-4.67431-2.63234-1.28509-.60136-2.33653-1.25795-2.33653-1.45907 0-.56993 2.11623-.0946 4.25486.95574 2.49471 1.22521 7.35603 2.92992 14.70221 5.15561 3.252571.98544 5.973811 1.85091 6.047191 1.92327.24254.23913-2.24267 5.09739-2.60758 5.09748-.19662.00005-1.22849-.58929-2.293051-1.30963zm2.790391-1.52161c.40815-.78305.74209-1.48528.74209-1.5605 0-.1692-3.425741-1.29807-7.408331-2.44123-1.64924-.4734-4.07017-1.26563-5.37986-1.76052-1.30969-.4949-2.37991-.78786-2.37828-.65104.003.27262 1.73821 1.24793 7.46969 4.19907 2.07267 1.06722 4.2146 2.38651 4.759841 2.93176.54525.54524 1.09518.92719 1.22206.84877.12689-.0784.56464-.78326.97279-1.56631zm-157.700121 1.89201c-.36069-.43696-.3766-.62275-.0624-.72856.29689-.1.21892-.47475-.26326-1.26555-.82977-1.36084-.9032-2.71102-.14746-2.71102.29713 0 .62708.27781.73323.61736s.51752 1.35507.91416 2.25671c.39663.90165.61294 1.81446.48067 2.02848-.34979.56595-1.09855.47664-1.65497-.19742zm226.383451-.29541c-.22878-.91155-.70933-1.14487-1.08985-.52916-.11992.19402-.36741.35277-.54999.35277-.55241 0-.37142-1.16568.36973-2.38125.81546-1.33744 2.33897-1.56396 3.30909-.49199.73892.81651.40232 1.81673-.60894 1.80951-.5209-.004-.61628-.0941-.3067-.29056.34311-.21775.28006-.43833-.26674-.93317-.891-.80635-1.02793-.66753-.80254.81353.12567.8258.43215 1.26839 1.03775 1.49864.94502.3593.79891 1.03363-.22396 1.03363-.39538 0-.73247-.34257-.86785-.88195zm-230.001771-1.0283c-1.10379-2.04962-.17598-2.55014 1.99393-1.07565 1.5273 1.03783 1.74267 1.7582.42692 1.42797-.6236-.15651-.95141-.0624-1.09607.31454-.31095.81032-.61046.65956-1.32478-.66686zm7.49477-.18138c-.65281-.53341-.74075-.7742-.40681-1.11394.3368-.34265.53903-.33963.96564.0144.65309.54201 1.60695.24406 1.60695-.50196 0-.33722-.32281-.54024-.85898-.54024-.47244 0-1.2828-.16113-1.80081-.35808-.802-.30492-.90729-.50131-.70921-1.32291.27992-1.16107 1.09741-1.84679 2.2017-1.84679.99941 0 1.07945.70233.10896.95612-1.18112.30887-.84456 1.16055.45861 1.16055 1.39816 0 2.01271.53512 2.00544 1.74625-.007 1.09705-.29004 1.55288-1.29433 2.0815-1.04248.54871-1.30846.5166-2.27716-.27493zm217.345011-1.02474c-.73582-.59583-.80435-.82735-.50058-1.69112.48106-1.36789 1.9231-1.85729 3.13427-1.0637.98985.64858 1.15923 1.52857.46831 2.43306-.72948.95497-2.13942 1.10122-3.102.32176zm2.13186-.94058c0-.63782-.18954-.88194-.68474-.88194-.90049 0-1.2471.60728-.71355 1.25017.66973.80697 1.39829.61511 1.39829-.36823zm-167.015631.76719c-.8411-.61502-.53635-.78813 2.27241-1.29079 3.51137-.6284 14.02692-3.16295 16.39391-3.9514 1.16072-.38664 2.87433-.73058 3.80802-.76433.93368-.0338 1.80963-.23756 1.94654-.45291.23186-.36472 3.34886-1.18693 4.49962-1.18693.2815 0 .51181.31031.51181.68958 0 .71683-.17606.77225-4.01473 1.2637-.94691.12122-2.05816.35349-2.46944.51613-1.48325.58659-6.81075 2.10359-9.92 2.82472-1.74625.40501-4.1275.97941-5.29166 1.27644-1.16417.29704-2.9898.67225-4.05695.83381-1.06715.16155-2.18296.39079-2.47956.50941-.29662.11862-.8366-.002-1.19997-.26743zm-55.59838-1.85513c-.38855-1.02194-.19547-1.55789.56124-1.55789.34578 0 .50834.39485.50834 1.23472 0 1.4495-.57527 1.62332-1.06958.32317zm216.460401.1275c-.78733-1.12407-.6811-1.88318.38035-2.71812 1.66173-1.30712 2.95104-.75677 2.95104 1.25967 0 1.9828-2.2685 2.97593-3.33139 1.45845zm2.27305-1.34368c0-.88811-.88927-1.27396-1.59199-.69076-.88076.73097-.62428 1.40738.53366 1.40738.8286 0 1.05833-.15556 1.05833-.71662zm-208.635831.9812c-.89924-1.39074-1.92308-4.35982-1.65372-4.79566.14301-.23138.80343-.57655 1.4676-.76703 2.75254-.78942 3.94992-.19637 4.38969 2.17416.29224 1.5753-.19486 2.57614-1.70065 3.49429-1.44766.8827-1.87549.86462-2.50292-.10576zm2.96641-3.07092c0-.51321-.1905-1.1236-.42334-1.35644-.52366-.52366-1.9234-.5545-2.23566-.0493-.23492.38012.37787 2.25508 1.00481 3.07441.5091.66533 1.65419-.48982 1.65419-1.66871zm99.63556 2.06171c-.1332-.21553.16137-.73146.6546-1.14653.83387-.70172 2.72094-5.34785 2.72094-6.69918 0-.72192 1.21779-1.06294 2.10334-.58901.79048.42305.92153.89858.34571 1.25445-.47013.29056-1.95499 3.52148-2.26402 4.92629-.38788 1.76324-1.15144 2.64583-2.28901 2.64583-.56616 0-1.13836-.17633-1.27156-.39185zm99.439861-.3823c-1.21129-.58535-1.25034-1.27224-.19392-3.41124 1.17986-2.38894 2.31761-2.78643 3.78257-1.32148 1.57774 1.57774.98634 3.49246-1.46937 4.75724-.91108.46923-1.1021.46702-2.11928-.0245zm2.34155-1.14308c.58163-.70082.33254-2.81359-.34685-2.94199-.54472-.10296-1.39792 1.64003-1.39792 2.8558 0 .73005 1.16274.78749 1.74477.0862zm-199.271541-.68204c-.93437-1.51185-.92364-2.04335.0594-2.94313 1.75353-1.60497 3.83494-1.22896 4.50937.81461.63338 1.91913-.53875 3.31668-2.78171 3.31668-.81475 0-1.21876-.26861-1.78708-1.18816zm3.78489-.99461c.0801-.69373-.12646-1.10265-.77009-1.52438-1.76972-1.15956-3.27141.89238-1.54426 2.11012 1.15894.81712 2.18224.55813 2.31435-.58574zm31.50711 1.15848c-.72362-.45834-.18011-1.03468 1.22416-1.29812 1.63254-.30627 2.43001-1.54908 2.46119-3.83561.0209-1.53396.12744-1.79464.7721-1.88936.41131-.0604 1.0751.21737 1.47509.61736.93896.93896 1.04954.91998 1.45745-.25017.37436-1.07388 1.56304-1.99534 2.12553-1.6477.22612.13974.14895.53945-.20988 1.08708-.32262.4924-.59727 1.73224-.63652 2.87354-.0567 1.64955-.18671 2.03-.72899 2.13393-.56628.10853-.63891-.0536-.51181-1.14232.0815-.69783.0268-1.26878-.12141-1.26878-.43278 0-.9999 1.28741-.9999 2.26986 0 .56938-.1963.90514-.52917.90514-.38217 0-.52917-.39198-.52917-1.41111 0-1.73118-.41782-1.81485-1.00156-.20056-.44848 1.24026-2.56399 3.37984-3.33224 3.37016-.23578-.003-.64747-.14398-.91487-.31334zm8.32486.10233c-.48698-.48698-.24815-.84193.56649-.84193.45124 0 1.17508-.37748 1.60851-.83886l.78807-.83885-.72526-1.18962c-.39889-.65428-.72584-1.38805-.72657-1.63058-.002-.62188 1.03717-.55041 1.28222.0882.33941.8845.78203.59391.89897-.59019.11934-1.20839.86237-1.74689 1.19921-.8691.34045.8872-.86631 4.39787-1.89462 5.51174-.9648 1.04509-2.52632 1.6699-2.99702 1.1992zm147.190091-1.49035c-.45368-.36736-.69096-.8261-.54743-1.05833.35072-.56748 1.09847-.51253 1.62281.11925.24154.29105.60308.52917.80342.52917.20035 0 .0876-.30569-.2505-.67931-.88215-.97476-.58182-1.94233.64654-2.08297.56339-.0645 1.14174.0853 1.29662.33594.37135.60085.0261 1.11096-.59149.87396-.27141-.10415-.49348-.0356-.49348.15234s.14177.34171.31503.34171c.535 0 .77772 1.12096.35342 1.63221-.56923.68587-2.2108.60056-3.15494-.16397zm-184.153491-.22347c-.49638-.26998-1.09368-.91045-1.32734-1.42328-.60637-1.33085.36105-2.91175 1.96609-3.21286 1.72106-.32287 2.5568.56163 2.5568 2.70598 0 1.56124-.0753 1.70094-1.11098 2.06199-.61103.21301-1.12697.38093-1.14652.37316-.0195-.008-.44168-.23501-.93805-.50499zm2.16084-1.28891c.33917-.63374.26236-.88856-.49655-1.64747-.75511-.75512-.98506-.82533-1.44714-.44183-.74046.61452-.6913 1.28596.15618 2.13344.89889.89889 1.28796.88928 1.78751-.0441zm179.253211.32154c-.23018-.23018-.41851-.86301-.41851-1.40629s-.15875-.98778-.35278-.98778-.35278.23813-.35278.52917c0 .29398-.31358.52916-.70556.52916-.38805 0-.70555-.14902-.70555-.33116s-.727-.44018-1.61556-.57343c-1.65203-.24774-2.3238-.9416-1.60628-1.65912.21979-.21979.39962-.67403.39962-1.00942 0-.72081.91359-1.71853 1.57361-1.71853.25569 0 .83966.30579 1.29772.67954l.83283.67954-.74015.69539c-.40709.38245-1.04209.76605-1.41111.85243-.56267.1317-.50537.22497.35502.57785.927.38021 1.12212.3287 2.02239-.53382.93836-.899 1.03436-.92028 1.64764-.36528.35816.32414.9959.58935 1.41718.58935.78148 0 1.06074.83451.4132 1.23472-.19403.11992-.35278.50155-.35278.84809 0 .95087-1.17179 1.89595-1.69815 1.36959zm-210.411921-.48564c-.14417-.14417-.26213-1.00279-.26213-1.90804 0-1.55014.0668-1.66641 1.14854-1.9984.6317-.19387 1.34608-.28665 1.5875-.20618.60524.20175.5535.79308-.0694.79308-.27959 0-.60889.16268-.73178.36152-.12288.19883-.033.31789.19967.26458.2327-.0533.49586.1015.58478.34404.0978.26684-.14013.44097-.60266.44097-.44749 0-.70447.17963-.61991.43332.0794.23832.51531.43676.9686.44097.45328.004.89099.20609.97268.44863.0817.24253-.083.44097-.36593.44097-.28295 0-.97197.0915-1.53115.20334-.55918.11183-1.13464.0854-1.27882-.0588zm-37.66183-1.29335c-.84898-1.39243-.86403-1.63273-.12012-1.91819.34444-.13218.75564.0173 1.01199.3679.24032.32864.80438.54963 1.27191.49829.63565-.0698.84009.0794.84009.61331 0 .38805.1125.87823.25001 1.08926.16383.25145-.23364.40267-1.1531.4387-1.23045.0482-1.48897-.0858-2.10078-1.08927zm71.12772.59079c-.43545-1.13475-.21924-2.21504.48826-2.43959.38632-.12261.8516-.13072 1.03396-.018.18235.11271.42336.0564.53556-.12517.3323-.53766-.78952-1.3979-1.56016-1.19637-.99788.26095-.89817-.53191.12556-.99835 1.2348-.56261 2.46334.16957 2.2405 1.33528-.13003.68021.0199.94746.6704 1.19477.85544.32524 1.11949 1.17869.48584 1.5703-.19363.11967-.82374-.0611-1.40026-.4016-1.14361-.67555-1.78078-.4545-1.08981.37807.23838.28723.33101.68794.20584.89047-.34813.56329-1.49483.4379-1.73569-.18979zm-67.24191-.47735c0-1.18106.6649-2.49241 1.26373-2.49241.40837 0 .50293.1794.32543.61736-.13762.33955-.40826 1.05393-.60142 1.5875-.40521 1.11933-.98774 1.28891-.98774.28755zm115.96117-.94882c-.13754-.13754-.25007-.46732-.25007-.73285 0-.37347.15976-.39728.70556-.10518.38805.20768.71687.25295.7307.1006.0138-.15235.0881-.83262.165-1.51171.0769-.6791.20245-2.25534.27895-3.50275.11232-1.83143.29308-2.39271.93898-2.91573.60922-.49332.91421-.55282 1.27952-.24965.605.50212.30351 1.02368-.59175 1.02368-.7586 0-.86088.42282-.33842 1.39904.25331.47331.21443.69771-.14477.83555-.38925.14937-.4185.47437-.14107 1.56738.28385 1.11829.2276 1.63946-.29758 2.75723-.61299 1.30466-1.72775 1.94169-2.33505 1.33439zm131.688811-.44751c0-.74472.91381-1.26255 1.25469-.711.33178.53683-.1045 1.37881-.71445 1.37881-.29713 0-.54024-.30052-.54024-.66781zm-139.547791-.30233c-.0981-.33955-.56941-1.3715-1.04726-2.29324-1.10518-2.13178-1.09111-2.4535.10131-2.3163.72969.084.9994.33021 1.08821.99357.18292 1.36639.69875 1.63588.94175.492.511-2.40548 1.67238-2.9705 2.42526-1.17992.51692 1.22939.71214 1.11548 1.08748-.63456.27448-1.27977 1.5415-2.40596 2.08987-1.85759.21971.21971.13133.57305-.24825.99248-.60921.67317-1.72393 3.90196-1.48217 4.29313.0752.12166.004.43519-.15718.69674-.51902.83979-1.4019.10254-1.63686-1.36687-.19955-1.24788-.3038-1.37223-.88828-1.05943-.46772.25032-.66219.74444-.66219 1.68254 0 1.82239-1.19996 2.98197-1.61169 1.55745zm128.415811-1.37091c.23139-.92192.21932-.92835-1.39942-.7459-2.01673.22732-2.31424-.26903-1.22124-2.03754.87013-1.4079 1.73368-1.50181 2.28491-.24847.22278.50654.54387.72103.88194.58916 1.44045-.56187 1.71954.0848.89169 2.0661-.65027 1.55632-1.81021 1.86017-1.43788.37665zm-121.091961-.2232c-.21503-.25909-.29972-.82-.1882-1.24647.14711-.56253.0462-.77539-.36754-.77539-.31367 0-.57031-.13193-.57031-.29317 0-.34025 1.69357-1.30861 1.9047-1.08907.078.0811.19733.92576.26512 1.87693.12659 1.77649-.30851 2.41311-1.04377 1.52717zm4.94173-1.73964c-1.16158-1.16157.31001-4.16278 2.04115-4.16278 1.26221 0 1.29368 1.06796.0639 2.16681-1.39111 1.24295-1.40288 1.47977-.0589 1.18458 1.20557-.26479 1.44796.29582.37596.86954-.90773.4858-1.90199.46193-2.42208-.0582zm1.69333-2.61847c0-.46877-.0958-.49288-.52916-.1332-.29105.24155-.52917.49911-.52917.57237 0 .0732.23812.13319.52917.13319.29104 0 .52916-.25756.52916-.57236zm80.168751 1.39283c-1.21268-.66669-2.19916-1.40185-2.19218-1.63368.0254-.84219 1.60318-2.29083 2.76314-2.5369 1.49513-.31717 1.39464.45548-.15604 1.19971-1.01433.48681-1.54537 1.01-1.55605 1.53304-.01.49065.69536.26937 1.40571-.44097.84534-.84534 1.06941-.86547 1.96104-.17616.67212.51961.66944.54241-.14475 1.23206-.72154.61118-.75365.73178-.24664.92634.3577.13726.91273-.0862 1.43657-.57828.7077-.66485.94589-.72541 1.39316-.35421.82159.68186.65444 1.41969-.32162 1.41969-.47361 0-.95923.15875-1.07915.35278-.32922.53269-.85439.38086-3.26319-.94342zm1.32291-1.21489c0-.19402-.15875-.25466-.35278-.13475-.19402.11992-.35277.37678-.35277.57081s.15875.25467.35277.13475c.19403-.11992.35278-.37678.35278-.57081zm25.94313 1.82097c-.538-.5945-.5849-.87789-.26239-1.58571.21598-.47402.7917-1.1233 1.27939-1.44285 1.85981-1.21859 3.89365.69242 2.89024 2.7157-.57437 1.15817-2.96874 1.34989-3.90724.31286zm2.98465-1.22639c0-1.14459-1.33609-1.61527-2.00159-.70513-.79757 1.09074-.56576 1.5633.76687 1.5633 1.07273 0 1.23472-.11259 1.23472-.85817zm-188.456081-1.67678c-.71912-1.80723-1.96922-5.34963-2.778-7.87199-.80877-2.52236-1.67207-5.06236-1.91843-5.64445-.24636-.58208-1.10313-3.12208-1.90392-5.64444-2.43637-7.67416-5.47851-15.888027-6.33685-17.109729-.34079-.485069-.716-1.141532-.83378-1.458806-.25637-.690598.62818-2.068972 1.32772-2.068972.27321 0 .65908-.303311.85748-.674024.46717-.872917 2.53645-2.148198 3.48568-2.148198.40684 0 .91682-.330941 1.13329-.735422.21647-.40448.96056-.972319 1.65353-1.261861s1.51363-.820134 1.82369-1.179093c.31006-.358962 1.13189-.94718 1.82629-1.307151.69441-.359974 1.72628-1.012024 2.29306-1.448996 3.56231-2.746488 4.75302-3.592477 5.05632-3.592477.18832 0 1.18518-.81008 2.21524-1.800176 1.03006-.990095 2.70626-2.354908 3.72491-3.032915s1.85208-1.376052 1.85208-1.551214c0-.175161.3175-.318473.70556-.318473.39197 0 .70555-.235187.70555-.529167 0-.291042.16258-.529167.36129-.529167.1987 0 1.17233-.557904 2.1636-1.239784.99129-.681881 2.21503-1.34336 2.71944-1.469962.5044-.126598 1.39609-.67921 1.98153-1.228026.58543-.54882 1.33605-.998587 1.66804-.999483.33199-.0011.88762-.284311 1.23472-.629807.34711-.345497 1.02798-.827906 1.51305-1.072025.48507-.244115 1.67569-1.153598 2.64583-2.021071.97014-.86747 2.08139-1.676457 2.46945-1.797745.38805-.121289.78493-.326584.88194-.456209.097-.129628.81139-.703545 1.5875-1.275369.77611-.571828 1.62089-1.238123 1.87728-1.480658.2564-.242535.7591-.440972 1.11713-.440972s.70388-.119063.76856-.264584c.19871-.44711 3.81856-2.825797 5.42375-3.564073.39603-.182146.93141-.585838 1.18972-.897092.25832-.311255.73405-.565918 1.05717-.565918s1.13712-.469798 1.80888-1.043996c.67177-.574198 1.41425-1.050448 1.64996-1.058334.23571-.0079.59848-.331837.80616-.719892.20783-.388322.73865-.705556 1.18061-.705556.44166 0 1.11076-.279078 1.4869-.620173.37613-.341095 1.14041-.913464 1.6984-1.271932.81756-.525233 1.07066-.560913 1.30373-.183794.15907.257381.41232.344869.56277.194418.15045-.150452.04-.431884-.2454-.625405-.44382-.300916-.42217-.413056.14958-.774569.36769-.232491 1.36125-.938649 2.20791-1.56924.84666-.63059 1.6586-1.146527 1.80431-1.146527s1.10295-.778566 2.12721-1.730146 2.39766-1.984197 3.05201-2.294705c1.00833-.478487 2.11502-1.279649 4.67722-3.385986.23435-.192651.51379-.350275.62098-.350275s1.02671-.582478 2.04336-1.294396c2.73648-1.916235 3.43513-2.382323 5.37624-3.586668 2.41936-1.501065 5.7292-3.757498 8.75245-5.966853 2.45799-1.796268 3.82917-2.261652 4.32064-1.466441.13109.212103 2.00577 1.543663 4.16596 2.959024 2.16019 1.41536 4.23003 2.908696 4.59966 3.318524.36961.409829.86283.745143 1.09603.745143s1.43891.758431 2.67935 1.685402c1.24045.926971 3.43065 2.282297 4.86712 3.011836s3.18272 1.763103 3.88056 2.296809c1.61157 1.232532 3.90883 2.689217 4.70837 2.985551.33955.125848.61736.453407.61736.727908 0 .274502.27781.601322.61736.726268 1.16279.42788 2.87367 1.443492 5.27267 3.129964 1.32014.928041 4.06712 2.795484 6.10441 4.149871 4.54351 3.020518 7.9758 5.472381 9.56166 6.830383.65893.564265 1.91244 1.343139 2.78556 1.730833 1.64118.728733 3.43049 1.874516 4.05292 2.595294.67061.776559 3.68888 2.919215 6.433811 4.567337 1.50834.905644 3.19784 2.100206 3.75444 2.654586.5566.554376 1.23234 1.00796 1.50164 1.00796s.83471.396875 1.25648.881944c.42176.48507.91226.881945 1.08999.881945.55974 0 4.4735 2.628402 4.48118 3.009462.004.199997.44388.553639.97746.785873 1.40193.610175 3.16964 1.767889 5.9422 3.891714 1.33995 1.026421 3.33152 2.455171 4.42571 3.175 4.38173 2.882583 7.20354 4.892598 8.39717 5.981404.69028.629662 1.37375 1.1456 1.51882 1.146528.14507.0011 1.0182.536688 1.94028 1.190579s2.28501 1.471986 3.02873 1.817991c2.08988.97228 2.68431 3.440017 1.1705 4.859267-.45577.427299-1.17421 1.729405-1.59654 2.893572-.42232 1.164166-.91404 2.434166-1.0927 2.822222-.17866.38806-.66166 1.57868-1.07333 2.645835-.41167 1.06716-1.13455 2.67805-1.6064 3.57977s-.85791 1.8974-.85791 2.21261-.49012 1.64119-1.08915 2.94662-1.31129 3.24663-1.58279 4.31378c-.27151 1.06715-.72669 2.41653-1.01151 2.99861-.28483.58209-1.02702 2.54338-1.64932 4.35842l-1.13145 3.30009-1.08942-.18232c-.59918-.10027-1.52598-.35107-2.05956-.55733-1.22284-.47269-1.30853-1.69239-.14984-2.13291.92172-.35045 1.85673-1.61517 2.19732-2.97218.2625-1.04591-.75562-2.11905-3.29706-3.47522-1.00555-.53658-1.46613-.99584-1.37115-1.36721.10435-.40804-.0592-.52057-.605-.41623-.41141.0786-1.30252-.22541-1.98024-.67569-.67772-.45027-2.2641-1.44251-3.52528-2.20498-1.26118-.76246-3.32493-2.04475-4.58611-2.84953s-4.0393-2.55462-6.17361-3.88853c-2.1343-1.33391-3.98542-2.57793-4.11359-2.7645-.32806-.47752 1.23967-2.844111 1.98053-2.989727.49758-.0978.56387.03569.35037.705552-.46569 1.461125-.35455 1.825705.72436 2.376065.58208.29693 1.85208 1.03919 2.82222 1.64945.97014.61027 2.47826 1.50266 3.35139 1.98309 2.77058 1.52451 4.38366 2.46698 5.29166 3.09176.48507.33376 1.16257.70815 1.50555.83196.84467.30492 8.69305 5.50218 9.44625 6.25538.33092.33092.81996.67508 1.08675.76479.41119.13828.41133.25245.001.74966-.50367.61017-.35003.71899.83695.59273 1.36722-.14542 2.32917-1.75187.98365-1.6427-.33211.027-.6606-.22543-.72997-.56085-.0694-.33542.93699-3.66917 2.23637-7.40834 1.29938-3.73916 2.82003-8.133435 3.37922-9.765049.55918-1.631611 1.15101-3.139736 1.31516-3.351389.47937-.618088 1.14997-3.74699.9429-4.399414-.10431-.328637-1.18188-1.19452-2.3946-1.924181-2.77966-1.672445-7.77782-5.16872-9.02049-6.309946-.52007-.477615-1.65995-1.339754-2.53308-1.915869-.87312-.576118-3.16412-2.126001-5.0911-3.444187-1.92697-1.318189-3.91135-2.670408-4.40972-3.004929-.49836-.334525-1.82886-1.230793-2.95665-1.991706-1.1278-.760914-2.30854-1.542228-2.62387-1.736256-.31534-.194028-1.91121-1.344965-3.54638-2.557639-1.63516-1.212674-3.17294-2.204861-3.41728-2.204861s-1.792121-1.031875-3.439531-2.293056c-1.64739-1.26118-3.21512-2.292459-3.48384-2.291733-.47341.0014-1.72329 2.522153-1.72329 3.475705 0 .259048-.29251.892383-.65002 1.407403-.35751.515021-1.05733 2.047653-1.55515 3.405848-2.19032 5.975755-2.48442 6.721108-2.77699 7.037916-.17023.184327-.3101.660577-.31083 1.058334-.0007.397757-.33717 1.274127-.74766 1.947492s-.98191 2.02274-1.26982 2.998611c-.28791.975872-.77329 2.200466-1.07862 2.721317-.66313 1.131214-.35537 1.644693 1.80204 3.006606 1.24497.785914 1.41294.811858 1.97323.3048 1.3323-1.205714 2.01581-.47146 1.25535 1.34856-.76139 1.822281-1.52415 1.81834-4.08452-.0211-.95572-.686615-1.95088-1.166573-2.21148-1.066575-.26059.1-.56138.72147-.66841 1.381044-.10704.659575-.54036 1.934771-.96294 2.833773-.46311.985227-.67695 1.922427-.53831 2.359243.28713.904678-.5184.975191-1.77022.154965-.8676-.568378-1.19088-1.546934-.51121-1.546934.19717 0 .57633-.515938.84258-1.146528s.84791-1.983108 1.29259-3.005593c.91371-2.100996.85116-2.249713-1.4388-3.420635-2.54402-1.300837-9.87158-5.627413-10.76181-6.354343-.78353-.639805-.82733-.803917-.42574-1.595124.28486-.561206.80717-.923473 1.4362-.996135.8546-.09872.97299-.0045.87377.695286-.12854.906607 1.12688 1.854744 6.3655 4.80742 1.62388.915275 3.30496 1.990781 3.73574 2.390016.43079.399235.97759.661099 1.21514.581918.56796-.189318 2.53887-4.274425 3.3528-6.949338.61511-2.021502 1.38977-4.013303 3.22428-8.290278.45773-1.067153.94227-2.337153 1.07676-2.822223.13448-.485069.83737-2.151944 1.56196-3.704166 2.15294-4.611995 2.36759-3.97545-2.41447-7.160366-3.87424-2.580299-5.14173-3.476467-10.11859-7.154288-.97014-.716917-2.4092-1.627329-3.19791-2.023139-.78871-.395809-1.92665-1.167978-2.52876-1.715931-.60211-.547952-1.94118-1.452314-2.9757-2.009691-2.63597-1.420189-6.64347-4.135654-6.64347-4.501581 0-.168211-.14598-.305839-.32441-.305839-.478 0-6.73305-3.851444-7.97509-4.910527-.58715-.500668-2.23036-1.624681-3.65157-2.497806-1.4212-.873125-3.08392-1.90913-3.69494-2.302233-7.8343-5.040301-9.09916-5.558942-9.22641-3.783184-.0326.454588.14403.79375.41333.79375.36937 0 .47021 1.059171.47021 4.938889 0 4.39755-.27031 5.871829-.8247 4.497917-.1133-.280782-.18805-.232398-.20578.133193-.0153.315791.21027.771792.50131 1.013335s.52917.912965.52917 1.49205c0 .790958-.13164 1.002366-.52917.849821-.36495-.140044-.52917.02271-.52917.52445 0 .410971.28376.801715.65217.898056.57906.151429.67793.707597.88194 4.961641.12638 2.635102.22978 6.432869.22978 8.439483 0 3.46185-.0376 3.648388-.73495 3.648388-.43901 0-.66985.177564-.57326.440973.0889.242534.34028.401284.55856.352777.21828-.04851.69932.189618 1.06896.529167.98365.903552 3.55266 2.733478 4.97236 3.541847.6791.386676 2.5841 1.51215 4.23333 2.501053 1.64924.988907 3.39549 1.975609 3.88056 2.192669 1.73735.777445 1.94198.932734 2.06683 1.56851.1562.795394-.87119 1.602409-1.66015 1.304036-.32069-.121278-2.06153-1.214109-3.86853-2.428508-1.80701-1.214402-3.63263-2.316617-4.05695-2.449368-.42431-.13275-1.18947-.590641-1.70035-1.017534-.51088-.426897-1.96506-1.382321-3.23152-2.123169-1.26646-.740851-2.44685-1.67954-2.62308-2.085975-.17623-.406439-.28991-2.524915-.25262-4.707728.0476-2.788142-.0525-3.96875-.33665-3.96875-.22246 0-1.24813.555625-2.27929 1.234722-2.61207 1.720252-4.28269 1.564389-4.28269-.39956 0-.905404.92703-1.32288 2.21802-.99886.58133.145905 1.44871-.08663 2.63302-.70589l1.7661-.92347-.20853-6.952777c-.11469-3.824027-.19898-9.294339-.1873-12.156249.0145-3.556623-.10134-5.202792-.36602-5.201323-.21298.0012-1.41911.726222-2.68029 1.6112s-2.87502 1.988828-3.58632 2.453001c-.71129.464172-1.3949 1.008406-1.51913 1.209408-.27741.448862-7.65516 5.318457-9.35844 6.176923-.6791.342271-1.6316.97606-2.11667 1.408421-1.68324 1.500335-10.12726 6.894454-10.79266 6.894454-.17958 0-.52628.319892-.77045.710873-.49135.786773-.14966 1.686739 1.6722 4.404405.52029.776111 1.55479 2.522361 2.29889 3.880556.74409 1.358194 1.94098 3.183819 2.65975 4.056944 1.79661 2.182449 2.65805 3.880556 1.96859 3.880556-.2818 0-.56547.275787-.63039.612863-.11751.610186-.28531.398099-2.55475-3.229003-.37442-.598414-1.44598-2.242027-2.38125-3.652471-.93526-1.410447-1.70048-2.720134-1.70048-2.910418s-.13765-.345971-.3059-.345971c-.53077 0-2.30486-2.951507-1.86268-3.098899 1.15951-.386504-.91639-1.335016-2.52676-1.154514-.35112.03936-.82737-.07916-1.05833-.263362-.23341-.186153-.73334-.2086-1.1255-.05053-.56993.22972-.59088.289151-.10901.30918 1.249.05191.93226.733417-1.03204 2.220558-1.64051 1.242006-8.11374 5.468282-10.95961 7.155367-.32963.195414-1.07559.806486-1.65767 1.357937-.58208.551448-2.40771 1.885287-4.05694 2.964082-1.64924 1.078798-3.60122 2.431538-4.33775 3.006086-1.22711.957249-1.29352 1.095054-.79375 1.647285.29996.331456.54539.692422.54539.802147 0 .109721.48656.720365 1.08125 1.356984s1.33058 1.645596 1.6353 2.242171c.30472.596572.77945 1.216554 1.05497 1.377738.27551.161181.64986.637431.83189 1.058334.18203.420899 1.12573 1.876358 2.09711 3.234348s1.76614 2.679015 1.76614 2.935615c0 .466673-1.00541 1.673927-1.18949 1.428281-1.1038-1.47302-4.10217-5.944683-4.10217-6.11784 0-.129674-.61784-.978627-1.37297-1.886561-.75513-.907937-1.88153-2.563604-2.50312-3.679264-1.40314-2.518456-1.99236-2.581713-4.81635-.517077-1.13701.831271-2.78166 1.949845-3.65478 2.485729-1.67575 1.028488-4.98601 3.386628-6.17362 4.397908-.38805.33044-1.56762 1.21642-2.62126 1.968842-1.54538 1.103584-2.03399 1.294176-2.52756.985936-.46301-.289158-.71548-.257228-1.0379.131265-.346.416913-.30696.51337.2078.51337.55308 0 .52487.11666-.22139.915461-.47038.503506-1.33149 1.163024-1.91357 1.465598-.58209.302574-1.61396.983125-2.29306 1.512334s-2.04817 1.417503-3.04238 1.973986c-3.12398 1.748557-7.54095 4.816228-7.54095 5.237332 0 .482776 4.36041 1.502276 8.29028 1.93833 5.69188.631571 6.78138.794777 10.80334 1.618337 4.0878.837035 4.10646.837582 5.98674.175418 1.86575-.657045 3.14186-1.755736 3.14186-2.705043 0-.616871 1.03888-.61631 1.85208.0011 1.08287.822011.67802 1.478587-1.83655 2.978457-2.14887 1.28174-2.57435 1.417906-3.4227 1.095361-.91587-.348209-.93813-.333604-.40757.267413.30867.349655.67069 1.150877.80451 1.78049.21585 1.015683.13813 1.184734-.6894 1.499359-.63462.241284-1.15393.236194-1.62502-.01591-.81212-.434636-.57535-1.040683.40658-1.040683.91498 0 .86618-.507803-.10901-1.13452-1.03124-.66281-8.38334-2.055199-13.31731-2.522175-1.88465-.178371-7.43814-1.171515-9.13912-1.63437-.66089-.179835-1.31852-.254719-1.46141-.166412-.24856.153624 1.2234 5.537341 2.11907 7.750494.23557.582085.88153 2.725205 1.43545 4.762505 1.13641 4.17956 5.16143 15.89228 5.61932 16.35206.30377.30504 8.15122-2.28608 13.9503-4.60619 1.99333-.7975 3.733-1.26208 4.6743-1.24828.82462.0121 1.49931-.12242 1.49931-.29892 0-.17649-.21397-.3209-.47548-.3209-.28645 0-.48745-.42077-.50558-1.05833-.0165-.58208.12742-1.05833.31992-1.05833s.24141-.1757.10869-.39044c-.16834-.27238-.3302-.24661-.53529.0852-.40219.65075-1.13946-.0951-.96899-.98025.0941-.48859.43834-.65483 1.356-.65483 1.12908 0 1.22165.079 1.12934.96377-.0553.53007.12923 1.4081.41006 1.95117.61553 1.1903.19476 2.20034-.91662 2.20034-.41164 0-.99907.21564-1.30539.47921-.30632.26356-1.03319.64843-1.61527.85526-9.01276 3.20244-15.56355 5.79768-16.17325 6.40738-.24224.24224-.0962.95944.4515 2.21714 1.49514 3.43337 1.64062 3.61458 2.99672 3.73244 2.64111.22955.67879 2.23453-2.69701 2.75565l-1.15852.17885-1.30748-3.28588zm179.058651-7.51921c.11169-.29105.0493-.52917-.13864-.52917s-.34171.23812-.34171.52917c0 .29104.0624.52916.13865.52916.0763 0 .23002-.23812.3417-.52916zm1.28354-2.64584c0-.19402-.16812-.35277-.3736-.35277s-.27548.15875-.15557.35277c.11992.19403.28804.35278.3736.35278.0856 0 .15557-.15875.15557-.35278zm2.46944-6.17361c0-.29104-.14938-.52917-.33195-.52917-.44485 0-.76345.5509-.48161.83274.3973.3973.81356.24197.81356-.30357zm4.23334-13.581945c0-.19403-.15875-.352781-.35278-.352781s-.35278.158751-.35278.352781c0 .19402.15875.35277.35278.35277s.35278-.15875.35278-.35277zm-187.819711-15.076202c-.20911-.209116-1.26917.336328-1.26917.653041 0 .174914.31028.124252.68951-.112582.37924-.236834.64008-.480042.57966-.540459zm121.14471-6.090469c0-.194028-.16812-.352778-.3736-.352778s-.27548.15875-.15557.352778c.11992.194028.28804.352778.3736.352778.0856 0 .15557-.15875.15557-.352778zm-87.48888-3.527778c0-.194027-.16812-.352778-.3736-.352778s-.27548.158751-.15557.352778c.11992.194028.28804.352778.3736.352778.0856 0 .15557-.15875.15557-.352778zm132.179861-2.53559c-.11261-.281422-.1962-.197831-.21313.213138-.0153.371884.0681.580245.18529.463021.11722-.117229.12975-.421499.0278-.676159zm-72.207641-10.890787c0-.182576-.23813-.331957-.52917-.331957-.54554 0-.70086.416264-.30357.813559.28184.281845.83274-.03676.83274-.481602zm90.193511 69.988421c-.12935-.12935-.23519-.68498-.23519-1.23472 0-1.13966-.17779-1.22491-.94809-.45462-.83006.83006-1.2229.47148-1.3825-1.26194-.0798-.86682-.18338-1.89346-.23017-2.28142-.0598-.49571.15087-.73894.70868-.81829.71161-.10121.79375.0357.79375 1.32275 0 1.50897.32634 1.78848 1.05833.90648.73436-.88484 1.41111-.63106 1.41111.52917 0 1.25606.21757 1.30834 1.28223.30815.53299-.50072 1.00981-.66508 1.43385-.49424.59761.24076.59344.28005-.0702.66199-.38806.22332-1.29451 1.00135-2.01434 1.72896-1.40227 1.41741-1.44939 1.44576-1.80742 1.08773zm-29.14038-1.67789c-.23986-.28901-.33369-.69117-.20852-.8937.12994-.21024-.0841-.36822-.4988-.36822-.3995 0-.72637-.12487-.72637-.27748 0-.27656 3.34233-2.89752 3.695-2.89752.45718 0 .12562 1.00584-.39777 1.20668-.52612.20189-.51747.27477.0882.7433.6585.5094.65784.53003-.034 1.06501-.38806.30005-.70623.80299-.70706 1.11763-.002.77742-.67716.94711-1.21064.3043zm-82.458661-.41558c-.24958-.65039.60359-1.32829 1.0765-.85537.38506.38506.0316 1.42014-.48486 1.42014-.20621 0-.47245-.25415-.59164-.56477zm78.20274-1.19912c0-.19403.16945-.35278.37656-.35278.21241 0 .28165-.29898.15884-.68593-.29424-.92706 1.23616-1.94662 2.460641-1.63929 1.24581.31268 1.08104.93603-.54469 2.06064-1.433171.9914-2.451351 1.24782-2.451351.61736zm2.373911-1.62425c-.11723-.11723-.4215-.12976-.676161-.0278-.28142.11262-.19783.19621.213141.21314.37188.0153.58024-.0681.46302-.18529zm-3.579361 1.31882c-.15197-.24589-.18104-.54234-.0646-.65878.31572-.31573.65996.14862.48944.6602-.1195.35848-.20259.3582-.42485-.001zm-11.21868-2.97307c-2.46764-1.20426-5.64264-2.73176-7.05555-3.39445-3.44382-1.61523-4.27178-2.17225-3.85234-2.59169.29975-.29976 3.48022 1.00791 5.34036 2.19572.29104.18585 1.87854.9128 3.52778 1.61545 1.64923.70264 3.55312 1.62181 4.23085 2.04259.67773.42077 1.69768.92379 2.26656 1.11782 1.18391.4038 1.64864 1.24244.67573 1.21942-.35571-.008-2.66574-1.0006-5.13339-2.20486zm11.16814 1.48018c-.10822-.17509-.50489-.31835-.88149-.31835-.37661 0-.68474-.16753-.68474-.37229 0-.20477-.87312-.77203-1.94028-1.26059-1.06715-.48856-1.94027-1.01714-1.94027-1.17463 0-.69505 1.72725-1.38741 2.96153-1.18711 1.46492.23772 1.58647.55921.49933 1.32067-1.14189.79981-.46726 1.12725.93993.4562 1.31053-.62495 1.98578-.26395 1.22375.65423-.68882.82997-.1748.9332.73175.14695 1.3479-1.16903 1.72241-.22152.40053 1.01331-.61231.57198-1.20183.89671-1.31004.72161zm15.967481-2.65779c-.12253-.12252-.0561-.53418.14759-.9148.2037-.38062.27446-1.07412.15726-1.54112-.15362-.61204-.0665-.84908.31191-.84908.8901 0 3.36898 1.45385 3.36898 1.97589 0 .58607-.49664.63019-1.43584.12754-.56949-.30478-.75213-.21626-1.09177.52917-.39283.86216-.99204 1.13848-1.45813.6724zm-23.855851-1.63451c-1.24489-.63517-1.20477-.96954.32569-2.71411 1.24938-1.42416 1.46943-1.54084 2.32865-1.23472.52189.18593 1.10777.5913 1.30196.90082.56085.89393-.013 2.37088-1.14953 2.9586-1.24701.64486-1.69044.65898-2.80677.0894zm2.92725-1.3962c.27966-.4467.26315-.72493-.0623-1.0504-.52891-.52892-1.32747-.12134-2.1298 1.08703-.52027.78357-.5062.79866.63986.68611.64452-.0633 1.34303-.38853 1.55227-.72274zm17.929341 1.06626c-.23284-.23283-.42334-.78846-.42334-1.23472 0-.83194-.49283-1.08821-.88194-.45861-.11992.19403-.36741.35278-.54999.35278-.5511 0-.35281-.82866.4208-1.75858l.72929-.87664.68552.84658c.37704.46562.60418 1.05854.50477 1.31761-.0994.25906-.044.47103.12322.47103.16717 0 .39533-.23813.50702-.52917.20468-.53341 1.28467-.75626 1.28222-.26458-.002.45916-1.38629 2.55764-1.68683 2.55764-.15808 0-.47791-.1905-.71074-.42334zm-186.198571-1.89857c.11778-.30691.21414-.64385.21414-.74875 0-.10491.23637.005.52528.24521.60515.50223.39046 1.06156-.40746 1.06156-.35302 0-.47038-.19728-.33196-.55802zm158.52315-.1758c-.97367-.5671-.71914-1.06132.30604-.59422.82818.37735 1.00831.32201 1.74697-.53673.89729-1.04317 1.76604-1.28994 1.42654-.40522-.16268.42393-.0485.50037.49142.329.94507-.29995.8941.35625-.0807 1.03904-.88491.61982-2.96073.70953-3.89025.16813zm22.889821-.53702c-.91229-.61992-1.23499-1.03413-.99368-1.27544.42151-.42151 2.99498 1.3798 2.68585 1.87997-.25274.40894-.14304.44813-1.69217-.60453zm-22.387241-1.63958c.24156-.43656.40084-.9839.35395-1.2163-.10358-.51342 1.18238-1.25201 1.91358-1.09906.37861.0792.13132.53527-.87285 1.6098-1.54853 1.65705-2.06603 1.91885-1.39468.70556zm22.886341.11362c-.73795-.56714-.7962-.74681-.39778-1.22688.56733-.68359 1.05663-.69586 1.91169-.048.44055.33383.5747.72725.4172 1.22351-.28602.90116-.80731.91502-1.93111.0513zm-3.54517-.53377c0-.27959.15875-.60646.35278-.72638.66787-.41276.35025-.80224-.79375-.97332-.63059-.0943-1.24957-.01-1.37551.18775-.12594.19757-.492841.25796-.815341.13421-.54096-.20759-.53689-.3102.0526-1.32547.841821-1.44986 1.494191-1.66091 2.249751-.72783.34043.42041.94134.76438 1.33535.76438 1.05915 0 1.218.54941.55984 1.93638-.58666 1.23629-1.56571 1.69294-1.56571.73028zm-31.928081-.99096c.45083-2.23999.55515-2.42109 1.26487-2.19583.47103.14949.6771.0466.6771-.33804 0-.30412-.15875-.55294-.35278-.55294-.60833 0-.37086-1.12984.92682-4.40972.69091-1.74625 1.78445-4.52437 2.43008-6.17361.98213-2.508795 1.31299-3.015935 2.02549-3.104645.46839-.05832 1.03657.11682 1.26263.3892.32409.39052.22446.69652-.47117 1.447135-.4852.52354-.88218 1.18048-.88218 1.45988s-.30757.70009-.68349.93485c-.63558.39693-.56485.50675 1.00891 1.56659.93083.62685 3.42121 2.04349 5.53419 3.14809 2.11298 1.10459 4.50505 2.38535 5.31571 2.84613.81066.46077 1.89386.83777 2.40711.83777 1.06603 0 1.12401.89528.0998 1.54028-.47724.30053-1.07436.12719-2.82223-.81927-1.2193-.66025-3.40754-1.82539-4.86275-2.58921s-3.04271-1.65672-3.52778-1.98422c-1.12178-.75738-3.84475-1.94779-4.02365-1.75903-.0747.0789-.62646 1.53861-1.22603 3.24387s-1.28369 3.45151-1.52028 3.88056c-.23659.42904-.38566 1.06962-.33128 1.42351.0625.40676-.17407.71481-.64317.83748-.53399.13964-.68315.3796-.53199.85587.16091.50696.0329.66183-.5473.66183-.6666 0-.7297-.13739-.5266-1.14653zm10.40864.81961c0-.20825.15875-.37864.35277-.37864.19403 0 .35278-.25511.35278-.56691 0-.40678-.17438-.49124-.61736-.29902-1.17276.50889-2.9219.59001-3.44056.15957-.78219-.64917-.30888-1.03483 1.0078-.82116.80527.13068 1.64156-.0505 2.68134-.58098 1.74062-.888 2.44975-.58721 1.75403.74399-.24012.45944-.54798 1.07347-.68414 1.36451-.29269.62562-1.40666.92548-1.40666.37864zm31.044441-.73142c-.93011-.9301-.89612-1.13753.33554-2.04814.84463-.62446 1.2148-.70368 1.96151-.41978.52475.19951.81834.51508.68297.73411-.17098.27665-.34478.27683-.62095.00071-.76592-.76593-1.04999-.36121-.3039.43297.90933.96793.9713 1.49909.20903 1.7916-.95352.36586-1.53255.24018-2.2642-.49147zm1.1039-1.15387c-.58733-.58733-.91997-.004-.37332.65487.33062.39836.52183.44594.61913.15404.0774-.23228-.0332-.59629-.24581-.80891zm-5.14829-1.09748-1.04577-.83674.96259-1.45456c.52942-.80002 1.09447-1.45457 1.25568-1.45457.6487 0 1.42679 1.28848 1.23076 2.0381-.16057.61403-.38012.73297-1.04496.56611-1.03023-.25857-1.10182.23861-.12245.85025.39559.24704.62435.60273.50835.79041-.3119.50468-.58878.42546-1.7442-.499zm-11.125051.15128c0-.18489.18959-.75228.42131-1.26086.32656-.71673.32656-1.07639 0-1.59931-.88951-1.42433-.0123-1.41268 1.66579.0221l1.20515 1.03044-.91912.34945c-.50552.1922-1.09311.67455-1.30576 1.07189-.39734.74245-1.06737.98492-1.06737.38627zm-2.21924-1.32089c-.092-.15576-.28375-.82579-.42615-1.48894-.21158-.98536-.31909-1.0982-.58818-.61736-.3293.58842-1.35254.82861-1.35254.31749 0-.54549 1.80209-2.90406 2.21757-2.90236.23554.001.90451.39724 1.48659.88061l1.05833.87886-.81796.69485c-.50207.4265-.77455.99338-.70556 1.46784.10994.75599-.5409 1.3299-.8721.76901zm.63174-3.28182c-.11992-.19402-.36741-.35277-.54999-.35277s-.33196.15875-.33196.35277c0 .19403.2475.35278.54999.35278s.45187-.15875.33196-.35278zm16.603781 3.21259c-.25776-.41707.12939-1.4487.54368-1.4487.41751 0 .40635 1.31304-.0134 1.57244-.18062.11163-.41926.056-.53031-.12374zm-122.217431-.86737c-.26339-.31736-.31956-1.38-.16782-3.175l.22806-2.69799-1.55107-.005c-1.8031-.006-2.61946-.41101-2.33328-1.15677.15743-.41027.73848-.50766 2.60904-.43733 1.32358.0498 3.25566-.0572 4.29352-.23769 2.37312-.41269 3.04951-.20549 2.52551.77362-.28489.53231-.75377.71702-1.8673.73559-1.8056.0301-3.03767.44379-2.43362.81711.55948.34578.55467 4.87709-.006 5.43754-.54455.54455-.80989.53357-1.29727-.0537zm-37.9669-.69091c-2.71413-1.21068-4.11292-2.02203-3.99125-2.31509 2.04167-4.91749 2.62179-6.06365 3.15464-6.23277.34404-.10919 1.25134-.03 2.01621.17594.76487.20595 1.64616.27643 1.95841.1566 1.12535-.43183 2.30929.19843 3.03131 1.61372.39042.76527.70985 1.71506.70985 2.11064 0 .76307-4.06668 5.316-4.72675 5.29193-.21369-.008-1.18228-.36823-2.15242-.80097zm3.52778-2.00708c.55767-.58209 1.22735-1.05834 1.48819-1.05834.82136 0 .87527-.92953.13409-2.31241-.91105-1.69982-1.2651-1.90893-3.2433-1.91552-1.74801-.006-2.26762.36832-3.27533 2.35833-.91362 1.80422-.73279 2.3187 1.11107 3.16119 2.23905 1.02306 2.60316 1.00062 3.78528-.23325zm148.695821 2.23816c0-.76498 1.66998-2.94372 2.25633-2.94372.2511 0 .74387.3175 1.09506.70556.60797.6718.60852.70555.0115.70555-.51736 0-.55022.0926-.18786.52917.47152.56815.33336.63655-1.10044.54479-.55405-.0354-1.0087.16146-1.13545.49179-.28008.72989-.9391.70664-.9391-.0331zm-103.901481-.50086c-.12781-.40268-.14409-.82043-.0362-.92833.51147-.51148-.57683-1.51454-1.64349-1.51476-1.07542-.00022-1.13411.0682-1.13411 1.32292 0 1.08483-.12619 1.32314-.70058 1.32314-.6362 0-.70103-.24312-.70556-2.64583-.005-2.477.0457-2.65303.78878-2.75856.64645-.0918.79375.0555.79375.79375 0 .79439.14721.90648 1.19062.90648 1.04717 0 1.21677-.13072 1.4076-1.08488.15046-.75231.39279-1.0497.79052-.97014.45824.0917.59171.64667.66387 2.76057.0837 2.45113-.19008 3.52778-.89704 3.52778-.15719 0-.39038-.32946-.51818-.73214zm3.27431.11478c-.0699-.14552-.0396-1.53458.0674-3.08681l.19452-2.82222 1.71907-.10929c.94549-.0601 1.95555-.0186 2.24459.0924.90775.34833-.2018 1.25164-1.53741 1.25164-.65534 0-1.19152.15875-1.19152.35278s.47625.35278 1.05833.35278c.70556 0 1.05833.17639 1.05833.52917 0 .63302-1.09755.70162-1.69333.10583-.32926-.32926-.42333-.14405-.42333.83343 0 1.16365.0719 1.24827.97014 1.14205 1.28678-.15215 2.20486.15053 2.20486.72694 0 .25721-.25111.56401-.55802.68178-.79387.30464-3.96163.26578-4.11361-.0504zm87.73971-.61736c-.0909-.29104-.24233-.77414-.33647-1.07355-.13292-.42277-.32475-.46217-.85875-.17638-.86556.46323-1.08676.46288-1.08676-.002 0-.62811 1.89642-2.07683 2.73403-2.08859.68999-.01.79375.16953.79375 1.3711 0 1.5746-.27892 2.4983-.75437 2.4983-.17936 0-.40051-.23812-.49143-.52916zm-78.5857-.0687c-.14444-.24212-.0993-7.18938.0517-7.95704.0286-.14552.38939-.26458.8017-.26458.63767 0 .71933.15161.54668 1.01486-.31525 1.57625.38314 2.22848 2.24424 2.09591l1.57471-.11216.10954-1.52106c.0856-1.18932.23617-1.49667.69015-1.40924.76352.14704 1.12679 1.99112 1.03635 5.26087-.065 2.34909-.14228 2.60832-.77771 2.60832-.58948 0-.72304-.2706-.81182-1.64488-.12289-1.90215-.54064-2.19067-2.70252-1.86647l-1.45156.21767.0135 1.81371c.0105 1.41302-.11562 1.8396-.57096 1.93095-.32146.0645-.66075-.0106-.75398-.16686zm90.283551-1.54089c.5853-1.11937 1.05807-1.66171 1.2667-1.45309.45093.45094-.99101 3.23903-1.67515 3.23903-.41156 0-.32305-.38698.40845-1.78594zm-81.484111 1.16559c-.29015-.46948 2.58975-6.08243 3.12078-6.08243.27825 0 .70415.35719.94647.79375.65788 1.18529 1.70092 4.2056 1.70092 4.92535 0 1.0178-.9341.72417-1.4188-.44599-.35829-.865-.6265-1.05589-1.36311-.97014-.59212.0689-1.08103.45049-1.37987 1.07689-.44059.92352-1.25083 1.27788-1.60639.70257zm3.6966-3.42778c.0136-.59536-.6537-.59393-.88234.002-.15082.39303-.0491.53441.32795.45588.30061-.0626.55008-.2686.55439-.45778zm4.01185 2.98979c-.45391-.73444.29021-1.05833 2.43147-1.05833 2.39742 0 2.89388.20375 2.28477.93768-.46405.55915-4.38327.65941-4.71624.12065zm6.24147-.0946c-.23805-.28683-.34214-.75779-.23132-1.04659.11083-.2888-.0452-1.58877-.34668-2.88883-.63346-2.7314-.69571-3.86388-.19542-3.55468.19403.11992.35278.62252.35278 1.1169 0 .63359.14856.84186.50338.7057.74047-.28414 1.3705.67816 1.16111 1.77349-.10033.52487-.0436 1.31954.12615 1.76592.26483.69657.55687.8116 2.06037.8116.96349 0 1.83879.14077 1.94512.31281.66551 1.07681-4.51243 2.04361-5.37549 1.00368zm64.3793-.83969c-.12582-.12582-.13507-.60207-.0206-1.05834.23303-.92844-.20352-1.06681-1.26813-.40195-.98806.61706-1.15878.23262-.88165-1.98542.16549-1.32456.40619-1.96998.73465-1.96998.32312 0 .48852.41804.48852 1.23473 0 1.39214-.0104 1.38508 1.21961.82464 1.149171-.5236 1.313201-.33536.915651 1.0508-.343241 1.1968-.0347 1.46357.68696.594.47458-.57183 1.41111-.72073 1.41111-.22437 0 .29184-2.483571 2.16465-2.870581 2.16465-.10275 0-.28977-.10294-.41558-.22876zm-13.29439-.8176c0-.18745.26753-.90182.59451-1.5875.65764-1.37909 1.76413-1.65988 2.73098-.69303.81313.81313.12222 1.91578-1.20041 1.91578-.56381 0-1.12322.15875-1.24313.35278-.27853.45066-.88195.45885-.88195.0119zm2.46945-1.42309c0-.19402-.16812-.35277-.3736-.35277s-.27549.15875-.15557.35277c.11992.19403.28804.35278.3736.35278.0856 0 .15557-.15875.15557-.35278zm-168.24371 1.0848c-.38879-.24585-.42744-.64239-.17639-1.80964.43839-2.03826 1.24899-2.509 2.42231-1.40672.64489.60584.8978.69693.8978.32334 0-.28606-.1905-.71061-.42333-.94344-.32926-.32926-.32398-.52133.0238-.86431.35836-.35347.5527-.30096.97937.26459.6394.84754.43762 3.19072-.3419 3.97025-.46053.46053-.5687.43412-.92142-.22493-.51436-.9611-1.00095-.95285-1.14402.0194-.12977.88194-.60219 1.12295-1.31617.67146zm108.27149-1.41673c0-1.74801.46273-2.52143 1.11707-1.86709.51592.51592-.0223 3.61016-.62796 3.61016-.35097 0-.48911-.49231-.48911-1.74307zm55.97407.80232c-.12935-.12935-.23519-.6056-.23519-1.05833 0-.62375-.19654-.82315-.81138-.82315-.44627 0-1.00189.1905-1.23473.42334-.29466.29467-.5355.31116-.79238.0543-.57976-.57976 3.15742-3.22765 3.90412-2.76617.37929.23442.4723 2.95871.13135 3.8472-.22727.59228-.57547.70915-.96179.32283zm7.31892-4.06728c.0951-1.87987.79895-2.734555 1.14917-1.39534.15412.58935.38282.68795 1.21141.52224 1.50682-.30137 1.263.37644-.58376 1.6228-.88285.59583-1.66466 1.08333-1.73735 1.08333-.0727 0-.0905-.82487-.0395-1.83303zm-2.26244-.38153c0-.24788.2667-.83145.59268-1.29684.64435-.919955.73114-.906635-1.08998-.16726-.31176.12658-.59214-.09691-.75151-.599095l-.25423-.80099-.64974.80239c-1.01943 1.258955-1.40223.553985-.55083-1.014432.84372-1.554265 1.75755-1.815003 2.36741-.675474.29668.554358.60705.683094 1.25488.520499 1.19368-.299597 1.44105.558247.66027 2.289732-.59604 1.32178-1.57895 1.90785-1.57895.94147zm40.530391-3.66508c-.0215-.161689-.0117-.638849.0217-1.060355.0436-.550891-.1645-.798872-.74024-.881945-.50391-.07271-.87452-.429496-.99933-.962063l-.19839-.846494-.42587.934688c-.53871 1.182338-2.0437 1.352645-1.74151.197072.16781-.641699.0765-.708413-.70176-.513069-2.13005.534606-3.46999-2.096502-1.87829-3.688204 1.35627-1.356268 3.88056-.392447 3.88056 1.481667 0 .603642.0941.682036.42333.352778.69221-.692203 1.28869-.48859 1.87176.638937.44102.852826.7116 1.021542 1.37236.855701 1.14449-.287249 1.41122.623962.64922 2.217918-.57536 1.203565-1.44667 1.927064-1.5335 1.273369zm-4.19428-5.452453c0-.463437-.25354-.662361-.8442-.662361-1.05167 0-1.42396.856438-.69093 1.589468.66133.661335 1.53513.133626 1.53513-.927107zm-139.200741-.710766c-.21991-.355815 1.07816-1.687089 1.66504-1.707638.56291-.01972 1.45752-2.040838 1.85152-4.182982.35647-1.938154.56097-2.37007 1.16394-2.45835.53679-.07859.79264.136533.96121.808179.30629 1.220322.86243.807695 1.12507-.834722.12128-.758482.50601-1.511282.89722-1.755598.90949-.567983 1.46952-.206022 1.00992.652734-.54422 1.016885-.41968 3.060425.22584 3.705948.52591.525914.52845.630679.0273 1.131771-.72196.72196-1.66238.340551-1.67598-.679728-.01-.722338-.048-.74082-.37429-.18034-.19996.343464-.27376.907415-.16401 1.253229.10976.34581-.0363.937919-.32456 1.315797-.45351.594498-.57181.615767-.87819.157882-.19475-.291041-.35652-.816348-.35949-1.167348-.008-.91681-.61684-.409872-.87759.730423-.25281 1.105559-1.03479 2.130449-2.29311 3.005416-1.01391.705016-1.63149.769063-1.97989.205327zm132.056991.02014c-.91763-.534469-.78586-2.304761.24855-3.339165 1.70651-1.706514 4.37268-.533464 3.92859 1.728477-.11985.610376-.48422 1.308216-.80974 1.550751-.70862.527988-2.50879.560031-3.3674.05994zm2.73403-1.912017c0-1.342955-1.31351-1.700297-1.94089-.528024-.50733.94796.13132 1.844905 1.20446 1.691577.55969-.07997.73643-.35922.73643-1.163553zm-5.39309.110243c-.23526-.23526-.42775-.798453-.42775-1.251543 0-.725759-.0876-.77694-.73577-.430029-1.14102.610655-1.21957.140924-.31258-1.869281 1.13819-2.522619 1.12922-2.516861 2.584-1.658521 1.44443.852233 1.6568 1.801198.57298 2.56033-.5147.360515-.68677.822421-.61736 1.657312.10333 1.242769-.37058 1.684676-1.06352.991732zm.98337-3.638021c0-.291042-.15875-.529167-.35278-.529167s-.35278.238125-.35278.529167.15875.529167.35278.529167.35278-.238125.35278-.529167zm-121.179161 2.998615c-.32467-.525332.12659-1.058333.89604-1.058333.77489 0 1.27657-1.405181.84989-2.38046-.14874-.339982-.24079-.750556-.20455-.912382.0362-.16183-.34141-.614613-.83922-1.006189-.72685-.57174-.82259-.811386-.4861-1.216826.35704-.430206.54911-.385749 1.29882.300633l.87981.805502-.21566-1.132879c-.22229-1.167723.53132-2.438305 1.2008-2.024543.53272.329237.37769 5.345455-.20857 6.748569-.78028 1.867461-2.53519 2.906102-3.17126 1.876908zm114.211791-2.703082c-.65429-.264015-.54315-.905778.47114-2.720541 1.03066-1.844051 1.97171-2.107929 3.25471-.912633 1.00829.93937.97732 1.929741-.0938 3.000901-.82871.828714-2.447 1.110432-3.63201.632273zm3.02848-1.835524c.19013-1.343808-.57246-1.787797-1.37782-.802174-.99285 1.215072-.88218 1.883071.28962 1.748239.71068-.08177 1.00172-.334796 1.0882-.946065zm-147.314571-.268365c-1.21268-.690026-2.20487-1.453639-2.20487-1.696914 0-.243276.31347-.725999.69659-1.07272.67346-.609476.70747-.602509 1.02433.209907.18026.46217 1.05951 1.220664 1.95389 1.685544 1.60944.836552 1.64059.838722 3.03261.211007l1.40647-.634231v-2.203955-2.203955l-1.4993-.180685c-.82462-.09938-1.93621-.292686-2.47021-.429571-.87735-.224906-1.02413-.121475-1.52343 1.073531-.41823 1.000947-.65173 1.223233-.96055.914411-.30882-.308825-.3084-.5675.002-1.064108.22536-.360857.32941-.963295.23123-1.338757-.31954-1.221913.5771-1.544743 2.71226-.976521 1.05642.281143 2.35325.513052 2.88185.515356 1.35117.0059 2.03753 1.484588 2.03753 4.38967 0 2.144597-.0592 2.318703-.85598 2.518689-.47079.118163-1.13039.518061-1.46579.888669-.90853 1.003921-2.5113.809805-4.99837-.605367zm15.06649-.159484c-.64073-1.197215-.2031-1.697383 1.31489-1.502791 1.06576.136617 1.59846-.01651 2.56076-.736071.66829-.499713 1.40912-.908572 1.6463-.908572s.49076-.178594.56352-.396875c.0728-.218281.56224-.396875 1.08773-.396875.5676 0 .95544-.193604.95544-.476938 0-.262315.38742-.730779.86092-1.041033.47351-.310254.91007-.909225.97014-1.331048.15529-1.090496 1.89533-1.279275 2.22475-.241367.31151.981487-.20415 1.54548-2.78969 3.051175-1.18143.688012-2.46556 1.530036-2.85362 1.871168-1.03518.910012-4.78673 2.842349-5.51829 2.842349-.34677 0-.80705-.329904-1.02285-.733122zm125.339051-.210354c-.90462-.631035-1.05186-1.801845-.26458-2.103949.29104-.111686.5319-.384514.53526-.606291.004-.221774.39788-.774817.87672-1.228979l.87063-.825751 1.23994.766329c1.62521 1.004432 1.60684 1.566196-.0425 1.29855-1.1169-.181246-1.201-.148583-.65166.253104.83824.612934.37571 1.408621-.53539.921018-1.02993-.551204-1.17128.197626-.16212.858855.48959.320788.79636.735027.68171.920532-.31263.505844-1.65033.372801-2.54806-.253418zm-4.7625-2.624903c-1.10535-.824682-1.220431-1.429174-.40148-2.108846.31277-.259574.90948-1.191824 1.32602-2.07167.89738-1.8955 2.01431-2.233888 3.50446-1.061727 1.15423.907912 1.25642 2.272266.21206 2.831193-.49916.267141-.6793.62295-.55535 1.096924.24694.944302-.92453 2.063172-2.14543 2.049106-.53358-.0061-1.4067-.336888-1.94028-.73498zm3.26319-1.590093c0-.510374-1.03354-.624794-2.38125-.263621-1.1275.302158-.98273.764555.35278 1.126755 1.21976.330807 2.02847-.0133 2.02847-.863134zm.64562-2.476973c-.16443-.853825-1.12801-.847528-1.29286.0084-.14264.740703.65187 1.413482 1.11835.947001.16534-.16534.24387-.595292.17451-.95545zm-102.531491 2.81202c.13212-1.563444.85592-1.92895 1.33331-.673305.19042.500839.48429.910619.65305.910619.4118 0 1.47452-1.196605 1.47452-1.660279 0-.203496.23813-.567623.52917-.809166.44675-.370773.52917-.299582.52917.457119 0 .492957-.0986 1.153266-.21914 1.467354-.3016.785954-1.99024 1.603305-3.31242 1.603305-1.0484 0-1.09228-.05757-.98766-1.295647zm93.96451-2.206025c-.13348-.215975-.0746-.90551.13079-1.532308.46396-1.415708.0398-3.414452-.56842-2.678307-.21826.264188-.54025 1.035724-.71552 1.714525-.19433.752641-.56951 1.282492-.96158 1.357997-.53104.102266-.60389-.03575-.41868-.793211.75368-3.08241.75757-2.926457-.055-2.205383-.87998.780891-1.48466.506896-1.48466-.67274 0-1.266532-.44907-1.044635-1.12033.553575-.33395.795112-.8328 1.407524-1.14653 1.407524-.76484 0-.71747-.226978.59117-2.832506.83645-1.665411 1.33734-2.282772 1.85208-2.282772.53541 0 .75081.297744.89323 1.234722.13096.861561.34419 1.192153.70556 1.093869 1.70278-.46312 2.45815-.444783 2.45815.05967 0 .290435.30405.607572.67567.704752.37262.09744.72871.551025.79392 1.011283.11975.845168.45046.922937 1.970001.463257.94819-.28684 1.11543.457666.17639.785203-.339551.118434-1.273511.842676-2.075461 1.609432-.92682.886146-1.54651 1.25102-1.70077 1.00142zm-88.17382-.568922c-.9316-.931601-.1053-3.806042 1.21453-4.224937 1.09074-.346191 1.83452.417883 1.32803 1.364273-.2538.474221-.45912.591841-.55115.315736-.0807-.24202-.35437-.440034-.60821-.440034-.50776 0-1.0353 1.597427-.70437 2.132891.37451.605977 1.24076.353152 1.56648-.457196.31528-.784377.31931-.783128.34141.105833.0402 1.615602-1.47135 2.318808-2.58672 1.203434zm2.96186.190038c0-.194028.23812-.352778.52917-.352778.29104 0 .52916.15875.52916.352778s-.23812.352778-.52916.352778c-.29105 0-.52917-.15875-.52917-.352778zm-6.52639-.705555c-.11992-.194028-.50672-.352778-.85957-.352778s-.85474-.256896-1.11533-.570883c-.40937-.493268-.33572-.680974.54176-1.380649 1.54485-1.231826 3.37342-1.401014 3.37342-.312127 0 .334349-.4018.49977-1.2139.49977-.66765 0-1.31078.156746-1.42918.348326-.35197.569496.60261 1.303154 1.47787 1.135838.91362-.174646 1.1165.440334.25441.771148-.7318.280818-.77373.27517-1.02948-.138645zm72.56638-1.834445c-.59406-.594064-.52775-1.136706.22181-1.815045.79706-.721335 2.2989-.758038 2.86981-.07013.57768.696059.16409 1.250174-.93313 1.250174-.76384 0-.8361.0822-.46515.529167.36981.445604.30421.529166-.41542.529166-.47002 0-1.04508-.1905-1.27792-.423332zm-64.91603-1.075972c.0916-.947914-.001-1.127372-.53678-1.035939-.44623.07621-.61074-.072-.52917-.476744.12205-.605529 2.77073-2.279678 3.6067-2.279678.68994 0 .27531 1.707239-.5177 2.131645-.35596.190507-.75108.90007-.87804 1.576808-.30689 1.635904-1.30199 1.708827-1.14501.08391zm59.00388-.08149c-.58606-.447135-.60966-.571715-.16368-.864097.36258-.237705.70338-.176678 1.12028.200607.92868.840444 1.9086.480063 1.77553-.652974-.0978-.83312.053-.988007 1.28514-1.319795 3.06732-.825948 3.35386.689444.41057 2.17134-2.18301 1.099104-3.42561 1.229579-4.42784.464919zm4.71712-1.924932c.0882-.264583-.0441-.396875-.30868-.30868-.25467.08488-.53247.362697-.61736.617361-.0882.264583.0441.396875.30868.30868.25466-.08489.53247-.362701.61736-.617361zm-61.66996 1.381499c0-.198187.38342-.535037.85204-.748559.46863-.213519.93515-.706014 1.03673-1.094437.1461-.558708.37341-.658851 1.08823-.479442 1.15994.291126 1.17206-.30002.0216-1.053829-.48507-.317828-.88194-.773133-.88194-1.011788 0-.670221 1.28672-1.677387 1.97299-1.54433.92351.179052 1.01173.963686.14441 1.284524-.75441.279079-.75259.287743.14684.697554.54193.24692.91076.703753.91076 1.128085 0 .896486-1.19841 2.12423-2.07348 2.12423-.36429 0-.85998.238125-1.10152.529167-.49384.595037-2.11667.724475-2.11667.168825zm57.21028-1.813634c-1.5512-.774619-1.64535-.895516-1.15632-1.484764.80678-.972111 4.27103-1.12661 4.27103-.190479 0 .18511-.38868.513662-.86374.730113-.47506.216453-.91162.649612-.97014.962578-.0974.520919-.20568.519445-1.28083-.01746zm1.35082-1.353802c0-.194028-.3175-.352778-.70555-.352778-.38806 0-.70556.15875-.70556.352778 0 .194027.3175.352777.70556.352777.38805 0 .70555-.15875.70555-.352777zm-5.15691-1.125707c-.14282-.231084-.1125-.471978.0674-.535319 1.43908-.506769 3.16618-1.827051 3.262-2.493649.1396-.971144.40223-.976944 1.98377-.04381 1.48663.877132 1.64108 1.920984.36993 2.50016-.68564.312396-1.08322.29711-1.76517-.06786-.78425-.419717-.96908-.387579-1.69542.294778-.90161.847026-1.82398.990497-2.22248.345701zm5.50969-1.667119c0-.177856-.19844-.392596-.44097-.477199-.61688-.21518-1.35853.104775-1.12368.484766.25664.415259 1.56465.408933 1.56465-.0076zm-65.37908 1.148927c-.45702-.457024-.23221-1.457657.37978-1.690409 1.30186-.49512 5.02708-3.171656 5.02708-3.611905 0-.254166.15875-.462121.35278-.462121s.35278-.234721.35278-.521603c0-.428653.15751-.449838.88386-.11889.77692.353985 1.05188.267695 2.27237-.713119.76368-.613706 1.56726-1.115833 1.78575-1.115833.23702 0 .30669-.285266.17275-.707294-.277-.872748.65371-1.332855 1.41615-.700088.88802.736992.6185 1.7102-.62185 2.245477-.63059.272129-1.97221 1.107697-2.98138 1.856817-1.00916.749117-2.59666 1.811017-3.52777 2.359777-2.16504 1.275983-3.61906 2.196984-4.54216 2.877069-.4029.296837-.83946.432791-.97014.302122zm-17.13503-1.706857c-.85338-.467516-2.00432-1.007844-2.55764-1.200733-1.31473-.458318-1.26986-1.04032.32909-4.267958l1.31072-2.645834 2.82223.126916c1.55222.0698 3.0034.273353 3.22484.452338.22144.178986.51492 1.074371.65218 1.989752s.39935 1.944243.58243 2.286363c.4578.855472.0263 1.489947-1.98646 2.920969-2.01744 1.434352-2.3321 1.458662-4.37739.338187zm5.01782-3.317456c-.12347-.504084-.41359-1.472138-.64471-2.151235-.41142-1.208867-.46464-1.236896-2.54175-1.338471-2.11084-.10323-2.12371-.09789-2.55322 1.058334-.23743.639145-.63854 1.638331-.89135 2.220415l-.45967 1.058333 2.34141 1.086069 2.34142 1.086069 1.31618-1.0515c1.09825-.877401 1.27901-1.203255 1.09169-1.968014zm68.70253 3.265887c-1.99246-1.06963-1.98097-1.055078-1.39887-1.770479.43955-.540212.41699-.574019-.21431-.321282-1.53528.614638-1.94028.636654-1.94028.105477 0-.292605.59531-.774651 1.32292-1.071217.7276-.296566 1.64041-.787037 2.02847-1.089935.60927-.475566.63334-.599045.17639-.904801-.755-.505192-.7921-.493561-2.77413.869837-.98724.679097-1.95755 1.234722-2.15625 1.234722-.59619 0-.40745-.710074.25607-.963422.62092-.23708 1.03084-.529999 2.10755-1.506022.5349-.484876.50435-.538508-.36502-.640793-1.20403-.141658-1.23812-.985534-.049-1.21285.56561-.108123 1.31897.107114 2.02848.579536.62078.413347 1.60494.969977 2.18702 1.236952l1.05833.485415-1.14652.482438c-1.07932.454156-1.56911 1.185969-.79375 1.185969.55636 0 .41095 1.058153-.17639 1.283536-.53329.204643-.75648 1.195546-.26459 1.17469.14552-.0062.57274-.244299.94937-.529167 1.24907-.944746 3.37702-.381691 2.3686.626727-.26834.268341-.55159.233917-.97863-.118931-.54557-.450791-.58384-.406348-.41504.481982.10227.538205.0882 1.032895-.0313 1.099309-.1195.06641-.92009-.256551-1.77909-.717691zm-10.14317-6.070901c-2.89502-2.42928-3.92115-3.579555-3.19325-3.579555.31382 0 1.59978.873125 2.85768 1.940278s2.4383 1.940278 2.62311 1.940278c.41557 0 1.24675-1.93433 1.0652-2.478969-.12576-.377282-2.40898-1.324145-5.31606-2.204594-.96783-.293123-1.42576-.295426-1.71258-.0086-.46281.462809-2.17812-.434898-3.48104-1.821794-.74092-.788661-.76268-.899078-.21842-1.107931.33248-.127585 1.03095-.0361 1.55215.203303.52121.239402 2.05889.829945 3.41709 1.312319 4.38828 1.55853 7.23194 2.988285 7.23194 3.636119 0 .599077-1.75549 3.263625-2.42127 3.675105-.19317.119384-1.27522-.558295-2.40455-1.505955zm20.1178-5.532973c-.241-.628044.80616-1.927137 1.55341-1.927137.27953 0 .96442-.269468 1.52196-.598817.55755-.329349 1.13205-.480485 1.27668-.335858.34456.344562-.28504 1.321217-1.14677 1.778905-.37509.19922-1.11212.646393-1.63784.993717-1.16491.769617-1.30332.777494-1.56744.08919zm-3.56994-2.287154c-1.18764-.486852-1.30816-1.258774-.37925-2.429065 1.05982-1.335206 1.51731-1.516917 2.58933-1.02847.91468.416756 1.52637 1.633198 1.01049 2.009511-.16628.121298-.47729.538041-.69114.926096-.44478.807143-1.36863.997773-2.52943.521928zm2.2706-1.251196c.11669-.304084.0589-.706163-.12847-.89351-.50656-.506554-1.51695.01203-1.51695.778577 0 .826752 1.33645.920103 1.64542.114933zm2.23514.200102c0-.194028.14938-.352778.33196-.352778.18257 0 .43007.15875.54998.352778.11992.194027-.0294.352777-.33195.352777-.3025 0-.54999-.15875-.54999-.352777zm-9.08807-1.646097c-.24476-.09861-.61406-.495139-.82066-.881185-.29887-.558439-.20791-.948236.44501-1.907121.86802-1.274774 1.92995-1.670505 1.59043-.592681-.66771 2.119708-.6693 2.197872-.0493 2.435792.41718.160084.82939-.01397 1.2431-.52488.62421-.770862 1.38781-1.023514 1.38781-.459182 0 .167862-.32902.723487-.73116 1.234723-.70035.890347-1.90287 1.16282-3.06524.694534zm-48.66786-1.727126c-1.01237-.683816-1.92595-1.381294-2.03019-1.549951-.10423-.168656.2875-1.497946.87053-2.953978.58302-1.456031 1.06004-2.802337 1.06004-2.99179 0-.569224 1.06098-.796133 1.8209-.389433.39131.209419 1.57399.388513 2.62818.397986 1.0542.0095 2.0242.191124 2.15556.40367.49216.796341 1.03619 4.702683.75921 5.45144-.36667.9912-3.34731 2.890628-4.5225 2.881985-.49559-.0036-1.72937-.566113-2.74173-1.249929zm5.84073-2.445815c.0657-.576056-.0564-1.634517-.27139-2.352135-.37694-1.258116-.46257-1.313713-2.39524-1.555184-1.84531-.230557-2.0474-.185545-2.54732.567375-.78195 1.177679-1.40941 3.162817-1.18474 3.748276.10609.276471.9273.879201 1.82492 1.3394l1.63203.836725 1.41111-.768541c1.08022-.588328 1.43914-1.014137 1.53063-1.815916zm38.86242 1.573292c0-.200854.26659-.772052.59241-1.269328.48917-.746564.51566-1.02706.15195-1.609442-.54641-.874938-.3624-1.084504.71332-.812412 2.03537.514825 3.1088 2.292483 1.3843 2.292483-.35429 0-.90421.396875-1.22204.881944-.57557.878443-1.61994 1.211591-1.61994.516755zm-3.7043-2.240397c-1.3325-.58073-2.03354-1.411401-1.87703-2.224109.19235-.998788 1.29731-.994009 1.67799.0073.45507 1.196936 1.09934 1.523913 1.6145.819389.69737-.953708 1.23051-.671364 1.23051.651658 0 1.049359-.11916 1.232649-.79375 1.220914-.43656-.0076-1.27006-.221395-1.85222-.475112zm.76449-2.568488c-.54539-.545381-.18776-1.896294.64676-2.443088.81847-.536281.94697-.535262 1.7855.01416.59078.387097.86555.849515.79375 1.335857-.1638 1.109547-.93777 1.163389-1.34453.09353-.19642-.516611-.55458-.866859-.79592-.778327-.45942.168528-.47057.377791-.0744 1.395688.23983.616232-.49815.895164-1.01114.382176zm-7.64352-1.904673c0-.206783.18777-.722721.41728-1.146528.2295-.423807.38706-1.189678.35012-1.701936-.091-1.262228.89171-1.62483 1.39715-.515522.26135.573594.58693.777926 1.0476.657458 1.10331-.288522.76192.385478-.89809 1.773071-1.58484 1.324766-2.31406 1.618921-2.31406.933457zm-2.93325-1.873975c-.1099-.28638.0375-.71768.32765-.958443.2901-.240763.68916-.739892.88679-1.109175.33877-.633007.31225-.64057-.46365-.132186-1.10394.723329-1.86976.242859-1.56274-.980442.3116-1.241465-.30151-1.168218-1.06688.12746-.71091 1.203467-1.22052 1.48359-1.91649 1.053455-.3945-.243815-.30948-.497358.43269-1.290277.50801-.54276 1.17879-1.492707 1.4906-2.110994.31181-.618286.75089-1.237852.97573-1.376812.52239-.322851 1.41772.877893 1.19342 1.60052-.31738 1.022531.30204 1.513553 1.32269 1.048514 1.27523-.581035 2.13459-.194799 1.8252.820337-.13334.437518-.48738 1.074393-.78675 1.415278-.29938.340885-.72115.974478-.93728 1.407986-.46885.94044-1.44104 1.214292-1.72098.484779zm-25.12709-17.176304c-.12789-.206937-.14782-.460959-.0443-.564493.2527-.252699.94074.192555.94074.608783 0 .45084-.60904.42075-.89645-.04429z" stroke-width=".352778" transform="translate(300.12165 -19.425881)"/>
</svg>
