<?xml version="1.0" encoding="utf-8"?>
<svg height="95.23275mm" viewBox="0 0 221.40385 95.232753" width="221.40385mm" xmlns="http://www.w3.org/2000/svg">
	<title>A diagram showing the lines of sight from a position on the right hand side of a hexagon, aligned to have points up and down. The labelled points on the hexagon are A and B on the side visible to the viewpoint, and C and D which show the extent of the hexagon that is visible.</title>
	<path d="m183.90091 306.40523c-1.36555-.10701-1.67541-.24985-1.5839-.73016.0626-.32843.45262-.64568.86677-.705.89971-.12888 1.12327-1.17947.84386-3.96549-.18433-1.8379-.2363-1.9209-1.16309-1.85746-.60577.0415-.97014-.10997-.97014-.40323 0-.71314.83792-.8979 4.07206-.8979 3.90424 0 4.39461.45135 4.39461 4.04497 0 1.67341-.17852 2.75568-.53957 3.27115-.52337.74722-2.61899 1.56292-3.69377 1.43776-.29104-.0339-1.29311-.12148-2.22683-.19464zm3.97698-2.27576c.51815-.55617.7193-1.24885.7193-2.47701 0-1.46435-.12128-1.76019-.85945-2.09652-1.60217-.73-1.96277-.23604-1.96277 2.6887 0 2.40412.0658 2.6569.69181 2.6569.3805 0 1.0155-.34743 1.41111-.77207zm-35.0847-.98705c-.19102-.30908-6.72751-6.03155-8.75418-7.66398-.4309-.34708-1.12995-1.0782-1.55343-1.6247s-1.3738-1.47216-2.11182-2.05702c-.73802-.58485-3.15607-2.75709-5.37345-4.82719s-5.31301-4.95874-6.87917-6.41919-3.33177-3.04795-3.92357-3.52778l-1.076-.87241.24465-5.64444c.21153-4.88021.26118-10.06535.31113-32.48985l.009-3.91485 2.20486-1.14794c3.06942-1.59806 8.4698-4.75765 11.20069-6.55316 1.26118-.8292 3.95993-2.42121 5.99722-3.53779 2.0373-1.11658 4.52482-2.56137 5.52784-3.21064s1.90198-1.18049 1.99768-1.18049.98958-.53711 1.98638-1.19358c1.93741-1.27594 1.77377-1.26879 5.65755-.24741 2.41187.63429 2.47294.66861 2.24533 1.26176-.13529.35257-.45283.47667-.876.34236-.75048-.2382-.87528.18981-.24044.82465.30493.30493.31075.42333.0208.42333-.22138 0-.50875-.17189-.63859-.38197-.12984-.21009-.93956-.68353-1.79938-1.05209l-1.56331-.67011-1.66102.83209c-4.40676 2.2076-7.39037 3.90659-13.42629 7.64547-1.23216.76325-2.30761 1.38772-2.3899 1.38772-.0823 0-1.15507.635-2.38395 1.41111-1.22889.77611-2.3375 1.41111-2.46358 1.41111-.49262 0-6.5819 3.63088-7.47068 4.45458-.82117.76102-.91526 1.06227-.73532 2.3542.1665 1.19544.34166 10.78923.2448 13.40857-.013.351-.18234.54007-.37637.42015-.19403-.11991-.35278-.0499-.35278.15557 0 .20548.14776.3736.32835.3736.44433 0 .48325 20.48904.0411 21.65193-.31957.84055.0667 1.28442 6.43625 7.39502 3.72692 3.57545 7.56998 7.17914 8.54012 8.0082.97013.82906 3.11326 2.8824 4.7625 4.56297 2.603 2.65245 8.08324 7.44333 9.45361 8.26444.30904.18518 1.91364-1.13997 4.93852-4.07843 5.58318-5.42369 8.6796-8.62769 9.66151-9.99719.92773-1.29393 8.83967-8.68552 11.76619-10.99235l2.12955-1.67863.0849-14.21382.0849-14.21381h-1.77348c-1.34123 0-1.77347-.12897-1.77347-.52916 0-.29104.142-.52917.31556-.52917.17355 0 .11678-.67321-.12617-1.49602-.41089-1.3916-.54869-1.51429-1.97428-1.75766-1.85713-.31703-2.14467-.004-2.01378 2.19535l.0945 1.5875-1.85208.10663c-2.15934.12432-2.26966-.13019-.85794-1.9794.54677-.71623 1.36254-2.25473 1.81281-3.4189.87989-2.27494 2.49916-5.11362 2.91755-5.11465.39796-.00098 1.25559 1.47257 1.53955 2.64521.40385 1.66774 2.61137 6.65889 3.07571 6.95412.89983.57212.99458.14644.82151-3.69093-.0984-2.18281-.18937-3.99719-.20207-4.03195-.0553-.15135-3.32211-2.27586-4.1883-2.72379-.52455-.27126-2.14354-1.62052-3.59774-2.99835s-3.97573-3.41792-5.60339-4.53352c-5.95031-4.07833-8.50589-6.01598-8.50589-6.44921 0-.54404.70009-.40082 2.07503.4245 1.1733.70429 2.28877 1.4139 7.80275 4.96375 1.06715.68702 3.21028 2.38753 4.7625 3.7789 2.7207 2.43877 6.37192 4.95509 7.1899 4.95509.49655 0 .48837.11876.41296-5.99722-.0569-4.61639-.1297-5.16249-.74616-5.59928-1.07754-.76349-.84856-1.45628.48131-1.45628 1.2537 0 7.23594 1.22719 7.5595 1.55075.31892.31892-.64617 1.27147-1.2882 1.27147-.3255 0-.76439-.17258-.97532-.38351-.27618-.27617-.44987-.27617-.62055 0-.13036.21093-.0689.38351.13657.38351.4478 0 .51204 3.41581.0675 3.58658-.16838.0647-.41721.47478-.55294.91134-.17546.56431-.10314.79375.25018.79375.42361 0 .49745 4.51801.50015 30.60347.002 16.83191.11196 30.94479.24493 31.36196.20869.65472.4331.73283 1.6403.57091 1.2295-.1649 1.39852-.10153 1.39852.52439 0 .49916-.28996.76417-.97014.88662-.53357.096-2.16076.49226-3.61597.88045-1.45521.3882-3.32052.81783-4.14514.95473-1.43316.23795-1.4993.2097-1.4993-.64025 0-.57935.24584-.96721.70555-1.11312.55352-.17568.70901-.5419.72159-1.69947.009-.81154.10309-4.53146.2095-8.2665.1683-5.90763.12415-6.79097-.33941-6.79097-.29309 0-.5858.13051-.65047.29003-.0647.15952-2.64311 2.65776-5.72986 5.55164-3.08675 2.89389-5.89462 5.7259-6.23973 6.29338-.97901 1.60986-5.58043 6.15034-7.72717 7.62484-2.20888 1.51718-4.11531 3.40629-3.77796 3.74363.12516.12516.71399.0261 1.30851-.22019.59453-.24626 1.18932-.33939 1.32175-.20695.56451.5645-.67137 1.48235-2.71755 2.01825-1.21082.31711-2.5902.75367-3.06528.97014-1.06686.48609-1.78035.50185-2.06236.0455zm33.62367-18.71321c.53112-.0101.52566-.0621-.0524-.50025-.49729-.3769-.5636-.64159-.2892-1.15432.20935-.39117.22915-.8706.0481-1.16361-.18712-.30276-.15175-.68658.0901-.97802.30087-.36252.27682-.55465-.0985-.7866-.41564-.25687-.40395-.34246.0717-.52497.47487-.18223.50358-.38942.17469-1.26075-.24399-.64641-.57524-.97296-.87159-.85925-.26291.10089-.71638.18344-1.00773.18344-.29134 0-.46204.19843-.37932.44097.0827.24253.5325.40273.99953.35599l.84916-.085-.79375.33819c-.72554.30914-1.02162 1.04402-.78502 1.94844.0508.19403.0691.73667.0408 1.20588s.19937 1.13028.50595 1.46906c.30659.33877.52686.90737.4895 1.26356-.11058 1.05436.0963 1.77392.26229.91219.0849-.4409.41642-.79874.74571-.80497zm-1.23712-7.78398c.75621-.34455.85241-.62245.87961-2.54097.0168-1.18476.13126-2.75022.25435-3.47881.2983-1.76559-.0557-2.75593-1.00348-2.80731-.59434-.0322-.53815-.0926.24629-.26458l1.01627-.22285-.0645-3.88055c-.0707-4.25365-.25772-5.46806-.84212-5.46806-.25702 0-.24431-.14079.0382-.42333.58764-.58764.52952-1.00639-.10583-.76258-.29104.11169-.52917.0273-.52917-.18746 0-.21479.23813-.39052.52917-.39052.29398 0 .52916-.31358.52916-.70555 0-.76513-1.18474-1.00446-1.60512-.32426-.12961.20971-.3034 2.63065-.3862 5.37986s-.20655 6.82419-.27501 9.05551c-.0738 2.40414.0208 4.23659.23218 4.49791.24482.3027.23249.44097-.0393.44097-.88148 0-.32473.70731.57417.72944l.97014.0239-.88195.39823c-1.18051.53304-1.1614.51296-.89645.94166.28745.4651.31595.46488 1.35956-.0106zm.98338-25.80688c.0195-1.98878.0918-5.24316.16071-7.23194l.12533-3.61598h-1.04265-1.04265v3.52778c0 2.1966-.13781 3.52778-.36519 3.52778-.24504 0-.23828.23714.0205.72073.21215.3964.35254 1.15047.31199 1.6757-.0405.52523-.0498 1.86777-.0205 2.98343.0502 1.91433.10282 2.02847.93514 2.02847.88108 0 .88198-.004.91732-3.61597zm-7.95448-10.58333c-.0747-.24254-.23151-.87754-.34843-1.41111-.11692-.53358-.3576-.97014-.53486-.97014-.29355 0-.41334.27779-.95076 2.20486-.13671.4902.0484.61736.89887.61736.69409 0 1.02322-.1552.93518-.44097zm8.27188-1.65488c0-.3766.16646-.78761.36991-.91335.23138-.143.24742-.382.0428-.63818-.17989-.22526-.30666-1.63991-.28172-3.14366.0375-2.26043-.0499-2.73408-.50457-2.73402-1.7559.0002-2.30616 1.86008-1.85265 6.26187.18156 1.76214.24024 1.85208 1.20851 1.85208.77218 0 1.01768-.16518 1.01768-.68474zm-23.63611 61.05589c0-.63261 1.35193-1.08858 3.26319-1.1006.92755-.006.74222.8843-.28118 1.3506-1.44494.65836-2.98201.5295-2.98201-.25zm5.87693-1.26189c-.1679-.43755.0972-.7219 1.04045-1.11602 1.48229-.61934 2.21148-.54296 2.73372.28636.50185.79694.3487.89978-1.75568 1.17893-1.48842.19745-1.83147.13809-2.01849-.34927zm5.99201-1.7775c-.2735-.71271.82022-1.2401 2.57176-1.2401 1.57435 0 1.76994.29246.78916 1.18005-.81618.73863-3.08497.77917-3.36092.06zm18.10477-4.25366c-.56182-.67694-.23155-.98149 1.64083-1.51308 1.95558-.55521 3.13559-.51886 3.65978.11275.49205.59289.61372.52329-2.44182 1.39673-2.3481.6712-2.30478.67114-2.85879.004zm6.87065-1.95918c-.46753-.75647.73673-1.34074 2.98235-1.44695 2.92707-.13844 3.24295.51113.61944 1.2738-2.26206.6576-3.27237.70617-3.60179.17315zm7.41026-1.76077c-.3467-.56097.27908-1.04003 1.82795-1.39938 2.05443-.47665 2.66896-.4173 2.53844.24517-.0667.33833-.77383.77595-1.70156 1.05297-1.93796.57869-2.35985.59472-2.66483.10124zm6.45719-1.58511c-.54454-.5467-.21652-.84054 1.51097-1.35355 1.72462-.51215 2.81056-.4455 2.81056.17251 0 .72432-3.75444 1.75038-4.32153 1.18104zm6.08541-2.17902c0-.86588.55233-1.10195 3.23403-1.38225 1.4084-.1472 2.05764-.0908 2.05764.17891 0 .58513-1.88551 1.45224-3.69809 1.70068-1.43774.19707-1.59358.14843-1.59358-.49734zm7.40834-1.95675c0-.30296.35719-.65181.79375-.77522s1.29751-.48116 1.91322-.79498c.92933-.47369 1.21394-.49219 1.67569-.10897 1.15183.95593.31419 1.60696-2.55775 1.98793-1.52223.20194-1.82491.15072-1.82491-.30876zm6.72546-1.63354c-.79209-.50386.0818-1.28801 1.9635-1.76183 1.21645-.3063 1.73233-.30611 2.10211.00071.6906.57314.33486.954-1.30303 1.39504-.78006.21005-1.60679.45082-1.83719.53505-.2304.0842-.64682.008-.92539-.16904zm6.5625-2.02225c-.68447-.68447.82786-1.48048 3.07777-1.61999 1.99939-.12396 1.94087.61262-.10174 1.28072-1.90567.62331-2.61152.70378-2.97603.33927zm6.64398-2.23426c-.11991-.19403-.13123-.49321-.0251-.66485.29368-.47518 3.28824-.83074 3.93732-.46749.46239.25876.29276.43212-.88332.90269-1.65708.66303-2.71158.74299-3.02884.22965zm-50.10016-1.51452c-.27829-.68276-.0611-1.10437.46551-.90348.18012.0687.20708.44244.0599.8305-.24955.65799-.28496.66291-.52542.073zm56.63002-.42159c-.48527-.58471-.48602-.58423 1.9037-1.20643 1.47782-.38477 1.97339-.26533 1.97339.47565 0 .25755-.70195.64321-1.56733.86112-1.94036.48859-1.78902.49713-2.30976-.13034zm-77.43819-.86261c-2.18462-.15473-2.82222-.31944-2.82222-.72906 0-.33642.28572-.49916.78444-.44678.99072.10405 1.36779-.64702 1.45826-2.90461.0389-.97014.10579-2.08139.14871-2.46944.0669-.60478-.16132-.72092-1.59766-.81308-1.3895-.0892-1.6757-.22503-1.6757-.79552 0-.65207.18883-.67622 3.61597-.4624 3.94291.24598 5.55625.84665 5.55625 2.06866 0 .40011-.33215 1.01188-.73812 1.35948-.67908.58145-.69319.68165-.17639 1.2527.89037.98385.71324 2.68783-.36778 3.53816-.51124.40214-1.02718.70205-1.14653.66647-.11936-.0356-1.48701-.15464-3.03923-.26458zm3.13761-1.87559c.53094-.84795-.13905-1.85208-1.23578-1.85208-.72302 0-.85936.19263-.95452 1.34855-.10552 1.28179-.0636 1.34292.84636 1.23473.52656-.0626 1.13134-.39165 1.34394-.7312zm.009-3.65371c.93675-.35946.66579-1.4468-.41212-1.65387-.53358-.1025-.99011-.16069-1.01451-.12932-.0244.0314-.15007.40132-.27925.8221-.17284.56297-.0679.80842.39715.92922.34761.0903.65873.18257.69137.20508.0326.0225.31045-.0554.61736-.17321zm80.47725 4.47184c-.31016-.50185.34642-.7636 2.46345-.9821 2.01077-.20753 2.58739.22894 1.24885.94531-.84914.45445-3.43831.48011-3.7123.0368zm6.31056-1.47493c-.31493-.50957.39206-.92959 2.03076-1.20645 1.32885-.22451 2.75612.0261 2.75612.48389 0 .23568-3.26053 1.11478-4.13465 1.11478-.2254 0-.51891-.1765-.65223-.39222zm6.77701-1.64378c-.3235-.52344.49095-1.0588 2.19234-1.44107 1.22571-.2754 1.54635-.24132 1.70865.18163.10988.28635.0338.68667-.16915.88958-.51109.51109-3.4637.80372-3.73184.36986zm6.12375-1.95871c0-.37484.6162-.74706 1.83684-1.10955 1.63294-.48493 1.89559-.48673 2.36613-.0162.77115.77115.16239 1.17674-2.17924 1.45196-1.71851.20198-2.02373.15278-2.02373-.32622zm6.50202-1.68917c-.30276-.48988.38749-.94255 1.8738-1.22886 2.31411-.44576 3.01524.56184.84367 1.21246-1.70878.51196-2.40859.51618-2.71747.0164zm5.91059-2.33257c.11958-.62096 2.80762-1.33537 3.72698-.99054.84088.3154.43616 1.15864-.66146 1.37817-2.08729.41746-3.19363.27756-3.06552-.38763zm6.28462-1.64379c0-.84804 3.24681-1.31032 3.72854-.53087.36505.59066-.5517 1.00744-2.22924 1.01349-1.04395.004-1.4993-.14282-1.4993-.48262zm6.06248-1.54045c.13589-.71709 2.25588-1.02035 3.10974-.44485.47037.31702.47037.39525 0 .70403-.29104.19106-1.13612.34981-1.87795.35278-1.09547.004-1.32681-.11055-1.23179-.61196zm5.22641-1.60483c0-.50583 1.90622-1.30559 3.11185-1.30559 1.05539 0 1.03496 1.25747-.025 1.54154-1.41161.37829-3.0868.25025-3.0868-.23595zm6.14607-1.42652c-.34244-.89238.15553-1.29018 1.61504-1.29018 2.37965 0 2.31851 1.15706-.0845 1.59861-1.02546.18843-1.36626.11975-1.53057-.30843zm18.46018-.47503c-.88989-.23255-.78331-.50992.78395-2.04031 1.20287-1.17457 1.3887-1.55673 1.31223-2.69871-.049-.73171-.20196-1.44326-.33992-1.58121-.13796-.13796-.0926-.44144.10069-.6744.5757-.69367-.85706-2.13778-2.60712-2.62776-.86391-.24188-2.00931-.89755-2.54534-1.45704-1.13286-1.18246-.8764-1.84734.29828-.77328 1.25358 1.14617 3.13843 1.9976 3.41861 1.54425.38065-.6159 2.58053-2.14836 3.08402-2.14836.25185 0 .89569.49495 1.43077 1.0999.53507.60494 1.8841 1.72104 2.99784 2.48022 1.90128 1.296 3.09029 2.80828 3.09029 3.93046 0 .55912-1.44404 1.30887-2.52092 1.30887-.39811 0-1.22408.22133-1.83548.49184-.61141.27051-1.88339.78645-2.82663 1.14652-.94324.36008-1.95369 1.01188-2.24544 1.44844s-.63126.77534-.75446.75283c-.12321-.0225-.50183-.11352-.84137-.20226zm8.23148-4.33518c1.55889-.01 1.91203-.31492 1.11165-.96127-.56118-.45317-.5461-.47602.18187-.27569 1.81838.50039.51079-.98635-2.73403-3.10861-1.06715-.69796-2.14006-1.59499-2.38424-1.99338-.66712-1.08845-1.49632-.9198-1.49632.30434 0 .77401.34009 1.29804 1.37368 2.11666.75553.59839 1.61929 1.08798 1.91946 1.08798.30018 0 .65935.18376.79815.40835.17953.29047.007.33187-.59654.1434-1.75487-.54768-2.89613-.65741-2.64712-.25451.13325.21562.0642 1.05345-.15349 1.86184-.51072 1.89667-.0421 2.22488 1.91054 1.33814.79875-.36273 2.02112-.66299 2.71639-.66725zm-21.42391 3.33678c-.32424-.84497.20761-1.16748 2.13105-1.29224 2.90812-.18864 2.45296 1.07383-.5849 1.62229-1.04571.1888-1.37393.11873-1.54615-.33005zm6.06631-2.22485c.29539-.25687 1.57593-.681 3.86608-1.2805.38979-.10204.86604-.54216 1.05833-.97804.39307-.89102 1.95473-1.18201 3.08814-.57542.99745.53382.41664.94552-2.98077 2.1129-2.74034.9416-5.78753 1.37826-5.03178.72106zm2.31644-3.01054c-.23543-.28367-.2864-.60332-.11325-.71033.53379-.3299 2.92939.20288 2.79238.62104-.19953.60896-2.19271.6754-2.67913.0893zm-5.95005-1.37704c-1.57506-.31663-2.06501-.97638-.70555-.95007 1.37643.0266 3.83442.59114 4.21019.96691.4368.4368-1.28929.42851-3.50464-.0168zm-8.31967-1.5534c-.67134-.67133-.0575-.87254 1.96967-.64568 3.06476.34297 3.41302.88087.57033.88087-1.26765 0-2.41065-.10583-2.54-.23519zm-5.17408-.92467c-1.21277-.42004-1.56824-1.16152-.52916-1.1038.29104.0162 1.1758.0559 1.96614.0882 1.16168.0475 1.41444.17707 1.31931.67615-.14695.77103-1.15259.89488-2.75629.33945zm22.4954-1.98598c-.63352-.56605-1.02545-1.15558-.87096-1.31008.15449-.15449.82098.30864 1.48108 1.02918 1.42659 1.55721 1.02516 1.74203-.61012.2809zm-29.46276.44276c-.91201-.36801-.39076-.8247.94129-.8247 1.56255 0 2.4983.27841 2.4983.7433 0 .32834-2.67096.39155-3.43959.0814zm-5.64444-1.21301c-1.43493-.42229-1.64643-1.57753-.22343-1.22038.50771.12743 1.38703.32447 1.95406.43787 1.12206.22442 1.18698.956.0938 1.05718-.37286.0345-1.19386-.0891-1.82445-.27467zm-6.97522-1.38829c-.13649-.22085-.0791-.57062.12755-.77726.4539-.45389 3.3892.0757 3.4006.61359.0107.50429-3.22487.65439-3.52815.16367zm-6.16576-1.44348c0-.68283.13241-.72948 1.46566-.51628 1.64431.26294 2.06212.45237 2.06212.93496 0 .18258-.79375.33196-1.76389.33196-1.56402 0-1.76389-.0851-1.76389-.75064zm-5.20347-.92245c-.82581-.28015-.44433-.79636.58851-.79636 1.229 0 2.14552.31294 2.14552.73256 0 .30344-1.89711.34771-2.73403.0638zm-6.52639-1.03953c-.33955-.0887-.61736-.40634-.61736-.70578 0-.39394.21943-.48426.79375-.32672.43656.11974 1.38906.3173 2.11667.43901.7276.1217 1.32292.35974 1.32292.52897 0 .31326-2.49387.35775-3.61598.0645zm-7.19159-1.34181c-.32094-.83634-.098-.89934 2.17726-.61513 2.59125.32368 2.58392.93015-.0129 1.07132-1.52414.0829-1.99558-.0165-2.1643-.45619zm-5.33202-1.00078c-1.67334-.55806-1.53637-1.44241.17639-1.13885 2.10238.3726 2.60575.58131 2.46123 1.02052-.17874.54322-1.22311.59007-2.63762.11833zm-7.64464-1.41347c-.76056-.22947-1.45173-.6239-1.53592-.87649-.1206-.36178.3227-.40676 2.08839-.2119 2.56699.28328 3.82898.67824 3.82898 1.19834 0 .47986-2.64675.41345-4.38145-.10995zm-7.43661-1.27613c-.38805-.17572-1.13275-.33065-1.65487-.34429-1.01773-.0266-1.61709-.60661-1.11897-1.08286.16742-.16007 1.53278-.0953 3.03412.14403 2.64154.42101 3.41744.7053 3.01723 1.10552-.37285.37284-2.58197.49255-3.27751.1776zm-8.20208-1.82209c-1.88563-.54446-1.41148-1.14248.68529-.86433 2.14564.28463 2.65795.52689 1.9982.94492-.58341.36968-1.18682.35155-2.68349-.0806zm-6.43419-.97468c-.82511-.14625-1.27302-.43921-1.35907-.88893-.11713-.6121.0345-.65149 1.73287-.45034 1.96122.23228 2.68024.63054 2.28702 1.26678-.25219.40806-.69895.42023-2.66082.0725zm-7.14776-1.34327c-.9253-.2418-.75724-1.16793.21194-1.16793 1.10957 0 3.05126.69544 3.05126 1.09285 0 .3223-2.12968.3713-3.2632.0751zm-7.23194-1.39641c-1.76341-.8693-1.4084-1.26555.88194-.98438 2.48528.3051 3.72961.74358 3.43999 1.2122-.33716.54554-3.0424.40294-4.32193-.22782zm-6.13027-.99018c-2.00914-.55388-2.42459-.80049-2.42459-1.43917 0-.37295.29052-.44448 1.14652-.28227.63059.11949 1.41391.35365 1.7407.52035.32679.16669 1.00148.30308 1.49931.30308 1.00528 0 1.25173.84985.34711 1.19698-.30691.11778-.58472.19994-.61736.18259-.0326-.0173-.7939-.23405-1.69169-.48156zm-7.21789-1.22435c-1.4406-.35266-1.90948-.66746-1.90948-1.28198 0-.62352 1.85857-.68459 3.49314-.11477.74439.25949 1.09159.58998 1.01918.97013-.12596.66138-1.03517.8104-2.60284.42662zm-7.11128-1.23525c-2.49001-.49065-2.73756-.64006-2.42219-1.46191.18865-.49159.54601-.54592 2.24844-.34184 2.86013.34285 3.61166.55926 3.61166 1.03998 0 .44552-.71368 1.29072-1.0407 1.23247-.10671-.019-1.18546-.22992-2.39721-.4687zm-18.39473-4.16752c-.93608-.49395-1.06015-1.092-.26117-1.259.9123-.19068 3.45018.65334 3.30404 1.09883-.19454.59304-2.03857.69011-3.04287.16017zm-5.68403-.86172c-1.51011-.24786-2.85506-.89648-2.70966-1.30678.20848-.5883 4.17675-.31152 4.82459.33651.47174.47188.47193.56835.002.86568-.54535.34485-.62792.34893-2.11666.10459zm13.93472-.42868c-.77611-.35972-1.59869-.97169-1.82795-1.35994-1.22076-2.06734-.78989-5.60259.78561-6.44577.78191-.41846 2.19812-.35347 3.37723.15501.40011.17253.62778.0291.76073-.47928.32016-1.2243 1.08017-.87876.82904.37693-.12127.60633-.22128 1.59852-.22224 2.20486l-.002 1.10243-.792-.97545c-.69852-.86033-3.17261-1.99685-3.00102-1.37857.0362.13054-.14114.61125-.39415 1.06825-.62013 1.12009-.2394 2.91823.83077 3.9236.68532.64382 1.11927.76874 2.11126.60776 1.06303-.1725 1.24865-.10288 1.24865.46834 0 .67401-.96332 1.40805-1.82889 1.3936-.25528-.004-1.09915-.30206-1.87527-.66177zm-20.99027-1.28183c0-.6512.84375-1.02871 1.62723-.72806.46072.1768.48605.31813.13319.7433-.5698.68657-1.76042.67625-1.76042-.0152z" stroke-width=".352778" transform="translate(-123.12157 -211.37992)"/>
</svg>
