<?xml version="1.0" encoding="utf-8"?>
<svg height="177.06737mm" viewBox="0 0 97.684937 177.06737" width="97.684937mm" xmlns="http://www.w3.org/2000/svg">
	<title>A diagram of three triangles, points downwards. They all have the same width, but the second has a smaller height than the first, and the thrid has a smaller height again.</title>
	<path d="m118.66265 211.41358c-.76703-.57809-1.66642-2.79223-1.66642-4.10242 0-1.40225 1.36598-4.8888 2.01257-5.13692.98247-.37701 1.11587.16921.26543 1.08684-.46807.50505-.95328 1.46327-1.07824 2.12937-.35304 1.88189.1569 4.7695 1.00138 5.67035.79515.84824.43657 1.08481-.53472.35278zm2.91969-.96132c0-.56783.17948-.66396.97014-.5196.53358.0974 1.19924.0255 1.47925-.15994.73124-.48416-.0675-2.1515-1.03071-2.1515-.92259 0-.89896-.20646.16882-1.47545.48507-.57647.88195-1.27407.88195-1.55023 0-.71064-1.3026-.62465-1.7461.11526-.34838.58121-.40106.57726-.89948-.0674-.78699-1.01794-.68212-1.15248 1.10745-1.42085 1.38531-.20773 1.74955-.13279 2.36998.48765.69006.69005.70007.79016.17039 1.70471-.48805.84269-.50009 1.14892-.0908 2.30793.78999 2.23678-.0263 3.42618-2.35146 3.42618-.78995 0-1.02948-.16211-1.02948-.69674zm5.86999.0794c.37859-.77644.36254-6.34465-.0214-7.40834-.51005-1.41323.3649-.85878 1.05308.66734.81114 1.79878.8196 4.6715.0183 6.22098-.60699 1.17379-1.61137 1.67119-1.05005.52002zm-56.080969-1.73344c-.12878-.12878-2.57617-.36003-5.43866-.51389s-7.03015-.44677-9.26147-.65091c-2.23131-.20413-6.7449-.53018-10.03019-.72453-3.28529-.19436-6.53966-.4992-7.23194-.67742-.69229-.17822-2.64563-.43328-4.34078-.5668-1.69514-.13352-2.99546-.38291-2.8896-.55421.27341-.44238 10.73418-.4021 10.73418.0413 0 .19403-.15875.35278-.35278.35278-.19402 0-.35277.14364-.35277.31919 0 .17556 1.78593.32812 3.96875.33904 2.18281.0109 5.55625.18859 7.49652.39482 1.94028.20623 5.90903.5303 8.81945.72015 2.91041.18986 6.41935.52158 7.79763.73717 1.84545.28867 2.70055.28785 3.24419-.003.4791-.2564 3.6859-.40884 9.1357-.43425 9.21554-.043 13.11621-.2529 12.442-.66958-.24065-.14873-2.26716-.29384-4.50335-.32245-2.23619-.0286-4.17235-.11788-4.30258-.19837-.13023-.0805-5.14469-.23539-11.14324-.34423-27.38761-.49694-31.53181-.62542-31.31827-.97094.13693-.22155 1.67118-.27106 4.14105-.13361 2.15794.12009 10.74978.30077 19.09298.40153 25.45233.30737 44.050889.58671 44.979159.67555 1.59126.1523 1.6019.2036.17639.85008-1.72699.78321-11.73426 1.24781-27.693049 1.2857-7.46038.0177-10.62512.14595-11.17751.4529-.85449.47482-1.635.55086-1.99181.19404zm30.279039-1.88254c.13-.21035-.29726-.35277-1.05834-.35277-.761069 0-1.188329.14242-1.058329.35277.11992.19403.596169.35278 1.058329.35278.46217 0 .93842-.15875 1.05834-.35278zm6.17361 0c0-.19402-.23813-.35277-.52917-.35277s-.52916.15875-.52916.35277c0 .19403.23812.35278.52916.35278s.52917-.15875.52917-.35278zm-34.219439-46.46244c-.48507-.0838-2.46945-.59861-4.40973-1.1439-1.94027-.5453-5.51215-1.41485-7.93749-1.93236-2.42535-.5175-4.96535-1.07768-5.64445-1.24484-2.18386-.53757-7.16532-1.843-9.525-2.4961-1.26118-.34906-3.60274-.9094-5.20347-1.2452-3.25958-.6838-4.01189-1.44454-1.05833-1.07021 1.01864.1291 2.56645.45294 3.43958.71963.87312.26669 1.82562.48563 2.11667.48653.9493.003 5.75804 1.13563 8.57307 2.01934 1.51373.4752 3.25998.86422 3.88055.86448 2.66141.001 7.19931 1.09739 9.74075 2.35314 3.42762 1.69362 6.85006 2.07082 10.26118 1.1309 3.84395-1.05917 11.04903-2.50324 14.77918-2.96211.85251-.10487 1.69098-.27779 1.86326-.38427.17229-.10648 1.69729-.4068 3.38888-.66739 6.753239-1.04031 14.045659-2.38512 14.636389-2.69912.34355-.18262.7783-.23708.96609-.12101.19549.12082.24692-.0353.12031-.36526-.19941-.51965-1.10916-.55693-9.25638-.37932-18.126339.39514-42.549459.0792-42.163409-.54543.1018-.16472.0302-.2995-.1591-.2995-.18931 0-.39712.12023-.46179.26717-.0647.14694-2.10197.16199-4.52732.0334-2.42534-.12856-6.63222-.26602-9.34861-.30546-8.44476-.12262-10.19647-.57555-2.82222-.72972 3.4925-.073 7.3025-.11686 8.46667-.0974 2.03593.034 8.60856.065 9.70138.0458.29105-.005 3.16865.1036 6.39468.24159 3.22602.13798 14.81477.29883 25.75277.35745 18.645419.0999 22.309289.24514 22.714179.90026.49064.79388-2.9772 1.93099-8.52921 2.79676-5.71983.89192-10.013169 1.70487-13.268719 2.51242-1.50878.37426-3.20597.68047-3.77154.68047-.56556 0-1.13047.16532-1.25536.36739-.12488.20207-1.04706.34714-2.04929.32237-1.00223-.0248-2.5366.11763-3.40973.31642-4.54881 1.03565-6.36453 1.46568-8.29028 1.96346-1.16416.30091-2.27541.52798-2.46944.50459-.19403-.0234-.74965-.11115-1.23472-.19501zm54.582909-5.25835c-.12485-.12484.0159-.6967.31277-1.2708.59516-1.1509.81932-4.79533.39682-6.45146-.24129-.94584-.21791-.99202.21999-.43453.786 1.00066.98117 3.74742.41688 5.86686-.52177 1.9597-.94941 2.68699-1.34646 2.28993zm-8.06165-1.63684c-.62852-1.48959-.61964-4.49001.0168-5.67923.55189-1.03123 1.35471-1.32805.86008-.31799-.16628.33954-.27889 2.08579-.25025 3.88055.0286 1.79476.008 3.26319-.0454 3.26319-.0536 0-.31518-.51593-.58125-1.14652zm2.51484-.16683c0-.88475.97409-2.37942 2.08229-3.19512 1.34508-.99007 1.41529-2.06245.17212-2.62888-.79025-.36007-.99003-.32448-1.41111.25138-.57395.78493-.65307.44055-.12533-.54555.79246-1.48071 3.51537-.36502 3.51537 1.4404 0 .56343-.19844 1.18245-.44097 1.37561-.24254.19315-.9966.82976-1.6757 1.41468l-1.23472 1.06348 1.14653.0103c.68719.006 1.42919-.27233 1.85208-.69521l.70556-.70556v.89301c0 .9703-.0146.97817-2.73403 1.4712-1.49984.27192-1.85209.24343-1.85209-.14979zm-88.018049-2.29664c-2.86664-.70256-2.87073-.85842-.0293-1.1159 2.87015-.26009 3.5664-.0492 3.17809.96274-.24711.64397-.99728.68046-3.14882.15316zm38.38463-44.6496c-.4015-.54306-1.168-1.85275-1.70334-2.91042s-2.40271-4.224906-4.14972-7.038316c-1.74701-2.8134-5.15765-9.00465-7.57919-13.75833s-4.68047-9.03993-5.01984-9.525-1.70865-2.68575-3.04284-4.8904-3.40887-5.61777-4.61038-7.58472c-1.20152-1.96695-2.69459-4.44939-3.31794-5.51654-.62335-1.06716-1.33299-2.17841-1.57698-2.46945-.24398-.29104-1.15253-1.87854-2.01898-3.52778-2.00292-3.81241-3.27034-6.1363-4.37174-8.01586-.48004-.81921-.82063-1.75635-.75685-2.08254.18643-.95353 2.47734-1.02028 23.2229-.67662 11.88721.19692 36.9996.23575 48.595129.0751 8.54232-.11831 8.53312-.12063 7.17637 1.80653-.71342 1.01335-3.56449 5.92303-6.49599 11.18641-.97259 1.74625-2.05441 3.65125-2.40404 4.23333-.34962.58209-1.44733 2.48709-2.43934 4.23334-.99202 1.74625-2.33836 4.04812-2.991869 5.11527-.65352 1.06716-1.51815 2.49591-1.9214 3.175-.76287 1.2847-.91061 1.51321-3.56052 5.50716-.88686 1.33669-2.21783 3.54159-2.9577 4.89979-.73987 1.35819-1.91925 3.26319-2.62085 4.23333-2.20901 3.05453-3.92142 5.6839-3.92258 6.02304-.00071.17983-.63512 1.27946-1.40999 2.44363-.77488 1.16416-1.40938 2.24417-1.40999 2.40002-.00071.15585-.7155 1.37771-1.58863 2.71525-.87312 1.33755-1.58749 2.53491-1.58749 2.6608s-.34134.70826-.75854 1.294156c-.41719.58589-.79835 1.42803-.84702 1.87142-.21717 1.97841-1.92436 5.10973-2.7858 5.10973-.22817 0-.74335-.44432-1.14485-.98737zm1.36329-2.41869c.35483-.32111.64514-.72858.64514-.90548s.39687-.84197.88194-1.47793.88195-1.40946.88195-1.718896c0-.30943.62052-1.27956 1.37893-2.15583.75841-.87628 1.96491-2.81153 2.68109-4.30054 1.41431-2.94046 4.50442-8.18218 6.34331-10.76008.63475-.88983 1.25869-1.94746 1.38654-2.35029.12786-.40283.71734-1.34166 1.30997-2.08629 1.01833-1.27952 4.56246-8.21639 5.05331-9.89073.13372-.45615.42248-.70089.70089-.59406.53877.20675 3.76242-4.50655 5.237139-7.65722.50753-1.08431 1.17756-2.18293 1.48896-2.44136.31139-.25844.79949-1.02829 1.08465-1.71079.28517-.68249 1.06975-2.07141 1.74351-3.08648.67377-1.01507 1.23177-1.97742 1.24002-2.13857.008-.16115.71764-1.40424 1.57643-2.76244 2.10087-3.32255 4.4058-7.41833 4.4058-7.82897 0-.3307-19.475909-.28105-20.361619.0519-.23632.0888-.5235.01-.63818-.17585-.11468-.18555-1.39913-.33737-2.85434-.33737-2.90959 0-3.20914.46647-.58006.90327l1.68003.27913-1.5875.25284c-1.66009.2644-4.79155-.19867-5.56734-.82329-.28549-.22986-5.16001-.40854-13.22916-.48494-7.02741-.0665-15.6346-.29326-19.1271-.50384-6.71277-.40473-10.58237-.29441-11.19598.3192-.46292.46292.21423 2.27528 1.38269 3.70067.82495 1.00635 1.11688 2.70696.46468 2.70696-.19403 0-.35278.2249-.35278.49977s-.19844.58833-.44097.69656c-.24254.10824-.0924.16116.33375.1176.6421-.0656 1.04072.43418 2.32832 2.91941.85447 1.64923 2.07905 3.95111 2.72129 5.11527.64225 1.16417 1.74551 3.22792 2.45171 4.58612.70619 1.35819 2.30798 3.99946 3.55953 5.86949 2.40945 3.60014 4.32771 6.9044 6.52543 11.24023.7376 1.45521 2.20249 4.13251 3.2553 5.94956 1.05281 1.81704 2.17767 3.88079 2.49969 4.58611.50214 1.09982 2.59457 4.72154 6.80747 11.78282.55161.924546 1.00292 1.769396 1.00292 1.877456 0 .34509 1.82282 3.32071 2.03422 3.32071.1118 0 .49359-.26273.84842-.58384zm-35.04257-60.435796c.0935-.63953-.008-.76694-.46982-.58973-.32399.12432-.83881.22604-1.14405.22604-.47474 0-.46154.10327.0913.71414.78842.87119 1.36336.73885 1.52258-.35045zm-1.11297-3.25206c-.11262-.28142-.19621-.19783-.21314.21314-.0153.37189.0681.58025.18529.46302.11722-.11722.12976-.42149.0279-.67616zm79.609459 1.74184c-.94856-1.80959-1.18256-4.11438-.57305-5.64444.97643-2.45116 1.37768-1.28204.45002 1.31122-.32011.89488.48301 3.94316 1.26718 4.80967.54871.60632.55172.67008.0316.67008-.31613 0-.84523-.51594-1.17578-1.14653zm8.30912-.12398c1.06118-1.34908 1.27816-3.08229.60615-4.84192-.70286-1.84043-.70813-2.03183-.049-1.7789.64106.246 1.237 2.27844 1.23964 4.22778.002 1.56047-1.04968 3.31077-1.98952 3.31077-.42098 0-.38158-.18762.19273-.91773zm-4.68988.007c-.32729-.85291-.24426-6.25654.1046-6.80732.6412-1.01233 1.00091.0461 1.03182 3.03603.0331 3.20328-.13101 4.32931-.63103 4.32931-.16019 0-.38762-.25111-.50539-.55802z" stroke-width=".352778" transform="translate(-32.172689 -34.782742)"/>
</svg>
