<?xml version="1.0" encoding="utf-8"?>
<svg height="109.12977mm" viewBox="0 0 213.75637 109.12977" width="213.75638mm" xmlns="http://www.w3.org/2000/svg">
	<title>A diagram showing the lines of sight from a position on the right hand side of a circle on the left. The labelled points on the circle are M at the top, A on the left directly opposite the point of view, B on the right nearest the point of view, and C and D which describe the visible portion of the front of the circle.</title>
	<path d="m126.34846 278.5303c-.94912-.15906-2.13974-.44588-2.64583-.63738-.50608-.1915-1.55515-.44916-2.33126-.57257-.77612-.12342-1.88737-.37065-2.46945-.54942-4.07196-1.25056-5.86742-1.89176-6.02891-2.15307-.10249-.16583-.51741-.3015-.92204-.3015-1.01099 0-7.54753-3.01807-9.27683-4.28332-5.106323-3.73609-6.286186-4.75269-8.783796-7.56833-1.532618-1.72777-3.120118-3.35356-3.527778-3.61285-.40766-.2593-1.110201-1.24105-1.561203-2.18167-.451001-.94063-1.183542-2.1025-1.627869-2.58194-1.640685-1.77033-2.365444-3.04492-2.138316-3.76054.157504-.49625.06353-.70579-.316516-.70579-.29729 0-.704863-.30707-.905717-.68237-.5301-.9905-.448692-2.13986.151564-2.13986.595085 0 1.247135 1.05947 1.247135 2.02637 0 .3639.674687 1.47008 1.499305 2.45817s2.188432 2.75956 3.030698 3.93661c.842266 1.17704 1.990668 2.66099 2.552004 3.29766s1.023148 1.25497 1.026247 1.374c.01056.40558 8.856232 8.11614 10.166052 8.86151.71768.4084 1.64842 1.04812 2.06833 1.4216.41991.37349 1.21366.73191 1.76389.79651s1.63542.28527 2.41153.49039 1.84207.45651 2.3688.55866c.64075.12426.89428.35095.76608.68502-.27817.72492 1.26149 1.59603 2.41726 1.36762.53131-.105.87913-.3315.77293-.50334-.10621-.17185.045-.31244.33607-.31244.29104 0 .62728.15875.74719.35278.11992.19402.64523.36393 1.16735.37757.82051.0214.85481.0617.25276.29698-.62963.24603-.59574.30876.35278.65291.76903.27902.86086.38688.34378.40376-1.29678.0423-2.34059-.39296-2.14769-.89564.21162-.55148-.42627-.62902-1.19175-.14488-.41063.25971-.30158.40594.52917.7096.57551.21036 1.44326.52729 1.92832.70429 1.52916.55798 3.99523.8358 3.73902.42123-.30571-.49464 1.52945-.79014 4.19848-.67603 1.46851.0628 2.08966.22552 2.02848.53146-.0625.31276.51464.44097 1.98528.44097 1.37013 0 2.21586.17157 2.49324.5058.32819.39544 1.12174.46986 3.63707.34111 1.76952-.0906 3.38599-.29937 3.59217-.46399s.9305-.38431 1.6096-.4882c1.75448-.26841 4.23082-.94869 5.46805-1.50215.58209-.26039 2.08202-.89363 3.33319-1.40721 2.82191-1.15834 5.57728-2.90232 7.72411-4.88888.90349-.83604 2.11431-1.74132 2.69072-2.01175.5764-.27042 1.2114-.81765 1.41111-1.21606.1997-.39842 1.10183-1.58904 2.00474-2.64584 1.52558-1.78561 3.22738-4.13059 5.49068-7.56589 1.68361-2.55541 3.90998-7.69706 5.04092-11.64167.61192-2.1343 1.28071-4.3568 1.48621-4.93888.2055-.58209.39118-1.53459.41264-2.11667l.039-1.05833h-2.4618c-2.06301 0-2.4815-.10001-2.5835-.61737-.10785-.54703.20273-.61736 2.72638-.61736 2.78441 0 2.84808-.0193 2.84808-.86112 0-.47362.1757-.96971.39044-1.10243.25708-.15888.26832-.31679.0329-.46228-.20596-.12729-.44312-2.81048-.5594-6.3288-.11102-3.3593-.3481-6.69283-.52685-7.40785-.17875-.71501-.42324-1.98191-.54333-2.81534-.20719-1.43795-.18197-1.49585.49395-1.13411.82497.44151.81017.51861.67628-3.52418-.0482-1.45521-.0847-3.04271-.081-3.52778.004-.48507.0196-2.78694.0353-5.11527.0416-6.13078.0458-6.25532.21704-6.42658.0859-.0859.58841.12702 1.11669.47315l.9605.62935-.48805-.78149c-.26844-.42982-.76626-.86978-1.10629-.9777-.63499-.20154-.87758-1.20701-.29122-1.20701.17986 0 1.5299.55562 3.0001 1.23472s2.90117 1.23472 3.17994 1.23472c.27878 0 .59612.14443.70521.32094.30507.49361-.19596 1.50337-.65798 1.32608-.22563-.0866-.66279.0273-.97147.25297-.66275.48462-.82029 5.93085-.68484 23.6764.0714 9.3609.009 10.95159-.43271 11.04358-.71641.14914-1.06377-2.08684-1.01094-6.50747.0422-3.53369.0321-3.57982-.82384-3.74344-.66922-.12793-.8666-.0161-.8666.49097 0 .36115.19844.65907.44098.66204.29782.004.27206.11222-.0794.33444-.40639.257-.54992 1.40383-.65553 5.23784l-.13522 4.90881 1.00831.20297c.6606.13298 1.14338.028 1.39998-.30435.50669-.65632.99727-.64249 1.56715.0442.37957.45736 1.19917.53263 4.80146.44097 5.78588-.14722 5.86246.5299.0882.78033-3.37604.14643-4.36004.30488-4.68926.7551-.30468.41668-.39008 3.57085-.31781 11.73779.0543 6.14239.0988 11.95113.0988 12.90831 0 1.56214.0903 1.763.88195 1.96169.48506.12174.88194.42129.88194.66566 0 .51126-6.57192 3.12949-7.07492 2.81863-.18337-.11334-.33341-.5142-.33341-.8908 0-.47173.24691-.68807.79375-.69547.70352-.009.7243-.0512.1828-.36671-.56553-.32953-.59853-1.23355-.44394-12.16011.10336-7.30515.0398-11.80411-.16681-11.80411-.18361 0-.42889.59531-.54506 1.32291-.40512 2.53718-1.63708 5.89249-3.6611 9.97121-1.93245 3.89418-5.93965 10.08382-7.33432 11.32881-.592.52846-1.23141 1.25815-4.36675 4.98328-.61303.72835-1.65324 1.57988-2.31158 1.89228-.65835.31241-1.19699.78805-1.19699 1.05698 0 .67371.45326.61403 1.92308-.25319.69183-.40818 1.49465-.65129 1.78406-.54024.87029.33396.59482 1.25385-.44395 1.48252-1.32405.29148-4.8539 1.66893-7.59213 2.96268-1.24618.5888-2.57725 1.07053-2.95794 1.07053s-1.00031.23308-1.37695.51795c-.37663.28487-1.08166.52398-1.56673.53134-.48507.007-1.33665.25054-1.89241.54039-.55575.28984-1.3495.52887-1.76389.53118-.41438.002-1.62655.24351-2.6937.53603-2.5669.7036-9.55085 1.07068-10.51842.55285-.4796-.25667-.80218-.26884-.94627-.0357-.2477.4008-1.01254.39675-3.49016-.0185zm5.42985-1.42273c0-.25101-.47857-.30293-1.38335-.15006-.9629.16268-1.63305.0733-2.20487-.29419-.45182-.29034-1.68018-.63358-2.72968-.76276-1.73839-.21397-1.85862-.18532-1.35126.32204.39278.39278.89029.49023 1.6881.33067.84959-.16992 1.2123-.0813 1.45699.35593.24585.4393.8409.58216 2.42493.58216 1.27731 0 2.09914-.15025 2.09914-.38379zm48.95011-21.40024c.0878-.2673-.17938-.4431-.67835-.44637-.66088-.004-.71884-.0728-.29398-.34738.4279-.27653.37727-.343-.26458-.34737-.61837-.004-.79375.19465-.79375.89997 0 .77401.13681.88918.94293.79375.51861-.0614 1.00809-.31006 1.08773-.5526zm.24733-4.79609c.19256-2.52862.0757-8.95872-.18051-9.93238-.0511-.19403.0203-.60868.15862-.92145.1383-.31276.20319-1.50339.1442-2.64583l-.10725-2.07716-1.23472.12089c-.6791.0665-1.27396.15864-1.32192.20479-.22533.2168.15542 7.62125.40472 7.87054.0809.0809.026.57177-.12212 1.09075-.27088.94921.14493 8.64292.498 9.21419.10408.16841.49359.22662.86558.12934.57237-.14968.71001-.61906.8954-3.05368zm-.52615-29.51155c.15567 0 .25585-.75406.22262-1.67569-.0332-.92163.0623-2.54882.21219-3.61597.37752-2.68709.0894-3.88056-.93677-3.88056-1.3282 0-1.67272.78158-1.50787 3.42075.10606 1.69789.0162 2.5033-.3071 2.75286-.66293.51171.73431 3.49731 1.49931 3.20375.29403-.11282.66196-.20514.81762-.20514zm-.60532-10.12674c-1.05422-.20305-1.01908-.80937.0469-.80937.72007 0 .83262-.15982.78463-1.11417-.0377-.74882-.28441-1.20342-.75248-1.38632-.59617-.23296-.60755-.27571-.0791-.29693.91034-.0366.75185-.7244-.17639-.76552-.75403-.0334-.74961-.0476.0882-.2829.85365-.23978.85931-.26095.17639-.65966-.66069-.38573-.64386-.41262.26458-.42266 1.10062-.0122 1.34696-.88823.32492-1.1555-1.23568-.32314-1.93433.62036-1.91761 2.58964.009 1.01167.20212 1.93208.43676 2.0771.30455.18822.26646.31983-.13741.47481-.56054.2151-.76395 1.32486-.32356 1.76526.12935.12935.64529.21357 1.14653.18714.83043-.0438.84087-.0616.11759-.20092zm.14751-10.53811c.11746-.30609-.0463-.81636-.36385-1.13393-.53469-.53469-.57741-.53267-.57741.0274 0 .33262-.17819.60477-.39597.60477-.27358 0-.26023.16356.0432.52916.56588.68184 1.02562.67213 1.29403-.0274zm-2.45757 75.4754c-.45791-.45791-.25316-.75766.67698-.99111 1.46122-.36674 1.74699-.91154 1.67635-3.19582-.0579-1.87055-.15371-2.13009-.82435-2.23207-1.44304-.21942-.47936-.9441 1.667-1.25356 1.84672-.26625 2.31982-.21403 3.31236.36564 1.50988.88182 1.91596 2.52326 1.14376 4.62332-.64948 1.76633-1.07659 2.04071-3.66634 2.35527-1.06716.12963-2.34481.31223-2.83923.40579-.49442.0936-1.01036.0587-1.14653-.0775zm6.27832-2.33485c.10414-.43656.0639-1.50813-.0894-2.38125-.24284-1.38312-.40261-1.60187-1.24095-1.69913-.9301-.1079-.96399-.052-1.01514 1.6757-.0291.98302-.0688 1.9786-.0882 2.21239-.0295.35478.90885.80392 1.98647.95087.14182.0193.34306-.32202.4472-.75858zm-63.3129 1.16031c-.93346-.59034-.14573-.74265 1.08293-.2094 1.09056.47332 1.11953.52154.31796.52919-.48507.005-1.11547-.13929-1.40089-.31979zm-6.36022-2.13045c-.29104-.18809-.37042-.34197-.17639-.34197s.59091.15388.88195.34197.37041.34197.17639.34197c-.19403 0-.59091-.15388-.88195-.34197zm50.31452-2.71974c-.57747-.57747-.0684-1.12923 1.52191-1.64938 2.15246-.70403 2.49135-.70956 2.49135-.0406 0 .29104-.24445.52916-.54322.52916s-1.15224.3107-1.8966.69044c-.74435.37975-1.45241.59141-1.57344.47038zm6.12993-2.52849c0-.31691 3.1813-1.80733 3.85776-1.80733.20656 0 .37557.29238.37557.64972 0 .4486-.42217.7762-1.36385 1.05833-1.62062.48555-2.86948.52876-2.86948.0993zm15.7574-5.21751c-.48905-.48906-.18663-.77337 1.39637-1.31275 1.67447-.57055 2.249-.50332 2.249.26316 0 .74458-3.06724 1.62771-3.64537 1.04959zm5.76204-2.18068c0-.37946 2.37536-1.43686 3.48889-1.55308 1.42069-.14829 1.17972.58245-.40724 1.23492-1.60034.65797-3.08165.8109-3.08165.31816zm6.51188-2.19372c-.29661-.47993-.32118-.46454 1.84469-1.15607 2.21018-.70568 2.93232-.73513 2.93232-.1196 0 .2556-.84739.73185-1.88309 1.05833-2.20508.69509-2.58119.72334-2.89392.21734zm7.05556-2.11666c-.28979-.4689-.38813-.40341 2.0766-1.38293 1.69692-.67438 2.11503-.73384 2.36108-.33573.22441.3631-.1949.68471-1.68105 1.28934-2.25725.91835-2.43708.94635-2.75663.42932zm7.13983-2.31742c-.13539-.13538-.24616-.3596-.24616-.49825 0-.27182 2.75438-1.04142 3.72719-1.04142.92667 0-.014.93268-1.17746 1.1675-.52922.10681-1.20865.28963-1.50982.40627-.30118.11663-.65836.10129-.79375-.0341zm6.29406-2.22285c-.27769-.44931 2.39049-1.76669 3.60214-1.77852 1.20998-.0118.94759.62406-.50858 1.23249-1.96757.8221-2.82897.97415-3.09356.54603zm6.51256-2.4851c0-.19033.43656-.44198.97014-.55923s1.54747-.4293 2.2531-.69343c1.22026-.45679 1.71565-.38958 1.71565.23274 0 .31492-3.30664 1.36598-4.29736 1.36598-.35284 0-.64153-.15573-.64153-.34606zm7.40833-2.18896c0-.46198 2.77083-1.7041 3.79236-1.70006.96043.004.36511.91386-.88194 1.34821-2.36568.82398-2.91042.88984-2.91042.35185zm-150.613406-3.37401c-.24352-1.11566-.586374-2.39313-.761899-2.83882-.413169-1.04912-.410287-2.79585.005-3.05253.182987-.11309.08471-.68036-.22565-1.30249-.48521-.97263-.499409-1.79104-.12083-6.96422.235946-3.22414.654917-6.97333.931047-8.33152.523341-2.57415 2.395814-9.06131 3.663356-12.69166 1.197361-3.42934 4.384437-8.63606 6.921204-11.30716 1.284701-1.35274 2.756518-2.93577 3.270704-3.51785 1.983116-2.24498 9.568644-7.48391 13.318644-9.1985 1.14392-.52303 2.37356-1.09954 2.73253-1.28113 1.23891-.62674 7.11518-2.40151 9.40149-2.83946 3.07408-.58885 14.1127-.51971 16.22778.10165.87313.2565 2.03301.49942 2.57752.53981 2.55627.18966 16.46547 4.3154 17.35148 5.1468.56034.5258-.5502 1.01643-1.34178.59279-.52205-.27939-.64213-.25355-.52415.11281.0842.26138.86476.8721 1.73466 1.35717 2.68322 1.49621 3.92851 2.52043 3.53857 2.91038-.23706.23705-1.15018-.0857-2.76121-.97591-3.22309-1.78102-3.44192-1.96264-2.8647-2.37758.32403-.23293.26578-.26655-.19946-.11514-.38787.12622-1.18227-.11312-1.93866-.58408-3.21014-1.99881-10.06084-4.34082-14.83865-5.07281-4.73629-.72563-11.59065-.58272-14.3024.2982-1.15693.37583-2.58568.61078-3.175.5221-1.08526-.1633-5.48122 1.65627-5.48122 2.26877 0 .35401-2.60503 1.71496-3.28265 1.71496-.2687 0-.79097.33486-1.16059.74413s-1.62454 1.2228-2.7887 1.80784c-1.16417.58503-2.25271 1.2983-2.41898 1.58502-.16628.28673-1.11878.90316-2.11667 1.36984-3.24515 1.51766-5.81248 3.10466-7.641674 4.72373-.986444.87312-2.285199 2.02406-2.886124 2.55764-.600925.53357-1.227796.97014-1.393046.97014-.165251 0-.300456.33794-.300456.75099 0 .41304-.550063 1.35984-1.222361 2.104-3.430167 3.79678-6.853956 14.63883-7.453655 23.60334-.123309 1.84326-.446411 3.81687-.718004 4.3858-.271593.56892-.360903 1.12455-.198466 1.23472.162436.11017.406183.49987.54166.86599.214597.57995.511711.64162 2.306936.47883 2.824195-.25609 5.332779.0569 5.332779.66526 0 .37861-.804744.48329-3.715239.48329-3.007573 0-3.754646.10269-3.922129.53915-.277689.72364.548073 6.00917 1.197074 7.66222.557873 1.42094.408005 2.38196-.371457 2.38196-.30257 0-.649808-.76011-.926658-2.02847zm18.588026-51.85815c.21065-.63964-.9807-.99522-1.354819-.40437-.171475.27081-.314203.62248-.317174.7815-.0085.45613 1.510413.11353 1.671993-.37713zm2.55594-1.13564c0-.18794-.23813-.25033-.52917-.13865-.29104.11169-.52917.26545-.52917.34171 0 .0763.23813.13865.52917.13865s.52917-.15377.52917-.34171zm3.64802-1.86581c-.10679-.17279.16764-.69928.60985-1.16999.95135-1.01267.2677-1.19765-1.04031-.28149-.59632.41768-.69993.64853-.37986.84634.24206.1496.33872.53621.21481.85913-.12392.32292-.38518.48833-.58058.36756-.47065-.29088-1.12849.13274-.8659.55761.11923.19294.63505.0808 1.22129-.26549.55817-.32973.92749-.74088.8207-.91367zm5.31837-3.21005c-.22681-.59105-.8525-.80935-.8525-.29744 0 .34321.78703 1.16501.95492.99712.066-.066.0199-.38087-.10242-.69968zm41.65722.1259c-.11992-.19403-.37678-.35278-.57081-.35278-.19402 0-.25466.15875-.13475.35278.11992.19403.37678.35278.57081.35278s.25467-.15875.13475-.35278zm-35.98333-3.175c.27759-.44915-.53971-.44915-1.23473 0-.4302.27802-.38461.34298.24377.34737.42511.003.87104-.15334.99096-.34737zm121.60864 62.03519c.11044-.33132 2.86643-1.28149 3.89205-1.34184.75405-.0444.1055.79245-.95881 1.23715-1.47611.61676-3.12353.67556-2.93324.10469zm-160.730055-1.29767c-.09961-.16117-1.021791-.48381-2.049293-.71697s-2.26506-.74981-2.75013-1.14811c-.75742-.62193-.782325-.70056-.176388-.55694 4.749721 1.12581 5.841632 1.53378 6.08653 2.27408.160731.48588-.821047.61664-1.110719.14794zm167.170235-.42791c-.1415-.22895-.0385-.55264.2289-.71931.69718-.43457 3.36474-.79224 3.81826-.51195.63663.39346.11414.78853-1.35316 1.02316-.76345.12208-1.62403.31251-1.91241.42317s-.6401.0139-.78159-.21507zm6.35844-2.10301c-.12102-.19581-.0115-.4203.24329-.49885.25484-.0786 1.00894-.31765 1.67579-.53131 1.2617-.40426 2.28096.002 1.59213.63401-.53148.48792-3.26396.79622-3.51121.39615zm18.05501-.93553c-.12745-.12744.4811-.99377 1.35231-1.92517 1.45719-1.55785 1.86522-2.38322 1.40547-2.84298-.0982-.0982-1.48727.2825-3.08681.84602-5.39985 1.90237-5.55408 1.93448-5.55408 1.15624 0-.29049.51594-.75379 1.14653-1.02956l1.14653-.5014-1.49931-.0288c-.82461-.0158-1.4993-.18752-1.4993-.38155 0-.48751 3.29357-.44587 3.78732.0479.29902.29903.53815.26317.94267-.14135.65959-.6596.294-1.02784-1.63827-1.65017-1.46493-.47181-1.93511-.96518-1.41525-1.48504.2248-.22481 1.37497.1546 3.3015 1.08907 1.62608.78873 3.15563 1.43406 3.39899 1.43406.27051 0 .44248-.47988.44248-1.23472 0-.93798-.14837-1.23646-.61736-1.24198-.75196-.009-4.24253-3.00143-3.90337-3.3465.13298-.13529.60486.008 1.04864.31916 1.23872.86764 1.51714.67048.40496-.28678-.5444-.46856-.87172-.9703-.72739-1.11496.14433-.14468.58155.0258.97159.37875.62958.56976.86242.59121 2.07473.19111 1.8795-.62029 3.56105-.0202 5.15225 1.8388 1.67631 1.95839 1.56313 2.33574-.25891.86321-2.36385-1.91041-3.06021-2.18911-3.74532-1.49897-.53339.53731-.51412.62752.25943 1.21408.70311.53315.77305.7506.44097 1.37109-.48908.91385-.50526 1.48938-.0419 1.48938.19402 0 .35277-.30813.35277-.68473 0-.85144.59678-1.2557 1.16198-.78714 1.29286 1.07178 4.98651 2.87283 5.28321 2.57612.20927-.20926.0425-.48897-.44796-.75147-.55685-.29802-.67244-.52701-.40236-.79709.27009-.27009.78898-.19406 1.80616.26463 1.33656.6027 1.3911.68348.85863 1.27185-.31272.34555-1.37098.80036-2.35168 1.01068-.98071.21032-2.38666.72163-3.12435 1.13623-1.01965.57308-1.45595.65862-1.81964.35679-.3775-.3133-.75427-.0275-1.78636 1.35494-1.19145 1.59589-2.20006 2.13972-2.81952 1.52026zm7.08148-4.6004c.43656-.10397.78873-.28959.7826-.41249-.0181-.3619-3.08887-2.12113-3.31237-1.89762-.29259.29259-.25261 2.39016.0514 2.69413.14059.14058.57715.15422.97014.0303.39299-.12391 1.07171-.31036 1.50828-.41433zm-208.577011 3.42561c-.13924-.22529.05895-.75506.440432-1.17726.819203-.90665 3.071274-4.74622 3.783063-6.44977.603858-1.44524 1.492081-1.55587 1.821547-.22689.132278.53358.600878 1.52576 1.041333 2.20486.991625 1.5289 1.599448 4.29522.797909 3.63145-.282596-.23403-1.184674-.53278-2.004617-.66389-1.731379-.27686-2.88391.46232-2.88391 1.84962 0 .55085-.206278.82888-.617361.83208-.339549.003-.956633.0959-1.371297.20712-.414665.11127-.86786.018-1.007099-.20732zm6.170757-4.90031c0-.63214-.922664-1.70757-1.214572-1.41566-.07655.0766-.248678.57543-.382497 1.10861-.218805.87179-.150637.96941.67688.96941.665 0 .920189-.18368.920189-.66236zm.481975 4.81934c-.290304-.46972.169338-.88932 1.188506-1.08497.928762-.17829 1.857297.22901 1.857297.81469 0 .36811-2.830127.61925-3.045803.27028zm183.315249.23474c0-.26925 2.3262-1.21672 2.98728-1.21672.83896 0 .63651.95032-.25325 1.18876-.99961.26789-2.73403.28563-2.73403.028zm-41.01042-3.23678c-2.20014-.0699-3.79236-.26788-3.79236-.47156 0-.22021 1.7424-.31439 4.67431-.25265 2.88232.0607 4.6447.23368 4.59708.45122-.0906.41365-.46481.43229-5.47903.27299zm8.39354-.0722c-.11163-.18062-.0813-.38805.0674-.46095.55185-.27058 7.1495.16372 7.1495.47063 0 .42252-6.95553.41319-7.21688-.01zm9.57832.10281c-.59583-.59583.44446-.83274 3.6566-.83274 2.88211 0 3.50696.0943 3.50696.52917 0 .43449-.62063.52916-3.46898.52916-1.90794 0-3.5705-.10151-3.69458-.22559zm9.47168-.10281c-.11163-.18062-.0413-.4283.15624-.5504.51851-.32046 7.06064.21173 7.06064.57436 0 .41294-6.96114.38984-7.21688-.0239zm9.83395-.0709c-.10409-.16843 1.20916-.29371 2.91836-.27839 3.58512.0321 3.52093.1996-.16351.42658-1.41107.0869-2.65075.0203-2.75485-.14819zm-101.39485-.20865c-4.17122-.2453-3.21968-.80315 1.36995-.80315 3.30887 0 4.29897.10425 4.18812.44098-.15638.47504-1.80832.58268-5.55807.36217zm8.82966-.0838c-.28542-.18051-.44417-.39843-.35278-.48428.3053-.28676 7.04534.20934 7.04534.51857 0 .41093-6.03747.38-6.69256-.0343zm31.38701-.19017c0-.47411.54123-.53875 3.79236-.45291 2.2263.0588 3.79236.24581 3.79236.45291s-1.56606.39413-3.79236.45291c-3.25113.0858-3.79236.0212-3.79236-.45291zm10.14236.32955c-.66645-.68199-.0372-.85699 2.99861-.83392 3.63745.0276 6.05876.61129 2.73403.65903-1.06716.0153-2.73403.12186-3.70417.23675s-1.88295.087-2.02847-.0619zm-111.227702-.52946c-.468801-.75854.248541-.88831 4.159645-.75251 1.536599.0533 2.028472.19874 2.028472.59959 0 .42858-.566051.52917-2.977791.52917-1.728495 0-3.075349-.15785-3.210326-.37625zm47.904092.14261c-1.30442-.52634.004-.82469 3.61597-.82469 3.78642 0 5.11377.34004 3.26319.83598-.94257.2526-6.24675.2439-6.87916-.0113zm-39.24653-.43082c0-.458 4.34966-.84538 6.37087-.56739.95903.1319 1.65479.38365 1.54614.55944-.25496.41254-7.91701.42024-7.91701.008zm10.75972-.0411c-.13983-.22625 1.05467-.35277 3.33057-.35277 2.13055 0 3.5486.14097 3.5486.35277 0 .21028-1.34538.35278-3.33057.35278-1.83984 0-3.42816-.1579-3.5486-.35278zm9.70139-.17639c0-.47293.48572-.54054 3.26319-.45421 1.87266.0582 3.2632.25177 3.2632.45421 0 .20245-1.39054.396-3.2632.45422-2.77747.0863-3.26319.0187-3.26319-.45422zm9.36139.19707c-.11289-.18265.47306-.38109 1.3021-.44097 2.3305-.16833 5.56429.0941 5.56429.45163 0 .42665-6.60245.41641-6.86639-.0107zm52.25713-2.72531c-.45937-.45937-.22497-1.0963.47037-1.27814.62132-.16248.70556-.48119.70556-2.66945 0-1.99872-.1208-2.5531-.61737-2.83328-1.02863-.58039-.10065-1.00193 2.60295-1.1824 2.66584-.17795 3.42187.0409 4.0233 1.1647.28318.52911.23164.9366-.21378 1.69065-.52861.89486-.53421 1.09404-.0565 2.00584.68622 1.3097.20008 2.46011-1.25378 2.96693-1.1725.40874-5.28891.50702-5.66077.13515zm4.99654-1.13141c.26651-.16895.41891-.73814.35277-1.31751-.0903-.79072-.31473-1.0406-.99838-1.11145-1.3546-.14036-1.80457.32896-1.54755 1.61408.23108 1.15543 1.12944 1.48922 2.19316.81488zm.18122-3.93314c.54915-.49767.06-1.57771-.7679-1.69552-1.34397-.19126-1.72429.13126-1.55056 1.31493.14262.97173.25894 1.06446 1.09022.86907.51181-.1203 1.06452-.34012 1.22824-.48848zm72.81553 4.39701c-.53358-.292-.97014-.75434-.97014-1.0274 0-.41946.24884-.4117 1.60397.05.88219.30059 1.54372.72752 1.47007.94872-.20265.6087-1.02356.61987-2.1039.0286zm7.14375.19717c-.27981-.17293-.42936-.39379-.33235-.4908.097-.097.40532-.0349.68512.13803.27981.17292.42936.39378.33235.4908-.097.097-.40532.0349-.68512-.13803zm-11.90625-2.51003c-1.12932-.72323-1.49756-1.37052-.7797-1.37052.20176 0 1.01952.33297 1.81726.73995 1.09788.5601 1.33026.81602.95608 1.05293-.66495.421-.68258.41727-1.99364-.42236zm-5.02709-2.32098c-2.15809-.36416-4.18499-1.87177-2.51648-1.87177.89738 0 4.28037 1.43127 4.28037 1.81093 0 .31284-.22454.32059-1.76389.0608zm-7.40833-3.10249c-.48507-.25809-1.47726-.75786-2.20486-1.1106-2.55755-1.23988-1.18626-1.66344 1.47612-.45593 2.40341 1.09005 2.67545 1.2576 2.59946 1.60098-.10909.49294-.90715.47824-1.87072-.0345zm-8.46667-4.11055c-2.28323-1.29599-2.29259-1.30317-2.03445-1.56131.28319-.28319 4.85668 1.90469 4.85668 2.32335 0 .59699-.81617.37661-2.82223-.76204zm-7.05555-2.83304c-2.28304-.82921-2.36495-.89073-1.85923-1.39646.4472-.44719 4.32867 1.15802 4.32867 1.79015 0 .47553-.13588.45386-2.46944-.39369zm-7.14375-3.00626c-1.97299-.87887-2.59586-1.51943-1.47746-1.51943.79447 0 4.38787 1.75441 4.38787 2.14229 0 .50879-.71204.3564-2.91041-.62286zm-46.77047-.64495c-.22746-.49922-.41356-1.1524-.41356-1.45151 0-.55997-2.30712-5.66449-4.3258-9.57087-.84775-1.6405-2.11951-3.13726-4.93256-5.80525-2.25903-2.14253-3.66145-3.7237-3.47135-3.91381.7556-.75559 7.58867 5.32834 8.52601 7.59128.22481.54274.52723.9868.67204.9868.43487 0 4.2982 7.95336 4.65913 9.59168.48711 2.21105.51066 3.19828.0798 3.3476-.20909.0725-.56628-.27669-.79375-.77592zm41.38403-1.35551c-.38444-.26697-1.53242-.9196-2.55106-1.45027-2.00356-1.04377-2.45533-1.80643-.88195-1.48885 1.28456.25929 5.02454 2.44793 4.90248 2.86894-.16054.55376-.73371.58113-1.46947.0702zm-9.25384-4.14815c-1.53812-.70702-1.96996-1.36804-.89374-1.36804 1.09152 0 3.62777 1.14337 3.62777 1.63543 0 .65146-.93375.56013-2.73403-.26739zm-6.75662-2.64421c-1.45562-.66745-1.80837-.97148-1.49302-1.28683s.6823-.2726 1.55314.18093c.62714.3266 1.58373.69762 2.12575.82449.99489.23287 1.14432.97454.21999 1.09188-.27496.0349-1.3576-.3298-2.40586-.81047zm-6.70959-2.61508c-1.17077-.53637-1.45928-.81534-1.15642-1.1182.49181-.49181 4.3845.70748 4.19259 1.29169-.20882.63563-1.42126.56635-3.03617-.17349zm-5.93657-2.39833c-1.49946-.56789-2.04584-1.47623-.88194-1.46622 1.14125.01 3.43958.98296 3.43958 1.45637 0 .66387-.82239.66704-2.55764.01zm-15.07077-6.43164c-1.99773-.9965-2.29573-1.39015-1.05117-1.38857 1.21722.002 3.46649 1.26239 3.154 1.768-.2884.46664-.47374.43319-2.10283-.37943zm9.06573.35142c-.44086-.17229-.90499-.58275-1.03138-.91213-.1264-.32939-.5317-.90077-.90065-1.26973-.53986-.53985-.6246-.95841-.43403-2.14362.13025-.81002.45124-1.81149.71332-2.22547.58145-.91849 2.33624-1.59053 3.02096-1.15695.73384.46468.95033.39452 1.19886-.38853.41269-1.30025.88032-.33385.88032 1.81923 0 1.54246-.12092 2.08542-.44097 1.98002-.24253-.0799-.4917-.48998-.5537-.91135-.0853-.57946-.35619-.76611-1.11202-.76611-.79156 0-1.07543.21844-1.36561 1.05084-.53005 1.52049-.13976 3.43094.74835 3.66318.39675.10375 1.00275.038 1.34668-.14602.34393-.18407.71514-.33467.82491-.33467.29852 0 .24087 1.34631-.065 1.51791-.70162.39361-2.10999.50479-2.83004.2234zm-14.56487-2.43025c-2.30173-.69422-3.25078-1.7805-1.55556-1.7805 1.2771 0 3.42794.97107 3.26088 1.47223-.18685.56057-.61324.63765-1.70532.30827zm-6.2613-2.57424c-1.66751-.84684-1.89071-1.32293-.62023-1.32293 1.29185 0 2.6688.6218 2.6688 1.20517 0 .87184-.50641.90095-2.04857.11776zm-20.26462-9.32897c-.95745-.15269-.97014-.18901-.97014-2.77712 0-2.14594.10046-2.6224.55294-2.6224.35764 0 .49154.21805.37911.61736-.84536 3.00241-.6359 3.42199 1.71378 3.43298 1.17373.005 1.41111.1253 1.41111.71216 0 .7463-1.04689.96235-3.0868.63702zm-6.17387-1.04713c-1.84576-.40038-2.2046-.52947-2.2046-.79309 0-.16929.4135-.41159.9189-.53844.73825-.18529.87791-.38354.71038-1.00838-.1147-.42777-.21071-1.43691-.21336-2.24255-.004-1.30857-.11769-1.50414-1.06315-1.83373-1.16147-.40489-1.41511-1.31777-.44097-1.58715.33955-.0939 1.33174-.0649 2.20486.0644 1.34173.19874 1.6783.41697 2.17398 1.40958.32256.64595.68838 1.27635.81293 1.4009.32086.32086.88183-.66905.88825-1.56745.007-.9662.53908-1.15674 2.58625-.926 1.81194.20424 2.11958.63993.80481 1.13981-.46622.17726-.95661.49853-1.08975.71395-.17325.28035-.39729.26284-.7882-.0616-.45803-.38013-.63065-.32597-1.06996.33565-.28809.4339-.74257.78891-1.00995.78891-.56405 0-.6492.56313-.13336.88194.42466.26245.47596 1.94028.0593 1.94028-.1614 0-.71317-.75406-1.22614-1.6757l-.93269-1.67569-.009 1.4993c-.005.82462-.03 1.61261-.0561 1.75108-.0518.27414.54526.63442 1.60585.96906 1.39694.44078-.90895 1.36624-2.52869 1.01489z" stroke-width=".352778" transform="translate(-69.118556 -169.71582)"/>
</svg>
