<?xml version="1.0" encoding="utf-8"?>
<svg xmlns="http://www.w3.org/2000/svg" version="1.1" viewBox="0 0 1104 421">
	<title>A diagram showing two shapes and views onto them. The first shape, an equilateral triangle has the near corner to the point of view labelled A and the furthest visible points labelled B and C. Points D and E are level with point A and sit on the lines of sight from the point of view to corners B and C. The second shape is a regular pentagon and has the same points marked (with prime marks) to show that the outside visible points are closer to the point of view than with the triangle.</title>
	<path d="m 795.009,419.29638 c 0,-1.0749 1.4041,-2.4884 3.12016,-3.14115 2.76031,-1.04991 3.1201,-1.91476 3.1201,-7.49987 0,-3.96992 -0.57901,-6.48588 -1.56005,-6.77848 -5.50222,-1.64119 -6.26478,-2.11624 -5.16423,-3.21736 0.64985,-0.65006 5.09634,-1.43394 9.88112,-1.74193 7.8092,-0.50265 8.92038,-0.28169 10.85602,2.15937 l 2.15631,2.71931 0.0284,-2.89148 c 0.0443,-4.61853 2.33015,-7.72165 5.68789,-7.72165 1.69196,0 3.07623,0.36245 3.07623,0.8055 0,1.96423 -6.99017,11.62942 -8.11233,11.21673 -0.68641,-0.25229 -2.20954,0.37828 -3.38464,1.40155 -2.00317,1.74434 -1.96767,1.99733 0.56984,4.05291 2.38383,1.93121 2.56407,2.76884 1.51256,7.029 l -1.19381,4.83654 -10.29642,0.36266 c -8.66534,0.30508 -10.29646,0.0532 -10.29646,-1.59165 z m 16.84871,-6.26262 c 0,-1.63914 -0.96495,-2.63434 -2.80811,-2.89623 -1.54449,-0.21933 -2.80814,0.1559 -2.80814,0.83434 0,0.6783 -0.35802,2.16684 -0.79572,3.30789 -0.64676,1.68619 -0.12154,1.99747 2.80814,1.66284 2.63466,-0.30083 3.60383,-1.08326 3.60383,-2.90884 z m -0.62405,-11.2814 c 0,-2.27735 -1.34423,-2.32263 -4.32028,-0.14563 -3.06876,2.24494 -1.4355,5.05627 1.89995,3.27037 1.33119,-0.71274 2.42033,-2.11893 2.42033,-3.12484 z M 713.6102,381.75107 c -0.26716,-0.26716 -17.86531,-0.74172 -39.1068,-1.05413 -21.24152,-0.31252 -42.96433,-0.96694 -48.27291,-1.45439 -5.30855,-0.48742 -19.53309,-0.95007 -31.61013,-1.02802 l -21.95819,-0.14208 -3.13189,-8.74028 c -4.32684,-12.07534 -10.90471,-31.22357 -16.08463,-46.82273 -2.39439,-7.21073 -5.99074,-17.0435 -7.99193,-21.85062 -2.00115,-4.80716 -5.42098,-13.23526 -7.59954,-18.72912 -2.17857,-5.49387 -5.3515,-13.05985 -7.05083,-16.81327 -1.69937,-3.75342 -3.94895,-9.35605 -4.99897,-12.4503 -1.90867,-5.62446 -4.3959,-11.37868 -12.36026,-28.59583 -2.33146,-5.04004 -4.239,-10.19052 -4.239,-11.44558 0,-1.25502 -0.45255,-2.46913 -1.00566,-2.69805 -0.55318,-0.22901 -3.43871,-6.31588 -6.41232,-13.52658 -2.97362,-7.21071 -6.11238,-14.79601 -6.975,-16.8562 -0.86262,-2.06019 -1.93309,-5.48091 -2.37884,-7.60163 -0.73226,-3.48372 -0.32633,-4.17648 4.20981,-7.17948 2.76112,-1.82805 5.54708,-3.32371 6.19104,-3.32371 0.64389,0 1.35797,-0.47788 1.5868,-1.06198 0.64343,-1.64255 35.7616,-22.66156 37.8625,-22.66156 0.35458,0 3.33195,-1.82607 6.61645,-4.05795 6.79727,-4.61901 9.78655,-6.41654 17.71562,-10.65294 3.08895,-1.65041 8.70519,-4.82861 12.48052,-7.06272 3.77535,-2.23416 10.79567,-6.20022 15.60064,-8.81354 4.80505,-2.61332 15.05583,-8.59962 22.77961,-13.30293 7.72373,-4.70328 14.36031,-8.55141 14.74788,-8.55141 0.38756,0 2.4925,-1.26564 4.67755,-2.81252 2.18509,-1.54688 4.90585,-3.37297 6.04609,-4.05798 4.08384,-2.45334 17.94348,-12.21723 20.39173,-14.36562 4.54422,-3.98769 19.47557,-13.72489 21.04618,-13.72489 0.84894,0 2.19292,0.64964 2.98662,1.44363 0.81885,0.81925 5.60494,1.49432 11.06546,1.56079 6.5002,0.0793 9.7914,0.62353 10.14307,1.67783 0.38165,1.1442 -1.75574,1.57381 -8.0078,1.60963 -8.44395,0.0485 -8.48821,0.0662 -4.47212,1.81265 2.23087,0.97006 4.05613,2.61608 4.05613,3.65775 0,1.0417 0.71614,1.61908 1.59144,1.28305 1.46024,-0.5606 35.05334,18.67373 39.76353,22.76732 1.12273,0.97573 5.89652,3.72093 10.60844,6.10037 10.73016,5.41858 16.65617,8.76929 38.52036,21.78047 9.60998,5.71883 19.71921,11.49839 22.46492,12.84353 2.7457,1.34509 5.17942,2.93543 5.40822,3.53404 0.22889,0.59862 0.98457,1.08839 1.67942,1.08839 0.69487,0 2.75414,1.05799 4.57618,2.35106 3.73429,2.65013 9.56221,6.01903 21.40958,12.376 4.46177,2.3941 9.23559,5.29814 10.60841,6.45346 4.11141,3.45987 15.65256,10.39899 16.26931,9.78194 0.31571,-0.31571 -1.43603,-6.14719 -3.89236,-12.95883 -9.85851,-27.33847 -22.94114,-67.50603 -22.94405,-70.44511 -0.004,-4.02054 1.21954,-5.83818 4.32684,-6.42787 1.37286,-0.2605 2.50232,-1.30878 2.50994,-2.3295 0.0106,-1.40367 1.22669,-1.74873 4.9922,-1.41634 2.73813,0.24172 5.40875,0.70196 5.93479,1.02273 1.68148,1.02546 -0.38491,2.90727 -3.21417,2.92705 -1.50392,0.0106 -2.16053,0.43191 -1.45906,0.93645 0.70147,0.50453 2.70326,4.28857 4.44848,8.40898 2.97755,7.03002 6.20858,16.78817 20.56308,62.10323 5.64991,17.83589 5.93037,18.39285 9.11594,18.10481 4.03646,-0.36494 5.63652,2.04352 1.72665,2.59906 -3.31848,0.47152 -3.33191,0.58435 -0.99407,8.35597 0.99776,3.31666 1.47699,6.63676 1.06498,7.37794 -0.50429,0.9072 -0.31359,0.93955 0.58432,0.0991 0.7334,-0.68674 1.82445,-3.17693 2.42455,-5.53379 0.60009,-2.35685 1.76729,-4.51073 2.5938,-4.78634 2.32838,-0.77647 1.81283,6.04176 -0.77977,10.31299 -1.98231,3.26573 -2.06742,4.29242 -0.67281,8.11596 0.87814,2.4075 4.77844,13.08628 8.66729,23.73066 12.58451,34.44561 13.19159,36.77596 10.32665,39.64214 -3.34347,3.34497 4.75922,0.95084 8.46967,-2.50255 6.33182,-5.89306 5.91335,-1.8509 -0.51747,4.99939 -5.14881,5.48462 -6.6831,6.37449 -12.13433,7.03773 l -6.24026,0.75923 -8.35898,-24.61352 -8.35895,-24.61349 -4.93065,0.35613 c -5.02866,0.36325 -8.17257,-1.72405 -4.63961,-3.08037 4.65662,-1.78769 0.76305,-6.82038 -4.28251,-5.53545 -3.48505,0.88753 -5.1092,5.05357 -1.97018,5.05357 1.08,0 1.96363,0.88576 1.96363,1.96837 0,1.52062 -1.12359,1.88726 -4.93905,1.61162 -2.71648,-0.19609 -5.24339,-0.0524 -5.6154,0.31996 -0.72535,0.72567 -10.1553,26.38854 -18.27021,49.72088 -2.73345,7.85926 -5.43909,14.88269 -6.01261,15.60759 -0.57348,0.72489 -1.3298,3.00361 -1.6808,5.06383 -0.35114,2.06019 -1.24094,5.43143 -1.9778,7.49162 -0.7368,2.06023 -4.83173,14.14048 -9.09978,26.84509 -4.26806,12.70456 -9.29232,26.47047 -11.16503,30.59086 -3.86132,8.49582 -7.68345,20.72076 -6.76545,21.63908 0.33697,0.33697 1.70628,-0.37824 3.04363,-1.58906 1.33739,-1.21082 3.06833,-1.98914 3.84665,-1.7296 0.77825,0.25937 -1.89213,3.62782 -5.93422,7.48506 l -7.34925,7.01309 -45.68254,0.0319 c -25.12538,0.0177 -45.90117,-0.18673 -46.16841,-0.45422 z m 74.77586,-5.70146 c 8.1044,-0.0496 15.85853,-0.55857 17.23139,-1.13089 2.12754,-0.88696 2.1736,-1.05356 0.31216,-1.12836 -2.62506,-0.10559 -2.619,-0.0106 -0.46548,-7.34478 0.94525,-3.21934 2.36725,-8.59759 3.1601,-11.95168 0.79281,-3.35405 2.89073,-9.2537 4.66207,-13.11036 1.7713,-3.85663 3.94965,-9.25953 4.84076,-12.0065 1.48744,-4.58535 4.42389,-12.57336 12.62232,-34.33671 1.68155,-4.46376 4.48593,-12.61091 6.232,-18.10478 1.74607,-5.4939 4.8932,-14.48387 6.9936,-19.97773 6.15731,-16.10529 9.63029,-25.53248 13.56963,-36.83391 2.03464,-5.83725 4.1957,-11.7369 4.80221,-13.11038 0.60661,-1.37349 1.39776,-4.23609 1.75812,-6.36133 0.36039,-2.12528 2.18554,-7.18214 4.05595,-11.23746 4.648,-10.07755 4.65388,-13.49629 0.0248,-14.02571 -1.96866,-0.22511 -6.8473,0.81335 -10.84135,2.3077 -3.99405,1.49435 -7.88644,2.33084 -8.64971,1.85891 -2.16078,-1.33604 0.65877,-3.95524 5.24566,-4.87303 2.17814,-0.43584 6.19621,-1.39475 8.92917,-2.13101 l 4.96899,-1.33859 -3.70999,-2.90479 c -11.45739,-8.97071 -59.49875,-39.33265 -62.23567,-39.33265 -0.40273,0 -5.90715,-3.28329 -12.23199,-7.29618 -6.3248,-4.01285 -15.57141,-9.4526 -20.54806,-12.08825 -4.97661,-2.63562 -9.04837,-5.25202 -9.04837,-5.81422 0,-0.56215 -0.70377,-1.02213 -1.56394,-1.02213 -0.86021,0 -7.74011,-3.70008 -15.28866,-8.22239 -7.54856,-4.52234 -15.37416,-9.15777 -17.3902,-10.30102 -2.01603,-1.14322 -4.8922,-3.20234 -6.39152,-4.57579 -1.49935,-1.37349 -3.40735,-2.65349 -4.23999,-2.84448 -0.83275,-0.19112 -6.45236,-3.70266 -12.48814,-7.80379 -6.03577,-4.10109 -11.46426,-7.45315 -12.06333,-7.44894 -0.59899,0.004 -4.73967,2.5292 -9.20147,5.61113 -4.46177,3.08193 -8.67394,5.60702 -9.36042,5.6113 -0.68638,0.004 -5.46021,2.70517 -10.60842,6.00201 -11.62683,7.44561 -13.61335,8.24472 -14.53337,5.84613 -1.1408,-2.97423 -3.05652,-2.12941 -2.27108,1.0015 0.5963,2.37682 -0.18142,3.35358 -4.65644,5.84879 -2.95472,1.64751 -10.70762,6.15934 -17.22869,10.02627 -6.5211,3.86696 -12.69896,7.43764 -13.72858,7.93485 -1.02968,0.49721 -2.99646,1.58436 -4.37074,2.41582 -10.10816,6.11584 -27.12149,14.62216 -29.24567,14.62216 -1.41739,0 -2.57708,0.51824 -2.57708,1.1516 0,0.63337 -5.86715,4.30004 -13.03806,8.14821 -7.17091,3.84813 -21.2074,12.02242 -31.19223,18.16505 -23.72531,14.59582 -25.45274,15.46619 -27.43292,13.82205 -1.16826,-0.97 -2.20723,-0.64363 -3.89654,1.22391 -2.09476,2.3157 -2.10653,2.47086 -0.12968,1.71188 2.77643,-1.06588 5.63956,2.66638 5.5154,7.18965 -0.0507,1.83753 2.23913,7.82297 5.08784,13.30101 2.84875,5.47805 5.1795,11.02614 5.1795,12.32911 0,1.30291 0.48047,2.90274 1.0677,3.55515 0.5872,0.65241 5.00354,9.8952 9.81397,20.53958 4.8105,10.64437 9.94103,21.31997 11.40119,23.72354 1.4602,2.40358 3.62077,6.33669 4.80129,8.74028 1.18052,2.40354 2.81477,5.2129 3.63153,6.24304 3.36239,4.2404 8.14819,18.27332 10.53383,30.88721 1.39784,7.39106 3.61446,15.68583 4.92576,18.43277 1.81552,3.80304 15.42087,45.05252 18.23928,55.29859 0.31713,1.15183 3.04696,1.54804 9.61693,1.39568 5.04598,-0.11729 11.29255,0.48649 13.88133,1.34124 3.40891,1.12554 5.44471,1.18836 7.38301,0.22784 2.74075,-1.35822 48.23011,-2.68303 48.23011,-1.40464 0,0.38612 -0.6739,1.37629 -1.49761,2.20039 -1.16487,1.1654 -1.13893,1.49833 0.11692,1.49833 0.88799,0 1.90822,-1.12373 2.26722,-2.49718 0.61728,-2.36158 1.67875,-2.49428 19.54,-2.44287 10.38794,0.0283 21.41454,0.61186 24.50345,1.29324 3.08891,0.68134 18.90439,1.49914 35.14553,1.81733 16.24107,0.31819 30.84328,1.07493 32.44932,1.68169 1.60604,0.60679 3.30949,0.87473 3.78542,0.59552 0.4759,-0.27921 7.49622,-0.54829 15.60065,-0.59793 z M 633.47857,256.48287 c -0.43884,-0.71038 1.04573,-2.22661 3.2991,-3.3694 5.82615,-2.95476 18.48306,-11.52238 22.36883,-15.14173 2.1067,-1.96229 3.59624,-2.58204 4.12979,-1.71833 1.24062,2.00831 0.35979,2.89807 -9.26511,9.35853 -4.84182,3.24998 -8.44845,6.48354 -8.01464,7.18575 0.48919,0.79186 4.76181,1.03105 11.24996,0.62986 9.25856,-0.57252 12.60064,0.18723 9.4348,2.14464 -2.20918,1.36595 -32.40978,2.1943 -33.20273,0.91068 z m 18.0045,-6.4233 c 0,-0.70373 1.54445,-1.82773 3.43215,-2.49773 1.88766,-0.67007 4.40734,-1.77991 5.59928,-2.46633 2.87677,-1.65674 6.26779,-1.59193 5.70107,0.10903 -0.24874,0.74638 -3.50327,2.432 -7.23242,3.74584 -7.94665,2.79982 -7.50008,2.73377 -7.50008,1.10935 z m -18.11792,-3.94412 c -0.39983,-1.04248 -0.63255,-2.40064 -0.51715,-3.01815 0.11551,-0.61751 0.1435,-3.01766 0.062,-5.33361 -0.12614,-3.58735 -0.42396,-3.9816 -2.01271,-2.66244 -1.02571,0.85164 -3.26012,1.2816 -4.96544,0.95545 -2.3506,-0.44954 -3.59749,0.19431 -5.15537,2.66244 -4.41482,6.99406 -12.94243,10.26885 -14.71387,5.65049 -1.36247,-3.55214 -0.79639,-9.89988 1.12787,-12.64847 1.19349,-1.70466 1.42257,-2.97933 0.62408,-3.47303 -4.26033,-2.63421 1.4219,-13.11864 7.10983,-13.11864 3.1709,0 4.57756,3.05125 2.2844,4.95525 -1.25111,1.03876 -1.81421,0.9827 -2.21899,-0.22086 -0.81259,-2.41618 -4.69251,1.14279 -4.69251,4.30436 0,1.87522 0.61625,2.32872 2.49612,1.83693 3.15981,-0.82669 3.14263,-0.70221 -0.68188,4.93599 -3.80742,5.613 -3.70988,10.85189 0.2126,11.41174 2.00452,0.28598 3.4498,-0.98571 5.9282,-5.21676 1.80266,-3.07734 3.27752,-6.69049 3.27752,-8.02929 0,-1.33876 0.77723,-3.07942 1.72715,-3.86813 1.39968,-1.16219 1.88352,-0.5995 2.55264,2.96864 0.45407,2.42145 1.22134,4.394 1.705,4.38349 2.8951,-0.063 6.49577,-5.60146 6.49577,-9.99168 0,-1.592 0.6345,-2.47157 1.56005,-2.16258 1.14721,0.38292 1.44818,3.7972 1.13725,12.90227 -0.40337,11.81233 -1.74511,16.94111 -3.3425,12.77659 z m 39.52023,-2.78066 c 0.25689,-1.24515 3.54041,-3.38703 7.92691,-5.17083 8.61162,-3.50202 9.36099,-3.62183 9.35862,-1.49602 -0.001,1.30564 -4.15998,3.41205 -16.03747,8.12344 -1.09559,0.43459 -1.53294,-0.0758 -1.24806,-1.45659 z m 24.77562,-9.80742 c 0,-0.86892 2.94853,-2.62681 6.55225,-3.90643 3.60375,-1.27962 7.25432,-2.59538 8.11236,-2.9239 0.85802,-0.32847 1.56005,0.2375 1.56005,1.25775 0,1.79746 -2.22296,2.95766 -11.10671,5.79665 -5.25713,1.68003 -5.11795,1.68615 -5.11795,-0.22404 z m -53.66629,-5.87442 c 0,-0.66618 1.68488,-2.45749 3.74422,-3.98065 2.77012,-2.04897 3.74414,-3.78393 3.74414,-6.66928 0,-3.72741 3.75941,-9.36518 6.24497,-9.36518 0.63553,0 1.78391,1.17471 2.55203,2.61048 1.54485,2.88795 -0.14067,8.59976 -3.31508,11.23566 -4.16583,3.45892 -0.48912,4.54352 6.06252,1.78844 1.512,-0.63584 2.18413,-0.34756 2.18413,0.93656 0,1.02025 -1.71308,2.5649 -3.80685,3.43253 -3.08892,1.28005 -4.38137,1.26989 -6.85361,-0.0538 -2.3738,-1.27098 -3.75133,-1.31016 -6.23633,-0.1773 -3.87428,1.76603 -4.32014,1.79109 -4.32014,0.24278 z m 14.97668,-14.73906 c 0,-3.33433 -3.12286,-0.68459 -3.46043,2.93618 -0.32493,3.48131 -0.25264,3.53784 1.56008,1.22582 1.0452,-1.33303 1.90035,-3.20595 1.90035,-4.162 z m 61.15453,11.81583 c 0,-1.19273 2.45611,-2.72407 6.55228,-4.0852 7.35598,-2.44435 7.56953,-2.4618 8.16754,-0.66713 0.41722,1.25233 -6.00144,4.47113 -11.8389,5.93688 -2.06777,0.51923 -2.88092,0.18475 -2.88092,-1.18455 z m 20.81459,-6.67311 c -1.67538,-1.6761 -0.7425,-2.50901 5.7065,-5.09526 10.77516,-4.32117 12.4611,-4.63009 11.9712,-2.19348 -0.24484,1.21775 -3.08679,3.13481 -6.66698,4.49721 -9.1705,3.48978 -10.08188,3.72083 -11.01072,2.79153 z m -30.89097,-3.66224 c -1.48231,-1.78692 -1.25405,-2.89212 1.68477,-8.15819 3.63986,-6.52212 4.57802,-10.26581 1.90169,-7.58832 -0.82368,0.82407 -3.07017,1.49832 -4.99217,1.49832 -7.02276,0 -3.50383,-9.271 5.20626,-13.71651 l 4.79168,-2.44566 1.2054,6.99965 c 0.92664,5.38061 0.81135,7.75513 -0.49826,10.26612 -0.93706,1.79659 -1.7072,4.71376 -1.71145,6.48256 -0.004,1.76879 -1.32743,4.4564 -2.94045,5.97249 -2.70277,2.54023 -3.0673,2.59431 -4.64747,0.68954 z m 5.06508,-7.1424 c -0.0142,-2.22402 -0.24555,-2.38538 -1.22896,-0.86275 -1.58899,2.45992 -1.58899,5.35261 0,4.37012 0.68645,-0.42441 1.23949,-2.00272 1.22896,-3.50737 z m 1.24803,-13.31039 c -0.0106,-0.36453 -0.55616,-1.50554 -1.21252,-2.53564 -1.56827,-2.46116 -5.47091,-0.20459 -6.02104,3.48156 -0.35965,2.4096 -0.10559,2.49543 3.43212,1.1595 2.10129,-0.79349 3.81192,-1.74094 3.80144,-2.10542 z m -39.63182,17.20588 c 0.64509,-1.93624 5.82027,-5.58224 9.38565,-6.61241 5.40528,-1.5617 3.02106,2.8917 -2.96677,5.54158 -6.73827,2.98198 -7.07439,3.03805 -6.41888,1.07083 z m 87.59278,-2.43607 c -0.4212,-0.68186 -0.41833,-1.5874 0.007,-2.01234 0.83583,-0.83621 9.49082,-4.00609 11.02213,-4.03685 1.88331,-0.0379 0.87176,3.48599 -1.24806,4.34779 -5.55969,2.26027 -9.0592,2.86904 -9.78055,1.7014 z m 18.20491,-7.3803 c 0,-1.24597 4.63733,-3.56817 11.03513,-5.52601 2.35782,-0.72153 2.84038,-0.47501 2.49612,1.2752 -0.26292,1.33572 -2.58538,2.8145 -6.04297,3.84743 -6.82452,2.03874 -7.48828,2.07452 -7.48828,0.40338 z m -57.19656,-5.86716 c -0.61707,-1.20179 -1.45222,-5.54731 -1.85588,-9.65669 -0.40372,-4.1094 -1.32264,-7.66795 -2.04208,-7.90788 -2.15114,-0.71736 -1.48574,-3.26223 1.30957,-5.00869 1.43969,-0.89953 2.83235,-1.42063 3.09487,-1.15797 0.26256,0.26263 0.85153,5.3485 1.30897,11.30195 l 0.83165,10.82446 3.24971,-0.68929 3.24974,-0.68929 -2.94637,2.58422 c -3.59528,3.15336 -4.74785,3.22755 -6.20018,0.39918 z m 76.21536,-0.62431 c 0.69091,-2.13087 9.56636,-6.24414 11.70322,-5.42379 2.898,1.11256 1.92515,3.23873 -1.48198,3.23873 -1.76507,0 -4.05167,0.84279 -5.08135,1.87288 -2.26705,2.2681 -5.84455,2.48534 -5.13989,0.31217 z m -66.29651,-7.62506 c -3.505,-4.22518 2.73805,-14.49835 7.66198,-12.60801 1.05689,0.40575 2.29244,0.13769 2.7456,-0.59599 0.45315,-0.73357 1.67782,-1.33374 2.72151,-1.33374 1.45573,0 1.70766,0.86523 1.08191,3.71537 -1.2791,5.82632 0.39703,6.95187 4.4984,3.02078 1.98397,-1.90163 3.60727,-4.1521 3.60727,-5.00105 0,-2.35279 6.2134,-9.22676 8.34009,-9.22676 1.03291,0 2.17984,1.15479 2.54877,2.56618 0.62362,2.38588 0.90674,2.28339 4.02981,-1.45924 3.78134,-4.53141 5.62599,-4.15744 6.72983,1.36432 0.44338,2.21801 1.53805,3.77179 2.65731,3.77179 2.95837,0 2.24422,1.94098 -1.31039,3.56126 -4.06619,1.85353 -5.93128,0.73463 -4.99525,-2.99663 1.35493,-5.40085 -1.80949,-4.55101 -4.33665,1.16463 -2.48892,5.62903 -4.47055,7.88399 -5.7785,6.57545 -0.37693,-0.37708 -0.10027,-2.36535 0.61534,-4.41839 0.98397,-2.82388 0.90751,-4.05922 -0.3143,-5.07357 -1.92359,-1.59713 -3.0922,-0.38221 -6.33639,6.58735 -2.56663,5.51415 -7.02804,8.90372 -10.51752,7.99078 -1.43897,-0.37648 -3.2906,0.32527 -4.55939,1.72788 -2.49388,2.75691 -7.07715,3.09354 -9.08961,0.66759 z m 7.55376,-2.8695 c 3.0768,-2.78569 2.97787,-6.67381 -0.17008,-6.67381 -2.53629,0 -5.0361,3.36805 -5.0361,6.78527 0,2.54189 2.33043,2.49202 5.20593,-0.11148 z m 78.41356,3.359 c 0,-1.51881 3.6411,-3.48369 10.36378,-5.59262 2.88029,-0.90352 6.21968,-2.05137 7.42096,-2.55078 1.64428,-0.68359 2.18406,-0.30543 2.18406,1.53035 0,1.95762 -1.8243,2.96867 -9.25267,5.12804 -10.61107,3.08455 -10.71613,3.09913 -10.71613,1.48501 z M 790.73,168.21751 c -4.78921,-4.79134 0.096,-14.68062 5.755,-11.65054 2.81062,1.5049 1.85379,3.62377 -1.63644,3.62377 -1.88869,0 -2.4103,0.69478 -2.10919,2.80937 0.31961,2.24268 1.12273,2.75776 3.98253,2.55354 3.86526,-0.27606 8.63246,-3.76847 7.54558,-5.52792 -0.36687,-0.5939 0.62919,-0.94023 2.21351,-0.76956 1.58435,0.17061 3.29786,1.33172 3.80781,2.58019 0.87853,2.1508 1.18967,2.12235 5.92827,-0.54205 2.75057,-1.54659 5.00106,-3.2704 5.00106,-3.83068 0,-0.56028 0.84239,-1.0187 1.87207,-1.0187 4.10964,0 1.50173,3.74344 -4.73446,6.79585 -4.63347,2.26799 -7.71169,3.0126 -10.30712,2.4933 -2.7061,-0.54148 -4.50362,-0.0435 -6.68892,1.85254 -3.55468,3.08427 -7.91854,3.34328 -10.6297,0.63089 z m 13.88051,-11.32329 c -0.42754,-0.4277 -0.19736,-1.8616 0.5113,-3.18645 1.77179,-3.31214 6.61078,-2.51426 7.13473,1.17641 0.40869,2.8787 -1.48294,3.8464 -2.9324,1.50012 -0.56031,-0.90707 -1.28909,-0.91043 -2.37257,-0.0106 -0.86006,0.71413 -1.91356,0.94847 -2.34106,0.52078 z m 103.93153,73.12883 c 0.0432,-3.50376 -3.4065,-14.82525 -5.07745,-16.66313 -0.60775,-0.66841 -1.37374,-0.27854 -1.83976,0.93648 -0.43915,1.14491 -1.33313,2.08167 -1.98666,2.08167 -0.65349,0 -0.79604,-0.63475 -0.31677,-1.41058 0.53369,-0.86392 0.19949,-1.16636 -0.86237,-0.78039 -0.95357,0.3465 -1.50849,1.40279 -1.23321,2.34705 1.48851,5.10475 6.2741,18.66638 7.0037,19.84749 1.23909,2.0058 4.26426,-2.45472 4.31252,-6.35859 z m -9.3207,-18.34635 c 1.83015,-1.3452 2.14335,-5.65968 0.68875,-9.48735 -1.05591,-2.77844 -1.80812,-3.21498 -4.41294,-2.56091 -3.55943,0.89376 -3.95107,-0.26546 -1.3466,-3.98553 1.91753,-2.73883 0.98117,-9.47235 -2.41221,-17.34736 -0.88778,-2.06019 -1.99878,-5.5719 -2.46895,-7.80379 -0.51268,-2.43394 -1.61776,-4.05798 -2.76122,-4.05798 -1.09691,0 -1.62925,-0.72281 -1.25359,-1.70215 0.76255,-1.98806 -2.86377,-16.34062 -5.18471,-20.52039 -0.87622,-1.57802 -2.99682,-3.40306 -4.71249,-4.05564 -3.17785,-1.20877 -3.03215,-3.68837 0.21685,-3.68837 1.15972,0 1.63031,-0.98986 1.33561,-2.80937 -0.36744,-2.26841 -1.20706,-2.77394 -4.36039,-2.62528 -4.38527,0.20671 -5.24147,-1.46445 -1.37863,-2.69101 2.25769,-0.7169 2.43978,-1.49004 1.7105,-7.26365 -0.44887,-3.55373 -1.51941,-7.30414 -2.37901,-8.33424 -0.85961,-1.0301 -1.95545,-3.16061 -2.43521,-4.73446 -0.64464,-2.11477 -1.49748,-2.66305 -3.26775,-2.10093 -1.34061,0.42568 -2.39545,0.1738 -2.39545,-0.57214 0,-0.733 0.63556,-1.33274 1.41236,-1.33274 1.70494,0 0.65342,-9.95201 -1.17336,-11.10527 -0.65906,-0.41606 -1.40372,-1.84029 -1.65469,-3.16493 -0.52827,-2.78778 -3.09405,-2.27302 -2.66918,0.53554 0.15556,1.03009 -0.33555,3.09039 -1.09137,4.57841 -1.1239,2.21188 -0.30295,5.97076 4.49961,20.60204 3.23093,9.84307 6.38975,18.87215 7.01965,20.0646 0.62989,1.19247 1.1453,3.01857 1.1453,4.05798 0,1.03943 0.98281,1.89847 2.18406,1.90898 1.58315,0.0142 1.74894,0.29555 0.60257,1.02341 -1.60813,1.02118 0.43771,8.56532 7.16655,26.42684 1.42292,3.77703 4.56927,12.76268 6.99194,19.96811 2.42266,7.20543 5.52752,14.29639 6.89977,15.75769 1.37219,1.46129 2.58502,3.85355 2.69511,5.31615 0.21296,2.82749 0.78492,3.1769 2.78919,1.70374 z m -23.08897,-62.72343 c 2.45881,-1.5897 5.35025,-1.5897 4.36819,0 -0.42424,0.68674 -2.00183,1.24002 -3.50582,1.2295 -2.22307,-0.0142 -2.38436,-0.24562 -0.86237,-1.2295 z m -9.98436,-26.22074 c 0,-0.68674 0.59474,-1.24861 1.32165,-1.24861 0.72694,0 0.97462,0.56187 0.55038,1.24861 -0.4242,0.68674 -1.01898,1.24862 -1.32172,1.24862 -0.30296,0 -0.55031,-0.56188 -0.55031,-1.24862 z m 1.24798,-6.24304 c -0.98985,-0.61206 -1.38546,-1.52734 -0.87905,-2.03393 0.50637,-0.50662 1.57592,-0.26546 2.37674,0.53561 1.88571,1.88652 0.83321,2.93951 -1.49769,1.49832 z M 859.2837,95.26317 c 0.42424,-0.68674 1.29983,-1.24861 1.94577,-1.24861 0.64584,0 1.17436,0.56187 1.17436,1.24861 0,0.68675 -0.87559,1.24862 -1.94577,1.24862 -1.07012,0 -1.59864,-0.56187 -1.17436,-1.24862 z M 511.18757,206.70769 c -1.3634,-1.36396 -2.2983,0.80517 -1.31942,3.06137 0.92813,2.13929 0.99542,2.13735 1.51256,-0.0439 0.29764,-1.25552 0.21083,-2.61339 -0.19311,-3.01745 z m 361.20062,-3.1107 c 0,-1.36758 1.18007,-4.81049 2.6223,-7.65093 5.51707,-10.86573 6.00141,-12.12139 5.34008,-13.84555 -1.08588,-2.83096 -3.58171,-0.97949 -3.72596,2.76402 -0.14032,3.63613 -5.04783,17.59851 -6.88557,19.58937 -0.60222,0.65237 -1.09499,1.9854 -1.09499,2.96223 0,1.43716 0.35727,1.47949 1.87211,0.22156 1.02965,-0.8549 1.87203,-2.67328 1.87203,-4.04085 z m 16.37958,1.21067 c -1.23261,-1.22398 -1.37594,-1.08057 -0.69867,0.69895 0.46874,1.23141 1.16656,1.92439 1.55083,1.53998 0.38428,-0.38445 8.2e-4,-1.39196 -0.85216,-2.23893 z m -8.13366,-6.63652 c -0.41666,-1.08626 -0.76617,-2.6314 -0.77666,-3.43367 -0.0248,-1.94583 -2.43308,1.82337 -2.45792,3.84796 -0.0106,0.85843 0.88342,1.56075 1.98652,1.56075 1.31609,0 1.74518,-0.67899 1.24806,-1.97504 z M 596.56879,111.49507 c 0,-0.68675 -0.56161,-1.24862 -1.24809,-1.24862 -0.68641,0 -1.24803,0.56187 -1.24803,1.24862 0,0.68674 0.56162,1.24861 1.24803,1.24861 0.68648,0 1.24809,-0.56187 1.24809,-1.24861 z m 44.23996,-25.07881 c -0.40188,-0.65046 -1.26259,-0.85376 -1.91282,-0.45173 -0.65016,0.402 -0.85337,1.26316 -0.45152,1.91363 0.40184,0.6505 1.26258,0.85376 1.91278,0.45176 0.65023,-0.40203 0.85337,-1.26316 0.45156,-1.91366 z m 181.65737,275.5307 c 0,-2.40169 11.66088,-12.55509 12.28114,-10.69349 0.49152,1.47527 -9.46428,12.46026 -11.29291,12.46026 -0.54351,0 -0.98823,-0.79505 -0.98823,-1.76677 z m 21.42099,-23.20534 c 6.6325,-7.53831 8.53228,-8.8484 8.53228,-5.88397 0,2.06967 -11.439,13.37559 -13.53302,13.37559 -0.87491,0 1.37541,-3.37124 5.00074,-7.49162 z M 5.9282351,331.53046 C 1.7830124,331.23881 4.2138377e-6,330.57041 4.2138377e-6,329.30866 c 0,-0.99251 1.0469012861623,-1.80451 2.3264472861623,-1.80451 1.8215702,0 2.4987019,-1.25718 3.1201493,-5.79301 1.5016485,-10.96076 1.1464193,-12.93611 -2.3264826,-12.93611 -1.8762288,0 -3.1201139861623,-0.71315 -3.1201139861623,-1.78883 0,-1.41847 2.0026691861623,-1.74161 9.6723744861623,-1.56078 9.5646493,0.22546 9.6768323,0.26652 10.0680053,3.66886 0.257906,2.24314 -0.28479,3.70196 -1.558996,4.19117 -1.645318,0.63163 -1.443593,1.35794 1.275053,4.5903 2.514728,2.98987 3.061847,4.67921 2.471638,7.63157 -0.416892,2.08542 -1.168707,4.15637 -1.670648,4.60205 -1.407826,1.25007 -7.780332,1.88205 -14.3291959,1.42109 z m 12.7925239,-6.52354 c 0,-1.37345 -1.022243,-3.51993 -2.271683,-4.76992 -1.633784,-1.63448 -2.121114,-3.5629 -1.735531,-6.86732 0.49674,-4.25696 0.29682,-4.59465 -2.720521,-4.59465 -3.564707,0 -4.4977979,3.25331 -1.727854,6.02449 1.206385,1.20692 1.202174,2.05275 -0.02123,4.01062 -0.851827,1.36464 -1.1981055,3.87903 -0.769467,5.58755 0.638605,2.54565 1.543464,3.10646 5.012192,3.10646 3.400837,0 4.232888,-0.49087 4.232888,-2.49723 z m 836.921481,2.66344 c -0.92218,-1.49272 10.4787,-13.90091 12.77238,-13.90091 2.69706,0 1.54287,1.89367 -5.23768,8.59293 -3.95068,3.90339 -7.05252,6.08851 -7.5347,5.30798 z m 15.49797,-18.3245 c 0,-1.54157 11.70797,-13.05691 13.27531,-13.05691 3.13098,0 1.74997,2.67108 -4.22695,8.17574 -5.24604,4.83151 -9.04836,6.88268 -9.04836,4.88117 z M 9.4649589,295.3525 c -0.7309066,-2.32259 -0.017681,-55.44983 1.2181641,-90.8362 0.600221,-17.17499 0.602839,-61.41823 0.0071,-111.75036 -0.05908,-4.99757 0.598275,-7.79154 2.414786,-10.26177 1.372837,-1.86694 2.917292,-3.41208 3.432147,-3.43367 1.810072,-0.0758 0.909847,3.73278 -1.437367,6.08104 -2.332532,2.33357 -2.284136,2.40571 2.808117,4.18593 2.849827,0.9963 9.14061,3.01419 13.979486,4.48419 9.208217,2.79737 14.276095,5.61842 12.780746,7.11447 -0.485278,0.48546 -3.292512,-0.092 -6.238322,-1.28355 -2.945806,-1.19142 -6.058031,-2.44559 -6.91605,-2.7871 -3.539341,-1.4086 -1.239356,2.41989 2.496085,4.15499 2.230928,1.03626 5.179423,2.55645 6.552295,3.37825 1.37284,0.8218 7.129488,3.98666 12.792525,7.03296 5.663037,3.04632 10.296439,5.99245 10.296439,6.54689 0,0.55448 0.749303,1.00815 1.665166,1.00815 0.915825,0 4.872129,2.24749 8.791785,4.99443 3.91962,2.74693 7.354097,4.99442 7.632134,4.99442 0.278043,0 6.667345,4.21403 14.198477,9.36454 7.531128,5.15052 14.245138,9.36458 14.920038,9.36458 0.67487,0 5.70751,3.58955 11.18361,7.9768 5.47611,4.38725 12.40984,9.46658 15.40831,11.28741 2.99847,1.82082 11.34881,7.50563 18.55631,12.63292 16.86068,11.9944 21.57301,15.14408 23.001,15.37371 0.66236,0.10654 1.37817,-9.32437 1.6684,-21.98141 0.27953,-12.19235 1.07075,-22.84713 1.75817,-23.67725 0.90688,-1.09515 0.36342,-1.73188 -1.98042,-2.3204 -1.77665,-0.4461 -3.23027,-1.593 -3.23027,-2.54866 0,-2.30557 1.52677,-2.19384 8.505,0.62236 3.21618,1.29795 8.51531,3.311 11.77584,4.4734 4.4242,1.57724 5.92825,2.75471 5.92825,4.64102 0,2.53312 -0.0596,2.53446 -5.92825,0.13415 -1.16543,-0.47672 -1.61215,2.00136 -1.76599,9.79648 -0.36447,18.4682 -0.0703,34.75874 0.66234,36.66858 0.49885,1.30058 2.57054,1.85969 6.89066,1.85969 7.34179,0 10.12566,0.89492 10.12566,3.25511 0,2.01825 -10.42669,2.45801 -15.20739,0.64137 l -2.88937,-1.09795 0.11906,22.96365 c 0.0655,12.63003 0.37252,23.21721 0.68227,23.52711 0.30972,0.30969 3.31167,-0.26404 6.67094,-1.27555 4.11016,-1.23753 6.51983,-1.42675 7.36768,-0.57854 0.79368,0.79406 0.82116,1.66629 0.0743,2.35714 -2.18172,2.01797 -30.64892,8.25103 -44.55545,9.75568 -4.70764,0.50935 -5.92824,0.25802 -5.92824,-1.21977 0,-1.28419 2.99847,-2.59941 9.6724,-4.24256 l 9.6724,-2.38142 0.62402,-8.37476 0.62403,-8.37476 -4.05616,-0.76015 c -4.37174,-0.81926 -4.89808,-1.6377 -2.55851,-3.97831 0.82371,-0.82407 1.24493,-1.53626 0.93603,-1.58259 -7.41362,-1.11235 -8.67395,-1.00787 -8.67395,0.71909 0,1.02433 0.56162,1.86237 1.24805,1.86237 0.68643,0 1.24805,0.56188 1.24805,1.24862 0,1.53523 -4.98238,1.61197 -7.34807,0.11324 -1.41436,-0.89609 -1.24277,-1.62241 0.93604,-3.96213 1.46734,-1.57569 2.66789,-3.37453 2.66789,-3.99746 0,-2.47076 5.30046,-8.38542 7.51463,-8.38542 2.29327,0 4.9413,6.12805 4.95892,11.47591 0.004,1.16127 0.56859,2.45866 1.25502,2.88306 0.80044,0.49495 1.24805,-3.73285 1.24805,-11.78805 0,-6.90787 -0.33453,-12.55977 -0.74338,-12.55977 -0.40886,0 -2.23414,1.05002 -4.05617,2.33339 -1.82203,1.28338 -4.49235,2.69923 -5.93402,3.14632 -1.44167,0.44713 -7.33872,3.93598 -13.10455,7.75307 -5.76582,3.8171 -14.13386,8.78101 -18.59565,11.03087 -27.05988,13.64516 -45.391652,22.77444 -53.042219,26.41524 -4.804986,2.28663 -11.825258,5.83983 -15.600641,7.89592 -11.849633,6.45349 -27.552552,13.84442 -29.414202,13.84442 -0.982907,0 -1.787081,0.45993 -1.787081,1.02206 0,0.56215 -1.825282,1.98274 -4.056175,3.15682 l -4.056173,2.13477 6.017524,-0.64795 c 5.224212,-0.56254 5.962687,-0.3632 5.60173,1.51209 -0.294697,1.5306 -2.146836,2.40779 -6.356021,3.01016 -3.267109,0.46755 -9.555875,2.0187 -13.975028,3.44701 -9.748261,3.15074 -10.284271,3.17053 -11.1524426,0.41188 z m 9.4638221,-7.65195 c 0.228894,-0.60321 4.908995,-3.43021 10.400415,-6.28219 5.491456,-2.85197 14.47743,-7.69329 19.968851,-10.75844 10.736042,-5.99253 16.934066,-9.11375 28.705197,-14.45545 13.99997,-6.35316 31.184616,-14.79686 36.560626,-17.96413 2.94765,-1.73662 11.372,-6.28328 18.7208,-10.1037 7.34878,-3.82042 14.20385,-7.68498 15.23349,-8.58787 1.02964,-0.90292 5.24182,-3.39499 9.36039,-5.53789 8.19867,-4.26585 15.53829,-8.39168 16.32054,-9.17427 0.27464,-0.27464 -2.44264,-0.63188 -6.03849,-0.79356 -11.60552,-0.52177 -10.92763,-3.50206 0.95042,-4.17839 l 6.24026,-0.35535 -4.6802,-2.41002 c -2.5741,-1.32553 -4.68019,-2.86784 -4.68019,-3.42738 0,-0.55957 -0.7554,-1.01735 -1.67864,-1.01735 -0.92327,0 -2.69517,-1.12375 -3.9376,-2.49723 -1.24242,-1.37349 -2.77273,-2.49723 -3.4007,-2.49723 -0.62797,0 -3.59064,-1.68562 -6.58371,-3.74581 -6.2893,-4.32906 -7.83744,-4.56786 -10.11914,-1.56076 -2.2996,3.03069 -2.13335,4.05799 0.65667,4.05799 3.53084,0 6.42695,1.35009 5.63749,2.62804 -0.37978,0.61475 -3.14682,1.11777 -6.14899,1.11777 -4.49497,0 -5.6093,-0.47545 -6.31298,-2.69352 -0.61072,-1.92506 -0.12466,-3.26092 1.70359,-4.6823 1.87738,-1.45952 2.37631,-2.89969 1.87496,-5.41199 -0.5697,-2.85471 -6.4988,-7.28793 -35.70027,-26.69325 C 82.722156,137.87777 63.831937,125.69487 60.003348,123.60314 56.174719,121.51142 47.706787,116.35864 41.185692,112.1525 29.738518,104.76901 18.08042,97.75948 17.250491,97.76122 c -0.22111,4.9e-4 -0.377906,13.34497 -0.348825,29.65445 0.02831,16.30947 -0.393578,30.60275 -0.939423,31.76285 -0.574466,1.22087 -0.439676,2.45111 0.32017,2.92082 0.904647,0.55936 1.037314,14.06555 0.42694,43.46489 -0.487082,23.45933 -0.746685,48.3874 -0.576942,55.39568 0.169816,7.00829 -0.131255,13.45417 -0.668535,14.32418 -0.986335,1.59664 -0.745094,10.83702 0.328308,12.57453 0.789245,1.27764 2.62723,1.18501 3.136671,-0.15821 z m 37.304385,-81.85023 c -0.815566,-0.98317 -4.534912,-3.05313 -8.265149,-4.5999 -3.730277,-1.5468 -6.782325,-3.19905 -6.782325,-3.67162 0,-0.47261 2.217908,-1.21407 4.928665,-1.64775 2.710722,-0.43364 6.946901,-1.97981 9.413656,-3.43587 5.175318,-3.05489 7.636981,-1.99882 3.383256,1.45139 l -2.867266,2.32564 6.937806,0.37623 c 9.366321,0.50794 8.814886,2.72471 -0.870084,3.49774 -7.435647,0.59351 -7.682974,0.71612 -5.013358,2.48541 2.765594,1.83292 3.851338,5.00625 1.712888,5.00625 -0.602376,0 -1.762526,-0.80439 -2.578089,-1.78752 z m 88.198204,-3.09093 c -8.15986,-1.01374 -6.89378,-3.22057 1.90047,-3.31259 8.0847,-0.0846 11.45721,1.1871 8.42658,3.1775 -1.02964,0.67619 -2.4337,1.14979 -3.12013,1.05242 -0.68643,-0.0973 -3.92954,-0.51016 -7.20692,-0.91733 z m -27.1145,-1.88485 c 0,-1.08732 0.88923,-1.97698 1.97607,-1.97698 2.20397,0 1.82016,2.68797 -0.49402,3.45969 -0.81514,0.27181 -1.48205,-0.39538 -1.48205,-1.48271 z m 4.9922,0.74851 c 0,-2.2698 3.15978,-3.74507 6.60446,-3.08353 1.91638,0.36803 3.27702,1.3015 3.02365,2.07435 -0.56029,1.70912 -9.62811,2.65958 -9.62811,1.00918 z m -46.995288,-2.15501 c -1.174649,-3.06243 0.223228,-3.44677 7.935923,-2.18198 7.044051,1.15514 7.141762,1.22468 3.720656,2.64755 -4.983927,2.07278 -10.771635,1.84163 -11.656579,-0.46557 z m 19.538162,0.0538 c 0,-1.48642 1.80275,-1.87288 8.736346,-1.87288 6.93363,0 8.73638,0.38646 8.73638,1.87288 0,1.48646 -1.80275,1.87293 -8.73638,1.87293 -6.933596,0 -8.736346,-0.38647 -8.736346,-1.87293 z M 37.44155,192.6144 c 0,-0.70875 0.84245,-3.30583 1.872089,-5.7712 2.365929,-5.66503 2.345229,-6.12476 -0.181489,-4.02687 -1.754174,1.45648 -2.241683,1.40654 -3.344623,-0.3426 -1.176347,-1.86579 -1.601731,-1.81804 -4.785666,0.53698 -3.294173,2.4366 -3.628459,2.46357 -5.829598,0.4707 -1.862997,-1.68676 -2.354466,-3.99484 -2.431342,-11.41837 -0.09163,-8.86075 0.08243,-9.45469 3.653718,-12.46109 4.467727,-3.76103 9.830444,-4.07394 12.838017,-0.74914 2.476524,2.73773 1.74537,6.91449 -1.423318,8.13101 -2.989146,1.14753 -4.865799,-1.25825 -2.863944,-3.67142 1.163472,-1.4025 1.253543,-2.36687 0.309203,-3.31156 -1.763585,-1.76434 -8.372344,2.08857 -10.103878,5.89055 -1.588076,3.48705 -0.623216,4.58029 2.384078,2.70139 3.049288,-1.90517 4.924597,0.0757 2.057399,2.1732 -1.226019,0.89687 -2.738811,3.40879 -3.361815,5.58206 -1.866041,6.50938 1.811133,6.48138 7.462957,-0.057 5.159929,-5.96913 7.299194,-5.94127 5.205358,0.068 -2.05673,5.90252 1.409521,4.91501 4.158946,-1.18487 1.238155,-2.74693 2.727492,-4.99442 3.309668,-4.99442 1.489373,0 1.422581,0.34756 -2.061609,10.73144 -1.716073,5.11434 -3.120148,10.12983 -3.120148,11.14544 0,1.01566 -0.842417,1.84663 -1.872056,1.84663 -1.029635,0 -1.872085,-0.57989 -1.872085,-1.28872 z m 33.697401,-0.33445 c 0,-2.23486 2.582901,-4.61985 5.003277,-4.61985 1.104389,0 3.044441,-0.7582 4.311251,-1.68492 2.087469,-1.52709 1.945956,-1.63249 -1.510249,-1.12502 -2.983589,0.4381 -3.983046,0.0248 -4.592608,-1.89596 -1.017751,-3.20804 1.061688,-8.55605 3.922416,-10.08771 3.386328,-1.81314 9.088848,-1.14873 9.088671,1.05894 -2.45e-4,3.49802 -4.663187,14.1762 -7.459947,17.08333 -2.988581,3.10649 -8.762811,3.94415 -8.762811,1.27119 z m 10.697587,-12.64659 c 2.224421,-2.22541 2.304797,-4.45931 0.160618,-4.45931 -2.087153,0 -4.6178,2.53177 -4.6178,4.61982 0,2.14531 2.232907,2.0649 4.457324,-0.16069 z m 41.720602,7.40246 c 0,-1.03013 0.48036,-1.87292 1.06749,-1.87292 0.58713,0 1.59098,-1.8261 2.23082,-4.05798 0.90716,-3.16458 1.8399,-4.05798 4.2367,-4.05798 3.9652,0 4.12745,3.59638 0.18744,4.15503 -2.48928,0.35288 -2.77587,0.91075 -2.08493,4.05798 0.72376,3.2967 0.49044,3.64876 -2.41824,3.64876 -2.02955,0 -3.21931,-0.69216 -3.21931,-1.87289 z m -35.435126,-0.40683 c -0.395135,-0.63959 0.382613,-5.30472 1.728315,-10.36692 3.023784,-11.37451 3.028309,-10.74259 -0.08454,-11.73103 -3.279029,-1.04121 -2.508431,-1.80044 3.115304,-3.06933 3.87575,-0.87454 4.467057,-0.7026 4.467057,1.29901 0,1.26883 -0.577297,3.59762 -1.282907,5.17511 -0.705579,1.57746 -2.011837,6.48765 -2.902755,10.91157 -1.521709,7.55592 -3.394042,10.44659 -5.040354,7.78159 z m 7.39818,0.0354 c -1.044248,-1.04472 -0.746929,-8.18389 0.41732,-10.02099 1.116596,-1.76193 11.260586,-4.51668 12.407356,-3.3694 0.37565,0.37581 -0.26004,2.66185 -1.41277,5.08008 -2.60696,5.4694 -2.60353,5.56076 0.21082,5.56076 1.48375,0 3.10961,-1.78164 4.55774,-4.99443 2.37774,-5.2752 4.74395,-6.33209 6.62955,-2.96117 0.74181,1.32606 1.42839,1.56217 1.97409,0.67881 0.46016,-0.74492 1.66113,-1.03788 2.6688,-0.65102 1.91055,0.73346 2.37124,3.8208 1.07457,7.20139 -1.11936,2.91831 -3.3892,2.40146 -2.60636,-0.59348 0.9557,-3.6562 -1.87078,-2.40029 -3.88049,1.72423 -2.30572,4.73198 -4.48482,4.2868 -3.50708,-0.71647 l 0.793,-4.05798 -2.42887,3.95615 c -2.26461,3.68872 -2.89536,3.95198 -9.3291,3.89415 -3.795124,-0.0354 -7.200982,-0.36289 -7.568526,-0.7306 z m 6.113676,-5.50809 c 2.89186,-4.13054 0.0612,-6.31242 -3.126367,-2.40978 -1.324123,1.62131 -2.4075,3.44737 -2.4075,4.05802 0,2.15536 3.62733,1.07497 5.533867,-1.64821 z m -50.549068,2.03138 c -1.356949,-1.63579 -1.32957,-2.87117 0.1592,-7.17953 1.570284,-4.54418 2.32475,-5.25425 5.952504,-5.6023 3.674449,-0.35253 4.106906,-0.0789 3.744145,2.36967 -0.225708,1.52259 -1.533387,3.38759 -2.906255,4.14444 -1.37284,0.7569 -2.88765,1.92319 -3.366241,2.59181 -1.107606,1.54737 1.361338,3.12709 3.565098,2.28104 0.920282,-0.35323 1.673228,-0.0803 1.673228,0.60626 0,2.99497 -6.508672,3.57688 -8.821679,0.78864 z m 5.752867,-8.09622 c 1.34326,-2.17437 -0.186803,-2.63484 -1.89838,-0.57139 -0.984388,1.18671 -1.079058,1.90311 -0.25154,1.90311 0.729985,0 1.697429,-0.59925 2.149877,-1.33165 z m 5.869041,6.01397 c 0.281587,-0.85843 2.290078,-1.73655 4.463093,-1.95135 3.156271,-0.31217 3.80043,0.002 3.202511,1.56075 -0.914835,2.3851 -8.445968,2.76884 -7.665604,0.3906 z m 127.70707,29.79589 c 0.0494,-30.4433 -0.0392,-31.64187 -2.23982,-30.27876 -1.71551,1.06269 -2.25548,2.8312 -2.14882,7.03805 0.0783,3.09032 -0.26224,9.1204 -0.75683,13.40023 -0.67721,5.85987 -0.47171,8.29965 0.8321,9.87977 1.34595,1.63115 1.38409,2.21521 0.17135,2.62355 -1.99026,0.67017 -2.05743,7.80885 -0.0735,7.80885 0.89697,0 0.70875,0.61903 -0.47459,1.56075 -1.54353,1.22841 -1.82768,3.2291 -1.33438,9.39498 0.55162,6.89482 0.82825,7.56854 2.30696,5.61874 1.5388,-2.02905 1.68353,-1.92655 1.71988,1.21817 0.022,1.88853 0.46864,3.43368 0.99294,3.43368 0.52428,0 0.9764,-14.26412 1.0047,-31.69801 z m -18.18263,14.21757 c 0,-1.37348 -0.50154,-2.49723 -1.11453,-2.49723 -1.40285,0 -2.71144,3.24779 -1.7116,4.24805 1.50236,1.50306 2.82613,0.68295 2.82613,-1.75082 z m 18.72078,-49.8706 c 0,-3.00743 -2.26285,-4.55232 -4.04962,-2.76477 -0.94933,0.94975 -0.87363,1.89402 0.26157,3.26244 2.18124,2.62942 3.78805,2.4183 3.78805,-0.49767 z M 89.85974,137.71579 c 0,-0.68671 -0.982867,-1.23998 -2.184087,-1.22947 -1.866536,0.0177 -1.911887,0.19502 -0.312024,1.22947 2.35535,1.52281 2.496118,1.52281 2.496118,0 z m 845.46584,156.78897 c -0.74983,-2.98888 -1.30727,-3.21024 -8.08473,-3.21024 -7.60691,0 -9.86332,-1.20451 -6.88641,-3.67622 0.96838,-0.80407 2.14076,-3.71219 2.60521,-6.46252 0.65863,-3.90006 0.34796,-5.54971 -1.41289,-7.49597 -3.24266,-3.5847 -0.65994,-4.79757 10.26631,-4.82111 l 8.87867,-0.0177 -0.14208,-4.55264 c -0.0826,-2.63222 0.51576,-4.78291 1.41771,-5.09852 2.66244,-0.93145 1.9036,8.13806 -0.93604,11.18743 -1.37285,1.47424 -2.49608,3.41732 -2.49608,4.31791 0,2.25468 -3.31168,2.06883 -4.19552,-0.23538 -1.12309,-2.92801 -5.24024,-2.19791 -6.78962,1.20405 -1.64771,3.61797 0.11126,5.459 2.9576,3.09566 2.14175,-1.77831 2.63838,-1.47938 3.22866,1.94333 0.32811,1.90081 -0.26504,2.50469 -2.48265,2.52841 -3.14578,0.0354 -6.61373,4.22897 -3.70099,4.47715 3.57077,0.30437 7.92695,-0.41514 9.04802,-1.49421 2.44289,-2.35138 3.30813,-0.97004 2.93892,4.69205 -0.42087,6.4536 -2.9565,8.6319 -4.21384,3.61999 z m -46.71265,-2.40036 c 0,-2.88047 8.94639,-12.33665 10.34645,-10.93598 0.86801,0.86841 -0.0819,2.84759 -2.97567,6.2001 -4.7211,5.46948 -7.37078,7.17195 -7.37078,4.73588 z m -712.63762,-4.18221 c 0,-1.3955 0.81975,-1.68697 3.12012,-1.10935 3.04159,0.76373 3.12013,0.61256 3.12013,-6.00558 0,-3.73395 0.32375,-7.63305 0.71944,-8.66467 0.49304,-1.28543 -0.19425,-2.00519 -2.18409,-2.28717 -5.86674,-0.83146 -2.67336,-2.91962 5.02174,-3.28371 6.06793,-0.28705 7.79993,0.004 7.39055,1.24861 -0.2941,0.89298 -1.72255,1.79895 -3.17436,2.0133 -2.05271,0.30295 -2.72473,1.41362 -3.02237,4.99442 -0.60348,7.26061 1.4021,11.47206 5.46321,11.47206 2.16508,0 3.92533,-0.93223 4.78121,-2.5322 1.79027,-3.34661 3.72545,-1.98682 3.72545,2.61778 l 0,3.68398 -12.48052,-0.12742 c -10.26408,-0.10478 -12.48051,-0.46348 -12.48051,-2.02012 z M 46.177931,285.81474 c 0,-1.02043 1.925901,-2.08308 4.680173,-2.58245 2.574128,-0.4667 5.943866,-1.15199 7.488322,-1.52292 2.197846,-0.52786 2.808117,-0.13379 2.808117,1.81254 0,2.79072 -3.062625,3.98341 -10.296439,4.00974 -3.169608,0.0106 -4.680173,-0.54258 -4.680173,-1.71691 z m 19.968816,-3.78283 c 0,-1.8199 15.679179,-6.20534 17.705766,-4.95227 2.688361,1.66223 0.388659,3.80389 -5.573816,5.19072 -8.645215,2.01082 -12.13195,1.9423 -12.13195,-0.23854 z m 126.053233,0.60651 c 0,-0.64045 -1.23457,-1.55647 -2.74347,-2.03559 l -2.74348,-0.87115 2.74348,-2.2225 c 1.5089,-1.22239 2.74347,-2.80165 2.74347,-3.50945 0,-0.70784 0.56162,-1.6342 1.24805,-2.0586 0.76921,-0.47562 1.24805,1.65182 1.24805,5.54501 0,3.47423 -0.56162,6.31673 -1.24805,6.31673 -0.68643,0 -1.24805,-0.524 -1.24805,-1.16445 z m -102.34024,-5.5042 c 0,-1.01951 2.806278,-2.30243 7.176292,-3.28071 3.946958,-0.88356 7.878318,-1.87589 8.736338,-2.20519 0.93685,-0.35953 1.5601,0.42882 1.5601,1.97344 0,1.90863 -1.20727,2.90751 -4.68021,3.87245 -6.653436,1.84857 -12.79252,1.67581 -12.79252,-0.35999 z m 812.48173,-1.20236 c 0,-1.66718 7.52765,-9.60946 9.10782,-9.60946 1.85797,0 0.72213,2.58635 -2.99682,6.82388 -4.04217,4.6058 -6.111,5.54883 -6.111,2.78558 z M 198.80186,272.5654 c -0.35901,-1.37345 -1.14887,-2.49719 -1.75524,-2.49719 -0.60636,0 -1.10249,-0.88191 -1.10249,-1.95975 0,-1.31816 0.91934,-1.82914 2.80812,-1.56078 2.15226,0.30578 2.89946,1.34676 3.19921,4.45697 0.4316,4.47839 -2.06374,5.71493 -3.1496,1.56075 z m -86.47719,-0.53274 c 0,-1.15826 1.06707,-1.96445 2.6001,-1.96445 3.04154,0 2.61162,2.9177 -0.51946,3.5252 -1.2315,0.23892 -2.08064,-0.398 -2.08064,-1.56075 z m 6.24023,-1.34015 c 0,-1.80641 1.39587,-2.39278 4.68021,-1.96611 0.85805,0.11147 1.56005,-0.38384 1.56005,-1.10067 0,-0.71683 0.56163,-1.30333 1.24806,-1.30333 0.68644,0 1.24806,1.40466 1.24806,3.1215 0,2.73504 -0.54082,3.1215 -4.36817,3.1215 -3.05081,0 -4.36821,-0.56481 -4.36821,-1.87289 z m 11.23248,-2.42354 c 0,-1.07062 0.56162,-1.94657 1.24805,-1.94657 0.68644,0 1.24806,0.5287 1.24806,1.17489 0,0.64621 -0.56162,1.52217 -1.24806,1.94661 -0.68643,0.42444 -1.24805,-0.10442 -1.24805,-1.17493 z m 6.91332,-1.86722 c -1.12101,-1.81463 2.86878,-3.41187 10.98291,-4.39677 6.53285,-0.79296 7.24392,-0.65814 6.86429,1.30128 -0.23294,1.20221 -1.54675,2.34175 -2.91961,2.5323 -10.56527,1.4664 -14.28299,1.60663 -14.92759,0.56319 z m 77.95421,-16.87899 c 0,-1.12949 1.76984,-2.10773 4.68019,-2.58692 2.57411,-0.42381 7.63218,-1.38226 11.24016,-2.12988 6.44659,-1.33583 9.38219,-0.74104 7.0854,1.43567 -1.00905,0.95626 -18.79347,5.09745 -21.89119,5.09745 -0.61301,0 -1.11456,-0.81734 -1.11456,-1.81632 z m 29.45516,-5.47146 c -0.98214,-1.58982 -0.27563,-1.97596 6.73835,-3.68271 10.61288,-2.58249 13.72857,-2.8168 13.72857,-1.03243 0,1.02033 -2.78996,2.27114 -7.1763,3.21735 -3.94697,0.85139 -8.37412,1.82468 -9.83812,2.16287 -1.46401,0.33799 -3.01763,0.0389 -3.4525,-0.66508 z m 690.67075,-1.48034 c 0,-1.60744 9.92165,-12.45819 11.39138,-12.45819 2.44581,0 0.79158,3.33036 -4.16289,8.38084 -5.25656,5.35842 -7.22849,6.4707 -7.22849,4.07735 z m -663.48867,-3.95931 c -1.14419,-1.85218 0.0262,-2.39961 10.38311,-4.85603 11.78444,-2.79507 14.10302,-2.90783 14.10302,-0.68575 0,1.01271 -1.90609,2.00448 -4.68019,2.43518 -2.57411,0.39963 -7.92039,1.52614 -11.88063,2.50328 -4.35073,1.07353 -7.48732,1.31229 -7.92531,0.60332 z m 29.93803,-6.26767 c -1.14041,-1.84606 1.50364,-3.08848 11.26706,-5.29435 5.16882,-1.16778 9.16278,-1.50961 9.83071,-0.84141 1.55219,1.55289 0.3856,2.09137 -10.66896,4.92452 -6.23675,1.59844 -9.925,2.02678 -10.42881,1.21124 z m 26.21601,-6.23186 c -1.08821,-1.76154 1.09599,-2.88461 9.09144,-4.67471 6.26512,-1.40272 9.40734,-1.14205 7.6329,0.63323 -1.7951,1.79586 -15.99219,5.22667 -16.72434,4.04148 z m 622.31127,-0.22404 c 0,-1.90201 9.24959,-10.75845 11.23604,-10.75845 2.26775,0 1.30071,1.72105 -4.00759,7.13223 -5.51944,5.62639 -7.22845,6.48372 -7.22845,3.62622 z m -562.87141,-2.64266 c 0,-1.0301 0.0106,-2.29432 0.0248,-2.80937 0.0142,-0.51505 1.27694,-0.93644 2.80815,-0.93644 2.08849,0 2.68157,-0.62385 2.37419,-2.49723 -0.22536,-1.37345 -0.54758,-4.21672 -0.71607,-6.31832 -0.4202,-5.24165 -1.61341,-6.79203 -5.22726,-6.79203 -1.6971,0 -3.39534,-0.80737 -3.7738,-1.79411 -0.3785,-0.98674 -1.34369,-1.64067 -2.14494,-1.45322 -0.80121,0.18758 -1.03553,0.10513 -0.52073,-0.18298 0.51481,-0.2881 0.93604,-1.60064 0.93604,-2.91685 0,-2.88954 0.98596,-3.01749 3.77738,-0.49017 2.08158,1.88464 6.20702,1.36088 6.20702,-0.78797 0,-2.95465 4.07668,-0.37078 11.04569,7.00093 4.21994,4.46377 8.42854,8.11593 9.35249,8.11593 2.03645,0 5.81092,3.97091 5.81092,6.11335 0,2.04395 -4.61424,0.57925 -7.9397,-2.52027 -1.38352,-1.28946 -3.78043,-2.34447 -5.32655,-2.34447 -3.60989,0 -5.02859,-2.19175 -1.76067,-2.7201 2.20497,-0.35649 1.92788,-1.01885 -2.47581,-5.91789 -2.72729,-3.03404 -5.30774,-5.16725 -5.73435,-4.7404 -1.61582,1.6165 0.84086,6.86208 3.54504,7.56956 2.21932,0.58063 2.48106,1.05193 1.26174,2.27184 -0.84621,0.84658 -1.53858,3.11248 -1.53858,5.03531 0,3.81546 1.47866,4.29604 6.88777,2.23857 1.81839,-0.69166 3.87397,-0.90643 4.56799,-0.47732 1.40539,0.86899 -8.06385,5.47628 -11.28001,5.48838 -1.12631,0.004 -3.65648,0.84704 -5.62262,1.87289 -4.41231,2.30221 -4.53753,2.302 -4.53753,-0.007 z m -37.44154,-3.63124 c 0,-1.17797 3.30473,-2.50474 10.01284,-4.01987 6.99817,-1.58064 9.82817,-2.74293 9.39954,-3.86041 -0.41517,-1.08244 0.60718,-1.59883 3.16538,-1.59883 4.92874,0 3.64142,-1.98318 -1.97111,-3.03656 -4.72344,-0.88654 -6.0318,-3.20648 -1.80836,-3.20648 1.41548,0 5.48727,0.88798 9.04837,1.97333 15.11567,4.60683 15.61585,5.93657 3.04263,8.08949 -4.97661,0.85213 -13.07877,2.86971 -18.00478,4.48348 -10.34319,3.38848 -12.88451,3.62041 -12.88451,1.17585 z m -19.72874,-7.96873 c -3.58563,-0.56566 -2.89346,-3.41594 0.79995,-3.29412 11.45991,0.37797 12.68853,0.6121 12.68853,2.41809 0,1.84723 -5.19399,2.18457 -13.48848,0.87603 z m 19.72874,-0.95789 c 0,-1.51113 1.16091,-1.85912 5.20723,-1.56075 7.44636,0.54902 7.879,3.50545 0.513,3.50545 -4.34646,0 -5.72023,-0.46705 -5.72023,-1.9447 z m -60.9227,-0.70171 c -4.94904,-1.84762 -1.68788,-3.59663 6.70611,-3.59663 6.26749,0 8.03867,0.40741 8.03867,1.84914 0,2.80537 -9.04093,3.87687 -14.74478,1.74749 z m 19.82921,-0.36396 c -1.99174,-2.40096 -0.44838,-3.05574 5.90821,-2.50661 5.82522,0.50323 7.72814,1.26494 7.72814,3.09347 0,1.91076 -11.99257,1.39469 -13.63635,-0.58686 z m 656.59107,0.60898 c 0.71954,-1.99382 11.10508,-12.58189 12.34123,-12.58189 2.51674,0 0.94564,2.81758 -4.55145,8.16251 -5.32523,5.17784 -8.76848,7.13131 -7.78978,4.41938 z m -719.61235,-1.20946 c -2.69206,-0.41761 -5.12576,-1.46162 -5.40822,-2.32002 -0.37765,-1.14767 1.74379,-1.55572 8.01478,-1.54167 8.87187,0.0213 12.57567,1.2157 11.11069,3.58714 -0.89968,1.45634 -5.50464,1.5485 -13.71725,0.27464 z m 19.86582,-0.14369 c -1.17351,-1.89964 2.06586,-2.67267 9.41651,-2.24717 3.8894,0.22511 6.82935,1.02649 7.13153,1.94382 0.63946,1.94127 -15.35507,2.23446 -16.54804,0.3033 z m -44.63865,-1.32366 c -3.82685,-2.28232 -1.05105,-3.66196 7.36771,-3.66196 7.06919,0 8.07601,0.28527 7.71498,2.18505 -0.3195,1.68141 -1.85086,2.25535 -6.64379,2.49008 -3.4257,0.16778 -7.22321,-0.2881 -8.4389,-1.01317 z m 134.81582,-4.04326 c -3.38737,-1.33179 -4.32138,-2.72821 -2.49608,-3.73187 1.75751,-0.96638 9.21926,1.72735 8.74314,3.15634 -0.66373,1.99205 -2.26814,2.13989 -6.24706,0.57553 z m -10.04524,-2.90518 c -1.70654,-1.70728 -0.83971,-3.12468 1.67035,-2.73125 1.40005,0.21944 2.55296,0.96086 2.56202,1.64757 0.0202,1.5197 -3.01883,2.29779 -4.23237,1.08368 z m -16.44568,-4.94972 c -6.28189,-2.30055 -7.97084,-3.91503 -5.20598,-4.97648 2.1663,-0.83165 15.72486,4.3578 15.76296,6.03315 0.0333,1.45769 -5.09204,0.94469 -10.55698,-1.05667 z m 652.91884,-1.32659 c -0.85348,-0.85387 6.30744,-7.91772 8.02644,-7.91772 1.94145,0 1.21401,1.97372 -1.69207,4.59101 -3.71608,3.34689 -5.41981,4.24167 -6.33437,3.32671 z m -675.32371,-5.20856 c -7.47874,-2.53538 -9.57548,-5.95872 -2.99532,-4.89044 5.87863,0.95443 13.51354,4.26706 13.51354,5.86331 0,1.79661 -3.23049,1.49782 -10.51822,-0.97287 z m -16.93892,-5.19471 c -1.02964,-0.65928 -4.84624,-1.86956 -8.48131,-2.68956 -6.80822,-1.5358 -8.8398,-2.96775 -6.92635,-4.88205 1.1833,-1.18381 15.99139,2.95667 18.74194,5.24044 0.89676,0.74458 1.32268,1.85197 0.9465,2.46088 -0.86888,1.40651 -1.93172,1.3743 -4.28078,-0.12989 z m 703.90129,-2.19681 c 4e-5,-1.28256 8.28779,-7.80379 9.91769,-7.80379 2.3975,0 1.3667,1.8314 -2.9868,5.30656 -4.22497,3.37262 -6.93096,4.3476 -6.93089,2.49723 z m -734.47856,-6.57196 c -4.89634,-1.35058 -7.62798,-2.78561 -7.89183,-4.1459 -0.51172,-2.63809 2.3017,-2.67961 10.78544,-0.15927 3.80281,1.12984 6.46678,2.64256 6.46678,3.67213 0,2.75008 -1.35298,2.84153 -9.36039,0.63287 z m -23.11558,-7.25951 c -7.25058,-2.68325 -8.93659,-3.83241 -7.95471,-5.42187 1.65038,-2.67154 16.7177,2.71186 16.7177,5.97306 0,2.1761 -1.67884,2.07049 -8.76299,-0.55119 z m 122.3357,1.03325 c 0,-0.68674 0.56162,-1.24862 1.24806,-1.24862 0.68645,0 1.24806,0.56188 1.24806,1.24862 0,0.68674 -0.56161,1.24862 -1.24806,1.24862 -0.68644,0 -1.24806,-0.56188 -1.24806,-1.24862 z m 648.98693,0.24491 c 0,-1.21711 7.8741,-8.98519 9.1078,-8.98519 1.7295,0 0.8211,2.37169 -2.3544,6.14723 -3.0041,3.57178 -6.7534,5.14732 -6.7534,2.83796 z m -793.44893,-8.5635 c -4.79233,-1.69709 -6.49853,-3.80506 -4.60952,-5.6949 0.38207,-0.38225 3.471,0.19325 6.86427,1.27884 4.39354,1.40562 6.1696,2.62408 6.1696,4.23272 0,2.6679 -1.32692,2.69678 -8.42435,0.18333 z m 689.37119,1.16965 c -2.15118,-2.15214 0.54963,-4.05115 8.65686,-6.08685 4.26047,-1.0698 3.96248,1.69727 -0.36709,3.40805 -1.88766,0.74589 -4.3544,1.82454 -5.48167,2.39696 -1.12727,0.57242 -2.39088,0.69924 -2.8081,0.28173 z m 16.16088,-6.30689 c -1.51349,-1.51414 -0.48367,-2.58943 4.32265,-4.51343 5.48132,-2.19415 8.71115,-2.56777 8.71115,-1.00765 0,1.2987 -12.12183,6.43349 -13.0338,5.52108 z m 102.79896,-2.59923 c 1.4878,-2.78116 7.4969,-6.92207 8.5362,-5.88231 1.0317,1.03211 -6.0448,8.20267 -8.095,8.20267 -1.253,0 -1.3657,-0.59231 -0.4412,-2.32036 z m -84.77296,-4.9487 c 0,-0.97701 9.94791,-5.89123 13.57257,-6.70475 0.94379,-0.212 1.94584,0.23432 2.22672,0.99141 0.28098,0.7571 -2.39156,2.5832 -5.93869,4.05798 -6.81739,2.83442 -9.8606,3.34533 -9.8606,1.65536 z m -779.71922,-8.09218 c -5.94666,-2.49044 -8.86806,-5.90574 -4.99339,-5.83764 2.39685,0.0421 11.75194,4.53116 12.7248,6.10596 0.47533,0.76946 1.38705,1.07571 2.02605,0.68062 0.63899,-0.3951 1.16181,-0.12317 1.16181,0.60395 0,2.00611 -3.66591,1.48476 -10.91927,-1.55289 z m 28.62384,1.55799 c -3.54574,-1.42268 -2.45494,-3.67725 1.77912,-3.67725 2.96694,0 3.09414,-0.30264 2.73445,-6.50442 -0.32577,-5.61683 -0.77049,-6.59659 -3.25901,-7.17952 -5.60947,-1.31399 -3.27696,-3.17616 4.43909,-3.54393 6.91981,-0.32988 8.14911,-0.0213 10.92045,2.75263 4.9148,4.91698 3.43363,17.1757 -2.25984,18.70322 -3.95265,1.06049 -11.01388,0.78955 -14.35426,-0.55073 z m 14.66237,-5.33332 c 1.68713,-4.43945 -0.14751,-11.38329 -3.12232,-11.81743 -2.18048,-0.31819 -2.52273,0.42922 -2.76685,6.04212 -0.15321,3.5229 0.0376,6.91707 0.42406,7.54262 1.31563,2.12967 4.35804,1.14583 5.46511,-1.76731 z m 832.53297,5.02253 c 0,-2.06278 8.4334,-10.32877 9.475,-9.28678 0.8427,0.84314 -7.0063,10.85539 -8.5389,10.89223 -0.5149,0.0142 -0.9361,-0.71006 -0.9361,-1.60545 z m -74.36166,-1.03533 c -0.42428,-0.68675 -0.42889,-1.59126 -0.0106,-2.01001 1.59587,-1.5966 18.25557,-6.25146 18.86176,-5.27017 0.87088,1.40972 -1.20671,2.57637 -10.30205,5.78497 -4.87308,1.7191 -8.06606,2.27751 -8.54937,1.49521 z m -817.42268,-6.16001 c -1.14864,-1.85937 0.18312,-2.87028 2.57269,-1.95292 1.10276,0.42335 1.65545,1.33558 1.22824,2.02717 -1.01165,1.6376 -2.76458,1.60333 -3.80093,-0.0743 z m 840.61426,-2.34249 c 0,-1.41748 5.98475,-4.40863 12.77564,-6.38525 5.89704,-1.71642 5.16864,1.20568 -0.95506,3.83178 -8.163,3.50064 -11.82058,4.29073 -11.82058,2.55347 z m -856.1636,-2.23036 c -2.24009,-0.85313 -3.78911,-3.00138 -3.03931,-4.21513 0.64954,-1.05148 11.80718,2.16007 13.54502,3.89871 1.33102,1.33161 -7.16785,1.58758 -10.50571,0.31642 z m 918.67178,-2.52357 c 0.2116,-1.87377 9.8565,-9.26774 11.4059,-8.74381 2.0688,0.69955 -6.7582,9.68026 -9.5146,9.68026 -1.0983,0 -1.9494,-0.4214 -1.8913,-0.93645 z m -935.52048,-2.3668 c -6.20294,-1.39224 -11.85649,-4.67054 -11.85649,-6.87525 0,-2.84008 1.034554,-2.78384 11.23246,0.61079 10.4889,3.49144 10.99703,8.59261 0.62403,6.26446 z m 895.47718,-0.82021 c 0,-1.54582 9.9912,-5.88468 13.5206,-5.87159 3.7076,0.0142 0.3473,2.86564 -6.0205,5.10903 -8.057,2.83864 -7.5001,2.78201 -7.5001,0.76256 z m 19.3434,-7.11634 c -0.7264,-1.17585 1.1737,-2.21954 7.8018,-4.28522 4.5827,-1.42823 3.3024,1.71115 -1.52,3.72695 -5.145,2.15069 -5.2901,2.16358 -6.2818,0.55827 z M 85.592855,115.40489 c -0.368497,-0.59652 -2.856019,-1.43433 -5.527793,-1.86174 -5.349837,-0.85585 -9.236302,-4.04736 -6.25855,-5.13943 2.205138,-0.80875 17.67647,4.84177 18.288789,6.67947 0.547544,1.64347 -5.501044,1.94269 -6.502446,0.32174 z M 1059.596,112.96131 c 0,-1.69156 6.1605,-6.95671 7.0723,-6.04448 0.4631,0.46323 -0.4751,2.24473 -2.0847,3.95885 -2.9476,3.13902 -4.9876,3.99204 -4.9876,2.08563 z m -18.7208,-3.98365 c 0,-0.69786 1.9713,-2.2093 4.3807,-3.35875 3.3385,-1.59271 4.7272,-1.74324 5.8372,-0.63276 1.11,1.11051 0.3742,1.90959 -3.0925,3.35874 -5.3204,2.22396 -7.1254,2.38426 -7.1254,0.63277 z M 56.474338,106.34831 c -5.852948,-2.25051 -8.681796,-4.8421 -5.285384,-4.8421 3.989668,0 16.205852,4.38976 16.205852,5.82345 0,2.28335 -3.170951,1.99843 -10.920468,-0.98135 z M 1084.8916,103.14664 c 0.5757,-5.10985 0.2803,-6.14968 -2.3337,-8.20657 -1.6462,-1.29544 -2.9931,-3.1574 -2.9931,-4.13766 0,-0.98026 -0.8424,-1.78228 -1.872,-1.78228 -1.0296,0 -1.8721,-0.48535 -1.8721,-1.07858 0,-0.59324 -2.8081,-0.8704 -6.2402,-0.61596 -4.7057,0.34899 -6.2403,0.0375 -6.2403,-1.26574 0,-2.68935 2.9239,-4.56567 5.0341,-3.23045 2.6116,1.65253 3.7022,1.46615 3.7022,-0.63269 0,-3.06304 4.4455,-4.47124 17.8039,-5.6398 12.9156,-1.12979 16.3341,-0.48205 12.8262,2.43045 -1.0586,0.87907 -1.9249,2.38347 -1.9249,3.34314 0,2.69847 -5.8914,11.39786 -9.1779,13.55217 -2.2524,1.47648 -2.8018,2.73366 -2.3329,5.33817 0.3373,1.8738 1.0947,4.02046 1.6831,4.77038 1.4529,1.85193 0.052,3.00661 -3.6472,3.00661 -2.9235,0 -3.042,-0.28704 -2.4152,-5.85119 z m 9.4151,-14.07597 c 1.502,-2.03237 2.7309,-3.94546 2.7309,-4.2513 0,-0.56056 -10.2546,0.50273 -11.0202,1.14269 -0.629,0.52577 3.6975,6.80388 4.6887,6.80388 0.4784,0 2.0987,-1.66286 3.6006,-3.69527 z m -5.0708,-6.8797 c 3.6029,-0.49303 6.8184,-1.32966 7.1456,-1.85915 0.8587,-1.39016 -17.1437,0.0283 -18.987,1.49694 -2.3581,1.87766 -0.5952,3.48549 2.5266,2.30437 1.5201,-0.57515 5.7118,-1.44912 9.3148,-1.94216 z m -33.384,20.56382 c 0,-0.6867 0.8424,-1.24858 1.872,-1.24858 1.0297,0 1.8721,0.56188 1.8721,1.24858 0,0.68675 -0.8424,1.24862 -1.8721,1.24862 -1.0296,0 -1.872,-0.56187 -1.872,-1.24862 z m 15.6914,-1.10169 c -0.4156,-0.67262 -0.1846,-1.57587 0.5129,-2.00721 0.6976,-0.43138 1.2684,-1.5369 1.2684,-2.45677 0,-1.15582 -2.7175,-1.94552 -8.7962,-2.55627 -5.7823,-0.58095 -8.6153,-1.37302 -8.2683,-2.31177 0.2905,-0.78542 1.2621,-1.25339 2.1596,-1.03994 0.8975,0.21342 5.3203,0.68335 9.8284,1.04426 9.2734,0.74234 10.8531,1.63561 9.0044,5.09147 -1.8885,3.5302 -4.8074,5.69603 -5.7092,4.23623 z m -34.1045,-10.43492 c 0.5717,-1.71613 9.0335,-1.45234 12.1728,0.37946 1.2264,0.71558 -0.6391,1.10548 -5.4082,1.13033 -5.2496,0.0283 -7.1365,-0.39372 -6.7646,-1.50979 z m -17.1564,-0.56325 c -5.964,-1.5019 -4.7117,-3.00566 2.1984,-2.6398 3.9549,0.20955 7.3246,0.94257 7.4883,1.62931 0.3271,1.37175 -5.7393,2.00459 -9.6867,1.01049 z m -20.90492,-2.4955 c -4.50617,-1.17811 -1.97908,-3.00856 3.64662,-2.64139 6.7959,0.44356 9.3224,3.58789 2.6977,3.35726 -2.2881,-0.0796 -5.143,-0.40182 -6.34432,-0.71587 z M 3.6754091,83.03992 c -1.0419839,-3.4794 -1.0528803,-6.08447 -0.041038,-9.84341 1.6101877,-5.98248 4.0984176,-8.45376 7.5915559,-7.53987 1.85861,0.48624 2.502735,0.0421 2.502735,-1.72554 0,-2.88207 1.93584,-3.14479 2.986598,-0.40529 1.098941,2.86507 0.899198,5.87183 -0.532437,8.01381 -1.094803,1.63809 -1.409524,1.60542 -2.509988,-0.26015 -0.749904,-1.27137 -2.063412,-1.82408 -3.251224,-1.3681 -1.644079,0.63117 -1.8859572,2.26158 -1.3816815,9.31273 0.5483568,7.66749 0.3765972,8.54755 -1.6680652,8.54755 -1.556838,0 -2.7285168,-1.49984 -3.6963487,-4.73159 z M 973.79246,85.696 c -0.85808,-0.3465 -1.56008,-1.15015 -1.56008,-1.78617 0,-0.94462 6.81704,-0.94844 18.40876,-0.0106 0.85801,0.0694 1.56004,0.68812 1.56004,1.37486 0,1.26267 -15.44885,1.61653 -18.40872,0.42168 z m -17.54464,-1.31232 c -5.51768,-1.05473 -2.10756,-3.49657 4.25005,-3.04332 6.83291,0.48716 7.34322,0.70242 6.16957,2.60228 -0.81716,1.32276 -4.90241,1.4957 -10.41962,0.44104 z m -14.2807,-1.2523 c -4.40529,-0.66763 -4.5978,-4.1001 -0.22996,-4.1001 4.01439,0 8.33928,2.2356 7.3676,3.80846 -0.74318,1.20303 -1.04308,1.21527 -7.1376,0.29165 z m -18.22698,-3.64494 c -1.12741,-0.82477 -1.64098,-1.9087 -1.1412,-2.40874 1.29834,-1.29895 11.17201,1.0783 10.70699,2.57789 -0.54294,1.75082 -7.09972,1.6349 -9.56579,-0.16919 z m -17.03052,-1.55162 c -2.05926,-0.44054 -3.62593,-1.35734 -3.48155,-2.03732 0.65304,-3.07479 14.09,-1.81838 14.09,1.31745 0,1.92549 -3.77536,2.18166 -10.60845,0.71987 z m -16.75173,-2.52476 c -7.58459,-1.02914 -8.57196,-4.19687 -1.17216,-3.76047 6.2449,0.36827 10.21472,1.97313 9.14886,3.69849 -0.40291,0.65231 -1.12068,1.10159 -1.59499,0.99845 -0.47434,-0.103 -3.34612,-0.52456 -6.38171,-0.93647 z M 870.19638,73.2073 c -2.80152,-1.12994 -0.26717,-2.91629 4.13759,-2.91629 2.9853,0 4.29452,0.57097 4.29452,1.87292 0,1.85045 -4.92133,2.45943 -8.43211,1.04337 z m -31.19351,-2.54887 c -1.54449,-0.29767 -2.80814,-1.3703 -2.80814,-2.38376 0,-1.43521 1.03483,-1.67057 4.68021,-1.06446 6.79997,1.13061 8.05058,1.66555 7.18172,3.07199 -0.77885,1.26082 -3.80966,1.38675 -9.05379,0.37623 z m -18.94028,-1.46278 c -1.66518,-0.46553 -3.28164,-1.60881 -3.59206,-2.54062 -0.44526,-1.33625 0.91931,-1.57109 6.45831,-1.11157 7.49246,0.62161 9.01102,1.29519 7.70099,3.41587 -0.89979,1.45655 -5.80996,1.56634 -10.56724,0.23641 z m -20.6854,-2.65045 c -1.47955,-2.39505 0.53695,-3.30088 5.76446,-2.58943 7.44644,1.01342 7.92737,3.83804 0.65346,3.83804 -3.1056,0 -5.99368,-0.56187 -6.41792,-1.24861 z m -14.34214,-1.18533 c -1.30486,-0.84662 -1.46817,-1.60156 -0.54606,-2.5241 1.67645,-1.67723 9.52788,-0.18829 8.91245,1.69019 -0.60013,1.83183 -5.999,2.36996 -8.36639,0.83391 z m -15.92312,-1.50582 c -6.55884,-1.48586 -6.92458,-3.5578 -0.62402,-3.53483 6.34663,0.0248 10.49616,1.25612 9.93203,2.95129 -0.62447,1.8765 -2.9555,2.02264 -9.30801,0.58354 z m -17.1607,-1.98339 c -5.72903,-0.55861 -8.32868,-2.33329 -5.18559,-3.53996 3.11081,-1.19425 13.53139,0.64647 12.98267,2.29329 -0.57189,1.71645 -1.48393,1.86227 -7.79708,1.24667 z M 730.54101,58.3754 c -0.40649,-1.05972 -0.47363,-2.19231 -0.14953,-2.51687 1.09549,-1.096 10.13932,1.38308 10.65122,2.91969 0.80157,2.40566 -9.57749,2.00756 -10.50201,-0.40282 z m -11.35112,-0.33023 c -3.63289,-0.26299 -5.30423,-0.95613 -5.30423,-2.19982 0,-1.43139 1.12298,-1.64379 5.30423,-1.00306 5.90548,0.90498 6.38011,1.11745 5.74621,2.57234 -0.24307,0.55798 -2.8289,0.84173 -5.74621,0.63054 z M 838.0668,56.55623 c 0.42424,-0.68674 1.29983,-1.24862 1.94574,-1.24862 0.64591,0 1.17439,0.56188 1.17439,1.24862 0,0.6867 -0.87558,1.24858 -1.94573,1.24858 -1.07015,0 -1.59864,-0.56188 -1.1744,-1.24858 z m 5.61625,-0.69442 c 0,-1.03463 0.84242,-2.2046 1.87204,-2.59988 1.89992,-0.72939 2.51256,-6.06918 1.11454,-9.71398 -0.41662,-1.08626 -2.1015,-1.97503 -3.74417,-1.97503 -3.26693,0 -4.0337,-1.82805 -1.21989,-2.9083 0.97171,-0.37301 4.90315,-0.5201 8.73662,-0.32669 7.62332,0.38431 11.96164,3.07482 11.96164,7.41829 0,3.46545 -6.06129,9.55153 -9.51268,9.55153 -1.54293,0 -4.24595,0.54796 -6.00672,1.21767 -2.55848,0.97319 -3.20138,0.83993 -3.20138,-0.66348 z m 14.97664,-9.41074 c 0,-2.35947 -0.79101,-3.71243 -2.48496,-4.25031 -3.68369,-1.16965 -5.03125,0.26759 -4.44618,4.74169 0.28737,2.19726 0.56031,4.40441 0.60662,4.90473 0.0464,0.50032 1.48833,0.26968 3.20435,-0.51257 2.2359,-1.01919 3.12017,-2.40319 3.12017,-4.88354 z m -176.35822,0.51848 c -2.38057,-0.64674 -4.60934,-5.13412 -4.60934,-9.28048 0,-3.32239 5.45853,-8.60223 8.89338,-8.60223 1.5216,0 3.79364,-0.92986 5.04896,-2.06642 2.13591,-1.93384 2.27289,-1.91381 2.1347,0.31217 -0.0815,1.30822 -0.52572,4.06418 -0.98783,6.1244 -0.81915,3.65234 -0.8774,3.67849 -2.33207,1.04907 -1.9925,-3.60144 -5.86569,-2.51479 -7.81458,2.19245 -1.98319,4.78992 0.0914,7.37164 5.92271,7.37164 2.89661,0 4.15066,0.51409 3.80724,1.56075 -0.53617,1.63401 -6.20181,2.38769 -10.06317,1.33865 z m 186.0306,-11.11309 c -1.31585,-1.32531 -1.13184,-9.52087 0.26326,-11.72788 2.03251,-3.21529 2.80003,-0.43905 1.7195,6.2199 -0.57568,3.54792 -1.46792,6.02653 -1.98276,5.50798 z M 698.05151,32.8327 c 0.45287,-1.71684 0.83112,-4.96526 0.84051,-7.2187 0.0106,-2.52891 0.75415,-4.38014 1.94293,-4.8365 1.05924,-0.40668 2.14282,-0.52238 2.40796,-0.25696 1.09361,1.09412 -2.15564,12.26891 -4.0095,13.78924 -1.7692,1.45096 -1.90835,1.27707 -1.1819,-1.47694 z M 193.22325,26.90179 c -1.02282,-1.20175 -3.14447,-4.32952 -4.71479,-6.95052 -3.49687,-5.83665 -2.94209,-13.3033194 1.32618,-17.8487294 3.71695,-3.95827 5.39638,-2.16987006 3.79236,4.03842 -1.49803,5.7980294 -1.13871,9.4906594 1.55002,15.9285394 1.10834,2.65382 2.01516,5.31839 2.01516,5.92125 0,1.793 -1.97801,1.25031 -3.96893,-1.08896 z m 21.44166,1.3291 c 0,-0.4708 1.17015,-2.10209 2.60032,-3.62515 5.21261,-5.55103 5.08332,-13.24453 -0.34859,-20.7432794 -0.84667,-1.16885 -1.13585,-2.52893 -0.6426,-3.02240006 1.16037,-1.16089 6.8556,4.16919006 9.13198,8.54650006 2.42221,4.6576894 0.47528,13.1331494 -3.88004,16.8909194 -3.1181,2.69031 -6.86107,3.75597 -6.86107,1.95341 z m 569.11163,0.23466 c 0,-1.58531 3.66913,-7.75095 5.53394,-9.29928 2.81267,-2.33534 2.59798,-8.80858 -0.29233,-8.80858 -1.23558,0 -2.92046,0.67424 -3.74414,1.49832 -1.1649,1.16537 -1.49772,0.33295 -1.49772,-3.7458194 0,-3.82906 0.50517,-5.24415 1.87211,-5.24415 1.02961,0 1.87207,0.62741 1.87207,1.39424 0,0.80317 1.11493,1.10253 2.63002,0.70615 1.44652,-0.37844 3.97385,-0.17693 5.61624,0.44777 4.55741,1.73348 3.94813,7.1154994 -1.53031,13.5186894 -4.95585,5.79234 -4.98629,7.11252 -0.12154,5.26207 2.42167,-0.92112 3.56563,-0.77094 4.71912,0.61956 0.83742,1.00947 1.18619,2.1719 0.7751,2.58317 -1.01342,1.01392 -15.83292,2.0134 -15.83292,1.06786 z M 206.91416,25.02883 c -2.00856,-3.53047 -1.96194,-21.6854694 0.0609,-23.7091994 2.67929,-2.68049 3.7923,0.74342 3.95269,12.1595694 0.0868,6.1806 0.12083,11.93981 0.0755,12.79821 -0.13139,2.48768 -2.34854,1.81067 -4.08903,-1.24858 z m 606.417,1.92559 c -0.41574,-0.67294 -0.1963,-3.25062 0.48741,-5.72817 0.95273,-3.45201 0.79597,-5.57562 -0.67082,-9.08771 -2.22732,-5.3330694 -2.37589,-6.7752794 -0.69806,-6.7752794 1.79015,0 4.85025,6.5217094 5.65069,12.0428594 0.52146,3.5968 0.10275,5.56631 -1.65781,7.79257 -1.29558,1.63854 -2.69571,2.42863 -3.11141,1.75573 z m -44.31469,-3.79851 c -3.41625,-6.66907 -2.33848,-13.4401894 2.82129,-17.7243294 2.42624,-2.01448 2.46359,-0.5776 0.15555,5.9680494 -1.29887,3.68311 -1.47242,6.24168 -0.62405,9.20115 1.43383,5.00175 1.43543,4.74019 -0.0284,4.74019 -0.66231,0 -1.70783,-0.98327 -2.32348,-2.18506 z"/>
</svg>
