<?xml version="1.0" encoding="utf-8"?>
<svg xmlns="http://www.w3.org/2000/svg" height="742.66669" viewBox="0 0 741.33331 742.66669" width="741.33331">
	<title>A map of a pentagonal house. The corners are marked A, B, R, O and F. The edge between R and A has the men’s door, and the edge between F and B has a smaller women’s door.</title>
	<path d="m511.13436 739.29565c-.43008-1.12073 1.08876-9.79133 3.37517-19.26801 2.28641-9.47667 4.15712-18.09323 4.15712-19.14791 0-1.05469 1.12116-3.30219 2.49147-4.99444l2.49146-3.07684 1.82927 2.92912c1.90307 3.04731 5.76132 3.90389 7.1878 1.59579 1.31377-2.12572 5.39303-1.54735 7.79335 1.10498 2.47002 2.72935 2.9658 10.93587.792 13.10967-.99732.99732-.60398 2.85801 1.33333 6.30723 3.58587 6.38434 3.48108 12.6626-.30512 18.28094-2.84781 4.22586-3.54267 4.53051-10.33333 4.53051h-7.28023v-6.33333c0-7.168 1.81328-8.43122 4.44765-3.09847 1.644 3.32795 2.00295 3.45875 4.66667 1.70055 6.15647-4.06359 3.00257-15.73158-3.20449-11.8552-3.13242 1.95622-6.5765 2.06081-6.5765.1997 0-.7627 2.4-3.6698 5.33334-6.46021 3.60892-3.43309 5.33333-6.21799 5.33333-8.61325 0-3.81683-1.66589-4.36122-7.06469-2.30859-3.65979 1.39144-4.85815 3.76453-5.77467 11.43547-2.14927 17.98849-3.19373 22.72664-5.35879 24.30977-3.0367 2.22049-4.38237 2.13284-5.33414-.34748zm-33.13438-42.69021c-11.73333-2.51463-24.03333-5.15184-27.33333-5.86048-3.3-.70866-10.5-2.54153-16-4.07306s-14.2-3.90007-19.33333-5.26341-15.33333-4.10806-22.66667-6.09936c-7.33333-1.99131-16.03333-4.1892-19.33333-4.88422-3.3-.695-9.3-2.25517-13.33333-3.46705-4.03333-1.21187-8.23333-2.26117-9.33333-2.33179-1.1-.0707-5.46711-1.74036-9.70468-3.71056-4.23759-1.97018-8.76759-3.58216-10.06667-3.58216-1.29909 0-2.93199-.54577-3.62865-1.21282-3.46478-3.31752-60.13296-17.09668-64.08109-15.58164-1.20463.46226-2.86419.29514-3.68791-.37136-.82372-.66651-5.09767-1.93291-9.49767-2.81424-4.4-.88132-13.1-2.97679-19.33333-4.65659s-14.03333-3.69155-17.33333-4.47057c-29.60515-6.98876-42.01203-9.669-50-10.80144-5.13333-.72775-13.23333-2.21458-18-3.30406s-12.57552-2.87349-17.35301-3.96449c-4.77749-1.09099-10.17749-2.54065-12-3.22147s-6.1378-1.65252-9.58953-2.15933-7.543237-1.94773-9.092241-3.20204c-3.052864-2.47205-7.965218-17.97185-7.965218-25.1324 0-2.35592-.53327-4.61308-1.185044-5.0159-.651775-.40282-1.263486-9.20182-1.359356-19.55334s-.77389-21.49638-1.506707-24.76636c-.732819-3.26998-1.018871-6.45271-.635673-7.07274.383197-.62002 5.803393-1.5527 12.044879-2.07262 6.24149-.51991 11.63155-1.40383 11.97791-1.96426.34636-.56042-.25605-3.93872-1.3387-7.5073-2.51506-8.29011-2.50084-8.48836.60894-8.48836 1.97754 0 2.80332 1.20614 3.42319 5 2.11794 12.96258 1.73989 12.33333 7.40983 12.33333 4.10412 0 5.2274.50508 5.2274 2.35049 0 1.29278-1.35 2.9444-3 3.67028-2.66279 1.17143-2.95053 2.11951-2.5599 8.4345.38964 6.29894.16033 7.06093-2 6.64557-1.7531-.33705-2.65485-2.07331-3.20285-6.16679-1.07605-8.03804-3.28582-9.81717-10.89752-8.77388l-6.207688.85086-.399356 6.16116c-.219645 3.38862.02063 9.16114.533951 12.82781.513317 3.66667 1.614623 13.26667 2.447343 21.33333 3.0542 29.58645 2.94098 29.15725 8.61711 32.66529 2.5679 1.58705 4.66891 3.37952 4.66891 3.98325 0 .60375 2.25.80332 5 .44351 2.98549-.39064 9.029.49076 15 2.18764 10.85584 3.08506 32.19109 7.57982 44.20005 9.31174 4.14337.59755 8.18133 1.48691 8.97326 1.97635.79194.48944 6.70191 1.80495 13.13328 2.92335 6.43138 1.1184 15.8934 3.24585 21.02674 4.72768 5.13333 1.48181 11.73333 3.23009 14.66666 3.88508 2.93334.65497 7.73334 1.82044 10.66667 2.58993s6.53333 1.60891 8 1.86537 5.36667 1.14082 8.66667 1.96523c3.3.82443 15.59999 3.61723 27.33333 6.20624 11.73333 2.589 25.83333 6.15915 31.33333 7.93364 23.0492 7.43651 27.21409 8.66904 29.29383 8.66904 1.2027 0 6.35361 1.39892 11.44645 3.10872 7.06617 2.37229 9.67177 3.95157 10.99914 6.66667 1.82626 3.73556 4.26058 4.77806 4.26058 1.82461 0-.95333-.72-2.45333-1.6-3.33333-2.26126-2.26126-.0527-2.02498 8.46542.90568 4.00559 1.37813 9.94952 2.93422 13.20874 3.458 3.25921.52377 11.02584 2.36066 17.25917 4.08198 22.99165 6.3491 60.90661 15.39611 72.33333 17.25971 4.55785.74335 5.00225.54483 5.02548-2.24496.014-1.68323 3.26103-8.16041 7.21559-14.39375 3.95457-6.23333 10.62641-17.33333 14.82634-24.66666 4.19992-7.33334 10.38908-17.53334 13.75368-22.66667 3.36462-5.13333 6.77235-10.53333 7.57276-12 .80042-1.46667 3.96424-6.63151 7.03072-11.47741 3.06648-4.84592 5.57543-9.25956 5.57543-9.80811 0-1.81732-7.13524-6.70045-11.06635-7.57345-3.91709-.86988-4.57118-.44575-9.54966 6.1923-1.71571 2.28764-2.185 2.38432-3.30166.68019-.92458-1.411-.49317-3.34231 1.4892-6.66667 1.53499-2.57411 3.95576-6.73107 5.37948-9.23771 4.24436-7.47268 9.24008-13.44248 11.24908-13.44248 3.24092 0 3.61568 3.98127.66991 7.1169-1.54039 1.63966-2.96629 4.38858-3.16868 6.1087-.31369 2.66608 1.07483 3.8656 9.41141 8.13035 12.10344 6.19176 13.44855 7.41247 10.62139 9.63906-1.84343 1.45184-7.74977 10.59705-15.71867 24.33833-7.17877 12.3788-8.8052 15.02805-11.45988 18.66667-9.19045 12.59685-31.97716 55.69983-30.613 57.90709.48482.78443 2.2726 1.42624 3.97286 1.42624 3.13745 0 7.09978 3.31204 5.14932 4.30422-3.01336 1.53286-12.45622.43214-31.73142-3.6988zm-390.774011-28.80447c.516164-3.92386 1.501478-7.70428 2.189587-8.40095s1.251108-3.84667 1.251108-7c0-5.42609-.205427-5.73333-3.833333-5.73333-9.25334 0-12.329377 1.49466-14.802601 7.19266-2.838679 6.53995-6.992905 10.61934-13.644267 13.39846-7.191145 3.00465-7.632645.4413-1.446202-8.39668 2.898126-4.14028 9.360762-13.52778 14.361413-20.86111 5.00065-7.33333 11.483781-16.21249 14.406957-19.73147l5.314865-6.39814 2.975525 2.79536c4.723557 4.43756 6.162189 21.85986 3.175313 38.45414-2.236108 12.42323-5.537106 20.78507-8.424854 21.34119-2.236516.43072-2.376041-.17923-1.523511-6.66013zm6.417221-32.25666c1.763404-2.77132 1.076099-8.72664-1.495098-12.95464l-2.518572-4.14145-4.181235 8.8496c-2.29968 4.86728-3.79761 9.47032-3.328734 10.22897 1.066996 1.72644 10.158905.1623 11.523639-1.98248zm400.60457-58.25428c-1.89486-1.49049-6.92578-4.24148-11.17982-6.11332s-9.53462-4.22325-11.73462-5.22535-10.9-4.59221-19.33333-7.97801c-8.43334-3.3858-19.23334-7.99173-24-10.23541-4.76667-2.24367-13.16667-6.0295-18.66667-8.41296-42.0533-18.22408-52.14638-22.72738-68.38496-30.51171-10.11172-4.84729-18.81585-8.81325-19.3425-8.81325-.52664 0-6.35342-2.17112-12.94838-4.82472-6.59494-2.65359-13.79082-5.52768-15.99082-6.38686-2.2-.85917-6.4-2.8155-9.33334-4.34741-8.09904-4.22963-24.71741-10.60744-30.33333-11.64134-5.02069-.92432-5.99548-2.49534-3.75001-6.0438 1.29384-2.04462 6.61464-.18413 29.41668 10.28598 17.29353 7.94075 21.49282 9.72803 41.9922 17.87248 17.48996 6.94883 31.42074 13.26133 38.0078 17.22261 1.1.66152 3.2 1.73434 4.66666 2.38404 1.46667.64971 6.7317 3.04827 11.70005 5.33015 4.96838 2.28188 9.33498 4.14887 9.70356 4.14887.6625 0 22.534 9.80578 39.20124 17.57533 4.73268 2.20617 12.83268 5.52925 18 7.38464 9.2866 3.33445 12.4824 4.65484 30.72848 12.69587 11.64935 5.13386 27.45756 12.96553 29.66667 14.6974.91666.71864 1.66666 1.83314 1.66666 2.47668 0 2.17877-6.2867 1.18608-9.75222-1.53991zm12.92818-16.21132c-.53978-.87339-.2828-1.82085.57108-2.10548 3.60502-1.20168 9.5863-7.78833 9.5863-10.55655 0-4.88502-4.40995-6.27101-11.96684-3.76101-3.57203 1.18644-7.21424 3.02428-8.0938 4.08408-1.65136 1.98977-8.91539 2.52165-14.39663 1.05415-2.75253-.73695-3.03016-1.40851-2.33511-5.64847.43386-2.64664.88963-5.56208 1.01283-6.47875.1232-.91666 1.25752-1.66666 2.52072-1.66666s3.69375-1.13123 5.4012-2.51384c2.66148-2.15515 2.84952-2.82104 1.31779-4.66667-1.55243-1.87056-1.40219-2.15283 1.14581-2.15283 3.3132 0 10.72736 6.7573 10.72736 9.77696 0 1.48284 1.55988 1.95851 6.19295 1.88847 5.41081-.0819 6.63394.44672 9.68482 4.18481l3.4919 4.27844 5.52712-4.731c3.03992-2.60205 6.49144-4.73101 7.67006-4.73101 2.70307 0 6.77519 8.31684 5.58751 11.41187-.81331 2.11946-1.16837 2.05998-4.09045-.68516-3.72851-3.50276-3.60316-3.55735-15.76482 6.86466-9.0908 7.79044-11.98121 9.08035-13.7898 6.15399zm-13.78864-17.32944c4.69063-3.46792 5.1096-7.40475.95175-8.94284-2.53917-.93929-3.44477-.37548-5.95839 3.70964-1.63026 2.64951-2.98285 5.56728-3.00573 6.48395-.064 2.56122 3.63804 1.98334 8.01237-1.25075zm49.99562 10.99767c-.42595-.6892 1.15414-3.9892 3.5113-7.33334 6.84871-9.71632 10.50722-7.33464 5.07867 3.3062-2.59749 5.09151-6.73371 7.03064-8.58997 4.02714zm40.56175-11.29346c-5.63059-3.32305-14.89742-10.23576-16.2225-12.1014-.60692-.8545-1.53616-.73809-2.6.32575-2.49755 2.49755-6.45552 2.03519-6.45552-.75411 0-2.91521 6.39099-10.9237 8.7174-10.9237 2.37613 0 3.69407 4.25498 1.69971 5.48757-.92027.56875-1.39059 1.26553-1.04516 1.5484 1.98078 1.62203 16.23165 5.05347 18.24053 4.39209 2.0127-.66264 8.38752-11.60109 8.38752-14.39206 0-.83114 4.48289-10.41538 20.42561-43.66921 3.68275-7.68158 7.79356-15.14472 9.13515-16.58474 1.34158-1.44002 2.43924-3.39451 2.43924-4.34332 0-.9488 2.35818-5.57794 5.24042-10.28695s7.59118-12.96959 10.46431-18.35681c2.87313-5.38724 6.84129-12.49498 8.81815-15.79498 1.97684-3.3 3.93788-7.05 4.35786-8.33333.41999-1.28333 1.29363-2.33333 1.94143-2.33333s1.17783-.95738 1.17783-2.12751 1.11626-3.72013 2.4806-5.66667c1.36433-1.94653 4.2427-7.13916 6.39637-11.53916 2.15368-4.4 4.58837-9.2 5.41045-10.66667 2.002-3.57178 6.46768-13.92433 7.65015-17.73492.80996-2.61013-.6074-4.56437-9.49272-13.08837-5.74467-5.51107-12.74351-11.93035-15.55297-14.26508s-8.74763-7.74333-13.19592-12.01912c-4.44831-4.27579-9.5267-8.32121-11.28532-8.98985-1.75863-.66863-3.97487-3.06448-4.92498-5.32412-.9501-2.25964-6.02305-8.50311-11.27322-13.87436-5.25018-5.37126-9.54578-10.15431-9.54578-10.62899s-1.45345-2.31652-3.22988-4.09295c-1.77644-1.77644-3.61688-4.44917-4.08985-5.9394-.47299-1.49023-1.41953-2.70951-2.10345-2.70951-.68391 0-1.24348-.81101-1.24348-1.80225 0-.99123-1.65-3.55455-3.66667-5.69624s-5.44337-6.28068-7.61491-9.19775c-2.17153-2.91706-5.87955-7.20241-8.24007-9.52297-2.36052-2.32057-5.30616-6.22057-6.54588-8.66667s-3.178-5.50113-4.3073-6.78896c-1.1293-1.28782-1.6746-2.72017-1.21177-3.183.77137-.77137 4.68768 2.95378 10.57355 10.05748 3.95338 4.77136 5.29794 3.07815 1.72778-2.17581-1.85977-2.73691-3.3814-5.73691-3.3814-6.66667 0-.92977-.9-1.69049-2-1.69049s-2.00046-.45-2.00104-1c-.00057-.55-2.10057-3.35899-4.66666-6.2422-2.5661-2.88321-4.66563-5.73321-4.66563-6.33333 0-1.48842-3.66073-1.38543-4.59689.12933-.41486.67124.8244 3.09657 2.75389 5.38964 1.92948 2.29307 3.13573 4.54164 2.68055 4.99681-.77826.77827-3.11584-1.51062-16.17088-15.83401-13.0905-14.36231-35.33334-41.43435-35.33334-43.00466 0-.69466-1.29901-2.64576-2.88669-4.33577-2.52379-2.68644-2.68221-3.52152-1.26023-6.64245 1.4201-3.11678 1.27019-3.92204-1.18149-6.34652-2.30413-2.27856-2.65052-2.35814-1.93047-.44348 1.46043 3.8833-1.22352 2.6002-4.2026-2.00911-1.53716-2.37833-5.09226-7.88426-7.90025-12.23542-5.88773-9.12344-33.17252-39.656255-36.61856-40.977718-1.27493-.4889-3.64797-2.5889-5.27341-4.666667-1.62544-2.077765-8.14525-9.090443-14.48848-15.583727l-11.53313-11.805971-10.029 3.061415c-5.51596 1.683777-14.5986 5.346464-20.18364 8.139304-5.58504 2.792812-10.46024 5.077863-10.83376 5.077863-.37354 0-7.64874 3.3-16.16712 7.333333-8.51839 4.033334-16.5432 7.33703-17.83291 7.341548-1.2897.0045-4.14492.978656-6.34492 2.164752-2.2 1.186097-9.4 4.132619-16 6.54783-15.46353 5.658739-35.30594 13.603964-38.4782 15.407288-1.363.77483-5.863 2.49198-10 3.81589-4.13698 1.32391-12.92179 5.14915-19.52179 8.50055-10.13394 5.14588-28.19722 12.92415-48.66667 20.95646-2.56667 1.00718-12.31695 5.60399-21.66728 10.21512-9.35035 4.61115-17.53807 8.3839-18.19495 8.3839s-5.9066 2.16029-11.66605 4.80065c-5.75944 2.64038-11.67172 5.27227-13.13838 5.84868-1.46667.57642-15.71224 7.45927-31.65681 15.29524-15.944584 7.83596-32.144583 15.35571-36.000003 16.71055-4.517333 1.58744-7.174398 3.33121-7.472609 4.90411-.254513 1.34242-.965368 2.97162-1.579676 3.62045-.614307.64881-.31854 2.44881.65726 4 .975801 1.55117 2.154496 7.02032 2.619323 12.15365.464826 5.13334 1.457587 13.24151 2.206137 18.01818.748548 4.77666 2.41153 17.97666 3.695516 29.33333l2.33452 20.6485 4.59817-.0579c2.528993-.0317 6.472093-.51277 8.762446-1.06881 3.187816-.77392 4.35043-.52588 4.958154 1.05782 1.162341 3.02906-.391327 6.06886-3.101823 6.06886-3.6547 0-5.536114 3.28444-5.09211 8.88944.303693 3.83376-.09484 5.11056-1.595164 5.11056-1.481482 0-2-1.55556-2-6v-6l-7.258853.47501c-3.992368.26125-9.979745 1.29388-13.30528 2.29472-6.671512 2.00783-8.555494 1.14353-7.882086-3.61595.376322-2.65976 1.386084-3.25821 6.446219-3.82045 5.49539-.6106 6.038691-1.00308 6.460048-4.66667.253027-2.2-.15992-7-.917658-10.66666-2.50712-12.13185-4.64663-27.93027-4.423903-32.66667.120693-2.56667-.670709-10.06667-1.758679-16.66667-1.087969-6.6-2.567823-17.98928-3.288566-25.30951l-1.310441-13.30949 3.619599-3.84363c4.217946-4.47898 10.568861-7.45452 28.952933-13.56498 7.333333-2.43746 15.699886-5.43512 18.592336-6.6615 5.66635-2.40249 5.29035-2.5679 9.6382 4.24028 1.42531 2.23186 1.50051 2.18446.84873-.53497-.44609-1.86124-.0312-3.19717 1.10279-3.55095 25.33084-7.90251 39.62364-13.56196 65.24815-25.83597 9.21995-4.41631 19.41995-8.94169 22.66667-10.05642 11.10705-3.81348 46.89823-19.91533 61.5994-27.71253 1.29962-.68929 5.79962-2.4861 10-3.99291 4.20038-1.506808 9.43705-3.571168 11.63705-4.587466 17.26544-7.975838 27.08789-11.422441 28.06181-9.846614.44279.716449 1.79284.134801 3.03459-1.3074 2.35849-2.73922 16.25011-9.188614 34.48532-16.01033 6.00329-2.245803 15.4241-6.22354 20.93516-8.839418 5.51106-2.615877 12.14928-5.101658 14.75161-5.523958s4.73151-1.215427 4.73151-1.762503c0-2.415175 14.37161-7.172138 22.30582-7.383164l8.30582-.220911 11.17498 11.473836c6.14626 6.31061 16.36051 16.389713 22.69836 22.398005 6.33784 6.008292 12.10227 12.446832 12.80983 14.307867.82373 2.166579 1.98445 3.11586 3.22692 2.639086 1.17509-.450926 2.57798.479418 3.55692 2.358801.88906 1.706876 4.83508 6.508869 8.76892 10.671099 3.93384 4.16222 7.15762 8.06222 7.16398 8.66666.012 1.09794 2.1224 3.50248 18.57191 21.15592 20.21701 21.69671 38.74987 44.71023 38.74987 48.11838 0 .47813 1.65 2.49334 3.66666 4.47826 2.01667 1.98492 5.16667 5.51868 7 7.85282 1.83334 2.33413 3.94196 4.97506 4.68584 5.86874s3.44388 4.31438 6 7.60154c7.43128 9.55662 10.79133 13.38169 19.64749 22.36656 4.58334 4.64994 8.33334 9.02497 8.33334 9.72228 0 .6973.47064 1.26782 1.04585 1.26782.57523 0 2.06553 1.72618 3.31181 3.83595 1.24627 2.10977 4.05663 5.85977 6.24524 8.33333 5.59548 6.32402 8.90112 10.35004 13.54546 16.49739 2.21613 2.93334 11.03936 12.75415 19.60716 21.82404 8.5678 9.0699 16.71098 18.0699 18.09597 20 1.385 1.93011 5.76868 6.2093 9.74155 9.5093 12.10072 10.0513 19.07362 17.3809 19.07362 20.04932 0 1.39608-1.5 5.81765-3.33333 9.82573-1.83333 4.00807-3.33333 7.883-3.33333 8.61093 0 .72795-.80687 2.1304-1.79304 3.11658-1.91746 1.91746-12.87363 24.31053-12.87363 26.31213 0 .65803-.45 1.39642-1 1.64087-1.44247.64109-8.77429 12.963-10.97488 18.44444-1.03041 2.56667-2.90119 6.53447-4.15725 8.81732-3.26294 5.93024-4.64439 8.64337-6.71231 13.18268-1.00223 2.2-2.3078 4.6-2.90129 5.33333-.59348.73334-2.25272 3.31303-3.6872 5.73267-1.43448 2.41963-3.0489 4.13132-3.5876 3.80375-.53871-.32758-1.06774 1.71342-1.17563 4.53553-.10787 2.82211-1.35312 6.81041-2.7672 8.86291s-3.39175 5.83181-4.39481 8.39848c-1.00307 2.56666-2.15879 4.96666-2.56826 5.33333-.40946.36667-1.41454 2.16667-2.2335 4-3.12632 6.9986-9.70655 19.71903-15.17403 29.33334-3.12775 5.5-6.53615 11.62004-7.5742 13.60009-1.03807 1.98005-2.6084 3.42839-3.48961 3.21852-.88123-.20985-1.15223-.12987-.60223.17769 1.36388.76275 1.27264 5.67036-.10547 5.67036-.60798 0-2.51948 3.01907-4.24776 6.70903-1.72829 3.68996-3.78085 7.19403-4.56125 7.7868-.79708.60544-3.48829-.14353-6.14088-1.70903zm6.72198-8.04144c0-1.4073-2.55882-1.99854-3.3199-.7671-.46061.74529.0979 1.35508 1.2412 1.35508 1.14328 0 2.0787-.26459 2.0787-.58798zm20-39.41202c0-.73334-.26459-1.33334-.58798-1.33334-.32338 0-.9588.6-1.41202 1.33334-.45323.73333-.18864 1.33333.58797 1.33333s1.41203-.6 1.41203-1.33333zm16.5045-31.00001c.4838-2.01666.3324-3.66666-.33645-3.66666-1.72455 0-2.89679 3.62014-1.96149 6.0575.96076 2.50368 1.17794 2.27771 2.29794-2.39084zm33.4955-62.33333c.45322-.73333.18864-1.33333-.58798-1.33333-.77661 0-1.41202.6-1.41202 1.33333s.26458 1.33333.58797 1.33333.9588-.6 1.41203-1.33333zm-.86927-84.33334c-2.43467-3.11666-6.08232-7.46666-8.10587-9.66666-2.02356-2.2-3.68197-4.75-3.68536-5.66667-.004-.91667-.45617-1.6674-1.00617-1.66829-.55-.0009-2.69936-1.46312-4.77636-3.2494-2.077-1.78627-4.65955-2.90886-5.739-2.49463-1.59784.61315-1.39157 1.40235 1.10969 4.24596 1.68979 1.92107 3.88084 4.00693 4.86903 4.63528s5.94236 5.27989 11.00927 10.33677c5.06692 5.05687 9.55882 9.19431 9.98201 9.19431s-1.22257-2.55-3.65724-5.66667zm-30.96808-28.59553c-2.6434-2.78912-4.8114-4.43504-4.81776-3.65759-.0143 1.75011 8.13089 10.22179 8.99605 9.35663.34534-.34535-1.53489-2.90991-4.17829-5.69904zm7.17068 2.39848c0-.65837-2.52388-4.01696-5.60863-7.46352-5.7477-6.42188-8.37733-10.24411-9.85498-14.32443-.46176-1.27509-1.28147-2.04522-1.82158-1.71142-.5401.33381-3.02189-1.85492-5.51508-4.86383-2.49318-3.00892-5.16664-6.13878-5.941-6.95526-.77437-.81646-1.80554-2.53449-2.29149-3.81782-.48595-1.28334-1.66992-2.33334-2.63105-2.33334-.96112 0-2.503-1.05-3.42642-2.33333-.9234-1.28333-2.10585-2.93333-2.62766-3.66667-.52183-.73333-2.14878-2.01292-3.61544-2.84352-1.46667-.8306-2.49256-2.47102-2.27978-3.64537.26004-1.43509-.27842-1.87988-1.64225-1.35653-1.63345.62682-1.73284 1.33229-.50964 3.61786.83572 1.56156 2.17473 3.53463 2.97559 4.38459 3.08701 3.27636 6.12274 7.24099 6.12274 7.99625 0 2.06704 11.57688 16.37685 13.33334 16.48089 1.1.0652 7.1 5.47978 13.33333 12.0325s11.48333 11.93338 11.66667 11.95702c.18333.0236.33333-.49568.33333-1.15407zm-82.67165-94.46962c-.003-.55-1.19392-2.95-2.64707-5.33333-2.78778-4.57231-5.34794-5.68931-5.34794-2.33333 0 1.1.49861 2 1.10802 2 .60942 0 1.9108 1.5 2.89198 3.33333 1.68773 3.15356 4.00585 4.50748 3.99501 2.33333zm-16.01543-25.19068c.0248-3.4636-3.74797-5.29768-4.872-2.36848-.43532 1.1344-.0713 3.64299.80875 5.57466 1.28479 2.81981 1.84096 3.13157 2.82152 1.58164.67172-1.06176 1.23051-3.21628 1.24173-4.78782zm-7.45785-10.37289c-.96945-2.52633-3.66649-3.45571-5.94388-2.0482-1.42671.88175-1.0958 1.44125 1.45424 2.45879 4.59587 1.83388 5.32532 1.76717 4.48964-.41059zm-9.85507-4.09926c0-.36454-2.16586-3.06018-4.81304-5.99029-2.64717-2.93011-4.49406-6.15872-4.1042-7.17469 1.04968-2.73543-1.68448-5.00466-3.72894-3.09484-1.2944 1.20914-.75668 2.68458 2.49838 6.85516 5.09018 6.52181 10.1478 11.20907 10.1478 9.40466zm-56.83521 378.72834c-3.11782-2.18382-3.42457-9.87267-.53288-13.35694 2.78518-3.35593 10.85927-4.97902 13.3873-2.69117 1.18467 1.07211 4.13926 2.64137 6.56575 3.48725 3.34136 1.1648 3.93642 1.804 2.45251 2.63444-1.07761.60306-4.38129 3.51847-7.34152 6.4787-5.76032 5.76033-9.8456 6.72961-14.53116 3.44772zm11.45019-5.96891c1.80923-3.38056.41347-6.76325-2.79063-6.76325-2.29342 0-5.15768 4.4909-5.15768 8.0868 0 2.36368 6.55955 1.27138 7.94831-1.32355zm-30.12835-3.48875c-1.96609-1.96609-4.81389-3.2745-7.12709-3.2745-4.86745 0-10.69287-2.17139-10.69287-3.9857 0-3.35449 6.40819-10.6718 11.5215-13.15604 4.7468-2.30617 6.20605-2.47782 9.7363-1.1453 3.85856 1.45644 4.38524 1.28604 7.43695-2.4061 1.80637-2.18544 5.36847-7.04425 7.91579-10.79736 3.94345-5.81013 5.13637-6.72732 8.03017-6.17413 1.86928.35733 3.68356 1.11061 4.03173 1.67396.34816.56335-4.3107 6.03875-10.35304 12.16756-12.21076 12.38551-16.98606 18.19187-16.98606 20.65357 0 3.25502 4.06074 5.86968 7.7631 4.99859 5.19186-1.22155 1.95408 1.86461-3.63913 3.46872-3.77915 1.08385-4.80092.81316-7.63735-2.02327zm-1.3331-8.70461c3.93241-3.09324 4.6103-7.19691 1.39282-8.43157-2.39317-.91835-3.90838-.24943-8.21301 3.62578-4.59817 4.13947-3.90391 6.20942 2.48685 7.41456.45111.0851 2.40111-1.08888 4.33334-2.60877zm-41.52351-13.97883c-3.19647-2.23889-3.63564-4.13002-1.67801-7.22572 1.06216-1.67964 1.83272-1.5331 5.25893 1 4.52216 3.34338 6.7146 3.75407 6.94696 1.30132.21907-2.31229.15773-2.69684-.83799-5.25401-.67733-1.73952.70663-3.05683 6.0633-5.77125 9.00098-4.56115 11.59045-2.70995 5.03554 3.5999-2.52848 2.43395-6.2376 6.67536-8.2425 9.42536-4.00107 5.48802-7.6664 6.34236-12.54623 2.9244zm-19.35461-8.09344c-.45964-.45965.078-2.60274 1.19488-4.76245 1.45005-2.80409 1.62842-4.41131.6239-5.62168-1.05261-1.26833-.51924-2.09929 2.11907-3.30139 4.91689-2.24028 6.67164-.16738 4.43313 5.23686-1.4166 3.41997-1.42061 4.39385-.0216 5.25845.94431.58361 1.30464 1.72819.80075 2.54352-.97327 1.57477-7.74348 2.05327-9.15007.64669zm-13.19547-6.5288c-.49584-.49585-.24421-2.34421.55919-4.10749 1.97342-4.33121.45023-5.41944-4.69001-3.35068-11.29428 4.54555-18.94887 3.71819-22.22438-2.40215-1.003-1.87413-2.79717-2.77517-5.52597-2.77517-8.68799 0-11.21531-4.23286-7.18304-12.0304 1.87396-3.62384 1.85052-3.83718-.33333-3.03347-1.29198.47548-3.54906 1.60047-5.01572 2.49997-1.46667.89951-4.61667 2.04204-7 2.53895-5.3802 1.12176-5.57619-.52352-.80716-6.77603 3.38273-4.435 3.42568-4.6965 1.05585-6.42937-2.95839-2.16323-5.02041-1.54107-11.44056 3.45187-5.03577 3.91632-10.48441 5.01616-10.46185 2.11181.007-.91667 2.12282-4.32096 4.70157-7.56509 2.96269-3.72715 4.22215-6.36491 3.42141-7.16564-1.95609-1.9561-9.57422 1.25134-13.69934 5.76778-3.89195 4.26114-8.04886 4.99371-13.70719 2.41559-4.16397-1.89723-4.23515-4.22247-.34035-11.11931 2.66803-4.7245 3.64652-5.37973 8.57164-5.73976 4.19832-.30689 6.2307.26448 8.29955 2.33334 2.03352 2.03352 4.45825 2.73976 9.40643 2.73976 7.53382 0 8.06758 1.0193 4.01461 7.66666-2.43039 3.98614-2.45671 4.33268-.32835 4.32512 1.27255-.004 3.99238-.88378 6.04403-1.95394 4.23439-2.20866 11.43948-1.34884 12.53091 1.49537.38426 1.00139-.31524 3.36813-1.55447 5.25943s-2.00373 3.68813-1.69891 3.99296c.30483.30482 3.80278-1.23636 7.7732-3.42487 3.97044-2.18849 7.66898-3.98996 8.21898-4.00324 2.23926-.0541.77833 5.36801-2.49432 9.25733-3.29722 3.91852-3.36778 4.29259-1.25098 6.63163 2.96354 3.27467 8.01248 1.93575 11.23712-2.97992 2.08195-3.17376 2.66256-3.42205 4.06124-1.73675 1.19491 1.43978 1.25011 2.67996.20612 4.63067-3.28736 6.14249-.28556 13.35498 4.90038 11.7742 1.28724-.39237 7.40221-2.55141 13.58882-4.79786 6.18661-2.24646 11.40957-3.92327 11.6066-3.72626.19701.19703-.46088 2.73525-1.46197 5.64051-1.2877 3.73696-1.40956 5.77931-.4166 6.98119.77197.93438 1.12433 1.97813.78302 2.31944-1.18294 1.18294-8.44895 2.18104-9.34617 1.28382zm-80.45821-43.25249c2.53188-2.79771 1.99452-6.30774-1.15043-7.51456-3.06145-1.17479-8.80462 3.35965-8.80462 6.95157 0 2.60593.68477 3.17999 3.79334 3.17999 2.08635 0 4.85912-1.17766 6.16171-2.617zm-186.00064 36.49708c-1.88899-4.96841-1.1264-7.88008 2.06385-7.88008 2.19153 0 2.64841.90089 2.64841 5.22223 0 6.2766-2.74728 7.82614-4.71226 2.65785zm301.37892-6.3934c0-1.01566 1.44786-2.79534 3.21746-3.95483 1.76962-1.15948 3.61839-3.93348 4.10838-6.16443.96192-4.37954 5.2137-7.73049 6.71876-5.29525 1.67252 2.70619-.71198 7.61816-6.03094 12.42353-5.68152 5.13291-8.01366 6.00335-8.01366 2.99098zm-53.33333-2.83976c0-.4152 1.31284-2.5306 2.91741-4.70091 3.10129-4.19473 7.29887-5.50344 5.89191-1.83696-.44514 1.15997-.80932 2.34456-.80932 2.63243 0 .28785-1.8 1.45418-4 2.59185s-4 1.72877-4 1.31359zm-250.57141-17.06307c-1.161884-3.05597-1.860342-8.04149-1.576174-11.25052.265224-2.99509 4.182094-1.74951 5.513924 1.75347 2.06562 5.433 1.64938 12.57986-.73267 12.57986-1.11815 0-2.56044-1.38726-3.20508-3.08281zm150.60748-17.91719c.0199-1.28333 1.80094-6.47121 3.958-11.52862 2.15705-5.05742 3.60541-9.70742 3.21857-10.33334-1.37435-2.22373-4.80759-1.08156-8.82509 2.93596-11.19024 11.19024-19.8077 18.9503-20.39352 18.36448-.85952-.85952 3.21388-12.85737 5.80737-17.10514 9.26315-15.17171 19.38029-29.33334 20.95589-29.33334 2.55528 0 2.40556 1.6515-.49742 5.48686-5.65031 7.46505-16.40114 25.42269-15.9787 26.69.45388 1.36165 5.72002-2.6219 20.31416-15.36659 4.10831-3.58768 7.76035-6.23237 8.11563-5.87709.8601.8601-6.93692 17.97041-8.67983 19.04758-1.61512.9982-1.85338 7.35258-.2757 7.35258.59882 0 6.3072-5.43023 12.68527-12.06719 6.3781-6.63695 12.18815-11.70153 12.91124-11.25464 2.17187 1.34228 1.49022 4.38103-1.44373 6.43604-1.51715 1.06265-8.96755 7.99668-16.55644 15.40895-7.5889 7.41225-14.1476 13.47684-14.57489 13.47684-.42728 0-.76065-1.05-.74081-2.33334zm-154.590712-11.37202c-.63542-1.67128-1.370569-6.02128-1.633665-9.66667-.425711-5.89853-.184877-6.62797 2.188311-6.62797 2.291485 0 2.799368 1.20329 3.609866 8.55256.51875 4.70392.63335 9.05392.25464 9.66666-1.252734 2.02698-3.246981 1.15846-4.419152-1.92458zm17.268222-12.87366c-2.17042-4.05548-1.68593-5.01661 2.95309-5.85829 2.38333-.43243 11.83333-2.35549 21-4.27348s18.90765-3.70171 21.64662-3.96383c2.73898-.2621 5.57954-.84713 6.31236-1.30004.73283-.4529 6.59186-1.67165 13.02004-2.70833 6.4282-1.03667 16.18764-2.9046 21.68764-4.15096s12.54414-2.39025 15.65363-2.54199c3.10948-.15174 6.40948-.89898 7.33333-1.66054.92384-.76156 7.2743-2.34755 14.11212-3.52442 6.83783-1.17686 14.09858-3.00137 16.13499-4.05444 2.13917-1.10621 4.20859-1.41933 4.90092-.74157.69272.67813 6.8242-.40921 14.53168-2.57703 7.33333-2.06257 21.13333-5.62593 30.66666-7.9186 25.68883-6.17787 37.07099-9.35179 38.43751-10.71831.67143-.67142 1.98845-.92618 2.92673-.56613.93827.36004 9.41516-1.43764 18.83752-3.99485 22.05697-5.98624 54.71205-14.20151 56.44996-14.20151 2.27821 0 1.49485 2.4944-1.24361 3.95999-1.42555.76293-9.37555 2.88662-17.66667 4.71933-8.29113 1.83271-19.27477 4.57508-24.40811 6.09417-17.95803 5.31427-22.5953 6.55984-24.42239 6.55984-1.0127 0-3.73194.82227-6.04276 1.82727-2.31083 1.00499-6.60151 2.45548-9.53484 3.22332-2.93334.76783-7.73334 2.0316-10.66667 2.80837-26.28747 6.96119-44.366 11.24182-53.33333 12.62826-5.86667.90705-12.35572 2.36849-14.42013 3.24765-2.0644.87916-5.2662 1.59847-7.1151 1.59847-1.84888 0-7.65982 1.14485-12.9132 2.54411-5.25336 1.39925-12.85157 3.16774-16.8849 3.92997-11.94259 2.25693-45.32082 9.32657-54.66667 11.57861-4.76667 1.14862-13.76666 2.97651-20 4.06198-6.23333 1.08548-15.63411 3.45373-20.89063 5.2628-11.45385 3.9419-10.68965 3.89813-12.39579.71018zm4.76003-13.19401c-.42009-.67972-.18586-10.15885.5205-21.06475 1.77071-27.33877 1.71472-32.84009-.32744-32.17488-3.07504 1.00167-5.42899 8.20092-5.55069 16.97609-.0942 6.78905-.56006 8.70323-2.11834 8.70323-3.3036 0-2.55083-12.51031 1.33885-22.25008 2.61753-6.55432 4.15385-8.64204 7.12967-9.68857 5.96466-2.09767 7.90731 1.58182 7.18319 13.60532-.3202 5.31666-.0723 9.66666.5509 9.66666s1.13309-.91926 1.13309-2.04282c0-3.09316 3.9165-11.81844 4.87478-10.86016.95274.95272-4.02751 17.11226-6.89104 22.35957-1.03747 1.90112-2.29433 8.34911-2.79302 14.32886-.83334 9.99241-3.10519 15.58901-5.05045 12.44153zm-26.050854-7.32512c-1.086776-2.85844-1.87954-9.93289-1.557842-13.90185.07429-.91667 1.276178-1.66667 2.67084-1.66667 2.104668 0 2.692195 1.34792 3.455992 7.92885.506134 4.36088.529635 8.56088.05223 9.33334-1.428612 2.31154-3.368788 1.60048-4.621217-1.69367zm48.379184-6.45383c.4421-4.64641 1.50933-15.47594 2.3716-24.06561 1.2572-12.52366 1.23088-16.02352-.1328-17.66667-2.38094-2.86884-4.84975-2.5534-7.44236.95092-2.21804 2.99803-2.2189 2.99736-1.30506-1 1.20626-5.27647 4.40259-8.66667 8.17106-8.66667 5.24128 0 7.20008 4.69086 7.2227 17.29668.014 7.8334.42246 10.7479 1.31292 9.36999 1.09411-1.69301 1.29563-1.62723 1.31292.42857.0107 1.33571-.87958 3.32858-1.97958 4.42858-1.34551 1.3455-2.0435 4.91405-2.13291 10.90476-.17927 12.01069-1.2786 15.471-5.08936 16.01945-3.05084.4391-3.09692.27946-2.30913-8zm26.56213-4.72325c-1.94578-2.97007-2.36407-6.56784-2.36407-20.33334 0-19.5292-1.53617-21.42836-7.59649-9.39144-2.03069 4.03334-3.70221 6.39022-3.71451 5.23752-.0461-4.32865 4.23275-14.34565 7.39821-17.31945 2.74158-2.57557 3.88799-2.87048 6.93212-1.78329l3.64734 1.30261-.42707 19.61464c-.48376 22.21855-.53181 22.13755 9.7604 16.45506 4.95623-2.73643 5.30995-3.3172 5.00264-8.21386-.46212-7.36355 1.62632-12.75408 6.93459-17.89905 6.29909-6.10532 8.72944-4.89036 8.72944 4.36393 0 5.8564-.73516 8.18999-4 12.69696-2.2 3.03701-4 6.39723-4 7.46714 0 2.91196 4.12577 4.77097 7.07976 3.19005 3.8306-2.05007 4.6371.13969 1.10586 3.00252-4.32768 3.50851-9.04948 3.19585-12.79656-.84731-1.95232-2.10658-3.48506-2.85748-4.03069-1.97464-.80819 1.30767-13.04764 8.04051-14.61664 8.04051-.37415 0-1.74409-1.62385-3.04433-3.60856zm29.3595-20.47568c2.06388-5.25411 1.85396-9.2491-.48598-9.2491-1.95736 0-3.90426 4.94287-3.90426 9.91235 0 6.28759 1.76459 6.02101 4.39024-.66325zm10.90088 8.08424c2.25566-7.86719 10.48204-22.66667 12.59943-22.66667.69469 0 1.67695 1.35 2.18279 3 2.00138 6.52835 3.36066 6.668 8.6921.893 5.0788-5.50132 8.76798-6.01811 7.46776-1.04609-.36618 1.40028.24259 4.36682 1.35282 6.59234 1.79156 3.59126 2.49074 3.94891 6.21629 3.17983l4.19769-.86655-6.47522 6.30616c-7.51179 7.31567-8.80542 6.67278-8.8377-4.39202-.0285-9.79658-2.73176-9.07468-6.76017 1.80532-3.04841 8.23323-5.56019 11.33917-7.55597 9.34339-.46607-.46607-.74707-4.48791-.62444-8.93741.2741-9.94556-1.24118-9.85653-6.92634.40696-4.85309 8.76139-6.88314 11.10451-5.52904 6.38174zm-118.46017-7.38603c-1.354293-3.52924-.947267-11.05137.651461-12.03944 2.301019-1.42211 3.915283 2.2288 3.532144 7.98851-.363365 5.46248-2.753753 7.77706-4.183605 4.05093zm620.64338-4.48225c-4.1509-3.87752-5.08964-7.23706-2.96082-10.59624.62664-.98883 2.26745-1.56556 3.64625-1.28163 1.92543.39651 2.42721 1.51815 2.16335 4.83579-.62928 7.912 7.90869 6.68522 10.11765-1.45375 1.39216-5.12944.9232-6.30256-2.51947-6.30256-4.20745 0-3.28672-4.88823 1.0787-5.72683 4.18404-.80374 5.76756.0164 3.15237 1.63266-1.22316.75596-1.31947 1.37286-.31155 1.9958 2.98059 1.84209 4.83179-2.14135 4.36911-9.4015l-.45673-7.1668h-5.81387c-4.64503 0-9.93799-1.32445-13.63739-3.41246-.90638-.51159 1.41631-4.44994 2.97779-5.04914.95713-.36728 4.36073.23592 7.56359 1.34047 3.98949 1.37581 8.02774 1.73337 12.82334 1.13541 8.08491-1.0081 8.4627-.28809 3.60486 6.87034-1.97723 2.91358-3.23014 6.41861-3 8.39254.33842 2.90299 1.01713 3.3613 4.72848 3.19291 3.73857-.16961 4.33333.24215 4.33333 3 0 1.75813-.75 3.28799-1.66667 3.39968-.91666.11173-2.26666.34249-3 .51287-.73333.17038-2.08818.379-3.0108.46358-.9226.0845-2.64474 2.57131-3.827 5.52603-2.05861 5.145-7.1622 9.84512-7.1622 6.596 0-.80241-.6-1.08812-1.33333-.63489-.73333.45322-1.33333 1.98864-1.33333 3.41202 0 3.95255-5.66102 3.26396-10.52566-1.2803zm-447.87433-3.06506c-4.38329-4.38329.24903-7.87084 5.70559-4.29557 3.14624 2.06149 3.73616 2.09192 5.54225.28583 1.80609-1.8061 1.58469-2.73071-2.07997-8.68655-2.25566-3.66592-4.1012-7.33511-4.1012-8.15377 0-2.6729 6.43569-5.89699 9.99028-5.00484 4.47825 1.12396 4.48429 5.75368.009 7.4549-1.83333.69703-3.33333 1.66338-3.33333 2.14744s1.5 2.27026 3.33333 3.96934c3.78705 3.50972 4.3316 8.69448 1.23809 11.78798-2.5137 2.51411-13.93849 2.86112-16.30437.49524zm40.33196-17.6905c-2.48533-5.94826-2.46689-6.20379.95639-13.24992 3.57697-7.36248 9.82384-11.26607 14.24364-8.90067 3.30712 1.76992 2.67317 4.10776-1.11391 4.10776-2.92729 0-8.01808 5.97955-8.01808 9.41791 0 3.47152 3.526 6.4564 6.65901 5.63709 7.23135-1.89104 11.63506-12.9766 12.71594-32.01012.55465-9.76713 2.53818-15.04488 5.65429-15.04488 3.13373 0 3.06272 3.25813-.40771 18.70412-1.89017 8.41273-3.76266 16.88649-4.16108 18.83059-1.0189 4.97188 3.57228 9.46512 8.55986 8.37722 9.04812-1.9736 10.63214-3.27204 13.46292-11.03572 4.61616-12.66025 4.92146-12.87621 18.20314-12.87621 6.36239 0 11.84616.45 12.18616 1 .90945 1.47117 6.83552 1.21773 7.79413-.33333.45323-.73334 1.80639-1.33334 3.00703-1.33334 1.20063 0 4.31523-1.43997 6.92131-3.19994 7.21278-4.87103 10.12346-5.34854 13.10361-2.14972 3.24061 3.47838 4.82527 1.89272 7.66509-7.67002 1.52474-5.13432 2.73899-6.88433 5.20644-7.50362 6.04083-1.51615 8.747 1.29148 9.50047 9.85664.46984 5.34093-.72135 8-3.58377 8-2.31491 0-2.61094-.74771-2.24348-5.66667.36617-4.90181.0457-5.72059-2.37392-6.06616-2.32414-.33193-3.2919.9572-5.72208 7.62223-1.60868 4.41194-3.49994 8.37713-4.20279 8.81152-.70285.43438-1.27791 1.92008-1.27791 3.30156 0 3.56-5.32972 12.15713-6.92536 11.17097-.74516-.46053-.94789-2.66031-.46061-4.99801.47868-2.2965 1.19937-6.42544 1.60153-9.17544.68792-4.70407.52204-5-2.80278-5-4.99727 0-10.5444 5.79964-9.26702 9.68886 1.64052 4.9949.82807 7.9527-3.32532 12.10608-3.5623 3.56231-4.43481 3.84436-8.39788 2.7148-3.66453-1.04446-4.49338-1.98549-4.83577-5.4902-.22727-2.32632.18087-5.33972.90696-6.69645 2.16805-4.05103-.21581-6.15863-5.91908-5.23312-5.54952.90057-6.62821 2.03019-8.54774 8.95123-2.24523 8.09538-4.3711 9.92517-11.57527 9.96314-4.06024.0213-8.53241 1.1389-12.0652 3.01483-6.49187 3.44721-12.672 3.84991-15.05312.98083-2.26656-2.73104-2.89628-2.58572-8.66667 2-3.65624 2.90561-6.46097 4-10.25137 4-4.69397 0-5.41207-.46439-7.15-4.62384zm60.26952-15.44147c3.28887-4.96981 3.4016-5.56971 1.41917-7.55213-1.74197-1.74198-2.53542-1.83651-4.1522-.49471-2.47614 2.05503-5.28913 10.24491-4.15122 12.08608 1.51872 2.45733 3.26185 1.43457 6.88425-4.03924zm30.54484.79753c3.15162-4.80998 2.04298-8.06556-2.74662-8.06556-3.02697 0-4.38694.88292-5.75429 3.7358-3.3244 6.93614 4.26153 10.79987 8.50091 4.32976zm-142.85744 7.04543c.1164-11.40969 1.78079-14.48956 4.54804-8.41611 2.19534 4.81823 1.94391 12.83472-.51252 16.34178-1.14158 1.62984-2.54158 2.96334-3.11112 2.96334-.56953 0-.98552-4.90005-.9244-10.88901zm-164.555539.27324c0-3.69831.665882-5.72344 2.057504-6.25745 2.748985-1.0549 3.009621-.64271 3.51155 5.55338.377287 4.65746.0574 5.3729-2.569054 5.74591-2.692682.38243-3-.13407-3-5.04184zm-81.8777406-133.18642c-1.0078271-1.63069 2.5497429-16.23814 5.9534524-24.44498 4.0661572-9.8041 3.6114452-11.75283-2.7423763-11.75283-3.6092054 0-5.3333332-.58651-5.3333332-1.81428 0-3.28391 25.1371487-4.84314 33.1343687-2.05528 3.540177 1.2341 4.198963 2.139 4.198963 5.76757 0 4.99899-3.543538 8.83444-10.999999 11.90615-5.921615 2.43943-6.120552 3.76888-1.550728 10.36313 3.744786 5.40374 3.843856 9.54715.244847 10.24026-1.533874.2954-3.629843-1.76331-6.432388-6.31802-5.77664-9.38824-7.456418-8.95981-9.060455 2.31084-.718523 5.04864-1.4480059 6.34588-3.7540677 6.67588-1.5742367.22527-3.2204644-.17002-3.6582839-.87844zm22.5444086-28.70049c6.259081-3.58373 7.734529-8.05595 3.069959-9.30531-7.543081-2.02036-11.149441.14172-12.467803 7.47466-.776634 4.31976-.561298 4.99213 1.58279 4.94217 1.364946-.0318 4.881721-1.43199 7.815054-3.11152zm378.634331-134.691916c-4.86426-2.119356-7.30785-6.997304-7.28117-14.534814.0156-4.416716.97796-6.733816 4.54244-10.9372631 2.48743-2.9333334 4.99779-4.8640485 5.57857-4.290478.58079.5735706.33668 3.7321814-.54244 7.0191351-.87913 3.286954-1.59841 8.380533-1.59841 11.319063 0 4.361774.594 5.613426 3.23501 6.816754 3.66746 1.671007 8.98968.720353 11.8216-2.111567 2.63163-2.631624 4.18472-15.120579 2.18064-17.5353376-.85448-1.0295832-3.87813-2.5684176-6.71922-3.4196319-4.09927-1.2281709-4.85866-1.9175534-3.67858-3.3394668 4.65818-5.6127512 15.0743 1.407975 16.13422 10.8748623.98672 8.813067-1.0078 13.329733-7.90318 17.897033-6.77609 4.488305-9.66924 4.89958-15.76948 2.241711z" stroke-width="1.333333"/>
</svg>
