<?xml version="1.0" encoding="utf-8"?>
<svg xmlns="http://www.w3.org/2000/svg" version="1.1" viewBox="0 0 1427 442">
	<title>A diagram showing three states of the Sphere’s intersection with a point of view. This first shows the Sphere with his section at full size, the second shows the Sphere rising with a smaller intersection, and the third the Sphere at the point of vanishing with a tiny intersection.</title>
	<path d="m 311.79091,441.57177 c -10.76957,-1.24894 -31.15966,-6.68749 -40.61406,-10.8327 -8.70617,-3.81717 -24.47292,-14.31276 -28.64957,-19.07149 -2.07092,-2.35949 -4.22539,-4.29006 -4.78771,-4.29006 -2.68825,0 -17.32431,-17.40579 -23.25194,-27.65211 -4.48634,-7.75499 -12.04224,-29.16311 -12.04224,-34.11926 0,-2.19198 -0.62597,-4.61164 -1.39103,-5.37697 -1.95939,-1.96014 -1.72678,-38.66822 0.27592,-43.5423 0.8353,-2.03293 1.43628,-4.09301 1.33552,-4.578 -0.4701,-2.26267 7.87762,-24.99354 11.84232,-32.24666 9.23659,-16.89761 24.15609,-32.93919 42.71151,-45.92368 17.49911,-12.24535 32.82234,-17.84262 59.31821,-21.66784 17.97655,-2.59528 41.3726,1.33615 64.38422,10.81891 5.96597,2.4585 12.25311,5.69858 13.9714,7.20022 1.71829,1.50163 5.09241,3.80714 7.49799,5.12334 5.71957,3.12942 17.13019,12.39432 20.42409,16.58348 1.42976,1.81826 3.76533,4.56432 5.1902,6.10234 1.42487,1.53807 3.41284,4.39182 4.41765,6.34173 1.00485,1.94991 3.58902,6.0768 5.74264,9.17088 2.15365,3.09406 5.18223,9.2822 6.73023,13.75141 1.548,4.46921 3.86461,10.41305 5.1481,13.20852 1.28349,2.7955 2.33359,5.67562 2.33359,6.40033 0,0.72469 1.04598,4.62564 2.32434,8.66876 1.27839,4.04312 2.61949,11.14836 2.98024,15.78947 0.56841,7.31213 0.37729,8.43838 -1.43171,8.43838 -1.25451,0 -2.08761,0.99776 -2.08761,2.50024 0,1.37516 0.50201,2.50028 1.11557,2.50028 0.61356,0 0.80976,0.79729 0.43594,1.77173 -0.37379,0.97444 0.12826,2.08191 1.11596,2.46104 2.15476,0.82714 2.30634,4.37971 0.39037,9.14729 -0.77294,1.92319 -1.85928,4.62181 -2.4142,5.99693 -0.55488,1.37515 -1.29235,4.18795 -1.63878,6.25065 -0.98274,5.85131 -6.43734,20.72821 -9.62561,26.25275 -1.58718,2.75025 -6.57492,10.02997 -11.08385,16.17708 -14.57685,19.87295 -32.60611,31.73112 -63.98869,42.0864 -12.9493,4.27284 -17.96018,5.27064 -31.06094,6.18506 -15.85039,1.10636 -18.91597,1.15115 -25.61807,0.37385 z m 41.86475,-9.19183 c 16.2442,-3.20294 22.74298,-5.11278 31.49895,-9.2565 3.77072,-1.78459 7.20663,-3.24461 7.63533,-3.24461 0.42867,0 4.89855,-2.79588 9.9331,-6.21297 10.62772,-7.21357 22.70377,-19.38965 27.53631,-27.76468 1.85652,-3.21729 4.11385,-6.59268 5.0164,-7.50076 0.90248,-0.90804 3.17165,-4.89362 5.04259,-8.85671 1.87094,-3.96311 4.47764,-7.87783 5.79267,-8.69945 1.69476,-1.05874 2.02298,-1.9372 1.12734,-3.01677 -1.68988,-2.03691 1.19023,-11.70631 3.48675,-11.70631 1.18988,0 1.46502,-0.9385 0.91641,-3.1253 -0.46191,-1.84105 -0.24733,-3.12535 0.52239,-3.12535 1.08719,0 0.70859,-8.3242 -0.44348,-9.75265 -0.16725,-0.20729 -4.62738,1.62113 -9.91173,4.06292 -5.28431,2.44178 -10.44549,4.4396 -11.46926,4.4396 -1.02384,0 -5.34093,1.10665 -9.59365,2.45917 -23.17868,7.37183 -29.4728,8.68618 -53.9697,11.27019 -37.27607,3.93196 -76.86104,2.26207 -101.84754,-4.29663 -3.78023,-0.99227 -11.09076,-2.90989 -16.24562,-4.26138 -13.84402,-3.62961 -32.72535,-9.53298 -35.84565,-11.20737 -4.47826,-2.4031 -6.64289,-1.81844 -6.64289,1.79424 0,6.52457 4.06793,21.353 8.53714,31.11959 9.48887,20.73604 17.90281,32.21395 31.86901,43.47411 8.6233,6.9525 29.52521,18.4073 33.58828,18.4073 1.08219,0 2.31369,0.9022 2.73668,2.00488 0.44148,1.15097 1.5676,1.69838 2.64387,1.28523 1.03114,-0.39583 3.30926,-0.17398 5.06244,0.49266 6.67053,2.53708 29.5751,4.92013 41.16369,4.28276 4.81671,-0.26504 14.65378,-1.64427 21.86017,-3.06521 z m 19.15042,-84.6349 c 0.65105,-0.40253 4.62178,-1.13178 8.82379,-1.62056 8.0477,-0.93617 16.41423,-2.8022 25.76023,-5.74546 3.09292,-0.97406 6.6786,-1.76819 7.96826,-1.76479 1.28959,0.003 5.59131,-1.64423 9.55935,-3.6614 3.96804,-2.0172 7.49431,-3.38782 7.83609,-3.04589 0.34193,0.34196 3.49261,-0.88011 7.00172,-2.71566 3.50908,-1.83555 7.22232,-3.01407 8.25165,-2.61892 2.3095,0.88656 2.40049,-0.50175 0.22784,-3.47429 -0.90404,-1.23681 -4.39246,-2.94695 -7.75208,-3.80031 -5.60736,-1.4243 -9.61813,-4.5774 -7.94789,-6.24827 0.37842,-0.37857 3.96124,0.43832 7.96181,1.81521 4.00064,1.37692 8.59167,2.50349 10.20239,2.50349 2.48892,0 2.9285,-0.62875 2.9285,-4.1889 0,-2.30388 -0.55959,-5.81988 -1.24352,-7.81331 -0.68396,-1.99342 -1.45354,-5.31207 -1.71021,-7.37477 -0.25689,-2.06274 -0.75753,-4.59424 -1.11306,-5.62559 -1.53652,-4.45723 -3.85289,-13.3212 -4.06708,-15.56311 -0.12791,-1.34021 -0.8415,-2.63972 -1.58542,-2.88781 -1.31719,-0.4392 -12.77465,-22.8723 -12.77465,-25.01203 0,-2.32199 -18.24548,-20.71016 -25.31445,-25.51237 -4.11998,-2.7989 -7.77298,-6.16805 -8.11778,-7.487 -0.34477,-1.31897 -1.2582,-2.18589 -2.02986,-1.92656 -0.77162,0.25941 -6.18293,-1.90512 -12.0251,-4.80997 -13.33009,-6.62806 -20.34202,-8.83282 -33.73525,-10.60749 -5.83907,-0.77373 -11.21063,-1.90006 -11.93681,-2.50297 -0.72618,-0.60289 -2.41578,-0.82285 -3.75464,-0.48882 -1.33887,0.33417 -8.90129,1.3995 -16.80541,2.36767 -7.90412,0.96817 -18.54818,2.6843 -23.65345,3.8136 -31.00348,6.85825 -66.03045,38.4611 -79.49525,71.72408 -3.90518,9.6472 -9.32098,33.44598 -9.32098,40.95942 0,6.52429 0.75046,6.67526 11.48725,2.31087 8.80248,-3.57808 11.00669,-3.84914 11.00669,-1.35351 0,0.98405 -2.63913,2.71027 -5.9359,3.88263 -8.8952,3.16316 -11.55939,4.61053 -11.55939,6.27996 0,2.1699 3.69027,4.92553 6.75222,5.04211 2.37755,0.0904 17.75339,4.03891 33.86183,8.69544 7.48272,2.16305 15.74983,3.76424 32.49124,6.29293 6.87316,1.03815 15.30838,2.39195 18.74496,3.0084 6.53008,1.17144 68.95224,0.42772 71.01246,-0.84605 z M 224.31449,326.07511 c -4.12388,-0.37492 -6.65445,-1.03394 -5.62348,-1.46449 3.46616,-1.44756 44.77454,-2.34843 45.61086,-0.99471 0.43179,0.69889 0.0464,1.50662 -0.85621,1.79494 -2.81191,0.89808 -31.24941,1.38079 -39.13117,0.66426 z m 110.86309,-1.38508 c 0.26182,-0.78602 3.54225,-1.59653 7.2897,-1.80118 3.74742,-0.20444 12.29639,-0.69799 18.9977,-1.09637 6.70135,-0.39839 12.18423,-0.24775 12.18423,0.33488 0,1.77509 -15.23133,3.99173 -27.42838,3.99173 -8.08595,0 -11.37751,-0.42598 -11.04325,-1.42909 z m -47.44268,-0.72539 c -2.2338,-0.27748 -4.06141,-0.92253 -4.06141,-1.43384 0,-0.51128 8.29463,-0.80753 18.43252,-0.65838 21.83963,0.32142 20.30703,0.18957 20.30703,1.74643 0,1.21059 -25.65191,1.46637 -34.67814,0.34586 z m 102.46609,-0.63952 c 0.35695,-1.07123 4.69307,-1.64537 14.16284,-1.87539 7.50661,-0.18212 16.36658,-0.89811 19.68878,-1.59065 5.87874,-1.22547 8.33074,-0.88499 8.33074,1.1568 0,1.2938 -22.5101,3.85311 -33.88978,3.85311 -6.43305,0 -8.66835,-0.41618 -8.29258,-1.54387 z M 233.1155,312.45408 c -1.04537,-1.69207 0.50507,-2.34407 10.6507,-4.4791 13.25005,-2.78827 15.22277,1.02979 2.17643,4.2123 -7.10444,1.73303 -11.86017,1.83193 -12.82713,0.26684 z m 180.83532,-1.58037 c -7.07361,-1.29058 -8.44267,-2.9864 -3.42748,-4.24558 1.9535,-0.49047 4.28971,-0.0283 6.20437,1.22629 1.68909,1.10715 4.21561,2.01303 5.6144,2.01303 1.3988,0 2.54328,0.56256 2.54328,1.25009 0,1.44784 -1.89368,1.4056 -10.93457,-0.24378 z M 261.19,307.39857 c -3.12917,-1.97653 0.0181,-3.50091 9.20793,-4.46015 6.87208,-0.71727 8.48293,-0.56504 8.04138,0.76016 -0.90284,2.70949 -14.27602,5.57806 -17.24931,3.69999 z m 123.75251,-1.50185 c -8.92152,-1.26534 -9.87127,-1.70231 -7.92691,-3.64737 2.01571,-2.01648 18.50272,0.22291 18.50272,2.5134 0,2.36043 -1.0981,2.47819 -10.57581,1.13397 z m -95.95595,-4.56471 c 3.50144,-2.30977 19.68017,-3.74843 19.68017,-1.75001 0,1.34234 -12.14878,4.03653 -18.15668,4.02653 l -4.96209,-0.007 3.4386,-2.2683 z m 61.85629,1.36587 c -5.83545,-0.46029 -7.77138,-2.20534 -4.03693,-3.63893 3.03399,-1.1647 18.4679,1.26339 19.03862,2.99515 0.52551,1.59459 -1.72431,1.69111 -15.00169,0.64378 z m -33.41588,-1.44685 c -4.59078,-1.2782 -1.38301,-2.69078 7.75545,-3.41507 9.15262,-0.72546 13.47623,0.13433 13.47623,2.6793 0,1.47633 -1.83551,1.82616 -9.06006,1.72676 -4.98302,-0.0684 -10.46024,-0.51447 -12.17162,-0.99099 z m -109.98293,25.34008 c 0,-1.66117 -0.33931,-1.74658 -1.87449,-0.47199 -1.03098,0.85594 -1.8745,1.76865 -1.8745,2.02826 0,0.25976 0.84352,0.47198 1.8745,0.47198 1.03097,0 1.87449,-0.91271 1.87449,-2.02825 z m 529.23229,41.24175 c -9.67614,-1.52256 -27.68826,-7.20375 -32.33158,-10.19767 -2.83709,-1.82934 -7.12651,-4.24125 -9.53214,-5.35981 -2.40562,-1.1186 -6.82366,-4.09156 -9.8179,-6.60661 -2.9942,-2.51502 -6.09867,-4.98915 -6.89875,-5.49802 -3.25187,-2.0684 -13.27528,-14.78552 -13.27528,-16.84294 0,-2.54826 -2.75205,-2.79472 -12.01362,-1.07597 -3.35859,0.62326 -11.44878,0.72858 -17.97824,0.23393 -7.59047,-0.57489 -17.27986,-0.30086 -26.8678,0.75983 -8.24776,0.91243 -22.30647,1.70805 -31.24155,1.76805 -20.93117,0.1407 -19.99276,0.23712 -18.23712,-1.87893 1.72201,-2.0757 30.80987,-3.56391 73.53514,-3.76232 29.86005,-0.13858 30.37656,-0.26578 26.08228,-6.41412 -0.94723,-1.35624 -3.89955,-9.2166 -6.56068,-17.46744 -4.80777,-14.90629 -4.83817,-15.12859 -4.78456,-35.00364 0.0319,-11.92393 0.71323,-22.77892 1.68636,-26.87778 3.12414,-13.1588 6.31609,-22.5185 9.90791,-29.05311 1.9879,-3.61656 3.96712,-7.98198 4.39827,-9.70091 1.89074,-7.5379 28.47532,-37.50388 33.27197,-37.50388 1.0677,0 2.66255,-1.1552 3.54394,-2.56715 1.56693,-2.50991 5.6851,-4.63537 20.86771,-10.77008 19.3837,-7.83219 39.25226,-8.73554 62.48314,-2.84096 8.24779,2.09279 17.24534,4.82773 19.9946,6.07765 2.74925,1.24993 6.87748,2.99816 9.17376,3.88507 11.36884,4.39086 34.81306,24.42092 39.55518,33.79476 1.19615,2.36445 3.13504,5.42412 4.30869,6.79928 3.53342,4.14 8.51113,16.79195 11.81183,30.02255 5.93142,23.77515 5.24197,54.86136 -1.71167,77.17605 -2.42333,7.77664 -2.89509,8.427 -6.01589,8.29338 -2.23597,-0.0957 -2.62092,-0.34374 -1.13312,-0.72954 1.76641,-0.4582 1.94216,-0.95949 0.81351,-2.31994 -1.11154,-1.33982 -0.87534,-2.66966 1.03606,-5.83367 1.3617,-2.25399 2.87327,-6.91101 3.35895,-10.34888 0.48572,-3.43782 1.5912,-7.09446 2.45661,-8.12582 2.56178,-3.05294 3.34028,-6.22486 1.33927,-5.45669 -1.43306,0.55012 -1.61331,-1.26328 -1.0316,-10.37726 0.7724,-12.10126 -1.15973,-33.72572 -3.89087,-43.54722 -4.7661,-17.13938 -16.05784,-37.44358 -26.07123,-46.8801 -10.17517,-9.58889 -21.71438,-16.47301 -35.32844,-21.07632 -7.5168,-2.54166 -14.22935,-4.96246 -14.91665,-5.37955 -0.68729,-0.41709 -3.63671,-1.15346 -6.55419,-1.63636 -2.91749,-0.48293 -5.62447,-1.39596 -6.01555,-2.02893 -1.14629,-1.85543 -30.31441,-1.14741 -38.66641,0.93857 -13.57575,3.39074 -19.38926,5.69328 -27.2385,10.7883 -4.26362,2.76761 -9.29852,5.03825 -11.18866,5.04591 -2.32983,0.0106 -3.43658,0.66649 -3.43658,2.04027 0,1.11452 -2.85361,4.81802 -6.34139,8.23 -10.54719,10.31816 -24.29593,32.43257 -29.11642,46.83289 -8.61874,25.74711 -9.07699,49.43479 -1.50597,77.85248 3.72855,13.99507 7.17122,22.18858 9.30252,22.13971 0.43643,-0.0106 3.32405,-0.91437 6.417,-2.00972 8.7822,-3.11011 22.20485,-6.72299 24.97745,-6.72299 1.38334,0 2.51514,0.75477 2.51514,1.67729 0,1.73917 -4.27369,3.26712 -16.55805,5.91982 -3.95206,0.85342 -7.18558,1.92038 -7.18558,2.37107 0,0.45069 10.25189,0.89074 22.78198,0.97794 14.78176,0.10279 22.93678,0.62327 23.22287,1.48194 0.4343,1.30336 -17.15226,2.1649 -36.30554,1.77857 -5.06176,-0.10208 -8.12714,0.30547 -7.68465,1.02175 0.40489,0.65536 -0.44511,1.5006 -1.88887,1.87832 -1.44379,0.37769 -2.62506,1.68562 -2.62506,2.90652 0,2.9034 13.28535,15.16094 20.20394,18.6409 2.97779,1.49777 6.25766,3.22425 7.28862,3.83656 11.60202,6.89086 25.54756,11.17352 42.20915,12.96232 15.24933,1.63722 47.66673,-4.78797 63.03341,-12.49324 3.24188,-1.62559 6.51465,-2.95561 7.27278,-2.95561 1.87671,0 12.16283,-7.00595 17.11846,-11.6595 2.22346,-2.08793 4.40624,-3.43255 4.85054,-2.98806 0.44433,0.44448 1.86576,0.24172 3.15879,-0.45048 1.82686,-0.97809 2.07393,-1.77637 1.10827,-3.58141 -1.10041,-2.05681 -0.74455,-2.32273 3.10826,-2.32273 7.99562,0 4.42857,4.8886 -9.3954,12.87632 -3.56984,2.06271 -7.98463,4.8755 -9.81067,6.25065 -3.03778,2.28769 -4.75129,3.33868 -11.12116,6.82123 -5.14829,2.8146 -25.41629,10.11714 -32.89688,11.85269 -8.26895,1.91838 -36.20452,3.48509 -43.02014,2.41271 z m -65.60735,-44.21401 c 0,-0.68758 -0.84348,-1.25014 -1.87448,-1.25014 -1.03096,0 -1.87448,0.56256 -1.87448,1.25014 0,0.68758 0.84352,1.25014 1.87448,1.25014 1.031,0 1.87448,-0.56256 1.87448,-1.25014 z m 59.98383,18.24266 c -5.1548,-0.90056 -10.03216,-1.39206 -10.83848,-1.0922 -1.83476,0.68223 -16.58257,-3.03352 -18.56175,-4.67669 -0.8054,-0.66869 -4.45263,-1.78271 -8.10496,-2.47561 -3.6523,-0.69293 -8.37645,-2.37267 -10.49818,-3.73273 l -3.85764,-2.47292 3.2501,-0.0213 c 4.32985,-0.0284 11.12103,2.40676 11.12103,3.98716 0,0.69949 1.3022,0.93638 2.9177,0.53077 1.60476,-0.4029 4.83824,-0.13503 7.18557,0.59534 15.75652,4.90236 33.14335,6.86155 57.06613,6.43039 11.80974,-0.21295 16.55798,0.11343 16.55798,1.13787 0,0.91871 0.78821,0.76445 2.18693,-0.42793 1.20281,-1.02532 10.05981,-3.44923 19.68219,-5.38646 9.62242,-1.93721 18.59311,-4.07894 19.93489,-4.7594 1.7026,-0.86345 2.5835,-0.80537 2.91586,0.19205 0.64754,1.94331 2.84623,1.82392 2.45491,-0.13327 -0.17362,-0.86855 0.92477,-1.57867 2.47295,-1.59873 1.53191,-0.0213 3.47205,-0.72304 4.31131,-1.56269 0.83931,-0.8396 2.34422,-1.52658 3.34428,-1.52658 2.51008,0 -1.72647,4.63028 -6.4924,7.09572 -6.62421,3.42684 -25.08062,7.67507 -37.68945,8.67524 -3.43654,0.27251 -7.93534,0.81455 -9.99726,1.20427 -8.45206,1.59756 -40.25218,1.60873 -49.36171,0.0177 z m 619.87949,-5.06011 c -1.2165,-1.46635 -0.8561,-2.67569 1.8593,-6.23698 2.7046,-3.54712 3.0075,-4.55649 1.5373,-5.12089 -1.0073,-0.38662 -2.8743,-3.90879 -4.1489,-7.82699 -2.9555,-9.08414 -3.86,-10.24937 -7.9561,-10.24937 -1.8464,0 -4.4487,-0.80906 -5.783,-1.79789 -2.3969,-1.77662 -2.3961,-1.82056 0.074,-3.71065 3.0431,-2.32879 6.1126,-2.48858 9.3195,-0.48505 1.9694,1.23039 2.845,1.11565 4.7677,-0.62507 2.5364,-2.29627 5.9698,-2.80397 7.0573,-1.04358 0.3699,0.59877 2.2934,1.41293 4.2745,1.80929 3.4892,0.69811 22.693,18.27452 22.693,20.76998 0,1.92534 -7.431,2.94653 -9.4207,1.29461 -1.4651,-1.21641 -2.6135,-0.90715 -5.8847,1.58473 -2.2354,1.70284 -5.3297,3.49622 -6.8761,3.98525 -1.5465,0.48906 -2.8117,1.59706 -2.8117,2.46221 0,1.52797 -5.0739,7.0094 -6.4883,7.0094 -0.387,0 -1.3827,-0.81856 -2.2128,-1.819 z m 14.3684,-13.95139 c 3.9133,-2.56502 3.9006,-4.65653 -0.043,-7.24203 -3.0902,-2.02553 -3.1242,-2.00749 -3.1242,1.65763 0,2.038 -0.5623,4.05311 -1.2497,4.47804 -1.6379,1.0127 -1.6081,3.12534 0.044,3.12534 0.7114,0 2.6796,-0.90853 4.3738,-2.01898 z m -0.4948,-15.52445 c -3.0088,-2.50754 -10.9718,-3.5156 -9.5464,-1.20853 0.4247,0.68758 2.1118,1.25014 3.7489,1.25014 1.6373,0 3.3243,0.56255 3.7491,1.25014 0.4247,0.68758 1.7232,1.23138 2.8854,1.20853 1.7128,-0.0354 1.5541,-0.50752 -0.837,-2.50028 z m -236.9673,26.71967 c -4.8015,-1.02909 -14.6426,-4.45905 -21.8691,-7.62206 l -13.1392,-5.75099 -51.2362,0.31432 c -41.77152,0.25622 -50.94429,0.0177 -49.65595,-1.29513 2.70525,-2.75518 15.84275,-3.45994 54.28705,-2.91223 27.4361,0.3909 37.3575,0.14814 38.0235,-0.9299 0.4957,-0.80233 0.2144,-1.68785 -0.6256,-1.96791 -0.8397,-0.27995 -5.4727,-4.2287 -10.2956,-8.77481 -6.1086,-5.75815 -8.5914,-8.94455 -8.1839,-10.50331 0.4065,-1.55511 -0.1208,-2.23755 -1.7292,-2.23755 -1.2728,0 -3.0478,-1.34383 -3.9444,-2.98625 -0.8967,-1.64246 -3.2166,-5.5572 -5.1554,-8.69944 -9.5474,-15.47314 -15.8396,-38.22799 -15.843,-57.29353 0,-14.71993 3.4597,-37.70431 6.2752,-41.65728 0.4897,-0.68754 1.8534,-4.20316 3.0304,-7.81242 1.3112,-4.02101 5.8842,-11.5208 11.8086,-19.36636 16.8519,-22.31693 38.31,-35.94821 64.486,-40.96488 4.124,-0.79035 9.4688,-1.86004 11.8776,-2.37709 2.4088,-0.51706 12.2499,-0.45941 21.8691,0.12794 34.1408,2.08517 54.0456,11.89233 76.5787,37.73047 18.2531,20.93025 28.9806,55.35397 25.3723,81.41731 -4.1881,30.25178 -6.9986,38.66283 -18.5891,55.63076 -6.3189,9.25055 -17.2202,20.91218 -20.5314,21.96352 -1.2252,0.38903 -2.2276,1.79452 -2.2276,3.12333 0,1.32881 -0.5623,2.416 -1.2497,2.416 -0.6873,0 -1.2496,0.87317 -1.2496,1.94041 0,1.66893 1.4832,1.82003 10.6014,1.0799 6.7049,-0.54424 11.1833,-0.38792 12.1842,0.42531 0.8706,0.70721 2.7075,1.56241 4.0821,1.9004 1.3746,0.33807 -5.7838,0.67986 -15.9076,0.75963 l -18.407,0.14496 -12.8346,5.69819 c -18.9632,8.41917 -28.2341,10.57283 -44.9904,10.45158 -7.745,-0.0559 -18.0102,-0.94391 -22.8116,-1.97302 z m 45.9554,-5.29163 c 9.9554,-2.18287 15.5959,-4.59062 14.1479,-6.03924 -0.3015,-0.30157 -1.7325,0.0861 -3.1802,0.86101 -4.1712,2.23319 -4.9853,0.48634 -2.3019,-4.93932 2.8427,-5.74773 3.6335,-5.94022 10.3435,-2.51799 2.6963,1.37516 5.8117,2.50027 6.9232,2.50027 3.2049,0 12.4207,-6.67964 20.5694,-14.90873 4.1239,-4.16463 8.2341,-7.57687 9.1338,-7.58283 0.8997,-0.007 1.3048,-0.54661 0.9002,-1.20151 -0.6018,-0.97406 3.337,-7.20313 9.1671,-14.49764 2.3625,-2.95582 10.5405,-21.66004 12.2713,-28.06616 2.1189,-7.84225 2.5948,-10.99268 3.456,-22.87664 0.3387,-4.6751 0.9222,-8.99605 1.2966,-9.60212 0.3745,-0.60607 0.1881,-1.40673 -0.4145,-1.77924 -0.6026,-0.37248 -1.477,-5.38122 -1.9434,-11.13047 -1.6227,-20.0066 -10.9958,-40.08776 -26.8374,-57.49708 -11.9593,-13.14286 -19.862,-18.96228 -33.416,-24.60693 -11.9469,-4.97532 -19.0858,-6.44137 -34.7816,-7.14273 -21.8236,-0.97516 -45.7884,3.23724 -60.0494,10.55522 -9.2352,4.73892 -22.1553,14.25184 -26.9484,19.84178 -2.8783,3.35667 -6.1464,7.01853 -7.2625,8.13741 -8.5016,8.52271 -15.0463,23.72862 -19.6042,45.54784 -2.5898,12.39702 -1.8775,31.3824 1.7791,47.42763 3.3668,14.77333 4.7252,18.2462 11.4219,29.20214 3.0929,5.06005 6.307,10.44038 7.1424,11.95629 2.4451,4.43693 20.4788,21.10382 26.0504,24.07604 l 5.1138,2.72796 12.1369,-3.78064 c 11.5764,-3.60611 15.7887,-3.90311 15.7887,-1.11328 0,1.46726 -4.6939,2.81605 -11.1271,3.19735 -5.9865,0.3548 -6.3682,0.45182 -6.3682,1.61847 0,0.55129 2.0041,1.05917 4.4537,1.12866 4.188,0.11874 9.2926,3.18793 9.2926,5.58731 0,0.5941 -1.4059,0.7272 -3.1242,0.2959 -4.3061,-1.08117 -4.0607,1.6572 0.3125,3.48559 1.8902,0.79025 5.686,1.578 8.4353,1.75058 2.7492,0.17256 8.0915,0.82794 11.8718,1.45638 9.3831,1.55982 22.2218,0.80764 35.351,-2.07117 z m -28.4779,0.0907 c -5.8459,-1.09379 -4.4993,-2.72519 2.2494,-2.72519 3.9177,0 7.1231,0.4987 7.1231,1.10821 0,1.29691 -5.7663,2.29173 -9.3725,1.61698 z m -11.166,-1.34408 c -0.3803,-0.6155 0.094,-1.42059 1.0537,-1.78906 1.8324,-0.70342 3.2392,0.10704 3.2392,1.86642 0,1.3961 -3.4207,1.33444 -4.2929,-0.0773 z m -9.4172,-1.33228 c -1.0111,-0.63967 -1.5489,-1.45259 -1.1952,-1.80646 0.9683,-0.96863 6.1576,0.63549 6.1576,1.90341 0,1.43392 -2.6237,1.38264 -4.9624,-0.0971 z m 32.7886,0.45086 c 0.4952,-0.49541 2.4504,-1.00073 4.3448,-1.12295 1.8945,-0.12228 4.7762,-0.65357 6.404,-1.18079 2.2186,-0.71859 2.8198,-0.53449 2.4011,0.73524 -0.3549,1.0766 -3.0168,1.83513 -7.3044,2.08155 -3.7102,0.21331 -6.3407,-0.0177 -5.8455,-0.51305 z m -37.8235,-6.69371 c 0,-2.24638 9.8565,-3.03633 17.4953,-1.40217 0.3437,0.0737 -0.2186,0.67901 -1.2497,1.34554 -2.4284,1.56995 -16.2456,1.61811 -16.2456,0.0567 z m 25.9043,0.28137 c -2.5917,-0.27039 -4.3862,-1.01983 -3.9876,-1.66502 0.8102,-1.31134 8.051,-1.58367 11.09,-0.41706 2.1845,0.83861 1.4471,3.11581 -0.9016,2.78416 -0.8186,-0.11555 -3.6089,-0.43151 -6.2008,-0.70208 z m 13.4398,-0.3707 c -0.4196,-0.67922 0.028,-1.53869 0.9953,-1.90993 2.9644,-1.13795 20.2693,-0.0142 20.2693,1.31768 0,1.64827 -20.2635,2.21267 -21.2646,0.59225 z m 16.4942,-4.53104 c -0.4473,-0.4474 -4.3369,-1.1506 -8.6435,-1.56266 -4.3067,-0.41206 -7.8304,-1.31176 -7.8304,-1.99934 0,-1.70904 8.1328,-2.36534 9.7136,-0.78383 0.7002,0.70041 2.8767,0.95261 4.8367,0.56047 3.6659,-0.73347 7.8502,1.47718 6.6065,3.49034 -0.8005,1.29571 -3.5119,1.46652 -4.6829,0.2952 z m -48.6419,-2.40149 c -1.6931,-1.70053 1.8009,-4.2861 5.7657,-4.26668 4.3365,0.0213 7.975,1.75086 6.1095,2.90421 -2.1195,1.31042 -10.9215,2.32029 -11.8752,1.36247 z m 16.859,-2.0981 c 0.65,-1.95274 3.9562,-2.64223 7.9099,-1.64954 5.0349,1.26417 3.3962,3.2122 -2.7023,3.2122 -4.0264,0 -5.5732,-0.46415 -5.2076,-1.56266 z m -985.25755,16.68029 c -14.99871,-0.70215 -19.8745,-1.70036 -15.85057,-3.24509 0.98511,-0.37818 10.76611,-0.53204 21.73555,-0.34196 16.74175,0.29023 19.94444,0.64672 19.94444,2.22082 0,2.24056 -3.35853,2.4182 -25.82942,1.36623 z M 0,326.26112 c 0,-1.57821 4.8295715,-2.09566 22.879164,-2.45124 16.065909,-0.31645 21.484043,1.28533 9.299665,2.74941 C 22.371084,327.73777 0,327.53046 0,326.26126 Z m 94.974374,-0.24027 c 0,-2.45623 4.532053,-3.43422 17.807696,-3.84284 11.0816,-0.3409 14.68354,-0.0722 14.68354,1.09581 0,0.85127 -1.26528,1.83045 -2.81174,2.17596 -4.53297,1.01279 -29.679496,1.49664 -29.679496,0.57107 z m -39.815178,-1.17454 c 2.99198,-1.74792 27.318547,-3.15958 27.318547,-1.58531 0,1.61816 -9.083597,2.86886 -20.481452,2.8201 -6.267483,-0.0283 -8.28202,-0.39066 -6.837095,-1.23479 z m 404.091954,0.0213 c -3.39754,-1.46049 -2.32866,-1.55124 15.61822,-1.32612 8.59001,0.10776 16.15362,0.73149 16.80796,1.38608 1.5103,1.51084 -28.90293,1.45461 -32.42618,-0.0598 z m 42.17691,-0.75257 c 1.89616,-1.98056 4.85209,-2.35169 22.18152,-2.78515 12.91383,-0.32283 19.99382,-0.0545 19.99382,0.75824 0,1.97046 -4.20764,2.55358 -24.99328,3.4638 -18.73864,0.82054 -19.29852,0.77372 -17.18206,-1.43689 z m 338.42583,0.82869 c -1.33541,-0.84527 -1.44188,-1.56036 -0.41641,-2.79642 1.14052,-1.37473 -1.5598,-1.49522 -15.68296,-0.69952 -17.63455,0.99346 -21.00154,0.69371 -19.50035,-1.73626 0.61328,-0.99258 5.37545,-1.23809 15.73583,-0.81126 13.60931,0.56072 18.12451,-0.0939 14.80521,-2.14591 -2.151,-1.3299 -1.40701,-3.13792 1.29136,-3.13792 1.40875,0 4.13433,0.8137 6.05682,1.80823 4.25566,2.20151 8.57162,1.27282 12.254,-2.63674 4.41659,-4.68913 7.03297,-3.36436 4.11768,2.08496 -0.77542,1.44947 -0.80444,2.61955 -0.0762,3.06985 1.57322,0.97267 55.01692,1.03096 64.12475,0.0698 7.36621,-0.77727 8.84785,0.16724 5.12054,3.26401 -2.31194,1.92081 -10.02076,2.09091 -49.42974,1.09067 -22.06626,-0.56008 -24.84971,-0.40316 -26.76929,1.50883 -2.0198,2.01181 -2.23512,2.01181 -3.76314,0 -1.5232,-2.00544 -1.62315,-2.00222 -1.66046,0.0539 -0.0429,2.35739 -3.25616,2.88214 -6.20774,1.01374 z m -99.34208,-3.68648 c -0.98985,-1.60225 7.49165,-2.41843 27.09369,-2.60727 16.97078,-0.16334 22.86188,1.34872 11.38493,2.92241 -8.70545,1.19364 -37.69313,0.95625 -38.47862,-0.31504 z m 217.35486,-0.0567 c -5.661,-0.40111 -9.33077,-1.14026 -8.46057,-1.70405 2.21737,-1.43675 37.494,-2.53441 35.95312,-1.11874 -2.12357,1.95104 -9.54942,4.00123 -13.62033,3.76037 -2.13122,-0.12617 -8.37372,-0.54799 -13.87222,-0.93758 z m 291.48393,-0.98929 c -1.2029,-0.29023 -2.1869,-1.08628 -2.1869,-1.76929 0,-0.73025 3.7322,-1.14269 9.06,-1.00123 10.1425,0.26933 13.4339,0.85441 13.4339,2.38819 0,1.05332 -16.2563,1.35939 -20.307,0.38233 z m 23.3313,-0.50587 c -0.3699,-0.59859 0.4523,-1.0884 1.8269,-1.0884 1.3746,0 2.8468,-0.56255 3.2716,-1.25014 1.1299,-1.82903 9.627,-1.45141 12.2589,0.54481 1.294,0.98146 1.7343,2.04151 1.0291,2.47756 -1.8604,1.15021 -17.6155,0.56426 -18.3865,-0.68383 z m 21.0317,-0.15098 c 0.2866,-0.85944 1.2705,-1.56265 2.1869,-1.56265 0.9164,0 1.9005,0.70321 2.1869,1.56265 0.31,0.92961 -0.5763,1.56269 -2.1869,1.56269 -1.6107,0 -2.4967,-0.63308 -2.1869,-1.56269 z m 8.6955,0.74737 c -1.2396,-0.52057 -1.2765,-1.08512 -0.1595,-2.43161 1.1326,-1.36506 5.6962,-1.75362 20.5979,-1.75362 17.7172,0 25.3414,1.33296 17.1145,2.9921 -5.0357,1.01555 -35.659,1.9885 -37.5529,1.19313 z m -811.29157,-9.18421 c -3.2366,-3.23782 -3.16085,-4.0222 0.84908,-8.78948 3.00377,-3.57113 3.86741,-3.91119 8.39137,-3.30415 8.04717,1.07971 10.56298,7.40234 3.63741,9.14119 -2.0335,0.51057 -3.78928,0.079 -5.12861,-1.26092 -1.88224,-1.88293 -1.7206,-2.03729 2.13328,-2.03729 3.56481,0 3.94409,-0.27216 2.61411,-1.87517 -2.17573,-2.6226 -4.12313,-2.34357 -7.30726,1.04705 l -2.74429,2.92222 2.61712,3.32844 2.6172,3.32839 -2.59005,0 c -1.42452,0 -3.7147,-1.12512 -5.08936,-2.50028 z m 323.66275,1.03351 c -11.83593,-3.27842 -13.74634,-4.05793 -13.74634,-5.60903 0,-0.92131 1.20005,-1.67513 2.66677,-1.67513 2.96578,0 12.60336,2.61864 13.57884,3.68954 0.3437,0.37726 1.74185,0.68594 3.10702,0.68594 1.37048,0 2.67087,0.97983 2.90342,2.18772 0.47505,2.46772 -1.57617,2.6415 -8.50971,0.72096 z m -686.41421,-3.14114 c -0.52196,-0.81544 -0.38949,-3.90949 0.29438,-6.87572 0.68388,-2.96623 1.25715,-7.22145 1.27394,-9.45605 0.0166,-2.23461 0.5929,-4.06293 1.28022,-4.06293 0.68731,0 1.24966,1.6498 1.24966,3.66614 0,4.31014 1.01369,4.75778 15.40983,6.80464 5.50315,0.78247 10.21564,2.05267 10.47222,2.82272 0.73656,2.21047 -2.2835,2.73968 -9.0273,1.58182 -3.42793,-0.58857 -8.78878,-1.42825 -11.91298,-1.86592 l -5.68038,-0.7958 -1.20529,4.83183 c -0.7397,2.96538 -1.57188,4.25914 -2.15429,3.34927 z m 581.44249,-0.70583 c 0,-2.63741 2.2949,-3.31078 14.47519,-4.24738 9.26206,-0.71221 10.51806,-0.5628 10.51806,1.25085 0,1.13277 -0.70292,2.14768 -1.56203,2.2553 -0.85918,0.10776 -2.96798,0.34268 -4.68624,0.52248 -1.71829,0.17964 -6.63884,0.73443 -10.93461,1.23256 -6.58272,0.76334 -7.81037,0.60402 -7.81037,-1.01381 z m 35.4762,-2.7242 c -0.43693,-1.13901 -0.5843,-2.27433 -0.32776,-2.52292 0.25689,-0.24881 4.67734,-0.64321 9.8235,-0.87692 8.10698,-0.36819 9.41272,-0.13362 9.77648,1.75603 0.35663,1.85239 -0.58238,2.18355 -6.23246,2.19804 -3.65879,0.0106 -7.91083,0.35451 -9.44894,0.76689 -1.93645,0.51921 -3.04087,0.11306 -3.59097,-1.32112 z m 29.50628,-0.71299 c 0,-2.72536 2.05193,-3.06329 10.30972,-1.69784 2.75619,0.45575 4.6862,1.4798 4.6862,2.48649 0,1.25857 -1.98465,1.71163 -7.498,1.71163 -6.66485,0 -7.49792,-0.27783 -7.49792,-2.50028 z m -297.19275,-4.39993 c -3.45944,-1.50316 -4.08083,-2.37394 -3.74896,-5.25343 0.55718,-4.83495 4.45804,-5.40871 4.99383,-0.7345 0.28949,2.52431 1.09484,3.51218 2.86384,3.51218 1.89723,0 2.50763,-0.92274 2.66365,-4.02682 0.16937,-3.36663 -0.50656,-4.4453 -4.12204,-6.57933 -2.37852,-1.40387 -4.10407,-3.21418 -3.8346,-4.02296 0.93575,-2.80825 6.82614,-6.18506 11.99997,-6.87926 6.63913,-0.89085 7.0149,1.5331 0.51665,3.33297 -9.47055,2.62313 -10.33912,6.29916 -1.48833,6.29916 5.34724,0 5.79175,0.62419 3.03757,4.26506 -1.01469,1.34128 -1.49605,3.63273 -1.09715,5.2226 0.56353,2.24609 -0.0762,3.23984 -3.08898,4.79838 -4.46506,2.30981 -3.54742,2.30286 -8.69545,0.0659 z m -323.88976,-10.7513 c -2.4056,-0.54742 -8.73202,-1.91925 -14.05871,-3.04855 -6.48932,-1.37576 -9.68488,-2.63057 -9.68488,-3.80297 0,-2.21716 1.77755,-2.18251 8.51824,0.16618 6.35051,2.21271 7.91599,1.59316 7.44754,-2.94737 -0.33279,-3.22532 -0.12335,-3.34397 5.90332,-3.34397 5.53199,0 6.29418,-0.32318 6.64838,-2.81835 0.26437,-1.86244 -0.37141,-3.05946 -1.87449,-3.52911 -7.66439,-2.39492 -10.39737,-4.33576 -10.39737,-7.3837 0,-2.44889 0.63656,-3.14558 2.87422,-3.14558 2.85697,0 5.87341,2.06677 5.87341,4.02423 0,0.56316 -1.40587,0.67096 -3.12415,0.23956 -1.90038,-0.47711 -3.12416,-0.2509 -3.12416,0.57745 0,1.88828 6.61663,3.42942 7.20051,1.67715 0.25246,-0.75753 1.25306,-1.07249 2.22365,-0.69991 1.0832,0.41581 2.33601,-0.57691 3.24401,-2.57048 0.81362,-1.78637 1.95139,-3.24795 2.52839,-3.24795 1.69273,0 1.20388,5.4732 -0.73638,8.24436 -0.982,1.40255 -1.96611,4.76241 -2.18691,7.46641 -0.42254,5.17447 -1.00301,5.43338 -9.14911,4.08115 -1.93417,-0.32106 -2.49933,0.28031 -2.49933,2.65917 0,2.48181 0.80482,3.23874 4.17719,3.92873 4.41539,0.90339 7.37185,2.9589 5.61659,3.90499 -0.57538,0.31007 -3.01436,0.1159 -5.41996,-0.43138 z M 1345.887,285.89668 c 0,-0.92224 1.3255,-4.20383 2.9456,-7.29246 1.6201,-3.08859 3.3178,-7.16265 3.7728,-9.05348 0.7362,-3.05954 0.4808,-3.43786 -2.3207,-3.43786 -2.283,0 -3.148,-0.66674 -3.148,-2.42647 0,-1.33458 0.5623,-2.77416 1.2496,-3.19912 0.6873,-0.42492 1.2497,0.10456 1.2497,1.17636 0,1.07193 0.5124,1.94899 1.1386,1.94899 1.3862,0 7.609,-7.23512 7.609,-8.84682 0,-0.63486 0.8436,-1.15422 1.8745,-1.15422 1.031,0 1.8745,0.53609 1.8745,1.19132 0,1.76758 -2.7855,7.55912 -3.6371,7.56241 -0.4052,0.001 -0.792,1.59664 -0.8594,3.54456 -0.231,6.67055 -11.7491,26.2643 -11.7491,19.98679 z m 41.9343,-2.16763 c -0.4345,-0.70327 0.4231,-3.65746 1.9058,-6.5648 l 2.6957,-5.2861 -2.8231,-2.28687 c -2.568,-2.08032 -3.0855,-2.11487 -5.7287,-0.38237 -4.5671,2.99363 -12.0403,2.45269 -15.3897,-1.11395 l -2.8346,-3.01847 2.5703,-1.37604 c 1.4495,-0.7761 2.2761,-2.14279 1.8957,-3.13453 -1.8022,-4.69831 7.5234,-11.41445 11.3908,-8.20353 3.1423,2.60889 2.122,5.84199 -3.3122,10.49523 -4.221,3.61437 -4.7985,4.58895 -3.1042,5.23936 2.8969,1.11204 13.8802,-6.69304 15.5148,-11.02533 1.3715,-3.6351 4.022,-4.73311 4.022,-1.66623 0,0.98659 -0.5129,3.14313 -1.1396,4.79232 -0.6634,1.7454 -0.6783,3.73857 -0.036,4.76936 1.566,2.51168 4.9215,0.21082 8.0484,-5.51895 1.3746,-2.51881 3.2023,-4.5812 4.0614,-4.58304 1.9467,-0.003 1.9436,0.0709 -0.1874,4.49253 -0.9622,1.99647 -3.2362,7.00528 -5.0531,11.13071 -1.8169,4.12542 -4.0008,8.90718 -4.8529,10.62611 -1.6102,3.24767 -6.2682,4.84101 -7.6437,2.61459 z m -9.4431,-26.52012 c 0,-2.21678 -0.3086,-2.39729 -1.8745,-1.09708 -1.0309,0.85593 -1.8745,2.04994 -1.8745,2.65332 0,0.60339 0.8436,1.09705 1.8745,1.09705 1.0775,0 1.8745,-1.1282 1.8745,-2.65329 z m -851.02044,22.17408 c 0,-1.79043 -1.232,-3.78907 -3.08398,-5.00299 -1.81949,-1.19262 -2.79993,-2.76201 -2.39117,-3.82763 0.40436,-1.0541 -1.17337,-3.67309 -3.78914,-6.28981 -2.46508,-2.46604 -4.482,-5.01951 -4.482,-5.67441 0,-0.65488 2.27207,-2.69486 5.0491,-4.53332 3.65142,-2.41728 4.67058,-3.71994 3.68161,-4.70571 -0.98802,-0.98479 -3.43574,-0.21863 -8.81926,2.76051 -4.09844,2.26799 -8.01372,3.77618 -8.70059,3.35147 -2.0329,-1.25687 -0.47597,-2.53656 8.03275,-6.60246 6.77037,-3.23521 7.95125,-4.26244 7.38602,-6.42468 -0.48253,-1.84587 -0.0776,-2.57381 1.4316,-2.57381 1.60544,0 1.89954,0.66706 1.24023,2.81279 l -0.86425,2.81279 2.96699,-2.6018 c 5.02261,-4.40447 12.19111,-8.02561 13.07031,-6.60247 1.08386,1.7544 -1.27503,3.92647 -6.01346,5.53724 -5.16777,1.75678 -7.06117,4.74838 -5.04719,7.97455 1.35921,2.17726 0.98699,2.7428 -3.44569,5.23503 -7.81366,4.3932 -5.35932,7.03919 2.67438,2.88324 2.07397,-1.07289 4.71721,-1.72113 5.87389,-1.44058 1.32558,0.32177 -0.64191,1.76925 -5.32251,3.9163 -5.59272,2.56544 -6.98074,3.68768 -5.62351,4.54674 4.01421,2.54078 8.20746,1.59455 23.18322,-5.23128 5.79656,-2.64206 6.73625,-2.8124 6.73625,-1.22126 0,1.21066 -14.88891,8.73116 -19.9946,10.09941 -1.96282,0.52602 -3.1242,1.73321 -3.1242,3.24757 0,3.53828 5.77785,2.90524 16.51624,-1.80962 9.29288,-4.08019 11.60121,-4.63927 11.60121,-2.80974 0,0.60289 -2.95232,2.33818 -6.56075,3.85619 -12.34737,5.19439 -17.38453,7.87025 -18.0421,9.5844 -1.10353,2.87693 -4.1394,1.94799 -4.1394,-1.26666 z m -64.1852,-3.07845 c -1.20727,-1.33452 -1.85584,-3.5777 -1.53623,-5.31307 0.30437,-1.65185 0.59502,-3.42532 0.64612,-3.94099 0.051,-0.51568 0.65516,-0.93762 1.34252,-0.93762 0.6873,0 1.24966,1.68767 1.24966,3.75041 0,2.87289 0.56487,3.75038 2.41423,3.75038 2.60532,0 5.69253,-3.78387 9.94461,-12.18876 2.35835,-4.66167 3.20226,-5.31306 6.8833,-5.31306 5.02629,0 7.32511,2.37943 6.77866,7.01626 -0.562,4.76851 -3.04093,5.10285 -3.9545,0.53336 -1.4495,-7.25018 -5.16345,-4.71688 -10.91215,7.44331 -3.13218,6.62536 -3.97481,7.5094 -7.15844,7.5094 -1.98457,0 -4.54861,-1.03932 -5.69778,-2.30962 z m 949.38674,0.31149 c -5.1032,-2.51799 -6.1088,-7.19777 -2.5744,-11.97999 2.8266,-3.82469 5.3736,-4.75604 4.1283,-1.50958 -0.6335,1.65164 -0.1516,1.87326 2.6781,1.23104 l 3.4507,-0.78326 -2.9072,2.48441 c -4.4096,3.76862 -2.6944,7.08678 4.1979,8.12071 6.0581,0.90882 7.2299,2.4512 2.7707,3.6467 -4.4496,1.19287 -7.5144,0.87709 -11.7441,-1.21003 z m -916.42151,-2.06497 c 0.0106,-0.85945 1.41499,-2.8848 3.11804,-4.50079 l 3.0965,-2.93817 1.09155,2.93817 c 1.56405,4.21003 0.4293,6.06347 -3.71243,6.06347 -2.0706,0 -3.60606,-0.66765 -3.59366,-1.56268 z m 836.77681,-5.62558 c 1.0356,-4.3341 2.796,-7.81221 3.9563,-7.81696 0.4913,-0.002 0.9355,-1.97099 0.987,-4.37549 0.051,-2.40445 -0.276,-4.37176 -0.728,-4.37176 -0.4521,0 -2.6296,2.25024 -4.839,5.00052 -4.8034,5.97963 -6.6297,6.24771 -8.5153,1.25014 -0.7783,-2.06274 -1.9654,-3.75042 -2.6378,-3.75042 -1.34,0 -3.3179,5.88662 -2.8691,8.53895 0.349,2.06207 -3.2423,7.71274 -4.9018,7.71274 -0.6714,0 -1.2216,-0.98447 -1.2224,-2.18772 0,-2.78877 4.8181,-23.78369 6.3144,-27.50286 1.5623,-3.88344 4.733,-3.53091 5.6217,0.62508 0.4043,1.89083 1.2586,4.73009 1.8983,6.30947 0.6397,1.57939 1.1632,3.97026 1.1632,5.31303 0,1.34281 0.3376,2.44145 0.75,2.44145 0.4125,0 4.0781,-3.59375 8.1459,-7.98609 6.7127,-7.24834 12.3483,-10.989 12.3483,-8.19624 0,0.59697 -1.9682,5.23351 -4.3738,10.30345 -2.4056,5.06997 -4.3738,9.94855 -4.3738,10.8413 0,0.89276 -0.6513,3.79808 -1.4475,6.45626 -1.0063,3.36025 -2.156,4.833 -3.7728,4.833 -1.9028,0 -2.1759,-0.62471 -1.5038,-3.43785 z m 85.7726,-9.61014 c -3.0462,-1.68558 -2.5069,-3.20369 1.1382,-3.20369 1.4579,0 2.291,0.9092 2.291,2.50028 0,1.37512 -0.1406,2.44509 -0.3125,2.37766 -0.1718,-0.0673 -1.5743,-0.82082 -3.1168,-1.67425 z m -69.8193,-4.6752 c 0.9626,-4.81422 1.6601,-5.63692 3.348,-3.94836 0.8851,0.88542 0.8158,2.32741 -0.2214,4.60462 -2.0992,4.60886 -4.0955,4.18986 -3.1267,-0.65626 z m -394.6637,-1.96635 c 1.69037,-7.6572 5.81216,-19.06447 6.88851,-19.06447 0.63127,0 1.14782,2.46473 1.14782,5.47717 l 0,5.47718 5.93585,1.43866 c 8.85802,2.14687 12.80902,3.96232 12.80902,5.88554 0,2.3491 -2.54742,2.16796 -10.92242,-0.77673 -9.77513,-3.43695 -11.48113,-3.26476 -12.38379,1.25013 -0.4124,2.0627 -1.53372,3.75038 -2.49186,3.75038 -1.25136,0 -1.52834,-0.96845 -0.98313,-3.43786 z m 404.857,-11.98605 c -3.6658,-6.25746 -3.8287,-7.07842 -1.4044,-7.07842 0.975,0 2.9891,1.96897 4.4758,4.37545 3.1876,5.15972 4.9068,5.40987 9.5745,1.39333 2.6604,-2.2891 3.1477,-3.37857 2.0973,-4.68799 -3.5795,-4.46174 -3.1396,-7.0313 2.0218,-11.80849 2.7782,-2.5715 5.0513,-5.13376 5.0513,-5.69383 0,-1.37169 -6.3383,1.11392 -9.0111,3.53379 -1.2638,1.14414 -3.0487,1.59203 -4.3513,1.09198 -1.8814,-0.72224 -1.4718,-1.4786 2.7652,-5.10524 l 4.9738,-4.25733 -3.8115,-0.0468 c -2.0963,-0.0248 -4.4297,0.57148 -5.1852,1.32739 -1.5186,1.51913 -7.0361,0.30405 -6.0282,-1.32761 0.348,-0.56284 -0.7687,-1.94172 -2.4812,-3.06414 -4.1442,-2.71641 -3.9289,-6.07485 0.6356,-9.91711 2.062,-1.73566 3.749,-3.75464 3.749,-4.48659 0,-2.12793 -4.1016,-1.48823 -7.498,1.16942 -3.3231,2.60035 -6.2483,3.23949 -6.2483,1.3652 0,-0.62426 1.6346,-2.17131 3.6323,-3.43786 1.9977,-1.26655 9.0287,-6.38134 15.6242,-11.36623 11.2547,-8.50621 16.6164,-11.11289 15.4284,-7.50079 -0.2827,0.85948 -4.8334,4.60678 -10.1128,8.32735 -8.7558,6.17053 -9.4333,6.9478 -7.713,8.84934 2.7857,3.07948 2.3556,4.53158 -2.4879,8.39769 -6.916,5.52023 -5.4013,6.46643 5.6234,3.51306 l 3.1242,-0.83691 -2.8117,2.48309 c -1.5465,1.36569 -2.8118,2.81481 -2.8118,3.22028 0,0.40547 3.1176,0.73722 6.9279,0.73722 5.8062,0 6.8685,0.34091 6.5607,2.10466 -0.236,1.35333 0.7151,2.36973 2.6644,2.84727 4.8248,1.18192 4.3685,3.14466 -2.0384,8.76628 -3.2955,2.8915 -4.8671,4.70086 -3.4925,4.02076 5.9732,-2.95525 18.1202,-1.027 18.1202,2.87643 0,0.85807 -3.4726,3.0667 -7.717,4.9081 -4.2443,1.8414 -10.1771,5.00902 -13.184,7.03912 -7.7738,5.24836 -10.7807,4.89318 -14.6617,-1.73176 z m 25.6683,-9.00685 c 4.4427,-2.29829 3.8591,-4.23994 -1.0103,-3.36175 -3.7823,0.68216 -6.5906,2.46892 -6.5906,4.19313 0,1.68544 3.4693,1.30595 7.6009,-0.83138 z m -884.86433,4.47268 c 0,-0.66337 1.12468,-1.8083 2.49931,-2.54425 1.37466,-0.73595 2.49938,-2.11561 2.49938,-3.06592 0,-0.95031 2.578,-2.71275 5.72896,-3.91654 5.92062,-2.26196 6.31428,-3.28963 3.67048,-9.58175 -1.32719,-3.15865 2.64252,-2.87321 4.34682,0.31256 1.63173,3.05004 3.44494,3.16305 6.49187,0.40459 1.83862,-1.66458 2.63012,-1.77727 3.84736,-0.54775 1.21308,1.22522 0.67578,2.25006 -2.57726,4.91582 -3.81026,3.12237 -3.97258,3.5496 -2.22665,5.86078 2.39733,3.17354 2.43343,4.36811 0.13216,4.36811 -1.00676,0 -2.43241,-1.12512 -3.1681,-2.50024 -1.96792,-3.67844 -4.8807,-3.06499 -11.87182,2.50024 -6.12804,4.87822 -9.37247,6.19172 -9.37247,3.79439 z m -333.61458,-1.86443 c -2.29982,-2.77215 -0.42731,-4.4302 5.00317,-4.4302 4.23151,0 5.01212,-0.4425 5.71374,-3.23906 0.58878,-2.34676 0.11672,-3.93526 -1.71359,-5.76626 l -2.52624,-2.52718 -8.34708,3.34062 c -9.90276,3.96321 -13.90831,3.76463 -17.34452,-0.85994 l -2.54583,-3.42624 3.58926,-7.51242 c 1.97409,-4.13181 4.02174,-7.51237 4.55035,-7.51237 1.72913,0 7.327,2.88044 7.327,3.77019 0,0.47775 -1.8205,1.39092 -4.04555,2.02931 -4.65233,1.33476 -7.85839,6.27876 -5.73298,8.84069 1.93995,2.33837 7.50173,1.98 14.96916,-0.96448 7.9928,-3.15163 11.42167,-2.44386 13.92774,2.87495 2.52501,5.35903 1.44242,10.25335 -3.11694,14.09122 -4.18303,3.52109 -7.49253,3.96129 -9.70769,1.29117 z m 810.98585,-2.55503 c -3.40299,-2.51154 -3.75066,-3.12531 -1.77052,-3.12531 2.80357,0 8.01882,3.29835 8.01882,5.07139 0,1.91819 -1.75181,1.37261 -6.2483,-1.94608 z m -482.99382,-3.1224 c -0.43579,-1.37356 -2.16075,-2.84093 -3.83319,-3.26085 -3.85352,-0.96754 -3.91595,-4.23473 -0.14882,-7.77533 3.2483,-3.05273 9.75732,-3.62595 12.32685,-1.08553 0.90822,0.89793 2.73526,2.04371 4.0601,2.54621 2.14845,0.81483 2.20482,1.11763 0.5214,2.80166 -1.03809,1.03844 -3.5279,2.02804 -5.53291,2.19913 -3.12056,0.26614 -3.61173,0.79793 -3.41033,3.69159 0.27886,4.00417 -2.77809,4.68187 -3.98331,0.88312 z m 5.61029,-6.86381 c 1.24682,-1.50295 1.17022,-2.00367 -0.39883,-2.60599 -3.08105,-1.18274 -6.39624,-0.0733 -6.85177,2.29301 -0.53493,2.77888 5.00641,3.01807 7.2506,0.31291 z m 0.6497,8.09063 c 0.43169,-0.69878 1.30841,-0.94687 1.94826,-0.55125 1.73331,1.07164 1.41009,1.8218 -0.78495,1.8218 -1.07153,0 -1.59502,-0.57174 -1.16331,-1.27055 z m 461.18977,-4.84668 c -3.39438,-1.19522 -6.39355,-2.83927 -6.66489,-3.65354 -0.68677,-2.0611 1.62999,-1.84688 6.33175,0.58539 2.19635,1.13617 5.3556,2.12064 7.0206,2.18771 1.66503,0.067 3.26105,0.82515 3.54674,1.6846 0.69934,2.1037 -2.74422,1.83311 -10.2342,-0.80416 z m 13.05506,-3.81817 c -1.02518,-0.66646 -3.20733,-0.87448 -4.84912,-0.46228 -2.20273,0.55307 -2.83525,0.29378 -2.41334,-0.9896 0.73743,-2.24304 6.41615,-2.90029 11.06167,-1.28026 4.7982,1.67332 6.33185,-0.64651 2.39262,-3.61901 -2.63622,-1.98921 -2.72399,-2.3731 -0.94865,-4.14908 1.7753,-1.77599 2.16411,-1.72736 4.20215,0.52541 1.23512,1.36538 2.24854,4.29412 2.25198,6.50836 0.007,3.79864 -0.27142,4.04429 -4.9134,4.35205 -2.70588,0.17929 -5.75861,-0.21897 -6.78391,-0.88559 z m -498.05241,-5.14936 c -0.45305,-0.73328 -0.52367,-1.63345 -0.15697,-2.00036 0.89514,-0.89549 3.33241,0.68236 3.33241,2.15731 0,1.59764 -2.15745,1.49101 -3.17555,-0.15697 z M 178.5511,202.91498 c -5.7593,-5.88076 -10.65889,-11.22509 -10.88799,-11.87623 -0.84505,-2.4018 2.88629,-1.08132 6.36894,2.25392 2.41726,2.3149 5.09282,3.51426 8.19119,3.67177 8.57415,0.43595 13.97383,1.86277 13.97383,3.69248 0,2.89015 -3.89957,3.53361 -7.80971,1.28865 -2.00189,-1.14935 -4.15657,-2.08974 -4.78819,-2.08974 -2.61039,0 -0.85866,3.87508 3.22539,7.13498 4.09228,3.26641 5.75599,6.61646 3.28592,6.61646 -0.59837,0 -5.80009,-4.81152 -11.55938,-10.69229 z m 300.06979,8.99952 c 0,-0.39055 1.23409,-1.86022 2.74237,-3.26596 3.90916,-3.64329 1.55282,-5.25566 -4.56902,-3.12648 -2.72293,0.94704 -5.18056,1.49203 -5.46144,1.21109 -0.28099,-0.28102 1.47324,-2.38256 3.89796,-4.67021 4.44125,-4.19015 7.13916,-4.74867 7.13916,-1.47786 0,0.97405 1.05583,1.77103 2.3463,1.77103 1.29044,0 3.00608,0.79527 3.8125,1.7673 1.15983,1.39805 0.88146,2.31224 -1.33232,4.37545 -1.53914,1.43448 -3.20879,2.60813 -3.71027,2.60813 -0.50152,0 -1.80135,0.34162 -2.8885,0.75882 -1.08723,0.41738 -1.97674,0.43927 -1.97674,0.0485 z m 508.61285,-0.45331 c 0,-0.60735 0.51991,-1.6387 1.1554,-2.29187 0.66416,-0.68269 0.73343,-3.45803 0.16299,-6.52763 -1.13889,-6.12758 0.46489,-8.22625 2.63888,-3.45309 1.6926,3.71624 0.14421,12.0335 -2.3951,12.86523 -0.85911,0.28138 -1.56206,0.0142 -1.56206,-0.59264 z m -15.40098,-4.60741 c -1.33169,-3.47157 3.93413,-4.65002 6.57173,-1.4707 1.20958,1.45797 1.01279,1.65613 -1.09665,1.10432 -1.46105,-0.38223 -2.57074,-0.0701 -2.57074,0.7234 0,1.98861 -2.10377,1.72998 -2.90434,-0.35702 z m -511.44364,-8.87312 c -0.49068,-1.95575 -1.66872,-3.12534 -3.14795,-3.12534 -2.52786,0 -3.36628,-4.23321 -1.11423,-5.62559 0.68737,-0.42495 1.24969,-1.6607 1.24969,-2.74617 0,-1.66435 -1.11242,-1.84271 -7.10093,-1.13862 -6.86452,0.80708 -7.03098,0.7575 -4.99864,-1.48898 3.35657,-3.7104 2.52028,-4.62106 -4.33712,-4.72262 -5.5119,-0.0815 -6.88539,-0.62092 -9.55176,-3.75037 -1.71277,-2.0103 -4.86071,-4.26188 -6.99538,-5.00357 -2.13466,-0.74169 -4.60601,-2.83285 -5.49187,-4.64702 -1.32116,-2.70571 -2.22789,-3.175 -5.04536,-2.61131 -2.31303,0.4628 -4.39196,-0.0883 -6.36608,-1.68739 -2.50809,-2.03166 -2.72055,-2.76867 -1.47146,-5.1036 1.71694,-3.20933 2.99073,-3.4217 5.12107,-0.85385 2.85126,3.43687 5.14417,1.97078 8.30951,-5.31303 3.56776,-8.20988 8.39552,-12.67466 11.5515,-10.68319 2.73069,1.72311 2.56922,7.87873 -0.25193,9.60931 -1.78774,1.09666 -2.6011,0.92771 -3.89186,-0.80834 -1.46615,-1.97202 -1.90095,-1.54678 -4.28432,4.19043 -2.38553,5.74231 -2.434,6.29208 -0.48196,5.46066 1.19389,-0.50845 4.31001,-1.53406 6.92476,-2.27908 3.88081,-1.10577 4.96772,-1.01679 5.91679,0.48442 0.63943,1.01151 1.17121,2.22082 1.18173,2.68738 0.0415,1.84051 -4.05645,4.77578 -6.63084,4.74948 -2.66623,-0.0283 -2.6583,-0.0772 0.38303,-2.41476 3.68731,-2.83416 2.53729,-4.78783 -1.68537,-2.86312 -3.0639,1.39653 -5.21132,7.54346 -3.31834,9.49875 1.24114,1.28204 10.96207,-0.18177 11.9627,-1.80157 0.38785,-0.62776 1.2662,-1.14138 1.9519,-1.14138 0.68573,0 0.37134,1.25032 -0.69857,2.77846 -1.06993,1.5281 -1.94538,4.13834 -1.94538,5.80046 0,2.90584 0.2576,2.99547 6.6931,2.33103 6.60263,-0.68173 17.67752,-5.48012 27.20328,-11.7863 5.19215,-3.43726 8.22628,-3.00563 5.83196,0.82968 -1.19912,1.92082 -0.8961,3.19229 1.69937,7.1303 5.13599,7.79261 6.18793,10.19126 4.83591,11.02714 -0.67667,0.4184 -3.29106,-2.50088 -5.80968,-6.4873 -2.51862,-3.98639 -4.74144,-7.44558 -4.93955,-7.68708 -0.78973,-0.96254 -19.4563,8.84926 -20.11815,10.57479 -0.99571,2.59573 -0.45932,2.88497 8.17033,4.40563 4.22129,0.74385 7.67502,1.78662 7.67502,2.31732 0,0.53069 -1.6684,1.65624 -3.70754,2.50119 -2.03921,0.84495 -4.35742,2.31958 -5.15169,3.27698 -1.16585,1.40532 -0.87289,1.73304 1.52069,1.70093 1.63056,-0.0213 4.0563,-0.86568 5.3905,-1.87517 2.9643,-2.24297 8.96311,-2.41055 9.76426,-0.27287 1.58637,4.23338 -4.6406,9.68851 -11.05937,9.68851 -2.11252,0 -3.18158,-0.89301 -3.74167,-3.12531 z m 9.56629,-0.66905 c 2.5566,-1.36877 3.34219,-4.95653 1.08535,-4.95653 -2.27619,0 -5.83749,2.34052 -6.60472,4.34072 -0.86011,2.24222 1.90523,2.55074 5.51937,0.61581 z M 410.11852,158.3307 c -0.89671,-0.89705 -1.47873,-0.97087 -1.47873,-0.18744 0,1.66865 1.47781,3.14706 2.31183,2.31274 0.35511,-0.35522 -0.0213,-1.31158 -0.8331,-2.12521 z m 229.468,32.40031 -10.55848,-7.87472 -2.23388,5.40308 c -1.22868,2.97169 -3.26349,5.95426 -4.52176,6.62795 -4.16842,2.2317 -3.96896,-1.05924 0.47505,-7.83989 2.36782,-3.61274 5.81443,-9.80333 7.65911,-13.75686 1.84475,-3.95354 3.8424,-7.18824 4.43923,-7.18824 2.29057,0 2.45105,2.52788 0.47424,7.47024 -1.12957,2.82414 -1.84277,5.28808 -1.58492,5.47544 3.50156,2.54432 13.73711,10.74973 16.30775,13.07333 2.9802,2.69372 3.59865,6.48436 1.05799,6.48436 -0.52572,0 -5.70717,-3.54361 -11.51433,-7.87469 z M 193.4155,187.50949 c -1.49525,-5.09048 -4.84277,-10.93723 -10.91423,-19.06273 -8.85634,-11.8525 -10.36858,-15.57127 -6.87708,-16.91159 2.86694,-1.10056 5.98892,2.40088 10.50281,11.77935 4.65733,9.67647 8.98945,16.51853 10.4667,16.53089 0.5618,0.004 0.6645,-1.11658 0.22823,-2.49174 -2.40291,-7.57371 4.07113,-9.93827 10.06753,-3.67705 l 3.66199,3.82373 2.1953,-2.71208 c 2.88622,-3.56569 2.78338,-4.81798 -0.94343,-11.48846 -2.71661,-4.86234 -2.89274,-5.82211 -1.30963,-7.13646 3.90976,-3.246 9.447,2.41314 9.447,9.65499 0,2.1515 0.60151,2.85333 2.18691,2.55177 1.76608,-0.33595 2.30716,-2.13354 2.81175,-9.34117 0.77886,-11.12536 2.64687,-13.53248 10.77647,-13.88642 8.38514,-0.36507 10.36703,-1.263 11.1762,-5.06352 1.48238,-6.96233 2.95876,-9.16593 5.86441,-8.75294 3.83167,0.54455 4.42038,5.98448 0.98431,9.09522 -2.87897,2.60645 -3.29154,5.6959 -1.05888,7.9294 2.07994,2.08071 4.76399,1.87383 7.46973,-0.57574 3.10604,-2.81198 4.50152,-1.07306 1.65975,2.06823 -3.35317,3.70658 -8.96146,3.24151 -12.73084,-1.05577 -2.96978,-3.3857 -3.35209,-3.48591 -7.6539,-2.00646 -5.41531,1.86238 -6.13309,3.3958 -3.48328,7.44143 2.52286,3.8518 2.52822,5.62948 0.017,5.62948 -1.1462,0 -2.80498,-2.11366 -3.95277,-5.03673 -1.08775,-2.77019 -2.58898,-4.83499 -3.33604,-4.58842 -0.74706,0.24669 -1.67834,4.06017 -2.06953,8.4746 -0.8727,9.84857 -2.57761,13.21482 -7.20825,14.23224 -1.96155,0.43099 -4.79481,2.44567 -6.29612,4.47708 -1.50132,2.03142 -3.25561,3.69347 -3.89844,3.69347 -0.64282,0 -3.18543,-1.77134 -5.65022,-3.93625 -6.20353,-5.44882 -7.55685,-3.55108 -4.4922,6.29934 1.99179,6.40204 2.12023,7.9153 0.71756,8.45376 -0.93966,0.36071 -2.29777,0.29165 -3.01799,-0.15381 -0.72023,-0.4453 -1.30951,0.0673 -1.30951,1.13933 0,4.22983 -1.98354,1.57427 -4.03124,-5.39703 z m 22.34619,-25.77268 c -0.79448,-1.71355 -1.8542,-3.11997 -2.35496,-3.12531 -0.50075,-0.004 -0.26989,1.39663 0.513,3.11556 0.78291,1.71893 1.84265,3.12531 2.35496,3.12531 0.51233,0 0.28149,-1.40198 -0.513,-3.11556 z m 36.67022,-25.01236 c 0,-1.03135 -0.56235,-1.87517 -1.24966,-1.87517 -0.68732,0 -1.24967,0.84382 -1.24967,1.87517 0,1.03139 0.56235,1.87521 1.24967,1.87521 0.68731,0 1.24966,-0.84382 1.24966,-1.87521 z m 610.88547,54.39654 c -2.51546,-1.35308 -5.76861,-3.98004 -7.22927,-5.83767 -2.31059,-2.93856 -2.42206,-3.61121 -0.85741,-5.17639 2.33242,-2.33333 4.53742,-0.91564 4.53742,2.9173 0,4.50217 6.02118,7.62578 13.43388,6.96913 2.21241,-0.19595 1.94981,-2.63865 -0.28382,-2.63865 -1.01512,0 -2.81427,-1.54703 -3.99812,-3.43783 -1.18389,-1.89084 -3.16506,-4.44427 -4.40263,-5.67431 -3.13062,-3.11153 -2.86987,-3.88057 2.12361,-6.2627 7.59366,-3.62252 4.71161,-6.70949 -3.56963,-3.82349 -6.70607,2.33709 -8.30048,0.70087 -2.49265,-2.55814 7.10043,-3.98436 6.4041,-6.45579 -1.69792,-6.02634 -5.79465,0.30724 -6.74086,-0.007 -8.60453,-2.85181 -1.15164,-1.75829 -1.75631,-3.53459 -1.34376,-3.94733 0.41258,-0.41273 0.19913,-1.78034 -0.47427,-3.03909 -0.93005,-1.73842 -1.89589,-2.04016 -4.01741,-1.25503 -4.72599,1.74902 -10.57071,-2.30675 -7.60287,-5.27575 0.44755,-0.44767 1.57259,0.16158 2.50019,1.35432 1.57706,2.0277 1.84809,1.97744 4.17827,-0.77471 3.3924,-4.00677 2.2224,-5.1625 -3.70315,-3.65786 -5.95534,1.51216 -11.28699,0.42879 -11.28699,-2.2935 0,-1.08408 0.96159,-3.59935 2.13672,-5.58951 2.38199,-4.03387 1.61327,-5.50332 -3.54493,-6.77674 -2.66244,-0.65732 -4.0128,-0.0284 -7.14678,3.32566 -5.19059,5.55606 -7.82611,3.42213 -3.3198,-2.68809 3.78064,-5.12628 3.89392,-6.25476 0.62784,-6.25476 -3.38591,0 -3.172,-2.02829 0.31252,-2.96244 4.57809,-1.22735 5.72404,-0.9249 6.56738,1.73328 0.81747,2.57664 8.97229,7.47981 12.44016,7.47981 2.83489,0 2.38287,1.28289 -2.0722,5.88105 -3.08845,3.18768 -3.65878,4.46269 -2.51022,5.6117 1.37682,1.37734 9.16569,0.18992 16.36271,-2.49426 1.78547,-0.66593 1.5879,2.74607 -0.5563,9.60868 -0.92597,2.96361 -0.89114,2.97551 6.13148,2.09778 4.84958,-0.60614 7.06277,-0.45054 7.06277,0.49654 0,0.75863 -0.98412,1.68353 -2.18693,2.05536 -4.06832,1.25763 -5.93589,2.63636 -5.93589,4.38226 0,1.24273 2.318,1.91734 8.12282,2.36402 7.97205,0.61344 8.12374,0.69233 8.17214,4.25053 0.0354,2.51845 0.8538,3.9231 2.68388,4.60036 4.53547,1.67839 4.62352,3.6895 0.31925,7.28442 -4.75965,3.97493 -4.13026,6.93982 1.22343,5.76354 4.31561,-0.94826 9.95053,1.14212 10.84348,4.02256 0.37623,1.21361 1.17064,3.12779 1.76542,4.25383 0.86928,1.64572 0.0546,2.42933 -4.15265,3.99479 -8.97828,3.34062 -13.53621,3.5493 -18.55517,0.84948 z m 18.94468,-7.47269 c 0,-0.66337 -0.98415,-1.72201 -2.18693,-2.35253 -2.61007,-1.36822 -8.32833,0.45883 -7.19209,2.298 0.9952,1.61084 9.37902,1.6596 9.37902,0.0545 z m 456.27544,4.51047 c -0.7835,-0.94439 -1.075,-3.35817 -0.6576,-5.44572 0.5681,-2.84142 0.2324,-3.94797 -1.3859,-4.56917 -1.7232,-0.66154 -1.8412,-1.17444 -0.611,-2.65723 1.2845,-1.54834 1.899,-1.5748 3.9063,-0.1683 1.8323,1.2839 3.8282,1.38299 8.6493,0.42938 3.447,-0.68184 6.5819,-0.92489 6.9666,-0.54016 0.7099,0.71019 -3.1098,6.71622 -7.5266,11.83467 -2.7184,3.15012 -7.2087,3.68688 -9.3411,1.11658 z m 9.6424,-6.20983 c 1.5007,-1.59806 2.3862,-3.2481 1.9677,-3.66678 -1.1703,-1.1707 -6.0905,1.46243 -7.7752,4.16101 -1.2812,2.05253 -1.1643,2.4113 0.7868,2.4113 1.2607,0 3.52,-1.30748 5.0207,-2.90553 z m -359.66122,2.79092 c -3.81989,-1.5583 -4.99018,-3.31918 -5.0148,-7.54565 -0.0213,-3.88242 2.58955,-6.45045 5.44595,-5.35393 2.58524,0.99241 2.58074,2.83576 -0.0142,5.70397 -1.91466,2.1165 -1.85414,2.33443 0.93728,3.37369 8.88615,3.30844 11.84409,-7.10766 4.32361,-15.2254 -1.70206,-1.83722 -3.97116,-3.34041 -5.04241,-3.34041 -3.54175,0 -13.3116,-5.30846 -15.26846,-8.29614 -2.4823,-3.78981 -1.34029,-8.27894 2.64943,-10.41496 2.51643,-1.34723 3.48116,-1.3641 5.0186,-0.0876 2.04226,1.69557 1.43727,3.98015 -0.97515,3.68223 -3.84491,-0.47481 -4.7418,0.25551 -4.36256,3.55282 0.31111,2.70322 1.36414,3.75416 4.9286,4.91809 5.07271,1.65638 17.90972,9.54074 19.36243,11.89218 1.5648,2.5327 0.8834,13.63326 -0.94673,15.42363 -2.4514,2.39818 -7.46252,3.17768 -11.04179,1.71755 z m -330.10611,-3.19657 c -1.80616,-1.9605 -7.8514,-7.46677 -13.43388,-12.23613 -5.58244,-4.7694 -10.14987,-9.12922 -10.14987,-9.68852 0,-2.67228 4.86468,-0.42105 11.42522,5.28721 l 7.24524,6.30412 0.79753,-3.17879 c 0.89752,-3.57723 3.35158,-3.97589 8.02456,-1.3036 1.71833,0.98262 3.54593,1.80652 4.06138,1.83087 1.74571,0.0826 0.95003,-5.88959 -1.00042,-7.5089 -2.65379,-2.20332 -1.96342,-10.40565 0.9219,-10.95233 1.54254,-0.29236 2.71173,1.30003 4.35671,5.93342 2.5695,7.23717 4.27939,7.50019 5.93957,0.91349 1.2476,-4.95002 3.21616,-6.20048 3.21616,-2.04297 0,4.06109 -4.64737,12.06795 -7.42646,12.79501 -1.39741,0.36556 -3.09596,2.1255 -3.77458,3.91094 -1.56242,4.11109 -4.1704,4.1421 -6.83025,0.0811 -1.14024,-1.74083 -2.61078,-2.83275 -3.26789,-2.4265 -2.05593,1.27112 -1.30773,5.93531 1.41768,8.83743 1.43681,1.52998 2.42093,3.73284 2.18686,4.89523 -0.35114,1.74317 -1.00077,1.48898 -3.70946,-1.45113 z m 672.91873,-9.23238 c -4.3383,-1.66927 -4.4613,-3.34409 -0.455,-6.19795 5.2766,-3.7586 4.7462,-5.19673 -1.5474,-4.19613 -4.8534,0.77166 -5.1632,0.66522 -3.5959,-1.23533 1.971,-2.39014 13.2198,-2.95131 14.5933,-0.72805 0.4594,0.74343 -0.7728,3.06255 -2.738,5.15357 l -3.5731,3.80186 3.749,-0.66125 c 2.0619,-0.36368 5.0143,-1.06073 6.5607,-1.54897 3.5847,-1.13178 3.5628,0.68496 -0.039,3.26451 -3.5936,2.57352 -9.5582,3.65448 -12.9543,2.34774 z m -888.11755,-3.29143 c -1.57199,-1.57264 -0.83296,-5.41721 1.04142,-5.41721 1.16635,0 1.87451,1.18064 1.87451,3.12531 0,3.03515 -1.21684,3.99159 -2.91593,2.2919 z m 560.26565,-10.35699 c -4.46757,-4.57407 -10.59097,-10.31539 -13.60756,-12.75843 -3.13966,-2.54269 -4.92141,-4.79013 -4.16718,-5.25644 0.72461,-0.44799 2.99271,0.59562 5.04021,2.31912 4.26367,3.58893 5.92455,3.9007 6.92242,1.29936 0.61849,-1.61237 1.2347,-1.61237 5.09221,0 6.5242,2.72697 7.3996,2.42969 6.4743,-2.1986 -1.1536,-5.77027 -4.922,-13.07613 -10.71973,-20.78266 -6.18867,-8.22614 -6.68689,-12.68831 -1.41672,-12.68831 3.97285,0 3.67265,-0.45621 9.40255,14.29076 2.9878,7.68946 4.6942,10.37743 7.6016,11.97407 4.1614,2.28525 7.9986,8.03943 6.4056,9.60552 -0.5643,0.5547 -2.6465,-0.92525 -4.6271,-3.28871 -4.1766,-4.98386 -5.7933,-4.4327 -3.7975,1.29462 0.7668,2.20041 1.3941,4.76064 1.3941,5.6894 0,2.69702 -7.1514,2.03528 -10.1222,-0.93663 -1.9365,-1.93725 -2.991,-2.25845 -4.02353,-1.22554 -2.06231,2.06309 1.27563,6.87873 8.61363,12.42692 5.9233,4.47843 8.7486,9.12716 5.3114,8.73892 -0.9096,-0.10279 -5.309,-3.92923 -9.7765,-8.50337 z m -1.2497,-39.50191 c 0,-2.10306 -4.03917,-8.03191 -5.04731,-7.40866 -1.41041,0.87203 2.00679,8.09578 3.82971,8.09578 0.6697,0 1.2176,-0.30937 1.2176,-0.68712 z m 330.6617,37.14462 c -0.3555,-0.57553 -5.1687,-0.78453 -10.6959,-0.46447 l -10.0494,0.58198 0,-3.31687 c 0,-2.38774 -0.8751,-3.64974 -3.1242,-4.50515 -3.8023,-1.44618 -4.0015,-4.5301 -0.5315,-8.22523 2.2418,-2.38719 2.3723,-3.11382 0.9642,-5.36947 -2.2185,-3.55375 -4.7735,-4.32279 -7.1741,-2.15945 -2.6284,2.36866 -8.4084,3.77646 -9.3366,2.27405 -1.1772,-1.90555 3.6338,-10.54311 8.4591,-15.18741 5.1662,-4.97224 7.7404,-4.23065 3.0035,0.86518 -3.924,4.22101 -7.8547,10.30051 -6.6599,10.30051 0.4861,0 2.3784,-1.17664 4.2051,-2.61478 l 3.3212,-2.61477 3.757,4.34597 c 2.0664,2.39027 5.8622,5.22589 8.4353,6.30136 5.9282,2.47795 6.2474,4.99105 0.4967,3.91183 -3.0258,-0.56788 -4.7561,-0.21012 -6.2598,1.29425 -4.5943,4.5959 2.8554,6.14839 8.435,1.7578 3.8034,-2.99291 8.3664,-2.40274 5.7555,0.74439 -0.842,1.01495 -3.4358,3.02311 -5.7641,4.46262 -6.7794,4.19142 -5.3732,5.27483 5.5863,4.30433 8.1146,-0.71855 9.9441,-0.5453 10.5361,0.99779 1.0753,2.80344 -1.8237,4.80158 -3.3595,2.31554 z m -354.40527,-5.20423 c 0,-0.68759 0.51633,-1.25014 1.14739,-1.25014 0.63114,0 2.03702,-0.34161 3.12421,-0.75881 1.29713,-0.49796 1.9767,-0.068 1.9767,1.25013 0,1.30947 -1.08783,2.00895 -3.12417,2.00895 -1.71829,0 -3.12413,-0.56256 -3.12413,-1.25013 z M 384.25539,148.583 c -1.44206,-1.59401 -3.13997,-2.24417 -4.62752,-1.7719 -1.29225,0.41032 -3.12442,0.10279 -4.07144,-0.68347 -0.94699,-0.78624 -2.74766,-1.25464 -4.00142,-1.04089 -2.45431,0.41841 -2.83344,-2.9786 -0.98217,-8.80093 0.7651,-2.40615 0.52994,-2.85935 -1.29724,-2.50023 -2.28026,0.44816 -3.02014,1.4371 -5.87116,7.84711 -0.89486,2.01192 -2.41579,3.91572 -3.37981,4.23068 -1.77835,0.58096 -1.68506,-1.00835 0.67585,-11.51244 0.57596,-2.56239 0.39543,-3.36457 -0.6164,-2.73901 -2.8514,1.76297 -1.34309,-2.36066 2.22368,-6.0791 2.27852,-2.37547 4.98391,-7.81065 7.18554,-14.43601 2.7725,-8.34323 4.03877,-10.6261 5.89422,-10.6261 7.15911,0 5.0575,10.61345 -4.25711,21.49937 -3.41365,3.98947 -6.21163,7.67552 -6.21772,8.1912 -0.007,0.51568 1.95711,0.93759 4.3627,0.93759 4.26968,0 4.37382,0.11909 4.37382,5.00054 0,6.13439 2.01773,6.45885 4.41864,0.71055 0.9855,-2.35948 2.40006,-4.66606 3.14356,-5.12571 2.62339,-1.62194 2.71892,0.61897 0.24023,5.63104 -1.39642,2.82342 -1.99509,5.3871 -1.35099,5.7853 1.89826,1.17362 6.56631,-2.62832 9.17355,-7.47145 3.94537,-7.32885 5.87803,-5.95093 5.15661,3.67638 -0.86159,11.49919 -4.86411,15.14851 -10.17528,9.27748 z m 7.31193,-5.85479 c 0.96849,-5.97056 0.25122,-6.55827 -2.20521,-1.80656 -2.41696,4.6757 -2.48666,6.42893 -0.25583,6.42893 1.00453,0 2.02057,-1.90858 2.46083,-4.62237 z m -16.86904,-31.06516 c 1.71024,-3.75495 1.95987,-7.87783 0.37112,-6.12931 -1.6605,1.8275 -3.91542,9.31345 -2.80545,9.31345 0.54124,0 1.63673,-1.43285 2.43433,-3.18414 z m 318.34293,33.3519 c -2.00523,-0.43435 -3.90618,-1.57229 -4.22433,-2.5288 -0.56257,-1.6914 2.25439,-1.49384 7.5196,0.52733 1.04096,0.39962 2.43709,-0.59895 3.42858,-2.45229 2.09725,-3.92023 0.36946,-6.41781 -5.30185,-7.66387 -9.61423,-2.11246 -13.4753,-9.00008 -8.59964,-15.34061 2.91518,-3.79098 10.49743,-4.48533 11.20556,-1.02614 0.3683,1.79912 -0.0659,2.13751 -1.96745,1.5337 -1.47182,-0.4673 -3.49852,0.10492 -5.10747,1.44196 -3.90518,3.2453 -2.3671,7.16563 3.50157,8.92457 9.90634,2.96914 14.02097,9.62232 9.57455,15.48193 -1.70788,2.25065 -3.7107,2.47075 -10.02912,1.10222 z m -365.12367,-6.67342 c 0.79603,-6.87663 -0.78216,-8.64082 -3.71883,-4.15715 -2.71572,4.14624 -5.53465,4.09841 -5.53465,-0.0939 0,-2.33624 0.51403,-3.06173 1.81546,-2.56215 2.45658,0.94304 8.18184,-6.04349 8.18184,-9.98434 0,-2.65786 -0.50192,-3.05468 -3.43658,-2.71686 -2.9636,0.34125 -3.4889,1.02316 -3.81681,4.95547 -0.26958,3.23318 -1.0711,4.74066 -2.75482,5.18114 -1.32795,0.34728 -2.74065,2.19467 -3.20501,4.19096 -2.75269,11.8334 -10.73319,12.44397 -11.93741,0.91331 -0.40978,-3.92384 2.05836,-8.4871 3.95589,-7.31393 0.55877,0.34551 0.49508,2.44517 -0.1417,4.66596 -1.63186,5.69206 -1.50196,6.15319 1.60667,5.70393 2.32445,-0.33594 3.39258,-2.41944 6.7136,-13.09572 2.17218,-6.98295 4.33482,-15.26757 4.80592,-18.41027 0.47109,-3.14272 1.47535,-6.096615 2.23168,-6.564195 0.98066,-0.60633 1.13291,1.757015 0.53071,8.238855 -0.74535,8.0225 -0.60992,8.99902 1.15421,8.32183 1.09922,-0.42202 2.79615,-0.76728 3.7709,-0.76728 0.97475,0 1.77231,-1.12512 1.77231,-2.50024 0,-1.37515 0.70291,-2.50889 1.56207,-2.51941 1.13631,-0.0142 1.09477,-0.31539 -0.15265,-1.10566 -1.43904,-0.91189 -1.4513,-2.11423 -0.0761,-7.48162 1.52977,-5.970945 3.75028,-8.041485 5.53173,-5.157995 0.42038,0.68046 0.12575,4.477715 -0.65448,8.438375 -2.20695,11.20159 -2.23774,10.99854 1.59972,10.54962 3.77771,-0.44189 4.76199,1.94594 1.24967,3.03169 -4.4957,1.38976 -5.77573,2.63479 -7.33198,7.13161 -1.64741,4.76019 -0.70975,6.03151 2.02094,2.74001 2.40735,-2.90178 3.71115,-2.27249 5.8277,2.81278 1.07316,2.57838 2.5862,5.08649 3.36233,5.57353 1.04113,0.65335 1.02632,1.27055 -0.0563,2.35371 -2.14422,2.14502 -5.38161,0.41514 -5.40375,-2.88749 -0.0106,-1.56861 -0.53004,-3.65966 -1.15442,-4.64682 -1.68481,-2.66357 -5.07477,0.56571 -5.07477,4.83428 0,1.84711 -0.88296,4.45036 -1.96211,5.78501 -1.83313,2.26711 -1.91736,2.03978 -1.28105,-3.45703 z m 378.85997,-8.80532 c -1.80149,-7.73516 -3.6091,-15.32972 -4.0169,-16.87675 -0.53221,-2.01876 -0.19914,-2.81279 1.17946,-2.81279 1.1554,0 2.26807,1.6191 2.79198,4.06293 1.16912,5.45294 1.93482,6.53283 3.19716,4.50894 1.6003,-2.5658 5.1907,0.21224 6.42303,4.96997 0.5642,2.17801 1.43146,3.94209 1.92731,3.92022 1.55827,-0.0687 4.6412,-2.94142 7.43906,-6.93189 2.36591,-3.37446 2.70142,-5.563 2.73483,-17.83857 0.0213,-7.695695 0.63411,-15.106405 1.36265,-16.468235 1.60856,-3.0067 4.77358,-3.2336 5.85302,-0.41957 0.89358,2.32947 -1.14804,19.826745 -2.73568,23.445725 -0.92605,2.11087 -0.6502,2.27649 2.48162,1.49019 4.27553,-1.07353 5.58925,0.56394 5.61597,6.99982 0.0106,2.53784 0.60611,4.97712 1.32353,5.42069 2.48609,1.53707 4.73563,-2.02029 4.73563,-7.48878 0,-6.13145 1.93237,-10.67195 4.54188,-10.67195 2.49945,0 3.45412,4.0895 2.47666,10.60976 -0.53674,3.58067 -0.37612,5.64192 0.43962,5.64192 1.47278,0 11.49506,-11.05308 11.49506,-12.67728 0,-2.10285 3.35831,-1.02626 6.1836,1.98229 1.57861,1.68105 4.50503,3.62653 6.50303,4.32328 3.50128,1.22101 3.73362,1.05439 6.41913,-4.60419 2.83564,-5.97492 6.56043,-8.19584 8.53033,-5.08627 1.89712,2.99469 1.19381,4.8581 -3.43438,9.0997 -5.73244,5.25353 -4.77518,7.51903 2.70297,6.39722 6.15086,-0.92274 8.26438,0.76309 3.61407,2.88271 -5.59619,2.55077 -14.27319,1.53366 -14.27319,-1.67308 0,-2.12993 -2.42241,-4.01406 -6.46632,-5.0294 -2.80701,-0.7048 -3.3931,-0.39324 -3.74205,1.98928 -0.76794,5.24358 -3.53785,4.26456 -3.53785,-1.25046 0,-6.2369 -1.75447,-6.51054 -5.12309,-0.79903 -1.72566,2.92588 -4.01485,4.74516 -7.14341,5.67716 -2.53216,0.7543 -6.67095,1.98707 -9.1973,2.73946 -5.99003,1.78392 -8.52342,0.71108 -8.54723,-3.61962 -0.0283,-5.20062 -1.89259,-7.55029 -4.63156,-5.8384 -1.80652,1.12912 -2.14062,2.73567 -1.78512,8.58423 0.34157,5.62054 0.0684,7.07182 -1.24966,6.63159 -1.06855,-0.35692 -1.53797,-2.01451 -1.28041,-4.52127 0.22359,-2.17681 0.0606,-3.95778 -0.36258,-3.95778 -0.42304,0 -2.92638,2.33712 -5.56299,5.19364 -5.40939,5.86053 -8.83956,5.92187 -8.87131,0.15874 -0.0284,-5.18595 -1.65969,-7.22257 -3.75846,-4.69278 -1.36867,1.64983 -1.40637,3.36515 -0.20232,9.19789 1.7736,8.5899 1.86045,11.3948 0.35291,11.3948 -0.62015,0 -2.60146,-6.3288 -4.40291,-14.06397 z m 45.51959,-17.33682 c 0,-1.37516 -0.56232,-2.1526 -1.24965,-1.72765 -0.68733,0.42496 -1.24965,1.89774 -1.24965,3.2729 0,1.37512 0.56232,2.15257 1.24965,1.72761 0.68733,-0.42492 1.24965,-1.89774 1.24965,-3.27286 z m 38.16613,-2.43589 c 1.34497,-2.17702 -0.18708,-2.63805 -1.90084,-0.57209 -0.98568,1.18809 -1.0805,1.9054 -0.25193,1.9054 0.73088,0 1.69958,-0.59998 2.15267,-1.33331 z M 733.46428,91.333495 c 0.0496,-1.62276 -0.45928,-2.54829 -1.16178,-2.11395 -0.68733,0.42492 -1.21014,2.84901 -1.16185,5.38681 0.0709,3.71873 0.29622,4.12899 1.16185,2.11398 0.59071,-1.37516 1.11352,-3.79924 1.16178,-5.38684 z M 277.98623,138.01474 c -2.12723,-5.09307 -2.29218,-7.72075 -0.55224,-8.7965 1.2997,-0.80356 1.75013,0.0787 3.03477,5.94356 0.41417,1.89083 1.59789,3.43786 2.63048,3.43786 1.03263,0 2.48786,-1.54703 3.23385,-3.43786 2.29608,-5.81967 2.92067,-6.77094 4.1674,-6.34719 0.66196,0.22507 1.04719,1.90034 0.85608,3.72296 -0.44644,4.25765 2.16785,5.95514 4.33566,2.81523 4.84888,-7.02317 6.63613,-6.94993 3.67051,0.15028 -1.85814,4.44883 -2.18177,4.64377 -6.70333,4.03706 -2.98713,-0.40079 -5.62579,0.003 -7.1073,1.08617 -3.71164,2.71503 -5.61555,2.05785 -7.56588,-2.61168 z m 589.27985,-0.04 c 0,-1.04176 1.11079,-1.87517 2.49931,-1.87517 1.38851,0 2.49934,0.83341 2.49934,1.87517 0,1.04177 -1.11083,1.87521 -2.49934,1.87521 -1.38852,0 -2.49931,-0.83344 -2.49931,-1.87521 z m 151.96152,-7.71763 c -2.6158,-2.82207 -3.4016,-3.09008 -5.0493,-1.72211 -2.4404,2.02609 -2.5446,0.0996 -0.1697,-3.13513 1.7318,-2.35877 1.8908,-2.32235 5.6826,1.30177 3.2538,3.10982 4.0953,3.42096 5.0724,1.87517 1.8792,-2.97307 1.4207,-5.33759 -2.0162,-10.39735 -1.7742,-2.61197 -2.8987,-5.60213 -2.4987,-6.64478 1.0508,-2.73948 3.9028,-1.26609 3.5609,1.83966 -0.2023,1.8358 0.2526,2.41888 1.5097,1.93623 1.1877,-0.45593 2.075,0.40997 2.6116,2.54843 0.4469,1.78144 1.2437,3.23899 1.7706,3.23899 1.2146,0 2.5201,-6.42751 2.5201,-12.40754 0,-6.18216 1.7584,-7.64827 8.1261,-6.77515 l 5.2292,0.71699 -0.5784,-3.942795 c -0.6099,-4.1574 2.3243,-8.84473 5.5368,-8.84473 2.3257,0 2.1636,6.79383 -0.209,8.76369 -1.4375,1.19348 -1.5505,1.978255 -0.4719,3.278395 3.1149,3.75458 5.5836,1.74692 10.9648,-8.916765 4.8417,-9.59486 7.6426,-12.98924 7.6426,-9.262 0,2.67831 -11.6491,23.871315 -13.515,24.587605 -1.046,0.40156 -3.4625,-0.16583 -5.37,-1.26106 -1.9074,-1.0951 -4.6244,-1.68859 -6.0378,-1.31885 -2.6954,0.70516 -3.4537,3.43698 -1.3201,4.75611 1.4916,0.92221 1.692,6.87573 0.2314,6.87573 -0.56,0 -1.9568,-1.96898 -3.1039,-4.37545 -3.4626,-7.26372 -6.2212,-4.97951 -4.9986,4.1389 0.5732,4.27555 0.1952,5.52647 -2.4075,7.96725 -1.6982,1.59246 -3.7552,4.16116 -4.5713,5.70818 -1.9558,3.70775 -4.3589,3.55151 -8.1415,-0.52939 z m 31.0099,-33.715575 c 0.4333,-1.12975 0.5309,-2.31122 0.2168,-2.62544 -0.9931,-0.9935 -3.2367,1.00152 -3.2367,2.87818 0,2.45214 2.0481,2.28074 3.0199,-0.25271 z M 1260.91,131.82619 c 0,-0.97523 2.5745,-4.77249 5.7213,-8.43838 3.1467,-3.6659 6.3034,-7.73205 7.015,-9.03592 1.1496,-2.10667 0.9647,-2.26486 -1.66,-1.42072 -1.6244,0.52244 -5.0624,1.22639 -7.6398,1.56436 -4.5188,0.59249 -4.6862,0.47917 -4.6862,-3.17135 0,-2.26557 1.3217,-5.35708 3.2913,-7.69881 2.6052,-3.09724 4.1033,-3.833965 7.1856,-3.53379 3.4096,0.33204 3.8942,0.84605 3.8942,4.12966 0,3.87904 1.2678,5.57339 4.1951,5.60645 0.9586,0.0106 1.3984,-0.75626 1.0116,-1.76454 -0.7646,-1.99335 7.2316,-11.670845 13.0936,-15.846455 2.6878,-1.91462 4.1457,-2.29492 5.1077,-1.33242 0.9621,0.96249 0.2846,2.34442 -2.3747,4.84169 -2.0467,1.92212 -5.5874,5.628865 -7.8683,8.237185 l -4.1469,4.74243 2.6765,2.4945 c 5.5415,5.16466 2.0602,8.34734 -3.9541,3.6148 l -3.2186,-2.53274 -1.9579,4.12768 c -2.2282,4.69706 -12.7897,17.18948 -14.5327,17.18948 -0.634,0 -1.1527,-0.7979 -1.1527,-1.77311 z m 7.9445,-23.48206 c 0.7367,-1.17026 0.941,-2.52632 0.4542,-3.01347 -0.9891,-0.98943 -5.8994,3.00716 -5.8994,4.80161 0,1.84427 3.9819,0.53669 5.4452,-1.78814 z m -886.45765,9.10767 c 0,-2.88409 2.32179,-3.92955 5.3111,-2.39155 3.61248,1.85868 2.65681,4.7876 -1.5621,4.7876 -2.86157,0 -3.749,-0.56716 -3.749,-2.39605 z M 1245.914,105.07315 c 0,-1.41877 0.5623,-2.92725 1.2497,-3.35217 0.6873,-0.42496 1.2497,-1.67045 1.2497,-2.767815 0,-1.79856 -0.2155,-1.80586 -2.187,-0.0741 -3.073,2.699425 -7.4376,3.831705 -8.4504,2.192225 -0.4677,-0.75708 -0.1527,-3.061455 0.7001,-5.120925 1.9577,-4.72808 -0.042,-7.63325 -3.531,-5.13089 -6.8709,4.92731 -12.3166,5.09992 -6.0804,0.19275 4.5718,-3.5975 2.9469,-5.34031 -2.6998,-2.89567 -8.4817,3.67213 -8.7645,3.63804 -8.6319,-1.04071 0.1307,-4.61302 4.3426,-8.96918 7.9813,-8.25467 1.6679,0.32744 1.4225,1.112 -1.3959,4.46035 -4.0044,4.75742 -3.5886,4.95101 3.1964,1.48827 5.5844,-2.85004 10.4764,-2.8153 10.4764,0.0744 0,1.03136 1.1247,2.18248 2.4993,2.55807 1.9599,0.5355 2.4116,1.54735 2.0927,4.68801 -0.2235,2.20278 -0.045,4.00509 0.3965,4.00509 1.5368,0 10.5874,-8.13532 10.6098,-9.53684 0.014,-0.77607 -1.6646,-2.11005 -3.7265,-2.96447 -3.829,-1.5866 -5.1779,-5.00051 -1.9758,-5.00051 0.9753,0 3.5755,0.98447 5.7783,2.18773 2.3492,1.28327 4.2013,1.6709 4.48,0.93758 0.2615,-0.68758 1.635,-3.15355 3.0526,-5.47994 1.8683,-3.0662 2.954,-3.853 3.9467,-2.86007 0.9925,0.99295 0.3893,2.7842 -2.1925,6.51115 -3.8676,5.58303 -3.9374,5.39954 3.6123,9.48178 5.0969,2.75592 2.4317,5.13493 -2.7496,2.45449 -2.1068,-1.08986 -4.5615,-1.96107 -5.4547,-1.93602 -2.3659,0.0662 -8.4973,8.63803 -8.4973,11.878925 0,1.52403 -0.8435,3.47128 -1.8745,4.32722 -1.5632,1.29783 -1.8745,1.12792 -1.8745,-1.02327 z M 298.66944,101.0567 c 0,-2.859495 3.28344,-4.676945 5.12362,-2.836075 1.79437,1.795045 -0.0425,5.375535 -2.75801,5.375535 -1.54468,0 -2.36561,-0.88123 -2.36561,-2.53946 z m 883.51176,-5.287695 c 0,-3.56235 19.9923,-42.17802 21.8365,-42.17802 2.8895,0 2.3059,3.03452 -1.8419,9.57731 -4.5525,7.18123 -4.6111,7.92451 -0.6248,7.92451 2.0375,0 3.1241,0.69938 3.1241,2.01072 0,1.48494 -0.7661,1.81836 -2.9298,1.27511 -3.1718,-0.79636 -6.5536,2.05013 -9.7175,8.17941 -5.8801,11.39107 -7.9056,14.78747 -8.8185,14.78747 -0.5654,0 -1.0281,-0.7094 -1.0281,-1.57651 z m -97.8211,-8.73703 c -1.1789,-0.88798 -2.2059,-3.65091 -2.3788,-6.39918 -0.3644,-5.79766 3.6101,-9.99319 8.3414,-8.80528 1.5729,0.39491 3.2354,0.10987 3.6946,-0.63339 0.4592,-0.74329 2.3763,-1.35145 4.2603,-1.35145 1.8839,0 4.0623,-0.63727 4.8409,-1.41613 2.4932,-2.49418 5.1541,-0.20658 5.5654,4.78421 0.2994,3.63454 0.886,4.67616 2.4847,4.41208 3.5908,-0.59317 3.8396,2.13372 0.3401,3.72877 -2.8832,1.31417 -3.5653,1.19865 -5.0691,-0.85871 -0.9557,-1.30743 -1.7376,-3.67606 -1.7376,-5.26356 0,-1.58753 -0.4499,-2.88639 -0.9997,-2.88639 -2.3849,0 -3.7478,3.07963 -3.1081,7.0232 0.4405,2.71585 0.1803,4.22796 -0.7274,4.22796 -0.7772,0 -1.4132,-1.36038 -1.4132,-3.02307 0,-3.82745 -1.1887,-6.97795 -2.633,-6.97795 -0.6137,0 -1.1159,1.12511 -1.1159,2.50024 0,2.96775 -3.1536,3.35529 -4.2408,0.52109 -0.9848,-2.56718 -3.3789,-1.7324 -4.6145,1.60894 -0.6243,1.68838 -0.332,3.45122 0.8187,4.93613 1.7248,2.22571 1.8768,2.20738 4.1763,-0.50296 2.9226,-3.44477 3.8603,-3.5424 3.8603,-0.40185 0,5.18624 -6.0762,7.99226 -10.3447,4.7773 z m 117.5033,-0.5829 c -3.8896,-0.58942 -4.5167,-3.44878 -1.6019,-7.30401 1.7889,-2.36598 1.8358,-2.3563 1.8745,0.38612 0.054,3.82086 1.5363,3.53375 4.8408,-0.93759 1.7786,-2.4065 3.8779,-3.75041 5.8585,-3.75041 2.7636,0 3.0868,0.51901 3.0868,4.95653 0,6.94905 -2.9316,8.33561 -14.0587,6.64936 z m 10.9345,-5.25106 c 0,-2.90553 -2.8472,-2.95772 -4.3865,-0.0804 -1.2885,2.40847 -1.1408,2.63472 1.4775,2.26371 1.5999,-0.22685 2.909,-1.20921 2.909,-2.18327 z m -50.5525,-2.54159 c -0.9986,-0.63194 -3.3812,-0.83577 -5.2947,-0.45292 -2.8472,0.56965 -3.6793,0.15732 -4.5809,-2.26973 -0.606,-1.63118 -0.8562,-3.61206 -0.556,-4.40198 1.2766,-3.35898 -2.1897,-2.68766 -3.9773,0.77026 -2.1102,4.08245 -3.1314,4.55517 -5.2535,2.43223 -0.9783,-0.97866 -1.5936,-0.97866 -2.1982,0 -1.2648,2.04711 -6.6639,1.6314 -7.9176,-0.60965 -1.1129,-1.98939 0.9856,-15.99165 3.5926,-23.97151 1.438,-4.40188 3.6328,-5.47218 3.6328,-1.77155 0,1.63519 0.8052,2.202 2.8118,1.97935 1.5464,-0.1715 3.2335,-0.35884 3.749,-0.41613 0.5155,-0.0574 0.9458,-1.65122 0.9563,-3.54205 0.025,-4.56702 1.7674,-7.10432 4.2286,-6.1595 1.2299,0.47209 2.0006,2.23832 2.0006,4.58441 0,2.86814 0.7843,4.17392 3.1566,5.25517 3.9062,1.78048 3.3831,4.0019 -1.0665,4.52885 -5.0654,0.59987 -6.2103,3.97277 -3.2922,9.69872 1.3485,2.64594 2.4518,6.13951 2.4518,7.76348 0,4.69292 3.8719,2.87661 5.8089,-2.72488 2.2112,-6.39481 3.8784,-8.25722 7.3918,-8.25722 4.6336,0 4.8193,2.25707 0.7273,8.84214 l -3.8275,6.15941 4.9471,0 c 5.0067,0 6.5953,1.6 2.9703,2.99157 -2.9029,1.11434 -8.3775,0.89013 -10.4611,-0.42847 z m -22.1693,-8.54695 c 1.1113,-1.22842 2.8411,-4.19812 3.8441,-6.59936 1.6663,-3.98985 1.6225,-4.63193 -0.5097,-7.45503 -2.6592,-3.52065 -3.8971,-2.77119 -6.0467,3.66057 -1.6637,4.97823 -1.8844,12.62729 -0.3642,12.62729 0.5808,0 1.9653,-1.00506 3.0765,-2.23347 z m 26.8592,-1.76695 c 1.8068,-1.80748 1.9489,-3.50037 0.2941,-3.50037 -0.6631,0 -1.8076,1.12511 -2.5433,2.50027 -1.4731,2.75355 -0.1095,3.35983 2.2494,1.0001 z m -14.7461,-21.00219 c 0,-1.37512 -0.5623,-2.50024 -1.2496,-2.50024 -0.6873,0 -1.2497,1.12512 -1.2497,2.50024 0,1.37516 0.5624,2.50027 1.2497,2.50027 0.6873,0 1.2496,-1.12511 1.2496,-2.50027 z m -401.75311,25.03259 c -1.66841,-3.70137 -2.07064,-6.81368 -1.57518,-12.18879 0.62589,-6.7901 4.12218,-15.31863 6.28717,-15.33614 2.32059,-0.0177 2.18729,4.00832 -0.26397,7.97614 -3.27182,5.29585 -3.56666,11.1326 -0.88324,17.48374 2.48414,5.87932 2.54335,7.03558 0.36056,7.03558 -0.92657,0 -2.69295,-2.23673 -3.92531,-4.97053 z m 17.6901,2.88699 c -1.47689,-1.47743 -0.88764,-5.06582 1.10321,-6.71873 2.6747,-2.22065 6.81126,-11.638 6.81126,-15.50666 0,-4.97323 -4.14464,-4.16754 -6.07812,1.18153 -1.85435,5.13 -3.91914,5.74533 -3.91914,1.16796 0,-4.07809 1.8945,-7.63187 4.93675,-9.26065 3.22915,-1.72889 6.04045,-0.43088 8.22667,3.79846 2.06801,4.0006 1.38249,6.722 -3.73695,14.83471 -1.74802,2.77006 -3.1782,5.40209 -3.1782,5.84894 0,0.44686 2.50844,0.52964 5.57429,0.1839 6.43096,-0.72514 7.31052,-0.25763 5.58478,2.96801 -0.97898,1.82988 -2.68394,2.33589 -7.8706,2.33589 -3.64149,0 -6.99573,-0.37503 -7.45395,-0.83341 z m 27.38069,-0.2605 c -0.37173,-0.60172 0.22429,-3.73699 1.3246,-6.96726 2.54916,-7.48428 1.63697,-13.12524 -3.18271,-19.68146 -4.48699,-6.10366 -3.89257,-8.34323 1.24342,-4.68467 5.18736,3.6951 7.39144,8.69838 7.39144,16.77888 0,9.94238 -4.13695,18.82736 -6.77675,14.55451 z m 375.42732,-44.70062 c 0,-0.43452 1.1979,-2.72909 2.6621,-5.09902 3.1554,-5.1074 3.5591,-11.61993 1.1693,-18.8635499 -2.0456,-6.20083004 -0.8442,-8.32541 2.3285,-4.11761 3.3291,4.41513 5.3244,14.3268599 3.7325,18.5420299 -1.9844,5.25492 -9.8924,12.87966 -9.8924,9.53815 z m -18.4867,-1.8909 c 0.3051,-0.93199 2.1991,-2.25707 4.2094,-2.94465 2.0104,-0.68758 4.3581,-1.70525 5.2173,-2.2615 2.1757,-1.40865 1.9574,-6.69521 -0.3126,-7.56653 -1.0309,-0.39579 -1.8744,-1.56343 -1.8744,-2.59478 0,-1.15003 0.7221,-1.59799 1.8673,-1.1584 1.027,0.39427 1.5561,1.22045 1.1759,1.83598 -0.3803,0.61554 -0.1088,1.11913 0.6032,1.11913 2.1874,0 5.3571,5.97499 4.5384,8.55525 -0.8054,2.53854 -4.6663,4.46577 -11.7695,5.87495 -3.2383,0.64243 -4.0816,0.44413 -3.6551,-0.85945 z m -15.3407,-4.4224 c -1.9878,-5.23025 -0.9816,-17.1655999 1.4868,-17.6350999 1.5201,-0.28916 1.8847,0.35047 1.4616,2.56463 -0.3101,1.6223999 0.2632,6.1180799 1.2741,9.9904299 1.0109,3.87236 1.5248,7.35391 1.142,7.7368 -1.6775,1.67815 -4.1899,0.43393 -5.3645,-2.65676 z m 15.5859,-15.8895899 c -1.1855,-3.09069 0.8113,-6.09342 5.0587,-7.60682004 2.8186,-1.00431 3.7404,-0.79498 5.1815,1.17654004 2.0572,2.81442 2.0932,3.19664 0.5335,5.66467 -1.0135,1.60373 -1.4521,1.51499 -3.0893,-0.62507 -1.8874,-2.46689 -1.9349,-2.46009 -4.3457,0.62298 -2.2727,2.9065599 -2.4983,2.9584399 -3.3387,0.7677 z"/>
</svg>
