<?xml version="1.0" encoding="utf-8"?>
<svg xmlns="http://www.w3.org/2000/svg" height="56.723763mm" viewBox="0 0 147.22797 56.723764" width="147.22797mm">
	<title>A diagram showing two cubes similar in size and aspect; the first is composed from stacked squares, the second is drawn with no guide to its composition.</title>
	<path d="m83.632089 162.73277c-.38116-.34425-13.00865-.78889-16.51078-.58138-1.93627.11473-3.87768.20165-4.31425.19315-.43656-.009-4.03893-.0609-8.00527-.11641-6.84877-.0959-7.23612-.12805-7.70032-.63952-.26884-.29621-.88066-.77669-1.3596-1.06773-1.79842-1.09286-3.11797-1.86726-3.99264-2.34314-.49642-.27009-1.71412-1.044-2.706-1.7198-2.34557-1.59812-2.73646-1.84797-4.58423-2.93027-.85242-.49928-2.59435-1.6055-3.87096-2.45825-2.03491-1.35929-2.43139-1.52978-3.2155-1.38268-1.13971.21381-1.18395.0738-1.21664-3.85023-.0139-1.67349-.0287-3.34037-.0328-3.70417-.004-.3638.002-5.86237.0144-12.21903.0121-6.35667-.0418-11.72371-.11973-11.92677-.0779-.20306-.02-.68915.12865-1.08021l.27033-.71102 15.9462.008c8.77041.004 17.46051.006 19.31133.004 2.88149-.003 3.34324-.061 3.21284-.40085-.1963-.51154.35902-.51154 1.5833 0 .52242.21828 1.48946.39687 2.14898.39687.8895 0 1.19912.10248 1.19912.39688 0 .21828-.11906.39687-.26458.39687-.72726 0 .00079.55545 2.71198 2.06917 1.63711.91402 3.51234 2.00502 4.16718 2.42445.65485.41942 2.44079 1.43898 3.96875 2.26569 1.52797.8267 3.81993 2.09964 5.09323 2.82874l2.31511 1.32564.0209 2.28222c.0115 1.25522.0529 3.83003.092 5.7218.13476 6.52464.16066 18.25779.0416 18.83925-.12493.6101-.18076 5.62506-.0804 7.22221l.0582.92604h-2.06143c-1.13379 0-2.14582-.0762-2.24896-.16936zm-20.16357-1.51632c0-.19697 2.58457-.41197 4.0349-.33566.25466.0134.67138.0111.92604-.005 1.78265-.11333 8.19115-.27028 12.61072-.30886 3.94549-.0344 5.29649-.12903 5.37986-.37671.10921-.32443-2.57456-.40194-13.02964-.37631-1.60073.004-7.82676.0191-13.83561.0337-9.49973.0231-10.94527.0789-11.07904.42751-.0846.2205-.0862.46857-.004.55125.0827.0827 1.49638.1242 3.14154.0923 6.71187-.13032 11.01743-.0208 11.20644.28502.19078.30869.64831.31775.64831.0128zm-16.41168-1.82005c-.005-.29895-.82518-.94062-2.3151-1.81091-9.58898-5.60103-15.40447-9.349-15.40447-9.92789 0-.12848.32743-.23585.72761-.23862.67443-.005.63394-.0638-.5542-.80981-.70499-.44264-1.55496-.90865-1.88882-1.03558-.95239-.3621-.54436.66861.42337 1.06946 1.08848.45086 1.28234.87898.30036.66331-.57217-.12568-.83466-.0665-.94168.21241-.16708.43541.46601.89688 4.37693 3.19043 1.41672.83083 2.66687 1.65444 2.77812 1.83025s.53754.467.94732.64709c.68122.29939 3.3447 1.97764 6.2174 3.91757 1.53236 1.03481 4.59901 2.70862 5.00995 2.73449.1819.0115.32734-.18753.32321-.4422zm37.04851-.33323c.00026-.0741-.26722-.31006-.59464-.52428-.64625-.42281-.90931-.43267-12.10469-.4537-3.71078-.007-10.46758-.0339-15.0151-.0599-4.54753-.0259-8.26641.0487-8.26418.16585.0142.74681.55559.86236 4.37262.93328 6.86578.12757 31.60528.0796 31.60599-.0613zm2.6465.0242c0-.8185-.37338-1.07998-1.54219-1.07998h-1.221l.91858.64848c.9337.65917 1.84461.87225 1.84461.4315zm-39.47065-1.37797c-.0896-.5958-2.18556-1.98202-8.94809-5.91794-1.96454-1.14339-3.9507-2.35554-4.41369-2.69366-1.131-.82594-1.96234-1.11139-2.58607-.88795-.547.19595-.73168.0633 4.35392 3.12746.94589.56991 3.30085 2.00617 5.23325 3.19168 1.9324 1.18552 3.59928 2.16036 3.70417 2.16632.10489.006.66696.35827 1.24904.78291 1.27361.92913 1.5184.96934 1.40747.23118zm17.43948-.50037c2.09629-.24371 4.28962-.24256 9.73889.005 3.86828.17581 7.10241.2505 7.18693.16598.0845-.0845.003-.33515-.181-.55695-.52044-.62709.39888-.52824 1.03882.1117.4477.4477.75871.49452 2.38125.3585 1.02645-.0861 1.86628-.25826 1.86628-.38268 0-.12441-.14882-.23561-.33073-.24709-.26458-.0167-.26458-.0476 0-.15434.18191-.0734.33073-.21283.33072-.30984 0-.097-8.69156-.18199-19.31458-.18884-10.62301-.007-19.31295.0527-19.31096.13229.002.0796.0678.38286.14614.67391.13702.50874.40492.53259 6.94257.61798 4.16081.0543 7.85015-.0333 9.50567-.22572zm-17.39579-1.51674c-.002-.25466-.0915-.59949-.19844-.76629-.17407-.27157-4.67382-2.89409-9.32251-5.43329-1.4969-.81763-3.96875-1.53307-3.96875-1.14869 0 .0729.92273.61079 2.05052 1.1954 1.12779.58462 2.28754 1.21103 2.57723 1.39202s1.12312.70275 1.85208 1.15946c.72896.45672 2.42312 1.44454 3.7648 2.19517 1.34167.75063 2.50956 1.47829 2.5953 1.61701.25633.41476.65411.28572.64977-.21079zm31.02644-.85171c-.32742-.26944-.59531-.60925-.59531-.75513 0-.23383-4.32454-.34923-23.41562-.62483-1.01865-.0147-2.83331.02-4.03259.0772l-2.1805.10394-.002.79375-.002.79375 15.41194.0506c15.03418.0494 15.39734.0386 14.81662-.43929zm7.39768.30306c1.21345-.0454 1.24467-.0676 1.19063-.8466l-.0555-.79994-4.29948.0269c-2.36472.0148-4.29948.0788-4.29948.14222 0 .0634.37496.45029.83324.85977.87973.78604 1.23937.81954 6.63058.61762zm-38.46682-1.98682c.0471-.2426-.0406-.4411-.19477-.4411-.26079 0-3.62481-1.90733-5.91896-3.35593-.55062-.34767-1.54326-.73342-2.20588-.85721-1.28877-.24076-2.19784-.81394-1.29093-.81394.78376 0 .3502-.27764-4.7625-3.04979-2.61938-1.42025-5.02855-2.7563-5.35372-2.96899-.58201-.38069-.58681-.37404-.30771.42657.23275.66769.78859 1.08296 3.10476 2.3196 1.55169.82847 3.83328 2.11402 5.07021 2.85677 1.23693.74276 2.56906 1.49147 2.96029 1.66382.90287.39772 7.66981 4.28946 8.01 4.60662.35318.32929.78697.14078.88921-.38642zm7.1905-.54036c.80036.0182 5.84338.0948 11.20671.17022l9.75151.13719-.88797-.83-.88796-.82999-8.06979-.002c-4.45748-.001-10.17204.16239-12.76615.36485-4.30952.33635-4.69635.40796-4.69635.86941 0 .47284.14612.49045 2.44739.29492 1.34607-.11437 3.10224-.19308 3.90261-.17491zm32.54375-.86815v-.96741l-5.72884.18295c-3.15086.10062-5.83826.25058-5.972.33323-.13373.0827.15229.42983.63561.77149.84688.59866 1.0636.62168 5.972.63418l5.09323.013zm-39.95208-.3056c0-.58105-4.15093-2.98265-5.55625-3.21467-.66063-.10907-.9266-.29042-.92797-.63273-.002-.48905-3.65356-2.63473-9.98169-5.86525-2.81514-1.43713-4.19984-1.8791-3.36839-1.07513.21308.20605 3.30445 2.00417 6.86971 3.99584s6.61714 3.73107 6.78196 3.86533c.27667.22537 5.96749 3.38956 6.11648 3.40086.0364.003.0661-.21066.0661-.47425zm10.14834-.86332c1.43425-.1347 5.27401-.24492 8.53281-.24492s5.92509-.0952 5.92509-.21166c0-.11642-.14287-.35454-.3175-.52917-.63096-.63096.59292-.33617 1.51074.36389l.89334.68138 4.31453-.28407c2.37298-.15624 5.29678-.28427 6.49733-.28451l2.18281-.00044v-1.05919-1.05919l-4.29948.14289c-2.36471.0786-6.02588.25942-8.13593.40186-2.85256.19255-21.39216.75258-25.73073.77725-.35279.002-.46302.22438-.46302.93411v.93148l3.24114-.15739c1.78263-.0866 4.41463-.26761 5.84887-.40232zm-9.88376-.86168c0-.1937-.71489-.75925-1.58864-1.25677-.87375-.49753-1.9675-1.14272-2.43056-1.43376-1.67539-1.05302-2.491-1.53379-4.05059-2.38768-.87313-.47805-2.7186-1.49854-4.10104-2.26777-3.9738-2.21113-7.99781-4.23597-8.13854-4.09525-.36083.36083.36462.99273 2.23262 1.94471 1.1382.58005 3.49821 1.85679 5.24446 2.8372 7.06779 3.96808 7.82762 4.36567 8.34331 4.36567.29526 0 .60551.17895.68944.39768.13984.36441 3.14099 2.23461 3.6011 2.24407.10914.002.19844-.1544.19844-.3481zm3.30323-1.22875c.095-.15379-.24596-.23394-.84428-.19843-.7423.044-1.00374-.0438-1.00374-.33731 0-.30298.39935-.41572 1.68804-.47653 1.6044-.0757 1.6808-.052 1.54202.47871-.11923.45591-.0406.54336.42862.47654.3786-.0539.54813-.2398.49691-.54486-.067-.39922.14652-.46302 1.54966-.46302 1.33788 0 1.60031.0706 1.47511.39687-.1161.30255.0501.39591.69929.39283.58817-.003.73881-.0755.48697-.23501-.6665-.42215-.0184-.81928 1.33714-.81928 1.21715 0 1.32539.0489 1.19685.54038-.1386.53-.0527.53957 4.47037.49855 4.23521-.0384 5.3339-.1916 4.60506-.64205-.15027-.0929-.20541-.27857-.12253-.41267.0829-.1341.49551.0111.91696.32272.75876.56097.81766.56339 6.00519.24621 2.88141-.17618 6.60814-.34294 8.28163-.37059l3.04271-.0503.0804-.9638.0804-.9638-2.1971.10618c-6.06503.29311-14.01253.63079-14.84596.63079-.51665 0-1.11796.17859-1.33625.39688-.45511.45511-1.12117.51987-1.36071.13229-.10412-.16847-3.62815-.26459-9.70121-.26459-8.58843 0-9.52171.0417-9.3771.41852.0883.23018.1606.76596.1606 1.19062 0 .72248.067.77211 1.04272.77211.5735 0 1.11448-.1161 1.20218-.25801zm10.09484-.93261c-.12489-.32546.13187-.39688 1.4269-.39688 1.22734 0 1.57919.0884 1.57919.39688 0 .30372-.33493.39687-1.4269.39687-1.02428 0-1.46987-.11198-1.57919-.39687zm3.85399-.0713c.0745-.37485.38598-.45756 1.71791-.45612 1.48402.002 2.21445.20097 1.89749.51793-.0675.0676-.92912.1843-1.91459.25945-1.59809.12185-1.78194.0871-1.70081-.32126zm-30.92734-.061c.47864 0 .41869-.10211-.3777-.64327-1.54712-1.0513-6.18075-3.30531-6.27252-3.05124-.0467.12924.0227.42715.15412.66203.31663.56579 5.12353 3.27059 5.57479 3.13689.1938-.0574.60839-.10441.92131-.10441zm12.5949-.0987c-.0606-.0543-1.30087-.72356-2.75608-1.48733-1.45521-.76376-3.5388-1.92031-4.63021-2.5701-2.73828-1.63029-2.48288-1.48531-5.42396-3.07878-1.4552-.78843-3.4405-1.86756-4.41177-2.39807-1.10603-.60411-1.82997-.86097-1.93727-.68735-.0956.15466.23398.44656.74548.66028.50424.21068 1.61414.78527 2.46644 1.27685.85229.49157 2.91884 1.61435 4.59233 2.49505s4.70959 2.5654 6.74688 3.74377c2.03729 1.17838 3.93237 2.14291 4.21128 2.14342.27892.00053.45751-.0435.39688-.0977zm.8158-.55098c0-.14228-1.98978-1.30572-7.9375-4.64112-2.4011-1.3465-4.90141-2.77949-5.55625-3.18443-2.34301-1.44884-6.34997-3.39652-6.34819-3.08569.00099.17385 1.81669 1.25782 4.03489 2.40883s5.16418 2.75497 6.54663 3.56436c2.23634 1.30932 9.02389 5.03985 9.19427 5.0533.0364.003.0661-.049.0661-.11525zm.39349-1.19698c.41847-.67709-.83292-1.51291-6.93996-4.63529-3.60272-1.84199-7.97916-4.11033-9.72541-5.04076-1.74625-.93042-3.2643-1.69501-3.37344-1.69909-.10914-.004-.19486.20095-.19049.45561.006.32341.86318.87915 2.84427 1.84308 1.55998.75904 3.43164 1.72326 4.15924 2.14273 3.0557 1.7616 5.18606 2.96618 7.80521 4.41335 1.52797.84425 3.25438 1.81036 3.83646 2.14692 1.20466.69653 1.36159.73352 1.58412.37345zm19.78779-.87933c.0709-.46526.10432-.87471.0743-.90989-.13055-.15279-16.39983-.0716-17.60176.0879-1.2449.16514-1.33087.22517-1.33087.92936v.75281l9.36473-.007 9.36473-.007.12891-.84593zm13.35465.18292 6.41615-.17009v-.66803-.66803l-8.26823.16981c-4.54753.0934-8.81316.17103-9.47918.17251-1.20422.003-1.21027.007-1.09011.82602l.12084.82332 2.9422-.1577c1.6182-.0867 5.82945-.23426 9.35833-.32781zm-33.27324-1.88874c-.002-.53996-1.03436-1.10704-12.2576-6.73454-4.34163-2.17696-7.96883-3.88315-8.06044-3.79154-.0916.0916-.0517.34643.0887.56626.28082.43979 5.70242 3.40702 9.64794 5.2803 3.01427 1.43114 8.0247 3.98814 9.12812 4.6584.99902.60685 1.45574.61348 1.45332.0211zm35.25762-.29888 4.43177-.0318v-.7481-.74809l-9.27482-.0265-9.27482-.0265-.29265.6423c-.35537.77996-.8839.82719-1.26605.11314-.27476-.5134-.55399-.52917-9.37115-.52917h-9.08796l-.15039.57508c-.0827.3163-.0971.66131-.032.76669.0991.16026 13.14033.16519 34.31804.013zm-35.25573-1.75819c0-.22188-.26789-.50675-.59531-.63304-.32743-.12628-2.67891-1.33356-5.22552-2.68283-7.11347-3.76892-14.35753-7.41138-14.48537-7.28353-.48624.48623.61549 1.3302 4.1028 3.14293 8.9762 4.66589 15.30663 7.81833 15.74038 7.83843.25466.0118.46302-.16008.46302-.38196zm39.60977-.75358c.0448-.0448.01-.43913-.0776-.87635l-.15899-.79496-3.74545.066c-2.06.0363-6.27553.0774-9.36785.0912-4.81008.0216-5.62239.0826-5.62239.42211 0 .60614-.71229.47239-.87898-.16504-.11874-.45405-.27851-.52889-.83234-.38989-.37696.0946-4.44629.17795-9.04294.1852-4.59665.007-8.52224.0764-8.72352.15362-.20128.0772-.36597.48234-.36597.90021v.75978l19.36731-.13526c10.65202-.0744 19.40394-.17189 19.44871-.21666zm-39.72267-1.41539c-.0525-.49249-.27109-.76476-.70911-.8833-.76333-.20657-4.04115-1.84177-8.17382-4.07766-1.67349-.9054-3.81662-2.05011-4.7625-2.54381-.94589-.49369-2.21663-1.22851-2.82387-1.63292-2.27048-1.51209-3.79072-1.80036-3.79072-.71881 0 .35458 1.01414.97436 3.90261 2.38502 2.14643 1.04827 5.15276 2.59637 6.68073 3.44022 4.5788 2.52873 9.38078 4.96096 9.57265 4.84859.099-.058.14578-.42576.10403-.81733zm19.8627-.94963c.028-.028.13791-.39747.24421-.82102l.19328-.77008-3.9484.1709c-2.17163.094-6.53991.25144-9.70729.34989-3.16739.0984-5.82423.28472-5.90411.41395-.50714.82059.10551.87103 9.58494.78919 5.21754-.045 9.50936-.10482 9.53737-.13283zm19.83251-1.11346.0271-.99366-2.67293.16484c-1.47012.0907-5.67927.24475-9.35367.34241l-6.68073.17755v.76428.76428l9.32656-.11302 9.32657-.11302zm-39.84787-.19316c-.0009-.79603-.13356-.92667-1.78594-1.75891-1.78632-.89969-3.0946-1.62137-8.808-4.85873-4.603-2.60817-4.91065-2.77858-6.68166-3.70108-.90262-.47017-1.91359-.86807-2.2466-.88423-.54903-.0266-.60004.0754-.54726 1.09519.0371.71637.16798 1.08246.36062 1.00854.43621-.16739 2.40337.72768 5.21921 2.37479 1.34863.78888 4.238 2.35875 6.42081 3.4886 2.18282 1.12986 4.84208 2.51361 5.90948 3.075 1.0674.5614 1.99013 1.02072 2.05052 1.02072.0604 0 .10936-.38695.10882-.85989zm21.29993-.88237c4.36563-.0702 10.12939-.2317 12.80837-.35883s5.02005-.1739 5.20238-.10394c.372.14275.59931-.5806.41859-1.33201-.10933-.4546-.32312-.48126-2.65953-.33161-1.39735.0895-5.60083.18634-9.34106.21519l-6.80043.0525-.0787.65561c-.10266.85475-.67439 1.03563-.78595.24865l-.0865-.61056-6.61459.13229c-3.63802.0728-7.86474.13229-9.3927.13229-1.54611 0-2.86433.11734-2.97252.26459-.10691.14552-.1962.55081-.19843.90066l-.004.63607 6.28385-.1866c3.45612-.10263 9.85573-.24405 14.22135-.31427zm-21.30803-1.76347c-.009-.81253-.12088-.91091-2.03863-1.78594-1.81919-.83005-8.15802-4.32532-11.95412-6.59157-1.85542-1.10767-5.48775-2.93343-5.83605-2.93343-.14875 0-.27046.35719-.27046.79375 0 .54313.13048.79375.41323.79375.37199 0 4.59062 2.1356 5.29971 2.68288.15894.12267.93285.55493 1.71979.96057 1.90467.98178 11.08045 6.12358 11.74229 6.57999.7755.53479.93425.44891.92424-.5zm19.81895-1.24108c.44347-.66564 1.0923-.71427 1.09197-.0818-.00022.43038.47086.4587 6.68073.40173 3.67453-.0337 7.90136-.13447 9.39294-.2239 2.55151-.15298 2.71174-.19632 2.70793-.73245-.007-.91612-.38593-1.31115-1.0553-1.0987-.32794.10409-6.62335.23765-13.9898.29682-7.36646.0592-13.75074.14999-14.1873.20183-.43657.0518-2.72852.10961-5.09323.12837l-4.29948.0341v.96578.96579l9.19427-.15635c8.89997-.15133 9.20589-.17378 9.55727-.7012zm-19.80987-1.04192c0-.31262-.31909-.62694-.8599-.84705-1.29337-.52639-8.88354-4.90033-12.10469-6.97548-.80036-.51562-1.69137-1.08706-1.98001-1.26988s-1.00301-.64103-1.5875-1.01825c-.58448-.37722-1.62824-1.01361-2.31947-1.41421l-1.25677-.72835v1.08399 1.08399l1.97676.91309c1.08722.50219 3.67683 1.9175 5.75469 3.14513s4.93728 2.85038 6.35426 3.60611c6.16084 3.28581 6.02263 3.23025 6.02263 2.42091zm12.78008-1.23683 7.35613-.19347-.0801-.68997c-.0593-.51104-.2173-.67514-.60925-.63283-.29104.0314-4.42483.0744-9.18621.0955-8.89035.0394-9.35217.0937-9.14547 1.07633.12368.58795.37164.64956 2.38459.5925 1.0583-.03 5.23443-.1416 9.2803-.24802zm-12.6761-.27212c.28563-.74434.18111-.8851-1.16311-1.56626-.72804-.36893-1.47105-.90672-1.65114-1.19508-.18009-.28837-.54088-.52431-.80176-.52431-.53718 0-2.06164-.77535-4.95464-2.51995-1.09141-.65817-3.05594-1.73376-4.36563-2.39021-1.30968-.65645-2.83835-1.56077-3.39704-2.0096-.77549-.62299-3.27461-1.81149-3.80912-1.81149-.26031 0-.002.70713.26085.71318.38945.009 3.67468 1.94246 6.36807 3.74786 2.63148 1.76389 3.99856 2.59703 8.11787 4.94726 1.96453 1.12085 3.86953 2.25386 4.23333 2.51781.8276.60044.9627.61099 1.16232.0908zm37.30148.14224 1.62058-.0117-1.01161-.53375c-.68057-.3591-1.11347-.4494-1.32292-.27597-.20241.16761-.72781.16354-1.50193-.0116-1.63439-.36984-2.7831-.43531-8.69417-.49549-4.11208-.0419-5.16794.0199-5.35376.31331-.40963.64675-.26332.76165 1.0172.7988.69122.0201 3.69755.12103 6.68073.22437 2.98317.10335 5.76626.14647 6.18463.0958.41838-.0506 1.48994-.0973 2.38125-.10377zm-25.44137-2.61203c7.03343-.0185 8.36945-.0814 8.25165-.38843-.11443-.29818-1.97053-.40123-9.97972-.55406-5.41153-.10326-10.37493-.14313-11.02977-.0886l-1.19063.0992 1.07108.52105c.77151.37531 1.54853.50873 2.77813.47702.93887-.0242 5.48354-.054 10.09926-.0661zm24.81299-.0176 1.19062-.0477-.9188-.40008c-1.36463-.59423-15.30831-.66902-16.01671-.0859-.44894.36954-.4108.40599.55376.52917.93263.1191 12.24536.12245 15.19113.005zm-16.85528-2.00546c.27908-.49869.98028-.49026.98028.0118 0 .33657.97382.39072 6.87916.38249 3.78355-.005 6.87917-.0509 6.87917-.10137 0-.0505-.41537-.33684-.92305-.63638-.65059-.38386-1.33394-.53371-2.3151-.50769-.76563.0203-3.65424.009-6.41914-.0254-2.7649-.0343-10.74148-.0543-17.72574-.0445l-12.69866.0179.91066.55381c.84966.51671 1.28381.55307 6.48095.54288 3.06366-.006 7.1181.0888 9.00987.21077 4.53586.29236 8.65598.10606 8.9416-.40432zm.0142-1.95416c.7444-.7444-.40607-.80697-14.46147-.78651l-14.33804.0209 1.19483.57445c1.18366.56907 1.31714.57374 14.28369.49887 7.19888-.0416 13.19332-.18001 13.32098-.30767zm10.78805-.0313c-.79289-.48339-1.39721-.55346-5.35781-.62123-4.17408-.0714-4.46412-.045-4.46412.40683 0 .44404.33774.48969 4.16719.56329 2.29195.044 4.70296.10616 5.35781.13802l1.19062.0579-.8937-.54485zm-38.77002-1.55883c.569.0206 7.02505.0228 14.34677.005 9.95289-.0243 13.4452-.11392 13.83916-.35497.43949-.2689.57057-.24559.78993.14051.22977.40445.67905.45944 3.55719.43538 1.81181-.0151 3.2942-.12046 3.2942-.23405 0-.11358-.32742-.42856-.7276-.69996-.69364-.47041-1.63103-.49345-20.08138-.49345h-19.35383l1.49441.80146c.82192.4408 1.56464.70275 1.65048.5821.0858-.12065.62163-.20252 1.19063-.18192zm12.05858-1.92138c15.34925-.0696 16.31368-.10143 16.28171-.53703-.0226-.30808-.25862-.46562-.70528-.47079-3.18355-.0369-16.15658.0545-19.85359.13982-2.54661.0588-6.88205-.01-9.63432-.15255-2.75226-.14267-5.11744-.22162-5.25596-.17545-.45743.15248 1.78213 1.47476 2.32257 1.3713.29105-.0557 7.87123-.1346 16.84487-.1753zm20.25663-.51598c-.9816-.43287-1.44869-.50377-2.09594-.31814-.45806.13137-.88186.38591-.94177.56563-.0808.24232.46092.32454 2.09594.31814l2.20486-.009zm-34.96757-1.34662c3.04644.1106 7.20587.19068 9.24316.17795 16.40197-.10247 15.70104-.0768 15.62209-.57217-.0458-.28739-.26274-.43289-.57191-.38359-.27395.0437-.61716.0819-.76268.0849-1.05218.0217-25.77946-.28561-28.26799-.35126-1.72292-.0455-3.18939.009-3.25883.12163-.17656.28568 2.124 1.23452 2.30762.95175.0839-.12917 2.58167-.142 5.68854-.0292zm32.52649.0688c-.0899-.14552-.28258-.26458-.4281-.26458s-.191.11906-.10107.26458c.0899.14552.28259.26458.42811.26458s.191-.11906.10106-.26458zm-1.68704-.43633c.33343-.40176.15644-.42558-2.2335-.30057-3.57416.18695-4.06873.7369-.66269.7369 2.03157 0 2.60587-.0865 2.89619-.43633zm63.890861 43.43032c-1.4405-.80025-2.75018-1.55897-2.91041-1.68603s-1.24383-.74071-2.408-1.36366c-1.16416-.62296-2.73666-1.59042-3.49443-2.14993s-1.44007-1.01729-1.51621-1.01729c-.0761 0-.82538-.44053-1.66495-.97895-.83957-.53843-2.18084-1.32916-2.98061-1.75718-1.46541-.78426-4.37758-2.80177-5.34722-3.70447-.3648-.33962-.46833-.66064-.34132-1.05834.32602-1.02089.61864-10.41341.62147-19.94761.002-5.12742.0741-9.438.16127-9.57907.0948-.15345 1.5103-.21206 3.5238-.14589 4.94649.16254 10.37696.16094 10.64243-.003.12744-.0788 4.67393-.15044 10.10332-.15929 9.05199-.0148 10.02255-.0599 11.68941-.54406 2.04649-.59439 2.82405-.51148 3.20929.34224.27556.61064.89598.97891 6.65282 3.949 3.20364 1.65283 4.81612 2.59937 7.63468 4.48162.58209.38872 2.6836 1.68328 4.67003 2.8768 3.76596 2.26273 4.18348 2.71823 3.71334 4.05112-.11906.33752-.24078 3.64977-.27051 7.36055-.0297 3.71078-.18444 8.23515-.3438 10.05417-.15937 1.81901-.30912 5.176-.33278 7.45997-.0237 2.28398-.11413 4.22378-.20102 4.31067-.0869.0869-8.29881.20015-18.2487.25168-9.9499.0515-18.50744.16534-19.01676.2529-.78656.13523-1.32055-.06-3.54514-1.29582zm4.96881-2.84347c.45954-1.22313 1.17494-1.82928.81297-.68882-.13518.42593.10526.2936.96151-.52917 1.21746-1.16984 1.56434-1.32787 1.56434-.71269 0 .68072-.60703 1.76978-.80653 1.44698-.11501-.1861-.70125.31935-1.54161 1.32914-.74581.89619-1.35602 1.68278-1.35602 1.74799 0 .0652.3928.11855.87289.11855.76074 0 .91679-.1214 1.21459-.94495.35365-.97802 1.82886-3.16952 2.87964-4.27785.76627-.80825 1.54287-.6993 1.44159.20224-.0691.61509-.0553.62274.2267.12577.16515-.29104.59195-.77713.94844-1.0802.61441-.52235.63196-.61531.3372-1.78594-.17103-.67919-.37845-1.2349-.46093-1.2349-.0825 0-.42712.26036-.76584.57858-1.00495.9441-1.21472.31042-.56786-1.71542.55893-1.75048.56029-1.80294.0972-3.76942-.2583-1.09684-.40298-2.0609-.32152-2.14236.30876-.30876.698.22421.85515 1.17092.27801 1.67483.37457 1.81392.75296 1.08458.25866-.49856.28554-1.14916.10868-2.63001-.12924-1.08216-.32946-2.06203-.44491-2.17748-.11545-.11546-.61597.53893-1.11226 1.4542l-.90234 1.66412-.0292 3.83645c-.0161 2.11006-.13514 3.8231-.26458 3.80678-.41401-.0522-.86869-1.23929-1.0507-2.74308-.0972-.80331-.235-1.56044-.30616-1.6825-.0712-.12206-.48535.41372-.92041 1.19062-1.24725 2.22727-2.1018 3.39693-2.48179 3.39693-.36581 0-.83185-1.40571-1.14032-3.43958-.16677-1.0996-.19522-1.135-.37217-.46302-.2447.92928-.97526.97224-.97526.0573 0-.36864.27774-1.23184.61721-1.91823.58499-1.18283.59743-1.31561.23818-2.54377l-.37903-1.2958-.76283 1.2958c-.84348 1.43278-.89929 2.10673-.42053 5.07887.24636 1.52941.37882 1.86323.63691 1.60514.69852-.69852.58381.10033-.613 4.26908-.15148.52764.0368.40719.93054-.59531.61624-.69123 1.24597-1.25678 1.39939-1.25678.17966 0 .22255.47622.1205 1.33789l-.15846 1.33789.88044-.54414c1.09642-.67762 1.81541-.71207 1.69294-.0811-.0494.25466-.26652.46742-.48242.47281-.53719.0134-1.1041.36655-2.21409 1.37927-1.29289 1.1796-1.81443 1.17466-1.17979-.0112.16828-.31443.39937-.99121.51354-1.50395l.20757-.93227-.93765 1.05833c-.5157.58209-1.28682 1.36821-1.71359 1.74694l-.77595.6886 1.92018.93858 1.92018.93858.41708-.70114c.2294-.38563.62957-1.26669.88927-1.95791zm5.52164 2.46654c.10914-.0105.19843-.25024.19843-.53269 0-.28246.11583-.58514.2574-.67263.14156-.0875.38428-.6303.53936-1.20624.15509-.57594.39645-1.04717.53636-1.04717.32517 0 .32553-.004-.13075 1.28966-.21183.60037-.35139 1.09159-.31013 1.09159.0413 0 1.07323-1.48828 2.29329-3.30729s2.37165-3.30729 2.55909-3.30729.3408.0728.3408.16169c0 .42631-4.06268 6.2203-4.79177 6.8338-.45701.38455-.78621.73128-.73156.77052.0547.0392.71607.0234 1.46981-.0352 1.22469-.0952 1.41598-.19537 1.79871-.94212.69579-1.35758 1.99604-3.41123 2.81467-4.44556.90014-1.13733.9115-1.21784.27222-1.92925-.59288-.65977-2.03905-4.13007-2.29402-5.50484-.31714-1.71001-.65473-.79935-.65473 1.76616 0 4.39085-.57551 5.3496-1.35118 2.25094-.34-1.35825-.46264-1.58021-.61239-1.10839-.10299.32448-.13257.68033-.0657.79077.0668.11044.30878.8345.53767 1.60902l.41615 1.4082-1.06288 1.10534c-.58459.60793-1.49844 1.84947-2.03078 2.75898-.89501 1.52914-1.38711 2.02511-1.38711 1.39804 0-.23204.41365-1.26763 1.13951-2.85285.14982-.32721.20487-.66245.12234-.74499-.1933-.1933-1.21924 1.19851-2.28467 3.09945l-.8379 1.49497 1.52568-.0868c.83912-.0477 1.61497-.0954 1.72411-.10591zm6.64623-.21758c-.0645-.25466.12726-.9386.42609-1.51987.29884-.58127.43958-1.09144.31276-1.13371-.12681-.0423-.16424-.40013-.0832-.79523l.14739-.71838.14488.75994c.14115.74031.17566.7135 1.33551-1.0371 1.47862-2.23172 1.91606-2.44904 1.8025-.89545-.0491.67217-.23212 1.18069-.45077 1.25269-.27854.0917-.32558-.0481-.1934-.57475.0961-.38277.10932-.69595.0294-.69595-.1649 0-2.77391 5.30622-2.77473 5.64327-.00027.12062 2.29142.15331 5.09269.0727 7.02212-.20219 11.13556-.47019 10.76186-.70115-.20895-.12913-.25263-.52378-.1302-1.17638.20176-1.07544.34981-1.11034.50123-.11816.14626.95841.49013.75019 1.31704-.79751.40817-.76395.64629-1.34393.52917-1.28885-.11712.0551-.72.33383-1.33973.61946-.61972.28563-1.19018.71909-1.26767.96326-.23745.74812-1.19249 1.81049-1.62759 1.81049-.34126 0-.38164-.22707-.23584-1.32614.0968-.72937.25156-1.53305.34401-1.78594.2009-.54955-1.81243 1.92929-2.28663 2.81534-.24297.45399-.40903.53993-.62535.3236-.21632-.21632-.20756-.61973.033-1.51921.18015-.67356.28722-1.26499.23794-1.31428-.0493-.0493-.53168.50251-1.07197 1.22622-1.27845 1.71243-1.73929 1.72961-1.58409.0591l.11675-1.25677-.85731 1.01828c-1.39288 1.65442-3.67714 2.87226-3.67306 1.95828.0008-.1819.12547-.77721.27702-1.32292.33053-1.19015.90396-1.36587.64755-.19844-.0959.43657-.0896.79375.014.79375.10357 0 .92288-.77922 1.82067-1.7316 1.22099-1.29523 1.74995-1.68648 2.099-1.55254.38238.14674.43471.36815.28976 1.2261l-.17689 1.04702 1.11928-1.21428c1.45914-1.58298 1.97384-1.60952 1.74095-.0898l-.17232 1.12448.46924-.68638c.94105-1.37654 1.92532-2.38701 2.17487-2.23278.14059.0869.21141.303.15736.48024-.054.17724-.16922.91757-.25596 1.64517l-.1577 1.32292 1.08198-1.65365c1.13265-1.73107 1.39614-1.91684 1.77034-1.24817.18778.33554.5297.17626 1.98247-.92352 1.08761-.82334 1.91228-1.26884 2.16748-1.17091.57853.222.5315.39743-.51411 1.91747-.95608 1.3899-1.24179 2.5951-.5525 2.33059.28239-.10836.35671.0688.30456.72602-.0379.47815-.15352 1.00617-.25686 1.17337-.12806.2072.11196.304.75377.304h.94166v-2.24895c0-1.62062.0924-2.25009.33072-2.25301.24088-.003.24803-.0569.0263-.19844-.22032-.14069-.24134-.81565-.0761-2.44335.17973-1.77003.39455-12.21245.27456-13.34588-.0145-.13695-.20117-.0179-.41483.26459-.23142.30596-.39186.37612-.39687.17355-.0148-.59665-.9112.0886-2.07212 1.58388-1.84418 2.37538-3.17548 3.79162-3.37586 3.59124-.10529-.10529.22506-.70048.73411-1.32263 1.49133-1.82268 2.89318-4.15646 3.83092-6.37767.481-1.13931.87453-2.13446.87453-2.21143 0-.077-.56431.49799-1.25403 1.27772-2.56156 2.89584-4.38001 4.70812-4.59242 4.57684-.33518-.20715.17005-1.29862 1.41234-3.05111 2.6982-3.80629 3.37578-4.82936 3.37578-5.09697 0-.15657-.6519.35913-1.44866 1.14599-.79676.78687-1.52851 1.35082-1.6261 1.25323-.0976-.0976.12528-.86452.49526-1.70429 1.20857-2.74312 1.1756-3.01011-.1885-1.52685-.66915.72761-1.40535 1.59081-1.63599 1.91823-.37696.53512-1.33455.88055-1.10021.39688.76866-1.58647 1.52648-3.33832 1.46898-3.39581-.0403-.0403-.80465.63351-1.69849 1.49743l-1.62516 1.57077.48073 1.58776c.46844 1.54716.99924 4.35073 1.12645 5.94974.0443.55686.1816.76322.46003.69144 1.55442-.40072 1.73062-.39297 1.35666.0597-.19972.24174-.488.43953-.64062.43953-.66705 0-1.24531.90726-1.24877 1.95923-.003 1.03351 1.21934 4.07994 1.65041 4.11195.10541.008.379-.34808.608-.79091s.88138-1.41955 1.44974-2.17048 1.41216-2.23408 1.87512-3.29589c.81639-1.87242 1.29968-2.41831 1.29925-1.46755-.00027.74157-1.53477 3.78201-2.66484 5.28032-.57152.75774-1.03912 1.43675-1.03912 1.50892 0 .0722.72637-.35125 1.61416-.94094 1.11162-.73835 1.69935-.98697 1.88778-.79855.40297.40298-.66005 2.31097-2.12482 3.81379-1.54775 1.58798-1.15815 1.62283.73955.0661.7983-.65484 1.53457-1.19063 1.63615-1.19063.50845 0 .45021.68074-.17575 2.05404-.97804 2.14575-4.37082 5.49955-4.37082 4.3206 0-.13197.60699-.74814 1.34886-1.36928 1.26215-1.05673 2.29406-2.39221 2.70202-3.49693.11101-.3006-.28603-.0918-1.07766.56669-.68938.57346-1.7447 1.28855-2.34515 1.5891-1.09656.54887-1.64874.49989-1.14925-.10196.18124-.21838.1781-.55927-.01-1.05322-.34238-.90052-.0868-1.23324.41748-.54356.20488.28019.4224.4586.48336.39646.57261-.58359 2.79178-3.52172 2.71669-3.59681-.27-.27001-3.07513 1.46272-3.49833 2.16092-.26462.43656-1.47146 1.77601-2.68188 2.97656-1.63082 1.61752-2.38011 2.18281-2.89329 2.18281-.88311 0-.57293-.41717 1.09322-1.47034.6542-.41352 1.18946-.84044 1.18946-.94871 0-.10828-.35345-.40566-.78545-.66084-.94887-.56052-1.05439-.80907-1.25488-2.95616l-.1566-1.67695-2.01344 2.00163c-1.48929 1.48056-2.13602 2.34676-2.48429 3.32734-.58601 1.64993-1.23873 1.77356-1.76088.33351-.19787-.5457-.43116-2.59953-.51842-4.56406l-.15867-3.57188-.57255 1.05834c-.3149.58208-.87944 1.46842-1.25452 1.96963-.57028.76206-.68223 1.19535-.6836 2.64583-.001 1.0011-.16457 2.04693-.38698 2.47332-.21194.40633-.46392 1.15761-.55996 1.66951-.11992.63922-.28845.88704-.5381.79124-.22976-.0882-.55646.23874-.88793.88848-.6663 1.30606-2.06611 3.38603-2.43022 3.61106-.4493.27769.32848.62673 1.40662.63125.79064.003.94599-.0806.85017-.45897zm2.9166-1.80758c.0883-.23018.1606-.58633.1606-.79145 0-.5893 1.60199-1.96503 2.2882-1.96503.51497 0 .62222.13682.62222.79375 0 .79402-.38066 1.08626-.60311.46302-.14478-.40563-1.4273.70048-1.65913 1.43091-.0851.26803-.33798.48732-.56202.48732-.26275 0-.35034-.14857-.24676-.41852zm18.41681-1.96273c0-.14552.11907-.26459.26459-.26459s.26458.11907.26458.26459-.11906.26458-.26458.26458-.26459-.11906-.26459-.26458zm-2.00327 3.55297c.22868-.22867.41577-.84328.41577-1.36579v-.95002l-1.12448 1.16736-1.12447 1.16735.66145.16714c.36381.0919.68272.18122.70871.19844.026.0172.23435-.1558.46302-.38448zm-35.42672-5.22239c.78971-2.1792.79949-2.29246.12375-1.43339-.29105.37-.52917.7533-.52917.85178 0 .35714-2.47694 3.32156-2.71034 3.24376-.34696-.11565-.31465-.26434.54774-2.52054.42972-1.12424.8621-2.46079.96085-2.97011.17481-.90158.12491-.86912-1.88904 1.22877-1.13772 1.18515-2.34229 2.23682-2.67682 2.33704-.58926.17653-.581.19656.26458.6417 1.64567.86633 2.98956 1.67477 3.12178 1.87797.0728.11182.36806.24802.65622.30267.60399.11456 1.09823-.71125 2.13045-3.55965zm35.79139 1.79471c-.0815-.0815-.2294.0654-.32876.32632-.14359.37708-.1132.40747.14811.14811.18082-.17948.26212-.39297.18065-.47443zm1.29082-1.22974c.3368-.31641.61237-.68266.61237-.81388 0-.27841-1.55111.89584-1.57286 1.19072-.026.35299.33397.21174.96049-.37684zm-44.14763-.88549c.0345-.51238.17791-1.2345.31866-1.60472.38195-1.00459.32223-1.02266-.42905-.12981-1.26478 1.5031-2.73746.74726-2.1994-1.12883l.21714-.75713-.66324.71565c-.57264.61788-.79709.69143-1.64295.53834-.94271-.17061-.91977-.14091.6078.78646.87312.53007 1.77547 1.13345 2.00521 1.34083s.54258.37706.6952.37706c.15263 0 .42572.1786.60688.39688.43042.51863.41139.53966.48375-.53473zm3.50756-2.13356 2.28198-2.27141-.22856-1.22342c-.12571-.67288-.34657-1.34143-.49081-1.48567s-.26405-.92305-.26624-1.73069c-.004-1.52412-.61061-3.7776-.84729-3.14824-.0738.19629.0354 1.35158.24272 2.56732.2073 1.21574.30426 2.28309.21546 2.3719-.0888.0888-.3631.0342-.60956-.12121-.38172-.24079-.55534-.063-1.17201 1.19999-.39814.81545-.72662 1.66123-.72996 1.87951-.003.21828-.24412 1.02323-.53509 1.78878-.54068 1.42254-.68108 2.44455-.33583 2.44455.10626 0 1.2201-1.02213 2.47519-2.27141zm2.74547 1.38212c.61013-.79991.6431-.95715.32804-1.56442-.34369-.66246-.35813-.64577-.76943.88929-.23054.86043-.37815 1.56442-.32803 1.56442.0501 0 .39636-.40018.76942-.88929zm23.6903-1.2586c0-.14552-.11906-.191-.26458-.10106-.14552.0899-.26459.28258-.26459.4281s.11907.191.26459.10106c.14552-.0899.26458-.28258.26458-.4281zm-30.23693-.62359c.41682-.50567 1.22249-1.8226 1.79038-2.92652s1.13044-2.06763 1.25011-2.14159c.11966-.074.1394-.26097.0438-.41557-.0955-.1546-.54621.4787-1.00146 1.40735-.45526.92864-.94457 1.62891-1.08736 1.55615-.14279-.0728-.23368-.69784-.20198-1.38906.0317-.69123-.0278-1.25591-.13229-1.25485-.2681.003-2.19106 5.57775-2.01959 5.85519.25462.41199.58957.24158 1.35835-.6911zm23.91923-.0529c-.3119-.53637-.38722-.36469-.1319.30065.0907.23646.22071.37419.28883.30607.0681-.0681-.002-.34115-.15693-.60672zm15.98091-1.72926c.0855-.24896-.0792-.96333-.36596-1.5875l-.52141-1.13486-.0223.9824c-.0123.54031-.2604 1.58652-.55145 2.32489-.29104.73838-.52739 1.48693-.52523 1.66345.005.38708 1.76587-1.60635 1.98636-2.24838zm-14.69029 1.38699c0-.58947-.099-.74745-.39688-.63315-.47813.18347-.51302.66745-.0794 1.10109.44556.44557.47625.41542.47625-.46794zm-30.50767.16332c-.0755-.19665.0253-1.29358.22401-2.43762.19866-1.14403.33202-2.10926.29634-2.14493-.0357-.0357-.43128.85289-.87913 1.97459l-.81426 2.03946.56067.45714c.6815.55566.79047.57547.61237.11136zm25.74517-1.41517c0-.831-.0992-1.39527-.22092-1.25677-.21061.23963-.10533 2.7649.11527 2.7649.0581 0 .10565-.67866.10565-1.50813zm9.61627 1.35496c.3326-.12762.4034-.89957.42465-4.63021.014-2.46237-.0271-4.47704-.0913-4.47704-.0643 0-.35521.38695-.64655.8599-.48618.78924-.51734 1.1697-.37919 4.63021.0828 2.07367.18264 3.77031.22191 3.77031.0393 0 .251-.0689.47052-.15317zm-32.71421-.70673c.79781-.87591 1.05524-1.49553 1.26418-3.04271.12625-.93492.0941-1.38906-.0985-1.38906-.62061 0-2.85209 4.26026-2.51618 4.80378.24247.39233.79229.24087 1.35051-.37201zm26.015-1.80646c-.14019-1.08012-.26235-2.55916-.27147-3.28677-.0156-1.24547-.0405-1.29194-.42444-.79375-.82281 1.06757-.82575 1.31816-.0445 3.79144.42885 1.35769.82824 2.42001.88752 2.36073.0593-.0593-.007-.99153-.14709-2.07165zm14.40037 1.2773c.34326-.82659.51655-2.86332.43335-5.09323l-.0395-1.05834-1.06176 1.19063-1.06176 1.19062.15549 1.92754c.0855 1.06015.22242 2.10195.30421 2.31511.25501.66455.89699.42578 1.26996-.47233zm-19.56639.33072c.0899-.14552.0374-.26458-.11668-.26458-.15411 0-.2802.11906-.2802.26458 0 .14553.0525.26459.11668.26459.0642 0 .19026-.11906.2802-.26459zm-25.37078-.46306c.006-.25466.0939-.87974.19613-1.38906.18446-.91934.18115-.91743-.45623.26458-.45535.84444-.55358 1.24715-.33786 1.38502.46496.29715.58671.2441.59796-.26054zm14.30673-.11575c-.0845-.21107-.14716-.14837-.15985.15985-.0115.27892.051.43519.13896.34727.0879-.0879.0973-.31613.0209-.50712zm28.00976-4.4249c-.33027-1.9265-.45535-2.40462-.62871-2.40313-.32045.003-3.04477 5.84302-3.12579 6.70091-.0762.80663-.004.75938 1.91906-1.25508 1.89599-1.98617 1.98988-2.14183 1.83544-3.0427zm-21.62717-2.16855c-.28976-.85801-.62718-1.498-.74983-1.4222s-.46883.79486-.76929 1.59792c-.41568 1.111-.54545 2.07452-.54276 4.02987l.004 2.56976 1.29258-2.60766 1.29258-2.60766-.52683-1.56003zm11.84214.88837c.0243-1.92815.012-3.50573-.0273-3.50573s-.44813.66744-.90852 1.4832c-.89984 1.59443-.89648 1.53472-.36264 6.4543l.15791 1.45521.54816-1.19063c.45729-.99325.55549-1.77176.59235-4.69635zm-34.09152 4.22685.067-.82572-.60668.58147c-.42341.4058-.53.68404-.35283.921.4024.53823.81968.22185.89255-.67675zm15.8147.40336c-.0803-.32742-.17187-.98203-.20348-1.45468-.0589-.88108-.45667-1.23124-.45143-.3974.006.99276.3426 2.44739.56592 2.44739.12925 0 .1693-.26789.089-.59531zm12.02358-.67708c-.015-.78704-.0627-.87387-.24598-.4474-.31927.74297-.31927 1.78482 0 1.5875.14552-.0899.25621-.60298.24598-1.1401zm-26.70431-.49407c0-.18833.58448-1.98127 1.29886-3.98433.71438-2.00305 1.52924-4.39208 1.8108-5.30895l.51194-1.66703-.97357.95067c-.89174.87075-1.05503 1.27775-1.94268 4.84203-.53301 2.14025-1.07847 4.48628-1.21214 5.21341-.2153 1.1712-.20026 1.26354.13187.80933.20621-.282.37492-.66681.37492-.85513zm4.41612-2.3308c.20491-1.18999.98854-3.68779 1.78583-5.69232.78139-1.96453 1.62389-4.22672 1.87224-5.02709.24834-.80036.67411-1.84514.94616-2.32173.45054-.78929.4538-.84365.0366-.60993-.2519.14113-.79682.5547-1.21092.91906-.41411.36436-.84491.69836-.95735.74222-.23502.0917-2.10238 7.51236-2.89624 11.50931-.29476 1.48407-.60545 3.03188-.69043 3.43959l-.15449.74128.45173-.78997c.24845-.43448.61604-1.74417.81686-2.91042zm-7.05882 2.31132c.002-.40018.17891-1.38244.39374-2.18281.50073-1.86555.49707-1.88737-.1412-.84048-.29485.48361-.68136.82955-.85891.76875-.47153-.16148-.31537-1.64655.50717-4.82306.0782-.30186-.0974-.15979-.40873.33073-.30017.47294-.62473.85989-.72124.85989-.0965 0-.10406-1.01203-.0168-2.24895.13141-1.86207.0927-2.24896-.22528-2.24896-.21119 0-.38399-.24335-.38399-.54077s.14883-.52144.33073-.49781c.65793.0854 1.02032-.0248.87178-.2651-.0834-.13494.0882-.85372.38127-1.59729.29309-.74358.53289-1.57602.53289-1.84989 0-.27386.17056-.835.37902-1.24697.20847-.41198.57153-1.16577.8068-1.67509l.42776-.92604-.17485.92604c-.17472.92532-.17364.9247 1.37602-.7795 5.98578-6.58274 9.74874-10.02853 10.32372-9.45355.23966.23966-2.90882 3.37423-3.25636 3.24198-.50242-.1912-5.22317 5.02195-4.94914 5.46536.0839.13572.36218-.0906.61843-.50283.88426-1.42261 3.44468-3.89509 2.76271-2.66781-.10108.1819.81463-.63646 2.03491-1.81858 2.67743-2.59371 5.25719-4.68996 5.48786-4.4593.0927.0927-.27747.57742-.82268 1.07707s-.99129 1.02186-.99129 1.16048-.92273 1.33722-2.05052 2.66356c-3.7398 4.39821-3.63811 4.38931.89573-.0784 3.05075-3.00628 4.68314-4.43177 5.07502-4.43177.31773 0 .57769.12148.57769.26996 0 .3039-3.47716 4.18387-7.73906 8.63558-1.56435 1.63402-2.84427 3.05103-2.84427 3.14891 0 .28354 1.87327-1.43213 7.57883-6.94121 2.93143-2.83049 5.5508-5.32516 5.82083-5.54372.43948-.35572-.051-.3843-4.67718-.27261l-5.16813.12477-2.37249 2.45672c-1.30487 1.35119-2.9093 2.99936-3.5654 3.66259-.6561.66324-1.58884 1.7119-2.07275 2.33036-.48392.61847-1.10094 1.12448-1.37116 1.12448-.27023 0-.56491.11906-.65485.26458-.0899.14552-.29013.26459-.44488.26459-.16936 0-.13862-.18433.0772-.46302.33521-.43286.32439-.43548-.16604-.0402-.61919.49903-1.46276.83185-1.42211.56108.047-.31339 2.87522-2.79852 3.02003-2.65372.0736.0736-.12581.47944-.44315.90184s.0354.17986.78395-.53897c.74851-.71883 1.30982-1.35808 1.24734-1.42056-.0625-.0625-.30636.0792-.54197.31478-.5457.5457-.757.54622-.54791.001.0901-.23486-.68563.33069-1.72391 1.25677-3.13974 2.80048-3.675 3.20962-3.675 2.80901 0-.50158 1.81101-2.58471 2.18119-2.50893.16336.0334.46864-.29639.67839-.73295.49302-1.02615 1.91737-2.532 2.31469-2.44714.16966.0362 1.42634-1.09636 2.79262-2.51687 1.36628-1.42052 2.30555-2.57956 2.08727-2.57564-.58037.0104-.97952.31856-1.72962 1.33527-.36791.49867-.84072.90803-1.05069.90969-.20997.002-1.86902 1.46153-3.68677 3.24416-1.81776 1.78263-3.36848 3.24115-3.44605 3.24115-.33971 0-.0953-.75308.38558-1.18832.28964-.26211 1.42986-1.67955 2.53383-3.14986l2.00722-2.67328-2.07081 2.12561c-1.13895 1.16909-2.33971 2.30019-2.66836 2.51355l-.59754.38793-.0671 10.18645c-.0369 5.60256-.16459 10.38669-.28372 10.6314-.1678.34472.0713.65615 1.06156 1.38251.70297.51566 1.36743.94051 1.47658.94412.10914.004.19985-.32086.20157-.72105zm-1.06147-14.36076c0-.19455.25117-1.28457.55815-2.42226.38107-1.41225.68386-2.06854.95435-2.06854.27165 0 .33785.14555.21058.46302-.4854 1.21085-.88068 2.79549-.76955 3.0851.0679.17695-.11886.54103-.41503.80906-.38284.34646-.5385.38509-.5385.13362zm-.22494-3.43247c.15219-.43656.37793-.79375.50164-.79375.12372 0 .10042.35719-.0518.79375-.15219.43657-.37793.79375-.50164.79375-.12372 0-.10042-.35718.0518-.79375zm4.72286-7.0515c0-.14553.29765-.54422.66145-.886.36381-.34177.66146-.50234.66146-.35682s-.29765.54422-.66146.88599c-.3638.34177-.66145.50235-.66145.35683zm17.35359 24.31691c-.28455-.28456-.43562.11397-.23587.62225.18738.47679.20153.47762.2942.0172.0535-.26605.0273-.55379-.0583-.63941zm3.54849-.16216c0-.33616-.12221-.18606-.50793.62384-.29703.62369-.29152.63214.0965.14787.22631-.28248.41147-.62974.41147-.77171zm-22.06946-3.46148c.87011-2.72612 1.16437-3.98548.94809-4.05757-.21486-.0716-.14962-.33487.20716-.83592.28643-.40225.62736-1.20571.75762-1.78545.22457-.99947.20646-1.04828-.34947-.942-.4888.0934-.67826.47116-1.13914 2.27115-.30406 1.18748-.73733 2.81391-.96281 3.61427-.22549.80037-.53013 2.22912-.67698 3.175-.14684.94589-.33403 2.01745-.41597 2.38125-.0978.4341-.0598.57052.11041.39688.14266-.14552.82715-2.04345 1.52109-4.21761zm2.5644 3.10126c-.0144-.0319.38257-1.22254.88218-2.64584.49962-1.42329 1.19186-3.77844 1.53831-5.23364.34646-1.45521.71505-3.00302.81911-3.43959l.18919-.79375-.70364.678c-.7137.68769-.91489 1.39732-2.80297 9.88667-.60509 2.72066-.61746 2.85101-.20266 2.13533.16869-.29104.2949-.55527.28048-.58718zm25.80136-1.25544-.0786-1.06779-.35589 1.00624c-.20555.58118-.27734 1.30765-.16994 1.71979l.18595.71355.24853-.652c.13669-.3586.21316-1.1325.16994-1.71979zm7.15081-.1536c.75289-1.20291 1.03724-1.9098.93125-2.31511-.2266-.86651-.42444-.72557-1.09026.7767-.33139.7477-.67483 1.28714-.76322 1.19876-.16737-.16738.16139-1.14144 1.00349-2.97318.58126-1.26435.60558-1.46046.1701-1.37168-.42392.0864-.55337-.87984-.1861-1.38906.22459-.31139.31612-.32275.42491-.0527.0921.22861.43693.007 1.02718-.66146.74951-.84827.89044-1.21255.90084-2.32851.009-.9934.17216-1.52062.65402-2.11666.56499-.69888.70651-.75436 1.18394-.46414.46956.28544.5919.24997.91268-.26458.20374-.32681.80147-1.28112 1.32829-2.12069s.95785-1.59635.95785-1.68172c0-.20983 1.49831-2.15258 2.4536-3.18143l.77381-.83338-1.17393-.68797c-.64566-.37838-1.28253-.68421-1.41527-.67961-.33353.0116-1.4285 1.84841-3.7393 6.27279-1.7964 3.43948-2.45516 4.46862-2.45516 3.83552 0-.12832.35719-.97068.79375-1.87191s.79375-1.70538.79375-1.78698c0-.25837-1.17096 1.25592-3.22638 4.17235-2.34767 3.33111-3.71899 4.98029-4.14119 4.98029-.16794 0-.30535-.0764-.30535-.16983 0-.0934 1.17234-2.14723 2.6052-4.56406 3.38125-5.70322 4.06073-6.90778 3.8966-6.90778-.14332 0-1.12162 1.26766-4.47413 5.79747-1.14036 1.54082-2.46772 3.28301-2.94968 3.87154-.73287.89491-.90716 1.37126-1.06492 2.91042-.29762 2.90388-.30509 3.1108-.14694 4.06919l.1495.90591.82571-1.33152c.78312-1.26284.81372-1.4119.59337-2.89028-.12778-.85732-.34603-1.82241-.485-2.14463-.16278-.37745-.16012-.64307.007-.74665.29992-.18536.91034 1.14913 1.17746 2.57415l.18315.97707 1.78639-2.69686c1.86867-2.82107 3.81875-4.89358 4.13026-4.38956.0975.15777-.29528.78177-.87286 1.38666s-1.47169 1.66577-1.98691 2.35751c-.85873 1.15294-.91725 1.34456-.70251 2.3003.12885.57343.1782 1.76363.10968 2.6449-.0776.99769-.0224 1.6023.14627 1.6023.16849 0 .20306.37498.0915.99219-.21587 1.19399-.20022 1.18053 1.16709-1.00404zm5.83858-1.58644.86961-1.99516-.44195-1.52026-.44195-1.52027-1.03404 1.13418-1.03404 1.13417.0263 2.38125c.0145 1.30969.0848 2.72039.15633 3.13489l.13002.75363.45005-.75363c.24753-.4145.84138-1.65146 1.31966-2.7488zm-34.1685.8331c.1819-.21686.33073-.6618.33073-.98876 0-.48306.7753-3.37109 2.54786-9.49084l.15327-.52917-.50458.52917c-.55246.57937-.9563 1.75959-2.30863 6.74687-.49324 1.81901-1.03078 3.65244-1.19454 4.07429-.27692.71337-.26478.74202.17371.40986.2593-.19643.62028-.53456.80218-.75142zm37.82759-.002c1.002-.9066 1.09399-1.08938.89591-1.78007-.12142-.42335-.36832-1.80928-.54868-3.07985-.18035-1.27056-.40492-2.3071-.49903-2.30342-.0941.004-.57487 1.04521-1.06835 2.31449-.82309 2.11706-.87229 2.4011-.59531 3.43669.16606.62088.30193 1.42483.30193 1.78655 0 .87004.19014.823 1.51353-.37439zm-35.5408.34895c.0883-.23018.15682-.61714.15219-.8599-.007-.38074-.0618-.37082-.39688.0722-.43367.57337-.51352 1.2062-.15218 1.2062.12995 0 .30854-.18833.39687-.41851zm9.26451-1.93465c.1878-1.65995.96449-3.01796 1.589-2.77832.51938.19931 2.17003-2.54179 1.70405-2.82978-.26641-.16465-.21104-.35506.24411-.83955.54349-.57852 2.26903-5.09477 2.11222-5.5283-.0379-.1048-.84187 1.1777-1.7866 2.84999-1.62555 2.87746-2.73451 4.33699-3.05316 4.01835-.0785-.0785.43141-1.08107 1.13311-2.22795.70171-1.14688 1.79235-3.03773 2.42365-4.2019s1.33068-2.32576 1.55416-2.58131c.75443-.86268.0795-.80627-.7307.0611-.87948.94148-4.25152 6.47752-6.16031 10.11367-.99531 1.89601-1.14464 2.35463-.84711 2.60156.28743.23854.44211.10615.75727-.64813.21784-.52135.52321-.94791.67861-.94791s-.0226.60228-.39568 1.33841c-.66707 1.31638-.67075 1.35536-.22362 2.36879.25003.56671.53754.97912.63892.91647.10137-.0627.26431-.82098.36208-1.68517zm-.37266-3.58424c0-.20969.11906-.45485.26459-.54478.14552-.0899.26458.0816.26458.38126 0 .29963-.11906.54478-.26458.54478-.14553 0-.26459-.17157-.26459-.38126zm-2.23661 4.32613c.23255-.4497.34577-1.01525.2516-1.25677-.13337-.34209-.25455-.2424-.54831.45113-.66716 1.57507-.43174 2.2143.29671.80564zm7.28329-1.77186c.18463-2.37356.73454-3.66871 2.60775-6.14176.71645-.94589 1.62795-2.52347 2.02555-3.50573.70561-1.74321 1.39579-2.46521 1.05373-1.10231-.2264.90201.24493.6109.8127-.50197.23658-.46371 1.55548-2.54762 2.93089-4.63091 2.31843-3.51166 3.68399-4.97093 4.42387-4.72743.48275.15887.4503.71001-.0418.71001-.87259 0-1.81747 1.18878-5.9935 7.54063-2.1091 3.20799-3.05168 4.55335-4.59763 6.56231-1.05869 1.37576-1.1414 1.58188-.79628 1.98437.21181.24703.47093.68728.57581.97832.16932.46982.26075.41047.81527-.52917.68768-1.16529 1.20959-1.92458 2.81889-4.10104.5918-.80036 1.40493-2.16958 1.80696-3.04271.40202-.87312 1.36023-2.65906 2.12934-3.96875s1.61065-2.80724 1.87009-3.32791c.25944-.52066.65742-1.10079.8844-1.28917.6499-.53937.53191.26653-.19608 1.33929-.681 1.0035-2.01725 3.43652-3.81848 6.95259-.66266 1.29353-1.85366 3.25621-2.64668 4.36152s-1.90839 2.80846-2.4786 3.78479c-1.00883 1.72737-1.02864 1.80936-.73601 3.04681.1654.69941.3868 1.50903.49201 1.79915.17547.48388.22466.462.59503-.26458.22207-.43564.49037-1.62038.59622-2.63275.16604-1.58799.14002-1.79715-.18953-1.52365-.2101.17437-.45683.2422-.54828.15074-.0915-.0915.54213-.98734 1.40797-1.99085s2.77024-3.45773 4.23201-5.45381c1.46176-1.99609 3.77828-4.99847 5.14781-6.67196l2.49005-3.04271-2.80443-1.37174-2.80443-1.37175-.65403 1.23946c-.35971.68169-.86206 1.53711-1.11633 1.90091s-.76555 1.2915-1.13618 2.06155c-1.59274 3.30919-2.62759 4.79002-3.47196 4.9682-1.43235.30226-2.21555 1.27602-5.30547 6.59629-.84516 1.45521-1.77176 3.04062-2.05912 3.52313-.49286.8276-.4984.93252-.0977 1.85209.2336.53613.55023 1.32159.70363 1.74547.44331 1.225.89096.42995 1.07258-1.90497zm-14.62783 1.49498c-.0661-.19816-.18599-.0782-.27955.27955-.11508.44009-.0807.54339.11569.34706.15375-.15375.22748-.43573.16386-.62661zm6.80563-1.68362c2.48874-4.65209 4.1563-7.67694 4.39174-7.96632.25623-.31495 1.02906-2.7081 1.016-3.14618-.004-.14552-.35777.14468-.7854.6449-1.08693 1.27141-1.32042.7931-.30386-.62244.96208-1.33968 1.03668-1.60246.35067-1.23532-.45615.24413-2.03416 2.18752-3.42332 4.21598-.77078 1.1255-2.19847 3.95594-3.03985 6.02657-.58966 1.45118-.61062 1.62873-.22339 1.89269.37097.25289.34882.29335-.16801.30685-.71148.0186-.7184.0684-.1597 1.1488l.43561.84237.90253-2.50916c2.07667-5.77344 2.8931-7.76894 3.22361-7.87911.25601-.0853.29985.0515.16345.51001-.15888.53414-3.07658 8.31032-3.70971 9.88703-.39501.98369.0501.27515 1.32963-2.11667zm-16.87491-.33073c.45508-1.41882.90482-2.77936.99941-3.0234.13111-.33826.0551-.41314-.32001-.31506-.37204.0973-.63999.7216-1.09892 2.56039-.3338 1.33745-.66561 2.64008-.73735 2.89474-.0717.25466-.027.46302.0995.46302.12647 0 .60229-1.16086 1.05738-2.57969zm12.57127-.54084c.16243-.19571.4992-.30252.74839-.23736.37156.0972.63015-.43507 1.43722-2.95817 1.14351-3.57489 2.35809-6.38394 2.76029-6.38394.36603 0 .36574.002-.21968 1.35543-.85669 1.98085-.89443 2.54061-.0781 1.15811 1.7959-3.04142 4.04116-5.41719 5.12898-5.4271.18963-.002.71515-.68633 1.16783-1.52135 2.47746-4.56993 4.06932-7.73086 4.05084-8.04371-.015-.25441-.0637-.24228-.17335.0432-.0839.21828-.54015.87313-1.01399 1.45521-.47384.58209-1.58395 2.1299-2.46691 3.43959-3.75177 5.56495-4.79152 6.92824-4.79152 6.28245 0-.7602 2.10609-4.02914 2.59751-4.03169.2209-.001.29055-.18458.19017-.50085-.17652-.55617 1.06471-2.24993 1.46674-2.00147.13058.0807.16606-.0392.0788-.26657-.0908-.2366.13662-.80038.53187-1.31858.37976-.49789.81558-1.24082.96848-1.65094.58197-1.56101-2.17444 1.66851-4.24262 4.9708-1.88795 3.01452-2.64932 3.91792-2.64932 3.14353 0-.17172.66186-1.3425 1.4708-2.60174l1.4708-2.28953-1.66924 1.71991c-1.60818 1.657-4.84851 5.22058-6.49564 7.14363-.43624.50933-.85068 1.34276-.92098 1.85209-.0703.50932-.56206 2.32368-1.09281 4.03191-1.03905 3.34417-1.14913 4.01066-.63428 3.84016.1819-.0602.77891-1.46915 1.3267-3.13091 1.24197-3.76765 2.77603-7.72687 3.23946-8.36065.43833-.59945.7964-.30595.43975.36045-.14437.26975-1.11451 3.02995-2.15587 6.13377-1.8439 5.49583-1.88082 5.65726-1.4126 6.17735.47269.52505.48219.51247.56386-.74657.0457-.70434.21596-1.44075.37839-1.63646zm14.34016-1.23222c-.0969-.5164-.26737-.93892-.37888-.93892-.65893 0-1.3349 2.22444-1.1203 3.6866l.1279.87147.77371-1.34011c.62374-1.08036.73957-1.52211.59757-2.27904zm12.67221.25171c-.0886-.7276-.17778-1.34576-.19811-1.37367-.0203-.0279-.39786.32927-.83896.79375-.77358.81456-.79343.89568-.55987 2.28768l.24215 1.44318.75797-.91401c.68119-.82142.74165-1.04803.59682-2.23693zm-18.08113 1.43959c0-.13693-.11906-.24897-.26458-.24897s-.26458.18563-.26458.4125c0 .22686.11906.3389.26458.24896.14552-.0899.26458-.27556.26458-.41249zm23.28253-2.54487c.32278-.89894.54431-1.75805.49228-1.90913-.052-.15108-.53334.10817-1.06957.57611l-.97497.8508.30616 1.25089c.16839.688.3856 1.16425.4827 1.05834s.44062-.92806.7634-1.82701zm-2.64503-1.10031c0-.66271-.53367-2.16004-.76987-2.16004-.10392 0-.42349.32743-.71015.72761-.41579.58044-.50049 1.04703-.41879 2.3069l.10242 1.5793.8982-.9801c.49401-.53906.89819-1.20221.89819-1.47367zm-42.46752-.83554c.54511-.4524.50351-.89213-.0638-.67444-.30896.11856-.22426-.0712.25503-.57151.53772-.56126.76229-1.12923.89588-2.26586.0981-.83427.26929-1.51685.38055-1.51685.11124 0 .32871-.36271.48325-.80602l.28097-.80602-.76054.60758c-.78128.62414-1.21747 1.61427-.92187 2.09256.0918.14851-.008.41093-.22221.58315-.39691.31942-1.07852 2.79975-1.35845 4.94333l-.15549 1.19063.39396-1.2228c.21667-.67254.57339-1.37173.79272-1.55375zm54.80786-2.03881c1.1671-1.1641 1.39247-1.54911 1.4648-2.50237l.0855-1.12661-2.11667-1.38176c-1.16416-.75997-2.97826-1.98102-4.03133-2.71344l-1.91467-1.33168-1.42223 1.77623c-.78222.97693-1.5875 2.09638-1.7895 2.48767s-.91842 1.6135-1.59206 2.71602l-1.22478 2.00459.52586 1.42752.52587 1.42753 1.18221-.9024c.65021-.49632 1.3073-.9024 1.46019-.9024.17435 0 .23031-.4961.1501-1.33084-.12177-1.26728.0964-1.89919.4552-1.3186.25615.41446.99733-.0859 2.53401-1.71073 2.01426-2.12979 3.09379-2.35341 2.11688-.43851-.74436 1.45907-.69097 1.54077.28241.43215.85143-.96973 1.76187-1.59643 1.98909-1.36921.15943.15943-.44789 2.33796-.74706 2.6798-.12099.13824-.21998.38785-.21998.55467s.49606-.15465 1.10236-.71438c1.31469-1.21371 2.20009-1.38734 1.80737-.35443-.47351 1.24544-1.00608 2.11517-2.75311 4.49612-1.31092 1.78659-1.43541 2.01784-.49851.92604.68681-.80036 1.86944-2.07431 2.62806-2.83098zm-10.742-1.20392c.006-.1819.33338-.75892.7276-1.28228.39423-.52335 1.10292-1.46284 1.57488-2.08776.47197-.62491 1.05926-1.77429 1.3051-2.55417.47572-1.50917.8795-1.85245.8795-.74772 0 .85169-1.0744 2.9825-2.15853 4.28092-.46012.55107.14627.0197 1.34754-1.18086 1.20127-1.20055 2.2919-2.18281 2.4236-2.18281.60908 0 .12787 1.40323-.96447 2.81243-1.45754 1.88036-2.11659 2.24463-.9234.51037.47049-.68383.80785-1.29091.74968-1.34908-.0582-.0582-1.04911.84317-2.20211 2.00297-1.99285 2.00461-2.78351 2.51406-2.75939 1.77799zm11.10166 5.11106c0-.13571.23813-.32233.52917-.4147.45045-.14297.5265-.39162.51126-1.67148-.0123-1.02986-.0845-1.33681-.22942-.97435-1.02261 2.55842-1.261 3.30729-1.05283 3.30729.133 0 .24182-.11104.24182-.24676zm-53.81874-1.54323c.35146-.23678 1.16666-2.58707 1.16666-3.3636 0-.30878.10652-.67452.23671-.81277.3614-.38376.63836-1.97114.34391-1.97114-.3841 0-1.01529 1.0812-1.23793 2.12055-.10865.50718-.28733 1.04122-.39707 1.18674-.10975.14552-.28157.71952-.38184 1.27556s-.24759 1.18111-.32739 1.38906c-.15601.40656.12946.49054.59695.1756zm4.77902-2.70648c.15558-.58288.18641-1.05978.0685-1.05978-.50449 0-2.09338 2.78044-2.09338 3.66326 0 .0796.39195-.23518.87099-.69949.47905-.46431.99829-1.3211 1.15387-1.90399zm35.15765.27697c-.27449-.44414-.93459.17112-.93459.87111v.55556l.56127-.56127c.3087-.3087.4767-.69813.37332-.8654zm-36.99838-.87161c.39589-1.32344.44155-2.14352.10786-1.93729-.37207.22995-1.26382 2.06349-1.47811 3.03916-.19382.88246-.19285.88351.41948.45461.33757-.23644.76541-.93685.95077-1.55648zm33.37853-.53901c.71479-1.05927 1.48578-2.08045 1.71332-2.26929s.79814-.95928 1.26799-1.71208c1.02486-1.64201 2.75044-4.02204 3.59388-4.9569l.61149-.67777-.9278-.44243c-.55519-.26475-.92779-.32934-.92779-.16082 0 .15488-.40063.8971-.89029 1.64936-.48966.75227-1.62707 2.77431-2.52758 4.49343-.90052 1.71912-2.05136 3.77294-2.55743 4.56406-1.35706 2.12142-.86504 1.74904.64421-.48756zm-29.7177-.173c-.17925-.57738.25647-1.18328.72236-1.0045.42531.1632 2.70178-2.06105 4.81782-4.70733.69573-.87006 2.28925-2.62372 3.54117-3.89703 1.25191-1.27331 2.18189-2.31511 2.06663-2.31511-.11527 0-2.19638 1.9557-4.62469 4.346-2.42832 2.3903-4.9509 4.78457-5.60575 5.3206-1.31445 1.07595-1.69269 1.66095-1.95031 3.0164l-.17278.90903.66713-.62673c.36916-.34681.60964-.81191.53842-1.04133zm-1.07188-1.72869c.18701-.63484 1.64783-2.34806 4.76755-5.59129 6.45073-6.70612 6.1949-6.76502-.46071-.10607-5.35856 5.36126-5.69599 5.75704-5.86473 6.87917l-.17905 1.19062.73365-.72857c.40351-.40071.85499-1.14045 1.00329-1.64386zm21.46433-1.53643c2.87496-5.23038 3.03629-5.52025 4.27441-7.67994.65073-1.13509 1.11945-2.1275 1.0416-2.20535-.15901-.15901-2.07037 2.19762-3.56487 4.39533-.54198.797-1.37238 1.96698-1.84532 2.59995-.47294.63298-.8599 1.32409-.8599 1.53582 0 .21172-.22341 1.06581-.49649 1.89796-1.29672 3.95165-.9487 3.82119 1.45057-.54377zm-15.98785 1.99063c.57587-1.32336 1.2015-2.18281 1.58895-2.18281.12733 0-.0315.35572-.35294.7905-.32144.43477-.51601.85892-.43239.94254.0836.0836 1.33802-1.25436 2.78753-2.9733 2.41461-2.86346 6.90207-7.41147 8.98677-9.10805.46829-.3811.80616-.73872.75083-.7947-.0553-.056-.97426-.0626-2.04206-.0148l-1.94146.087-.88534 1.29128c-.48694.71021-1.97522 2.47151-3.30729 3.914-6.03229 6.53234-7.17993 7.93428-4.60476 5.62514.40018-.35884.7276-.52568.7276-.37075s-.17528.42716-.38951.60495c-.31897.26472-1.72715 2.99227-1.72715 3.34537 0 .4222.38397-.10565.84122-1.15645zm3.15672-4.10104c.31096-.59259.30979-.593-.2569-.0898-1.03309.91733-.9491.16844.10916-.97337 2.90485-3.13417 4.76969-4.95608 5.07286-4.95608.18554 0 .33735-.15443.33735-.34318s.47625-.80822 1.05833-1.37661c.58209-.56839 1.05834-.91446 1.05834-.76904 0 .93834-4.58866 6.45758-5.36878 6.45758-.1979 0-.64846.31686-1.00125.70412-.35279.38727-.4926.61837-.3107.51355.1819-.10481.32677-.0942.32193.0235-.0113.27515-.95004 1.40467-1.1674 1.40467-.0909 0-.0248-.26789.14706-.59531zm3.17956-3.57187c.3291-.41965.31974-.42901-.0999-.0999-.25466.19972-.46302.40808-.46302.46302 0 .21776.21727.0776.56292-.36312zm-2.01813 2.3151c.0899-.14552.28258-.26458.4281-.26458s.191.11906.10107.26458c-.0899.14552-.28259.26458-.42811.26458s-.191-.11906-.10106-.26458zm-11.81697 4.59375c.0491-.0297.18475-.47719.30143-.99454.19753-.87581.17682-.92173-.30038-.66633-.51994.27826-1.01637 1.26077-1.01637 2.01153 0 .35105.0685.35958.46302.0576.25466-.19492.5032-.37866.5523-.40831zm18.9667-.81419c.28775-.54061 1.1185-1.60218 1.8461-2.35904.87765-.91293 1.93356-2.54661 3.13715-4.8537.99783-1.91267 1.86932-3.42251 1.93664-3.35519.2027.2027-.99725 2.82593-2.2371 4.89059-.64031 1.06627-1.10353 1.99934-1.02939 2.07348.0741.0741.34883-.20296.61043-.61576 1.37311-2.16681 4.96253-6.70111 5.41951-6.84615.71581-.22719.48374-.76463-.37412-.86643-1.38944-.16488-2.53071.70813-4.64517 3.5533-4.23667 5.70078-5.33149 7.32635-5.33149 7.91613 0 .33477-.0723.79701-.1606 1.0272-.3182.82921.31654.39655.82804-.56443zm-20.03109-1.2183c.16745-.44362.2618-.84922.20968-.90134-.16932-.16932-1.48353 1.54439-1.48353 1.9345 0 .63746.92708-.11445 1.27385-1.03316zm26.74286.2667c.91798-.38599 1.62152-1.39886 3.71021-5.3415l1.40167-2.64583-1.08617 1.13597c-.59739.62479-1.08617 1.21775-1.08617 1.3177 0 .34995-1.95226 3.37886-2.98031 4.62393-1.14441 1.38599-1.14344 1.40765.0408.90973zm-21.75791-3.23433c2.81827-3.35716 3.187-4.12204.76072-1.578-.9715 1.01864-2.18809 2.28782-2.70352 2.82038-.51544.53257-.85694 1.09812-.75888 1.25677.0981.15866.21951.28847.2699.28847.0504 0 1.14469-1.25443 2.43178-2.78762zm23.78084-1.68785c.72242-1.07906 1.87018-2.57434 2.55058-3.32286l1.23709-1.36093-.7665-.28932c-.74878-.28263-.78162-.2578-1.41963 1.0739-.35922.74977-1.27302 2.49432-2.03066 3.87676-1.55822 2.84324-1.4627 2.84824.42912.0224zm-28.64819-.28703c.12501 0 .14636.13094.0474.29098-.51011.82537 1.08652-.53417 3.58346-3.05135 2.46556-2.48555 2.69654-2.79588 2.08095-2.79588-.43647 0-.8443.23175-1.10321.6269-.76746 1.1713-3.38616 4.1356-3.65343 4.1356-.14632 0-.0117-.35719.29917-.79375.89484-1.25669.4788-.92779-.92038.7276-.70724.83675-1.12286 1.37253-.92359 1.19063.19926-.1819.46458-.33073.58958-.33073zm-3.82505-2.3048c1.9462-2.13649 3.24053-3.15007 3.584-2.80661.0875.0875-.29386.70786-.84755 1.37851-1.69322 2.05091-1.5609 2.08942.63343.18439 1.15854-1.0058 2.15214-1.94661 2.20801-2.09068.0623-.16074-.2316-.19533-.76067-.0895-.47425.0949-1.25197.17245-1.72828.17245-.77206 0-1.09087.27268-2.93878 2.51354-1.88536 2.28628-2.47906 2.84479-2.47906 2.33213 0-.0998.48917-.76154 1.08705-1.47058 1.33598-1.58439 1.21701-1.91811-.17316-.48573-.55902.576-1.1124.98794-1.22973.91542-.11733-.0725-.21332-.0206-.21332.11528 0 .13592-.0729.61154-.16197 1.05694-.14634.73172-.10674.79537.41067.66007.31494-.0824 1.48915-1.15589 2.60936-2.38562zm28.32703-.75894c1.77465-2.36681 1.79015-2.40163 1.04913-2.35754-.41367.0246-.78115.0936-.81662.15332-.60442 1.01775-2.75167 5.51674-2.45112 5.13567.22955-.29104 1.22792-1.6102 2.21861-2.93145zm-29.34403-1.20228c.006-.0907-.40182.0283-.9064.26459-.73444.34387-.91915.58348-.92605 1.20124l-.009.77169.91502-1.03627c.50327-.56995.91999-1.11051.92604-1.20125zm1.01042-1.29023c.15368 0 .32048.12318.37066.27374.0555.16648.2974.11795.61737-.12388.48205-.36431.3433-.39832-1.6567-.40603l-2.18281-.008v.92359.9236l1.28603-.79131c.70732-.43521 1.41177-.7913 1.56545-.7913zm26.7778.44741c.002-.11773-.11501-.14047-.26054-.0505-.14552.0899-.26276.36485-.26053.61092.003.38557.0395.39256.26053.0505.14107-.21828.25831-.49319.26054-.61092zm-92.383181-6.2021c-.21684-.25466-.66662-.91743-.99952-1.47283-.74133-1.23681-.62372-2.81902.28114-3.7822.78798-.83877 1.14402-.4598.80397.85575-.31758 1.22862-.2414 2.0111.3286 3.3753.23496.56235.42721 1.12698.42721 1.25473 0 .37995-.41933.26495-.8414-.23075zm4.54557.28164c0-.0998.24806-.44544.55126-.76818 1.10505-1.17628 1.07765-2.80655-.0739-4.39556-.1795-.24768-.2408-.53588-.13623-.64045.24599-.246 1.45336.88346 1.93595 1.81102.5135.98698.10076 2.78295-.82256 3.57924-.66103.57008-1.45452.79589-1.45452.41393zm-1.64314-.67851c-.42581-.74812-.41593-4.59521.0129-5.02405.568-.568.80396.15754.83796 2.57665.0184 1.30969.0256 2.53008.016 2.71198-.0279.52715-.49789.38368-.86687-.26458zm84.480201-.89715c-.93122-1.05792-1.08072-1.39667-1.0801-2.44739.00053-1.02871.15664-1.40034.99727-2.37516.68461-.7939 1.15965-1.12423 1.5176-1.0553.50002.0963.49621.12518-.0944.71581-1.49058 1.49058-1.66747 3.47918-.43673 4.90972.66682.77506.86657 1.4802.4193 1.4802-.13316 0-.72847-.55255-1.32292-1.22788zm7.12968.89715c.005-.1819.18566-.56518.40229-.85172 1.08546-1.43579 1.01276-3.80168-.15501-5.04473-.72134-.76782-.23322-1.12142.64564-.4677 1.48341 1.1034 1.98951 3.34293 1.0792 4.77551-.98796 1.55478-1.99183 2.36345-1.97212 1.58864zm-4.50633-1.4587c0-.61191.38799-1.08338 1.65364-2.00945.99409-.72736 1.24301-1.30655.70455-1.63933-.1582-.0978-.42013-.0453-.58208.11668-.16194.16194-.57657.29444-.92139.29444-.88752 0-.69887-1.0705.27024-1.53354.62911-.30059.83599-.28415 1.5217.12091 1.60237.94654 1.38328 2.49407-.47372 3.34622-1.18522.54387-1.21012.57658-.5033.66133.40899.049.91788-.0555 1.13088-.23225.46662-.38726.5597-.31221.67934.54775.0894.64304.0423.66364-1.69392.73969-1.59099.0697-1.78594.0247-1.78594-.41245z" stroke-width=".264583" transform="translate(-25.983107 -106.17853)"/>
</svg>
