<?xml version="1.0" encoding="utf-8"?>
<svg xmlns="http://www.w3.org/2000/svg" version="1.1" viewBox="0 0 783 337">
	<title>A diagram showing the lines of sight from a position on the right hand side of a hexagon, aligned to have points up and down. The labelled points on the hexagon are A and B on the side visible to the viewpoint, and C and D which show the extent of the hexagon that is visible.</title>
	<path d="m 214.94756,336.26592 c -4.8293,-0.37868 -5.92513,-0.88414 -5.6015,-2.58382 0.22138,-1.16221 1.6007,-2.28487 3.06535,-2.49478 3.18185,-0.45607 3.97247,-4.17379 2.98433,-14.03267 -0.65189,-6.50378 -0.83568,-6.79749 -4.11329,-6.573 -2.14232,0.14687 -3.43093,-0.38914 -3.43093,-1.4269 0,-2.52359 2.96333,-3.1774 14.40094,-3.1774 13.80743,0 15.54164,1.59719 15.54164,14.31393 0,5.92169 -0.63134,9.75152 -1.9082,11.57561 -1.85091,2.64419 -9.26212,5.5307 -13.06311,5.0878 -1.02927,-0.11997 -4.57311,-0.42988 -7.87523,-0.68877 z m 14.06468,-8.05323 c 1.83245,-1.96812 2.54382,-4.4193 2.54382,-8.76539 0,-5.18189 -0.42891,-6.22879 -3.03947,-7.41895 -5.6661,-2.58326 -6.94138,-0.83528 -6.94138,9.51449 0,8.50746 0.23269,9.40197 2.4466,9.40197 1.34565,0 3.59134,-1.22945 4.99043,-2.73212 z m -124.07786,-3.49287 c -0.67555,-1.09374 -23.791996,-21.34384 -30.959365,-27.12052 -1.523888,-1.22821 -3.996096,-3.81542 -5.493742,-5.74932 -1.497649,-1.9339 -4.858476,-5.20953 -7.468501,-7.27918 C 58.402748,282.5012 49.851256,274.81429 42.009443,267.48883 34.167625,260.16338 23.219858,249.94135 17.681096,244.77326 12.142335,239.60516 5.8982135,233.98748 3.805299,232.2895 L 0,229.20231 0.86521046,209.22834 C 1.6132912,191.95875 1.7888796,173.6101 1.965529,94.256552 l 0.031826,-13.85347 7.7975387,-4.06222 c 10.8550753,-5.65505 29.9536473,-16.83589 39.6115043,-23.18966 4.460191,-2.93429 14.004382,-8.56793 21.20931,-12.51917 7.204957,-3.95124 16.002131,-9.06392 19.549332,-11.36149 3.547204,-2.29757 6.726397,-4.1774 7.064843,-4.1774 0.338457,0 3.499667,-1.90067 7.024877,-4.22372 6.8517,-4.51516 6.27298,-4.48986 20.00806,-0.87551 8.52963,2.24457 8.74561,2.36601 7.94066,4.46499 -0.47845,1.24764 -1.60144,1.68679 -3.09799,1.21151 -2.65409,-0.84292 -3.09545,0.67168 -0.85032,2.91819 1.07839,1.07905 1.09897,1.49804 0.0736,1.49804 -0.78292,0 -1.79921,-0.60827 -2.25839,-1.35168 -0.4592,-0.74344 -3.32279,-2.41881 -6.36356,-3.72303 l -5.52867,-2.37132 -5.87424,2.94452 c -15.584609,7.81203 -26.136216,13.82424 -47.482387,27.05501 -4.357562,2.70092 -8.160916,4.91072 -8.451938,4.91072 -0.291047,0 -4.084933,2.24708 -8.430895,4.9935 -4.345997,2.74642 -8.266624,4.99349 -8.712508,4.99349 -1.742162,0 -23.277043,12.84859 -26.4202341,15.76342 -2.9040869,2.69302 -3.2368382,3.75905 -2.6004766,8.3308 0.5888314,4.2303 1.208289,38.179828 0.8657408,47.448888 -0.045974,1.24208 -0.6448492,1.91114 -1.3310411,1.48678 -0.6861915,-0.42432 -1.2476143,-0.1766 -1.2476143,0.55052 0,0.72713 0.5225563,1.32206 1.1612171,1.32206 1.5713833,0 1.7090248,72.50454 0.1453536,76.61965 -1.1301668,2.97446 0.235885,4.54518 22.7619486,26.16875 13.180338,12.65244 26.771408,25.40482 30.202335,28.33861 3.430885,2.93379 11.010114,10.19994 16.842692,16.14697 9.205568,9.38622 28.586567,26.3397 33.432907,29.24536 1.09293,0.6553 6.76764,-4.034 17.4652,-14.43233 19.74504,-19.1928 30.6956,-30.53079 34.16815,-35.37704 3.28094,-4.57883 31.2617,-30.73544 41.61141,-38.89862 l 7.5312,-5.94016 0.30026,-50.29843 0.30026,-50.29839 -6.27196,0 c -4.74328,0 -6.27191,-0.45638 -6.27191,-1.87253 0,-1.02991 0.50218,-1.87258 1.11598,-1.87258 0.61377,0 0.413,-2.38229 -0.4462,-5.29396 -1.45312,-4.92446 -1.94045,-5.35862 -6.98209,-6.21983 -6.56778,-1.12187 -7.58467,-0.0142 -7.12178,7.76868 l 0.33421,5.61769 -6.54993,0.37733 c -7.63655,0.43993 -8.0267,-0.46071 -3.03412,-7.0045 1.93366,-2.53453 4.81865,-7.97881 6.41104,-12.09846 3.11176,-8.050328 8.83834,-18.095558 10.31799,-18.099198 1.40739,-0.003 4.44042,5.21098 5.44465,9.36059 1.42823,5.901628 9.23517,23.563808 10.87732,24.608538 3.18227,2.02456 3.51736,0.51821 2.90529,-13.06109 -0.34799,-7.724308 -0.66971,-14.144848 -0.71462,-14.267858 -0.19559,-0.53558 -11.74872,-8.05358 -14.81202,-9.63867 -1.8551,-0.9599 -7.5807,-5.73453 -12.72351,-10.61025 -5.14282,-4.87573 -14.06026,-12.09499 -19.81652,-16.04276 -21.04341,-14.43198 -30.08128,-21.28874 -30.08128,-22.82181 0,-1.9252 2.47589,-1.41839 7.33839,1.50217 4.1494,2.49227 8.09429,5.00337 27.59461,17.56522 3.774,2.43116 11.35323,8.44875 16.84269,13.37239 9.62182,8.63007 22.53445,17.53457 25.42725,17.53457 1.75606,0 1.72713,0.42025 1.46044,-21.22236 -0.20126,-16.33601 -0.45868,-18.26849 -2.63881,-19.81416 -3.81074,-2.70176 -3.00095,-5.15334 1.70217,-5.15334 4.43373,0 25.59007,4.34266 26.73434,5.48764 1.12787,1.12856 -2.28519,4.49935 -4.55574,4.49935 -1.15114,0 -2.70329,-0.61071 -3.44925,-1.35713 -0.97672,-0.97728 -1.59097,-0.97728 -2.19459,0 -0.46102,0.74642 -0.24367,1.35713 0.48299,1.35713 1.58365,0 1.81084,12.08752 0.23871,12.69182 -0.59548,0.22897 -1.47547,1.68011 -1.95549,3.22496 -0.62051,1.99692 -0.36475,2.80884 0.88477,2.80884 1.4981,0 1.75924,15.98788 1.76879,108.296458 0.007,59.56306 0.39595,109.50429 0.8662,110.98053 0.73804,2.31685 1.53167,2.59326 5.80096,2.02028 4.34816,-0.58354 4.9459,-0.35929 4.9459,1.85565 0,1.76638 -1.02545,2.70417 -3.43092,3.13748 -1.88698,0.33973 -7.64158,1.74196 -12.78796,3.11565 -5.14639,1.37372 -11.7431,2.89406 -14.65939,3.3785 -5.0684,0.84204 -5.30231,0.74207 -5.30231,-2.26565 0,-2.05014 0.86942,-3.42266 2.4952,-3.939 1.95753,-0.62167 2.50743,-1.91762 2.55192,-6.01391 0.0319,-2.87179 0.36458,-16.03547 0.7409,-29.25265 0.59519,-20.90532 0.43906,-24.03119 -1.20033,-24.03119 -1.03652,0 -2.0717,0.46183 -2.3004,1.02632 -0.22883,0.5645 -9.34743,9.40502 -20.26379,19.64558 -10.91637,10.24061 -20.84646,20.26224 -22.06695,22.27038 -3.46229,5.69681 -19.73532,21.7642 -27.32732,26.98201 -7.81175,5.36884 -14.55389,12.05383 -13.36084,13.24758 0.44263,0.4429 2.52504,0.0924 4.62757,-0.77919 2.10257,-0.87144 4.20607,-1.201 4.6744,-0.73233 1.99641,1.99759 -2.37431,5.24559 -9.61067,7.14198 -4.2821,1.12215 -9.16031,2.66701 -10.84044,3.43303 -3.77297,1.72012 -6.29625,1.7759 -7.29358,0.16101 z m 118.91089,-66.22041 c 1.87832,-0.0358 1.85901,-0.21976 -0.18531,-1.77024 -1.75868,-1.33373 -1.99319,-2.27039 -1.02276,-4.08479 0.74037,-1.38423 0.81039,-3.08079 0.17011,-4.11766 -0.66176,-1.07138 -0.53667,-2.4296 0.31861,-3.46092 1.06404,-1.28285 0.97898,-1.96274 -0.34834,-2.78354 -1.46992,-0.90898 -1.42858,-1.21186 0.2536,-1.85771 1.67939,-0.64486 1.78092,-1.37804 0.61779,-4.46142 -0.86287,-2.28744 -2.03435,-3.44301 -3.08239,-3.04062 -0.92979,0.35702 -2.5335,0.64914 -3.56387,0.64914 -1.03033,0 -1.63401,0.70218 -1.34147,1.56046 0.29247,0.85824 1.8832,1.42514 3.53486,1.25974 l 3.00308,-0.30079 -2.80712,1.19675 c -2.56589,1.09395 -3.61298,3.69447 -2.77624,6.89494 0.17965,0.68661 0.24438,2.60685 0.14432,4.26725 -0.10006,1.66039 0.70507,3.99972 1.7893,5.19856 1.08426,1.1988 1.86325,3.2109 1.73113,4.47135 -0.39107,3.73106 0.34055,6.27737 0.9276,3.22797 0.30026,-1.56021 1.47267,-2.8265 2.63722,-2.84855 z m -4.3751,-27.54516 c 2.67435,-1.21926 3.01456,-2.20267 3.11076,-8.99173 0.0594,-4.19251 0.4642,-9.7322 0.89951,-12.31046 1.05495,-6.24789 -0.19701,-9.75241 -3.54883,-9.93422 -2.1019,-0.11396 -1.90318,-0.32769 0.87101,-0.93627 l 3.59407,-0.7886 -0.22812,-13.7321 c -0.25005,-15.05238 -0.91144,-19.34981 -2.97818,-19.34981 -0.90895,0 -0.86401,-0.49822 0.13511,-1.49804 2.0782,-2.07948 1.87265,-3.56131 -0.37428,-2.69854 -1.02926,0.39524 -1.87142,0.0966 -1.87142,-0.66337 0,-0.76007 0.84216,-1.38193 1.87142,-1.38193 1.03967,0 1.87139,-1.10967 1.87139,-2.49673 0,-2.70756 -4.18986,-3.55448 -5.67654,-1.14746 -0.45837,0.7421 -1.07298,9.30908 -1.36581,19.03771 -0.29282,9.72862 -0.73047,24.14875 -0.97257,32.04472 -0.26097,8.50752 0.0735,14.99201 0.8211,15.91675 0.86581,1.07116 0.82221,1.56045 -0.139,1.56045 -3.11737,0 -1.14841,2.50296 2.03057,2.58127 l 3.43092,0.0846 -3.11904,1.40922 c -4.1749,1.88627 -4.10732,1.81521 -3.17032,3.33225 1.01658,1.64585 1.11737,1.64507 4.80812,-0.0375 z m 3.47775,-91.32277 c 0.069,-7.0377 0.32463,-18.55397 0.56835,-25.59166 l 0.44323,-12.79586 -3.68736,0 -3.68735,0 0,12.48375 c 0,7.7731 -0.48737,12.48375 -1.2915,12.48375 -0.86659,0 -0.84269,0.83916 0.0725,2.55044 0.75028,1.40274 1.24677,4.07117 1.10337,5.9298 -0.14323,1.85863 -0.17614,6.60948 -0.0725,10.55746 0.17752,6.77424 0.36362,7.17815 3.30714,7.17815 3.11596,0 3.11915,-0.0142 3.24413,-12.79583 z m -28.13121,-37.45122 c -0.26415,-0.85828 -0.81874,-3.105348 -1.23223,-4.993488 -0.41349,-1.88818 -1.26466,-3.43304 -1.89155,-3.43304 -1.03814,0 -1.46178,0.98302 -3.36238,7.802338 -0.48348,1.73467 0.17118,2.18465 3.17888,2.18465 2.45466,0 3.61864,-0.54921 3.30728,-1.56046 z m 29.2537,-5.856118 c 0,-1.33267 0.58869,-2.78711 1.30819,-3.23207 0.81828,-0.50604 0.87501,-1.35178 0.15134,-2.25833 -0.63619,-0.79713 -1.08451,-5.80314 -0.99631,-11.12446 0.13263,-7.99899 -0.17649,-9.67509 -1.78443,-9.67488 -6.20978,7.1e-4 -8.15579,6.58227 -6.55194,22.15887 0.64209,6.23569 0.84962,6.55396 4.27393,6.55396 2.73083,0 3.59905,-0.58453 3.59905,-2.42309 z M 140.48075,312.38254 c 0,-2.23862 4.78113,-3.85216 11.54035,-3.8947 3.2803,-0.0213 2.62488,3.12927 -0.9944,4.77937 -5.11006,2.32974 -10.54595,1.87374 -10.54595,-0.88467 z m 20.7839,-4.46545 c -0.59378,-1.54836 0.34374,-2.55459 3.67958,-3.94926 5.24215,-2.19166 7.82095,-1.92138 9.66786,1.01334 1.77481,2.82013 1.23319,3.18405 -6.209,4.17188 -5.26383,0.69871 -6.47704,0.48866 -7.13844,-1.23596 z m 21.19089,-6.29004 c -0.96724,-2.52207 2.90072,-4.38834 9.09508,-4.38834 5.56773,0 6.25944,1.03493 2.79089,4.17584 -2.88644,2.61379 -10.91007,2.75725 -11.88597,0.21232 z m 64.02794,-15.05242 c -1.98689,-2.39549 -0.81889,-3.4732 5.80283,-5.35433 6.91595,-1.96473 11.08909,-1.8361 12.9429,0.39898 1.74014,2.09806 2.17044,1.85177 -8.63555,4.94261 -8.30412,2.37517 -8.15091,2.37496 -10.11018,0.0142 z m 24.29821,-6.93295 c -1.65343,-2.67692 2.60547,-4.74447 10.54715,-5.12032 10.35165,-0.4899 11.46877,1.80874 2.19066,4.50759 -7.99982,2.32705 -11.57281,2.49893 -12.73781,0.61273 z m 26.20656,-6.23083 c -1.22611,-1.98511 0.98697,-3.68036 6.46459,-4.95199 7.26554,-1.68672 9.43884,-1.4767 8.97725,0.86759 -0.23588,1.19724 -2.73667,2.74585 -6.01761,3.72614 -6.85364,2.04781 -8.34566,2.10453 -9.42423,0.35826 z m 22.836,-5.60923 c -1.92578,-1.93461 -0.76573,-2.97442 5.34358,-4.7898 6.09916,-1.81235 9.93961,-1.5765 9.93961,0.61045 0,2.56315 -13.27766,6.19407 -15.28319,4.17935 z m 21.5212,-7.7109 c 0,-3.06409 1.95332,-3.89946 11.43722,-4.89136 4.98085,-0.5209 7.27691,-0.32131 7.27691,0.63311 0,2.07059 -6.66817,5.13904 -13.0784,6.01819 -5.0846,0.69737 -5.63573,0.52525 -5.63573,-1.75994 z m 26.19976,-6.92434 c 0,-1.07209 1.26322,-2.30656 2.80711,-2.74328 1.54389,-0.4367 4.58866,-1.70267 6.76616,-2.81319 3.28659,-1.67625 4.29311,-1.74171 5.92611,-0.38561 4.07349,3.38275 1.11118,5.68655 -9.04553,7.03469 -5.38342,0.7146 -6.45385,0.53335 -6.45385,-1.09261 z m 23.78476,-5.78061 c -2.80123,-1.78301 0.28914,-4.55788 6.94393,-6.23459 4.30203,-1.0839 6.12645,-1.08323 7.43418,0.003 2.44233,2.02817 1.18424,3.37591 -4.60822,4.93662 -2.75867,0.74331 -5.68243,1.59532 -6.49725,1.89338 -0.81482,0.29796 -2.28749,0.0283 -3.27264,-0.59818 z m 23.20842,-7.15613 c -2.42065,-2.42214 2.92772,-5.23898 10.88461,-5.73266 7.07088,-0.43866 6.86392,2.16788 -0.35982,4.53208 -6.73944,2.20571 -9.23567,2.49047 -10.52479,1.20058 z m 23.49659,-7.90637 c -0.42403,-0.68662 -0.46411,-1.74533 -0.0889,-2.35271 1.03861,-1.68152 11.62896,-2.93974 13.92442,-1.65431 1.63527,0.91568 1.03535,1.52915 -3.12389,3.19435 -5.86028,2.34627 -9.58953,2.62922 -10.71156,0.81267 z M 260.8546,226.96383 c -0.98418,-2.41608 -0.21607,-3.90803 1.64629,-3.19714 0.63699,0.24311 0.73234,1.56566 0.21182,2.93889 -0.88254,2.32843 -1.00777,2.34584 -1.85816,0.25834 z m 200.27338,-1.49187 c -1.71616,-2.06912 -1.71882,-2.06742 6.73246,-4.2692 5.22638,-1.36158 6.97897,-0.93892 6.97897,1.68318 0,0.9114 -2.48247,2.27613 -5.5429,3.04725 -6.86211,1.72897 -6.32693,1.75919 -8.16853,-0.46123 z m -273.86196,-3.05252 c -7.72596,-0.54754 -9.98085,-1.1304 -9.98085,-2.57992 0,-1.1905 1.01046,-1.76638 2.77419,-1.58102 3.50371,0.3682 4.83722,-2.28962 5.15718,-10.27854 0.13758,-3.43304 0.37412,-7.36541 0.52591,-8.73861 0.23659,-2.14013 -0.57051,-2.55112 -5.65016,-2.87724 -4.914,-0.31564 -5.92615,-0.79632 -5.92615,-2.81511 0,-2.30748 0.6678,-2.39294 12.78796,-1.63629 13.94419,0.87045 19.64981,2.99604 19.64981,7.32036 0,1.41587 -1.17466,3.58074 -2.61038,4.81079 -2.40158,2.05758 -2.45148,2.41216 -0.62381,4.43293 3.14882,3.48155 2.52239,9.51142 -1.30066,12.52048 -1.80801,1.42305 -3.63265,2.48434 -4.05473,2.35844 -0.42212,-0.12597 -5.25885,-0.54723 -10.74831,-0.93627 z m 11.09623,-6.63715 c 1.87769,-3.00064 -0.49175,-6.55395 -4.37036,-6.55395 -2.55698,0 -3.03915,0.68166 -3.37569,4.77211 -0.37317,4.53587 -0.22493,4.75219 2.99318,4.36934 1.86219,-0.22153 4.00101,-1.38594 4.75287,-2.5875 z m 0.0319,-12.92938 c 3.31284,-1.27202 2.35458,-5.11979 -1.45747,-5.85255 -1.88702,-0.36271 -3.50155,-0.56863 -3.58784,-0.45762 -0.0863,0.11112 -0.53073,1.42015 -0.98758,2.90916 -0.61125,1.99219 -0.24013,2.86076 1.40454,3.28823 1.22933,0.31954 2.32961,0.64606 2.44504,0.72572 0.1153,0.0796 1.09792,-0.19605 2.18331,-0.61294 z m 284.60969,15.8245 c -1.09687,-1.7759 1.2251,-2.70215 8.71203,-3.47536 7.11114,-0.73439 9.15038,0.81015 4.41663,3.34517 -3.00302,1.60816 -12.15967,1.69896 -13.12866,0.13021 z m 22.31745,-5.21934 c -1.11374,-1.80321 1.38653,-3.28954 7.18182,-4.26926 4.69952,-0.79447 9.74707,0.0924 9.74707,1.71234 0,0.834 -11.53091,3.94487 -14.62227,3.94487 -0.79714,0 -1.83515,-0.62458 -2.30662,-1.38795 z m 23.96703,-5.81684 c -1.14406,-1.85229 1.73626,-3.74677 7.75329,-5.09951 4.33474,-0.97456 5.4687,-0.85396 6.04268,0.64273 0.3886,1.01331 0.11941,2.42992 -0.59821,3.14796 -1.80748,1.80859 -12.24946,2.84412 -13.19776,1.30882 z m 21.6568,-6.93128 c 0,-1.32645 2.17924,-2.64362 6.49605,-3.92636 5.77488,-1.71603 6.70376,-1.7224 8.36784,-0.0573 2.72721,2.72886 0.5743,4.16412 -7.70691,5.13804 -6.07755,0.71475 -7.15698,0.54064 -7.15698,-1.15439 z m 22.99454,-5.97747 c -1.07072,-1.73354 1.37037,-3.3354 6.62673,-4.34856 8.1839,-1.57741 10.66347,1.98818 2.98367,4.29053 -6.04314,1.81167 -8.51804,1.8266 -9.6104,0.058 z m 20.90292,-8.25426 c 0.42293,-2.19739 9.92923,-4.72547 13.18061,-3.50522 2.97375,1.1161 1.54247,4.10007 -2.33929,4.87693 -7.38178,1.47726 -11.29437,0.9822 -10.84132,-1.37171 z m 22.22575,-5.81688 c 0,-3.00095 11.4824,-4.63682 13.18606,-1.87859 1.291,2.09017 -1.95112,3.56503 -7.88379,3.58644 -3.69191,0.0142 -5.30227,-0.5054 -5.30227,-1.70785 z m 21.44009,-5.45119 c 0.48058,-2.53756 7.97797,-3.61071 10.99764,-1.57418 1.66352,1.12183 1.66352,1.39867 0,2.49134 -1.02926,0.67611 -4.01789,1.23788 -6.64139,1.24839 -3.87415,0.0142 -4.6923,-0.39121 -4.35625,-2.16555 z m 18.4833,-5.679 c 0,-1.78999 6.74139,-4.62009 11.00513,-4.62009 3.73244,0 3.6602,4.4498 -0.0886,5.45504 -4.99216,1.33866 -10.91654,0.88556 -10.91654,-0.83495 z m 21.73575,-5.04803 c -1.21107,-3.15786 0.55003,-4.56556 5.7116,-4.56556 8.4157,0 8.19949,4.09449 -0.29906,5.657 -3.62654,0.6668 -4.83179,0.42376 -5.41286,-1.09144 z m 65.28486,-1.68099 c -3.14713,-0.82292 -2.77023,-1.80445 2.77246,-7.22004 4.25395,-4.15645 4.91117,-5.5088 4.64071,-9.54992 -0.17327,-2.5893 -0.71423,-5.10727 -1.20214,-5.59543 -0.48788,-0.4882 -0.3274,-1.56212 0.3561,-2.3865 2.03598,-2.45469 -3.03098,-7.56496 -9.22014,-9.29885 -3.05522,-0.85594 -7.10597,-3.17615 -9.00167,-5.15602 -4.00635,-4.18437 -3.0994,-6.53718 1.05488,-2.73641 4.43331,4.05595 11.09912,7.06891 12.09001,5.46464 1.34617,-2.17949 9.12611,-7.6024 10.90672,-7.6024 0.89065,0 3.16761,1.75148 5.05995,3.89221 1.89227,2.1407 6.66316,6.09025 10.60193,8.77675 6.72389,4.58616 10.92887,9.93766 10.92887,13.90872 0,1.97856 -5.10686,4.6317 -8.91528,4.6317 -1.40797,0 -4.329,0.78322 -6.49123,1.74047 -2.16227,0.95725 -6.66067,2.78301 -9.99645,4.05719 -3.33577,1.27421 -6.90927,3.58074 -7.94105,5.12559 -1.03177,1.54486 -2.23246,2.7437 -2.66818,2.66404 -0.43572,-0.0796 -1.77473,-0.40171 -2.97549,-0.71574 z m 29.11082,-15.34089 c 5.51303,-0.0354 6.7619,-1.11441 3.93133,-3.40165 -1.9846,-1.60363 -1.93124,-1.68449 0.64322,-0.97558 6.43075,1.77073 1.80641,-3.4904 -9.66898,-11.00044 -3.77397,-2.46987 -7.56836,-5.64419 -8.43193,-7.05397 -2.35928,-3.85169 -5.29176,-3.25489 -5.29176,1.07697 0,2.73899 1.20275,4.59337 4.85806,7.49022 2.67197,2.11752 5.72669,3.85003 6.78823,3.85003 1.06161,0 2.33181,0.65027 2.82267,1.44503 0.63492,1.02789 0.0248,1.17439 -2.10965,0.50745 -6.20618,-1.93807 -10.24229,-2.32637 -9.36163,-0.90063 0.47126,0.76301 0.22712,3.72784 -0.5428,6.58849 -1.8062,6.71175 -0.14917,7.87318 6.75662,4.73527 2.8248,-1.28359 7.14774,-2.34612 9.60662,-2.36119 z m -75.76618,11.80786 c -1.14665,-2.9901 0.73421,-4.13136 7.53651,-4.57285 10.28462,-0.66754 8.67493,3.79996 -2.06851,5.74079 -3.69819,0.66811 -4.85894,0.42015 -5.468,-1.16794 z m 21.45363,-7.87308 c 1.04467,-0.90898 5.57333,-2.40985 13.67252,-4.5313 1.37849,-0.36109 3.06276,-1.91854 3.74279,-3.46099 1.39011,-3.15305 6.91296,-4.18278 10.92126,-2.03624 3.52753,1.88903 1.47348,3.34591 -10.54156,7.47692 -9.69126,3.33204 -20.4677,4.87725 -17.79501,2.55161 z m 8.19216,-10.65339 c -0.83257,-1.00383 -1.01286,-2.13497 -0.4005,-2.51365 1.88773,-1.16741 10.35985,0.71793 9.87533,2.19768 -0.70564,2.15492 -7.75459,2.39004 -9.47483,0.31599 z m -21.0425,-4.87293 c -5.57022,-1.12046 -7.30293,-3.45512 -2.49516,-3.36201 4.86776,0.0941 13.56048,2.09186 14.8894,3.4216 1.54474,1.5457 -4.5596,1.51637 -12.39424,-0.0595 z m -29.4227,-5.49702 c -2.37423,-2.37563 -0.20338,-3.08765 6.96579,-2.28486 10.83859,1.21366 12.07024,3.11713 2.01699,3.11713 -4.48306,0 -8.52534,-0.3745 -8.98278,-0.83227 z m -18.29824,-3.27213 c -4.28899,-1.48639 -5.54612,-4.11026 -1.87139,-3.90601 1.02925,0.0573 4.15824,0.19782 6.95331,0.3121 4.10829,0.16809 5.00219,0.62659 4.66576,2.39268 -0.51967,2.72845 -4.07619,3.16672 -9.74768,1.20122 z m 79.5555,-7.02778 c -2.24043,-2.00308 -3.6265,-4.08925 -3.08016,-4.63598 0.54634,-0.54669 2.90342,1.09218 5.23786,3.64196 5.04517,5.5105 3.62551,6.16452 -2.1577,0.99402 z m -104.19572,1.56679 c -3.22534,-1.30227 -1.38193,-2.91836 3.3289,-2.91836 5.52596,0 8.83527,0.98521 8.83527,2.63031 0,1.1619 -9.44593,1.38558 -12.16417,0.28804 z m -19.96172,-4.29247 c -5.07465,-1.49436 -5.82265,-5.58241 -0.79016,-4.31856 1.79554,0.45094 4.90529,1.1482 6.91058,1.54949 3.96819,0.79416 4.1978,3.383 0.33166,3.74104 -1.31864,0.1221 -4.22214,-0.31528 -6.45222,-0.97197 z m -24.66804,-4.91274 c -0.48267,-0.78153 -0.27957,-2.01926 0.4511,-2.75049 1.60526,-1.60618 11.98598,0.26787 12.02633,2.17131 0.0379,1.78453 -11.40484,2.31569 -12.47743,0.57918 z M 567.164,107.32631 c 0,-2.41633 0.46829,-2.58141 5.18337,-1.82696 5.81513,0.93046 7.29269,1.6008 7.29269,3.30854 0,0.6461 -2.80708,1.1747 -6.23799,1.1747 -5.53121,0 -6.23807,-0.30114 -6.23807,-2.65628 z m -18.4022,-3.26428 c -2.9205,-0.99136 -1.57135,-2.81807 2.08131,-2.81807 4.34639,0 7.58763,1.1074 7.58763,2.5923 0,1.07379 -6.70914,1.23045 -9.66894,0.22578 z m -23.08071,-3.67858 c -1.20082,-0.31387 -2.18331,-1.437908 -2.18331,-2.497538 0,-1.39404 0.77602,-1.71365 2.80711,-1.15617 1.54389,0.42373 4.91244,1.12283 7.48566,1.55353 2.57315,0.43066 4.67855,1.27301 4.67855,1.871858 0,1.10854 -8.81965,1.26597 -12.78801,0.22826 z m -25.43325,-4.748258 c -1.13499,-2.95956 -0.34654,-3.18249 7.69996,-2.17676 9.16402,1.1454 9.13808,3.29152 -0.0457,3.79108 -5.39019,0.29335 -7.05745,-0.0584 -7.65415,-1.61432 z m -18.85681,-3.54146 c -5.91785,-1.9748 -5.43345,-5.10425 0.6238,-4.03005 7.4351,1.31852 9.21529,2.05708 8.70421,3.61132 -0.63213,1.92229 -4.32557,2.08807 -9.32801,0.41873 z m -27.03547,-5.00184 c -2.68972,-0.81203 -5.13407,-2.2078 -5.43181,-3.10164 -0.42651,-1.28023 1.14122,-1.4394 7.38563,-0.74985 9.0782,1.00244 13.54128,2.40009 13.54128,4.24057 0,1.69808 -9.36032,1.46307 -15.4951,-0.38908 z m -26.29977,-4.51584 c -1.37232,-0.62182 -4.00599,-1.17007 -5.85248,-1.21834 -3.59918,-0.0942 -5.71886,-2.14661 -3.95723,-3.83192 0.59205,-0.56644 5.42069,-0.33725 10.73019,0.50968 9.3419,1.48983 12.08591,2.49585 10.67053,3.9121 -1.31861,1.31937 -9.13117,1.74299 -11.59101,0.62848 z m -29.00682,-6.44783 c -6.66857,-1.92668 -4.99174,-4.04289 2.42355,-3.0586 7.5881,1.00722 9.3999,1.8645 7.06667,3.34378 -2.06323,1.30819 -4.19723,1.24403 -9.49022,-0.28523 z m -22.75465,-3.4491 c -2.91802,-0.51753 -4.50209,-1.55423 -4.80643,-3.14565 -0.41418,-2.16604 0.12224,-2.30543 6.12836,-1.59362 6.93592,0.82197 9.4787,2.23129 8.08813,4.48275 -0.89192,1.444 -2.47188,1.48707 -9.41006,0.25654 z m -25.27825,-4.75343 c -3.27235,-0.85565 -2.678,-4.13295 0.74953,-4.13295 3.92403,0 10.79085,2.46095 10.79085,3.86727 0,1.14052 -7.53165,1.31392 -11.54038,0.26575 z m -25.57593,-4.94147 c -6.23634,-3.07619 -4.98084,-4.4784 3.119,-3.48342 8.78925,1.07965 13.18985,2.6313 12.16561,4.2896 -1.19238,1.93051 -10.75952,1.42589 -15.28461,-0.80618 z m -21.67984,-3.50395 c -7.10537,-1.96001 -8.57462,-2.83269 -8.57462,-5.09279 0,-1.31976 1.02743,-1.57288 4.05469,-0.99887 2.2301,0.42284 5.00033,1.25146 6.15603,1.84136 1.1557,0.58987 3.54176,1.07251 5.30234,1.07251 3.5552,0 4.42678,3.00737 1.22757,4.23576 -1.08539,0.41678 -2.06788,0.70752 -2.18331,0.64613 -0.1153,-0.0612 -2.80765,-0.82824 -5.9827,-1.7041 z m -25.52626,-4.3326 c -5.09471,-1.24796 -6.75292,-2.36194 -6.75292,-4.53655 0,-2.20644 6.57287,-2.42255 12.35357,-0.40613 2.63255,0.91826 3.86043,2.08776 3.60436,3.433 -0.44547,2.34042 -3.66091,2.86776 -9.20501,1.50968 z m -25.14921,-4.37118 c -8.80598,-1.73627 -9.68144,-2.26498 -8.56613,-5.17326 0.66717,-1.73959 1.93098,-1.93185 7.95166,-1.20967 10.11492,1.21324 12.77272,1.97905 12.77272,3.68018 0,1.57656 -2.52394,4.56747 -3.68046,4.36134 -0.37738,-0.0673 -4.1924,-0.81362 -8.47779,-1.65859 z m -65.05339,-14.7476 c -3.31047,-1.74794 -3.74925,-3.86426 -0.92364,-4.45522 3.22638,-0.67476 12.20165,2.31197 11.68482,3.88843 -0.688,2.09859 -7.20945,2.44209 -10.76118,0.56679 z m -20.10171,-3.04937 c -5.34054,-0.8771 -10.09698,-3.17237 -9.58277,-4.6243 0.73729,-2.08181 14.77117,-1.10237 17.06227,1.19081 1.66832,1.66984 1.669,2.01122 0.007,3.06338 -1.92864,1.22032 -2.22065,1.23476 -7.48562,0.37011 z m 49.28047,-1.51697 c -2.74474,-1.27294 -5.65381,-3.43851 -6.46459,-4.81241 -4.31725,-7.3157 -2.79346,-19.8258797 2.77833,-22.8096397 2.76524,-1.48081 7.7737,-1.25082 11.94365,0.54853 1.415,0.61053 2.22016,0.10298 2.69034,-1.69602 1.13226,-4.33243 3.82005,-3.10966997 2.93192,1.33384 -0.42888,2.14562 -0.78256,5.65668 -0.78596,7.8023297 l -0.007,3.90117 -2.80093,-3.45182 c -2.47033,-3.0444497 -11.22,-7.0662497 -10.61317,-4.8783497 0.12801,0.46194 -0.49915,2.16303 -1.39392,3.7802197 -2.19311,3.96366 -0.84665,10.32673 2.93804,13.88443 2.42364,2.27829 3.95832,2.72034 7.46652,2.15068 3.75942,-0.61042 4.41587,-0.36406 4.41587,1.65732 0,2.38512 -3.4068,4.98266 -6.46791,4.93153 -0.90281,-0.0141 -3.88717,-1.0689 -6.63194,-2.34181 z m -74.23258,-4.53601 c 0,-2.3044 2.98394,-3.64029 5.75474,-2.57638 1.62934,0.62564 1.71892,1.12576 0.47103,2.63031 -2.01512,2.42957 -6.22577,2.39305 -6.22577,-0.0538 z"/>
</svg>
