<?xml version="1.0" encoding="utf-8"?>
<svg xmlns="http://www.w3.org/2000/svg" version="1.1" viewBox="0 0 818 193">
	<title>A diagram of three triangles, points downwards. They all have the same width, but the second has a smaller height than the first, and the third has a smaller height again.</title>
	<path d="m 100.50498,188.54523 c -1.56817,-2.44998 -3.250519,-5.50954 -3.738563,-6.79904 -0.488048,-1.28946 -4.474839,-8.05983 -8.859575,-15.04524 -8.749591,-13.93913 -13.997775,-23.4659 -24.25911,-44.03606 -3.73084,-7.47894 -9.085433,-17.39616 -11.899049,-22.03823 C 48.935028,95.984548 45.796161,90.711526 44.773382,88.908826 43.750606,87.106161 41.77782,83.941105 40.389425,81.875375 39.00103,79.809641 35.359232,73.987056 32.296502,68.93627 19.256427,47.431723 17.701367,44.541873 18.803116,43.860952 c 0.787809,-0.486861 0.80266,-0.85286 0.05352,-1.315906 -0.570848,-0.352673 -1.051346,-0.08897 -1.067757,0.586109 -0.0436,1.78813 -2.559405,-1.708597 -5.189594,-7.212609 -1.232401,-2.57893 -3.0843342,-6.1408 -4.1154302,-7.91529 -1.747514,-3.00742 -1.8289888,-5.75839 -0.087089,-2.94 1.0949758,1.77165 3.7949672,0.53897 3.7949672,-1.73263 0,-1.5733 -0.495562,-1.79866 -3.1954612,-1.453 -2.9559543,0.37844 -3.4128415,0.0702 -6.0958664,-4.11066 C 1.3051786,15.281106 -9.2241831e-6,12.583516 -9.2241831e-6,11.772336 -9.2241831e-6,9.5015559 12.70594,8.8179059 38.878351,9.6804459 c 12.402096,0.4087401 23.604293,0.7133501 24.893827,0.6769501 1.289505,-0.0365 9.729939,-0.0535 18.756496,-0.0379 55.530526,0.0954 87.509206,-0.007 106.785086,-0.3413301 23.81643,-0.41338 24.31125,-0.30623 20.95741,4.5413801 -2.877,4.1583 -13.12561,21.54028 -17.89702,30.353904 -8.90346,16.44632 -20.53968,36.148702 -28.68475,48.568808 -4.62087,7.046262 -9.64916,15.132472 -11.17394,17.969292 -3.30284,6.14502 -7.96342,13.53602 -13.68015,21.69492 -3.80259,5.42699 -7.42599,11.52923 -13.84664,23.31941 -1.26398,2.32107 -3.73817,6.40167 -5.49818,9.06801 -1.76004,2.66637 -3.20008,5.13326 -3.20008,5.48204 0,0.34876 -0.9046,1.90446 -2.01021,3.45713 -1.10565,1.55268 -2.15147,4.0358 -2.32405,5.51808 -0.59275,5.0907 -5.27389,13.04888 -7.67559,13.04888 -0.50829,0 -2.20723,-2.00452 -3.77544,-4.45454 z m 4.69198,-4.59989 c 0.94331,-0.85361 1.71506,-1.9532 1.71506,-2.44357 0,-0.49034 1.05507,-2.14534 2.34457,-3.67778 1.2895,-1.53247 2.34457,-3.59693 2.34457,-4.58774 0,-0.99081 1.45128,-3.34006 3.22507,-5.22056 1.7738,-1.8805 5.42903,-7.68412 8.12274,-12.89692 2.69371,-5.2128 7.88926,-14.24498 11.54566,-20.0715 3.6564,-5.82656 7.7031,-12.42523 8.9926,-14.66372 1.2895,-2.23852 3.46125,-5.72816 4.8261,-7.7548 3.14348,-4.66759 9.56941,-17.488629 11.0428,-22.032559 0.73688,-2.272479 1.56187,-3.297742 2.39604,-2.977682 1.47439,0.565799 10.21497,-12.193193 13.95666,-20.373073 1.31846,-2.882442 3.05333,-5.785264 3.85525,-6.450768 0.80192,-0.665504 2.31327,-3.143381 3.35859,-5.50642 1.04529,-2.363006 2.46275,-4.944805 3.14989,-5.737344 0.68715,-0.792535 2.43344,-3.550992 3.8806,-6.129956 4.56544,-8.135752 7.89486,-13.853712 12.19629,-20.945802 2.29467,-3.78337 4.17211,-7.40443 4.17211,-8.04679 0,-0.91103 -5.88408,-1.10838 -26.75393,-0.89731 -14.7147,0.14886 -27.13515,0.50618 -27.60108,0.79413 -0.4659,0.28781 -1.11221,0.0946 -1.43618,-0.42958 -0.74676,-1.2083 -14.54576,-1.2631 -14.54576,-0.0578 0,0.49239 1.5826,1.15354 3.51686,1.46913 6.18508,1.00921 6.41412,1.16407 2.1101,1.42657 -5.8604,0.35738 -7.30753,0.17686 -12.66064,-1.5805 -3.90115,-1.28061 -10.28394,-1.59493 -37.981962,-1.87047 -18.311053,-0.18218 -40.467182,-0.78509 -49.235843,-1.3399 -17.753742,-1.12331 -27.789395,-0.7622 -31.643638,1.13861 -2.7227942,1.34277 -2.9862493,3.33322 -0.3796126,2.86798 0.8491396,-0.1517 1.5439046,0.30092 1.5439046,1.0052 0,0.70439 1.254307,2.93845 2.78739,4.96455 2.945477,3.89275 3.728147,7.90388 1.542194,7.90388 -0.713551,0 -1.518055,0.84403 -1.78783,1.87561 -0.359983,1.37644 -0.02835,1.87561 1.244452,1.87561 1.225135,0 2.806247,2.13555 5.380964,7.267929 2.005323,3.997343 5.258111,10.010973 7.228414,13.363618 4.585464,7.802473 7.97897,14.317356 7.983966,15.327734 0.0022,0.435504 2.607077,4.397616 5.78869,8.804732 5.718586,7.921226 9.748549,14.785912 18.865276,32.135421 2.574829,4.90001 7.082383,13.12919 10.016727,18.28705 2.934386,5.1579 6.185824,11.06605 7.225437,13.1292 1.039614,2.06314 6.598942,11.8797 12.353992,21.81454 5.755092,9.93484 10.463799,18.39611 10.463799,18.80284 0,0.80044 1.97193,2.99026 2.69272,2.99026 0.24314,0 1.21372,-0.69843 2.15699,-1.55207 z m 279.31151,-68.51191 c -1.28952,-0.22295 -7.40881,-1.79342 -13.59843,-3.48968 -13.0376,-3.57293 -22.8114,-5.89297 -28.1348,-6.67846 -2.06324,-0.30447 -4.59535,-0.9079 -5.62695,-1.341 -1.03164,-0.43309 -4.40781,-1.25313 -7.50262,-1.8223 -3.09484,-0.56916 -5.76764,-1.45045 -5.93955,-1.95844 -0.17192,-0.507986 -1.60351,-0.923609 -3.18129,-0.923609 -1.57778,0 -5.65734,-0.803841 -9.06566,-1.786323 -3.40832,-0.982481 -9.46764,-2.488301 -13.46513,-3.346267 -3.99746,-0.857966 -7.26815,-1.869902 -7.26815,-2.248731 0,-1.147653 11.90011,0.722214 23.55445,3.701136 1.86517,0.476727 4.43245,0.866792 5.70511,0.866792 1.27267,0 2.60612,0.292075 2.96331,0.649375 0.35715,0.357137 1.58806,0.778217 2.73532,0.935731 1.14726,0.157358 3.77401,0.904751 5.83725,1.660567 2.06321,0.755849 9.64189,2.240649 16.84152,3.299509 10.76679,1.58355 14.2922,2.51914 19.86175,5.27104 9.67298,4.77939 18.74526,5.9028 27.30728,3.38143 3.47949,-1.02466 6.95941,-1.89691 7.73309,-1.93838 0.77371,-0.0415 4.78293,-0.89951 8.90936,-1.90687 4.12643,-1.00733 10.6678,-2.30126 14.53631,-2.87543 3.86855,-0.57416 9.98787,-1.63005 13.59847,-2.34641 3.61063,-0.71637 11.41802,-2.16154 17.34977,-3.211543 32.57822,-5.766654 33.6022,-5.994811 33.0745,-7.369908 -0.43647,-1.137374 -4.65272,-1.257318 -27.8139,-0.791189 -38.98952,0.78463 -48.2361,0.787007 -80.0522,0.02126 -22.86988,-0.551055 -28.36924,-0.929247 -28.36924,-1.951034 0,-0.69712 -0.42199,-1.26749 -0.93783,-1.26749 -0.5158,0 -0.93781,0.678157 -0.93781,1.507021 0,1.050038 -0.49769,1.316013 -1.64119,0.877143 -0.90265,-0.346642 -11.98072,-0.861867 -24.61793,-1.145385 -30.41374,-0.682303 -39.22875,-1.846226 -16.88086,-2.228882 9.02656,-0.154524 18.52206,-0.22826 21.10106,-0.163772 2.57905,0.06452 14.60666,0.391943 26.72805,0.727778 12.12137,0.336012 48.20422,0.742206 80.18412,0.902944 31.97984,0.160583 59.38377,0.66976 60.89758,1.131137 1.51377,0.461382 2.90764,1.304742 3.09742,1.874119 0.55134,1.653906 -9.36425,4.853679 -19.73739,6.369315 -11.99785,1.753008 -27.92899,4.722496 -37.69282,7.025816 -10.45814,2.46707 -13.44617,2.98916 -18.28764,3.19538 -2.32108,0.0989 -5.69729,0.50349 -7.5026,0.89915 -1.80532,0.39563 -6.23651,1.36787 -9.84714,2.16051 -3.61066,0.79264 -8.46389,1.99623 -10.78501,2.67459 -5.38147,1.57285 -10.14948,2.17579 -13.12958,1.66033 z m -21.56999,-7.71794 c 0,-1.1065 -1.82905,-2.29013 -2.50086,-1.61835 -0.67178,0.67174 0.51186,2.50078 1.61837,2.50078 0.48539,0 0.88249,-0.39709 0.88249,-0.88243 z m 426.96461,2.79323 c -2.74784,-2.55997 -4.32518,-7.973 -3.61584,-12.408818 0.77942,-4.874202 3.9685,-11.071329 5.69739,-11.071329 0.99974,0 0.72053,0.930451 -1.05523,3.516718 -2.20862,3.216682 -2.37182,4.104386 -1.91304,10.403879 0.3391,4.65611 1.02732,7.46798 2.12454,8.68035 2.2045,2.43588 1.19944,3.14976 -1.23782,0.8792 z m 8.1866,-1.85183 c 0,-1.53938 0.48281,-1.73829 3.16318,-1.30336 1.86353,0.30236 3.42963,0.0819 3.81185,-0.53623 1.09782,-1.7763 -0.44816,-4.84478 -2.91302,-5.7819 l -2.34227,-0.8905 2.42249,-2.878933 c 1.33239,-1.583405 2.42256,-3.454654 2.42256,-4.158333 0,-2.286231 -1.7605,-2.443036 -3.8598,-0.343807 -1.97621,1.976166 -2.09958,1.988217 -3.3166,0.323964 -1.92172,-2.628056 -1.62174,-2.97917 3.15786,-3.695889 3.86214,-0.579125 4.63156,-0.40421 6.0778,1.381762 1.44953,1.790079 1.49776,2.356055 0.38704,4.542265 -0.78074,1.536796 -0.97952,3.218843 -0.51672,4.37298 0.41361,1.031571 0.78176,3.443281 0.818,5.359361 0.0748,3.94482 -1.682,5.42533 -6.43723,5.42533 -2.21882,0 -2.87514,-0.4147 -2.87514,-1.81663 z m 15.49601,0.40992 c 1.4946,-3.7296 1.9147,-13.62396 0.7464,-17.58054 -1.36028,-4.606881 -1.00871,-5.478279 0.97997,-2.429037 3.73528,5.727416 3.54402,16.160747 -0.36446,19.876097 -2.01285,1.91335 -2.07776,1.91973 -1.36191,0.13361 z m -147.99019,-4.79339 c -0.31535,-0.31546 -6.82147,-0.93357 -14.45814,-1.37393 -7.63664,-0.44036 -18.73807,-1.24271 -24.66982,-1.78306 -5.93174,-0.54032 -17.85819,-1.383964 -26.50319,-1.874797 -8.64503,-0.490797 -17.29648,-1.303005 -19.22545,-1.804861 -1.92894,-0.501892 -7.4485,-1.207375 -12.26562,-1.567775 -4.81709,-0.360362 -8.2401,-0.975568 -7.60656,-1.367086 1.60522,-0.992055 28.08779,-0.848824 28.08779,0.152043 0,0.448193 -1.16053,0.841628 -2.57899,0.874343 -2.47511,0.05705 -2.49421,0.09358 -0.47349,0.905886 1.15802,0.465562 5.80028,0.830746 10.31609,0.811569 8.49543,-0.03614 34.54101,1.915271 58.59992,4.390348 9.81786,1.01002 14.3444,1.13741 15.64696,0.44036 1.11168,-0.59497 9.73212,-0.98081 21.91174,-0.98081 21.99568,0 40.06516,-0.8495 40.06516,-1.88355 0,-0.363377 -1.16057,-0.639383 -2.57906,-0.6134 -1.41846,0.0248 -10.17539,-0.295618 -19.45988,-0.714986 -9.28446,-0.419269 -29.3305,-1.073714 -44.54671,-1.454315 -17.92654,-0.448374 -5.87622,-0.547579 34.23062,-0.281799 54.24838,0.359585 74.73022,0.65774 76.43282,1.112705 0.25795,0.06878 -1.21915,0.890893 -3.28242,1.826624 -4.50361,2.042551 -31.85946,3.307881 -74.55713,3.448561 -18.30983,0.0603 -27.55956,0.43816 -29.3681,1.19968 -3.07605,1.29517 -2.97436,1.28047 -3.71654,0.5383 z m 79.97595,-5.053479 c 0,-0.515785 -1.50201,-0.937786 -3.33772,-0.937786 -1.98638,0 -3.10309,0.37968 -2.75818,0.937786 0.31854,0.515789 1.8208,0.937789 3.33776,0.937789 1.51696,0 2.75814,-0.422 2.75814,-0.937789 z m 16.41193,0 c 0.31854,-0.515785 -0.28914,-0.937786 -1.35135,-0.937786 -1.06207,0 -1.93107,0.422001 -1.93107,0.937786 0,0.515789 0.60818,0.937789 1.35142,0.937789 0.74328,0 1.61224,-0.422 1.931,-0.937789 z m -232.11192,1.708769 c 0,-0.81383 0.63305,-2.994723 1.40677,-4.846406 0.77371,-1.851686 1.44297,-5.384814 1.48734,-7.851388 0.0741,-4.12044 0.14811,-4.258938 0.91027,-1.705368 0.54762,1.834352 0.39717,4.651681 -0.44256,8.286392 -1.25107,5.41505 -3.36182,9.25558 -3.36182,6.11677 z m -21.62498,-3.717115 c -1.62439,-3.921633 -1.65561,-10.869577 -0.0655,-14.637543 1.64123,-3.889556 3.16942,-4.002587 1.82105,-0.134682 -0.62394,1.789604 -0.77747,5.768196 -0.39823,10.315779 0.33945,4.071455 0.44769,7.402621 0.24023,7.402621 -0.20728,0 -0.92625,-1.325761 -1.59746,-2.946133 z m 6.98496,-1.368507 c 0.35114,-1.495361 2.31197,-4.316627 4.35703,-6.269467 2.04498,-1.952841 3.71824,-4.29497 3.71824,-5.204757 0,-3.666238 -4.7148,-5.310893 -6.48968,-2.263741 -1.25815,2.160067 -1.29578,0.639631 -0.0422,-1.702782 1.28594,-2.402773 5.08507,-2.322773 7.56733,0.159484 1.51622,1.516203 1.83714,2.656658 1.38547,4.92345 -0.32315,1.622569 -1.0159,3.096028 -1.5391,3.274278 -1.86913,0.63697 -6.50552,5.018283 -6.06487,5.731282 0.67978,1.09987 5.42293,-0.0035 7.38868,-1.720754 1.63612,-1.42823 1.71769,-1.380345 1.40673,0.825817 -0.28984,2.05673 -0.91804,2.413655 -5.15881,2.931282 -2.65574,0.324319 -5.35493,0.914609 -5.99814,1.312115 -0.87956,0.543575 -1.01112,0.04893 -0.53076,-1.996047 z m 102.69861,0.153815 c -0.22535,-0.225425 -6.20398,-0.526525 -13.28584,-0.669366 -7.08194,-0.142831 -12.87624,-0.633143 -12.87624,-1.08956 0,-0.469105 4.58649,-0.558248 10.55055,-0.205228 5.80281,0.343452 15.93599,0.741568 22.51822,0.884374 14.50399,0.314752 17.14634,1.489301 3.35012,1.489301 -5.41591,0 -10.03149,-0.184323 -10.25681,-0.409666 z M 280.71558,90.416028 c -5.69108,-1.536158 -5.67279,-2.117271 0.0854,-2.711565 6.69205,-0.690634 8.90583,-0.09889 8.29981,2.218425 -0.52611,2.011787 -2.35963,2.11961 -8.38524,0.49314 z m 251.14036,-7.765239 c -0.0599,-0.602554 -0.38193,-1.868591 -0.71575,-2.813393 -0.47091,-1.332886 -0.34583,-1.477463 0.5569,-0.645229 0.64003,0.589936 0.96212,1.85597 0.71568,2.813393 -0.24626,0.957423 -0.49699,1.247747 -0.55683,0.645229 z M 220.35562,18.022696 c -2.06508,-4.81749 -2.39277,-11.2861901 -0.75395,-14.8829101 1.63332,-3.58469996 2.59499,-2.87381996 1.52606,1.12813 -1.60174,5.9966501 -0.94384,10.0632901 2.80678,17.3492601 0.19921,0.38684 -0.11023,0.70336 -0.68725,0.70336 -0.57712,0 -1.87836,-1.93406 -2.89164,-4.29784 z m 22.61728,0.64424 c 2.75347,-3.72414 3.38093,-10.1997901 1.36592,-14.0963301 -1.91717,-3.70725996 -1.26181,-4.90967996 0.88784,-1.62895 0.84807,1.29425 1.75196,4.60146 2.00866,7.3493201 0.37065,3.9681 0.0716,5.62317 -1.45323,8.04391 -1.05595,1.67631 -2.57181,3.04783 -3.36852,3.04783 -1.17749,0 -1.07282,-0.50827 0.55933,-2.71578 z m -12.38894,-2.20766 c -0.0666,-2.19209 -0.26971,-5.88468 -0.45119,-8.2057201 -0.41265,-5.27514 0.30732,-8.68481996 1.73339,-8.20947996 1.15921,0.38642 2.06069,14.47193006 1.17059,18.29081006 -0.81957,3.51633 -2.32395,2.36598 -2.45279,-1.87561 z"/>
</svg>
