<?xml version="1.0" encoding="utf-8"?>
<svg xmlns="http://www.w3.org/2000/svg" version="1.1" viewBox="0 0 758 387">
	<title>A diagram showing the lines of sight from a position on the right hand side of a circle on the left. The labelled points on the circle are M at the top, A on the left directly opposite the point of view, B on the right nearest the point of view, and C and D which describe the visible portion of the front of the circle.</title>
	<path d="m 202.94253,385.88187 c -3.36566,-0.56406 -7.58771,-1.5812 -9.38235,-2.26031 -1.79461,-0.67911 -5.51471,-1.59283 -8.26686,-2.03046 -2.7522,-0.43767 -6.69279,-1.31443 -8.7569,-1.94839 -14.43955,-4.43477 -20.80642,-6.70862 -21.37908,-7.6353 -0.36344,-0.58805 -1.83478,-1.06919 -3.26964,-1.06919 -3.58506,0 -26.76423,-10.70277 -32.89649,-15.18966 -18.1075,-13.24905 -22.291404,-16.85416 -31.148159,-26.83909 -5.434806,-6.12708 -11.064228,-11.89251 -12.509826,-12.81202 -1.445602,-0.91953 -3.936876,-4.40105 -5.536173,-7.73672 -1.599289,-3.33569 -4.196948,-7.45596 -5.772571,-9.15617 -5.818022,-6.27801 -8.388085,-10.798 -7.582667,-13.33576 0.558521,-1.75982 0.225284,-2.5029 -1.122396,-2.5029 -1.054218,0 -2.499512,-1.08894 -3.211756,-2.41985 -1.879784,-3.51254 -1.591104,-7.58844 0.537456,-7.58844 2.110231,0 4.422462,3.75713 4.422462,7.18598 0,1.29048 2.392501,5.21326 5.316672,8.71726 2.924171,3.504 7.760381,9.78605 10.747134,13.96015 2.986756,4.17406 7.059093,9.4365 9.049645,11.69428 1.990548,2.25778 3.62818,4.45042 3.639164,4.87253 0.03745,1.43828 31.405025,28.78175 36.049765,31.42501 2.54496,1.44828 5.84545,3.71688 7.33449,5.04133 1.48904,1.32449 4.30375,2.59555 6.25492,2.82462 1.95116,0.22925 5.79935,1.01165 8.55151,1.73906 2.75215,0.72737 6.53215,1.61886 8.39998,1.98113 2.27216,0.44065 3.1712,1.24455 2.71659,2.42922 -0.98642,2.57074 4.47336,5.6599 8.57183,4.8499 1.88407,-0.37233 3.11747,-1.17556 2.74088,-1.78494 -0.37663,-0.60941 0.15959,-1.10799 1.19173,-1.10799 1.03206,0 2.2244,0.56296 2.64961,1.25103 0.42525,0.68804 2.28804,1.29058 4.13953,1.33895 2.9096,0.0758 3.03123,0.21898 0.89631,1.05318 -2.23273,0.87246 -2.11255,1.09491 1.25099,2.31537 2.72705,0.98947 3.05269,1.37197 1.21907,1.43181 -4.5985,0.14989 -8.29994,-1.39351 -7.6159,-3.17614 0.75042,-1.95566 -1.51159,-2.23066 -4.22606,-0.51378 -1.45613,0.92101 -1.06943,1.43957 1.87649,2.51642 2.04081,0.74597 5.11793,1.86991 6.838,2.49757 5.42254,1.97872 14.16746,2.96394 13.25891,1.49379 -1.08408,-1.75412 5.42357,-2.80202 14.8882,-2.39737 5.20747,0.22252 7.41013,0.79976 7.19318,1.88468 -0.22164,1.10913 1.82496,1.56381 7.03998,1.56381 4.85861,0 7.85765,0.60842 8.84127,1.79365 1.16378,1.40234 3.97779,1.66624 12.89738,1.20969 6.27488,-0.32138 12.00704,-1.06165 12.73817,-1.64544 0.73113,-0.58376 3.29964,-1.36286 5.70779,-1.73126 6.22155,-0.95184 15.00288,-3.3643 19.39021,-5.32697 2.06415,-0.92342 7.38303,-3.16903 11.8198,-4.99033 10.00676,-4.10775 19.77755,-10.29231 27.39041,-17.33712 3.20386,-2.96479 7.49754,-6.17513 9.54154,-7.13414 2.04397,-0.95897 4.29574,-2.89958 5.00393,-4.31244 0.70815,-1.41289 3.90719,-5.63511 7.10899,-9.38277 5.40985,-6.3322 11.44459,-14.64805 19.47047,-26.83044 5.97022,-9.06209 13.86514,-27.2956 17.87556,-41.28412 2.16992,-7.56873 4.54149,-15.45024 5.27021,-17.51444 0.72875,-2.06423 1.3872,-5.44202 1.46328,-7.50621 l 0.13819,-3.75309 -8.72979,0 c -7.31565,0 -8.79963,-0.35466 -9.16136,-2.18934 -0.3824,-1.9399 0.7189,-2.1893 9.66802,-2.1893 9.87378,0 10.09952,-0.0685 10.09952,-3.05374 0,-1.67957 0.62309,-3.43882 1.38458,-3.90948 0.91162,-0.56342 0.95149,-1.12341 0.11658,-1.63935 -0.73035,-0.4514 -1.57132,-9.96663 -1.98369,-22.44342 -0.39369,-11.91288 -1.23441,-23.73437 -1.86824,-26.27 -0.63386,-2.53559 -1.50084,-7.02832 -1.92671,-9.98386 -0.73474,-5.09931 -0.64527,-5.30464 1.75156,-4.02182 2.92546,1.5657 2.87295,1.83911 2.39818,-12.49758 -0.17078,-5.16052 -0.30047,-10.79017 -0.28736,-12.51034 0.0142,-1.72017 0.0695,-9.88315 0.12508,-18.13996 0.1474,-21.741198 0.16228,-22.182848 0.76964,-22.790178 0.30473,-0.30462 2.08655,0.45045 3.95986,1.67791 l 3.406,2.23182 -1.73065,-2.77135 c -0.95188,-1.52424 -2.71719,-3.08444 -3.92301,-3.46716 -2.2517,-0.7147 -3.11195,-4.28034 -1.0327,-4.28034 0.6378,0 5.42519,1.97036 10.63864,4.37861 5.21348,2.40825 10.28781,4.37861 11.27636,4.37861 0.98858,0 2.11394,0.51219 2.50076,1.13813 1.08181,1.75046 -0.69488,5.33131 -2.33327,4.70259 -0.80007,-0.30709 -2.35031,0.0968 -3.44491,0.89709 -2.3502,1.718578 -2.90884,21.032198 -2.42851,83.962128 0.25335,33.19597 0.0319,38.83693 -1.53443,39.16315 -2.54048,0.52889 -3.7722,-7.40043 -3.5849,-23.07703 0.14953,-12.5313 0.11374,-12.69489 -2.92139,-13.27512 -2.37313,-0.45368 -3.07307,-0.0571 -3.07307,1.74109 0,1.28072 0.7037,2.33722 1.5638,2.34775 1.05605,0.0142 0.9647,0.39796 -0.28169,1.18601 -1.4411,0.91138 -1.95006,4.97831 -2.32459,18.57462 l -0.47948,17.4078 3.57555,0.71978 c 2.34255,0.47158 4.05454,0.0993 4.96446,-1.0793 1.79677,-2.32746 3.5364,-2.27842 5.55725,0.15676 1.346,1.6219 4.25239,1.88883 17.02641,1.56378 20.5173,-0.52207 20.78883,1.87915 0.31287,2.76724 -11.97174,0.51927 -15.46111,1.08117 -16.62856,2.67776 -1.08043,1.47765 -1.38324,12.66308 -1.12699,41.62499 0.1924,21.78237 0.35044,42.38153 0.35044,45.77592 0,5.53972 0.32031,6.25202 3.12746,6.95662 1.72006,0.43172 3.12747,1.49399 3.12747,2.36059 0,1.81304 -23.30465,11.09791 -25.08832,9.99552 -0.65027,-0.40192 -1.18233,-1.82347 -1.18233,-3.15898 0,-1.67287 0.87559,-2.44006 2.81473,-2.4663 2.49474,-0.0319 2.56844,-0.18156 0.64821,-1.30045 -2.00544,-1.16859 -2.12247,-4.37446 -1.57425,-43.12262 0.36652,-25.9058 0.14102,-41.86018 -0.59156,-41.86018 -0.65108,0 -1.52085,2.11112 -1.9328,4.69136 -1.4366,8.99744 -5.80525,20.89616 -12.98257,35.36027 -6.85269,13.80968 -21.06257,35.75961 -26.0082,40.17464 -2.09929,1.87405 -4.3667,4.4617 -15.4849,17.67189 -2.17386,2.58291 -5.86255,5.60263 -8.19708,6.71048 -2.33457,1.10787 -4.24464,2.79459 -4.24464,3.7483 0,2.38911 1.60731,2.17747 6.81942,-0.89787 2.4533,-1.44751 5.30017,-2.30963 6.32644,-1.91583 3.08614,1.18431 2.10929,4.44646 -1.57428,5.25738 -4.6952,1.03365 -17.21238,5.91842 -26.9224,10.50633 -4.41907,2.08804 -9.13916,3.79637 -10.48913,3.79637 -1.34996,0 -3.54719,0.82655 -4.88279,1.83678 -1.33556,1.0102 -3.83567,1.85815 -5.55577,1.88426 -1.7201,0.0248 -4.73988,0.88845 -6.71066,1.91633 -1.97074,1.02784 -4.78545,1.8755 -6.25491,1.88369 -1.46944,0.007 -5.7679,0.86357 -9.55212,1.90091 -9.10246,2.49513 -33.8682,3.79687 -37.29929,1.96051 -1.7007,-0.9102 -2.8446,-0.95336 -3.35556,-0.12649 -0.87837,1.42136 -3.59056,1.40697 -12.37643,-0.0656 z m 19.25476,-5.04535 c 0,-0.89012 -1.69706,-1.07426 -4.90549,-0.53214 -3.41453,0.57689 -5.79095,0.26008 -7.81867,-1.04325 -1.6022,-1.02962 -5.95808,-2.24685 -9.6797,-2.70496 -6.1645,-0.75877 -6.59084,-0.65718 -4.79169,1.14204 1.39283,1.39291 3.15705,1.73849 5.98615,1.17262 3.01273,-0.60257 4.29893,-0.28842 5.16662,1.26223 0.87181,1.55785 2.98191,2.06448 8.59903,2.06448 4.52946,0 7.44375,-0.53281 7.44375,-1.36102 z m 173.5816,-75.89031 c 0.31146,-0.94791 -0.6361,-1.57134 -2.40548,-1.58294 -2.34355,-0.0142 -2.54909,-0.25816 -1.04248,-1.23189 1.51739,-0.98064 1.33785,-1.21636 -0.9382,-1.23186 -2.19281,-0.0142 -2.81473,0.69028 -2.81473,3.19151 0,2.74482 0.48512,3.15324 3.34372,2.81483 1.83904,-0.21774 3.57477,-1.09955 3.85717,-1.95965 z m 0.87704,-17.00808 c 0.68286,-8.96708 0.26858,-31.76974 -0.6401,-35.22257 -0.18106,-0.68807 0.0719,-2.15852 0.56253,-3.26768 0.4904,-1.10912 0.7205,-5.33137 0.51134,-9.38274 l -0.38034,-7.3661 -4.37843,0.4287 c -2.40817,0.23581 -4.51757,0.56258 -4.68765,0.72624 -0.79902,0.76882 0.55112,27.02676 1.43518,27.9108 0.28701,0.2869 0.0921,2.02763 -0.43303,3.86805 -0.96059,3.36613 0.51392,30.64985 1.76595,32.67571 0.36904,0.59722 1.75032,0.80365 3.06939,0.45867 2.02971,-0.53081 2.51777,-2.19534 3.17516,-10.82908 z M 394.7902,183.28319 c 0.55201,0 0.90726,-2.67408 0.78941,-5.9424 -0.11764,-3.26831 0.22111,-9.03872 0.75246,-12.82308 1.3387,-9.52906 0.31713,-13.76139 -3.32189,-13.76139 -4.7099,0 -5.93163,2.77167 -5.34702,12.13079 0.37605,6.02112 0.0574,8.8773 -1.08904,9.7623 -2.35077,1.81464 2.60394,12.40229 5.3167,11.36125 1.04269,-0.40008 2.34737,-0.72747 2.89938,-0.72747 z m -2.14654,-35.91182 c -3.73836,-0.72007 -3.61374,-2.87022 0.16619,-2.87022 2.55341,0 2.95253,-0.56676 2.78238,-3.95111 -0.13359,-2.65549 -1.00857,-4.26761 -2.6684,-4.91622 -2.11408,-0.82613 -2.15443,-0.97773 -0.28063,-1.05298 3.22813,-0.12979 2.66613,-2.5689 -0.6255,-2.71472 -2.67385,-0.11845 -2.65819,-0.1688 0.31288,-1.00323 3.02712,-0.85031 3.04721,-0.92539 0.6255,-2.33931 -2.34287,-1.36789 -2.2832,-1.46325 0.93823,-1.49885 3.90288,-0.0433 4.77641,-3.14988 1.15218,-4.09768 -4.38183,-1.14593 -6.85931,2.19994 -6.80003,9.18348 0.0319,3.58762 0.71674,6.85161 1.54877,7.36589 1.08,0.66747 0.9449,1.13419 -0.48724,1.68379 -1.98772,0.76279 -2.70903,4.69826 -1.14739,6.26002 0.45872,0.45871 2.2883,0.75738 4.06573,0.66365 2.94477,-0.15534 2.9818,-0.21845 0.41698,-0.71251 z m 0.52307,-37.37063 c 0.41655,-1.08547 -0.16406,-2.89501 -1.29023,-4.02119 -1.89606,-1.89614 -2.04757,-1.88898 -2.04757,0.0972 0,1.17955 -0.63188,2.14466 -1.40414,2.14466 -0.97012,0 -0.92278,0.58002 0.15307,1.87652 2.00665,2.41797 3.63696,2.38353 4.58873,-0.0972 z m -8.71477,267.65364 c -1.62379,-1.62386 -0.89769,-2.68685 2.40066,-3.51471 5.18163,-1.30054 6.19498,-3.23253 5.94447,-11.33313 -0.20516,-6.63342 -0.54503,-7.5538 -2.92323,-7.91546 -5.11714,-0.77811 -1.69983,-3.348 5.91134,-4.44541 6.54866,-0.94419 8.22631,-0.75901 11.74595,1.29664 5.35419,3.12715 6.79415,8.9481 4.05588,16.39539 -2.30311,6.26382 -3.81766,7.23685 -13.0012,8.35235 -3.78422,0.45971 -8.31487,1.10725 -10.06813,1.43901 -1.75327,0.332 -3.58285,0.20834 -4.06574,-0.27496 z m 22.26352,-8.27993 c 0.36929,-1.54814 0.22677,-5.3482 -0.31712,-8.44448 -0.86117,-4.90486 -1.42771,-5.68059 -4.40054,-6.0255 -3.29822,-0.38264 -3.41841,-0.18425 -3.59979,5.94241 -0.10311,3.48601 -0.24413,7.0166 -0.31287,7.84566 -0.10453,1.25812 3.22285,2.85091 7.0442,3.37203 0.5029,0.0684 1.21648,-1.14198 1.5858,-2.69012 z m -224.5134,4.11474 c -3.31013,-2.09349 -0.51678,-2.6336 3.84017,-0.74257 3.86723,1.6785 3.96996,1.8495 1.12751,1.8766 -1.7201,0.0177 -3.95555,-0.49393 -4.96768,-1.13403 z m -22.55393,-7.55508 c -1.03206,-0.66702 -1.31354,-1.21269 -0.62549,-1.21269 0.68804,0 2.09542,0.54567 3.12747,1.21269 1.03206,0.667 1.31351,1.2127 0.6255,1.2127 -0.68805,0 -2.09542,-0.5457 -3.12748,-1.2127 z m 178.41994,-9.64484 c -2.04776,-2.04785 -0.24257,-4.00452 5.39684,-5.8491 7.63282,-2.49666 8.83456,-2.51627 8.83456,-0.14396 0,1.03209 -0.86685,1.87652 -1.92631,1.87652 -1.05947,0 -4.08595,1.10182 -6.72552,2.44849 -2.63954,1.34663 -5.15038,2.09725 -5.57957,1.66805 z m 21.7373,-8.96663 c 0,-1.12384 11.28118,-6.40922 13.67997,-6.40922 0.73247,0 1.33182,1.03684 1.33182,2.30406 0,1.59084 -1.49708,2.75259 -4.83637,3.75309 -5.74685,1.72187 -10.17542,1.87511 -10.17542,0.35213 z m 55.87721,-18.50253 c -1.7342,-1.73432 -0.66182,-2.74255 4.95167,-4.65532 5.9378,-2.02331 7.97513,-1.78489 7.97513,0.93323 0,2.64045 -10.87671,5.77224 -12.9268,3.72209 z m 20.43269,-7.73321 c 0,-1.34565 8.42326,-5.09544 12.37196,-5.50759 5.03787,-0.52587 4.1834,2.06551 -1.44411,4.37932 -5.67496,2.33332 -10.92785,2.87565 -10.92785,1.12827 z m 23.09177,-7.77945 c -1.05183,-1.70194 -1.13896,-1.64737 6.54141,-4.09969 7.83751,-2.50251 10.39829,-2.60695 10.39829,-0.42414 0,0.90642 -3.0049,2.59532 -6.67761,3.75309 -7.8194,2.46496 -9.15314,2.56514 -10.26209,0.77074 z m 25.01965,-7.50618 c -1.02763,-1.66282 -1.37637,-1.43058 7.3638,-4.90419 6.01746,-2.39152 7.50012,-2.60237 8.37262,-1.19058 0.7958,1.28764 -0.69112,2.42814 -5.96115,4.5723 -8.0044,3.25669 -8.64209,3.35599 -9.77527,1.52247 z m 25.31852,-8.21812 c -0.48015,-0.48009 -0.87293,-1.27522 -0.87293,-1.76691 0,-0.96394 9.7673,-3.69312 13.217,-3.69312 3.28602,0 -0.0496,3.3075 -4.17544,4.14023 -1.87664,0.37878 -4.28598,1.0271 -5.35393,1.44073 -1.06803,0.4136 -2.33462,0.3592 -2.8147,-0.12093 z m 22.31929,-7.88275 c -0.98472,-1.59336 8.4769,-6.2651 12.77355,-6.30705 4.2907,-0.0419 3.36023,2.21306 -1.80347,4.3707 -6.9772,2.91536 -10.03181,3.45457 -10.97008,1.93635 z m 23.09418,-8.81275 c 0,-0.67496 1.54807,-1.56737 3.44019,-1.98316 1.89213,-0.4158 5.48745,-1.5224 7.9897,-2.45907 4.32716,-1.61989 6.08386,-1.38155 6.08386,0.82535 0,1.11678 -11.72565,4.84409 -15.23884,4.84409 -1.25125,0 -2.27491,-0.55226 -2.27491,-1.22721 z m 26.27057,-7.76257 c 0,-1.63829 9.82563,-6.04315 13.44809,-6.02882 3.40576,0.0142 1.29473,3.24076 -3.12743,4.78107 -8.38895,2.92203 -10.32066,3.15559 -10.32066,1.24775 z M 47.140222,261.16004 c -0.863543,-3.9564 -2.07934,-8.48661 -2.701764,-10.06713 -1.46514,-3.72043 -1.454918,-9.91475 0.01772,-10.82499 0.648889,-0.40105 0.300402,-2.41272 -0.800174,-4.61894 -1.720602,-3.44918 -1.770949,-6.35145 -0.428471,-24.69677 0.836685,-11.43357 2.322393,-24.72908 3.301575,-29.54555 1.855815,-9.12855 8.495777,-32.13355 12.990597,-45.00763 4.245959,-12.16125 15.547623,-30.62552 24.543233,-40.097868 4.555669,-4.79714 9.774868,-10.41093 11.598219,-12.47513 7.032313,-7.96123 33.931293,-26.53972 47.229143,-32.62006 4.05644,-1.85479 8.41686,-3.89923 9.68981,-4.54319 4.39328,-2.22257 25.23108,-8.51632 33.33855,-10.0694 10.90097,-2.0882 50.04494,-1.84301 57.54521,0.36048 3.09619,0.90961 7.20924,1.77106 9.14012,1.91429 9.06477,0.67258 58.38808,15.30343 61.52995,18.25178 1.98702,1.8646 -1.95105,3.6045 -4.75807,2.10217 -1.85124,-0.99078 -2.27705,-0.89915 -1.85869,0.40005 0.2986,0.92691 3.06652,3.09267 6.15127,4.81284 9.51494,5.30592 13.93086,8.93805 12.5481,10.3209 -0.84064,0.84064 -4.07865,-0.30391 -9.79151,-3.4608 -11.42938,-6.31592 -12.20537,-6.95999 -10.15849,-8.43147 1.14904,-0.82602 0.94248,-0.94525 -0.7073,-0.40831 -1.37543,0.4476 -4.19244,-0.40115 -6.87467,-2.07129 -11.38346,-7.08825 -35.67667,-15.39357 -52.61923,-17.98938 -16.79532,-2.57326 -41.10152,-2.06647 -50.71763,1.05749 -4.10258,1.33278 -9.16906,2.16597 -11.25885,1.85148 -3.84843,-0.5791 -19.43691,5.87353 -19.43691,8.0456 0,1.2554 -9.23768,6.08165 -11.64058,6.08165 -0.95284,0 -2.80485,1.1875 -4.11556,2.63887 -1.31071,1.45136 -5.76077,4.33634 -9.88899,6.41103 -4.12825,2.07465 -7.98832,4.60407 -8.57792,5.62085 -0.58965,1.01681 -3.9673,3.20282 -7.50592,4.85778 -11.5076,5.38198 -20.61159,11.00986 -27.098076,16.75147 -3.49802,3.09629 -8.103525,7.177788 -10.23446,9.069988 -2.130934,1.89217 -4.353881,3.44035 -4.939869,3.44035 -0.586,0 -1.065448,1.19841 -1.065448,2.66319 0,1.46473 -1.950576,4.82231 -4.334605,7.46128 -12.163692,13.46428 -24.304762,51.91275 -26.431352,83.70303 -0.437266,6.53664 -1.583012,13.53553 -2.546104,15.55309 -0.963096,2.01753 -1.2798,3.98792 -0.703779,4.37861 0.576011,0.39069 1.440358,1.77266 1.920774,3.071 0.760982,2.05664 1.814577,2.27534 8.18061,1.69805 10.014856,-0.90816 18.910523,0.20179 18.910523,2.35917 0,1.34264 -2.853694,1.71386 -13.174578,1.71386 -10.665131,0 -13.31432,0.36416 -13.908232,1.91195 -0.98471,2.5662 1.943518,21.30994 4.244935,27.17205 1.978271,5.03899 1.446825,8.44699 -1.317221,8.44699 -1.072941,0 -2.30428,-2.69553 -3.286013,-7.19343 z M 113.05509,77.258752 c 0.74698,-2.26831 -3.47766,-3.52928 -4.80432,-1.43399 -0.60806,0.96036 -1.11419,2.20747 -1.12473,2.77139 -0.0301,1.61754 5.35606,0.4026 5.92905,-1.3374 z m 9.06359,-4.02724 c 0,-0.66648 -0.84443,-0.88773 -1.87648,-0.49169 -1.03206,0.39608 -1.87649,0.94135 -1.87649,1.21179 0,0.27056 0.84443,0.49168 1.87649,0.49168 1.03205,0 1.87648,-0.5453 1.87648,-1.21178 z m 12.93622,-6.61661 c -0.37869,-0.61275 0.59447,-2.47981 2.16258,-4.14906 3.37358,-3.59117 0.94929,-4.24715 -3.68904,-0.99823 -2.1146,1.48119 -2.48201,2.29984 -1.34701,3.00132 0.85836,0.53052 1.20113,1.90153 0.76174,3.04668 -0.43944,1.14515 -1.36589,1.73173 -2.05879,1.30345 -1.66897,-1.03152 -4.00173,0.47073 -3.07057,1.97742 0.4228,0.68421 2.25195,0.28655 4.33081,-0.94149 1.97932,-1.1693 3.28897,-2.62733 2.91028,-3.24009 z m 18.85943,-11.3836 c -0.80429,-2.096 -3.02304,-2.87014 -3.02304,-1.05479 0,1.21711 2.79088,4.13141 3.38623,3.53603 0.23404,-0.23404 0.0706,-1.35066 -0.36319,-2.48124 z m 147.72036,0.44648 c -0.42525,-0.68808 -1.3361,-1.25104 -2.02415,-1.25104 -0.68801,0 -0.90305,0.56296 -0.47783,1.25104 0.42525,0.68807 1.33609,1.25104 2.02414,1.25104 0.68805,0 0.90309,-0.56297 0.47784,-1.25104 z M 174.03447,44.418472 c 0.98436,-1.59279 -1.91386,-1.59279 -4.37847,0 -1.52552,0.98593 -1.36386,1.21629 0.86444,1.23186 1.50747,0.0106 3.08878,-0.54378 3.51403,-1.23186 z m 431.2355,219.991478 c 0.39161,-1.17494 10.16462,-4.54446 13.80157,-4.75848 2.67392,-0.15746 0.3741,2.81022 -3.40005,4.38723 -5.23442,2.18717 -11.07631,2.39569 -10.40152,0.37125 z M 35.30631,259.80811 c -0.353226,-0.57155 -3.623365,-1.71571 -7.266982,-2.54255 -3.643618,-0.82684 -8.032113,-2.659 -9.752216,-4.07147 -2.685882,-2.20551 -2.774197,-2.48435 -0.625488,-1.97504 16.84295,3.99239 20.714965,5.43915 21.583398,8.06443 0.569969,1.72304 -2.911507,2.18675 -3.938712,0.52463 z m 592.80113,-1.51747 c -0.50177,-0.81191 -0.13642,-1.95979 0.8117,-2.55085 2.47227,-1.54109 11.93166,-2.80947 13.53989,-1.81549 2.25759,1.3953 0.40476,2.79631 -4.79841,3.62836 -2.70727,0.43293 -5.75898,1.10824 -6.78161,1.50066 -1.0226,0.39243 -2.26984,0.0493 -2.77157,-0.76268 z m 22.54762,-7.45777 c -0.42917,-0.69439 -0.0408,-1.49049 0.86272,-1.76905 0.90369,-0.27875 3.57782,-1.12646 5.94252,-1.88415 4.4741,-1.4336 8.08848,0.007 5.6458,2.24835 -1.88465,1.73028 -11.57429,2.82359 -12.45104,1.40485 z m 64.02472,-3.31762 c -0.45195,-0.45193 1.70603,-3.52414 4.79544,-6.82711 5.16731,-5.5245 6.61422,-8.45146 4.98391,-10.08188 -0.34831,-0.34823 -5.274,1.00182 -10.94609,3.00019 -19.14838,6.74626 -19.69533,6.86013 -19.69533,4.1003 0,-1.03014 1.82959,-2.67311 4.06573,-3.65106 l 4.0657,-1.77808 -5.3167,-0.10212 c -2.92415,-0.056 -5.31666,-0.66499 -5.31666,-1.35307 0,-1.72882 11.67931,-1.58116 13.4302,0.16987 1.06033,1.06043 1.90832,0.93326 3.34279,-0.50126 2.33897,-2.3391 1.04258,-3.64496 -5.80946,-5.85189 -5.19478,-1.67315 -6.86208,-3.42276 -5.0186,-5.26631 0.79713,-0.79723 4.87576,0.54825 11.70744,3.8621 5.7662,2.79703 11.19015,5.08552 12.05312,5.08552 0.95925,0 1.56905,-1.70177 1.56905,-4.37861 0,-3.3263 -0.52611,-4.38478 -2.1892,-4.40435 -2.66651,-0.0319 -15.04438,-10.64379 -13.84168,-11.86749 0.47155,-0.47977 2.14487,0.0284 3.71853,1.13182 4.39263,3.07686 5.37994,2.37768 1.43606,-1.01699 -1.9305,-1.66162 -3.09121,-3.44091 -2.57938,-3.95391 0.51179,-0.51307 2.0622,0.0915 3.44533,1.34314 2.23253,2.0205 3.0582,2.09656 7.35715,0.67772 6.66492,-2.1997 12.62785,-0.0716 18.27039,6.52082 5.94432,6.94491 5.54301,8.28308 -0.91814,3.06114 -8.38241,-6.77476 -10.85177,-7.7631 -13.28124,-5.3157 -1.89145,1.90543 -1.8231,2.22534 0.91995,4.30542 2.49332,1.89067 2.74131,2.6618 1.56373,4.86221 -1.73431,3.24073 -1.79167,5.28169 -0.14846,5.28169 0.688,0 1.25093,-1.0927 1.25093,-2.42821 0,-3.01941 2.11624,-4.45301 4.12051,-2.79139 4.58458,3.80079 17.68259,10.18774 18.73474,9.13553 0.74207,-0.74208 0.15059,-1.734 -1.5885,-2.66489 -1.97465,-1.05685 -2.38454,-1.8689 -1.42679,-2.82667 0.95776,-0.9578 2.79776,-0.68818 6.40478,0.93844 4.7396,2.13732 4.93299,2.42378 3.0448,4.51028 -1.10895,1.22541 -4.86163,2.83827 -8.33928,3.58411 -3.47772,0.74585 -8.46333,2.55908 -11.07925,4.02935 -3.61577,2.03227 -5.16292,2.33562 -6.45261,1.26526 -1.33863,-1.11104 -2.6747,-0.0975 -6.33458,4.80494 -4.22497,5.6594 -7.80162,7.58795 -9.99829,5.3912 z m 25.11156,-16.3141 c 1.54814,-0.36871 2.79694,-1.02696 2.77519,-1.46279 -0.0641,-1.28338 -10.95339,-7.52203 -11.74596,-6.72941 -1.03755,1.03759 -0.89578,8.47607 0.18213,9.55402 0.49854,0.49853 2.04661,0.5469 3.44023,0.10747 1.39355,-0.43941 3.80034,-1.10061 5.34845,-1.46931 z M 0.15798705,243.34917 c -0.49375792,-0.79893 0.20904211,-2.67762 1.56181265,-4.17484 2.9049696,-3.2152 10.8910213,-16.83122 13.4150913,-22.87241 2.141336,-5.12517 5.291057,-5.51749 6.459374,-0.80461 0.46907,1.8922 2.130769,5.41071 3.692663,7.81896 3.516394,5.42184 5.671791,15.23186 2.829459,12.87798 -1.002111,-0.82993 -4.200963,-1.88937 -7.108557,-2.35431 -6.13963,-0.98181 -10.226612,1.63949 -10.226612,6.55919 0,1.95344 -0.731481,2.9394 -2.189219,2.95075 -1.2040717,0.0106 -3.392309,0.34009 -4.8627456,0.7345 -1.4704405,0.39459 -3.07751197,0.0639 -3.57126635,-0.73521 z M 22.040062,225.97151 c 0,-2.24172 -3.271852,-6.05545 -4.306985,-5.02027 -0.271453,0.27163 -0.881835,2.04062 -1.35637,3.9314 -0.775902,3.09157 -0.534172,3.43776 2.40028,3.43776 2.358151,0 3.263075,-0.65138 3.263075,-2.34889 z m 1.709128,17.09052 c -1.029445,-1.66574 0.600488,-3.15374 4.214552,-3.84756 3.293476,-0.63226 6.586147,0.81213 6.586147,2.88908 0,1.30541 -10.035892,2.19601 -10.800699,0.95848 z m 650.05284,0.83245 c 0,-0.95483 8.24893,-4.31478 10.59318,-4.31478 2.97503,0 2.25708,3.37006 -0.89805,4.21562 -3.54473,0.95 -9.69513,1.01291 -9.69513,0.0993 z M 528.37528,232.41609 c -7.8019,-0.24789 -13.44805,-0.94997 -13.44805,-1.67226 0,-0.78092 6.17871,-1.11491 16.57555,-0.89596 10.22096,0.21525 16.47054,0.82868 16.30166,1.60013 -0.32138,1.4669 -1.64827,1.533 -19.42916,0.96809 z m 29.76428,-0.25604 c -0.39586,-0.64053 -0.28843,-1.37612 0.23917,-1.63464 1.9569,-0.95954 25.35282,0.58059 25.35282,1.66896 0,1.49836 -24.66499,1.46527 -25.59174,-0.0355 z m 33.96561,0.36458 c -2.11287,-2.11295 1.5761,-2.95309 12.96662,-2.95309 10.22021,0 12.43602,0.33442 12.43602,1.87656 0,1.54081 -2.20082,1.87653 -12.30133,1.87653 -6.7657,0 -12.66134,-0.35998 -13.10131,-0.8 z m 33.58743,-0.36458 c -0.39582,-0.64053 -0.14634,-1.51886 0.55407,-1.95185 1.83869,-1.13643 25.03768,0.75084 25.03768,2.03681 0,1.46439 -24.68487,1.38247 -25.59175,-0.0848 z m 34.8721,-0.25144 c -0.36911,-0.59729 4.28779,-1.04156 10.34876,-0.98723 12.7132,0.11384 12.48558,0.70783 -0.5798,1.51275 -5.00378,0.30816 -9.39979,0.072 -9.76896,-0.52552 z M 301.00919,231.1687 c -14.79153,-0.86989 -11.41728,-2.84816 4.85797,-2.84816 11.73356,0 15.24455,0.36969 14.85146,1.56382 -0.55453,1.6846 -6.41247,2.06632 -19.70943,1.28434 z m 31.31079,-0.29718 c -1.01212,-0.64013 -1.57506,-1.41292 -1.25098,-1.71737 1.08261,-1.01692 24.98343,0.74237 24.98343,1.83898 0,1.45725 -21.40944,1.34756 -23.73245,-0.12165 z m 111.30128,-0.67438 c 0,-1.68131 1.91919,-1.91054 13.44802,-1.60613 7.89466,0.20852 13.44809,0.8717 13.44809,1.60613 0,0.73442 -5.55343,1.39767 -13.44809,1.60612 -11.52883,0.30427 -13.44802,0.0752 -13.44802,-1.60612 z m 35.9657,1.16866 c -2.36328,-2.4185 -0.13181,-3.03909 10.63336,-2.95728 12.89873,0.0979 21.48491,2.16778 9.69512,2.33708 -3.78425,0.0542 -9.69512,0.43214 -13.13532,0.83957 -3.4402,0.40743 -6.67711,0.30852 -7.19316,-0.21951 z M 85.163248,229.48821 c -1.662413,-2.68996 0.881348,-3.15016 14.750486,-2.66858 5.448926,0.189 7.193156,0.70478 7.193156,2.12629 0,1.51984 -2.00727,1.87656 -10.559532,1.87656 -6.1294,0 -10.905473,-0.55978 -11.38411,-1.33427 z m 169.872342,0.50573 c -4.62559,-1.86653 0.0142,-2.92455 12.82257,-2.92455 13.42699,0 18.1339,1.20586 11.57157,2.96458 -3.34244,0.89578 -22.15155,0.86493 -24.39414,-0.0401 z m -139.17183,-1.5278 c 0,-1.62417 15.4243,-2.99791 22.5917,-2.01209 3.40081,0.46774 5.86804,1.36051 5.48276,1.9839 -0.90412,1.46297 -28.07446,1.49027 -28.07446,0.0283 z m 38.15497,-0.14573 c -0.49585,-0.80234 3.73995,-1.25101 11.81051,-1.25101 7.55513,0 12.58366,0.49991 12.58366,1.25101 0,0.7457 -4.77084,1.25104 -11.81051,1.25104 -6.52424,0 -12.15657,-0.55995 -12.58366,-1.25104 z m 34.40203,-0.62552 c 0,-1.67712 1.7224,-1.91689 11.57157,-1.61074 6.64063,0.2064 11.57161,0.89284 11.57161,1.61074 0,0.71793 -4.93098,1.40431 -11.57161,1.61077 -9.84917,0.30603 -11.57157,0.0663 -11.57157,-1.61077 z m 33.19635,0.69885 c -0.40032,-0.64772 1.67752,-1.35143 4.61737,-1.56378 8.26417,-0.59694 19.73148,0.33371 19.73148,1.60158 0,1.51301 -23.41289,1.4767 -24.34885,-0.038 z m 185.30863,-9.66459 c -1.62896,-1.62904 -0.79777,-3.88774 1.66798,-4.53259 2.20323,-0.57619 2.50196,-1.70641 2.50196,-9.4665 0,-7.08794 -0.42838,-9.0539 -2.18926,-10.04748 -3.64759,-2.0582 -0.35689,-3.55308 9.23031,-4.19307 9.45333,-0.63105 12.13427,0.14503 14.26698,4.1303 1.00418,1.87635 0.82141,3.3214 -0.75809,5.99545 -1.87448,3.17338 -1.89435,3.87972 -0.20019,7.11318 2.43336,4.6445 0.70947,8.72413 -4.44604,10.52143 -4.15782,1.44949 -18.75497,1.79802 -20.07361,0.47928 z m 17.71817,-4.01225 c 0.94507,-0.59914 1.48553,-2.61762 1.25096,-4.6722 -0.32031,-2.80408 -1.11607,-3.69022 -3.54033,-3.94147 -4.80355,-0.49775 -6.39921,1.16657 -5.48777,5.72391 0.81943,4.09743 4.00511,5.28113 7.77714,2.88976 z m 0.64265,-13.94785 c 1.94729,-1.76485 0.21295,-5.59493 -2.72307,-6.01271 -4.76585,-0.67826 -6.11447,0.46548 -5.49843,4.66305 0.50573,3.44599 0.91825,3.77483 3.86603,3.08193 1.81492,-0.42661 3.77486,-1.20615 4.35547,-1.73227 z m 258.2106,15.59284 c -1.89213,-1.0355 -3.4402,-2.67507 -3.4402,-3.6434 0,-1.4875 0.88239,-1.45999 5.68779,0.17731 3.12835,1.06596 5.47419,2.57996 5.21302,3.36438 -0.71862,2.1586 -3.62963,2.19821 -7.46061,0.10141 z m 25.33237,0.69921 c -0.99223,-0.61325 -1.52252,-1.39647 -1.17854,-1.74049 0.34406,-0.34398 1.43735,-0.12377 2.42954,0.48949 0.9922,0.61322 1.52253,1.39644 1.17851,1.74049 -0.34406,0.34399 -1.43727,0.12377 -2.42951,-0.48949 z m -42.22066,-8.90117 c -4.00465,-2.56474 -5.31046,-4.86018 -2.76484,-4.86018 0.71543,0 3.61527,1.18079 6.44414,2.62403 3.89321,1.98625 4.71724,2.8938 3.39034,3.73394 -2.35796,1.49297 -2.4205,1.47974 -7.06964,-1.49779 z m -17.82652,-8.23074 c -7.65276,-1.2914 -14.84036,-6.63774 -8.92368,-6.63774 3.18218,0 15.17861,5.07562 15.17861,6.42198 0,1.10941 -0.79622,1.13689 -6.25493,0.21561 z m -26.27061,-11.00217 c -1.7201,-0.91524 -5.2385,-2.68755 -7.81866,-3.93845 -9.06931,-4.3969 -4.20658,-5.89895 5.23449,-1.61683 8.52268,3.86557 9.48738,4.45975 9.21788,5.67745 -0.38682,1.74808 -3.21683,1.69595 -6.63371,-0.12235 z m -30.02357,-14.57698 c -8.09657,-4.59589 -8.12977,-4.62135 -7.21439,-5.53677 1.00424,-1.00427 17.22224,6.75447 17.22224,8.23914 0,2.11707 -2.89421,1.33555 -10.00785,-2.70237 z m -25.01969,-10.04663 c -8.09581,-2.94058 -8.38629,-3.15874 -6.59296,-4.95218 1.58581,-1.58584 15.34982,4.10661 15.34982,6.3483 0,1.68634 -0.48182,1.60949 -8.75686,-1.39612 z M 542.13611,153.6425 c -6.99644,-3.11668 -9.20516,-5.38826 -5.23924,-5.38826 2.81728,0 15.55983,6.22155 15.55983,7.59707 0,1.80429 -2.525,1.26388 -10.32059,-2.20881 z m -165.85243,-2.28715 c -0.80656,-1.77035 -1.4665,-4.08668 -1.4665,-5.14739 0,-1.98579 -8.18128,-20.08763 -15.33972,-33.94058 -3.00618,-5.8176 -7.51595,-11.12546 -17.49129,-20.586788 -8.01073,-7.59792 -12.98384,-13.20512 -12.30973,-13.8793 2.67943,-2.6795 26.91011,18.89556 30.23405,26.920478 0.79717,1.92468 1.86959,3.49943 2.38308,3.49943 1.54209,0 15.24182,28.2045 16.5217,34.01437 1.72736,7.8409 1.81088,11.34185 0.28311,11.87138 -0.74147,0.2571 -2.0081,-0.98121 -2.81473,-2.7516 z m 146.75159,-4.80696 c -1.36325,-0.94674 -5.43405,-3.26112 -9.04627,-5.143 -7.10479,-3.70145 -8.70683,-6.40603 -3.1275,-5.27981 4.5552,0.9195 17.81752,8.68094 17.38467,10.17394 -0.56931,1.96376 -2.60182,2.06082 -5.2109,0.24895 z m -32.81495,-14.71032 c -5.45432,-2.50726 -6.98567,-4.85139 -3.16928,-4.85139 3.8706,0 12.8644,4.05466 12.8644,5.79962 0,2.31023 -3.31115,1.98635 -9.69512,-0.94823 z m -23.9596,-9.37699 c -5.16178,-2.36694 -6.41264,-3.4451 -5.29437,-4.56341 1.11823,-1.1183 2.41947,-0.9667 5.50754,0.64162 2.22392,1.1582 5.61607,2.47393 7.53814,2.92384 3.52796,0.82581 4.05786,3.45595 0.78009,3.87206 -0.97501,0.12377 -4.81419,-1.16955 -8.5314,-2.87411 z m -23.79281,-9.2737 c -4.15166,-1.90209 -5.17475,-2.89139 -4.10077,-3.9654 1.74401,-1.74407 15.54785,2.50889 14.86729,4.58064 -0.74052,2.2541 -5.03993,2.00841 -10.76652,-0.61524 z m -21.05164,-8.50504 c -5.31722,-2.01388 -7.25474,-5.235058 -3.12743,-5.199568 4.04696,0.0355 12.19706,3.485808 12.19706,5.164638 0,2.35424 -2.91628,2.36548 -9.06963,0.0355 z M 367.97392,81.874222 c -7.08413,-3.53383 -8.14085,-4.9298 -3.72752,-4.9242 4.31635,0.007 12.29247,4.47673 11.18434,6.26975 -1.02267,1.65481 -1.67992,1.53619 -7.45682,-1.34555 z m 32.14789,1.24622 c -1.5633,-0.61098 -3.20917,-2.06657 -3.65733,-3.23463 -0.44826,-1.1681 -1.88546,-3.19435 -3.19383,-4.50277 -1.91434,-1.91443 -2.21485,-3.39875 -1.53907,-7.60178 0.46187,-2.87252 1.60012,-6.42397 2.5295,-7.89204 2.06188,-3.25719 8.28453,-5.6404 10.71258,-4.10282 2.60228,1.64786 3.36997,1.39906 4.25126,-1.37782 1.46346,-4.611 3.12169,-1.18391 3.12169,6.45142 0,5.46993 -0.42877,7.39539 -1.56369,7.02162 -0.86004,-0.28336 -1.74363,-1.73759 -1.96349,-3.23187 -0.3026,-2.0549 -1.26305,-2.7168 -3.94331,-2.7168 -2.80694,0 -3.81359,0.77464 -4.84257,3.72653 -1.87962,5.39201 -0.4956,12.16692 2.65372,12.9905 1.40691,0.36792 3.55582,0.13475 4.77543,-0.51782 1.21964,-0.65276 2.53598,-1.18682 2.92524,-1.18682 1.05853,0 0.85415,4.77433 -0.23067,5.38287 -2.488,1.39583 -7.48218,1.7901 -10.0356,0.79223 z m -51.64835,-8.61825 c -8.16214,-2.46187 -11.52756,-6.31407 -5.51616,-6.31407 4.52872,0 12.1558,3.44364 11.56339,5.22088 -0.66259,1.98791 -2.17461,2.26125 -6.04723,1.09319 z m -22.20314,-9.12886 c -5.91315,-3.00309 -6.70464,-4.69142 -2.1994,-4.69142 4.58102,0 9.46382,2.20505 9.46382,4.27382 0,3.09174 -1.79578,3.19498 -7.26442,0.4176 z M 254.4101,32.290592 c -3.39521,-0.54147 -3.44021,-0.67027 -3.44021,-9.84832 0,-7.61001 0.35624,-9.29965 1.96078,-9.29965 1.26822,0 1.74304,0.77325 1.34436,2.1893 -2.99773,10.64726 -2.25496,12.13519 6.07722,12.17416 4.16215,0.0177 5.00393,0.44434 5.00393,2.52549 0,2.64656 -3.71237,3.41272 -10.94608,2.25902 z m -21.89312,-3.71337 c -6.54523,-1.41984 -7.81771,-1.87762 -7.81771,-2.81248 0,-0.60035 1.46631,-1.4596 3.2585,-1.90944 2.6179,-0.65708 3.11315,-1.36012 2.51907,-3.57595 -0.40673,-1.51698 -0.74719,-5.09563 -0.75659,-7.95262 -0.0142,-4.6405 -0.41734,-5.33403 -3.77003,-6.50284 -4.11868,-1.43583 -5.01811,-4.67312 -1.56372,-5.62841003 1.20408,-0.33299 4.72248,-0.23015 7.81864,0.22838 4.7579,0.70478003 5.95141,1.47867003 7.70914,4.99870003 1.14382,2.2907 2.44105,4.52624 2.88272,4.96793 1.1378,1.13784 3.12705,-2.37261 3.14981,-5.55855 0.0248,-3.42638 1.91163,-4.10208003 9.17109,-3.28382 6.4253,0.72429 7.51623,2.26935 2.85393,4.04204 -1.65326,0.62861 -3.39223,1.7679 -3.86436,2.53184 -0.61436,0.99418 -1.40882,0.93209 -2.79502,-0.21845 -1.62422,-1.34803 -2.23635,-1.15597 -3.79418,1.19029 -1.0216,1.53871 -2.63322,2.79766 -3.58138,2.79766 -2.00018,0 -2.30212,1.997 -0.4729,3.12757 1.50588,0.93071 1.68779,6.88069 0.21029,6.88069 -0.57234,0 -2.52897,-2.67407 -4.34801,-5.94243 l -3.30741,-5.94239 -0.0319,5.31687 c -0.0177,2.9243 -0.10637,5.7187 -0.19896,6.20975 -0.18369,0.97216 1.93354,2.2498 5.69449,3.43651 4.95368,1.56312 -3.22322,4.84502 -8.96696,3.59905 z"/>
</svg>
