<?xml version="1.0" encoding="utf-8"?>
<svg xmlns="http://www.w3.org/2000/svg" version="1.1" viewBox="0 0 519 200">
	<title>A diagram showing two cubes similar in size and aspect; the first is composed from stacked squares, the second is drawn with no guide to its composition.</title>
	<path d="m 203.22113,199.402 c -1.34365,-1.21377 -45.85733,-2.78151 -58.20282,-2.04985 -6.82563,0.40451 -13.66937,0.71099 -15.20834,0.68101 -1.53894,-0.0319 -14.2378,-0.21472 -28.2197,-0.41044 -24.142882,-0.33814 -25.508347,-0.45149 -27.144715,-2.25485 -0.947699,-1.0444 -3.104454,-2.7385 -4.79278,-3.76467 -6.339684,-3.85326 -10.991288,-6.58368 -14.074616,-8.26156 -1.749955,-0.9523 -6.042517,-3.681 -9.539038,-6.06377 -8.268458,-5.63474 -9.646402,-6.51567 -16.160052,-10.3317 -3.0049,-1.76039 -9.145449,-5.66076 -13.645678,-8.66743 -7.1733441,-4.79266 -8.5709915,-5.39378 -11.3350896,-4.87513 -4.01763779,0.75386 -4.17359,0.26018 -4.28882683,-13.57535 -0.0489993,-5.90048 -0.10117155,-11.77766 -0.11562468,-13.06036 -0.0140988,-1.28271 0.007051,-20.66986 0.050762,-43.08252 C 0.58726609,61.27269 0.39726118,42.349296 0.12254684,41.633336 -0.15206159,40.917366 0.05204402,39.203486 0.5760562,37.824666 l 0.9529513,-2.50695 56.2125955,0.0284 c 30.916927,0.0142 61.550757,0.0213 68.075167,0.0142 10.15764,-0.0106 11.78538,-0.21508 11.3257,-1.41334 -0.69199,-1.80362 1.2656,-1.80362 5.58135,0 1.84161,0.76962 5.25056,1.39931 7.57546,1.39931 3.13561,0 4.22707,0.36133 4.22707,1.39934 0,0.76962 -0.4197,1.3993 -0.93268,1.3993 -2.5637,0 0.003,1.95843 9.5601,7.295594 5.77105,3.2227 12.3815,7.069405 14.6899,8.548259 2.30844,1.478811 8.60413,5.073629 13.9904,7.988488 5.38632,2.914826 13.4658,7.403028 17.95435,9.973725 l 8.1611,4.674013 0.0737,8.046775 c 0.0405,4.425722 0.18648,13.504127 0.32428,20.17424 0.47505,23.00492 0.56635,64.37429 0.14662,66.42444 -0.44039,2.15112 -0.6372,19.83314 -0.28339,25.46446 l 0.20516,3.26508 -7.26683,0 c -3.99678,0 -7.56432,-0.26866 -7.92791,-0.59714 z m -71.07942,-5.34631 c 0,-0.69449 9.11096,-1.45255 14.22359,-1.18349 0.89771,0.0472 2.3667,0.0391 3.26442,-0.0177 6.28409,-0.39959 28.87495,-0.95297 44.45456,-1.089 13.9084,-0.12128 18.67087,-0.45494 18.96477,-1.32822 0.38497,-1.14389 -9.07569,-1.41719 -45.93132,-1.32682 -5.64279,0.0142 -27.59042,0.0673 -48.77247,0.11881 -33.487888,0.0815 -38.583621,0.27819 -39.055178,1.50734 -0.298204,0.77745 -0.303838,1.65211 -0.01417,1.94362 0.291508,0.29158 5.274954,0.43792 11.074372,0.32546 23.660296,-0.45949 38.837996,-0.0734 39.504276,1.00493 0.67252,1.0884 2.28539,1.12034 2.28539,0.0451 z m -57.853481,-6.41724 c -0.01772,-1.05405 -2.908878,-3.31648 -8.161053,-6.385 -33.802506,-19.74842 -54.302925,-32.96321 -54.302925,-35.00429 0,-0.45301 1.154236,-0.83158 2.564927,-0.84134 2.377461,-0.0177 2.234728,-0.22493 -1.953633,-2.85528 -2.4851886,-1.56068 -5.4814523,-3.20376 -6.6583559,-3.6513 -3.3573081,-1.27671 -1.9189454,2.35743 1.4924393,3.77076 3.8370446,1.58967 4.5204286,3.09916 1.0588109,2.33874 -2.0169793,-0.44313 -2.9422935,-0.23446 -3.3195543,0.74893 -0.5889801,1.53518 1.6427507,3.16226 15.429293,11.24898 4.994138,2.92939 9.401093,5.83332 9.793264,6.4532 0.392172,0.61988 1.894904,1.64657 3.339436,2.28154 2.401392,1.05561 11.790541,6.97288 21.91721,13.81278 5.401786,3.64859 16.212156,9.5502 17.660778,9.64141 0.641224,0.0405 1.153919,-0.6612 1.139363,-1.55913 z m 130.601211,-1.17492 c 9.1e-4,-0.26124 -0.94199,-1.09322 -2.0962,-1.84853 -2.27812,-1.49077 -3.20545,-1.52553 -42.67073,-1.59968 -13.08102,-0.0248 -36.89969,-0.11952 -52.93034,-0.21118 -16.030679,-0.0913 -29.140253,0.17171 -29.132397,0.58476 0.05007,2.63314 1.958535,3.04055 15.414102,3.29061 24.202845,0.44979 111.413055,0.28063 111.415565,-0.21611 z m 9.32928,0.0853 c 0,-2.88591 -1.31621,-3.80785 -5.43644,-3.80785 l -4.30419,0 3.23812,2.28644 c 3.29143,2.32414 6.50251,3.07543 6.50251,1.52141 z M 75.079126,181.69034 c -0.315835,-2.10071 -7.704404,-6.98832 -31.543276,-20.8658 -6.925275,-4.03142 -13.926772,-8.30529 -15.558877,-9.49745 -3.986933,-2.91214 -6.917524,-3.91859 -9.11626,-3.13078 -1.928251,0.69089 -2.579275,0.22319 15.348181,11.02697 3.334395,2.00942 11.635959,7.07346 18.447939,11.2534 6.811985,4.17997 12.687971,7.61711 13.057724,7.63812 0.369752,0.0213 2.351127,1.26321 4.403039,2.76043 4.489658,3.27598 5.352573,3.41775 4.96153,0.81511 z m 61.476624,-1.76423 c 7.38971,-0.85929 15.12151,-0.85523 34.33095,0.0177 13.63623,0.61987 25.037,0.88322 25.33495,0.58522 0.29785,-0.29796 0.0106,-1.18169 -0.63806,-1.96373 -1.83462,-2.21103 1.40611,-1.86249 3.66199,0.39384 1.5782,1.57853 2.67456,1.74361 8.39424,1.26402 3.61839,-0.30356 6.5789,-0.91059 6.5789,-1.34927 0,-0.43866 -0.52462,-0.83073 -1.16587,-0.87121 -0.93268,-0.0589 -0.93268,-0.16781 0,-0.54418 0.64125,-0.2588 1.16587,-0.75041 1.16583,-1.09245 0,-0.34203 -30.63897,-0.64167 -68.08661,-0.66582 -37.4476,-0.0248 -68.080858,0.18581 -68.073842,0.46644 0.0071,0.28063 0.238996,1.3499 0.515161,2.3761 0.483016,1.79375 1.427401,1.87784 24.473541,2.17891 14.66744,0.19144 27.67288,-0.11739 33.50882,-0.79585 z M 75.233143,174.5783 c -0.0071,-0.89789 -0.322583,-2.11371 -0.69953,-2.70183 -0.613621,-0.95751 -16.475872,-10.20414 -32.86316,-19.15698 -5.276781,-2.88284 -13.990402,-5.40538 -13.990402,-4.05011 0,0.25703 3.252752,2.15355 7.228371,4.2148 3.975621,2.06128 8.063905,4.26992 9.085098,4.90806 1.021201,0.63814 3.959155,2.47779 6.528842,4.08809 2.569692,1.61032 8.541839,5.09323 13.27145,7.73985 4.729574,2.64661 8.846552,5.21223 9.148798,5.70134 0.903599,1.46238 2.305829,1.0074 2.290533,-0.74322 z m 109.372557,-3.003 c -1.15419,-0.95001 -2.09854,-2.14813 -2.09854,-2.66248 0,-0.82445 -15.24462,-1.23133 -82.543363,-2.20306 -3.590885,-0.0518 -9.987813,0.0705 -14.215445,0.2722 l -7.686566,0.36647 -0.0071,2.79865 -0.0071,2.79865 54.329264,0.1784 c 52.9976,0.17415 54.27779,0.1361 52.23066,-1.54887 z m 26.07787,1.06854 c 4.27758,-0.16005 4.38763,-0.23832 4.19713,-2.98499 l -0.19562,-2.82047 -15.15627,0.0949 c -8.33596,0.0522 -15.15627,0.27783 -15.15627,0.50145 0,0.22351 1.32178,1.58765 2.93728,3.03142 3.10118,2.77146 4.36896,2.88958 23.37373,2.17764 z M 75.082612,165.6386 c 0.16604,-0.85537 -0.143114,-1.55525 -0.686585,-1.55525 -0.919324,0 -12.777966,-6.72496 -20.865171,-11.83252 -1.94101,-1.22583 -5.440204,-2.58593 -7.776035,-3.0224 -4.543094,-0.84888 -7.747696,-2.86983 -4.550709,-2.86983 2.762865,0 1.234504,-0.97892 -16.788482,-10.75311 -9.233683,-5.0076 -17.7263456,-9.71831 -18.8726156,-10.46823 -2.0516669,-1.34226 -2.0685876,-1.31881 -1.084721,1.50403 0.8204764,2.35417 2.7798906,3.81835 10.9447156,8.17856 5.469925,2.92107 13.51285,7.45373 17.873203,10.07256 4.360351,2.61886 9.0563,5.2587 10.435439,5.86638 3.182746,1.40231 27.037159,15.12402 28.23638,16.24228 1.245003,1.16102 2.774175,0.49636 3.134581,-1.36247 z m 25.347528,-1.90523 c 2.82139,0.0642 20.59874,0.33428 39.50524,0.60018 l 34.37543,0.48371 -3.13022,-2.92646 -3.13018,-2.92643 -28.44714,-0.007 c -15.71324,-0.004 -35.85787,0.57257 -45.002477,1.28641 -15.191667,1.18592 -16.555296,1.43841 -16.555296,3.06541 0,1.66717 0.515097,1.72926 8.627395,1.03985 4.745084,-0.40325 10.935832,-0.68077 13.757248,-0.61671 z m 114.72129,-3.06097 0,-3.41094 -20.19496,0.64505 c -11.10722,0.35477 -20.58069,0.88351 -21.05214,1.17492 -0.47142,0.29158 0.53684,1.51552 2.24062,2.72016 2.98536,2.11079 3.74933,2.19196 21.05214,2.23603 l 17.95434,0.0459 z M 74.314733,159.5949 c 0,-2.04869 -14.632609,-10.51639 -19.58656,-11.33445 -2.328813,-0.38457 -3.266392,-1.02398 -3.271225,-2.23092 -0.0071,-1.72432 -12.879312,-9.28967 -35.18686,-20.68001 -9.9237648,-5.06711 -14.8050266,-6.62543 -11.8740487,-3.79075 0.7511369,0.7265 11.6486507,7.0664 24.2166927,14.08874 12.568044,7.02234 23.326349,13.15521 23.907362,13.62859 0.975305,0.79462 21.036244,11.9511 21.561455,11.99094 0.128302,0.0106 0.233007,-0.74276 0.233007,-1.67214 z m 35.774337,-3.04394 c 5.05592,-0.47493 18.59161,-0.86355 30.07935,-0.86355 11.48773,0 20.88677,-0.33566 20.88677,-0.74628 0,-0.41048 -0.50363,-1.25006 -1.11923,-1.86578 -2.22423,-2.22467 2.09013,-1.18528 5.32557,1.28302 l 3.14915,2.40245 15.20933,-1.00159 c 8.36508,-0.55088 18.67189,-1.00229 22.90399,-1.00314 l 7.69472,-0.002 0,-3.73455 0,-3.73454 -15.15628,0.5038 c -8.33593,0.27712 -21.24207,0.91468 -28.6803,1.4169 -10.05566,0.67891 -75.410363,2.65349 -90.704431,2.74047 -1.243635,0.007 -1.632212,0.79113 -1.632212,3.29354 l 0,3.28426 11.425477,-0.55493 c 6.284022,-0.30533 15.562186,-0.94356 20.618096,-1.41853 z M 75.247419,153.5128 c 0,-0.68295 -2.520089,-2.677 -5.600178,-4.43118 -3.080094,-1.75422 -6.935717,-4.02907 -8.56807,-5.05523 -5.905983,-3.71279 -8.781125,-5.40792 -14.278899,-8.41861 -3.077903,-1.68554 -9.583444,-5.28364 -14.456742,-7.99583 C 18.335327,119.81583 4.1501257,112.67654 3.6540325,113.1727 c -1.2719763,1.27223 1.2853368,3.50022 7.8702995,6.85676 4.012315,2.04518 12.331681,6.54677 18.487459,10.00356 24.914953,13.99087 27.593462,15.39271 29.41134,15.39271 1.040833,0 2.134506,0.63095 2.430375,1.40216 0.492955,1.28486 11.07243,7.87891 12.694383,7.91226 0.384732,0.007 0.69953,-0.54439 0.69953,-1.22735 z m 11.64435,-4.33239 c 0.334913,-0.54224 -0.867043,-0.82484 -2.976204,-0.69963 -2.616714,0.15512 -3.538327,-0.15442 -3.538327,-1.18931 0,-1.06826 1.407768,-1.46577 5.950579,-1.68017 5.655734,-0.26688 5.925053,-0.18333 5.435836,1.68786 -0.420302,1.60747 -0.143114,1.91581 1.510943,1.68021 1.334623,-0.19003 1.932236,-0.8455 1.751681,-1.9211 -0.236197,-1.40759 0.516503,-1.63254 5.462773,-1.63254 4.71621,0 5.64131,0.24892 5.19996,1.3993 -0.40927,1.06675 0.1766,1.39593 2.4651,1.38507 2.07339,-0.0106 2.60442,-0.26618 1.71664,-0.82862 -2.3495,-1.48843 -0.0649,-2.88866 4.7136,-2.88866 4.29063,0 4.6722,0.17242 4.21907,1.90531 -0.48858,1.8687 -0.18577,1.90244 15.75868,1.75781 14.92971,-0.13539 18.80275,-0.67555 16.23349,-2.26377 -0.52973,-0.32755 -0.7241,-0.9822 -0.43194,-1.45502 0.29222,-0.47282 1.74675,0.0392 3.23242,1.13786 2.67473,1.9779 2.88236,1.98644 21.16914,0.86811 10.15737,-0.62119 23.29462,-1.20916 29.19391,-1.30665 l 10.72597,-0.17734 0.28339,-3.39822 0.2834,-3.39822 -7.74509,0.37438 c -21.38008,1.03346 -49.39614,2.22407 -52.33408,2.22407 -1.82127,0 -3.94098,0.62968 -4.71048,1.39934 -1.60433,1.60465 -3.95228,1.83299 -4.79669,0.46644 -0.36704,-0.594 -12.78974,-0.93291 -34.19813,-0.93291 -30.275425,0 -33.565374,0.14701 -33.055599,1.47564 0.311243,0.81158 0.566135,2.70066 0.566135,4.19796 0,2.54735 0.236195,2.72234 3.675736,2.72234 2.02167,0 3.9287,-0.40935 4.237853,-0.9097 z m 35.585731,-3.28824 c -0.44026,-1.14753 0.46486,-1.39935 5.03002,-1.39935 4.32655,0 5.56687,0.31171 5.56687,1.39935 0,1.07086 -1.18067,1.3993 -5.03003,1.3993 -3.61072,0 -5.18149,-0.39483 -5.56686,-1.3993 z m 13.58586,-0.2514 c 0.26259,-1.32167 1.36063,-1.61329 6.05587,-1.60821 5.23138,0.007 7.80625,0.70859 6.68891,1.82614 -0.23797,0.23833 -3.27527,0.64982 -6.7492,0.91479 -5.63348,0.42962 -6.28158,0.3071 -5.99558,-1.13272 z M 27.040133,145.42569 c 1.687272,0 1.475941,-0.36002 -1.331447,-2.26808 -5.453815,-3.70673 -21.7880118,-11.65404 -22.1115139,-10.75822 -0.1646239,0.45568 0.080018,1.50607 0.5432946,2.33422 1.1161653,1.99489 18.0611633,11.53162 19.6519183,11.06021 0.683172,-0.20236 2.14466,-0.36813 3.247748,-0.36813 z m 44.398796,-0.34799 c -0.213611,-0.19144 -4.585752,-2.55117 -9.715568,-5.24411 -5.129823,-2.69291 -12.474773,-6.77074 -16.322144,-9.0618 -9.652826,-5.74817 -8.752502,-5.23699 -19.120224,-10.85533 -5.129784,-2.77989 -12.128246,-6.58474 -15.55211,-8.45525 -3.8989104,-2.13 -6.4509004,-3.03565 -6.8291483,-2.42349 -0.3370034,0.54531 0.8248127,1.5745 2.627922,2.32805 1.7775169,0.74283 5.6900703,2.76874 8.6945473,4.50199 3.004442,1.7332 10.289322,5.69196 16.188609,8.79718 5.899288,3.10522 16.601971,9.04522 23.783699,13.19998 7.181734,4.1548 13.86216,7.55559 14.845358,7.55739 0.983231,0.002 1.612784,-0.15335 1.399059,-0.34444 z m 2.875804,-1.94268 c 0,-0.50165 -7.01425,-4.60377 -27.980798,-16.36391 -8.464219,-4.74756 -17.278163,-9.80008 -19.586566,-11.22784 -8.25944,-5.1084 -22.3845367,-11.97563 -22.3782615,-10.87969 0.00349,0.61297 6.4040875,4.43489 14.2235535,8.49318 7.819467,4.05829 18.204458,9.71362 23.077792,12.56741 7.883411,4.61647 31.81048,17.76978 32.411096,17.8172 0.128302,0.0106 0.233007,-0.17277 0.233007,-0.40635 z m 1.387107,-4.22037 C 77.177009,136.52732 72.765682,133.58034 51.237507,122.57129 38.537416,116.0767 23.109847,108.07886 16.954071,104.7983 10.798294,101.51778 5.4469545,98.821945 5.0622206,98.807555 c -0.3847339,-0.01417 -0.6869091,0.708523 -0.6715044,1.606415 0.021154,1.1403 3.042831,3.09976 10.0264508,6.49843 5.499149,2.67627 12.097014,6.07597 14.661907,7.55495 10.771773,6.21115 18.281593,10.45833 27.514464,15.56083 5.386311,2.97671 11.472146,6.38307 13.524058,7.56973 4.246598,2.45586 4.799799,2.58628 5.584244,1.31673 z m 69.75475,-3.1004 c 0.24994,-1.64044 0.36774,-3.0841 0.26188,-3.20814 -0.4602,-0.53871 -57.811705,-0.25242 -62.048676,0.3099 -4.388447,0.58226 -4.691501,0.79392 -4.691501,3.27679 l 0,2.6543 33.011997,-0.0248 33.01198,-0.0248 0.45443,-2.98263 z m 47.07701,0.64495 22.61783,-0.59971 0,-2.35538 0,-2.35537 -29.14667,0.59872 c -16.03067,0.32932 -31.06762,0.60303 -33.41544,0.60825 -4.24505,0.0106 -4.26638,0.0248 -3.84279,2.91242 l 0.42598,2.90291 10.37167,-0.55603 c 5.70438,-0.30571 20.54963,-0.82597 32.98942,-1.15581 z M 75.240754,129.79978 C 75.233654,127.89596 71.59449,125.89652 32.030991,106.05477 16.726135,98.379131 3.9397454,92.363355 3.616807,92.686359 c -0.322903,0.322937 -0.1822497,1.221458 0.3126823,1.996548 0.9899295,1.550634 20.1018317,12.012653 34.0103457,18.617563 10.625725,5.046 28.288196,14.06161 32.177906,16.42484 3.521688,2.13966 5.131687,2.16304 5.123158,0.0744 z m 124.288066,-1.05381 15.62261,-0.11211 0,-2.63769 0,-2.63766 -32.69503,-0.0934 -32.69506,-0.0934 -1.03163,2.26466 c -1.25272,2.75002 -3.11587,2.91655 -4.463,0.39891 -0.96857,-1.81017 -1.9529,-1.86577 -33.03462,-1.86577 l -32.036337,0 -0.53015,2.02765 c -0.291507,1.11523 -0.342282,2.33168 -0.112783,2.70324 0.349334,0.56505 46.32151,0.58243 120.97591,0.0458 z M 75.247419,122.54685 c 0,-0.78232 -0.944351,-1.78673 -2.098553,-2.23201 -1.154235,-0.44524 -9.443534,-4.70193 -18.420693,-9.45926 C 29.652191,97.566914 4.1158612,84.72413 3.6652074,85.174913 1.9511431,86.88929 5.834896,89.865004 18.128154,96.256423 49.770523,112.70767 72.08618,123.82272 73.615203,123.89359 c 0.897714,0.0416 1.632216,-0.56442 1.632216,-1.34674 z m 139.630001,-2.65701 c 0.15793,-0.15796 0.0351,-1.54831 -0.27354,-3.08988 l -0.56046,-2.80292 -13.20323,0.23269 c -7.2618,0.12798 -22.12213,0.2729 -33.02299,0.32155 -16.95621,0.0761 -19.81971,0.29126 -19.81971,1.4883 0,2.13716 -2.51093,1.66558 -3.09853,-0.5819 -0.41858,-1.60092 -0.98179,-1.86479 -2.93413,-1.3747 -1.32882,0.33353 -15.67378,0.62743 -31.87762,0.65299 -16.203843,0.0248 -30.042104,0.26936 -30.751639,0.54164 -0.709543,0.2722 -1.290099,1.70066 -1.290099,3.17401 l 0,2.67887 68.272498,-0.4769 c 37.54989,-0.26231 68.40163,-0.60606 68.55945,-0.76391 z M 74.849428,114.89938 C 74.664361,113.16293 73.893796,112.20295 72.34972,111.78499 69.65887,111.05666 58.104094,105.29118 43.53585,97.407756 37.636563,94.21545 30.081729,90.179367 26.747369,88.438655 23.412974,86.697977 18.933437,84.107107 16.792831,82.681218 8.7890697,77.349807 3.4300101,76.333414 3.4300101,80.146797 c 0,1.250197 3.5749857,3.435455 13.7572479,8.409234 7.566469,3.696047 18.164202,9.154418 23.550513,12.129719 16.140914,8.91593 33.068569,17.49162 33.744939,17.09541 0.349016,-0.20448 0.513892,-1.50116 0.366718,-2.88178 z m 70.018812,-3.34826 c 0.0987,-0.0987 0.48615,-1.40142 0.86088,-2.8948 l 0.68134,-2.71518 -13.91867,0.60256 c -7.6553,0.33145 -23.0541,0.88655 -34.219562,1.23367 -11.165493,0.34692 -20.531231,1.00388 -20.812818,1.45952 -1.787741,2.89328 0.371933,3.07113 33.78826,2.78257 18.39256,-0.15867 33.52183,-0.36958 33.62057,-0.46834 z m 69.91238,-3.9259 0.0955,-3.5035 -9.42245,0.58121 c -5.18239,0.31978 -20.02023,0.86295 -32.97301,1.20728 l -23.55051,0.62602 0,2.69474 0,2.69474 32.87744,-0.39849 32.87746,-0.39849 z M 74.311282,106.94417 c -0.0032,-2.80668 -0.47082,-3.2673 -6.29569,-6.20166 C 61.718563,97.570334 57.10669,95.025796 36.966156,83.611339 20.73993,74.415311 19.655421,73.814469 13.412361,70.561871 10.230499,68.904119 6.666688,67.501184 5.492781,67.444204 c -1.9354076,-0.09379 -2.1152251,0.265854 -1.9291682,3.86148 0.1307833,2.525814 0.5921532,3.816598 1.2712362,3.555962 1.5377014,-0.590189 8.472217,2.565694 18.398449,8.373167 4.75411,2.781475 14.939547,8.316605 22.634257,12.300293 7.694748,3.983721 17.069011,8.862624 20.83175,10.842004 3.762732,1.97941 7.01549,3.59891 7.228369,3.59891 0.212917,0 0.385507,-1.36433 0.383608,-3.03185 z m 75.085248,-3.11111 c 15.38946,-0.2475 35.70752,-0.81694 45.1513,-1.26518 9.44379,-0.44824 17.69639,-0.61314 18.33913,-0.36648 1.31134,0.50332 2.11264,-2.04711 1.47558,-4.696472 -0.3854,-1.602852 -1.13904,-1.696849 -9.37521,-1.169209 -4.92586,0.315531 -19.74372,0.65701 -32.92856,0.758727 l -23.97246,0.185103 -0.2774,2.311586 c -0.3619,3.013725 -2.37733,3.651485 -2.77059,0.876705 l -0.30494,-2.152747 -23.31736,0.466437 c -12.82453,0.256677 -27.724314,0.466436 -33.11059,0.466436 -5.450255,0 -10.097164,0.413724 -10.478551,0.932904 -0.376873,0.51308 -0.691635,1.94208 -0.699494,3.1756 l -0.01417,2.24269 22.151454,-0.65793 c 12.183391,-0.36186 34.742921,-0.86048 50.132351,-1.10807 z M 74.282726,97.615323 C 74.250836,94.75046 73.856612,94.403589 67.096272,91.318361 60.68337,88.391724 38.338102,76.067914 24.956316,68.077448 18.4157,64.171965 5.6112258,57.7346 4.3834195,57.7346 c -0.5243647,0 -0.9534094,1.259399 -0.9534094,2.798649 0,1.914995 0.45996,2.798645 1.4566933,2.798645 1.3113173,0 16.1825806,7.529815 18.6822226,9.459444 0.560286,0.432512 3.288428,1.956604 6.062502,3.386829 6.714229,3.461611 39.060148,21.59085 41.393225,23.200087 2.733743,1.885586 3.293361,1.582786 3.258073,-1.762931 z m 69.864594,-4.375865 c 1.56328,-2.346949 3.85051,-2.518413 3.84935,-0.288389 -7.8e-4,1.517458 1.65984,1.617312 23.5505,1.416442 12.95324,-0.118807 27.85341,-0.474122 33.11144,-0.789438 8.99442,-0.539382 9.55926,-0.692198 9.54583,-2.58251 -0.0248,-3.230107 -1.36045,-4.622926 -3.72008,-3.873857 -1.15603,0.367005 -23.34824,0.83792 -49.31601,1.046543 -25.96781,0.208735 -48.4733,0.528844 -50.01223,0.711622 -1.53897,0.182621 -9.61841,0.386471 -17.95435,0.452614 l -15.156273,0.120225 0,3.405198 0,3.405233 32.411103,-0.55127 c 31.37363,-0.533564 32.45205,-0.612718 33.69072,-2.472324 z m -69.832587,-3.67366 c 0,-1.102251 -1.124832,-2.2105 -3.031271,-2.986572 C 66.724154,84.723251 39.967737,69.301377 28.612732,61.984702 25.791351,60.166697 22.650416,58.151887 21.632919,57.50729 20.615423,56.862692 18.097168,55.247113 16.036758,53.917088 13.976384,52.587064 10.296984,50.343246 7.8603007,48.930791 l -4.4302906,-2.568059 0,3.821994 0,3.82199 6.9683569,3.219423 c 3.832602,1.770645 12.961342,6.760826 20.286091,11.089267 7.32475,4.328445 17.404606,10.050024 22.399663,12.714619 21.717827,11.585287 21.230612,11.389389 21.230612,8.535773 z m 45.051577,-4.36088 25.9314,-0.68215 -0.28233,-2.432732 c -0.20902,-1.801851 -0.76602,-2.380447 -2.1477,-2.231264 -1.02596,0.110693 -15.59815,0.262312 -32.38267,0.336686 -31.339746,0.138896 -32.967723,0.330341 -32.239075,3.794982 0.435989,2.073024 1.310082,2.290252 8.406016,2.089067 3.730654,-0.105767 18.452099,-0.499262 32.714359,-0.874483 z M 74.681281,84.245462 c 1.006885,-2.624435 0.638439,-3.120735 -4.100126,-5.522406 -2.566445,-1.300793 -5.185657,-3.196959 -5.820501,-4.213678 -0.634843,-1.01675 -1.906679,-1.84864 -2.826318,-1.84864 -1.893636,0 -7.267568,-2.733767 -17.4658,-8.884972 C 40.621161,61.455152 33.695914,57.66278 29.079074,55.348232 24.462267,53.033686 19.073491,49.845186 17.10403,48.262676 14.370318,46.066105 5.5605697,41.875626 3.6763465,41.875626 c -0.917629,0 -0.00705,2.493237 0.9195329,2.514571 1.3728663,0.03189 12.9537636,6.848828 22.4483426,13.214406 9.276338,6.219218 14.095483,9.15675 28.616634,17.443315 6.925242,3.951954 13.640639,7.946784 14.923081,8.877431 2.917409,2.117064 3.393655,2.154264 4.097344,0.320138 z m 131.492959,0.501519 5.71278,-0.04124 -3.56607,-1.881922 c -2.3991,-1.266135 -3.92514,-1.584519 -4.66348,-0.97303 -0.71353,0.590967 -2.56564,0.576616 -5.29451,-0.04089 -5.76147,-1.304002 -9.81083,-1.534841 -30.64818,-1.747024 -14.49566,-0.147721 -18.21772,0.07016 -18.87276,1.104684 -1.44399,2.280345 -0.92823,2.685469 3.58578,2.81645 2.43665,0.07087 13.03438,0.426738 23.55052,0.791095 10.51608,0.364398 20.32687,0.516434 21.80168,0.337784 1.47484,-0.178406 5.25225,-0.343098 8.39424,-0.365878 z m -89.68441,-9.209638 c 24.79383,-0.06523 29.50349,-0.287007 29.08823,-1.369549 -0.40338,-1.051338 -6.94639,-1.414674 -35.17991,-1.953532 C 91.321744,71.850183 73.825056,71.709606 71.516654,71.901848 l -4.197136,0.349795 3.775707,1.837149 c 2.719683,1.323288 5.458786,1.793709 9.793301,1.681903 3.30965,-0.08532 19.330244,-0.190382 35.601304,-0.233043 z m 87.46929,-0.06204 4.1971,-0.168165 -3.23889,-1.410628 c -4.81053,-2.095165 -53.96396,-2.358864 -56.46117,-0.302845 -1.58257,1.302943 -1.44812,1.431462 1.95208,1.865775 3.28766,0.419928 43.16662,0.431741 53.55088,0.01772 z m -59.41724,-7.070971 c 0.9838,-1.758311 3.45564,-1.728582 3.45564,0.0416 0,1.186694 3.43284,1.377621 24.24999,1.348605 13.33755,-0.01772 24.25005,-0.179468 24.25005,-0.357417 0,-0.17805 -1.46424,-1.187651 -3.25389,-2.243784 -2.29341,-1.353436 -4.70232,-1.881781 -8.16105,-1.790042 -2.69895,0.07157 -12.88171,0.03189 -22.62836,-0.08954 -9.74667,-0.120933 -37.86524,-0.191445 -62.485736,-0.156898 l -44.764562,0.06311 3.210206,1.952654 c 2.995168,1.821845 4.525608,1.950045 22.84626,1.914116 10.799832,-0.02126 25.092302,0.313087 31.761052,0.743144 15.98955,1.030818 30.51355,0.373953 31.5204,-1.425573 z m 0.0501,-6.890083 c 2.62412,-2.624644 -1.43146,-2.845257 -50.978717,-2.773119 l -50.543608,0.0737 4.211945,2.025426 c 4.172568,2.006459 4.643104,2.022921 50.352014,1.758941 25.377066,-0.146657 46.508316,-0.634686 46.958326,-1.084796 z m 38.02939,-0.110337 c -2.79505,-1.704364 -4.92536,-1.951421 -18.88703,-2.190367 -14.71422,-0.251716 -15.73664,-0.158669 -15.73664,1.434421 0,1.565621 1.19057,1.726576 14.68992,1.986081 8.07944,0.155126 16.57859,0.374303 18.88703,0.486637 l 4.1971,0.20413 -3.15041,-1.921062 z M 45.95157,55.90768 c 2.005807,0.07264 24.764291,0.0804 50.574381,0.01772 35.085339,-0.08568 47.396219,-0.401668 48.784989,-1.251572 1.54927,-0.948103 2.01134,-0.865916 2.78462,0.495417 0.80996,1.426027 2.39374,1.619917 12.53959,1.535083 6.38688,-0.05322 11.61251,-0.424721 11.61251,-0.825225 0,-0.400467 -1.1542,-1.511041 -2.56488,-2.467959 -2.44519,-1.658595 -5.74962,-1.739829 -70.789695,-1.739829 l -68.224973,0 5.268006,2.82583 c 2.897383,1.554199 5.515576,2.477796 5.818173,2.052401 0.302457,-0.425395 2.191334,-0.714061 4.197137,-0.641423 z m 42.508178,-6.774506 c 54.108262,-0.245374 57.508022,-0.357626 57.395322,-1.893488 -0.0796,-1.086245 -0.91168,-1.641708 -2.48622,-1.659939 -11.22245,-0.130109 -56.954211,0.192154 -69.986689,0.492988 -8.977158,0.207318 -24.260197,-0.03543 -33.962335,-0.53787 -9.702103,-0.503036 -18.039696,-0.781401 -18.527997,-0.618611 -1.612506,0.537622 6.282258,5.199789 8.187386,4.835003 1.025991,-0.196371 27.747192,-0.474584 59.380533,-0.618083 z m 71.407472,-1.81927 c -3.46028,-1.526235 -5.10683,-1.776218 -7.38848,-1.121714 -1.61473,0.463187 -3.10869,1.36066 -3.31988,1.99433 -0.28481,0.854382 1.62481,1.144277 7.38848,1.121713 l 7.77245,-0.03189 z M 36.601617,42.565916 c 10.73913,0.38997 25.401707,0.67231 32.583438,0.62743 57.819245,-0.36129 55.348375,-0.27078 55.070065,-2.01739 -0.16143,-1.0133 -0.92619,-1.52631 -2.01606,-1.35248 -0.96572,0.15406 -2.17558,0.28877 -2.68856,0.29937 -3.70908,0.0765 -90.876219,-1.00702 -99.648637,-1.2385 -6.073534,-0.1604 -11.2430473,0.0319 -11.4878331,0.42885 -0.6223988,1.00727 7.4873981,4.352743 8.1346841,3.35574 0.29576,-0.45544 9.10075,-0.50067 20.052903,-0.10293 z m 114.660453,0.24258 c -0.31692,-0.51309 -0.99614,-0.93288 -1.50911,-0.93288 -0.51298,0 -0.67331,0.41979 -0.35629,0.93288 0.31688,0.51308 0.99617,0.932863 1.50915,0.932863 0.51298,0 0.6733,-0.419783 0.35625,-0.932863 z m -5.94705,-1.53845 c 1.17539,-1.41655 0.55147,-1.50053 -7.8734,-1.05977 -12.59942,0.65917 -14.34285,2.59821 -2.33608,2.59821 7.16157,0 9.18606,-0.30501 10.20948,-1.53844 z M 370.53927,194.39902 c -5.07795,-2.82157 -9.69476,-5.4967 -10.2596,-5.9447 -0.56484,-0.44799 -4.38469,-2.61163 -8.48853,-4.80807 -4.10383,-2.19646 -9.6471,-5.60758 -12.31836,-7.58033 -2.67124,-1.97275 -5.07644,-3.58682 -5.34485,-3.58682 -0.26823,0 -2.90958,-1.55324 -5.86918,-3.45164 -2.9596,-1.89842 -7.68777,-4.68642 -10.50707,-6.19556 -5.16577,-2.76518 -15.43159,-9.87863 -18.8497,-13.06141 -1.28597,-1.19745 -1.65093,-2.32933 -1.2032,-3.73156 1.14926,-3.59951 2.18079,-36.71616 2.19077,-70.332362 0.007,-18.078533 0.26121,-33.277002 0.56849,-33.774402 0.33421,-0.54104 5.32403,-0.74769 12.4219,-0.51439 17.43706,0.5731 36.58024,0.56746 37.51606,-0.0106 0.44924,-0.27783 16.47627,-0.53042 35.61563,-0.56163 31.90952,-0.0522 35.33087,-0.21118 41.20683,-1.91828 7.21417,-2.09572 9.95516,-1.8034 11.31316,1.20669 0.9714,2.15303 3.15847,3.451495 23.45213,13.923601 11.29329,5.827637 16.97752,9.164999 26.91332,15.801537 2.05197,1.37057 9.46009,5.935003 16.46254,10.143177 13.27551,7.978053 14.7473,9.584083 13.09002,14.28366 -0.4197,1.190043 -0.84876,12.868559 -0.95357,25.952219 -0.10489,13.08368 -0.65016,29.03594 -1.21195,35.44954 -0.56182,6.41357 -1.08971,18.24982 -1.17308,26.30277 -0.0836,8.05298 -0.40238,14.89243 -0.70863,15.19879 -0.30649,0.30642 -29.25446,0.7057 -64.32925,0.88739 -35.07479,0.18156 -65.24133,0.58296 -67.03673,0.89168 -2.77274,0.47681 -4.65511,-0.21153 -12.49715,-4.56887 z m 17.51578,-10.02566 c 1.61993,-4.31258 4.14184,-6.44978 2.86582,-2.42868 -0.47653,1.50176 0.37106,1.03519 3.38945,-1.86578 4.29173,-4.12468 5.51452,-4.68188 5.51452,-2.51284 0,2.40012 -2.13984,6.23999 -2.84311,5.10184 -0.40543,-0.65616 -2.47203,1.12598 -5.4344,4.68636 -2.6291,3.15983 -4.78016,5.93323 -4.78016,6.16315 0,0.22989 1.38468,0.41799 3.07704,0.41799 2.68171,0 3.23185,-0.42804 4.28162,-3.33175 1.24663,-3.44836 6.44697,-11.17527 10.15113,-15.08308 2.70117,-2.84977 5.43883,-2.46563 5.0818,0.71307 -0.24342,2.16872 -0.19488,2.19569 0.79916,0.44345 0.58216,-1.02617 2.08669,-2.74005 3.34339,-3.80863 2.16588,-1.84173 2.22772,-2.16949 1.18864,-6.29696 -0.60286,-2.39473 -1.33405,-4.35408 -1.62482,-4.35408 -0.2909,0 -1.50566,0.91799 -2.69971,2.03999 -3.54259,3.32876 -4.28201,1.0945 -2.00175,-6.04832 1.97028,-6.17194 1.97506,-6.35691 0.34264,-13.29043 -0.9106,-3.8673 -1.42059,-7.26643 -1.13347,-7.55365 1.08847,-1.08864 2.46057,0.79054 3.01456,4.1285 0.98001,5.90521 1.32038,6.39562 2.65426,3.82406 0.91183,-1.75784 1.00658,-4.05176 0.3831,-9.27302 -0.45556,-3.81554 -1.16139,-7.27042 -1.56834,-7.67748 -0.40698,-0.40709 -2.17137,1.90019 -3.92087,5.1273 l -3.1809,5.86744 -0.10275,13.52676 c -0.0567,7.43977 -0.4764,13.4797 -0.93271,13.42216 -1.45945,-0.18404 -3.06229,-4.36956 -3.70388,-9.6717 -0.34263,-2.83236 -0.82839,-5.50189 -1.07925,-5.93225 -0.25087,-0.43037 -1.71092,1.45871 -3.24457,4.19795 -4.39671,7.85302 -7.40915,11.97708 -8.74863,11.97708 -1.28954,0 -2.93243,-4.95633 -4.0198,-12.12746 -0.58791,-3.87703 -0.68818,-4.00185 -1.31198,-1.63254 -0.86258,3.2765 -3.43789,3.42798 -3.43789,0.202 0,-1.29976 0.97906,-4.34328 2.17573,-6.76339 2.0622,-4.17049 2.106,-4.63865 0.83962,-8.96897 l -1.33615,-4.5688 -2.68907,4.5688 c -2.97337,5.05178 -3.17009,7.42803 -1.48245,17.90736 0.86846,5.39247 1.3354,6.56947 2.24521,5.65949 2.46238,-2.46288 2.05798,0.35376 -2.16088,15.05215 -0.53398,1.86038 0.12968,1.43569 3.28029,-2.09897 2.17228,-2.43718 4.3922,-4.43123 4.93301,-4.43123 0.63333,0 0.78453,1.67909 0.42477,4.71721 l -0.5586,4.7172 3.10372,-1.91856 c 3.86504,-2.38918 6.39956,-2.51065 5.96785,-0.28594 -0.17433,0.89789 -0.93955,1.64805 -1.70061,1.66705 -1.89369,0.0472 -3.89211,1.29241 -7.80498,4.86311 -4.5576,4.1591 -6.39615,4.14168 -4.15894,-0.0395 0.59321,-1.10864 1.40785,-3.49486 1.8103,-5.30271 l 0.73173,-3.28704 -3.30537,3.73151 c -1.81789,2.05237 -4.53621,4.82411 -6.04059,6.15946 l -2.73536,2.4279 6.76888,3.3093 6.76891,3.30929 1.47026,-2.47211 c 0.80869,-1.35968 2.21934,-4.46617 3.13483,-6.90331 z m 19.46453,8.69666 c 0.38477,-0.037 0.69949,-0.88231 0.69949,-1.87819 0,-0.99591 0.40836,-2.06312 0.90736,-2.3716 0.49904,-0.30851 1.35464,-2.22234 1.90134,-4.25302 0.54673,-2.03068 1.39755,-3.69217 1.89078,-3.69217 1.14626,0 1.14753,-0.0142 -0.46095,4.54715 -0.74676,2.11682 -1.23871,3.84879 -1.09326,3.84879 0.14563,0 3.7833,-5.24746 8.08416,-11.66102 4.30092,-6.41356 8.36042,-11.66103 9.02117,-11.66103 0.66076,0 1.2014,0.25668 1.2014,0.5701 0,1.50311 -14.32153,21.93187 -16.89167,24.09498 -1.61104,1.35587 -2.7715,2.57839 -2.57885,2.71674 0.19275,0.13819 2.52425,0.0825 5.18123,-0.12412 4.31726,-0.33565 4.99159,-0.68884 6.34074,-3.32178 2.45274,-4.78662 7.03632,-12.0275 9.92213,-15.6744 3.1731,-4.01005 3.21314,-4.29392 0.95959,-6.80225 -2.08998,-2.32625 -7.18794,-14.56202 -8.08673,-19.40926 -1.11795,-6.02924 -2.30803,-2.81839 -2.30803,6.22722 0,15.4815 -2.02876,18.86191 -4.76309,7.93649 -1.19853,-4.78899 -1.63087,-5.57159 -2.15875,-3.90802 -0.36305,1.14407 -0.4673,2.39874 -0.23174,2.78813 0.23563,0.3894 1.08853,2.94233 1.89538,5.67318 l 1.467,4.96511 -3.74679,3.89726 c -2.06082,2.14348 -5.28222,6.52096 -7.15882,9.72776 -3.15503,5.39153 -4.88976,7.14025 -4.88976,4.92929 0,-0.81814 1.45818,-4.46948 4.01694,-10.05874 0.52817,-1.15369 0.7222,-2.3357 0.43126,-2.62672 -0.68142,-0.68155 -4.298,4.22577 -8.05375,10.92821 l -2.95374,5.27104 5.37824,-0.30603 c 2.95802,-0.16817 5.69303,-0.33637 6.07772,-0.37343 z m 23.42891,-0.76716 c -0.22748,-0.89789 0.44862,-3.30937 1.50201,-5.35884 1.0535,-2.04947 1.54959,-3.84826 1.10257,-3.99729 -0.44706,-0.14914 -0.57901,-1.41081 -0.29339,-2.80387 l 0.5196,-2.5329 0.51073,2.67943 c 0.49758,2.61023 0.61923,2.5157 4.70787,-3.65666 5.21231,-7.86872 6.75439,-8.63496 6.35403,-3.15722 -0.17327,2.36997 -0.81821,4.16294 -1.58899,4.4168 -0.98192,0.32329 -1.14771,-0.16958 -0.68177,-2.02649 0.33874,-1.34959 0.38534,-2.45381 0.10382,-2.45381 -0.58131,0 -9.77845,18.70895 -9.78129,19.89734 -9.5e-4,0.42529 8.07753,0.54055 17.95243,0.25633 24.75397,-0.7129 39.25443,-1.65783 37.93707,-2.47216 -0.73662,-0.45529 -0.89061,-1.84677 -0.459,-4.14774 0.71125,-3.79185 1.23314,-3.9149 1.76694,-0.41662 0.51555,3.37922 1.72775,2.64506 4.64272,-2.8119 1.43886,-2.69358 2.27827,-4.7385 1.8654,-4.5443 -0.41286,0.19428 -2.53809,1.17704 -4.72272,2.18413 -2.18462,1.00709 -4.19555,2.53541 -4.4687,3.39631 -0.83707,2.63776 -4.20371,6.38353 -5.73754,6.38353 -1.20294,0 -1.34531,-0.80062 -0.83133,-4.67578 0.34122,-2.57166 0.88679,-5.40531 1.2127,-6.29696 0.7082,-1.93764 -6.3891,6.80239 -8.06073,9.92647 -0.85648,1.60071 -1.44187,1.90372 -2.20446,1.14097 -0.76252,-0.76271 -0.73162,-2.18508 0.11622,-5.35651 0.63503,-2.37487 1.0125,-4.46017 0.83877,-4.63396 -0.17397,-0.1738 -1.87423,1.77177 -3.77886,4.32347 -4.50673,6.03778 -6.13123,6.09835 -5.58414,0.20838 l 0.41156,-4.43118 -3.02213,3.5903 c -4.91009,5.83325 -12.96246,10.12717 -12.94807,6.90461 0.003,-0.64135 0.44235,-2.74033 0.97657,-4.66442 1.16515,-4.1963 3.18652,-4.81586 2.28271,-0.69967 -0.33804,1.53928 -0.31607,2.79865 0.0492,2.79865 0.36514,0 3.25331,-2.74742 6.41812,-6.10538 4.30419,-4.56678 6.16882,-5.94628 7.39927,-5.47402 1.34797,0.51738 1.53243,1.29804 1.0215,4.32304 l -0.62359,3.69165 3.9456,-4.28138 c 5.14367,-5.58135 6.95806,-5.67493 6.13711,-0.31659 l -0.6075,3.96476 1.65419,-2.42008 c 3.31735,-4.85348 6.78702,-8.41625 7.66672,-7.87246 0.4956,0.30643 0.74526,1.06833 0.55474,1.69326 -0.19028,0.62492 -0.59656,3.23522 -0.90234,5.80063 l -0.55591,4.66442 3.81412,-5.83053 c 3.99277,-6.1035 4.92157,-6.7585 6.24071,-4.40086 0.66196,1.18306 1.86728,0.62146 6.98849,-3.2562 3.83399,-2.90298 6.74103,-4.47375 7.64067,-4.12846 2.03938,0.78274 1.87359,1.40128 -1.81233,6.76072 -3.37029,4.90058 -4.3775,9.14994 -1.94765,8.21732 0.99549,-0.38206 1.25749,0.24257 1.07362,2.55984 -0.13358,1.68589 -0.54117,3.54761 -0.90549,4.13713 -0.45138,0.73056 0.39473,1.07186 2.65716,1.07186 l 3.3195,0 0,-7.92947 c 0,-5.71407 0.32563,-7.93349 1.16586,-7.94378 0.84915,-0.0106 0.87434,-0.20062 0.0928,-0.69967 -0.77662,-0.49605 -0.85078,-2.87587 -0.26823,-8.6149 0.63358,-6.24086 1.39086,-43.05931 0.96789,-47.05562 -0.051,-0.48287 -0.70915,-0.0631 -1.46232,0.9329 -0.81584,1.07877 -1.38138,1.32615 -1.39903,0.61191 -0.0521,-2.10369 -3.21211,0.31242 -7.30455,5.58454 -6.50098,8.37524 -11.19401,13.36869 -11.90036,12.66218 -0.3712,-0.37124 0.79338,-2.46979 2.58781,-4.6634 5.25716,-6.4265 10.19886,-14.65507 13.50455,-22.48673 1.69558,-4.01704 3.08286,-7.52579 3.08286,-7.79718 0,-0.27149 -1.98928,1.75584 -4.42063,4.50505 -9.02986,10.21032 -15.44015,16.60015 -16.18896,16.13727 -1.18154,-0.73038 0.59946,-4.57874 4.97874,-10.75776 9.51152,-13.42043 11.90007,-17.027624 11.90007,-17.971177 0,-0.552043 -2.29805,1.266238 -5.10671,4.040597 -2.80871,2.77439 -5.38824,4.76279 -5.73225,4.41871 -0.34406,-0.34413 0.44163,-3.04818 1.74588,-6.009085 4.26037,-9.671844 4.14415,-10.613211 -0.66451,-5.383449 -2.35884,2.565446 -4.95403,5.608962 -5.76708,6.763404 -1.32884,1.88675 -4.70447,3.10469 -3.87838,1.39933 2.70959,-5.59366 5.38103,-11.770425 5.17832,-11.973127 -0.14209,-0.142087 -2.83653,2.233666 -5.9874,5.279719 l -5.72895,5.538308 1.69465,5.59821 c 1.65132,5.45506 3.52247,15.34004 3.97094,20.97791 0.15626,1.96341 0.64014,2.69101 1.62167,2.43792 5.47954,-1.41288 6.10068,-1.38555 4.78239,0.21047 -0.70405,0.85234 -1.72027,1.54972 -2.25825,1.54972 -2.35144,0 -4.38994,3.19887 -4.40213,6.90796 -0.0106,3.644 4.29838,14.38527 5.81796,14.49813 0.37155,0.0283 1.336,-1.22727 2.14328,-2.78863 0.80723,-1.56135 3.10697,-5.00512 5.11053,-7.65279 2.00353,-2.64767 4.97802,-7.87704 6.61007,-11.62083 2.87787,-6.60188 4.58153,-8.52661 4.58004,-5.17436 -9.6e-4,2.61466 -5.41027,13.33481 -9.39393,18.61763 -2.01469,2.67168 -3.66304,5.06577 -3.66304,5.32023 0,0.25455 2.56054,-1.23845 5.69013,-3.31761 3.91857,-2.60332 5.99044,-3.47992 6.65467,-2.81557 1.42057,1.42084 -2.32675,8.14814 -7.49026,13.44686 -5.45605,5.59899 -4.08263,5.72186 2.60698,0.23305 2.81413,-2.30887 5.4096,-4.19799 5.76768,-4.19799 1.79231,0 1.58705,2.40019 -0.61954,7.24224 -3.44774,7.56561 -15.4078,19.39061 -15.4078,15.23381 0,-0.46531 2.13976,-2.63783 4.75493,-4.82788 4.44929,-3.72588 8.08692,-8.43459 9.52504,-12.32967 0.39132,-1.05987 -1.00832,-0.32364 -3.79892,1.99807 -2.43017,2.02194 -6.15029,4.54324 -8.26695,5.60293 -3.86553,1.93524 -5.81208,1.76254 -4.05127,-0.35949 0.6389,-0.76998 0.6278,-1.9719 -0.0354,-3.7135 -1.20696,-3.1751 -0.30614,-4.34823 1.47168,-1.91651 0.72219,0.98791 1.489,1.61695 1.7039,1.39786 2.01851,-2.05766 9.84145,-12.41708 9.57669,-12.68183 -0.95177,-0.95202 -10.84023,5.15734 -12.33211,7.61908 -0.93281,1.53925 -5.18707,6.26196 -9.45395,10.49492 -5.74894,5.70314 -8.39026,7.69627 -10.19929,7.69627 -3.11308,0 -2.01968,-1.47088 3.85373,-5.1842 2.3062,-1.45801 4.19308,-2.96327 4.19308,-3.34501 0,-0.38178 -1.24601,-1.4303 -2.76885,-2.33003 -3.34492,-1.97631 -3.71689,-2.85267 -4.42363,-10.42299 l -0.55205,-5.91268 -7.09766,7.05745 c -5.24997,5.22024 -7.52976,8.27434 -8.75748,11.73172 -2.06579,5.81741 -4.36667,6.25331 -6.20734,1.1759 -0.69753,-1.92405 -1.5199,-9.16555 -1.82749,-16.0922 l -0.55935,-12.59393 -2.01834,3.73155 c -1.11004,2.05233 -3.10013,5.17744 -4.42232,6.94463 -2.01033,2.68691 -2.40498,4.21463 -2.4098,9.32881 -0.004,3.52974 -0.58015,7.21718 -1.36417,8.72057 -0.74711,1.43266 -1.63537,4.08156 -1.97393,5.88644 -0.42272,2.2538 -1.01683,3.12758 -1.89691,2.7898 -0.8099,-0.31096 -1.96158,0.84176 -3.13006,3.13265 -2.34877,4.60498 -7.28332,11.93865 -8.56684,12.73207 -1.58386,0.9791 1.15791,2.20976 4.95853,2.2257 2.78712,0.0106 3.33477,-0.28417 2.99695,-1.61826 z m 10.28143,-6.37326 c 0.31146,-0.81158 0.56615,-2.06731 0.56615,-2.79054 0,-2.07778 5.6472,-6.92841 8.06622,-6.92841 1.81534,0 2.19341,0.48241 2.19341,2.79865 0,2.7996 -1.34185,3.82999 -2.12605,1.63254 -0.51038,-1.43019 -5.03146,2.46979 -5.84864,5.04518 -0.30012,0.94503 -1.19148,1.71822 -1.98125,1.71822 -0.92622,0 -1.23498,-0.52384 -0.86984,-1.47564 z m 64.92183,-6.9203 c 0,-0.51308 0.41978,-0.93291 0.93271,-0.93291 0.513,0 0.9327,0.41983 0.9327,0.93291 0,0.51308 -0.4197,0.93287 -0.9327,0.93287 -0.51293,0 -0.93271,-0.41979 -0.93271,-0.93287 z m -7.0618,12.52725 c 0.80614,-0.80625 1.46566,-2.97328 1.46566,-4.81557 l 0,-3.34964 -3.96397,4.11595 -3.96393,4.1159 2.33175,0.58931 c 1.28249,0.324 2.40664,0.63896 2.49827,0.69967 0.0918,0.0606 0.82616,-0.54932 1.63222,-1.35562 z M 374.2058,173.12318 c 2.78384,-7.68354 2.81832,-8.08288 0.43619,-5.05392 -1.02597,1.30456 -1.86534,2.65602 -1.86534,3.00325 0,1.25922 -8.73158,11.71133 -9.55437,11.43702 -1.22308,-0.40776 -1.10916,-0.93202 1.93089,-8.88705 1.51483,-3.96391 3.03901,-8.67639 3.38714,-10.47218 0.61619,-3.17884 0.44026,-3.06439 -6.65917,4.33247 -4.01062,4.17866 -8.25689,7.8867 -9.43616,8.24006 -2.07722,0.62242 -2.0481,0.69304 0.9327,2.26254 5.80119,3.05455 10.53859,5.905 11.00472,6.62145 0.25653,0.39426 1.2974,0.87448 2.31327,1.06717 2.1291,0.40392 3.87138,-2.50777 7.51013,-12.55081 z m 126.16966,6.32789 c -0.28736,-0.28733 -0.80861,0.23059 -1.15891,1.15056 -0.50619,1.32952 -0.39908,1.43667 0.52211,0.52221 0.63741,-0.63282 0.92399,-1.38556 0.6368,-1.67277 z m 4.55031,-4.33589 c 1.18729,-1.11561 2.15869,-2.40696 2.15869,-2.86962 0,-0.98163 -5.46785,3.1586 -5.54456,4.19831 -0.0918,1.24459 1.17734,0.74656 3.38587,-1.32869 z m -155.62658,-3.12211 c 0.1216,-1.80657 0.62716,-4.35266 1.12332,-5.658 1.34642,-3.54204 1.1359,-3.60575 -1.51247,-0.4577 -4.45852,5.29972 -9.64993,2.63474 -7.75319,-3.98008 l 0.76545,-2.66953 -2.33802,2.52327 c -2.01864,2.17856 -2.80986,2.43789 -5.79162,1.89811 -3.3232,-0.60155 -3.24233,-0.49682 2.14258,2.77294 3.07787,1.86895 6.25878,3.99638 7.06865,4.72758 0.80985,0.73119 1.91266,1.32946 2.45067,1.32946 0.53804,0 1.50072,0.62971 2.13934,1.39933 1.51729,1.82862 1.45021,1.90277 1.70529,-1.88538 z m 12.36464,-7.52261 8.04429,-8.00866 -0.80571,-4.31361 c -0.44317,-2.37248 -1.2217,-4.72968 -1.73013,-5.23825 -0.5085,-0.50857 -0.93086,-3.25454 -0.93859,-6.10216 -0.0142,-5.37383 -2.15248,-13.31927 -2.98678,-11.10024 -0.26008,0.69209 0.12472,4.76548 0.8556,9.052 0.73077,4.28652 1.07256,8.04984 0.75954,8.36297 -0.31323,0.31309 -1.28002,0.12058 -2.1488,-0.42737 -1.34561,-0.84899 -1.95768,-0.22213 -4.1315,4.23099 -1.40349,2.87516 -2.56141,5.85726 -2.57321,6.62688 -0.0106,0.76963 -0.86056,3.60776 -1.88625,6.30698 -1.90599,5.01567 -2.40091,8.61913 -1.18386,8.61913 0.3746,0 4.30106,-3.60389 8.7254,-8.00866 z m 9.67818,4.87315 c 2.15081,-2.82037 2.267,-3.37477 1.15636,-5.51592 -1.21153,-2.33573 -1.26245,-2.27689 -2.71234,3.13551 -0.81269,3.03375 -1.33306,5.51592 -1.15635,5.51592 0.17681,0 1.39726,-1.41098 2.71233,-3.13551 z m 83.51162,-4.43764 c 0,-0.51308 -0.4197,-0.67344 -0.9327,-0.35633 -0.51297,0.31699 -0.93267,0.99634 -0.93267,1.50942 0,0.51308 0.4197,0.67344 0.93267,0.35632 0.513,-0.31694 0.9327,-0.99633 0.9327,-1.50941 z m -106.58942,-2.19869 c 1.46934,-1.78292 4.30942,-6.42622 6.31131,-10.31848 2.0019,-3.89226 3.98497,-7.29017 4.40688,-7.55094 0.42176,-0.26089 0.49135,-0.92014 0.15448,-1.46524 -0.33661,-0.54509 -1.92549,1.68783 -3.53029,4.96212 -1.60485,3.27425 -3.32976,5.74329 -3.83311,5.48675 -0.50336,-0.25667 -0.82376,-2.46048 -0.71201,-4.89762 0.11172,-2.43718 -0.098,-4.42815 -0.46633,-4.42442 -0.94509,0.0106 -7.7238,19.66634 -7.11934,20.64455 0.89756,1.45261 2.07831,0.85177 4.78837,-2.43672 z m 84.31863,-0.18652 c -1.09949,-1.89117 -1.36502,-1.28585 -0.46495,1.06005 0.31961,0.83372 0.778,1.31934 1.01817,1.07916 0.24023,-0.2401 -0.007,-1.20285 -0.55322,-2.13921 z m 56.33496,-6.09712 c 0.30154,-0.8778 -0.27921,-3.39656 -1.29004,-5.59729 l -1.83805,-4.00136 -0.0787,3.4638 c -0.0432,1.90506 -0.91793,5.59385 -1.94393,8.19723 -1.02597,2.60342 -1.85914,5.24269 -1.85152,5.86508 0.0177,1.36479 6.22495,-5.66376 7.00217,-7.92746 z m -51.78535,4.89032 c 0,-2.07838 -0.34902,-2.63539 -1.39904,-2.23239 -1.68545,0.64689 -1.80847,2.35333 -0.27992,3.88228 1.57067,1.57102 1.67882,1.46471 1.67882,-1.64989 z m -107.54381,0.57585 c -0.26614,-0.69336 0.0892,-4.56098 0.78967,-8.5947 0.7003,-4.03368 1.17042,-7.43694 1.04464,-7.56271 -0.12583,-0.12585 -1.52033,3.00717 -3.09905,6.96212 l -2.87039,7.19084 1.97645,1.61181 c 2.40237,1.95918 2.78651,2.02902 2.15868,0.39264 z m 90.75536,-4.98969 c 0,-2.92998 -0.34973,-4.91951 -0.77875,-4.43118 -0.74247,0.8449 -0.37134,9.74863 0.40631,9.74863 0.2048,0 0.37244,-2.39285 0.37244,-5.31745 z m 33.89869,4.7774 c 1.17248,-0.44997 1.42204,-3.17176 1.49694,-16.32545 0.0493,-8.68196 -0.0957,-15.78539 -0.32173,-15.78539 -0.22677,0 -1.2522,1.36433 -2.27923,3.03188 -1.71382,2.78275 -1.82366,4.1242 -1.3367,16.32545 0.29197,7.31146 0.64384,13.29356 0.78228,13.29356 0.13854,0 0.88483,-0.24293 1.65866,-0.54005 z M 338.9205,159.18569 c 2.81239,-3.08833 3.71987,-5.27302 4.45642,-10.72815 0.44503,-3.29639 0.33168,-4.89762 -0.34725,-4.89762 -2.18774,0 -10.05402,15.02105 -8.86989,16.93742 0.85475,1.3833 2.79293,0.84928 4.76074,-1.31165 z m 91.70654,-6.36931 c -0.49421,-3.80835 -0.92483,-9.02323 -0.95696,-11.58867 -0.0549,-4.39135 -0.1428,-4.55519 -1.49624,-2.79865 -2.90051,3.76409 -2.91086,4.64764 -0.15696,13.36806 1.51178,4.78702 2.91967,8.53261 3.12858,8.3236 0.20906,-0.20906 -0.0248,-3.496 -0.51845,-7.30434 z m 50.7633,4.50357 c 1.21007,-2.91444 1.82094,-10.09565 1.52762,-17.95799 l -0.13925,-3.73155 -3.74282,4.19799 -3.7429,4.19795 0.54815,6.79623 c 0.30154,3.73793 0.78406,7.41117 1.07242,8.16274 0.89893,2.3431 3.16197,1.50123 4.47674,-1.66537 z m -68.97427,1.16607 c 0.31677,-0.51308 0.13181,-0.93287 -0.41127,-0.93287 -0.54326,0 -0.98781,0.41979 -0.98781,0.93287 0,0.51312 0.18496,0.93291 0.41135,0.93291 0.22641,0 0.67071,-0.41979 0.98773,-0.93291 z m -89.43556,-1.63268 c 0.0213,-0.89789 0.33102,-3.10183 0.69139,-4.89762 0.65025,-3.24146 0.63858,-3.23473 -1.60827,0.93287 -1.60517,2.97737 -1.95144,4.39727 -1.191,4.88338 1.63904,1.0477 2.06823,0.86065 2.10788,-0.91863 z m 50.43326,-0.40812 c -0.29799,-0.7442 -0.51878,-0.52313 -0.56353,0.56361 -0.0404,0.98343 0.18,1.53442 0.4899,1.22443 0.31004,-0.3099 0.34299,-1.11464 0.0737,-1.78804 z m 98.73834,-15.60155 c -1.16426,-6.79256 -1.60523,-8.47834 -2.21627,-8.47308 -1.12968,0.0106 -10.7333,20.60163 -11.01885,23.62643 -0.26858,2.84405 -0.0142,2.67746 6.76491,-4.42523 6.68366,-7.00295 7.01464,-7.55178 6.47021,-10.72812 z m -76.23883,-7.64599 c -1.02147,-3.02522 -2.21091,-5.28173 -2.64326,-5.01447 -0.43236,0.26724 -1.65271,2.80256 -2.71187,5.63404 -1.4653,3.91722 -1.92278,7.31445 -1.91328,14.20873 l 0.0142,9.06059 4.55652,-9.19422 4.55654,-9.19423 -1.85716,-5.50044 z m 41.7452,3.13226 c 0.0858,-6.79837 0.0422,-12.36069 -0.0964,-12.36069 -0.13854,0 -1.57975,2.3533 -3.20269,5.22955 -3.17207,5.62172 -3.16024,5.4112 -1.27839,22.75692 l 0.55669,5.13085 1.93234,-4.19798 c 1.61199,-3.50206 1.95821,-6.24697 2.0881,-16.55865 z m -120.17739,14.90326 0.2362,-2.91137 -2.13864,2.05018 c -1.49257,1.43079 -1.86831,2.41183 -1.24377,3.24731 1.41851,1.89772 2.88949,0.78221 3.14636,-2.38612 z m 55.74903,1.42219 c -0.28311,-1.15444 -0.60587,-3.4625 -0.7173,-5.12899 -0.20764,-3.10656 -1.60979,-4.34117 -1.59137,-1.40118 0.0213,3.50033 1.20774,8.62914 1.99498,8.62914 0.45563,0 0.59684,-0.94453 0.31394,-2.09897 z m 42.38481,-2.38729 c -0.0528,-2.77499 -0.2211,-3.08114 -0.86708,-1.57746 -1.12546,2.6196 -1.12546,6.29301 0,5.59729 0.51293,-0.31695 0.90315,-2.12602 0.86708,-4.01983 z m -94.13643,-1.74202 c 0,-0.66402 2.06036,-6.98567 4.57866,-14.04816 2.51829,-7.06246 5.39078,-15.48583 6.38332,-18.71859 l 1.80467,-5.8777 -3.43198,3.35192 c -3.14351,3.07014 -3.71913,4.50517 -6.84822,17.0723 -1.87894,7.5462 -3.80176,15.81796 -4.27296,18.38172 -0.75897,4.12948 -0.70595,4.45505 0.46486,2.85358 0.72692,-0.9943 1.32165,-2.35108 1.32165,-3.01507 z m 15.56743,-8.21806 c 0.72234,-4.19573 3.48475,-13.00261 6.29531,-20.07029 2.7545,-6.92664 5.72444,-14.90279 6.59991,-17.72478 0.87543,-2.821957 2.37633,-6.505695 3.33533,-8.186085 1.58825,-2.78292 1.59973,-2.974588 0.12901,-2.150525 -0.88801,0.497603 -2.80891,1.955796 -4.26867,3.240474 -1.4598,1.284681 -2.97843,2.462314 -3.3748,2.616958 -0.82848,0.323327 -7.41119,26.487488 -10.20965,40.580148 -1.03907,5.23261 -2.1343,10.68997 -2.43386,12.12749 l -0.5446,2.61365 1.59241,-2.78532 c 0.87582,-1.53191 2.17163,-6.14969 2.87954,-10.26172 z m -24.88333,8.14938 c 0.007,-1.41098 0.63069,-4.87428 1.388,-7.69627 1.76513,-6.57766 1.75223,-6.65459 -0.49776,-2.96341 -1.03938,1.70514 -2.40189,2.92487 -3.02778,2.7105 -1.66221,-0.56936 -1.11172,-5.80549 1.78785,-17.00541 0.27563,-1.06431 -0.34338,-0.56339 -1.44083,1.16611 -1.05814,1.66752 -2.20226,3.03185 -2.54247,3.03185 -0.34016,0 -0.36684,-3.56827 -0.0593,-7.92947 0.46325,-6.56539 0.32677,-7.92951 -0.79414,-7.92951 -0.74447,0 -1.35361,-0.85801 -1.35361,-1.90667 0,-1.04866 0.52464,-1.83852 1.16587,-1.75521 2.31929,0.30111 3.59677,-0.0875 3.07314,-0.9347 -0.29399,-0.47578 0.31093,-3.01009 1.34403,-5.63181 1.03319,-2.621759 1.87851,-5.556822 1.87851,-6.522446 0,-0.965593 0.60126,-2.944088 1.33611,-4.396632 0.73488,-1.452584 2.01471,-4.110337 2.84407,-5.906125 l 1.50792,-3.265082 -0.61637,3.265082 c -0.61591,3.262542 -0.61211,3.260355 4.85066,-2.748405 21.10072,-23.209777 34.36567,-35.359129 36.39257,-33.331836 0.84487,0.845006 -10.254,11.897044 -11.47913,11.430749 -1.7711,-0.674145 -18.41241,17.706661 -17.44642,19.270061 0.29573,0.47853 1.27674,-0.319464 2.18006,-1.772905 3.11715,-5.015913 12.14298,-13.733521 9.73894,-9.406309 -0.35632,0.641352 2.87168,-2.244062 7.17335,-6.412048 9.43834,-9.145039 18.53233,-16.536116 19.34549,-15.72284 0.32669,0.326869 -0.97813,2.0359 -2.90006,3.797591 -1.92195,1.761694 -3.49443,3.602933 -3.49443,4.091685 0,0.488752 -3.25276,4.714841 -7.22841,9.391324 -13.18331,15.507445 -12.82484,15.476062 3.15757,-0.276414 10.75435,-10.599706 16.50874,-15.625774 17.89017,-15.625774 1.12008,0 2.03648,0.428318 2.03648,0.951838 0,1.071508 -12.25749,14.751716 -27.28132,30.447793 -5.51455,5.761317 -10.02644,10.757487 -10.02644,11.102597 0,0.999725 6.60353,-5.049478 26.71644,-24.47369 10.33369,-9.979895 19.56735,-18.775739 20.51926,-19.54635 1.5492,-1.254216 -0.17965,-1.354984 -16.48772,-0.961182 l -18.2184,0.439923 -8.36337,8.662034 c -4.59984,4.764097 -10.25568,10.575308 -12.56852,12.913756 -2.31286,2.338488 -5.60089,6.035912 -7.30674,8.216513 -1.70589,2.180634 -3.88097,3.964751 -4.83353,3.964751 -0.9526,0 -1.99139,0.419788 -2.30845,0.93287 -0.31687,0.513084 -1.02274,0.932904 -1.56826,0.932904 -0.59702,0 -0.48866,-0.649919 0.27213,-1.63254 1.18166,-1.526199 1.14352,-1.535437 -0.58532,-0.141732 -2.18273,1.759507 -5.15643,2.932982 -5.01314,1.978285 0.16569,-1.104964 10.13556,-9.867171 10.64603,-9.356627 0.25944,0.259476 -0.44349,1.690435 -1.56216,3.179756 -1.11867,1.489321 0.12476,0.634162 2.76353,-1.90033 2.63861,-2.534489 4.61731,-4.788394 4.39705,-5.008688 -0.22032,-0.220358 -1.07996,0.279248 -1.91052,1.109869 -1.92367,1.924059 -2.66853,1.92589 -1.93146,0.0035 0.31759,-0.828084 -2.41694,1.165966 -6.07702,4.43119 -11.06803,9.874085 -12.95489,11.316652 -12.95489,9.904157 0,-1.768495 6.38406,-9.11331 7.689,-8.84612 0.57587,0.117744 1.65202,-1.045026 2.39141,-2.584272 1.73797,-3.618058 6.75901,-8.927467 8.15961,-8.628263 0.59808,0.127629 5.02806,-3.865605 9.84438,-8.874115 4.81633,-5.008546 8.12739,-9.095151 7.35792,-9.081332 -2.04589,0.03667 -3.45295,1.123199 -6.09715,4.707969 -1.29693,1.758239 -2.96366,3.201582 -3.70384,3.207435 -0.74017,0.0071 -6.58855,5.153141 -12.99638,11.438436 -6.40785,6.285293 -11.87436,11.427819 -12.1478,11.427819 -1.19753,0 -0.33594,-2.655248 1.35922,-4.189842 1.02102,-0.924164 5.04046,-5.921846 8.9321,-11.105945 l 7.07574,-9.425599 -7.2999,7.494595 c -4.01496,4.122036 -8.2478,8.110129 -9.40634,8.862407 l -2.10642,1.367787 -0.23655,35.915937 c -0.13007,19.75381 -0.5802,36.62195 -1.00016,37.48477 -0.59151,1.21542 0.25137,2.31348 3.74216,4.87452 2.47806,1.81814 4.82038,3.31611 5.20515,3.32883 0.38474,0.0142 0.7045,-1.13131 0.71056,-2.54232 z m -3.74183,-50.633944 c 0,-0.685955 0.88541,-4.529208 1.96756,-8.540538 1.34332,-4.979385 2.41071,-7.293367 3.36422,-7.293367 0.9576,0 1.19096,0.513187 0.74232,1.632538 -1.7111,4.269282 -3.10452,9.856492 -2.71277,10.877615 0.23935,0.623901 -0.419,1.907593 -1.46304,2.852628 -1.34957,1.221567 -1.89829,1.357772 -1.89829,0.471124 z M 307.62782,85.72107 c 0.53649,-1.539249 1.33226,-2.798648 1.76836,-2.798648 0.43613,0 0.35397,1.259399 -0.18259,2.798648 -0.53649,1.539278 -1.33226,2.798642 -1.76836,2.798642 -0.43612,0 -0.35396,-1.259364 0.18259,-2.798642 z m 16.64875,-24.862565 c 0,-0.513116 1.04926,-1.918839 2.33171,-3.123905 1.28248,-1.205028 2.33174,-1.771177 2.33174,-1.258093 0,0.513082 -1.04926,1.918841 -2.33174,3.123871 -1.28245,1.205027 -2.33171,1.771212 -2.33171,1.258127 z m 61.17384,85.737875 c -1.00308,-1.00331 -1.5356,0.40185 -0.83147,2.19397 0.66054,1.68109 0.71043,1.68402 1.03709,0.0606 0.1885,-0.93805 0.0964,-1.95258 -0.20552,-2.25446 z m 12.50892,-0.57175 c 0,-1.18525 -0.4308,-0.65602 -1.79051,2.19957 -1.04708,2.19904 -1.02766,2.22883 0.34016,0.52137 0.79777,-0.99598 1.45049,-2.22037 1.45049,-2.72094 z M 320.1614,133.81996 c 3.06725,-9.6119 4.10456,-14.05222 3.34214,-14.3064 -0.75741,-0.25243 -0.52743,-1.1807 0.73027,-2.94733 1.00971,-1.41828 2.21154,-4.25116 2.67072,-6.29524 0.79164,-3.52398 0.7278,-3.69608 -1.23193,-3.32135 -1.72309,0.32935 -2.39096,1.66124 -4.01562,8.00774 -1.07186,4.18688 -2.5992,9.92144 -3.39405,12.74339 -0.79489,2.82198 -1.86879,7.85955 -2.38646,11.19458 -0.51762,3.33508 -1.1775,7.11324 -1.46634,8.39594 -0.34476,1.53058 -0.21079,2.01157 0.38921,1.39935 0.50289,-0.51309 2.91582,-7.20491 5.36206,-14.87068 z m 9.03986,10.93459 c -0.0508,-0.11247 1.34862,-4.3105 3.10981,-9.32885 1.76124,-5.01831 4.20147,-13.32222 5.42276,-18.45305 1.22132,-5.13086 2.52066,-10.58821 2.88748,-12.12749 l 0.66692,-2.79865 -2.48043,2.39053 c -2.51589,2.4247 -3.22511,4.92675 -9.88086,34.85895 -2.13303,9.59266 -2.17663,10.05225 -0.71441,7.52887 0.59466,-1.02617 1.03956,-1.9578 0.98873,-2.07031 z m 90.95342,-4.4265 -0.27709,-3.76487 -1.25458,3.54785 c -0.7246,2.04916 -0.97763,4.61059 -0.5991,6.06373 l 0.65555,2.51588 0.87611,-2.29886 c 0.48182,-1.26437 0.7514,-3.99303 0.59904,-6.06373 z m 25.20761,-0.54157 c 2.65404,-4.24129 3.65641,-6.73368 3.2828,-8.16274 -0.7988,-3.05519 -1.49619,-2.55825 -3.84334,2.73853 -1.16819,2.63628 -2.37884,4.53827 -2.69043,4.22665 -0.59004,-0.59016 0.56891,-4.02455 3.53741,-10.483 2.04902,-4.45791 2.13474,-5.14937 0.59964,-4.83634 -1.49435,0.30462 -1.95073,-3.10219 -0.65605,-4.89762 0.79172,-1.09792 1.11441,-1.13797 1.49786,-0.18581 0.32457,0.80604 1.54032,0.0248 3.62102,-2.33221 2.64212,-2.99088 3.1389,-4.27528 3.17557,-8.20999 0.0319,-3.50258 0.60686,-5.36148 2.30549,-7.46303 1.99169,-2.464157 2.49055,-2.659767 4.17358,-1.636498 1.65525,1.006422 2.08654,0.881361 3.21728,-0.932865 0.71823,-1.152286 2.8253,-4.517045 4.6824,-7.477244 1.85716,-2.960202 3.3766,-5.628499 3.3766,-5.9295 0,-0.739831 5.28175,-7.589682 8.64931,-11.217258 l 2.72777,-2.938379 -4.13826,-2.425681 c -2.27608,-1.33411 -4.52112,-2.412426 -4.98908,-2.396204 -1.17569,0.04089 -5.03563,6.517224 -13.18151,22.116941 -6.33259,12.127104 -8.65479,15.755708 -8.65479,13.523488 0,-0.45244 1.25914,-3.422479 2.79807,-6.600088 1.53893,-3.177605 2.79808,-6.01292 2.79808,-6.300629 0,-0.910972 -4.12778,4.428193 -11.37344,14.711097 -8.27588,11.74501 -13.10997,17.55978 -14.5983,17.55978 -0.59198,0 -1.07635,-0.26936 -1.07635,-0.5988 0,-0.32931 4.13267,-7.57081 9.18368,-16.09221 11.91935,-20.108718 14.31462,-24.355822 13.73607,-24.355822 -0.50528,0 -3.9539,4.469585 -15.77195,20.441034 -4.01994,5.432708 -8.69908,11.575418 -10.39803,13.650488 -2.58349,3.15532 -3.1979,4.83486 -3.75399,10.26171 -1.04913,10.23866 -1.07549,10.96823 -0.51799,14.34737 l 0.52695,3.19411 2.9108,-4.69474 c 2.76062,-4.45259 2.86848,-4.97816 2.09172,-10.19071 -0.45047,-3.02279 -1.21982,-6.42555 -1.70972,-7.56165 -0.57384,-1.33084 -0.56445,-2.26737 0.0248,-2.63258 1.05725,-0.65356 3.20907,4.05166 4.15069,9.07608 l 0.64563,3.445 6.29726,-9.50874 c 6.5874,-9.94667 13.46165,-17.25404 14.55975,-15.47694 0.3437,0.55627 -1.04087,2.75641 -3.07689,4.88916 -2.03609,2.13275 -5.18796,5.87326 -7.00415,8.31223 -3.02719,4.0651 -3.23345,4.74073 -2.47646,8.11053 0.45422,2.02183 0.62816,6.2183 0.38665,9.32553 -0.27355,3.51771 -0.079,5.64947 0.51562,5.64947 0.59389,0 0.71578,1.32213 0.32244,3.49832 -0.76099,4.20984 -0.70583,4.16238 4.11412,-3.5401 z m 20.58185,-5.59356 3.06544,-7.03464 -1.55792,-5.36021 -1.55791,-5.36025 -3.64514,3.99895 -3.64513,3.99892 0.0928,8.39593 c 0.051,4.61778 0.29906,9.5917 0.55109,11.05317 l 0.45832,2.65719 1.58651,-2.65719 c 0.87254,-1.46147 2.96597,-5.82281 4.65201,-9.69187 z m -120.44879,2.93739 c 0.64122,-0.76462 1.16587,-2.33341 1.16587,-3.48622 0,-1.7032 2.73304,-11.88597 8.98158,-33.46332 l 0.54032,-1.865776 -1.77874,1.865776 c -1.94752,2.04278 -3.37111,6.20406 -8.13826,23.78848 -1.73874,6.41356 -3.63364,12.87797 -4.21092,14.36535 -0.97618,2.51524 -0.93339,2.61626 0.61236,1.44511 0.91407,-0.69259 2.18656,-1.88478 2.82779,-2.6494 z m 133.34754,-0.007 c 3.53224,-3.19654 3.85649,-3.84099 3.15824,-6.27626 -0.42806,-1.49267 -1.2984,-6.37926 -1.93417,-10.85911 -0.63578,-4.4798 -1.42742,-8.13449 -1.75915,-8.12151 -0.33165,0.0142 -2.02649,3.68525 -3.76607,8.16055 -2.90154,7.46444 -3.07494,8.46593 -2.09855,12.11726 0.58535,2.18914 1.0643,5.02374 1.0643,6.29912 0,3.06763 0.67032,2.90178 5.3354,-1.32005 z m -125.28628,1.23035 c 0.31124,-0.81158 0.55282,-2.17594 0.5365,-3.03188 -0.0248,-1.34243 -0.21785,-1.30745 -1.39906,0.25455 -1.52877,2.02163 -1.81025,4.25289 -0.53647,4.25289 0.45807,0 1.08763,-0.66402 1.39903,-1.47561 z m 32.65869,-6.82129 c 0.662,-5.85274 3.39997,-10.64089 5.60143,-9.79595 1.83093,0.70274 7.64967,-8.96198 6.00703,-9.97739 -0.93912,-0.58054 -0.74395,-1.25189 0.86053,-2.96014 1.9159,-2.03977 7.99865,-17.963408 7.44586,-19.491971 -0.13359,-0.369514 -2.9677,4.152395 -6.29801,10.048645 -5.73026,10.145506 -9.63952,15.291596 -10.76282,14.168116 -0.27673,-0.27676 1.52079,-3.81169 3.99437,-7.85542 2.47364,-4.04374 6.31831,-10.7106 8.54371,-14.815293 2.22541,-4.104692 4.69081,-8.200292 5.47862,-9.101322 2.65949,-3.041684 0.28028,-2.842791 -2.57577,0.215433 -3.10035,3.319521 -14.98725,22.838792 -21.71598,35.659322 -3.5086,6.68506 -4.03503,8.30209 -2.98619,9.17272 1.01321,0.84106 1.55849,0.37427 2.66946,-2.28521 0.76794,-1.8382 1.8444,-3.34219 2.39223,-3.34219 0.54779,0 -0.0797,2.12355 -1.39483,4.71904 -2.35151,4.64136 -2.36452,4.7788 -0.78831,8.35201 0.8814,1.99813 1.89489,3.45223 2.25227,3.23133 0.35737,-0.22106 0.93178,-2.89465 1.2764,-5.94166 z m -1.31368,-12.63751 c 0,-0.73933 0.41971,-1.60373 0.93274,-1.92081 0.51293,-0.31699 0.93267,0.28768 0.93267,1.34426 0,1.05646 -0.41974,1.92082 -0.93267,1.92082 -0.51303,0 -0.93274,-0.60493 -0.93274,-1.34427 z m -7.88434,15.25331 c 0.81974,-1.58558 1.21889,-3.57963 0.88692,-4.43119 -0.47019,-1.20616 -0.89731,-0.85467 -1.93287,1.59061 -2.35184,5.55347 -1.52196,7.8073 1.04595,2.84058 z m 25.67458,-6.24733 c 0.65087,-8.36882 2.58938,-12.93533 9.19268,-21.65494 2.5256,-3.33507 5.7388,-8.897393 7.14039,-12.360699 2.48733,-6.146303 4.92037,-8.691972 3.71452,-3.886584 -0.79806,3.180358 0.86339,2.153945 2.86489,-1.769872 0.83399,-1.634976 5.4833,-8.982536 10.33178,-16.327915 8.17281,-12.381599 12.98659,-17.526771 15.59478,-16.668225 1.70174,0.560153 1.58736,2.503392 -0.1474,2.503392 -3.07605,0 -6.4069,4.191464 -21.12796,26.587158 -7.43488,11.310904 -10.75761,16.054455 -16.20725,23.137745 -3.73209,4.85073 -4.02363,5.57748 -2.80704,6.9966 0.74668,0.871 1.66011,2.42325 2.02982,3.44942 0.59687,1.65651 0.91917,1.44726 2.87397,-1.86578 2.42411,-4.10864 4.26398,-6.78579 9.93694,-14.45966 2.08619,-2.821959 4.95258,-7.649631 6.3698,-10.728162 1.41718,-3.078491 4.79501,-9.375457 7.50623,-13.993233 2.71124,-4.617774 5.67775,-9.897917 6.59232,-11.733723 0.91456,-1.835771 2.3175,-3.881224 3.11765,-4.545427 2.29103,-1.901736 1.87508,0.939748 -0.6912,4.722145 -2.40062,3.538193 -7.11112,12.116666 -13.46068,24.513815 -2.336,4.560797 -6.53442,11.480925 -9.32994,15.378085 -2.7955,3.89716 -6.72735,9.90222 -8.7374,13.34461 -3.55627,6.09046 -3.62614,6.37955 -2.59454,10.74261 0.58305,2.46602 1.36352,5.32062 1.7344,6.34354 0.61856,1.70609 0.79193,1.62895 2.09757,-0.93287 0.78279,-1.536 1.72864,-5.71322 2.10175,-9.28269 0.58532,-5.59902 0.49361,-6.33649 -0.66813,-5.37217 -0.74062,0.61481 -1.61036,0.85397 -1.93277,0.53149 -0.32244,-0.32261 1.91112,-3.48122 4.96333,-7.01945 3.05219,-3.53822 9.76547,-12.19145 14.91839,-19.229334 5.15292,-7.037924 13.31899,-17.623875 18.14678,-23.524359 l 8.77775,-10.728148 -9.88599,-4.836557 -9.886,-4.836591 -2.30558,4.370157 c -1.26801,2.403539 -3.03885,5.419623 -3.93516,6.70233 -0.89639,1.282707 -2.69872,4.553639 -4.00521,7.268723 -5.61464,11.667725 -9.26269,16.888912 -12.2392,17.517147 -5.04921,1.065729 -7.81007,4.499065 -18.70251,23.257552 -2.97931,5.13087 -6.24567,10.72079 -7.25866,12.42205 -1.73739,2.918 -1.75695,3.28793 -0.34441,6.5302 0.82346,1.89031 1.93964,4.65973 2.48042,6.15427 1.5627,4.31917 3.14074,1.51594 3.78094,-6.71665 z m -51.56514,5.27108 c -0.23301,-0.69868 -0.65563,-0.2757 -0.98545,0.98566 -0.40567,1.55169 -0.28445,1.91591 0.40783,1.22368 0.54198,-0.5421 0.80189,-1.53632 0.57762,-2.20934 z m 23.99078,-5.93619 c 8.77318,-16.40259 14.65155,-27.06777 15.48154,-28.088087 0.90326,-1.110467 3.62756,-9.548363 3.58157,-11.09297 -0.0142,-0.513081 -1.2612,0.510122 -2.7687,2.273822 -3.83159,4.482805 -4.65466,2.796356 -1.07115,-2.194629 3.39148,-4.723519 3.65447,-5.65004 1.23616,-4.355562 -1.60795,0.860767 -7.17069,7.712876 -12.06771,14.864932 -2.71704,3.968344 -7.74987,13.948064 -10.71583,21.248804 -2.07868,5.11665 -2.15253,5.74267 -0.7875,6.67335 1.30773,0.89166 1.22963,1.03431 -0.59227,1.08191 -2.50805,0.0656 -2.53246,0.24116 -0.56296,4.0505 l 1.53557,2.97007 3.18157,-8.84693 c 7.32057,-20.3563 10.19857,-27.392145 11.36365,-27.780589 0.90251,-0.300756 1.05704,0.181558 0.57621,1.798218 -0.56009,1.883301 -10.84538,29.300981 -13.07726,34.860231 -1.39249,3.46835 0.17645,0.97014 4.68711,-7.46307 z m -59.48641,-1.16608 c 1.60422,-5.00255 3.18962,-9.79961 3.52307,-10.66006 0.46218,-1.19266 0.19424,-1.45668 -1.12809,-1.11086 -1.31149,0.34306 -2.25605,2.54426 -3.87384,9.02757 -1.17669,4.71564 -2.34637,9.30853 -2.59926,10.20642 -0.25274,0.8979 -0.0952,1.63254 0.35079,1.63254 0.44582,0 2.12315,-4.09302 3.7274,-9.09561 z m 44.31547,-1.90692 c 0.57264,-0.69004 1.75979,-1.06664 2.63821,-0.8369 1.30982,0.34275 2.22137,-1.53399 5.06639,-10.43007 4.03104,-12.60454 8.31262,-22.508843 9.7304,-22.508843 1.29033,0 1.28931,0.0071 -0.77439,4.77905 -3.01996,6.984183 -3.15297,8.957813 -0.27531,4.083326 6.33078,-10.723605 14.24567,-19.100223 18.08037,-19.135164 0.66848,-0.0071 2.52102,-2.419901 4.11679,-5.364056 8.73339,-16.112908 14.34492,-27.257883 14.27975,-28.360948 -0.0528,-0.897012 -0.22464,-0.854245 -0.61104,0.152291 -0.29587,0.769623 -1.90414,3.078527 -3.57448,5.130858 -1.67035,2.052365 -5.58365,7.509716 -8.69618,12.127493 -13.22556,19.621199 -16.89079,24.427961 -16.89079,22.150999 0,-2.680352 7.42425,-14.206157 9.15657,-14.215147 0.77868,-0.0035 1.02423,-0.650805 0.67039,-1.765929 -0.62227,-1.960969 3.75324,-7.932922 5.17046,-7.056886 0.46031,0.284527 0.58535,-0.138189 0.27779,-0.93989 -0.31996,-0.834216 0.48158,-2.82202 1.87487,-4.64912 1.33873,-1.755487 2.87507,-4.374947 3.41404,-5.820972 2.05154,-5.503893 -7.66519,5.882923 -14.95582,17.526317 -6.65531,10.628755 -9.33921,13.814014 -9.33921,11.083626 0,-0.605458 2.33315,-4.733458 5.18477,-9.173358 l 5.18477,-8.072549 -5.88429,6.064153 c -5.66911,5.842342 -17.09169,18.407004 -22.89806,25.187396 -1.53783,1.795823 -2.99876,4.734376 -3.24658,6.530203 -0.24804,1.79579 -1.98131,8.19296 -3.85232,14.21592 -3.66279,11.79106 -4.05083,14.14101 -2.23592,13.53985 0.64122,-0.21225 2.74577,-5.18001 4.6768,-11.03913 4.3781,-13.28418 9.78588,-27.243823 11.41956,-29.478433 1.5452,-2.113577 2.8074,-1.078738 1.55019,1.27089 -0.50892,0.9511 -3.9288,10.683162 -7.59974,21.626783 -6.50001,19.37749 -6.63019,19.94667 -4.97965,21.78043 1.66634,1.85125 1.69979,1.8069 1.98772,-2.6323 0.16122,-2.4834 0.76124,-5.07987 1.33384,-5.76991 z m 50.55109,-4.34463 c -0.34157,-1.82075 -0.94248,-3.31049 -1.33561,-3.31049 -2.32281,0 -4.70568,7.84305 -3.94915,12.99841 l 0.45082,3.07268 2.72742,-4.72504 c 2.19882,-3.80919 2.60708,-5.36673 2.10652,-8.03556 z m 44.67133,0.8875 c -0.31251,-2.56541 -0.6267,-4.74496 -0.69838,-4.84337 -0.0716,-0.0984 -1.40251,1.16096 -2.95741,2.79865 -2.72697,2.87202 -2.79695,3.15804 -1.97366,8.06603 l 0.85362,5.08844 2.67196,-3.22267 c 2.4013,-2.8962 2.61443,-3.6952 2.10387,-7.88708 z m -63.73851,5.07578 c 0,-0.4828 -0.4197,-0.87783 -0.9327,-0.87783 -0.51293,0 -0.93267,0.6545 -0.93267,1.45442 0,0.79987 0.41974,1.1949 0.93267,0.87779 0.513,-0.31695 0.9327,-0.97159 0.9327,-1.45438 z m 82.07419,-8.97284 c 1.13781,-3.16953 1.91879,-6.19863 1.73536,-6.73131 -0.18319,-0.53269 -1.88011,0.38139 -3.77039,2.03128 l -3.4369,2.99979 1.07925,4.41045 c 0.59358,2.4258 1.35929,4.10498 1.70161,3.73156 0.34228,-0.37342 1.55321,-3.27221 2.69107,-6.44177 z m -9.3241,-3.87953 c 0,-2.33662 -1.88128,-7.61599 -2.71392,-7.61599 -0.36631,0 -1.49283,1.15447 -2.50334,2.56545 -1.46572,2.04654 -1.76432,3.69167 -1.47628,8.13379 l 0.36102,5.56838 3.16629,-3.45569 c 1.74143,-1.90064 3.16623,-4.23881 3.16623,-5.19594 z m -149.70398,-2.946 c 1.92158,-1.59509 1.77494,-3.14551 -0.22489,-2.37797 -1.08913,0.41802 -0.79056,-0.25104 0.899,-2.01506 1.89554,-1.97892 2.68719,-3.9815 3.15811,-7.989095 0.34583,-2.941515 0.94929,-5.348192 1.34149,-5.348192 0.39214,0 1.15875,-1.278864 1.70353,-2.84191 l 0.99045,-2.841909 -2.681,2.142238 c -2.75413,2.200628 -4.29176,5.691681 -3.24973,7.378062 0.32357,0.523623 -0.0283,1.448881 -0.78332,2.056104 -1.39916,1.126225 -3.80193,9.871512 -4.78873,17.429462 l -0.54812,4.19798 1.38876,-4.31141 c 0.7638,-2.37128 2.02129,-4.83652 2.79446,-5.4783 z m 193.20539,-7.18854 c 4.11419,-4.104448 4.90864,-5.461936 5.16365,-8.822996 l 0.30153,-3.972258 -7.46155,-4.871889 c -4.10385,-2.67954 -10.49877,-6.984783 -14.21098,-9.567191 l -6.74953,-4.695312 -5.01353,6.26273 c -2.75743,3.444512 -5.59615,7.39153 -6.30824,8.771161 -0.71206,1.379631 -3.23756,5.688966 -5.61228,9.576292 l -4.31747,7.067893 1.85371,5.03323 1.85378,5.03326 4.16746,-3.18173 c 2.29209,-1.74996 4.60838,-3.18173 5.14735,-3.18173 0.61462,0 0.81188,-1.74918 0.52912,-4.69235 -0.42923,-4.468249 0.33981,-6.69627 1.60466,-4.649191 0.90294,1.461325 3.5157,-0.302881 8.93274,-6.031789 7.10056,-7.509326 10.90607,-8.297778 7.46234,-1.546119 -2.624,5.144467 -2.43585,5.432531 0.99548,1.523697 3.00143,-3.419126 6.21081,-5.628779 7.01184,-4.827635 0.562,0.562127 -1.57889,8.243305 -2.63348,9.448584 -0.42655,0.487412 -0.77546,1.367505 -0.77546,1.955686 0,0.588185 1.74866,-0.545275 3.88594,-2.518798 4.6345,-4.279367 7.75561,-4.891561 6.37125,-1.24967 -1.66921,4.39124 -3.5466,7.457785 -9.7051,15.852665 -4.62115,6.29926 -5.06001,7.11461 -1.75731,3.26508 2.42107,-2.82195 6.59005,-7.31371 9.26425,-9.98162 z m -37.86703,-4.244848 c 0.0213,-0.641355 1.17521,-2.675841 2.56489,-4.521133 1.38973,-1.845256 3.88796,-5.157762 5.55165,-7.36114 1.66379,-2.203342 3.73407,-6.255883 4.60069,-9.005627 1.67694,-5.321112 3.10032,-6.531469 3.10032,-2.636353 0,3.002935 -3.78737,10.515859 -7.6091,15.093897 -1.62198,1.942999 0.51562,0.06945 4.75029,-4.163539 4.23461,-4.23296 8.07923,-7.696268 8.54354,-7.696268 2.14707,0 0.45071,4.947583 -3.3999,9.916218 -5.13808,6.629872 -7.46127,7.914238 -3.25513,1.799491 1.65852,-2.411087 2.84776,-4.551563 2.64274,-4.756661 -0.20515,-0.205192 -3.69829,2.972895 -7.76277,7.062181 -7.02509,7.067963 -9.81226,8.864212 -9.72722,6.268934 z m 39.13489,18.020858 c 0,-0.4785 0.83945,-1.1365 1.8654,-1.46218 1.5879,-0.50409 1.85602,-1.38079 1.80227,-5.89339 -0.0432,-3.63114 -0.29799,-4.7134 -0.80873,-3.43542 -3.60488,9.02062 -4.44521,11.66102 -3.71135,11.66102 0.46881,0 0.85241,-0.3915 0.85241,-0.87003 z m -189.71861,-5.44121 c 1.23895,-0.83485 4.11263,-9.12163 4.11263,-11.859561 0,-1.088714 0.3755,-2.378256 0.83444,-2.865709 1.27399,-1.353081 2.25031,-6.949949 1.21233,-6.949949 -1.354,0 -3.57903,3.812154 -4.36387,7.476746 -0.38301,1.788244 -1.01288,3.671193 -1.39973,4.184273 -0.38688,0.51308 -0.99258,2.53693 -1.34604,4.49744 -0.35348,1.96052 -0.87279,4.16442 -1.1541,4.89763 -0.54996,1.43347 0.45637,1.72957 2.10434,0.61913 z m 16.84672,-9.54265 c 0.54843,-2.055149 0.65711,-3.736634 0.24147,-3.736634 -1.7784,0 -7.37945,9.803434 -7.37945,12.916124 0,0.28063 1.38167,-0.82921 3.07035,-2.4663 1.68872,-1.63709 3.51911,-4.658 4.06756,-6.71319 z m 123.93566,0.97656 c -0.9676,-1.56598 -3.2946,0.60334 -3.2946,3.0714 l 0,1.95883 1.97859,-1.97896 c 1.08821,-1.08843 1.68044,-2.46151 1.31601,-3.05127 z M 329.5891,99.489914 c 1.39557,-4.666253 1.55653,-7.557737 0.38022,-6.830601 -1.31159,0.810771 -4.45514,7.275565 -5.21054,10.715637 -0.68325,3.11142 -0.67983,3.11513 1.47872,1.60289 1.18999,-0.83366 2.69819,-3.3032 3.3516,-5.487926 z m 117.66401,-1.900468 c 2.51971,-3.734832 5.23756,-7.335365 6.03969,-8.001187 0.8021,-0.665822 2.81357,-3.382281 4.46985,-6.036544 3.61278,-5.789489 9.69567,-14.181123 12.66893,-17.477306 l 2.15557,-2.38972 -3.27061,-1.559941 c -1.95711,-0.933469 -3.27057,-1.161205 -3.27057,-0.567029 0,0.546084 -1.41229,3.163043 -3.13841,5.815403 -1.72612,2.652396 -5.73565,9.78181 -8.9101,15.843177 -3.17444,6.061368 -7.23131,13.302836 -9.0153,16.092212 -4.7838,7.479819 -3.04936,6.166859 2.27095,-1.719065 z M 342.49405,96.979473 c -0.63189,-2.035761 0.90409,-4.172075 2.54641,-3.541725 1.49928,0.575422 9.52415,-7.266959 16.98347,-16.597355 2.45258,-3.067707 8.06995,-9.250853 12.48313,-13.740359 4.41319,-4.489506 7.69148,-8.16274 7.28517,-8.16274 -0.40635,0 -7.74251,6.89551 -16.3027,15.323364 -8.56015,8.427847 -17.45259,16.869693 -19.76103,18.759655 -4.63362,3.793644 -5.96697,5.856267 -6.87512,10.635389 l -0.60907,3.205108 2.35173,-2.20976 c 1.30134,-1.222804 2.14906,-2.862676 1.89801,-3.671577 z m -3.77854,-6.09511 c 0.65924,-2.238353 5.80883,-8.278919 16.80629,-19.714072 22.73971,-23.644799 21.8379,-23.852472 -1.62408,-0.373988 -18.88966,18.90302 -20.07916,20.298487 -20.67399,24.254951 l -0.63118,4.197952 2.58623,-2.568833 c 1.42242,-1.412846 3.01395,-4.02106 3.53673,-5.79601 z m 75.66479,-5.417227 c 10.13462,-18.441555 10.70336,-19.463596 15.06789,-27.078351 2.2939,-4.00216 3.94625,-7.501252 3.67178,-7.775737 -0.56055,-0.560647 -7.29831,7.748486 -12.56667,15.497287 -1.91055,2.810108 -4.83781,6.935287 -6.50497,9.167047 -1.6672,2.231795 -3.03134,4.668549 -3.03134,5.415076 0,0.746496 -0.7875,3.757892 -1.75018,6.691931 -4.5711,13.932941 -3.3443,13.472961 5.11349,-1.917253 z m -56.35944,7.018672 c 2.03002,-4.665976 4.23544,-7.696272 5.60128,-7.696272 0.44887,0 -0.11126,1.254216 -1.24416,2.78719 -1.13311,1.532935 -1.81899,3.028425 -1.52426,3.323256 0.29481,0.294767 4.71674,-4.422689 9.82647,-10.48342 8.51183,-10.096146 24.33075,-26.131764 31.67963,-32.113655 1.65076,-1.343702 2.84184,-2.604618 2.64678,-2.801997 -0.19488,-0.197433 -3.43446,-0.220713 -7.19854,-0.05219 l -6.84392,0.306743 -3.12095,4.552867 c -1.71654,2.504097 -6.96294,8.714185 -11.65866,13.800191 -21.26467,23.032077 -25.31028,27.975115 -16.23244,19.833424 1.4107,-1.26522 2.5649,-1.853472 2.5649,-1.307209 0,0.54626 -0.61789,1.506102 -1.37311,2.132965 -1.12439,0.933363 -6.08842,10.550307 -6.08842,11.795285 0,1.488616 1.35355,-0.372507 2.9654,-4.077472 z m 11.12791,-14.45967 c 1.09616,-2.089386 1.09201,-2.090832 -0.90563,-0.316594 -3.6418,3.234369 -3.34569,0.593892 0.3848,-3.431961 10.24004,-11.050628 16.81382,-17.474418 17.88256,-17.474418 0.65408,0 1.18919,-0.544496 1.18919,-1.210002 0,-0.665507 1.67885,-2.849666 3.73078,-4.853726 2.05197,-2.00406 3.73078,-3.224252 3.73078,-2.711523 0,3.30845 -16.17567,22.768485 -18.9257,22.768485 -0.6976,0 -2.28593,1.117199 -3.52952,2.482624 -1.24366,1.365458 -1.7365,2.180283 -1.0953,1.810703 0.64127,-0.369546 1.15196,-0.332115 1.13488,0.08284 -0.0397,0.970138 -3.34902,4.952661 -4.11526,4.952661 -0.32067,0 -0.0875,-0.944542 0.51842,-2.098978 z m 11.20842,-12.593892 c 1.16008,-1.479626 1.12709,-1.512625 -0.35221,-0.352239 -0.89768,0.704189 -1.63218,1.438832 -1.63218,1.632544 0,0.767787 0.76589,0.273579 1.98439,-1.280308 z m -7.11424,8.162706 c 0.31677,-0.513085 0.99613,-0.932874 1.50916,-0.932874 0.51293,0 0.6733,0.419789 0.35621,0.932874 -0.31677,0.51308 -0.99613,0.932865 -1.50913,0.932865 -0.51296,0 -0.67326,-0.419785 -0.35624,-0.932865 z m -41.65647,16.19689 c 0.17309,-0.104704 0.65127,-1.682504 1.06258,-3.506604 0.69633,-3.087977 0.62332,-3.249884 -1.05888,-2.349379 -1.83286,0.981101 -3.58284,4.445288 -3.58284,7.092363 0,1.237746 0.24147,1.267825 1.6322,0.203065 0.89772,-0.687255 1.77386,-1.335098 1.94694,-1.43964 z m 66.8603,-2.870716 c 1.01431,-1.906112 3.94287,-5.649051 6.50773,-8.317632 3.09384,-3.218856 6.81607,-8.978976 11.05889,-17.113438 3.51751,-6.743792 6.58963,-12.067268 6.82696,-11.829909 0.71454,0.714692 -3.51545,9.963816 -7.88608,17.243509 -2.25719,3.759511 -3.89012,7.049378 -3.62873,7.310789 0.26114,0.261248 1.22963,-0.715613 2.15181,-2.171084 4.84043,-7.639853 17.4936,-23.627132 19.10453,-24.138523 2.52336,-0.801038 1.70525,-2.695975 -1.31879,-3.054908 -4.89801,-0.581342 -8.9211,2.496763 -16.3749,12.528419 -14.93484,20.100118 -18.79421,25.831639 -18.79421,27.911119 0,1.180348 -0.25477,2.81014 -0.56615,3.621758 -1.12174,2.923671 1.11578,1.398176 2.91894,-1.9901 z m -70.61242,-4.295545 c 0.59028,-1.564141 0.92288,-2.994229 0.73915,-3.177994 -0.59688,-0.597001 -5.22966,5.445293 -5.22966,6.820764 0,2.247591 3.26809,-0.403532 4.49051,-3.64277 z m 94.27232,0.940343 c 3.23603,-1.360943 5.71609,-4.932177 13.079,-18.833349 l 4.9411,-9.328813 -3.82889,4.005267 c -2.10589,2.202917 -3.82889,4.293607 -3.82889,4.646021 0,1.233866 -6.88202,11.913364 -10.50603,16.303299 -4.0342,4.886799 -4.0308,4.963168 0.14386,3.207575 z M 345.407,72.16215 c 9.93476,-11.836855 11.23463,-14.533715 2.68165,-5.5638 -3.42467,3.59158 -7.71332,8.066519 -9.53029,9.94425 -1.817,1.877765 -3.02083,3.871812 -2.67515,4.431186 0.34582,0.559413 0.77379,1.017105 0.95142,1.017105 0.17767,0 4.0352,-4.422941 8.57237,-9.828741 z m 83.83083,-5.951114 c 2.5466,-3.804607 6.59263,-9.076747 8.99116,-11.715918 l 4.36089,-4.798443 -2.70202,-1.020099 c -2.63955,-0.996514 -2.75534,-0.908964 -5.00438,3.786415 -1.26631,2.64358 -4.48759,8.794608 -7.1584,13.668891 -5.49296,10.024848 -5.15621,10.042476 1.51275,0.07898 z M 328.24892,65.199008 c 0.44067,0 0.51594,0.461679 0.16706,1.025956 -1.79821,2.910132 3.83013,-1.883406 12.6322,-10.758616 8.69145,-8.763685 9.50569,-9.857864 7.33564,-9.857864 -1.53862,0 -2.97628,0.817117 -3.88897,2.210358 -2.7054,4.129832 -11.93669,14.581524 -12.87886,14.581524 -0.5158,0 -0.0412,-1.259402 1.05462,-2.798648 3.15444,-4.430907 1.68784,-3.271251 -3.24447,2.565411 -2.49312,2.950259 -3.95824,4.839339 -3.25578,4.197987 0.70242,-0.641351 1.63771,-1.166108 2.07835,-1.166108 z m -13.48385,-8.126386 c 6.86064,-7.532954 11.42333,-11.10669 12.63411,-9.895699 0.30848,0.30848 -1.0359,2.495814 -2.98774,4.860426 -5.96883,7.23121 -5.50239,7.366989 2.23294,0.650132 4.08401,-3.546303 7.58659,-6.863462 7.78354,-7.371433 0.21961,-0.566743 -0.81642,-0.688704 -2.68147,-0.315567 -1.6718,0.33463 -4.41337,0.608035 -6.09243,0.608035 -2.72162,0 -3.84547,0.961429 -10.35962,8.862376 -6.64615,8.06109 -8.73903,10.030312 -8.73903,8.22275 0,-0.35185 1.72439,-2.685078 3.83201,-5.185052 4.70951,-5.586327 4.29012,-6.762974 -0.61042,-1.712613 -1.97062,2.03089 -3.92136,3.483333 -4.33496,3.22764 -0.41361,-0.255614 -0.75199,-0.07264 -0.75199,0.406459 0,0.479236 -0.25696,2.156199 -0.57096,3.726615 -0.51588,2.579939 -0.37628,2.804357 1.44767,2.327309 1.1102,-0.290516 5.24946,-4.075499 9.19835,-8.411346 z m 99.85678,-2.675909 c 6.25587,-8.345029 6.31055,-8.467797 3.69835,-8.312346 -1.45828,0.08674 -2.75371,0.330023 -2.87871,0.540584 -2.1307,3.58844 -9.70001,19.451223 -8.6406,18.107624 0.80922,-1.026162 4.3286,-5.67733 7.82096,-10.335862 z M 311.18,50.157645 c 0.0213,-0.319783 -1.41647,0.09978 -3.19518,0.932909 -2.589,1.212432 -3.24013,2.057262 -3.26446,4.235394 l -0.0319,2.720869 3.22557,-3.653736 c 1.7741,-2.009566 3.2431,-3.915497 3.26443,-4.235436 z m 3.56188,-4.549161 c 0.54174,0 1.12973,0.434317 1.30663,0.965167 0.19562,0.586983 1.04837,0.415875 2.17631,-0.436782 1.6993,-1.284505 1.21019,-1.404416 -5.84009,-1.431604 l -7.69472,-0.02835 0,3.256443 0,3.25648 4.53343,-2.790042 c 2.49341,-1.534491 4.9767,-2.790011 5.51844,-2.790011 z m 94.3955,1.577503 c 0.007,-0.415101 -0.40543,-0.495276 -0.91845,-0.178051 -0.51297,0.316948 -0.92622,1.286407 -0.91836,2.154013 0.0106,1.359462 0.13925,1.384109 0.91836,0.17805 0.49732,-0.769623 0.91058,-1.738914 0.91845,-2.154012 z M 83.473684,25.318286 c -0.76439,-0.8979 -2.349929,-3.23472 -3.52345,-5.19298 -2.613288,-4.36082 -2.198699,-9.93946 0.991059,-13.3354797 2.777743,-2.95739 4.032838,-1.62119 2.834106,3.01724 -1.119509,4.3319397 -0.850967,7.0908397 1.158366,11.9008197 0.828268,1.98276 1.505975,3.97356 1.505975,4.42399 0,1.33965 -1.478199,0.93418 -2.966056,-0.81359 z m 16.023772,0.99302 c 0,-0.35188 0.874444,-1.57056 1.943274,-2.70849 3.89545,-4.14739 3.79886,-9.89548 -0.2605,-15.4980997 -0.63278,-0.87328 -0.84887,-1.88943 -0.48025,-2.25813 0.86715,-0.86736 5.1233,3.11494 6.8245,6.3853897 1.81016,3.47994 0.35519,9.81228 -2.89963,12.61987 -2.33023,2.01003 -5.127401,2.8062 -5.127401,1.45946 z m -5.792297,-2.39233 c -1.501037,-2.63775 -1.466211,-16.2020297 0.04546,-17.7140597 2.002282,-2.00269 2.834071,0.55546 2.953931,9.0848897 0.06488,4.61778 0.09021,8.92069 0.05641,9.56204 -0.09833,1.85866 -1.755131,1.35281 -3.055839,-0.93287 z m 297.804611,-3.16321 c -3.28269,-3.73008 -3.80973,-4.92446 -3.80753,-8.62914 0.002,-3.6270897 0.55215,-4.9373997 3.51549,-8.3744697 2.41338,-2.79916994 4.08794,-3.96386994 5.34978,-3.72082994 1.76266,0.33954 1.74923,0.44136 -0.33271,2.52382994 -5.25454,5.25558 -5.87813,12.2670897 -1.53957,17.3109597 2.35063,2.73276 3.05479,5.21897 1.47809,5.21897 -0.46938,0 -2.56793,-1.94821 -4.66344,-4.32932 z m 25.13306,3.16321 c 0.0177,-0.64135 0.65452,-1.99273 1.41814,-3.00303 3.82642,-5.0624 3.57017,-13.4041697 -0.54641,-17.7869897 -2.54281,-2.70720994 -0.82215,-3.95395994 2.27597,-1.64904 5.2292,3.89043 7.01329,11.7866897 3.80433,16.8377497 -3.4827,5.48193 -7.02147,8.33318 -6.95203,5.60131 z m -15.88543,-5.14316 c 0,-2.15751 1.36771,-3.81983 5.82937,-7.08503 3.50429,-2.5645597 4.38175,-4.6066997 2.4836,-5.7800297 -0.55763,-0.34483 -1.48102,-0.15972 -2.05192,0.4114 -0.57086,0.57097 -2.03247,1.03815 -3.248,1.03815 -3.12863,0 -2.46362,-3.77443 0.95261,-5.40705 2.21772,-1.05981994 2.94697,-1.00185994 5.36424,0.42631 5.64853,3.33737 4.87623,8.7937297 -1.66998,11.7982897 -4.17806,1.9176 -4.26583,2.03293 -1.77417,2.33175 1.44173,0.17277 3.23566,-0.19569 3.98653,-0.81888 1.64487,-1.36541 1.97298,-1.1008 2.39474,1.93129 0.31535,2.26727 0.14917,2.3399 -5.97131,2.60804 -5.60848,0.24575 -6.29571,0.0871 -6.29571,-1.45424 z"/>
</svg>
