<?xml version="1.0" encoding="utf-8"?>
<svg xmlns="http://www.w3.org/2000/svg" version="1.1" viewBox="0 0 867 221">
	<title>A diagram showing Lineland, with the King’s position on the right, and in the middle the narrator’s body just before they disappeared.</title>
	<path d="m 443.79899,220.79498 c -0.28204,-0.2819 -23.01215,-0.63881 -50.51168,-0.79331 -27.49954,-0.15463 -58.44531,-0.68097 -68.76837,-1.16999 -10.32306,-0.48899 -31.71995,-0.968 -47.54864,-1.06442 -38.69013,-0.23581 -70.69731,-1.4983 -70.69731,-2.78882 0,-1.40684 61.6526,-1.29787 93.84599,0.16597 49.5191,2.2515 72.45472,1.93795 72.62339,-0.99286 0.19346,-3.3611 0.28984,-17.75723 0.13783,-20.55739 -0.16016,-2.94702 -0.72521,-3.44029 -3.94076,-3.44029 -2.06465,0 -3.75385,-0.56296 -3.75385,-1.25102 0,-0.68806 1.6892,-1.25102 3.75385,-1.25102 l 3.75381,0 0,-17.35778 c 0,-9.5468 0.35186,-19.11701 0.78205,-21.26719 0.72191,-3.6087 0.52136,-3.90942 -2.60685,-3.90942 -4.04695,0 -3.7497,-2.9229 0.35873,-3.52731 3.57813,-0.52639 3.77131,-5.22979 0.21472,-5.22979 -1.3764,0 -2.50253,-0.56295 -2.50253,-1.25098 0,-0.68807 1.12613,-1.25102 2.50253,-1.25102 2.42469,0 2.50257,-0.83403 2.50257,-26.80043 l 0,-26.800435 27.21536,0.513628 c 30.16633,0.569267 79.4037,1.832701 91.0306,2.335758 4.1292,0.178725 8.16414,-0.18085 8.96652,-0.798952 2.21382,-1.705354 3.1647,2.816019 2.89694,13.774904 -0.3267,13.374927 -0.23918,14.028667 1.77402,13.256237 0.96269,-0.36933 2.12206,-0.0702 2.57641,0.66477 0.4837,0.78246 -0.242,1.33631 -1.75035,1.33631 -2.28848,0 -3.21488,1.90621 -2.26358,4.65786 0.17186,0.49767 1.63007,0.73225 3.24,0.52132 2.26184,-0.29647 2.82778,0.13794 2.48978,1.90994 -0.24059,1.26141 -1.63892,2.46555 -3.10744,2.67584 -1.65243,0.23651 -2.88535,1.50836 -3.2349,3.33659 -0.48327,2.5275 -0.0957,2.924 2.68281,2.74513 4.10354,-0.26419 4.40221,3.03759 0.43229,4.7789 -3.34386,1.46673 -3.56489,2.94535 -0.74807,5.00465 1.89883,1.38811 1.86159,1.71705 -0.45684,4.03498 -2.2855,2.28501 -2.54625,4.31413 -2.75708,21.45755 l -0.23315,18.93388 3.19231,0 c 1.75574,0 3.19231,0.56295 3.19231,1.25102 0,0.68806 -1.40765,1.25102 -3.12818,1.25102 -2.294,0 -3.12821,0.66721 -3.12821,2.502 0,1.66802 0.83421,2.50204 2.50257,2.50204 1.37643,0 2.5026,0.56296 2.5026,1.25102 0,0.68803 -1.12617,1.25098 -2.5026,1.25098 -1.69228,0 -2.50257,0.83403 -2.50257,2.57587 0,1.41674 0.51226,2.25934 1.13836,1.87246 1.65668,-1.02368 5.23258,0.60937 4.37439,1.9977 -0.40114,0.64888 -1.94634,1.01211 -3.43385,0.80718 -2.44814,-0.33725 -2.74121,0.2734 -3.09129,6.44106 -0.2126,3.74756 -0.0489,8.15968 0.36415,9.80475 l 0.75086,2.99098 56.56911,-0.7027 c 31.11303,-0.38654 98.23673,-1.04109 149.16383,-1.45461 56.65522,-0.46001 94.18709,-1.24308 96.69728,-2.01753 4.07154,-1.25609 58.35111,-0.39933 60.54403,0.95566 2.21176,1.36666 0.89628,4.24127 -2.30893,5.04554 -1.84503,0.46299 -15.49963,0.333 -30.34357,-0.28903 -14.84394,-0.62189 -55.14279,-1.0329 -89.55294,-0.91335 -113.87094,0.39554 -283.91665,1.70886 -291.71338,2.25299 -4.22008,0.29469 -7.90345,0.30497 -8.18536,0.0248 z m 53.70938,-4.66318 c 0.86028,-0.69527 1.56412,-3.08837 1.56412,-5.31795 l 0,-4.05385 -61.31271,-0.20888 c -51.5571,-0.17589 -61.31275,0.067 -61.31275,1.52677 0,2.81378 10.57713,3.22333 66.66162,2.58126 48.63196,-0.55682 57.1365,-0.25781 53.66679,1.886 -0.72213,0.44618 -28.31893,0.7953 -61.32614,0.77579 -54.28464,-0.0319 -59.91236,0.15283 -58.95645,1.93881 0.93883,1.75383 7.66601,1.9833 60.25411,2.05525 38.13081,0.0521 59.75394,-0.36883 60.76141,-1.18307 z m 1.56412,-14.69894 c 0,-2.36193 -0.86279,-2.47923 -17.83073,-2.42466 -45.74551,0.14716 -60.99991,-0.17022 -60.99991,-1.26928 0,-1.00261 20.04243,-1.5378 70.38446,-1.87944 7.40232,-0.0503 8.44618,-0.34717 8.44618,-2.40175 0,-2.14484 -0.70437,-2.26899 -8.27443,-1.45847 -12.30038,1.31694 -113.09971,-0.66264 -113.09971,-2.22118 0,-0.85804 16.68933,-0.99006 51.1172,-0.40441 56.80435,0.9663 71.85249,0.36536 71.2349,-2.84471 -0.34548,-1.79635 -6.77934,-2.06976 -61.8946,-2.63023 l -61.50894,-0.62551 -0.42994,3.75302 c -0.23634,2.0642 -0.22713,6.70855 0.0213,10.32086 l 0.45081,6.5678 61.19192,0 c 60.19356,0 61.19203,-0.0404 61.19203,-2.48204 z m -119.60358,-3.601 c 0.78321,-1.26697 32.80432,-2.9008 36.70629,-1.87287 6.30535,1.66106 1.81817,2.34069 -17.2648,2.61491 -11.04322,0.15888 -19.79185,-0.17518 -19.44149,-0.74204 z M 499.07249,179.5513 c 0,-1.67057 -5.24838,-1.91558 -42.23072,-1.9715 -23.22684,-0.0355 -49.69141,-0.007 -58.81011,0.0603 -10.81329,0.0809 -16.57949,-0.33229 -16.57949,-1.18825 0,-0.89449 17.42729,-1.3362 54.74349,-1.38758 63.67557,-0.0876 63.13206,-0.0699 63.81422,-2.11175 0.41325,-1.23684 -12.31654,-1.56376 -60.89457,-1.56376 -33.7793,0 -61.83928,-0.0177 -62.35544,-0.039 -1.17676,-0.0489 -1.97436,5.92261 -1.09658,8.20958 0.53908,1.40449 11.45176,1.72149 62.03165,1.80195 54.21111,0.0862 61.37755,-0.12518 61.37755,-1.80997 z m 0,-13.33493 c 0,-2.3585 -0.83044,-2.45332 -19.08205,-2.1786 -23.44064,0.35284 -62.06932,-1.35102 -62.95054,-2.77658 -0.35645,-0.57661 17.95504,-0.69516 40.69226,-0.26348 l 41.34033,0.78498 -3.9e-4,-3.64142 -3.9e-4,-3.64143 -60.99952,0.19184 c -60.90455,0.19148 -61.00012,0.19612 -61.39938,2.81477 -0.39164,2.56924 0.004,2.62293 19.33229,2.62293 13.37123,0 19.32204,0.41005 18.45992,1.27194 -0.72805,0.72789 -9.13068,1.35265 -19.64509,1.46064 l -18.3729,0.18864 0,2.92804 0,2.92805 61.31275,-0.11243 c 60.14037,-0.11027 61.31271,-0.15959 61.31271,-2.57814 z m 0.80926,-19.61688 0.18354,-6.19002 -25.83492,-0.94176 c -14.20916,-0.51799 -42.02394,-1.28833 -61.81062,-1.71188 l -35.97576,-0.77006 0.001,2.64322 c 10e-4,2.57367 0.65169,2.66452 24.71425,3.45263 13.59198,0.44518 40.61962,0.90792 60.06143,1.02828 19.44173,0.12022 35.34863,0.67778 35.34863,1.23868 0,0.5609 -3.51925,1.07892 -7.8205,1.15119 -14.6919,0.24683 -61.59079,-0.18581 -86.37275,-0.79714 -21.29659,-0.52526 -24.84833,-0.34682 -25.47231,1.27871 -1.91561,4.99089 -1.79036,5.00189 61.63831,5.41235 l 61.15543,0.39583 0.18354,-6.19003 z m -2.37338,-10.15004 c 2.16762,-0.0688 2.81537,-0.8303 2.81537,-3.31021 l 0,-3.22106 -12.19996,0.33937 c -23.78441,0.66186 -109.19097,-0.41855 -109.79079,-1.38889 -1.23505,-1.99795 8.65053,-2.25693 60.06604,-1.57354 28.91204,0.38426 54.67273,0.30391 57.24606,-0.17908 3.34856,-0.62806 4.67865,-1.51847 4.67865,-3.13206 0,-2.10483 -2.47209,-2.30405 -37.22556,-2.99984 -42.4536,-0.85002 -81.64601,-3.24447 -81.64601,-4.9882 0,-0.72317 6.43805,-0.87101 16.57949,-0.38075 56.03035,2.70871 68.13035,3.11999 81.64598,2.77527 21.68606,-0.55313 20.88007,-0.42362 20.42032,-3.28092 -0.39051,-2.42704 -1.82299,-2.50417 -61.17884,-3.29432 l -60.77906,-0.80907 -0.2948,7.28647 c -0.16228,4.00761 -0.58486,7.7556 -0.93926,8.3289 -0.3544,0.57335 -0.28382,2.68368 0.15697,4.68968 l 0.80125,3.64727 27.75809,0.36058 c 15.26694,0.19825 35.64109,0.22872 45.27595,0.0677 9.63489,-0.16101 21.45947,0.19967 26.27688,0.80186 4.81744,0.60214 10.72974,0.92719 13.13848,0.72229 2.4087,-0.20498 5.6464,-0.41267 7.19482,-0.46171 z m 2.81537,-30.53828 0,-2.92687 -33.47171,-1.13892 c -34.97354,-1.19003 -84.45178,-1.65341 -88.21523,-0.82616 -1.34642,0.29612 -2.18977,1.64224 -2.18977,3.49568 l 0,3.01436 22.21023,0.37242 c 12.21562,0.20462 40.08788,0.49926 61.93839,0.65437 l 39.72809,0.28191 z m 0,-8.464715 c 0,-2.496969 -0.52249,-2.610766 -10.0102,-2.180013 -5.50566,0.250016 -10.01026,0.02835 -10.01026,-0.493026 0,-0.521143 1.97075,-0.947537 4.37949,-0.947537 2.4087,0 4.37946,-0.628523 4.37946,-1.396768 0,-0.985093 -2.48921,-1.114066 -8.44611,-0.43767 -4.64539,0.527496 -9.95762,0.868426 -11.80492,0.757641 -1.84734,-0.110622 -3.71038,0.367384 -4.14011,1.062613 -0.48961,0.792074 -6.00998,1.028179 -14.78484,0.632353 -15.57683,-0.702674 -51.37809,-1.745745 -62.4905,-1.820675 -4.29201,-0.02835 -7.19487,-0.594128 -7.19487,-1.400882 0,-1.503472 64.26819,-0.425931 76.01879,1.274531 4.84274,0.70083 6.93024,0.520543 7.93095,-0.684946 1.04662,-1.26084 0.58797,-1.829399 -1.99939,-2.478632 -2.14887,-0.539231 -2.81884,-1.175347 -1.86115,-1.767132 2.55132,-1.576453 -8.29584,-2.346042 -34.41749,-2.44186 -13.76405,-0.05035 -30.2215,-0.399653 -36.57207,-0.775938 l -11.54654,-0.684198 0.28488,7.270047 c 0.27142,6.924653 0.4336,7.257462 3.41317,7.004902 8.89267,-0.753775 74.3265,-0.147508 81.33321,0.75342 4.47332,0.57526 14.74944,1.122931 22.83583,1.217084 14.16898,0.164901 14.70253,0.07554 14.70253,-2.463314 z M 475.92382,95.0769 c -0.42534,-0.688064 0.13748,-1.251021 1.25125,-1.251021 1.11355,0 1.67662,0.562957 1.25132,1.251021 -0.42538,0.688064 -0.98844,1.251018 -1.25132,1.251018 -0.26292,0 -0.82595,-0.562954 -1.25125,-1.251018 z m 21.89739,-3.273367 c 0,-0.263835 -1.72244,-0.479693 -3.82769,-0.479693 -2.10522,0 -3.52637,0.487456 -3.15805,1.083249 0.62295,1.007787 6.98574,0.458026 6.98574,-0.603556 z M 36.621924,215.27827 c -1.440418,-1.43564 -0.163346,-2.49718 2.918027,-2.42559 1.892558,0.044 38.070191,0.0816 80.394729,0.0833 87.29676,0.003 83.93194,-0.0613 83.51884,1.61266 -0.29775,1.20641 -165.627743,1.92958 -166.831596,0.72973 z M 2.6271941,206.45563 c -3.9013946,-3.65586 -3.53436835,-5.62249 1.6163385,-8.66082 2.7963645,-1.64954 4.3396182,-2.04136 4.182127,-1.06183 -0.3418547,2.12635 1.4218282,5.9309 2.7494144,5.9309 1.389625,0 5.313206,-7.51331 4.400241,-8.4261 -0.378215,-0.37813 -1.495755,-0.0177 -2.483424,0.80254 -0.998898,0.82881 -2.105156,0.98952 -2.492999,0.3621 -0.38348,-0.62034 1.367258,-2.47729 3.890531,-4.12655 3.13173,-2.04692 4.939984,-4.38825 5.697561,-7.37714 1.424711,-5.62101 4.453511,-8.96562 7.696806,-8.4994 4.232971,0.60849 3.821698,4.63818 -0.977368,9.57637 -4.476498,4.60627 -11.197551,17.32928 -10.095841,19.11148 1.193166,1.93018 6.217639,-1.12379 9.149176,-5.56101 3.474487,-5.25908 5.554038,-5.05656 3.515739,0.34221 -2.017042,5.34264 -0.46842,5.82364 4.9764,1.54578 7.169255,-5.63274 9.950223,-6.11105 10.767973,-1.85202 0.641228,3.33964 -0.809277,6.60365 -2.934638,6.60365 -0.558227,0 -1.193124,-1.495 -1.410892,-3.32224 l -0.395932,-3.32219 -4.136085,3.49184 c -2.640886,2.22951 -6.03343,3.68624 -9.384598,4.02969 -9.307122,0.95382 -13.926546,1.55482 -17.7613118,2.3108 -2.7934738,0.55068 -4.4741111,0.0649 -6.5692181,-1.8982 z m 5.6313448,-2.85346 c -0.2864151,-0.86009 -1.4575316,-1.7454 -2.6024467,-1.96742 -1.4516401,-0.28155 -1.8531213,0.19183 -1.3265359,1.56375 0.8876452,2.31271 4.6950144,2.70386 3.9289826,0.40367 z M 28.551457,179.05426 c -0.03345,-1.71053 -0.333539,-1.64783 -1.87692,0.39228 -2.39117,3.16074 -2.365852,5.19724 0.03979,3.20117 1.032306,-0.85654 1.859011,-2.4736 1.837125,-3.59345 z m 55.988557,26.11287 c -1.59121,-2.27129 -2.315537,-2.3764 -7.891455,-1.1452 -13.5089,2.98286 -15.332545,2.93293 -16.879872,-0.46235 -1.846977,-4.05282 0.868798,-10.27827 4.483765,-10.27827 3.111973,0 3.868083,3.46039 1.314053,6.01385 -2.321454,2.32097 -2.597496,6.33868 -0.375318,5.4627 0.860255,-0.33902 5.364861,-1.63663 10.01024,-2.88336 8.395695,-2.25323 8.446262,-2.29316 8.466721,-6.68099 0.01134,-2.42782 1.296156,-6.66603 2.85519,-9.41829 2.453573,-4.33136 3.417945,-5.00404 7.174275,-5.00404 3.942975,0 4.374386,0.35657 4.719455,3.90072 0.314433,3.2294 -0.597228,4.84411 -5.297272,9.38258 -7.819672,7.55084 -7.559518,12.26409 0.578303,10.4771 2.485488,-0.54579 4.967851,-2.61406 7.427801,-6.18871 3.37057,-4.89791 4.14007,-5.35724 8.77094,-5.23586 3.73002,0.0979 4.90311,0.58406 4.42349,1.83366 -2.01403,5.24734 -2.13113,7.73594 -0.33155,7.04551 1.01211,-0.38828 2.5443,-2.02133 3.40488,-3.62899 0.86057,-1.60765 3.02024,-3.58606 4.79926,-4.39644 2.82964,-1.28899 3.49657,-1.12622 5.32714,1.3001 1.98687,2.63346 2.24142,2.66932 5.03968,0.70977 4.11108,-2.87889 5.7421,-2.58456 6.6942,1.20811 0.72886,2.90336 1.26585,3.18301 4.76779,2.48275 2.17053,-0.43402 5.21767,-1.98313 6.77141,-3.44249 1.87655,-1.76252 4.45482,-2.65335 7.67953,-2.65335 4.79741,0 4.88077,-0.0826 7.08272,-7.02274 1.22549,-3.86249 2.42448,-7.72641 2.66442,-8.58649 0.57917,-2.07618 5.51989,-2.02019 5.51989,0.0624 0,0.89448 -0.46188,2.16114 -1.02642,2.81477 -2.16806,2.51034 -7.91949,18.01361 -7.14656,19.264 0.44714,0.72331 1.90592,1.31517 3.24171,1.31517 3.4193,0 3.02026,2.28618 -0.69441,3.97834 -2.52741,1.15131 -3.5472,1.03896 -5.34652,-0.58905 -1.52162,-1.37677 -2.80679,-1.64287 -4.07174,-0.84314 -3.09501,1.95674 -6.78842,1.34886 -8.50538,-1.39985 -1.09877,-1.75901 -2.31563,-2.32236 -3.74201,-1.73231 -1.16256,0.4809 -3.97734,1.32074 -6.25507,1.86628 -3.68064,0.88158 -4.27091,0.65119 -5.30611,-2.07104 -0.98227,-2.58299 -1.55432,-2.85456 -3.6505,-1.73294 -1.36714,0.7315 -3.0815,2.44303 -3.8097,3.80338 -2.04895,3.82771 -4.16481,3.04077 -3.31024,-1.2312 1.07922,-5.39494 -0.93951,-5.70051 -6.32115,-0.95686 -5.93611,5.23241 -14.46754,8.22595 -17.13521,6.01247 -1.344169,-1.11535 -2.508794,-1.16549 -4.337792,-0.18688 -4.07621,2.18104 -9.838286,1.61231 -11.782598,-1.163 z m 23.903436,-5.3287 c 0.28556,-2.47367 -0.16164,-3.42957 -1.60442,-3.42957 -2.04396,0 -4.60836,4.8174 -3.53305,6.63705 1.30986,2.21658 4.75996,0.0624 5.13747,-3.20748 z m 52.16477,-0.93523 c 2.77941,-3.07056 2.27882,-3.72313 -2.19668,-2.86357 -2.30186,0.4421 -3.44102,1.44091 -3.44102,3.01708 0,3.08152 2.77786,3.00588 5.6377,-0.15353 z M 95.050792,187.85952 c 1.32959,-3.44316 0.47712,-5.37071 -1.961476,-4.43513 -1.689477,0.64817 -5.687908,9.06754 -5.687908,11.97682 0,2.11664 6.329566,-4.12381 7.649384,-7.54169 z m -45.518662,17.8096 c -0.411385,-0.41128 -0.423184,-1.594 -0.02622,-2.62828 0.396967,-1.03428 -0.05942,-2.36317 -1.014215,-2.95311 -1.312197,-0.81083 -1.383325,-1.42524 -0.291367,-2.51697 1.881791,-1.88139 4.165229,-0.42043 4.165229,2.66495 0,1.33549 0.632019,2.42817 1.404492,2.42817 0.970377,0 0.923018,0.58005 -0.153212,1.87653 -1.661266,2.00129 -2.876181,2.33697 -4.084718,1.12871 z m 166.7511,-0.38036 c 0,-0.62047 1.83,-2.29987 4.06666,-3.73196 2.25409,-1.44326 3.23009,-2.64027 2.18974,-2.68562 -1.03231,-0.045 -9.90075,-0.0284 -19.70766,0.0365 -15.99158,0.10602 -17.83074,-0.10106 -17.83074,-2.0077 0,-1.94302 1.80341,-2.06749 20.95894,-1.44652 11.52742,0.37369 20.11433,0.38692 19.08202,0.0284 -7.63371,-2.64357 -10.34769,-4.24105 -9.18317,-5.4053 0.85935,-0.85916 4.0785,-0.14183 9.95318,2.21796 4.77568,1.91834 8.94916,3.87338 9.27445,4.34453 0.548,0.79377 -15.76728,9.70123 -17.86496,9.75354 -0.51615,0.0142 -0.93846,-0.48427 -0.93846,-1.10474 z m 287.79436,-0.1227 c -1.42427,-0.92023 -0.89617,-1.21733 2.18977,-1.23187 2.23667,-0.0106 4.06665,0.54381 4.06665,1.23187 0,1.58904 -3.79701,1.58904 -6.25642,0 z m 310.70002,-6.78887 c -3.22951,-2.79258 -3.32295,-3.10876 -1.16618,-3.94629 1.58283,-0.61466 2.72109,-0.23793 3.50324,1.15932 1.81038,3.23439 4.12568,2.48044 9.02189,-2.93787 5.43016,-6.00924 5.58376,-6.99079 1.08408,-6.92628 -4.47049,0.0642 -5.17443,-3.83484 -1.52894,-8.46834 3.20219,-4.07005 6.55136,-4.28789 10.17804,-0.662 l 2.70557,2.70499 -3.01837,5.69749 c -3.9522,7.4602 -8.11601,12.3219 -12.48987,14.58323 -4.49589,2.3244 -4.15081,2.37451 -8.28946,-1.20425 z m 15.63381,-15.97956 c 1.77885,-1.77848 1.99141,-4.75383 0.3398,-4.75383 -1.86445,0 -5.18453,3.84629 -4.40649,5.1049 0.96339,1.55847 2.26974,1.4457 4.0669,-0.35107 z m -463.1064,15.71338 c -1.33236,-1.33208 0.33732,-2.89201 2.29287,-2.14182 1.00634,0.38607 1.51813,1.20592 1.13737,1.82189 -0.81106,1.31208 -2.29908,1.45084 -3.43024,0.31985 z M 34.847651,183.89887 c 0,-1.39003 0.834184,-2.50204 1.876916,-2.50204 1.042738,0 1.876921,1.11201 1.876921,2.50204 0,1.39 -0.834183,2.50201 -1.876921,2.50201 -1.042732,0 -1.876916,-1.11201 -1.876916,-2.50201 z m 780.389279,-3.89618 c 0.73183,-3.65816 0.59619,-3.83902 -2.22098,-2.96219 -1.65023,0.51363 -3.18813,1.42244 -3.41749,2.01954 -0.2296,0.59711 -1.2775,1.08563 -2.32905,1.08563 -1.50732,0 -1.73803,-0.92651 -1.09028,-4.37853 0.90422,-4.81883 0.33591,-5.14976 -4.29693,-2.50201 -4.38973,2.50885 -5.16136,2.30892 -4.30193,-1.11456 0.41301,-1.64507 0.13996,-3.36848 -0.60654,-3.8298 -1.4665,-0.90612 4.86198,-6.94025 7.27887,-6.94025 1.87066,0 1.74834,0.78228 -0.7088,4.53148 l -2.09218,3.19244 6.02415,-0.90317 6.02426,-0.90318 -0.657,3.43614 c -0.6301,3.29521 -0.48341,3.40798 3.57566,2.74942 3.41259,-0.55367 4.22901,-0.27765 4.21356,1.4239 -0.0106,1.16084 -0.54138,2.93616 -1.17971,3.94518 -0.7357,1.16297 -0.67259,2.42236 0.1722,3.44025 1.02675,1.23688 0.58632,1.60575 -1.91721,1.60575 -2.97042,0 -3.18306,-0.33513 -2.47078,-3.89604 z m -31.25927,-5.79931 c -2.48191,-1.89217 -7.89842,-5.97357 -12.03672,-9.06984 -4.1383,-3.09623 -7.54058,-6.05176 -7.56064,-6.5678 -0.0709,-1.82461 3.42333,-0.9008 7.78422,2.05795 l 4.4161,2.9962 6.42022,-9.19339 c 3.53112,-5.05635 6.97167,-9.53414 7.64564,-9.9506 2.12482,-1.3129 1.33799,-2.81212 -1.90268,-3.62529 -2.97535,-0.74661 -4.44441,-4.8534 -2.18977,-6.12152 1.47483,-0.82955 32.06094,14.57227 32.61866,16.42528 0.34335,1.14106 -1.08932,0.84832 -4.59198,-0.93824 -2.80014,-1.42822 -5.98061,-2.59676 -7.06777,-2.59676 -1.08712,0 -4.32549,-1.19804 -7.19631,-2.66232 l -5.21972,-2.66233 -3.48941,4.17885 c -3.99125,4.77985 -4.47396,6.82599 -1.29965,5.50916 6.10579,-2.53293 11.77749,-3.40965 13.1541,-2.03335 1.06359,1.06336 0.80663,1.42479 -1.01668,1.43004 -1.34196,0.004 -4.45766,0.56731 -6.92373,1.25222 -4.33878,1.20499 -4.48391,1.43737 -4.48891,7.18636 -0.004,3.95714 0.65817,6.44996 1.98121,7.46502 1.70252,1.30623 1.47196,1.52968 -1.61391,1.56379 -3.5702,0.0394 -3.59522,-0.0142 -2.99902,-6.21527 0.6761,-7.03526 -0.74512,-8.03645 -4.88367,-3.44029 -4.81319,5.34543 -4.71653,5.86452 2.27867,12.23537 7.27565,6.62621 5.92887,8.68302 -1.81825,2.77676 z m 25.85175,-14.73319 c -0.46126,-1.20176 -0.0595,-2.56619 0.9422,-3.19964 2.4795,-1.56798 4.24903,-0.70612 4.24903,2.06955 0,3.02187 -4.12083,3.91895 -5.19123,1.13009 z m -60.09728,-0.21171 c -1.49847,-0.29151 -3.3974,-1.34088 -4.21983,-2.33164 -0.82248,-0.9908 -2.74033,-1.80142 -4.26182,-1.80142 -4.01237,0 -4.56492,-1.12372 -2.50799,-5.10054 2.8328,-5.47689 2.20234,-5.76208 -2.55249,-1.15453 -6.08971,5.90109 -5.46846,2.96251 1.87696,-8.8781 3.44101,-5.54689 6.25638,-10.60363 6.25638,-11.23719 0,-1.2858 -4.16526,-1.32978 -8.42113,-0.089 -1.69983,0.49561 -5.2256,4.72482 -9.02165,10.82165 -7.07329,11.36035 -8.44299,13.13564 -10.13471,13.13564 -2.2051,0 -1.24891,-2.29487 5.05428,-12.1304 3.44091,-5.3693 6.25631,-10.15511 6.25642,-10.6352 7e-5,-0.48008 -2.82263,-1.04303 -6.27265,-1.25101 -11.89895,-0.71729 -5.56905,-2.44403 11.12198,-3.03404 19.02498,-0.67247 18.24637,-1.40443 10.83235,10.18305 -5.03737,7.87294 -5.18556,8.32568 -2.37178,7.24619 1.69622,-0.65076 1.9479,-0.10247 1.46448,3.19053 -0.81531,5.5538 1.79961,7.43225 4.5353,3.25794 3.41333,-5.20837 10.72119,-6.69915 10.72119,-2.18714 0,1.38198 -0.83182,1.66954 -3.14819,1.08829 -2.59207,-0.65041 -3.36575,-0.2181 -4.37949,2.44785 -1.77024,4.65499 -1.59137,5.21536 1.94811,6.10353 1.74862,0.43881 2.84155,1.34425 2.42869,2.01214 -0.41287,0.66788 -1.13974,1.13768 -1.61529,1.04396 -0.47555,-0.0936 -2.09062,-0.40898 -3.58912,-0.70062 z m -380.16708,-5.38405 c -0.42538,-0.68806 -0.17681,-1.25101 0.55176,-1.25101 0.72882,0 1.32513,0.56295 1.32513,1.25101 0,0.68807 -0.24839,1.25102 -0.55177,1.25102 -0.3033,0 -0.89982,-0.56295 -1.32512,-1.25102 z M 237.18662,130.78117 c -5.30302,-5.13266 -9.64187,-9.99943 -9.64187,-10.81502 0,-1.0719 2.42769,-1.27946 8.75896,-0.74877 4.81743,0.4038 8.75896,0.54693 8.75896,0.31808 0,-0.22872 -1.11379,-2.87013 -2.47508,-5.86952 -2.6937,-5.93509 -3.27606,-11.08297 -1.25381,-11.08297 2.40456,0 20.37585,18.24997 19.76765,20.07419 -0.41116,1.23322 -2.99508,-0.51008 -8.41034,-5.67424 -7.27821,-6.94075 -7.75267,-7.19887 -6.88592,-3.74621 0.51198,2.03948 1.68053,4.45761 2.59675,5.37366 0.91623,0.91601 1.66587,2.54243 1.66587,3.61423 0,1.6417 -1.18043,1.81525 -7.49155,1.10137 -9.14301,-1.03421 -9.04812,0.0557 0.68416,7.85836 6.50389,5.21429 8.66212,8.92902 5.18774,8.92902 -0.8908,0 -5.95848,-4.19949 -11.26152,-9.33215 z m 423.05908,-1.67326 c -1.05485,-1.45056 -3.18902,-2.22735 -6.01448,-2.18927 -3.50926,0.0472 -4.45359,-0.45937 -4.75239,-2.54973 -0.26363,-1.84373 -1.73137,-2.94439 -5.0051,-3.75306 -3.92542,-0.96963 -4.64067,-1.67138 -4.68748,-4.59907 -0.0751,-4.71382 -4.909,-8.19677 -8.37358,-6.03361 -3.59461,2.24442 -4.12827,0.72647 -1.09846,-3.1245 4.23567,-5.38359 3.47829,-7.496572 -1.56912,-4.37775 -5.02915,3.10751 -8.10219,3.32004 -9.13404,0.63172 -0.41634,-1.08481 -2.12694,-2.49311 -3.80133,-3.129535 -4.28602,-1.629185 -3.33411,-5.648386 2.44169,-10.309585 4.2806,-3.45454 4.9584,-3.637063 7.82047,-2.105646 3.39569,1.816916 4.0562,4.292646 1.56962,5.883105 -1.84617,1.180804 -4.6923,6.012645 -4.6923,7.966021 0,0.75352 1.96172,0.15782 4.3594,-1.32368 5.76641,-3.563055 10.13815,-3.006447 9.72847,1.23864 -0.16583,1.72014 0.52891,4.20803 1.54424,5.5287 1.67383,2.17721 2.05204,2.22161 4.05564,0.47597 1.21528,-1.05885 2.91348,-1.67021 3.77369,-1.35865 2.43974,0.88367 1.83745,5.12777 -0.93841,6.61309 -1.3764,0.73647 -2.50253,2.12572 -2.50253,3.08723 0,3.12542 4.83924,3.51277 9.5045,0.76083 3.36111,-1.98271 4.98196,-2.29853 6.80113,-1.32517 2.05019,1.09697 2.75152,0.56607 4.95389,-3.75005 2.37618,-4.65666 5.27453,-6.39709 6.73062,-4.04161 0.3352,0.54246 -1.38582,3.96293 -3.82475,7.60102 -3.83099,5.71462 -4.32755,7.2827 -3.64925,11.52379 0.84224,5.26607 -0.52749,6.39088 -3.24014,2.6608 z m -2.79507,-4.96415 c 0.73842,-0.50551 1.7061,-1.90429 2.15047,-3.10836 1.02104,-2.76669 -3.09692,-3.05095 -5.32442,-0.36757 -2.3968,2.8873 0.0769,5.59623 3.17395,3.47593 z M 622.27962,94.34284 c 1.16646,-1.779824 1.81184,-3.544969 1.43423,-3.922494 -1.13383,-1.133536 -7.02107,3.319717 -7.02107,5.310893 0,2.951979 3.27586,2.137883 5.58684,-1.388399 z m -345.93496,25.42693 c 0,-1.67085 -1.14245,-4.07158 -2.53877,-5.33497 -2.47175,-2.23644 -2.58924,-2.22502 -4.45044,0.4316 -2.44504,3.49004 -3.24327,3.43288 -8.00564,-0.57356 -2.70955,-2.27944 -3.52356,-3.70394 -2.62814,-4.59918 0.89545,-0.89523 2.06706,-0.6004 3.78275,0.95194 2.67018,2.41597 6.33257,1.86717 6.33257,-0.94892 0,-0.94704 -1.12615,-2.74084 -2.50257,-3.98619 -2.84058,-2.57016 -3.24991,-4.43155 -0.93845,-4.26764 2.90023,0.20569 14.885,14.86057 14.46724,17.69048 -0.56444,3.82367 -3.51855,4.35801 -3.51855,0.63644 z M 579.15439,94.620079 c 0,-0.939274 1.26691,-3.313616 2.8154,-5.276317 1.54843,-1.962666 7.21591,-9.779216 12.59437,-17.370124 5.37845,-7.590873 10.30535,-13.989232 10.94871,-14.218602 2.16492,-0.77183 1.19406,2.13196 -2.58417,7.729032 -4.41999,6.547797 -4.60747,7.514096 -1.25128,6.449109 1.85045,-0.587175 2.5026,-0.224823 2.5026,1.390631 0,3.706037 -2.87678,10.369867 -4.79427,11.105486 -2.67991,1.028179 -3.45544,-0.387382 -1.72761,-3.153472 1.81722,-2.909176 1.98464,-6.215131 0.315,-6.215131 -1.43805,0 -1.92451,0.571925 -10.3617,12.181925 -6.5274,8.982004 -8.45688,10.66523 -8.45688,7.377463 z M 282.8723,92.913201 c -0.88313,-0.315957 -4.44827,-4.786168 -7.92255,-9.933725 -4.85824,-7.198062 -6.79892,-9.16009 -8.40455,-8.49706 -4.43841,1.832911 -6.46718,2.068059 -6.46718,0.749626 0,-1.284495 9.8707,-7.070719 10.57809,-6.200915 0.1789,0.219862 2.95179,4.422508 6.16192,9.338889 3.21013,4.916381 6.6625,9.624178 7.67193,10.461749 2.9362,2.436293 3.96271,-2.206892 1.45405,-6.577055 -2.69458,-4.694038 -2.6343,-6.166906 0.4109,-10.037413 1.3764,-1.749437 2.49747,-3.936433 2.49128,-4.86 -0.006,-0.923531 1.77169,-3.14443 3.95088,-4.935281 l 3.96216,-3.2561 2.93116,5.511575 c 3.71705,6.989332 3.83006,12.31622 0.30129,14.204345 -2.22521,1.190665 -3.19051,0.870126 -6.27378,-2.083202 -3.30348,-3.164251 -3.82655,-3.307766 -5.59861,-1.536059 -1.77207,1.771667 -1.71728,2.397072 0.58624,6.694044 1.86405,3.477167 2.21509,5.348519 1.31776,7.024865 -1.49402,2.790981 -4.98106,4.708222 -7.15099,3.931717 z m 17.24668,-20.150008 c 0,-2.964458 -3.50959,-7.71059 -5.7017,-7.71059 -2.69188,0 -2.20921,5.350542 0.77117,8.548944 2.77844,2.981657 4.93053,2.615729 4.93053,-0.838354 z m 306.76384,19.511518 c -2.04506,-2.044655 -1.82048,-4.080547 1.07646,-9.757761 1.89364,-3.711107 3.28801,-4.95422 5.55693,-4.95422 1.66588,0 3.39218,0.587707 3.83623,1.306021 1.27315,2.059582 -2.94481,7.451046 -5.82927,7.451046 -2.14101,0 -2.47188,0.547601 -1.84348,3.05088 0.87389,3.481069 -0.64367,5.056774 -2.79687,2.904034 z m 6.08123,-9.112677 c 0.87052,-1.048709 1.23463,-2.254837 0.80908,-2.680271 -0.90875,-0.908599 -4.58801,1.889472 -4.58801,3.48919 0,1.723228 2.03938,1.286657 3.77893,-0.808919 z m -44.64729,-6.150345 c 1.09247,-2.846267 17.35508,-23.218193 18.53475,-23.218193 1.56884,0 1.28899,3.02556 -0.43969,4.75386 -1.16787,1.167616 -0.85503,1.501204 1.40769,1.501204 2.59097,0 2.82366,0.42767 2.12719,3.909409 -0.43016,2.150189 -0.78208,4.683469 -0.78208,5.629553 0,0.946084 -1.12617,1.720145 -2.50253,1.720145 -2.78876,0 -3.13934,-1.476982 -1.20728,-5.08628 2.14399,-4.005191 -2.8845,-3.04173 -5.32612,1.020484 -4.59262,7.640766 -13.9725,15.399017 -11.81193,9.769818 z M 330.637,68.652468 c 0.53332,-3.564723 0.13372,-7.781903 -1.14468,-12.081002 l -1.96402,-6.60465 -3.69441,3.69363 c -2.03195,2.03149 -3.69443,4.32165 -3.69443,5.08922 0,2.651725 -9.67175,11.555036 -12.06999,11.110985 -1.27585,-0.236162 -3.34499,-2.52697 -4.59807,-5.09057 -2.19323,-4.486943 -2.19452,-4.802942 -0.0344,-8.459185 2.20148,-3.72601 2.18607,-3.90431 -0.81084,-9.38925 -2.13777,-3.91253 -2.65965,-5.98637 -1.73829,-6.90752 0.92136,-0.92116 2.57861,1.23141 5.51994,7.16976 5.09349,10.28338 7.16022,12.906946 9.4696,12.020967 2.11171,-0.810157 2.26159,-4.848577 0.3802,-10.244367 -0.75852,-2.17547 -0.99221,-4.93351 -0.51929,-6.129 0.70496,-1.78209 1.23512,-1.4013 2.94324,2.11405 3.09957,6.37893 5.7648,6.68933 4.89637,0.57023 -0.37918,-2.67183 -1.0867,-5.84307 -1.57225,-7.04717 -0.58932,-1.46145 -0.30168,-2.18927 0.86518,-2.18927 0.983,0 3.59524,4.24307 5.96896,9.69535 3.37404,7.74999 4.24275,11.42805 4.32946,18.330856 0.0792,6.304744 -0.35846,8.795788 -1.6216,9.229415 -1.37663,0.472564 -1.56271,-0.525044 -0.9108,-4.882479 z m -19.2565,-4.166507 c 0,-2.924639 -2.77197,-8.171635 -3.93681,-7.451865 -0.58757,0.36306 -1.06831,2.597222 -1.06831,4.964825 0,3.470676 0.48486,4.304703 2.50256,4.304703 1.37641,0 2.50256,-0.817962 2.50256,-1.817663 z m 260.26619,-2.560872 c 0,-1.032077 -0.80437,-1.876529 -1.7875,-1.876529 -5.46147,0 -6.4946,-7.196644 -1.53198,-10.671864 3.4824,-2.43863 5.80539,-2.28157 9.57589,0.6474 l 3.12821,2.43001 -3.33606,3.12507 c -2.25496,2.11228 -3.12006,3.951041 -2.66945,5.673737 0.46771,1.788052 0.0627,2.548672 -1.35624,2.548672 -1.11256,0 -2.02287,-0.844416 -2.02287,-1.876496 z m 1.33355,-6.924583 c 1.33115,-0.71228 2.42033,-1.83819 2.42033,-2.50204 0,-1.70712 -4.21069,-1.50084 -6.00615,0.29434 -3.2226,3.22188 -0.93813,4.62843 3.58582,2.20782 z m -221.55066,4.43233 c -0.85909,-1.03491 -1.69017,-6.50007 -1.90047,-12.49746 -0.30773,-8.77562 -0.94349,-11.63029 -3.59919,-16.16092 -2.66478,-4.54616 -2.90363,-5.62611 -1.37402,-6.21293 3.70949,-1.42319 10.61942,17.29037 10.61942,28.75969 0,7.021428 -1.27019,9.093848 -3.74574,6.11162 z m 0.56065,-11.21201 c -0.47865,-3.1911 -1.12621,-5.54611 -1.43903,-5.23338 -0.3128,0.31277 -0.17713,3.17954 0.3015,6.37064 0.47865,3.19109 1.1262,5.54611 1.43903,5.23337 0.3128,-0.31277 0.17713,-3.17954 -0.3015,-6.37063 z m 199.94879,2.2693 c -2.92478,-1.76315 -5.3179,-3.93944 -5.3179,-4.8362 0,-1.18002 -1.38263,-1.44503 -5.0051,-0.95924 -4.06863,0.54558 -5.00509,0.28938 -5.00509,-1.37007 0,-2.13483 -0.39324,-2.26653 -7.50774,-2.51424 -6.4975,-0.22624 -6.68792,-4.57903 -0.47849,-10.93679 4.84937,-4.96511 7.66414,-5.92594 10.13198,-3.45858 1.37987,1.37953 4.34002,-2.45552 9.04273,-11.71561 1.90779,-3.75661 3.54306,-4.38428 4.55478,-1.7483 0.58915,1.53503 -2.05444,6.6194 -10.32679,19.86113 -3.05879,4.89632 -3.84332,9.72216 -1.58042,9.72216 2.64118,0 6.34975,-2.73027 8.49171,-6.25165 1.50378,-2.47226 2.70688,-3.26667 3.86419,-2.55155 1.34784,0.83282 1.14995,1.78344 -0.99935,4.8012 -3.71541,5.21671 -3.3772,7.27279 1.38681,8.43082 6.30769,1.53333 6.4366,1.47082 6.50488,-3.15478 0.0733,-4.98039 2.88691,-6.40492 6.16882,-3.12368 2.78752,2.7869 2.54626,4.68446 -0.47374,3.72617 -2.04626,-0.64934 -2.50256,-0.22482 -2.50256,2.32835 0,2.91588 -2.86654,7.11551 -4.7817,7.00544 -0.46697,-0.0284 -3.24212,-1.49142 -6.16702,-3.25458 z m -15.38525,-15.04787 c 1.44493,-1.83653 2.42426,-3.94761 2.1763,-4.69131 -0.8264,-2.47871 -4.94653,-1.39343 -7.45317,1.96323 -4.44788,5.95616 0.65966,8.59668 5.27687,2.72808 z m -104.43621,12.07763 c -0.47657,-0.7709 -0.46871,-6.42631 0.0177,-12.56754 l 0.88391,-11.16588 -4.38753,1.83284 c -3.66626,1.53153 -4.61715,1.55621 -5.78449,0.15001 -0.76833,-0.92559 -1.04552,-2.59868 -0.61586,-3.71799 0.52161,-1.35914 0.11303,-2.03508 -1.22971,-2.03508 -2.94937,0 -2.47191,-1.84284 1.64495,-6.34932 3.85756,-4.2225402 7.63909,-4.3513702 7.56595,-0.25781 -0.0489,2.73637 -2.8553,6.60706 -4.79044,6.60706 -1.88958,0 -1.81559,1.87277 0.13783,3.49252 2.7798,2.3048 8.33935,-3.84051 9.63259,-10.64743 C 436.98899,3.4051758 438.65441,5.8847986e-6 441.48268,5.8847986e-6 c 3.23858,0 3.22221,1.8135399152014 -0.0457,5.0809599152014 -1.43727,1.43698 -2.4069,3.79128 -2.18973,5.3168102 0.30969,2.17629 1.15969,2.6974 4.14362,2.54066 22.93433,-1.20481 22.06544,-1.28613 24.76335,2.31696 l 2.52404,3.37082 1.99726,-3.92182 c 4.40564,-8.6506502 8.33467,-3.94611 4.0567,4.85737 -2.30163,4.73642 -2.41856,5.6392 -0.81046,6.25616 2.12148,0.81396 2.58211,4.20634 0.57107,4.20634 -1.82952,0 -6.41275,-5.01688 -9.00319,-9.85518 -2.66428,-4.97606 -4.21363,-4.25516 -5.35362,2.49094 -0.72432,4.2863 -1.14041,4.85255 -2.52315,3.43373 -1.19732,-1.22861 -1.38026,-3.17117 -0.66079,-7.01583 1.36747,-7.30742 -1.6424,-7.23597 -3.48566,0.0826 -1.64193,6.51925 -5.71737,10.84037 -8.03686,8.52139 -0.84302,-0.84286 -1.43578,-4.03842 -1.31726,-7.10122 0.19843,-5.1333 -0.0248,-5.5687 -2.84804,-5.5687 -4.20952,0 -5.53631,4.03448 -6.54948,19.91553 -0.78318,12.27555 -2.2719,16.35348 -4.59695,12.59223 z m 20.12588,-26.8071 c 0.85386,-3.40121 -0.26398,-6.12981 -2.05735,-5.0217 -1.55491,0.9608 -1.49978,8.07815 0.0624,8.07815 0.67507,0 1.5727,-1.37542 1.99471,-3.05645 z m 24.06433,-6.35925 c -0.38526,-0.38518 -1.08489,0.30923 -1.55476,1.54291 -0.67911,1.78294 -0.53536,1.92663 0.70044,0.7003 0.85514,-0.8486 1.23959,-1.85806 0.85432,-2.24321 z m -48.55826,-0.74009 c 0,-0.68802 -0.56306,-0.90306 -1.25124,-0.47784 -0.68822,0.42525 -1.25132,1.33613 -1.25132,2.02419 0,0.68806 0.5631,0.9031 1.25132,0.47785 0.68818,-0.42526 1.25124,-1.33613 1.25124,-2.0242 z m -70.91659,19.22559 c -2.30989,-5.50469 -2.79824,-10.78977 -1.04624,-11.3224 0.68035,-0.20674 1.81049,2.32643 2.51139,5.62955 0.8324,3.92275 1.92228,6.00563 3.14246,6.00563 1.4805,0 1.82296,-1.62217 1.65065,-7.81882 -0.26115,-9.39155 1.6678,-10.38388 2.85101,-1.46663 0.68609,5.17093 1.40616,6.56635 3.8722,7.50371 3.64766,1.38655 2.51227,4.11902 -1.40074,3.37117 -1.50424,-0.2876 -3.4312,0.22234 -4.28216,1.13318 -2.69082,2.87992 -5.26581,1.80901 -7.29857,-3.03539 z m 144.30167,3.83395 c -1.3888,-1.3885 -9.95875,-4.10743 -13.01081,-4.12785 -1.66,-0.0106 -2.81537,-0.78892 -2.81537,-1.89536 0,-2.17048 2.24692,-2.38739 6.80056,-0.65647 2.92167,1.11059 3.20967,0.9358 3.20967,-1.94806 0,-4.21973 2.55448,-14.51453 4.08763,-16.4734 1.7364,-2.2185602 -1.16018,-5.3167802 -4.97073,-5.3167802 -1.92171,0 -2.87316,-0.58789 -2.53094,-1.56379 0.31606,-0.90098 2.08367,-1.3962 4.17089,-1.16847 4.12959,0.45065 14.25852,5.98378 14.25852,7.7890302 0,1.71164 -1.53843,1.48351 -4.63929,-0.68795 -3.21559,-2.2518202 -2.77069,-3.3941502 -7.21722,18.53078 -0.30047,1.48163 0.58351,2.65382 2.57106,3.40933 1.66599,0.63328 3.02903,2.00976 3.02903,3.05886 0,1.99292 -1.47398,2.51885 -2.943,1.05013 z m -126.29848,-6.17428 c -1.82697,-1.82656 -0.80193,-4.22747 1.80488,-4.22747 2.48563,0 2.54222,-0.17128 0.72312,-2.18926 -1.08535,-1.20411 -2.34443,-3.676 -2.79786,-5.49306 -0.96715,-3.87523 0.83544,-5.43962 5.82937,-5.05919 1.86704,0.1422 3.74638,-0.31065 4.17632,-1.00602 0.42998,-0.69554 1.90021,-1.2646 3.26718,-1.2646 2.16276,0 2.37873,-0.56838 1.6638,-4.3785302 -0.66278,-3.53231 -0.43193,-4.37857 1.19459,-4.37857 1.47001,0 2.01617,1.18613 2.01617,4.37857 0,3.5445102 0.47668,4.3785302 2.50257,4.3785302 1.45563,0 2.50257,0.83399 2.50257,1.99363 0,1.09651 -1.12617,2.28806 -2.50257,2.64793 -1.85063,0.48384 -2.50257,1.70642 -2.50257,4.69304 0,2.44998 0.98448,4.92947 2.50257,6.30304 3.16864,2.86694 3.18384,4.37854 0.0439,4.37854 -3.11769,0 -5.04918,-3.57313 -5.04918,-9.34066 0,-3.52175 -0.61253,-4.73025 -2.81537,-5.55431 -1.72102,-0.64381 -3.13108,-0.55728 -3.62757,0.2227 -0.44667,0.70168 -1.71358,0.92995 -2.81537,0.50728 -2.54533,-0.97654 -2.55706,0.89786 -0.0283,4.75415 2.85622,4.35821 1.89847,8.69869 -2.02025,9.15558 -1.74629,0.20355 -3.57626,-0.0319 -4.06666,-0.52125 z m 36.21986,-4.78631 c -0.38208,-0.99541 -0.22429,-4.78343 0.35008,-8.4178 1.05884,-6.69664 0.94553,-9.4039302 -0.60602,-14.4798202 -0.52395,-1.71411 -0.3313,-2.8147699152015 0.49284,-2.8147699152015 2.80226,0 4.19475,5.4506099152015 3.73217,14.6089601152015 -0.46414,9.18981 -0.43824,9.28059 2.43939,8.55848 2.60458,-0.65356 2.76629,-0.46416 1.54764,1.81249 -1.57507,2.94244 -6.91908,3.43443 -7.95617,0.73246 z"/>
</svg>
