<?xml version="1.0" encoding="utf-8"?>
<svg xmlns="http://www.w3.org/2000/svg" height="136.9794mm" viewBox="0 0 266.97769 136.9794" width="266.97769mm">
	<title>The baseless fabric of this vision melted into air, into thin air. Such stuff as dreams are made of. The end of Flatland.</title>
	<path d="m166.07957 187.88753c-.38806-.22459-1.12008-.79255-1.62672-1.26214-.87243-.80864-1.22531-.86511-6.67112-1.06766-6.38685-.23754-7.048-.48087-7.048-2.59399 0-.93937-.0979-1.05104-.74219-.84654-1.05545.33499-4.65844.8013-5.07864.65729-.19403-.0665-1.5434-.20364-2.99861-.30478-1.45521-.10113-3.83646-.346-5.29167-.54415s-4.15396-.44659-5.99722-.55207c-1.84326-.10549-4.14514-.35358-5.11528-.55131s-2.87514-.49089-4.23333-.65146c-1.3582-.16058-3.42195-.69998-4.58611-1.19865-1.16417-.49869-2.44465-.91047-2.84551-.91507-.69053-.008-2.97533-2.19817-2.97533-2.85219 0-.41216.98593-.89022 2.38125-1.15462 1.50501-.28519 1.45551-.0207-.11926.63729-.71518.29882-1.20258.72289-1.12048.97487.17382.53349 1.75066 1.34563 2.84017 1.46281.42945.0462 1.19798.35779 1.70784.69243.50986.33465 2.33549.85355 4.05695 1.15312s4.24117.77024 5.59937 1.04594c1.35819.27569 4.45382.55589 6.87916.62267 2.42535.0668 5.91634.32723 7.75776.57878 2.65082.36211 4.45068.3731 8.64305.0528 6.99965-.53483 9.09945-.52518 8.91193.0409-.0981.29602-1.14074.47432-3.17221.54243-2.23217.0748-3.1473.24743-3.48787.6578-.7597.91537.77179 1.88467 2.99406 1.89499.99715.005 2.44251.15437 3.21189.33276.89101.20659 2.01396.19244 3.09301-.039 1.59878-.34288 1.83366-.29112 4.17338.91969 2.38001 1.23165 2.63098 1.28437 6.27019 1.31709 2.24329.0202 4.09956-.1311 4.54691-.3705.41578-.22253 1.32202-.40459 2.01388-.40459.69185 0 1.25791-.15875 1.25791-.35278 0-.19402-.23812-.35277-.52916-.35277-.29105 0-.52917-.19411-.52917-.43136 0-.23724-.63697-.9913-1.41549-1.67569-1.86747-1.64167-1.52314-2.26201 1.20603-2.17282 1.73033.0565 1.97335-.0186 1.97335-.60999 0-.9664 2.20528-1.21554 8.02806-.90696 4.35703.23089 4.76633.20165 4.56379-.32616-.2557-.66635.0457-.7202 1.31991-.23575 1.0049.38206 1.17083 1.11275.39829 1.7539-.38858.32249-.68654.32416-1.27882.007-.59955-.32087-.96234-.31151-1.6226.0418-.69443.37165-1.08127.37163-2.10918-.00006-.8123-.29374-1.92199-.37232-3.12856-.22157-1.18446.14799-1.95448.0966-2.10088-.14032-.1271-.20567-.93214-.37394-1.78896-.37394-1.55551 0-1.55753.002-1.33813 1.09866.20311 1.01556.16617 1.07-.48839.71969-.77063-.41243-3.17-.15982-3.49627.3681-.28599.46273.91241 1.69411 1.64876 1.69411.73174 0 2.90877 2.36744 2.61465 2.84334-.11274.18241-.8703.33554-1.68347.34028-.81316.005-2.11348.14934-2.88959.32132-2.50453.55499-9.80487.78727-10.58333.33674zm22.15333-12.66727-1.48278-1.39962-3.27972.18781c-1.80385.1033-3.80561.25248-4.44835.33151-1.03824.12767-1.15539.0572-1.04996-.63146.0765-.50006.30349-.7137.63946-.602.28644.0952 2.31193.17462 4.5011.17639l3.98031.003 1.39956 1.51463c1.23423 1.33573 1.60867 1.85767 1.31135 1.82794-.0485-.005-.75544-.63865-1.57097-1.40844zm17.81418.87412c-.1047-.1047-1.12335-.25409-2.26366-.33198-4.31989-.29506-10.0108-1.04097-10.0108-1.31211 0-.35086.36321-.34698 6.85139.0732 5.82187.37706 6.55417.51737 6.55417 1.25583 0 .4909-.74714.699-1.1311.31504zm-88.82724-2.31659c0-.1734.15875-.33512.35278-.35937.19403-.0243.4983-.064.67616-.0882.17786-.0243.41781-.13853.53323-.25395s-2.60979-.31043-6.05602-.43336c-3.44623-.12292-7.21837-.43673-8.38254-.69734-1.46936-.32894-4.463118-.45651-9.789578-.41716-5.33821.0394-7.67003-.0602-7.66343-.32752.005-.21131.45852-.92566 1.00733-1.58744 1.04976-1.26584.83977-1.20262 7.09707-2.13639 1.26118-.18821 3.06636-.50477 4.01151-.70348 1.832898-.38535 3.965718-.18077 5.689878.54578.86167.3631.94675.48946.45787.67999-.33026.12871-.77825.12414-.99554-.0102-.67771-.41885-5.022198-.53372-6.870658-.18167-.97014.18477-3.03389.51778-4.58611.74002-3.10197.44413-4.05695.80842-4.05695 1.54756 0 .39675 1.5383.5222 8.20209.66888 4.511138.0993 9.233958.3419 10.495138.53912 1.26118.19721 4.43618.46534 7.05555.59582 6.03218.30051 7.58472.55035 7.58472 1.22057 0 .35159-.30363.48813-.93979.42261-.51689-.0532-1.58845.0489-2.38125.22709-.84026.1888-1.44146.19238-1.44146.009zm78.26732-.20626c-.2639-.0371-1.71013-.16967-3.21384-.29468-1.50372-.12503-2.73403-.38973-2.73403-.58824 0-.2064.36831-.26848.86028-.145.81492.20453 8.22932.29175 10.04013.11811.46543-.0446.91109.10491.99037.33232.10025.28761-.70933.4487-2.65948.52917-1.54199.0636-3.01953.0854-3.28343.0483zm-9.03468-1.45278c-.43656-.064-.79375-.26413-.79375-.44466 0-.27177 4.08924-.5385 5.52965-.36069.80219.099.83918-.6547.041-.83592-2.16546-.49166-5.6306-.89046-7.75801-.89286-1.83429-.002-2.43688.12807-2.69036.581-.33116.59175-1.47231.45063-1.47231-.18207 0-.40966.79692-.72166 2.82222-1.10489 1.18214-.22369 2.87831-.0822 6.64262.55423 2.78032.47004 5.51876.85462 6.08542.85462.70259 0 1.0303.17679 1.0303.55581 0 .43004-.33927.53947-1.49931.48358-.82462-.0397-1.73743.0222-2.02847.13751-.80783.32021-5.01258.78582-5.90903.65434zm-52.81955-5.34458c-.115-.18608.24723-.78139.80496-1.32291s1.45167-1.73928 1.98653-2.66169c1.11508-1.92308 2.48251-3.13429 3.21933-2.85154.65677.25202.65559.82448-.002.82448-.78434 0-1.07082.75985-.42313 1.12232.8942.50041.69928 1.1011-.27773.85589-.95448-.23956-1.769.37377-2.16867 1.63303-.63193 1.99103-2.50672 3.42443-3.13959 2.40042zm-1.8724-.77449c.0869-.26107.441-.52952.78681-.59655.40218-.078.5718.0492.4707.35278-.0869.26106-.44099.52951-.78681.59654-.40217.078-.5718-.0492-.4707-.35277zm-64.987908-2.11536c-1.06715-.17244-3.96163-.2707-6.43217-.21836-4.57457.0969-5.74402-.24828-3.23039-.95353 1.56814-.43997 1.87755-1.04353.82403-1.60736-.82857-.44343-9.8924-.22118-13.21008.32393-.97014.1594-3.51014.25752-5.64444.21804-2.13431-.0395-7.29368-.12125-11.46528-.18173-7.40859-.10741-9.84606-.43125-10.1519-1.34878-.17097-.51289 2.35787-.55266 4.75467-.0748 2.33018.46459 19.12101.68841 22.15417.2953 1.3582-.17603 4.71754-.32648 7.46522-.33433 5.71676-.0163 6.92681.3147 7.1139 1.9462l.11522 1.0048 2.00144-.27616c2.30203-.31763 2.57042-.31262 5.82519.10877 1.65395.21413 3.76175.162 6.70278-.16579 3.18903-.35542 4.78814-.38253 6.23042-.10566 1.06715.20487 2.89124.41033 4.05352.45658 1.69209.0674 2.13665.20714 2.23073.70147.0867.45542-.11518.61736-.76951.61736-.48784 0-.98537-.15918-1.10561-.35373-.14614-.23646-.43775-.23646-.87957 0-.9525.50976-2.37166.43524-3.30043-.17332-.68184-.44676-1.36518-.46946-4.48551-.14901-5.61147.57627-6.69548.60956-8.7964.27009zm66.322218-.98514c0-.76943 1.24404-1.78389 2.1876-1.78389.52515 0 .561.1284.23538.84304-.21126.46368-.77095 1.0193-1.24375 1.23473-1.13462.51696-1.17923.50584-1.17923-.29388zm20.28473.0828c-.77612-.27615-1.84594-.41657-2.3774-.31206-1.48699.29243-2.0081-.0877-2.4329-1.77473-.31518-1.2517-.57016-1.58837-1.31802-1.74031-.50998-.10361-1.49546-.33817-2.18995-.52125-.69449-.18307-2.58986-.35225-4.21192-.37594-1.62206-.0237-3.59384-.27915-4.38173-.56766-1.55151-.56815-2.42077-.68303-7.78253-1.02855-1.94028-.12504-3.92465-.42387-4.40972-.66407s-1.83445-.54984-2.99861-.68808c-1.16417-.13824-2.75167-.52572-3.52778-.86106-1.65915-.71687-4.28544-.6534-5.82103.14068-.97075.502-1.20294.94124-1.4918 2.82212-.0936.60912-.3968.71133-2.2186.7478-1.16063.0232-3.14211.0767-4.40329.11875-2.54296.0848-4.494548-.31787-5.852608-1.2077-.62925-.4123-1.96365-.63972-4.46123-.76033-3.63258-.17541-4.85561-.50761-4.85561-1.31888 0-.55187 1.47321-1.98936 2.0388-1.98936.2232 0 .56984-.30647.77031-.68105.27514-.5141.22876-.8168-.18917-1.23473-.30452-.30451-.68555-.55366-.84673-.55366-.16119 0-.46709-.49919-.67978-1.1093l-.3867-1.1093-2.69332.2037c-2.71953.20568-3.02554-.0395-.92431-.74065 1.5491-.5169 5.02757.1737 5.02757.99814 0 .31152.48567.92546 1.07925 1.36431.80264.59342 1.05129 1.03079.97014 1.70646-.06.49969-.34724 1.02521-.63828 1.16781-.29104.14261-.9716.4664-1.51235.71954-.57025.26695-.93909.69157-.87822 1.01102.0852.44704.86832.58784 4.15819.74764 3.35386.16291 4.32138.34134 5.60739 1.03416.854798.4605 2.045418.8146 2.645828.78688.60042-.0277 2.52041-.0962 4.26666-.15221l3.175-.10181.11941-1.05834c.16215-1.43713.51393-1.78066 2.45127-2.39378 3.09217-.97861 4.03407-1.01574 5.52293-.21776.81479.4367 2.43248.84085 3.94333.98516 1.52894.14604 2.81906.47054 3.19992.80485.4746.41659 1.72305.61074 4.87147.75756 2.32834.10858 5.34453.4452 6.70265.74806 1.35812.30285 3.74731.55064 5.30931.55064 1.56199 0 2.9908.14117 3.17513.31372.18432.17254 1.22718.56781 2.31746.87838 2.17477.61948 2.65151 1.01231 2.83457 2.33567.11131.80467.25337.87213 1.6213.76995.89749-.067 1.49931.0392 1.49931.26458 0 .48587 2.35568.49328 2.65538.008.12517-.20253.0325-.60324-.20584-.89047-.56552-.68141-.11668-1.11608.65418-.63352.64947.40658 1.01528 2.16517.53983 2.5952-.60292.54533-2.10266.59093-3.46716.10543zm17.33897.10648c-.35897-.28334-.5615-.6627-.45006-.84301.47113-.76231 13.27359.28208 13.27359 1.08281 0 .21277-.58608.25715-1.49931.11352-2.11652-.33288-7.58363-.3848-9.26042-.088-1.01297.17933-1.59526.10446-2.0638-.26536zm13.52908.17284c0-.17785.19844-.40389.44097-.50231.3337-.13539.31473-.26661-.078-.53938-.76334-.5302-.21709-.85309.99342-.58721 1.04368.22922 1.65271 1.0117 1.26975 1.63134-.25956.41997-2.62616.41778-2.62616-.002zm-55.03333-1.08773c-.29104-.18808-.95636-.3444-1.47849-.34737-.52212-.003-1.04422-.15895-1.16021-.34663-.11598-.18767-.68098-.2472-1.25553-.13229-.57457.11491-1.04466.0641-1.04466-.11298 0-.17705-.63666-.3473-1.41479-.37833-1.81378-.0723-2.2791-.35023-1.71816-1.02612.72296-.87111 1.66216-1.21247 2.65222-.96398.85709.21511.88857.2783.33891.68022-.42251.30894-.48349.51878-.20142.6931.36361.22472 2.25497-.39156 3.99356-1.30127.94373-.4938 1.04538-.17366.23979.75519-.84682.97639-.59157 1.55615.5581 1.26761.47612-.1195.84346-.0551.84346.1478 0 .19773.17726.3595.39392.3595.22017 0 .31258-.31105.20951-.7052-.24955-.95425.38844-1.27638 1.10611-.55851.38986.38996.45789.66724.205.83549-.20818.13851-.48101.52964-.60629.86919-.25306.68587-.85962.78249-1.66103.26458zm-6.17361-2.46944c.11991-.19403.0499-.35278-.15557-.35278-.20548 0-.3736.15875-.3736.35278s.07.35278.15557.35278c.0856 0 .25368-.15875.3736-.35278zm-4.46346.82315c-.0296-.16169-.0906-.45273-.13569-.64676-.0451-.19403-.10028-.48084-.12266-.63737-.0224-.15652-.39352-.0375-.82475.26459-1.0712.7503-1.42455.68905-1.14297-.19813.13045-.41101.10146-.68373-.0644-.60604-.16589.0777-.73884.36038-1.27324.62821-1.31252.6578-1.62776.21473-.61456-.86376l.82724-.88056-1.03164-.0107c-.89103-.009-.94491-.0612-.3953-.38092.46914-.27293.84214-.23535 1.41965.14305.43083.28229 1.59349.62468 2.58371.76087 1.75449.24131 1.79818.27576 1.71355 1.35151-.0776.98617-.80332 1.8179-.93892 1.07603zm63.28307-.19296c-.24589-.29742-.34627-.80342-.22308-1.12444.43653-1.1376 2.61041-1.75424 2.61041-.74047 0 .29104-.28685.52916-.63745.52916-.37158 0-.77622.39134-.97014.93826-.2899.81758-.39018.8687-.77974.39749zm-171.055948-2.32109c-.9759704-.97597-.56196-1.42188 1.19953-1.29199 2.3152.17072 4.65502.70583 5.12014 1.17094.62145.62146-.006.90633-.99994.45366-.50043-.22801-1.09642-.29476-1.32441-.14834-.69925.44908-3.49071.32034-3.99532-.18427zm212.337028-.5283c-.86178-.38875-1.00662-.7826-.42092-1.14458.57511-.35544 2.09662.14306 2.09662.68692 0 .6788-.73841.88047-1.6757.45766zm8.64787-.8376c-.54795-.54795-.53955-.65448.12525-1.58811 1.71518-2.40874-.10942-3.7538-5.24534-3.86675-1.79476-.0395-3.2632-.18622-3.2632-.32612 0-.41604 1.73317-.52627 5.29321-.33664 2.71587.14465 3.49258.31264 4.0879.88414.40424.38806 1.02399.87243 1.37723 1.07638.78626.45397.52091 1.93188-.53675 2.98954-.38312.38312-.69659.93471-.69659 1.22575 0 .69173-.41283.67069-1.14171-.0582zm-189.358278-.61005c0-.30377.33941-.47239.88763-.44097.7991.0458.82756.0949.28535.49185-.78551.57512-1.17298.55832-1.17298-.0509zm3.30594-.23844c.92464-.72965 1.98572-2.59546 1.98572-3.49171 0-.20026-.31427-.36411-.69838-.36411-.45962 0-.94451.48244-1.41828 1.41111-.39595.77611-.80013 1.41111-.89818 1.41111-.0981 0 .0639-.46836.35995-1.04081.29602-.57245.53823-1.27004.53823-1.55019 0-.82615 2.04766-2.80263 2.66007-2.56763.29855.11457.84682.0185 1.21838-.2136.37157-.23204.80053-.29693.95326-.1442.15273.15272.001.43241-.33674.62153-.88988.498-.7537 1.01435.26753 1.01435.48507 0 .88194.15875.88194.35277 0 .19403-.43656.35521-.97014.35818-1.31079.007-1.50826.19634-2.75809 2.64043-.81102 1.58598-1.29749 2.14743-1.94028 2.23936-.84498.12084-.84265.11067.15501-.67659zm2.95603-5.17874c.0861-.25865-.15705-.44097-.58813-.44097-.43333 0-.73496.22779-.73496.55503 0 .64837 1.10083.55346 1.32309-.11406zm163.380228 4.16121c-.4359-.58959-1.24488-1.14238-1.86264-1.27278-.60063-.12678-1.61274-.54676-2.24913-.9333-1.68522-1.02358-4.26546-1.02951-5.35805-.0123-1.01417.94417-2.99815 1.55743-4.12422 1.2748-.45231-.11352-1.35149-1.02595-2.05386-2.0841-1.88515-2.84011-2.59203-3.26828-5.48286-3.32108-1.3538-.0247-2.73926-.0561-3.07881-.0697s-1.2647-.23432-2.05589-.49052c-1.52883-.49504-6.37927-.14172-7.64071.55657-.33692.1865-.85099.3391-1.1424.3391-.2914 0-1.90088.56755-3.57662 1.26123-2.13191.88251-3.15825 1.14977-3.41797.89004-.25973-.25973-.008-.53409.8378-.91371.66494-.29839 1.44711-.68637 1.73815-.86218.29105-.1758 2.11667-.7531 4.05695-1.28287 3.9436-1.07677 6.06369-1.17474 12.80989-.59194 3.86681.33406 4.5015.4849 5.78619 1.37519.79364.54999 1.65783 1.5142 1.92042 2.14269.2626.62848.87166 1.40099 1.35346 1.71668.83624.54792.97533.52228 3.06385-.56468 1.88486-.98096 2.43505-1.11207 3.97285-.94678 1.89485.20367 6.82822 2.30741 7.60453 3.24281.66311.799 3.32655.34843 4.42326-.74827.88085-.88085 1.73786-1.07801 2.10485-.48421.12014.19439-.18799.50796-.68474.69682-.49674.18886-.90317.51416-.90317.72289 0 .57704-2.27034 1.40184-3.85866 1.40184-1.15486 0-1.55217-.18973-2.18247-1.04226zm-127.661648.14485c0-.323.25123-.50244.61736-.44097.45098.0757.61736-.13403.61736-.77828 0-.72354.19009-.8991 1.05834-.97742.89932-.0811.96325-.0374.42551.29077-.43174.2635-.55987.61611-.40323 1.10965.26152.82396-.31191 1.32725-1.52159 1.33549-.48272.003-.79375-.20802-.79375-.53924zm-2.45633-.32151c-.34357-.41398-.56576-.43105-1.14762-.0882-.56761.33447-.7556.33122-.88106-.0152-.10035-.27706-.48219-.35937-1.02966-.22197-.80975.20324-.85294.14808-.62204-.79435.30656-1.25128.79113-1.5956 1.62069-1.15164.35049.18758 1.35124.35539 2.22386.3729 1.66665.0335 1.87002.2064 1.14563.97425-.35282.37399-.35238.49989.002.62985.5411.19831.22363.80771-.42079.80771-.25584 0-.65688-.23101-.89121-.51336zm-11.46486-.66784c-.62333-.45578-.46994-1.50294.16286-1.11185.16721.10335.4189.002.5593-.22514.15942-.25796.10235-.31853-.15202-.16132-.224.13844-.40728.0785-.40728-.13325 0-.51707 1.50621-1.07039 1.90205-.69874.33545.31495-.68158 2.80595-1.14562 2.80595-.14784 0-.56152-.21404-.91929-.47565zm2.6323-.2299c0-.87254 1.19714-2.11854 2.02847-2.11127 1.09877.01 1.68874.576 1.20595 1.15772-.2334.28124-.32527.76959-.20415 1.08522.18374.47881-.049.57388-1.40502.57388-1.39006 0-1.62525-.1021-1.62525-.70555zm2.05301-.97375c.062-.43458-.0325-.79014-.20991-.79014-.50223 0-1.52156 1.26228-1.24371 1.54013.47826.47826 1.34196.0326 1.45362-.74999zm-10.70275.96292c-.12814-.20732-.72621-.26952-1.39153-.14471-1.61888.30371-1.98979-.42788-.75531-1.48974.52698-.45329 1.32791-.82417 1.77985-.82417.48719 0 1.05694-.35903 1.39957-.88194.56497-.86225 1.26716-1.18277 1.26716-.5784 0 .16695-.40264.89687-.89475 1.62205-.55509.81796-.81391 1.57322-.68178 1.9895.2226.70135-.33363.93778-.72321.30741zm-.34751-1.75535c-.28497-.4611-1.2333-.0139-1.2333.58161 0 .39684.15193.42252.71543.12095.39349-.21059.62653-.52675.51787-.70256zm2.64725 1.787c0-.18258.16521-.43406.36713-.55886.20192-.12479.2706-.53103.15262-.90276-.22611-.7124-.12505-.75678 1.8614-.81732 1.4704-.0448 1.44813.24665-.0881 1.15304-.6791.40068-1.23472.89261-1.23472 1.09318s-.23813.36468-.52917.36468-.52917-.14938-.52917-.33196zm-43.85406-.41385c-.35134-.20436-.86219-.28584-1.13523-.18107-.64889.24901-.97453-.31041-.69443-1.19295.26067-.8213.88094-.94327.88094-.17323 0 .7181.33887.66523 1.25547-.19588l.77178-.72505-.0375 1.43061c-.0406 1.54872-.0854 1.59341-1.04102 1.03757zm2.64962-.0303c-.82268-.82268-.2432-2.39888.88194-2.39888.25224 0 .45861.15875.45861.35277 0 .19403-.23812.35278-.52916.35278-.29398 0-.52917.31358-.52917.70556 0 .84276.57568.89226 2.01668.17339.73292-.36563 1.29574-1.0832 1.79853-2.29306.4605-1.10808.94814-1.76089 1.31536-1.76089.51351 0 .49468.15065-.15683 1.25489-.91542 1.55151-.9189 1.6963-.0352 1.46521.90845-.23757 1.25255.32419.64808 1.05804-.42009.51001-.36585.54595.4988.3306 1.12218-.27949 1.31487.26805.28777.81774-1.18889.63628-1.78707.44272-1.78707-.57825v-.94344l-.85193.80035c-.57017.53564-1.08539.72625-1.55781.57631-.38823-.12322-.80798-.0588-.93278.14309-.30314.49049-1.00496.46464-1.52581-.0562zm10.115-.167c-.43128-.52586-.39749-.56802.30923-.3859.90908.23425 1.41636-.3065.83392-.88894-.6192-.6192-.45883-1.30982.30414-1.30982.59151 0 .66682.17315.49864 1.14653-.30549 1.7681-.42932 2.02847-.96472 2.02847-.27337 0-.71492-.26566-.98121-.59034zm2.86722.0298c0-.87946 1.70952-3.67284 2.24774-3.67284.71753 0 .4737 1.5484-.30746 1.95247-.41091.21255-.7084.72671-.71236 1.2312-.004.53728-.23865.91088-.61736.98382-.38952.075-.61056-.10406-.61056-.49465zm13.75833-.16685c0-.80371 1.89887-2.09158 3.08681-2.09356.91719-.001.95229.10521.35278 1.07257-.36347.58647-.34797.7707.0882 1.04814.29104.18514.37042.35307.17639.37318-3.25662.33754-3.70417.28918-3.70417-.40033zm1.94028-.68376c.11992-.19403-.0295-.35278-.33196-.35278-.30249 0-.54998.15875-.54998.35278 0 .19402.14938.35277.33195.35277.18258 0 .43007-.15875.54999-.35277zm2.64583 1.05833c0-.19403.22833-.35278.50739-.35278.33289 0 .48455-.3289.44097-.95631-.0477-.68694.12199-.99513.60242-1.09412.50602-.10425.61337.007.44098.456-.12533.32659-.22787.9777-.22787 1.4469 0 .67478-.18434.85309-.88194.85309-.48507 0-.88195-.15875-.88195-.35278zm-15.52222-.41954c0-.17096.25549-.70077.56776-1.17734.61765-.94266 1.28202-.86846.97481.10887-.13185.41943.0386.34624.55339-.23766.89726-1.01766 1.14653-.8715.78963.46301-.22541.84282-.46633 1.00708-1.57584 1.07444-.72036.0437-1.30975-.0604-1.30975-.23132zm-24.97328-.37016c-.44441-.21405-.76191-.62671-.70556-.91703.16439-.84694.78657-.83217 1.16476.0277.39219.89163 1.1478 1.13901 1.93552.63365.46311-.29711.44836-.48759-.11941-1.54187-.55662-1.03358-.58133-1.31038-.1756-1.96672.51928-.84004 1.74616-1.28623 2.6174-.9519.95128.36504.34696 1.10462-.80588.98624-1.35074-.13869-1.69814.61687-.91281 1.98524.7948 1.38486.4106 2.18755-1.03282 2.15778-.63668-.0131-1.5212-.19901-1.9656-.41305zm197.399738-2.64097c.63406-.0785 1.58656-.0769 2.11667.004.5301.0805.0113.14473-1.15285.14275-1.16417-.002-1.59789-.0678-.96382-.14635zm-218.2875684-1.37101v-1.27398l1.32292.28757c2.01598.43822 10.90787.38017 13.4937504-.0881 4.418-.80004 6.52569-1.3587 6.44556-1.70845-.0444-.19403-.63976-.40205-1.32291-.46227-.79505-.0701-1.2421-.29228-1.2421-.61736 0-.60047-.031-.59598 1.27028-.18426.56253.17798 1.46989.42178 2.01636.54177.67162.14747.95735.40628.88177.79872-.11379.59089-3.40611 1.64414-6.54261 2.09305-1.4218.20349-1.79501.82896-.49462.82896.33952 0 .92546.23768 1.30209.52818.63991.49358.59232.52431-.72632.46905-.77611-.0325-1.56986-.17433-1.76389-.31512-.7969904-.5783-3.1149504-.99745-3.7213404-.67292-.34212.1831-2.7025.35336-5.24529.37836s-4.71021.18615-4.8165.35812c-.43616.70573-.85715.23358-.85715-.96132zm143.3839484.42088c-.37632-.27518-.58415-.6004-.46183-.72272.38164-.38164 2.06955.21548 2.06955.73212 0 .63204-.73639.62774-1.60772-.009zm81.14627-.30411c-.40117-.22451-2.48999-.26766-5.67387-.11723-4.73032.22351-6.83664.0881-6.8371-.4395-.00011-.12448 3.05583-.17915 6.79097-.12148 3.73514.0577 8.16786.0912 9.85048.0746 3.03345-.03 4.87873.21685 4.8776.65257-.001.37763-8.32666.3324-9.00808-.0489zm-137.685528-.68644c-.57883-.57882-5.43461-1.65825-10.64469-2.36629-1.45521-.19776-3.57841-.54123-4.71824-.76328-1.50033-.29227-2.96105-.30282-5.29166-.0382-3.17552.3605-3.23184.35357-4.14456-.50957-1.05774-1.0003-4.70027-2.24008-6.58143-2.24008-.69864 0-2.19421-.19084-3.3235-.42409-1.60978-.3325-2.68108-.32983-4.96012.0124-4.12139.61881-19.31114.73455-19.31108.14715.00002-.30551.73154-.45252 2.38129-.47857 1.30968-.0207 5.47687-.1115 9.26041-.20184 12.48433-.29809 14.87647-.24871 18.16806.37507 3.89402.73794 5.52326 1.42669 5.22338 2.20816-.1907.49695.082.52754 2.39599.26868 3.34239-.3739 5.56861-.27224 8.43202.38504 1.26118.2895 3.7218.68231 5.46805.8729 4.51324.4926 7.93223 1.45366 8.56576 2.4078.44169.66521.44378.77734.0145.77734-.2759 0-.69629-.19464-.93418-.43254zm75.609228-.4033c-1.61067-.60692-2.50718-1.36527-2.7653-2.33916-.30422-1.1478-2.80055-2.95358-4.84201-3.50258-1.61176-.43345-9.49729-.27567-10.77763.21564-.39993.15347-.53349.0707-.42264-.2618.20643-.61928 4.09556-1.22405 9.45922-1.47094 2.23131-.1027 3.73944-.11113 3.35138-.0187-1.37494.3274-1.2204.68118.63319 1.44945 1.38126.5725 2.23298 1.24577 3.23023 2.55345.7449.97677 1.82202 2.01779 2.3936 2.31336.98298.50832 1.11095.48773 2.36336-.38019.8526-.59085 1.54814-.83163 1.95326-.67618.43543.1671.82691-.0199 1.27144-.60739.57866-.76472.87999-.84218 3.04166-.78184 2.8914.0807 7.22553 1.15199 7.44943 1.84133.1191.36666-.0132.42481-.504.2215-1.50533-.62359-5.36645-1.26968-7.0155-1.17391-1.51141.0878-1.77971.21367-1.87443.87951-.1242.87303-1.12111 1.3237-2.18276.98674-.44248-.14043-1.08796.0481-1.73015.5054-1.12965.80438-1.47659.83257-3.03235.24634zm41.48988-1.0081c2.17442-.49017 19.92832-.63065 20.56714-.16273.44641.32698-1.88387.42063-10.59567.42581-6.14238.004-10.62954-.11473-9.97147-.26308zm-18.10035-.90646c-.32978-.13652 3.28178-.28912 8.0257-.33913 4.74391-.05 8.6253.043 8.6253.20658 0 .35944-15.79906.48521-16.651.13255zm17.9061-.0264c1.2092-.54187 6.15323-.89513 6.15323-.43966 0 .21683-.53234.39423-1.18297.39423-.65064 0-2.19845.0834-3.43959.18538-1.52995.12568-2.02285.0806-1.53067-.13994zm-23.30372-1.79476c-.38805-.15266 1.74362-.21662 4.73706-.14211 2.99343.0745 5.50945.20229 5.59114.28398.27466.27467-9.61471.13883-10.3282-.14187zm12.28308-.0195c1.62188-.41762 11.8822-.64555 11.8822-.26397 0 .14788-.91281.26952-2.02847.27031-1.11566.00071-4.09222.0777-6.61458.17095-3.40972.12603-4.2406.0805-3.23915-.17731zm-58.64877-.6547c-.31308-.58499-.55914-.62214-2.17526-.3284-1.7772.32301-2.95063-.0257-2.29418-.6818.43788-.43764 10.79039-.23966 11.24509.21505.62467.62466-.19854 1.26151-1.04506.80846-.36882-.19738-1.61617-.41052-2.7719-.47365-1.82423-.0996-2.09487-.0334-2.05233.50259.0646.8136-.46144.78908-.90636-.0422zm44.42542-.75036c-.68229-.13407 1.52745-.27281 4.93888-.3101 3.39549-.0371 6.41174-.0872 6.70278-.11122 1.15235-.0953 2.11667.0838 2.11667.39304 0 .37507-11.86929.39947-13.75833.0283zm26.37014-.23478c.24253-.0979.6394-.0979.88194 0 .24253.0979.0441.17794-.44097.17794s-.68351-.0801-.44097-.17794zm5.85291-1.17747c-.57035-.96552-.79021-1.05834-2.50691-1.05834-1.93985 0-3.96337.76111-3.96337 1.49073 0 .2996-.10669.30758-.38545.0288-.68078-.68078.23076-1.75452 1.69491-1.99648 3.93915-.65098 6.07751-.0697 6.62116 1.79986.3503 1.20462-.70546 1.01334-1.46034-.26459zm-36.28-1.05267c-.58208-.15123-2.12989-.29375-3.43958-.31671-1.30969-.023-2.38125-.18543-2.38125-.36106 0-.35359 3.20854-.18428 6.62196.34943 1.54525.24161 2.65449.22681 3.67908-.0491 1.43336-.38597 4.51609-.1776 4.51515.30517-.0007.34286-7.71535.40482-8.99536.0722zm-14.2875-.34603c0-.41868 1.16748-1.07075 1.91709-1.07075.72012 0 .71577.92014-.006 1.19698-.84919.32586-1.91144.25571-1.91144-.12623zm-154.88821843-1.19042c-.47474-.23668-.86317-.72225-.86317-1.07904 0-.50915.68308-.85948 3.17500003-1.62834 4.61579-1.42418 9.1045804-3.21184 12.5236104-4.98753 1.64924-.85655 4.10987-2.07451 5.46806-2.7066s3.42194-1.68766 4.58611-2.34572c3.28641-1.85768 6.99551-3.71365 7.42162-3.71365.21228 0 .73526-.6215 1.16218-1.3811.76542-1.36188.79456-1.37599 2.09343-1.01369.82768.23086 4.37224.30344 9.53742.19529 8.20924-.17189 8.22007-.17113 8.11389.57272-.10497.73542-.22677.7455-9.63132.79726-5.23875.0288-9.44562.18759-9.34861.35278.097.16519.29545.26066.44097.21216 1.20925-.40309-3.43901 2.7024-4.79183 3.20141-1.33353.49189-.38682 1.12177 1.56037 1.03818 6.22906-.26743 6.74398-.25508 7.09695.17013.54491.65645-.11126 1.25237-1.98974 1.80701-1.17781.34777-1.74506.37312-2.08251.0931-.26991-.22401-2.24315-.40661-4.72053-.43684l-4.25675-.0519-3.12499 1.74271c-1.71875.95849-3.91874 2.03378-4.88888 2.38951-.97014.35574-2.17231.93147-2.6715 1.27939-.49918.34792-1.99479 1.04181-3.32358 1.54196-1.32878.50015-2.5872404 1.04803-2.7965604 1.21749s-1.65058.73596-3.20281 1.25889c-1.55222.52293-3.22755 1.16544-3.72295 1.4278-.72114.38191-1.07281.39122-1.76388003.0467zm32.58139043-1.75588c-.27969-.45335.0958-.65698 1.79799-.97498 4.03277-.7534 20.26797-10.55207 21.32411-12.87005.21551-.47298.56335-.85997.77299-.85997s.28983.14778.1782.3284-.0514.42208.13388.53658c.18527.11451.47749-.0431.64938-.35025.23145-.41359.74177-.5299 1.96729-.44839 1.77723.11819 2.17793.66925.76201 1.04792-.93492.25004-1.88099.92485-5.03567 3.59185-1.11124.93946-3.76525 2.54921-5.90029 3.57876-2.13431 1.02918-5.05298 2.54911-6.48593 3.3776-2.31815 1.34027-2.53776 1.55579-1.99197 1.95488.42956.31411.8753.34897 1.48725.1163.48061-.18272 2.07114-.26657 3.53451-.18632 3.62506.19879 8.45208-.57308 10.72585-1.71512 1.0143-.50946 2.05307-.84613 2.30837-.74816.81616.31319.11712 1.1886-1.58025 1.97896-.90631.42201-1.88596.97709-2.177 1.23351-.4078.3593-3.02497.49264-11.41108.58138-5.98506.0633-10.96189-.0145-11.05964-.1729zm43.90197-.26937c-.33955-.19777-.61736-.52469-.61736-.72649s1.11341-1.48474 2.47423-2.85097c1.91632-1.92393 2.38676-2.58947 2.0863-2.9515-.53363-.64298-.10429-1.20389.92151-1.20389.61437 0 1.2241-.49536 2.17114-1.76389.72428-.97014 1.48732-1.76389 1.69566-1.76389s.40271-.3175.43194-.70556c.0293-.38805-.0227-.70555-.11537-.70555-.5188 0-2.90443 1.45615-3.06312 1.86968-.10312.26874-.77793.7688-1.49956 1.11124-.81159.38512-1.45898 1.01185-1.69724 1.64307-.21184.56125-.56228 1.02045-.77876 1.02045-.21646 0-1.72948.81167-3.36224 1.80372-5.91522 3.594-8.23653 4.57812-10.97784 4.65402-2.02305.056-2.55233-.0449-2.87756-.54871-.51717-.80114.0755-1.80763 1.15892-1.96819.55298-.0819.83987.0997.97525.61736.3025 1.15676 1.41329.90671 5.8102-1.30794 3.96896-1.9991 7.8888-4.53899 9.99793-6.47823 1.27017-1.16787 2.96802-2.39622 5.11528-3.70082.87312-.53047 2.10896-1.41101 2.7463-1.95674 1.19666-1.02466 1.9951-1.24441 2.36235-.65018.22347.36157-4.46413 7.74959-6.31283 9.94952-1.53233 1.82346-3.79924 4.83244-4.52328 6.00398-.65051 1.05258-1.12643 1.18929-2.12185.60951zm10.55394.14585c-.57007-.57007-.12106-1.12366 1.37473-1.6949.88546-.33816 2.32683-1.16207 3.20306-1.83091s2.13614-1.47501 2.7998-1.79149c.66367-.31648 1.20667-.70289 1.20667-.85869 0-.15581.35068-.24547.77928-.19925.50211.0542.82501-.13555.90782-.53333.0793-.38082-.0841-.61736-.42652-.61736-.30526 0-.55503-.15875-.55503-.35277 0-.19403.3175-.35278.70556-.35278.38805 0 .70555-.22649.70555-.5033 0-.27682.21998-.55463.48883-.61736.80079-.18686 5.557638-4.86425 5.326768-5.23781-.11703-.18937-.58178-.34431-1.03277-.34431-.54886 0-.88728-.25736-1.02353-.77834-.11194-.42809-.14957-.83231-.0836-.89827.066-.066 1.44872.0704 3.07281.30308 3.65609.52374 4.53584.54685 7.13759.18744 1.46286-.20208 1.99875-.17356 1.83127.0974-.13088.21176.004.38311.30214.38311.2964 0 .46035-.20473.36433-.45495-.10694-.2787.3059-.62869 1.06571-.90344.68215-.24667 1.48415-.69236 1.78221-.99043.73604-.73603 1.66052-.32724 1.51869.67155-.0774.54525-.61966 1.03764-1.72449 1.56596-1.65587.79184-6.93909 1.87206-9.16575 1.87407-1.74625.001-3.52763 1.29554-6.86159 4.98418-1.552218 1.71735-3.823348 3.86389-5.046948 4.77008-1.22359.90619-2.44253 2.06881-2.70873 2.58359-.36739.71044-.92162 1.03699-2.30011 1.35518-2.03747.4703-3.294.53376-3.64374.18402zm18.285638-15.28704c.11992-.19402-.0388-.35277-.35277-.35277-.31395 0-.4727.15875-.35278.35277.11991.19403.27866.35278.35278.35278.0741 0 .23286-.15875.35277-.35278zm4.86548 14.99216c-1.06113-.74591-.67189-1.48807.92167-1.7573 1.45475-.24578 2.20275-.68189 5.01888-2.9262 2.27125-1.81006 11.94814-10.98583 11.94814-11.3294 0-.13299-.42106-.23553-.9357-.22789-.51464.008-.99602-.16024-1.06975-.3731-.2206-.63694 6.62444-.96602 7.24227-.34819.60666.60666.25002 1.26437-.68558 1.26437-1.28333 0-3.32392 1.32824-5.88966 3.83361-1.39817 1.36529-2.54214 2.62765-2.54214 2.80526s-.67468.76799-1.4993 1.31197c-2.28387 1.50658-6.96736 5.52099-6.96736 5.97199 0 .27204 8.54205.19017 11.54081-.11061 1.77789-.17832 2.86349-.49075 3.60169-1.03652 1.18445-.8757 1.98829-.99835 2.23029-.34029.26916.73192-.0761 1.25882-1.33433 2.03646-1.23602.7639-1.51097.79716-9.86485 1.19297-2.32833.11032-5.74146.28605-7.58472.39051-2.68473.15215-3.50635.081-4.13036-.35764zm25.67687-.38324c-1.41954-1.19446-1.55195-2.96725-.22163-2.96725.47507 0 1.30395.40795 1.84196.90656.81041.75106 1.1917.86743 2.22304.67845 1.9264-.353 8.33014-4.13508 11.59868-6.85023 1.62003-1.34575 3.12816-2.4045 3.35139-2.35278.22324.0517.28682.0274.1413-.0539-.57948-.32407-.16595-.84303 2.11666-2.65638 3.85534-3.06275 7.55815-5.54668 8.26848-5.54668.36372 0 .75259.23787.86415.52861.21734.56638-5.64454 12.45885-7.30351 14.81722-.54594.77611-1.09557 2.00643-1.22139 2.73403-.22817 1.31945-.23334 1.32292-1.97272 1.32292-2.41479 0-2.52216-.61092-.51005-2.90217.89853-1.02318 1.72505-2.21752 1.83671-2.65408.11166-.43657.38424-.79618.60574-.79915.2215-.003.16461-.16341-.12643-.35653-.93055-.61744-5.06426.32146-7.32195 1.66307-.59156.35153-2.46926 1.49453-4.17268 2.54001-4.78009 2.93381-8.06564 3.57408-9.99775 1.94832zm23.60904-9.27682c.6791-.73916 1.46886-1.8047 1.75503-2.36787s.88148-1.47269 1.32292-2.02116c.8685-1.07907 1.04904-2.0014.39176-2.0014-.22597 0-1.77378 1.33939-3.43958 2.97643-1.66581 1.63705-3.46681 3.31663-4.00224 3.73242-1.32942 1.03237-.89629 1.52268 1.1034 1.24907 1.2907-.1766 1.8934-.50592 2.86871-1.56749zm5.64445-8.5071c0-.19402-.07-.35277-.15557-.35277-.0856 0-.25368.15875-.3736.35277-.11992.19403-.0499.35278.15557.35278.20548 0 .3736-.15875.3736-.35278zm-.63527 17.99645c-.64043-.15167-1.20621-.33386-1.25727-.40486-.0511-.071-.43101-.57578-.84433-1.12174s-.664-1.22065-.55707-1.49931c.28331-.73827 2.15419-.62189 3.19767.19891 1.58341 1.2455 3.26386.76759 7.5888-2.15822 1.11347-.75326 2.28139-1.36956 2.59539-1.36956.3592 0 .49657-.19368.37047-.52232-.12281-.32002.39602-1.12734 1.33965-2.08452.84705-.85921 1.97129-2.29799 2.49831-3.19727.52702-.89929 1.41531-2.09217 1.97398-2.65084.59361-.59361 1.01578-1.3936 1.01578-1.92486 0-.75926.15988-.90723.97014-.89786.53357.006 1.2673.23626 1.63051.51131.57871.43826.62928.79038.40895 2.8478-.13828 1.29124-.29243 3.52852-.34255 4.97174l-.0911 2.62404 1.03491-.98514c.56919-.54183 1.59888-1.77889 2.2882-2.74903 2.67429-3.76377 9.25113-8.95252 13.31709-10.50642 2.25872-.86321 7.00973-1.2382 7.76336-.61274.29546.24521.5372.68481.5372.97689 0 .41896-.288.48501-1.36428.31291-1.58061-.25275-4.88017.28357-6.29953 1.02394-.53859.28094-1.10203.51178-1.25209.51297-.15006.001-1.48615.83562-2.96909 1.85426-3.12597 2.14727-8.10479 7.02533-9.90178 9.70139-.68403 1.01865-1.36729 1.85208-1.51838 1.85208-.15108 0-1.03141 1.0306-1.95628 2.29022-1.76727 2.40689-2.65793 2.98642-3.50689 2.28184-.78552-.65192-.65292-1.48925.19331-1.22067.40475.12846.70556.0634.70556-.15261 0-.20711-.15875-.37656-.35278-.37656-.45923 0-.45325-1.26976.0101-2.13548 1.04566-1.95383 2.28078-9.50618 1.55465-9.50618-.32425 0-1.91863 2.00902-3.34162 4.21066-1.40925 2.18039-6.59237 6.89998-8.99075 8.18671-1.15516.61974-5.13401 2.15831-5.25077 2.03041-.0181-.0199-.55697-.16021-1.1974-.31189zm18.97997-5.79008c-.27471-.2747-.47109-.23894-.69723.12696-.44322.71715-.0483 1.19155.56694.68098.3683-.30566.405-.53323.13029-.80794zm1.19696-6.06223c.13184-.34358.053-.50486-.20479-.41893-.52735.17578-.8177.97757-.35401.97757.18943 0 .44089-.25139.5588-.55864zm9.5141 10.96666c-.37475-.97658.57029-1.65182 1.97875-1.41387 1.26741.21413 1.32683.16736 5.91237-4.6535 6.64489-6.98589 8.57041-9.34544 8.34132-10.22149-.25049-.9579.86939-1.17471 6.0677-1.17471 4.93022 0 7.14001.45049 8.84113 1.80236 2.05926 1.6365 2.58192 2.75847 2.4814 5.32666-.0969 2.47427-.14991 2.60038-2.07487 4.93143-1.62742 1.97074-3.39762 3.01335-7.77475 4.57917l-3.26353 1.16745-10.1513.0979c-8.84213.0852-10.17799.0283-10.35822-.44136zm13.80674-1.08645c5.22557-.27555 7.88388-.86011 11.31281-2.48769 1.97814-.93894 2.8677-1.59282 3.47438-2.55385.4485-.71048 1.07517-1.50732 1.3926-1.77076.31744-.26345.57715-.93581.57715-1.49413 0-.66716.18139-1.01514.52917-1.01514.29104 0 .52916-.13931.52916-.30958s-.23812-.50721-.52916-.74875c-.29104-.24155-.52917-.70689-.52917-1.03411 0-2.38637-6.22518-4.02922-10.43146-2.7529-1.84493.55981-3.02697 1.58164-5.60506 4.84534-1.14951 1.45521-2.91075 3.51896-3.91386 4.58611-2.83617 3.01724-4.39128 4.82438-4.39128 5.10295 0 .14021.75406.16511 1.67569.0553.92163-.10978 3.58069-.30005 5.90903-.42282zm-116.170748-9.83897c-.33858-.7431-.26975-1.02084.47123-1.90145 2.00749-2.38576 8.278678-3.3552 8.278678-1.27977 0 .27187-.84288.59675-2.141878.82556-2.30185.40546-4.34882 1.46489-4.93054 2.55185-.49614.92704-1.2034.84432-1.67749-.19619zm-79.35634-2.90652c-1.52123-.29301-.77928-.75241 1.23473-.76453 3.57286-.0215 10.60348-1.88162 12.96821-3.43105.62427-.40904 1.01055-.471 1.32247-.21212.24234.20112.98338.41834 1.64676.4827.66338.0644 1.2795.34011 1.36916.61277.13212.40179-.19189.45372-1.70941.274-1.58135-.18729-2.44409-.0264-5.54965 1.03469-2.94376 1.00586-9.47068 2.39713-10.31213 2.19813-.097-.0229-.53357-.11051-.97014-.19459zm-9.3887404-.34973c-.0566-.0566-1.67804-.18502-3.60325003-.28541-7.12651997-.3716-9.98985997-.83477-11.03863957-1.78557-.81007-.7344-.15427-1.21042.9268296-.67275.53185.2645 1.99887.64416 3.26006.84368 1.9962.31581 3.82612.45099 11.9812.88509.86584.0461 2.53272-.12833 3.70417-.3876 1.1714404-.25926 3.0030304-.64086 4.0701804-.84798 2.46762-.47894 4.54367-1.17091 6.23877-2.07942 1.54534-.82826 2.2279-.90623 2.2279-.25452 0 .72581-6.08109 3.05066-8.0091 3.06195-.42743.002-1.14181.16562-1.5875.36247-.78679.34751-7.9641304 1.36654-8.1706204 1.16006zm63.8447004-3.32801c-1.72683-.26238-2.6638-.76613-2.08749-1.12231.16887-.10436 1.05621-.0299 1.97188.16533.91566.19529 3.60915.30245 5.98552.23813 4.29559-.11627 4.33298-.12463 6.44429-1.43987 1.16799-.7276 2.37812-1.32291 2.68918-1.32291s1.30862-.32869 2.2168-.73042c2.94082-1.30087 3.02547-3.61481.12597-3.44373-1.46848.0867-1.89357-.25867-2.24422-1.82307-.44824-1.99975-.76538-2.36504-2.26093-2.60418-1.40031-.22392-1.46196-.28622-1.35323-1.36747.14553-1.44729-.56105-1.81125-4.82849-2.48719-2.70197-.42798-3.27479-.42972-3.91241-.0119-.64486.42253-.80853.4153-1.19703-.0528-.67897-.81811-5.27856-.6907-5.99955.16619-.38641.45925-1.28851.69377-3.34402.86935-3.23609.27643-3.35586-.16144-.14763-.53972 1.48879-.17555 2.34907-.47743 2.82922-.9928.60022-.64426 2.11233-.99097 3.29827-.75625.18853.0373 1.85948.12902 3.71321.20379 1.85373.0748 4.36166.36719 5.57317.64982 2.62641.6127 2.41485.57321 3.07084.57321.82512 0 1.94028 1.31792 1.94028 2.29305 0 .70556.17639.88195.88194.88195 1.101 0 2.29306 1.15125 2.29306 2.21456 0 1.22388.99189 2.44018 1.78476 2.18854.36654-.11634 1.23458.0581 1.92898.38758 1.09586.52003 1.24842.74258 1.15565 1.68587-.13035 1.32519-1.94388 2.62961-4.92269 3.54073-1.09647.33537-2.2666.91146-2.6003 1.28018-.33369.36873-1.10346.83035-1.71059 1.02581-1.40443.45215-9.02614.67523-11.29444.33058zm-8.68304-1.37604c0-.44525.40692-.57797 2.55764-.83416 2.22668-.26523 2.14937.33241-.10556.816-2.20287.47243-2.45208.47428-2.45208.0182zm162.806938-2.45837c-.75785-.77611-1.56166-1.41111-1.78625-1.41111s-1.0129-.41026-1.7518-.9117c-.83346-.5656-1.62219-.83984-2.0777-.72241-2.57544.66392-2.59925.66312-2.83996-.0953-.14876-.46868-.53212-.74004-1.04548-.74004-.44583 0-1.21424-.3175-1.70757-.70556-.49333-.38805-1.23955-.70555-1.65826-.70555-1.08102 0-2.12603-.63347-2.12603-1.28876 0-.80126-2.08578-3.07786-3.07867-3.36032-1.13764-.32364-2.75383.28819-3.41109 1.2913-.31041.47374-1.31848 1.08163-2.3764 1.43301-1.73248.57544-4.16236 2.50932-4.33093 3.44688-.35818 1.99226-.29736 1.96853-4.54572 1.77326-2.17416-.0999-4.6674-.39824-5.54052-.66291-3.43968-1.04266-4.03044-1.02517-5.37948.15931-.68203.59883-1.42069 1.08878-1.64147 1.08878-.72706 0-3.00356-1.66171-4.78385-3.49194l-1.75063-1.79972-4.77576.00017c-3.92109.00015-5.10788.12642-6.63163.70556-2.05782.78213-3.79517.91274-4.16573.31316-.31832-.51506.56468-1.05419 1.33444-.81476.33247.10341 1.68184-.0897 2.99861-.42906 1.74878-.45075 3.56366-.5987 6.73305-.54891 4.86823.0765 5.44505.26899 7.6555 2.55482.77611.80257 1.86027 1.69327 2.40925 1.97933.93893.48924 1.09208.45898 2.58208-.51025l1.58395-1.03035 2.19954.59053c1.20975.32479 2.34969.68256 2.5332.79504s2.07412.25939 4.20136.32646l3.8677.12194.31274-1.3224c.19558-.827.696-1.59532 1.33577-2.05087.67039-.47736 1.02302-1.03817 1.02302-1.62695 0-.87731-.0208-.88487-.88194-.32063-1.00366.65763-1.04414.59802-.46182-.68004.31393-.689.60374-.87277 1.14653-.72698.39952.10731.85616.19728 1.01476.19993.15859.003.18346.33529.0553.73922-.1963.61849-.10262.71593.59359.61736.6227-.0882.85629-.3779.9467-1.17423.12249-1.07883.66547-1.6899 1.20522-1.35632.16533.10218.0502.56796-.25588 1.03506-.51887.7919-.51227.84928.0976.84928.35975 0 .87306-.40917 1.1407-.90926.62112-1.16057 1.60112-1.68008 3.06547-1.62503 2.00631.0754 3.51223 1.24079 4.52852 3.50443.66898 1.49004 1.319 1.4492 2.30413-.14477.69921-1.13134.8284-1.20781 1.04296-.61736.29587.81417.11174 1.2031-.56958 1.2031-.27959 0-.50834.17606-.50834.39125 0 .72669 1.58139 2.06596 2.44671 2.0721.47256.003 1.21164.3372 1.64241.74187.63162.59338.92171.66166 1.49885.35278.92763-.49645 2.41725-.49145 2.72665.009.1333.21569 1.06989.75814 2.08131 1.20543 1.65383.73141 4.42074 2.90397 4.42074 3.47115 0 .6861-1.45264.0338-2.64584-1.18818zm-171.738908-.30756c-.62985-.41528-2.34368-.8271-4.6743-1.12321-3.41707-.43414-4.36186-.7991-3.21144-1.24056.44377-.17029 2.47029.124 5.77902.83923.8167.17655 1.91272.60129 2.43558.94389.79025.51779 1.39007.58309 3.55459.38694 1.43215-.12978 2.83645-.32519 3.12066-.43425.28421-.10907.51675-.0381.51675.15771 0 1.18386-5.88085 1.55156-7.52086.47025zm9.28475.52455c0-.17117 2.97635-1.12726 4.49792-1.44485 1.22175-.25501 1.57316.30734.72319 1.1573-.57814.57814-.98778.53147-.98778-.11255 0-.54949-.81907-.47974-2.75699.23477-.86891.32036-1.47634.38839-1.47634.16533zm-.35278-1.58753c0-.17171.41385-.58337.91966-.91479.69685-.45659 1.01735-.5034 1.32291-.19321.30333.30793.23357.53462-.28152.91479-.75965.56067-1.96105.67903-1.96105.19321zm78.316668-2.02931c-2.4678-.36032-4.58611-.91993-4.58611-1.21156 0-.18011.33448-.32748.74329-.32748.51578 0 .68114-.16198.54024-.52917-.29761-.77555.68541-.65822 1.46111.17439.8552.91795 3.58158 1.30191 5.01843.70674 1.52614-.63214 1.67415-.22051.23954.66613-1.1747.72601-1.5843.78846-3.4165.52095zm88.74301-.92168c.32766-1.06879.84735-1.67569 1.4349-1.67569.64283 0 .61599.71572-.0632 1.68539-.74584 1.06484-1.69906 1.0581-1.3717-.01zm-3.63537-.0308c-2.0794-.407-2.36533-.9939-.80009-1.64224 1.24427-.51539 2.19884-.25796 1.90292.51319-.14673.38239.0112.54252.53512.54252.42552 0 .7433-.22623.7433-.52917 0-.59455.8982-.72089 1.23626-.17389.12076.1954-.0286.4505-.33196.56691-.30334.1164-.55153.43278-.55153.70306 0 .54103-.0676.54152-2.73402.0196zm-4.49792-.93463c-.38806-.1429-.94368-.18062-1.23472-.0838-.29104.0968-.10641-.26496.4103-.80389 1.03454-1.07901 2.05914-1.00657 2.05914.1456 0 .87253-.33453 1.07361-1.23472.74212zm-92.42778-.4244c-1.16417-.19914-3.46604-.40635-5.11528-.46046-1.64923-.0541-3.71298-.21121-4.58611-.3491-.98692-.15585-2.52173-.0584-4.05694.2575-4.14766.85356-8.71752.28777-9.16916-1.13522-.15224-.47968-.71379-.66151-2.48108-.80337-1.957678-.15715-4.400768-1.08815-3.974378-1.51454.0744-.0744 1.00095.0952 2.05908.37677 1.05813.2816 2.601958.51387 3.430738.51618 1.26676.004 1.57152.14607 1.91256.89459.55131 1.20999 1.51679 1.37819 5.89021 1.02618 5.07071-.40814 13.50164-.19858 16.09036.39993 1.34774.3116 2.9638.41152 4.44862.27507 1.56761-.14405 2.41275-.0836 2.57846.18456.16182.26183-.10731.39886-.78341.39886-.56645 0-1.72676.0664-2.57846.14756-.8517.0812-2.50104-.0154-3.66521-.21451zm87.47915-.19763c-.28071-.89505-.54365-.9812-1.14855-.3763-.2296.2296-.5127.3222-.62912.20579-.11641-.11642.14552-.56886.58209-1.00542.44961-.44962.79375-1.2271.79375-1.79329 0-1.07546.12879-1.16759.92671-.66289.44057.27867.41915.4319-.14795 1.05854-.58869.6505-.60275.78155-.12528 1.16806.37846.30637.45773.69669.26755 1.31731l-.27025.88195zm1.71895-.0278c.32112-.35483.58385-.83108.58385-1.05834 0-.22725.17726-.41319.39392-.41319.23635 0 .30883.3175.18121.79375-.117.43656-.21489.91281-.21754 1.05833-.003.14552-.34692.26458-.76505.26458-.71415 0-.72484-.0391-.17639-.64513zm-76.67449-1.58158c-1.06715-.17895-3.17811-.3031-4.69102-.27588-1.51291.0272-3.02103-.10812-3.35139-.30074-.51816-.30213-.47953-.35933.2813-.41653 2.16945-.16309 9.30642.40335 9.67787.7681.53302.52341.1386.56972-1.91676.22505zm50.33922-.11556c-.28184-.28185.0368-.83274.4816-.83274.18258 0 .33196.23813.33196.52917 0 .54554-.41626.70086-.81356.30357zm3.1016-.1353c-.24125-.39035.28365-1.46145 1.01268-2.0665.72508-.60176 1.03318.0568.53653 1.14683-.44357.97355-1.22809 1.43926-1.54921.91967zm34.23953-.32028c-.11164-.18063-.0416-.42812.15557-.54999.42099-.26019 1.06408.07 1.06408.54643 0 .42926-.95483.43204-1.21965.004zm-40.54211-.66133c-.0972-.15734.17093-.70563.59595-1.21843.60571-.7308.98248-.88906 1.7429-.73208.53357.11014.97014.43058.97014.71208 0 .34378-.2219.44139-.67587.2973-.37173-.11798-.77745-.0502-.9016.15072-.35141.5686-1.53476 1.10878-1.73152.79041zm-2.13797-.38723c-.2829-.45774.63504-2.14503 1.16862-2.14806.37055-.002.38982.11093.0821.4817-.22113.26645-.31082.72221-.19931 1.01281.21391.55743-.74315 1.15233-1.05142.65355zm-2.84332-.27211c-1.59349-.3526-1.69713-.4396-1.21528-1.02019.24843-.29934.76663-.7128 1.15156-.91881.58191-.31143.66299-.27845.48106.19565-.27735.72276-.0909.72248.63259-.001.67318-.67318 1.17795-.37684.58175.34154-.22502.27113-.31004.75122-.18891 1.06685.22452.58512-.0391.64651-1.44277.33592zm-56.26806-.6862-2.29305-.47011 1.94027.1649c1.06716.0907 2.45622.16629 3.08681.16798.63059.002 1.14653.16181 1.14653.35584 0 .43772-.93656.38496-3.88056-.21861zm-13.84021-.0371c.63407-.0785 1.58657-.0769 2.11667.004.5301.0805.0113.14474-1.15285.14276-1.16416-.002-1.59788-.0678-.96382-.14635zm5.81452-.34978c.53357-.0808 1.4067-.0808 1.94027 0 .53358.0808.097.14696-.97013.14696-1.06716 0-1.50372-.0661-.97014-.14696zm54.43576-.35212c-.11827-.30823-.47638-.46256-.84788-.3654-.51624.13499-.61169.004-.48376-.66554.12365-.64682.3874-.83371 1.17659-.83371.55946 0 1.03705.15875 1.0613.35278.0243.19403.0639.53798.0882.76435.0804.75076.96921.73429 1.16689-.0216.10682-.4085.43844-.74272.73692-.74272.46236 0 .45115.10115-.0757.68332-.34012.37583-.53338.8209-.42946.98904s-.34595.32088-.99969.33941c-.75934.0215-1.26259-.15902-1.3934-.4999zm3.68978.16382c.011-.89419.60503-1.40065 1.3614-1.16059.61461.19507.68372.36042.38441.9197-.40302.75304-1.75437.9395-1.74581.24089zm1.32494-.55145c.0859-.2578-.0754-.33664-.41892-.20479-.30726.1179-.55865.36936-.55865.5588 0 .46369.80179.17333.97757-.35401zm-186.047748.13805c-.25327-.66002.4061-1.8567 1.2810496-2.32495.38361-.2053.69747-.551972.69747-.770369 0-.489578 2.09738-2.400307 2.63478-2.400307.21507 0 1.00075-.310851 1.74596-.690778 2.23999-1.142016 4.17532997-1.263678 6.51741-.409713 2.42369.883723 5.7363 1.003752 6.37755.231084 1.07135-1.290895 4.3985504-3.079605 6.9351604-3.728364 3.24303-.829426 5.69593-.883906 7.41716-.164729 1.60832.671999 3.16411.678695 3.41891.01471.10857-.282948 1.11774-.779515 2.2426-1.103481 1.12485-.323967 2.81504-.97626 3.75596-1.449543.94093-.473283 1.81304-.758253 1.93802-.633264.50247.502468-2.22445 2.182163-4.20766 2.591791-1.13866.235186-2.50373.799627-3.05435 1.262944-.89367.751981-1.15686.803042-2.57173.498959-.86689-.186316-2.21831-.458721-3.00316-.605342-1.91351-.357477-6.77138.474958-7.99552 1.3701-.52572.384426-1.11138.698955-1.30146.698955-.19009 0-1.10214.654777-2.0268 1.455057l-1.6811804 1.455057-2.34648-.218081c-1.29056-.119948-3.02426-.457221-3.85268-.749501-2.16112003-.76249-3.86066-.65925-6.22429.378108-2.3845 1.046518-4.13295 2.576377-5.10906 4.470337-.71343 1.38425-1.2626196 1.66836-1.5876596.82131zm177.450608-.20396c.11088-.48507.20377-1.08038.20642-1.32292.003-.24253.24294-.44097.53399-.44097.73512 0 .64775.71922-.21427 1.76389l-.72775.88194zm-112.765838-.0283c-.81118-.47247-.78107-1.12535.0882-1.91202 1.04583-.946461.86731-1.78409-.70555-3.310499-1.50487-1.460426-1.66408-1.971146-.92003-2.951307.67385-.887695 1.02961-.760342.82763.29627-.12897.674631.0866 1.180832.82386 1.935092 1.17759 1.204662 1.64762 3.173888 1.06354 4.455804-.22567.4953-.36468.93598-.30891.97931.0558.0433.41891.25611.80696.47285.66838.37331.65909.39408-.17639.39408-.48507 0-1.15975-.16181-1.4993-.35958zm102.898498-.0845c-.25855-.67377.83906-3.06221 1.40723-3.06221.6236 0 .30927 1.39312-.37343 1.6551-.59333.22768-.63127 1.05798-.0571 1.24937.2613.0871.18873.23099-.18975.37623-.36284.13923-.6839.0501-.78697-.21849zm2.71073.13781c-.60757-.3755-.36697-1.79917.38357-2.26957.75029-.470248 1.1576-.10459.81318.73003-.17523.42463-.31519.48762-.42576.1916-.22674-.60701-.81147-.55609-.81147.0707 0 .2814.25851.65631.57447.83313s.42744.41236.24774.52342c-.17971.11106-.53148.0754-.78173-.0793zm1.60586-.0996c-.26408-.16193.2707-.87948 1.50692-2.02195 2.06318-1.906725 2.66643-2.021431 1.69081-.3215-.33591.58528-.61074 1.42537-.61074 1.86687 0 .66984-.18024.7965-1.08882.76516-.59885-.0207-1.27303-.15052-1.49817-.28858zm1.88143-.98371c0-.19402-.14938-.35277-.33195-.35277-.18258 0-.43007.15875-.54999.35277-.11992.19403.0295.35278.33196.35278.30249 0 .54998-.15875.54998-.35278zm30.17128 1.07253c-.29918-.48408-.0343-.8475.48704-.6683.21352.0734.24081.32244.0661.60357-.22049.35489-.36352.37162-.55319.0647zm-38.46155-.36697c-.14081-.22784-.0794-.59093.13657-.80685.21593-.21593.39259-.84208.39259-1.39144 0-.574845.23109-1.087533.54439-1.207753.91249-.35016 1.00794.15252.32785 1.726753-.81344 1.88289-1.07894 2.20104-1.4014 1.67929zm-41.37949-.16681c.45886-.50079 3.26532-.81381 4.86699-.54285 1.51226.25584 1.47047.27089-.88195.31754-1.35819.0269-2.86632.14962-3.35139.27263-.48507.12302-.77021.10172-.63365-.0473zm9.10032-.2194c-1.04685-.19201-.92608-.23353.79375-.27291 1.11566-.0255 2.02847.0144 2.02847.0888 0 .29135-1.65046.399-2.82222.18409zm14.69557-.47539c-1.19706-1.1094-1.17919-1.33824.20929-2.680206 1.41603-1.368591 3.03573-2.10264 4.63954-2.10264 1.07152 0 1.23642-.119895 1.33425-.970139.0867-.753438.46623-1.142633 1.69913-1.742369 2.3304-1.133609 4.83681-1.910511 7.23194-2.241653 1.95822-.270735 2.2223-.419675 3.52778-1.989574.77611-.933313 2.00413-2.309167 2.72894-3.057455l1.31782-1.360524 4.85579.251067c5.65177.292224 6.44328.66791 6.44328 3.058251 0 1.507772.18015 1.607672 1.38157.766163.66001-.462294.96897-.498542 1.48777-.174551.52968.330796.78117.282497 1.3165-.252829.79291-.792907 3.7873-.970587 4.61844-.274048.29938.250899.89382.473445 1.32097.494541.94386.04662 2.85036 1.402571 3.10643 2.209373.53761 1.693856 4.04271 3.202725 4.81426 2.072439.25887-.379232.31107-.330196.22639.212697-.25423 1.629953-4.85102.486082-5.56204-1.384067-.41112-1.081303-2.17692-2.3201-3.30712-2.3201-.49217 0-.99297-.15875-1.11289-.352777-.38067-.615947-3.05028-.41697-3.54857.264491-.39439.539359-.59853.561718-1.61735.177158-1.07839-.407049-1.22868-.372501-2.00051.459885-.45899.495-1.01431.840069-1.23404.766826-.47814-.159378-.86466-1.420499-.91298-2.978866-.0216-.697738-.2727-1.256143-.65252-1.451257-.33955-.174428-2.40447-.421027-4.58873-.547998-4.73944-.275508-4.92026-.195175-7.47884 3.322556-.95932 1.318941-2.02984 2.480176-2.37895 2.580523-.3491.100344-1.96734.446151-3.59607.768456-5.18939 1.026915-7.09283 1.972028-7.09283 3.521812 0 .690573-.23728.801815-2.13293.999949-3.94665.412507-5.87988 2.115658-4.33682 3.820706.90724 1.0025.34515 1.10917-.7069.13416zm12.47616.46067c-.0106-.77973-2.10452-1.10295-2.85784-.44114-.5985.5258-1.34419.61754-2.23643.27516-.89677-.34413-.64139-.87857.30618-.64074.64099.16087 1.09655-.0155 1.76389-.68281.49483-.494831.89969-1.145036.89969-1.444897 0-.310014.30436-.5452.70556-.5452.51286 0 .70555.235186.70555.861123 0 1.265534.5901 1.416474 1.5382.393457.85285-.920239 1.6368-1.183196 1.6368-.549025 0 .194028-.14805.352778-.329.352778s-.4217.277813-.535.617361c-.11329.339553-.51734 1.014233-.89787 1.499303-.52033.66327-.69383.7388-.69973.30463zm1.75605-.2965c0-.51505 1.67692-1.514622 2.10115-1.25244.64471.39846.39579.98102-.33726.78932-.45857-.11992-.70556-.0108-.70556.31163 0 .27288-.23812.49614-.52917.49614-.29104 0-.52916-.15509-.52916-.34465zm-51.681948-.73773c-.46493-.18394.0665-.2876 1.558108-.30393 1.24501-.0136 2.19751.0327 2.11666.10305-.35415.30805-3.03367.45452-3.674768.20088zm9.877778.0241c-.49872-.21431-.0592-.31045 1.49931-.32798 1.25125-.0141 2.20486.12778 2.20486.32798 0 .42546-2.71407.42546-3.70417 0zm107.31229-.77522c-.55373-.416609-.27593-.471201 2.10933-.414514 1.51087.03591 3.86159-.171129 5.22382-.460082 3.43318-.72825 4.24067-.74997 4.24067-.114085 0 .594604-1.97475.923911-7.58472 1.264811-2.53406.154-3.50691.0867-3.9891-.27614zm-120.188678-.5905c0-.16903-.78722-.411759-1.74939-.539394-1.9312-.256184-2.54907-.797437-1.65589-1.450548.8076-.590533.72888-.877729-.24057-.877729-.47041 0-1.22804-.453877-1.76661-1.058333-.99135-1.112616-.44309-1.571819.61425-.514481.29912.29912 1.03708.715793 1.6399.92594.91429.318724 1.0615.519729.88772 1.212123-.17414.693843-.0484.86373.76655 1.035353.53618.112921 1.20355.32626 1.48305.474084.63588.336328.91582 1.100314.40317 1.100314-.2102 0-.38218-.1383-.38218-.307329zm32.808338-.751004c0-.400146 1.42606-.400146 2.99861 0 .87102.221636.69932.276687-.97014.31104-1.14496.02356-2.02847-.111919-2.02847-.31104zm88.19444.101314c-.29104-.107668-1.13686-.483584-1.87959-.835367-1.52838-.723893-4.18375-.927199-6.70985-.513733-1.54755.253302-1.69842.218362-1.58565-.367199.14849-.771024 1.57292-1.203819 2.66607-.810056.47925.172629.87272.133439 1.01784-.101374.39686-.642129 3.45578-.06644 4.91744.925474.74017.502299 1.71457 1.005829 2.16531 1.118958.45075.113132.81954.347232.81954.520227 0 .34362-.58239.369651-1.41111.06307zm-112.7125-.454092c-1.90431-.210676-1.75389-.240118 1.49931-.293472 2.215-.03633 3.61597.07737 3.61597.293472 0 .377476-1.70324.377476-5.11528 0zm12.10846-.602964c-1.29666-.198378-1.65527-.772608-1.29968-2.081103.59468-2.188292 4.73433-3.893796 5.93617-2.445661.53656.646515.18365 2.401747-.62536 3.110329-.60791.532441-2.76862 1.710002-2.9611 1.613764-.0581-.02907-.53066-.11787-1.05003-.197329zm2.84844-1.652792c1.34777-1.390545 1.34121-2.384238-.0167-2.528295-.96209-.102066-1.72637.528733-2.86227 2.362366-.66744 1.077411-.50216 1.363352.78804 1.363352.59459 0 1.34918-.432143 2.09092-1.197423zm-20.971388 1.163521c-.67476-.263995-.67442-.270112.0173-.311359 2.107638-.125673 8.045428-.01718 8.212658.150051.10737.107364-.50594.201143-1.36289.208396-.85696.0073-2.59775.06021-3.86843.117691-1.27067.05748-2.620048-.01669-2.998608-.164779zm22.771428.264086c0-.06743.72224-.900864 1.60498-1.852084.88274-.951219 1.75922-2.10585 1.94775-2.565844.28411-.693247.5196-.800986 1.37625-.629656.56842.113687 1.52567.03514 2.12722-.174572 1.2752-.444542 1.70592-.198811 1.04576.596632-.32909.396526-.9274.528084-2.04427.449499-1.6848-.118547-2.55745.645185-1.15597 1.011682 1.11009.290294.89569.817492-.33245.817492-1.01416 0-2.80538 1.38437-2.80538 2.168179 0 .165696-.39687.301265-.88194.301265s-.88195-.05517-.88195-.122593zm8.11389-.953746c2.32838-.414302 5.37583-.403574 5.11528.01799-.12315.199266-1.62895.333562-3.4604.30862-2.79067-.038-3.02122-.08351-1.65488-.326626zm-54.858898-1.04249c-.78271-.864891-.44067-1.37281.37511-.557025.32073.320724.84423.510511 1.16333.421742 5.07038-1.410448 8.35168-2.007376 9.11719-1.658581.46464.211702 1.5914.400861 2.5039.420352l1.6591.03544-1.41111.334257c-.9478.224504-1.8745.205905-2.82244-.05665-1.5464-.428322-3.22964-.16673-6.91432 1.074547-2.5655.864256-2.87696.863064-3.67076-.01408zm32.986678-.669823c0-.28751 2.7902-.117774 3.1456.191358.0808.07032-.59384.12785-1.4993.12785-.90547 0-1.6463-.143644-1.6463-.319208zm89.95834-.501364c-.48507-.254892-1.55348-.888915-2.37424-1.408934-1.14881-.727865-1.93572-.945494-3.41877-.945494-1.05955 0-2.02458.15875-2.14449.352778-.25432.411487-.88444.474888-.87655.08819.0157-.769863.77081-1.201113 2.35516-1.345089 1.95039-.177242 4.19484.459483 5.64747 1.602123.49861.392208 1.20266.713105 1.56455.713105.42279 0 .65798.25219.65798.705556 0 .826886-.21959.863885-1.41111.237761zm-222.757838-1.672343c-1.0482-2.086931-.79657-2.89717.80319-2.586214.51665.100429 1.63882-.06676 2.4937-.371517.85489-.304761 1.63638-.472062 1.73666-.371785.10028.10028-.47839.747878-1.28594 1.439107-.82731.708152-1.59251 1.736235-1.75287 2.355085-.43342 1.672646-.98586 1.543956-1.99474-.464676zm1.83092-1.299446c.21597-.648638-.85746-.538339-1.10771.113824-.14847.386884-.0353.520347.37399.440972.32279-.0626.65296-.312261.73372-.554796zm1.63399 2.576601c-.15883-.413893-.0427-.748027.33297-.958279.31726-.177542.99187-1.031018 1.49914-1.896607 1.01114-1.725391 1.40431-2.008756 1.08232-.780048-.11441.436562-.0217 1.309585.20603 1.940048.52019 1.44018-.0442 2.264911-1.09908 1.606116-.51252-.320079-.76666-.286625-1.21295.15966-.51759.517589-.58488.511687-.80843-.07089zm69.14365-.0021c-.27739-.722856.0632-1.136092 1.16401-1.412381 1.71912-.431472 2.98634-1.580723 2.86683-2.599958-.14361-1.224777-2.10365-2.530944-3.79795-2.530944-1.01726 0-1.45372-.217928-2.04901-1.023098-1.52025-2.05625-5.48288-1.7395-8.01933.641015-1.06225.996953-2.64583 1.638092-2.64583 1.07121 0-.584324.87145-2.279372 1.31549-2.55874.24662-.155162.4484-.654115.4484-1.108784 0-.748502.5811-1.254936 1.43996-1.254936.17816 0 .32393.238125.32393.529166 0 .291042-.22743.529167-.50539.529167-.27797 0-.61372.357188-.74611.79375-.13239.436563-.56763 1.150938-.96721 1.5875-1.2737 1.391599.12516.915017 1.67619-.571066.78345-.750649 1.95209-1.540216 2.59697-1.754594 1.7474-.580888 4.5637.09173 5.81274 1.388264 1.05508 1.095211 1.95302 1.294827 2.65714.590704.34467-.344667.47762-.271479.64087.352777.24663.94312 1.35448 1.047225 1.84359.173243.18911-.337933.4688-.489462.62153-.336734s.0816.591626-.15799.975325c-.30916.495035-.33089.893445-.0748 1.371875.65926 1.231843.40967 2.380707-.72456 3.335097-.59697.502317-1.31134.913303-1.5875.913303s-.5021.15875-.5021.352778.59531.355208 1.32292.358179c.98403.004 1.18736.09301.79375.347377-.84604.546749-3.51916.43295-3.7465-.159495zm47.75553-.07414c.24253-.09786.6394-.09786.88194 0 .24253.09786.0441.177938-.44097.177938s-.68351-.08007-.44097-.177938zm6.614578-.11914c1.57612-.401056 3.35139-.401056 3.35139 0 0 .202007-.94231.334938-2.20486.31104-1.75504-.03323-1.98895-.09668-1.14653-.31104zm-27.693058-.516756c0-.875552.62414-1.088895 7.3497-2.512279.45282-.09583.7387-.03735.63529.129978-.10341.167326-1.5499.602586-3.21443.967253-1.66452.364666-3.33283.948503-3.70734 1.297418-.82597.769507-1.06322.795757-1.06322.11763zm-91.10486-.07552c-.87827-.234753-.79291-1.758396.12607-2.250218.89958-.481436 1.2887-.145112 1.43749 1.242455.11611 1.082862-.2939 1.347131-1.56356 1.007763zm151.948738-.09664c.12558-.203182.68486-.369421 1.24287-.369421.558 0 1.43215-.158772 1.94255-.352828.62947-.239324 1.15074-.23363 1.62035.01771 1.15569.618507.49641.897414-2.33499.987806-1.81021.05779-2.6239-.0355-2.47078-.283256zm-24.50777-.369421c.69965-.452149 2.21972-.452149 1.94028 0-.11991.194027-.7246.350347-1.34374.347376-.85657-.0041-.99919-.08716-.59654-.347376zm-123.695748-.524781c-.11076-.288646.21172-1.229727.71663-2.091291.50491-.861565.91801-1.816022.91801-2.12102 0-.319356.29924-.554542.70556-.554542.9006396 0 .8900796.08906-.20699 1.746857-.5019.758426-.84358 1.667834-.75929 2.020908.13056.546898.20822.511359.52443-.239987.3279-.779114.40086-.808429.62569-.251443.3119296.77276-.71199 2.015332-1.6607 2.015332-.36407 0-.75258-.236168-.86334-.524814zm106.50455.280342c.34324-.08944.81949-.08356 1.05833.01305.23885.09664-.042.169816-.62407.162627-.58208-.0072-.7775-.08625-.43426-.175698zm6.607868-.149324c0-.171467.58208-.31176 1.29352-.31176.71143 0 1.19095.10257 1.06558.227937-.35925.359255-2.3591.430315-2.3591.08382zm-109.1259184-.899724c-.74183-.741825.62949-2.587036 1.92262-2.587036.58475 0 .70471.160599.55307.740449-.16436.628523-.0773.704652.57622.503615.42341-.13026.9531-.251795 1.17709-.27008.3078-.02512.3078-.193791 0-.690767-.3226-.520866-.29726-.727484.12192-.994135.69363-.441229 1.41111-.438502 1.41111.0054 0 .194027-.17819.352777-.39597.352777-.27509 0-.26304.160176.0395.524676.57135.688432.20375 1.591991-.64768 1.591991-.37045 0-1.24345.238125-1.94001.529167-1.35087.56443-2.43436.677467-2.81784.29398zm1.73708-1.790689c-.24465-.244648-.91394.25243-.91394.678779 0 .233927.20242.207162.5377-.07109.29573-.245434.46504-.518893.37624-.607687zm60.8548404 1.673097c-.0451-1.035328.40982-2.116666.89042-2.116666.26841 0 .48803.15875.48803.352778 0 .194027-.14553.352777-.32339.352777-.17785 0-.48282.436563-.6777.970139-.19488.533577-.36469.732014-.37736.440972zm2.33314-.700119c.20824-.7963 1.08064-1.615479 1.39047-1.305644.34299.342991-.13489 1.225289-.8795 1.62379-.59154.316579-.66499.270845-.51097-.318146zm4.88643.259147c-.46543-1.532223-.45423-2.028472.0458-2.028472.29104 0 .61455.326478.71889.725509.12572.480741.37569.654145.74095.513983.42988-.164959.40763-.05286-.10104.509217-.74536.823605-1.21117.91639-1.40456.279763zm24.00179.179419-1.73069-.134376 1.13511-1.036758c.74667-.681979 1.51085-1.036757 2.23315-1.036757h1.09806l-.82854.881945-.82855.881944 3.50108.0054c1.92559.0028 3.7392.15929 4.03024.347377.52486.339189-4.70286.394579-8.60986.09122zm9.84459-.109946c.9274-.373909 5.468048-.415735 5.468048-.05037 0 .156027-1.389058.295194-3.086798.309259-1.88718.01563-2.81261-.08498-2.38125-.258889zm-82.72639-.484876c0-.27698.49002-.887102 1.08894-1.355827.84932-.664693 1.10454-1.15565 1.15982-2.231111.039-.758388.16311-1.53733.27584-1.730982.11274-.193651.40463-.987093.64867-1.763204.5394-1.715449 1.30354-2.645834 2.17307-2.645834.84582 0 .82553.438148-.0573 1.237095-.98438.890851-1.79008 2.584011-1.35699 2.851676.19088.117973.89238.112193 1.55889-.01284 1.07565-.201793 1.21183-.142014 1.21183.531943 0 .547432.1557.699539.55803.545152.3069-.117772.77769-.214132 1.04618-.214132.31941 0 .56905-.609751.72215-1.763889.18636-1.404856.36835-1.763889.89409-1.763889.70863 0 .90482.865453.28328 1.249587-.20725.12809-.30365.423585-.21421.656655.0894.23307-.0508.931387-.3117 1.551816-.37773.898356-.69328 1.137032-1.54968 1.172151-3.74899.153733-3.72117.158026-3.72166-.574178-.0007-1.033558-1.03961-.873798-1.153.177303-.24647 2.284627-.49633 3.108836-1.15772 3.818748-.80652.865692-2.09853 1.028087-2.09853.263765zm5.82083-4.788069c.11992-.194028.0593-.352778-.13475-.352778-.19403 0-.45089.15875-.57081.352778-.11991.194028-.0593.352778.13476.352778.19402 0 .45088-.15875.5708-.352778zm46.0375 4.955487c0-.612634.80447-2.11377 1.0511-1.961346.4379.270637-.0579 2.297526-.56197 2.297526-.26902 0-.48913-.151282-.48913-.33618zm2.90312-.898542c.0794-.959934.19733-1.030034.94065-.559368.60675.384192.25664 1.441312-.47736 1.441312-.35632 0-.51179-.295963-.46329-.881944zm63.860068.648306c-.81856-.330295-.44845-.824695.61736-.824695.70556 0 1.05834.176389 1.05834.529166 0 .515507-.78669.654248-1.6757.295529zm-61.182748-1.100825c-.1226-.835343-.0113-1.125252.48144-1.254107.75123-.196452.80139.31358.14696 1.494454l-.46893.846163zm2.21098.64764c-.35018-.216426-.37047-.450476-.0821-.946863.36215-.623323.38368-.62448.39382-.0212.006.351.16948.540068.36351.420152.19402-.119917.35277-.05928.35277.13475 0 .532853-.50557.736039-1.02802.413149zm19.90164-.01873-1.05834-.2693 1.14653-.04174c.63059-.02295 1.14653.117013 1.14653.31104 0 .194028-.0397.333996-.0882.311041-.0485-.02297-.56444-.162927-1.14652-.311041zm-93.1742404-.508561c-.49766-1.296856.81793997-2.912455 1.67429997-2.056101.3204.320407.32125.534779.004.917497-.22796.274673-.31537.75765-.19425 1.073284.16107.419732.0176.573881-.53415.573881-.4149 0-.84218997-.22885-.94951997-.508561zm98.6422904.155784c.68395-.442003 1.05833-.442003 1.05833 0 0 .194027-.35718.350347-.79375.347376-.64185-.0044-.69248-.07084-.26458-.347376zm-95.2443104-.349261c-.40968-.253196-.38176-.542272.1707-1.767406.53718-1.191256.57277-1.51891.19064-1.755079-.73779-.45598-.14012-1.419921.88039-1.419921.78828 0 .88239.111264.67137.79375-.13499.436563-.53397 1.365903-.88663 2.0652-.44114.87473-.5275 1.385157-.27678 1.635876.47952.479521-.11942.837107-.74969.44758zm61.0527204-.209303c.0169-.410968.10052-.494559.21313-.213138.10191.25466.0894.558931-.0278.676159-.11723.117224-.20061-.09114-.18529-.463021zm11.34195-.246154c.0525-.539609.25422-.99519.44825-1.012402.19403-.01721.69364-.160891 1.11026-.319288.41661-.158394.85179-.193672.96707-.07839.34019.340187-.52168 1.156465-1.22105 1.156465-.35466 0-.81474.277813-1.02242.617361-.31933.522115-.36285.465999-.28211-.363745zm1.85936.45194c-.11991-.194028.10884-.352778.50835-.352778s.72638.15875.72638.352778-.22876.352778-.50835.352778-.60646-.15875-.72638-.352778zm-72.1059404-.83723c-.50826-.612408-.23651-1.337973.72633-1.939272.71554-.446863.73982-.418293.53118.624949-.16848.842359-.0945 1.09322.32252 1.09322.29764 0 .44305.15875.32314.352777-.31546.510413-1.43454.432986-1.90317-.131674zm117.0851084.131674c0-.194027.54625-.352777 1.2139-.352777s1.31202.15875 1.43193.352777c.13168.213053-.34911.352778-1.2139.352778-.78756 0-1.43193-.15875-1.43193-.352778zm3.70417 0c.11991-.194027.45615-.352777.74719-.352777s.43106.15875.31114.352777c-.11992.194028-.45615.352778-.74719.352778-.29105 0-.43106-.15875-.31114-.352778zm-117.7098184-.528792c-.37668-.376686.26265-2.469819.75439-2.469819.69878 0 .66878 2.434742-.0317 2.569637-.28727.05532-.61249.01041-.72272-.09982zm2.52787-.155942c0-.182577.16909-.436464.37576-.564191.2470804-.152703.1748404-.45424-.21095-.880533-.66896-.739198-.49383-1.229988.5349004-1.499007.91822-.24012 1.26199.307705.4709.750421-.51093.285936-.534.429615-.14434.899134.25508.307347.37163.79896.25899 1.092475-.22185.578146-1.2852604.745031-1.2852604.201701zm85.5168104.03062c.13741-.222324.59765-.411233 1.02276-.419795 1.69357-.03411 8.357648-2.309722 8.357648-2.853916 0-.16803-.91281-.333602-2.02847-.367939-1.11566-.03433-2.742848-.110024-3.615968-.168195-.87313-.05817-2.59536.05667-3.82719.255211-2.13667.34437-5.34529.146728-5.3448-.329225.00023-.228413 4.73294-.473853 9.52477-.493956 2.703478-.01134 5.840418.307271 6.394048.649431.76838.474887.17733 1.156823-1.33207 1.536893-.90243.227235-2.10503.653228-2.67245.946651-.56742.293426-1.853128.668076-2.857128.832559-1.004.164486-2.2857.415491-2.84821.557791-.7303.184743-.95132.143136-.77294-.145503zm-62.83254-.635565c-.26553-.691938 1.03863-1.885322 2.06033-1.885322 1.05936 0 1.24877 1.068684.32237 1.818838-.99794.808083-2.08647.838457-2.3827.06649zm2.13775-.650599c.13812-.359936-.019-.529167-.49142-.529167-.38214 0-.69449.237998-.69449.529167 0 .291041.22115.529166.49143.529166s.5828-.238125.69448-.529166zm-6.47757-.458612c0-.543277.1905-1.178277.42333-1.411111.59579-.595784 1.69333-.527187 1.69333.105834 0 .291041-.30813.529166-.68473.529166-.79419 0-1.25631.554431-.73213.878389.53797.332486.43141.8855-.17064.8855-.34437 0-.52916-.344939-.52916-.987778zm36.68889.635c0-.194027.15875-.352777.35277-.352777.19403 0 .35278.15875.35278.352777 0 .194028-.15875.352778-.35278.352778-.19402 0-.35277-.15875-.35277-.352778zm43.925498.0018c-.55028-.193029 5.53049-.800277 7.58005-.756972 4.82545.101956 9.17372.401267 9.1734.631443-.00036.350933-15.77396.469114-16.75345.125529zm-82.570268-.444249c-.11832-.308326-.006-.930184.25055-1.381908l.46566-.82144.11825 1.013115c.13722 1.175667-.49435 2.076414-.83446 1.190109zm-2.76372-.880431c.28656-1.194477.34013-1.257226 1.18313-1.385878.92691-.141456 1.24503.488085.38463.761163-.38094.120909-.79082.529213-.91084.907343-.33814 1.06542-.92023.814987-.65692-.282628zm47.40571.617361c0-.194028.15875-.352778.35278-.352778.19402 0 .35277.15875.35277.352778s-.15875.352778-.35277.352778c-.19403 0-.35278-.15875-.35278-.352778zm13.58194-2.168034c-6.20759-.626363-6.86087-.736233-7.26372-1.221641-.32864-.395987-.29252-.643182.16838-1.152471.52818-.583638.53223-.69361.0405-1.101708-.75223-.624292-5.10111-.631013-10.05488-.01554-2.23132.277227-5.23549.49674-6.67593.487807-2.81839-.01748-3.03477-.149185-5.0704-3.086156-.65473-.94463-1.8482-1.229497-2.09162-.499242-.30473.914187-.92337-.130164-.74139-1.251569.1712-1.055008.0612-1.256296-1.06738-1.953818-.98679-.609871-1.40851-.697214-1.95479-.404855-1.04741.560554-4.72073.464061-5.5262-.145165-.37663-.284871-1.27103-.522996-1.98754-.529167-1.69272-.01458-3.75274-1.237684-4.04486-2.401574-.18234-.726493-.0241-1.069587.79613-1.725889.56303-.450527 1.44474-.819929 1.95933-.820893 1.23005-.0023 1.98609-1.816825 1.23784-2.970868-.26212-.404278-.56855-1.432758-.68096-2.285511-.17546-1.331168-.50752-1.831859-2.34774-3.540026-1.17886-1.09426-2.14338-2.178413-2.14338-2.409229 0-.436053-1.59081-1.377352-3.15439-1.866477-.4964-.155287-1.77568-.612778-2.84283-1.016646-5.44303-2.059932-7.49888-2.298681-12.08538-1.403496-2.12846.415429-2.58222.39861-4.23333-.156911-3.34554-1.125611-10.1190404-.371752-15.7840704 1.75669-1.26118.473846-2.59262 1.029908-2.95875 1.235693s-1.20439.676727-1.86281 1.046537-1.48778.672382-1.84303.672382c-.48217 0-.60691.20395-.49209.804589.12023.628969-.34904 1.280179-2.1499496 2.983464-1.26707 1.198381-2.95202 2.509594-3.74435 2.913807-2.41845 1.233805-2.87339 2.356792-2.75817 6.808452.0792 3.059823-.004 3.873985-.4246 4.139737-.28776.181947-2.37914.333244-4.64751.336215-2.26838.003-4.20567.137023-4.30509.297892-.0994.16087-1.06869.505499-2.15393.765843-1.08523.260345-2.0545.604974-2.15392.765844-.24366.394239-1.55024.374228-1.55024-.02374 0-.173928.56115-.808928 1.247-1.411111 1.15601-1.014991 1.45845-1.10047 4.14513-1.171519 1.59398-.04215 3.95835-.03049 5.25415.02593 3.9079.170123 4.48432-.527446 3.66283-4.432674-.8192-3.894317.15351-6.058501 3.31715-7.380355.67622-.282541 2.5035-1.823225 4.06064-3.423743 3.3914396-3.485927 4.5039296-4.300894 7.1601096-5.245195 4.36764997-1.552751 6.7992-2.063364 11.52617-2.420436 4.2649804-.322175 5.2061104-.293865 7.0783204.212917 1.75862.476036 2.41693.509111 3.54765.178237 3.63019-1.062272 5.11066-.89019 12.6086 1.465548 4.35067 1.366917 6.59502 2.599783 6.59502 3.622779 0 .250421.75407 1.056257 1.6757 1.790746 2.30328 1.835585 2.436 2.038422 2.70628 4.135859.1308 1.015103.4188 2.355827.64 2.979386.34263.965872.30593 1.240106-.2479 1.852083-.36139.399321-1.09221.71834-1.64562.71834-1.4635 0-2.29731 1.372558-1.64948 2.715233.43564.902917.64602.990052 2.4187 1.00179 1.24469.0082 2.25131.229822 2.8046.617361 1.00536.704182 3.23343.794619 4.23084.171729 1.05644-.659761 3.50309.303865 4.40705 1.735743.39117.619618 1.16731 1.321654 1.72476 1.56008.56622.24218 1.21507.915845 1.47018 1.526416.7943 1.901025 1.72517 2.455292 4.37506 2.605024 1.31847.0745 2.70533-.02944 3.08191-.230975.78362-.419381 7.13486-.968633 9.92076-.857943 1.02837.04086 2.59488.395038 3.48111.787063 1.60589.71036 1.60938.715761 1.03251 1.596181-.5424.827808-.53946.88588.0467.922674 3.67139.230471 10.32688 1.153764 10.32688 1.432612 0 .317068-.20871.311761-4.40972-.112133zm-56.97361-1.88891c0-.32338.17066-.531078.37924-.461551.20858.06953.37923.277224.37923.461551 0 .184326-.17065.392024-.37923.46155-.20858.06953-.37924-.138171-.37924-.46155zm56.09167-.793962c0-.370504 2.05904-.638432 7.78973-1.01362 3.31145-.216801 4.91027.08864 4.91027.938049 0 .485248-1.17575.420631-2.22189-.122109-.6438-.33401-1.56145-.389824-3.30352-.200931-6.54114.709257-7.17459.744451-7.17459.398611zm38.249748-7.892195c-.34521-.558561.18391-.949987 1.60984-1.190896.96241-.162597 1.69888-.587762 2.34472-1.353613.51788-.614106 1.19533-1.070249 1.50545-1.013652.43168.07878.4554.02942.10119-.210611-.35635-.241481-.0835-.873034 1.18742-2.748737.90753-1.339373 2.00623-2.832098 2.44153-3.317167 1.21679-1.355872 1.94296-3.116933 1.72815-4.190969-.28546-1.427304.56285-2.012367 1.9087-1.316399 1.03587.535667 4.88284.537257 8.91077.0037 2.13497-.282814 2.79603.387778 1.72479 1.749645-.80484 1.023191-2.23538 1.2449-2.69805.418154-.67329-1.203097-8.56704-.513415-8.56704.748509 0 .245237-.33895.627285-.75322.848995-.59337.317565-.65084.466381-.27077.70127.38106.235509.27987.509585-.48151 1.304302-1.54261 1.610132-1.30069 1.849476 1.86935 1.849476 2.19305 0 2.87918-.119577 3.03635-.529166.24544-.639598 1.18591-.708631 1.18591-.08705 0 .243165-.49517.909479-1.10038 1.480698-1.03279.974786-1.12871.999828-1.56168.407704-.35436-.484613-1.00509-.643875-2.80681-.686948-1.98665-.04749-2.41941.05187-2.82857.649483-.94757 1.384006-1.77075 2.420964-2.72687 3.435043-1.89838 2.013479-1.44764 2.222498 4.49792 2.085779 2.71768-.06249 4.02287-.45741 7.35449-2.225276.35845-.190202.737-.260537.84124-.156301.31029.310298-.66179 2.331604-1.27675 2.654823-1.24958.656765-16.81033 1.281164-17.17617.68922zm-49.028468-.340415c-.32104-.519454.11206-.859215 1.77314-1.391005 1.45038-.464336 2.53917-1.281696 2.18248-1.638393-.32441-.324405.68921-2.003787 1.5598-2.584308.43646-.291042 1.01487-.767291 1.28535-1.058333 1.15527-1.24309 4.33073-5.373859 4.33073-5.633598 0-.506143-2.23709-.630044-4.6485-.25746-2.50571.387153-2.9729.862373-2.54071 2.58437.40849 1.62754-1.18163 2.908636-2.26524 1.825021-1.30537-1.305366.29639-4.058431 2.9511-5.072271 1.35851-.518822 2.32244-.572823 6.60935-.370266 5.88525.278078 7.21407.09555 7.74216-1.063479.20844-.457469.57218-.831761.80832-.831761.66287 0 1.25834.904085 1.01431 1.540011-.28881.752624-3.33194 1.634989-5.6388 1.634989-1.25261 0-2.0559.196434-2.52462.617361-.87458.78541-5.05103 5.626882-5.85818 6.790972-.33633.485069-1.01136 1.433595-1.50006 2.107835-.56606.780956-.81959 1.500708-.69852 1.983072.16296.64928.002.788234-1.12821.975088-1.97402.326307-3.189.270782-3.4539-.157845zm20.20259-.187983c-.1203-.120297.6073-1.157139 1.6169-2.304094 1.00959-1.146954 1.83562-2.278842 1.83562-2.515306 0-.303814-.62092-.394229-2.11667-.308217-2.40173.138109-3.4263.856847-4.96552 3.483331-.83232 1.420242-.97876 1.51023-2.45768 1.51023-1.66905 0-2.12887-.552507-.74821-.89903.90086-.226102 3.39446-2.919125 6.02729-6.509303 1.8571-2.532389 2.54656-3.090064 3.11611-2.520511.26458.264581.0439.713327-.75039 1.525721-1.67201 1.710175-1.36666 2.236543 1.27405 2.19621 2.5099-.03834 3.01582-.355797 3.95667-2.482747.37489-.847493.915688-1.540896 1.201768-1.540896s.77126-.09636 1.07817-.214132c.88526-.339706.66815.69323-.34594 1.645926-.49718.467075-1.23677 1.387726-1.643538 2.045892-.40677.658166-1.40569 1.882042-2.21983 2.719724-.81413.837683-1.69271 2.048141-1.9524 2.689908s-.63992 1.28348-.84497 1.42603c-.45681.317586-1.76264.350059-2.06143.05126zm6.45458-.132199c.002-.09803.54018-.495746 1.196188-.883802.656-.388055 2.20226-1.94564 3.43613-3.461299 2.01091-2.470159 2.64446-3.410115 3.49265-5.181756.19565-.408657.87151-.519198 2.96776-.485391 2.80906.0453 3.61748.383991 3.24339 1.358836-.17026.443701-.36855.487516-.90559.200101-.37818-.202395-1.34891-.367991-2.15718-.367991-1.20092 0-1.68886.219278-2.66903 1.199445-1.92471 1.924714-1.48579 2.291692 1.68129 1.405701.76032-.212699 1.17511.462742.66307 1.07972-.28687.345653-.96471.427526-2.43545.294165l-2.03794-.184794-1.47117 1.847714c-.80914 1.016243-1.38437 1.988165-1.27827 2.159826.30446.492634 3.75657.359335 4.80062-.185369 1.06419-.555213 1.34794-.419522 1.34767.644472-.00016.709657-.17016.735017-4.93888.736811-2.71629.001-4.937158-.07835-4.935258-.176389zm42.366668.02835c-.28326-.179358-.39576-.563569-.26487-.904637.16966-.442131.48011-.537381 1.22108-.374638.71306.156616 1.25713.01091 1.9271-.516084 1.25735-.989034 5.14011-5.808834 5.55178-6.891621.26241-.690174.57893-.868223 1.54346-.868223h1.21335l.24794 2.645833c.13636 1.455208.35581 2.645833.48767 2.645833.37042 0 2.85237-2.631056 2.85237-3.023735 0-.191485.88998-1.185897 1.97774-2.209805 1.52193-1.432604 2.19199-1.836757 2.9074-1.753638 1.10475.128355 1.47851 1.24308.52079 1.553257-1.90913.618314-2.61245.998306-3.42305 1.849437-1.72883 1.815247-4.53408 5.534791-4.86174 6.446276-.38634 1.074725-1.97308 1.952387-2.52746 1.398-.24495-.244945-.22003-.667507.0779-1.321407.33599-.737414.50826-.847632.73966-.473226.43576.705082 1.41376-.175976 1.41376-1.273632 0-.884747-.53262-1.146147-.8105-.397777-.09.242535-.35827-.03528-.59604-.617361-.30803-.754089-.33358-1.440975-.0889-2.389379.2311-.895731.22446-1.404564-.0203-1.555836-.40694-.251502-.97988.407653-3.75545 4.320514-1.50134 2.116521-2.25743 2.851161-3.46883 3.370428-1.7314.742165-2.15268.792372-2.86487.34142zm14.95472-.385472c-.31928-.516609.24403-.633893 4.94043-1.028634 5.70222-.479283 7.32065-.814267 8.79494-1.820389 1.34019-.914604 2.40999-3.245223 2.07596-4.522575-.27573-1.05439-2.94377-2.001306-4.0412-1.434262-1.10352.570197-2.64766 2.245285-3.34826 3.632204-.72869 1.442545-1.88912 2.706703-2.4846 2.706703-.80734 0-.52584-.576207 1.47261-3.014275 1.06715-1.301909 1.94028-2.486233 1.94028-2.631831 0-.145599-.23638-.460901-.52529-.700671-.91206-.756947-.21794-1.061814 2.39819-1.053316 2.09199.0068 2.8419.17691 4.27669.970139 2.04084 1.128293 2.63395 2.343829 1.94969 3.995772-.60984 1.47228-3.23702 3.525079-5.02013 3.922577-5.05389 1.126634-11.99982 1.673485-12.42931.978558z" stroke-width=".352778" transform="translate(32.357928 -51.145785)"/>
</svg>
