<?xml version="1.0" encoding="utf-8"?>
<svg xmlns="http://www.w3.org/2000/svg" version="1.1" viewBox="0 0 740 740">
	<title>A map of a pentagonal house. The corners are marked A, B, R, O and F. The edge between R and A has the men’s door, and the edge between F and B has a smaller women’s door.</title>
	<path d="m 509.80105,738.05997 c -0.43009,-1.12056 1.08876,-9.78986 3.37517,-19.26512 2.28641,-9.47524 4.15712,-18.09051 4.15712,-19.14503 0,-1.05453 1.12116,-3.30169 2.49146,-4.99369 l 2.49147,-3.07638 1.82927,2.92868 c 1.90307,3.04685 5.76132,3.90331 7.1878,1.59555 1.31377,-2.1254 5.39303,-1.54712 7.79335,1.10482 2.47002,2.72894 2.9658,10.93422 0.792,13.1077 -0.99732,0.99717 -0.60398,2.85758 1.33333,6.30628 3.58587,6.38338 3.48108,12.6607 -0.30512,18.2782 -2.84781,4.22522 -3.54267,4.52983 -10.33334,4.52983 l -7.28022,0 0,-6.33238 c 0,-7.16693 1.81328,-8.42996 4.44765,-3.09801 1.644,3.32745 2.00295,3.45823 4.66667,1.7003 6.15647,-4.06298 3.00257,-15.72922 -3.20449,-11.85342 -3.13242,1.95592 -6.5765,2.0605 -6.5765,0.19967 0,-0.76259 2.4,-3.66925 5.33334,-6.45924 3.60892,-3.43258 5.33333,-6.21706 5.33333,-8.61196 0,-3.81626 -1.66589,-4.36057 -7.06469,-2.30824 -3.65979,1.39123 -4.85815,3.76396 -5.77468,11.43375 -2.14926,17.98579 -3.19372,22.72323 -5.35878,24.30612 -3.0367,2.22016 -4.38237,2.13252 -5.33414,-0.34743 z m -33.13438,-42.6838 c -11.73333,-2.51425 -24.03334,-5.15106 -27.33333,-5.8596 -3.3,-0.70855 -10.5,-2.54115 -16.00001,-4.07245 -5.49999,-1.5313 -14.2,-3.89948 -19.33332,-5.26262 -5.13333,-1.36313 -15.33333,-4.10744 -22.66667,-6.09844 C 384,672.09205 375.30001,669.89449 372,669.19957 c -3.29999,-0.69489 -9.29999,-2.25483 -13.33333,-3.46653 -4.03333,-1.21168 -8.23333,-2.26083 -9.33332,-2.33144 -1.10001,-0.0707 -5.46711,-1.7401 -9.70469,-3.71 -4.23759,-1.96988 -8.76759,-3.58162 -10.06667,-3.58162 -1.29909,0 -2.93199,-0.54569 -3.62865,-1.21264 -3.46478,-3.31702 -60.13296,-17.09411 -64.08109,-15.5793 -1.20463,0.46219 -2.86419,0.2951 -3.68792,-0.3713 -0.82371,-0.66641 -5.09766,-1.93262 -9.49766,-2.81382 -4.4,-0.88119 -13.1,-2.97634 -19.33334,-4.65589 -6.23332,-1.67955 -14.03332,-3.691 -17.33332,-4.4699 -29.60516,-6.98771 -42.01203,-9.66755 -50.00001,-10.79982 -5.13332,-0.72764 -13.23333,-2.21425 -17.99999,-3.30356 -4.76668,-1.08932 -12.57552,-2.87306 -17.35302,-3.9639 -4.77749,-1.09082 -10.17749,-2.54027 -11.99999,-3.22098 -1.82251,-0.68072 -6.1378,-1.65228 -9.58954,-2.15901 -3.45173,-0.50673 -7.543236,-1.94744 -9.092241,-3.20156 -3.052863,-2.47168 -7.965218,-17.96915 -7.965218,-25.12862 0,-2.35557 -0.53327,-4.61239 -1.185044,-5.01515 -0.651775,-0.40276 -1.263486,-9.20044 -1.359356,-19.55041 -0.09587,-10.34996 -0.77389,-21.49315 -1.506706,-24.76264 -0.732819,-3.26949 -1.018871,-6.45174 -0.635674,-7.07167 0.383197,-0.61993 5.803394,-1.55247 12.044879,-2.07231 6.24149,-0.51984 11.63155,-1.40362 11.97791,-1.96397 0.34636,-0.56033 -0.25605,-3.93813 -1.3387,-7.50617 -2.51506,-8.28887 -2.50084,-8.48709 0.60894,-8.48709 1.97755,0 2.80332,1.20596 3.4232,4.99925 2.11793,12.96064 1.73989,12.33148 7.40983,12.33148 4.10412,0 5.22739,0.505 5.22739,2.35014 0,1.29258 -1.35,2.94396 -3,3.66973 -2.66279,1.17125 -2.95053,2.11919 -2.55989,8.43323 0.38964,6.29799 0.16032,7.05987 -2,6.64457 -1.7531,-0.337 -2.65486,-2.073 -3.20285,-6.16586 -1.07605,-8.03684 -3.28583,-9.8157 -10.89753,-8.77256 l -6.207688,0.85073 -0.399356,6.16023 c -0.219645,3.38811 0.02063,9.15977 0.533951,12.82589 0.513317,3.66612 1.614624,13.26467 2.447344,21.33012 3.054199,29.58201 2.940989,29.15287 8.617109,32.66039 2.56791,1.58681 4.66891,3.37901 4.66891,3.98265 0,0.60366 2.25,0.8032 5,0.44344 2.98549,-0.39058 9.02901,0.49069 15.00001,2.18731 10.85584,3.0846 32.19109,7.57869 44.20004,9.31035 4.14338,0.59746 8.18133,1.48668 8.97327,1.97605 0.79194,0.48937 6.70191,1.80468 13.13327,2.92291 6.43139,1.11823 15.89341,3.24536 21.02675,4.72697 5.13333,1.48159 11.73332,3.22961 14.66666,3.8845 2.93334,0.65487 7.73334,1.82016 10.66667,2.58954 2.93333,0.76937 6.53333,1.60867 8,1.86509 1.46667,0.25642 5.36666,1.14065 8.66667,1.96493 3.3,0.82431 15.59999,3.61669 27.33334,6.20531 11.73332,2.58861 25.83333,6.15823 31.33332,7.93245 23.0492,7.43539 27.21409,8.66774 29.29383,8.66774 1.2027,0 6.35362,1.39871 11.44645,3.10825 7.06617,2.37194 9.67177,3.95098 10.99914,6.66567 1.82627,3.735 4.26058,4.77734 4.26058,1.82434 0,-0.95319 -0.72,-2.45296 -1.6,-3.33283 -2.26126,-2.26092 -0.0527,-2.02468 8.46542,0.90554 4.0056,1.37792 9.94953,2.93378 13.20875,3.45748 3.25921,0.52369 11.02583,2.36031 17.25917,4.08137 22.99164,6.34815 60.90661,15.3938 72.33332,17.25712 4.55786,0.74324 5.00226,0.54475 5.02549,-2.24463 0.014,-1.68297 3.26103,-8.15918 7.21559,-14.39158 3.95457,-6.2324 10.62641,-17.33073 14.82634,-24.66296 4.19992,-7.33224 10.38908,-17.53071 13.75367,-22.66327 3.36463,-5.13256 6.77236,-10.53174 7.57277,-11.99819 0.80042,-1.46645 3.96424,-6.63052 7.03072,-11.47569 3.06648,-4.84519 5.57543,-9.25817 5.57543,-9.80664 0,-1.81705 -7.13524,-6.69944 -11.06635,-7.57231 -3.91709,-0.86975 -4.57118,-0.44568 -9.54966,6.19137 -1.71571,2.2873 -2.185,2.38396 -3.30166,0.68009 -0.92459,-1.41079 -0.49317,-3.34181 1.4892,-6.66567 1.53499,-2.57373 3.95576,-6.73006 5.37947,-9.23633 4.24437,-7.47155 9.24009,-13.44046 11.24909,-13.44046 3.24092,0 3.61568,3.98068 0.66991,7.11583 -1.54039,1.63942 -2.96629,4.38793 -3.16868,6.10779 -0.31369,2.66568 1.07483,3.86502 9.41141,8.12913 12.10344,6.19083 13.44855,7.41135 10.62139,9.63761 -1.84343,1.45162 -7.74977,10.59546 -15.71867,24.33467 -7.17877,12.37695 -8.8052,15.0258 -11.45988,18.66387 -9.19045,12.59496 -31.97716,55.69147 -30.613,57.8984 0.48482,0.78431 2.2726,1.42602 3.97285,1.42602 3.13746,0 7.09979,3.31155 5.14933,4.30358 -3.01336,1.53263 -12.45622,0.43207 -31.73142,-3.69825 z M 85.89264,666.57603 c 0.516163,-3.92327 1.501477,-7.70313 2.189586,-8.39969 0.68811,-0.69657 1.251108,-3.84609 1.251108,-6.99895 0,-5.42528 -0.205427,-5.73247 -3.833332,-5.73247 -9.253341,0 -12.329378,1.49444 -14.802603,7.19158 -2.838678,6.53897 -6.992905,10.61775 -13.644267,13.39645 -7.191145,3.0042 -7.632645,0.44123 -1.446202,-8.39542 2.898126,-4.13966 9.360763,-13.52575 14.361414,-20.85798 5.00065,-7.33223 11.483781,-16.21005 14.406957,-19.72851 l 5.314865,-6.39717 2.975526,2.79494 c 4.723556,4.43689 6.162185,21.85657 3.175313,38.44836 -2.236108,12.42137 -5.537107,20.78195 -8.424855,21.33799 -2.236516,0.43065 -2.376041,-0.17921 -1.52351,-6.65913 z m 6.41722,-32.25182 c 1.763404,-2.7709 1.076099,-8.72533 -1.495097,-12.95269 l -2.518572,-4.14083 -4.181235,8.84827 c -2.299681,4.86655 -3.797611,9.4689 -3.328735,10.22743 1.066996,1.72618 10.158905,0.16228 11.523639,-1.98218 z m 400.60459,-58.24553 c -1.89486,-1.49027 -6.92578,-4.24085 -11.17983,-6.1124 -4.25404,-1.87156 -9.53461,-4.22262 -11.73461,-5.22457 -2.2,-1.00195 -10.90001,-4.59152 -19.33333,-7.97681 -8.43334,-3.38529 -19.23334,-7.99053 -24.00001,-10.23387 -4.76666,-2.24334 -13.16666,-6.0286 -18.66666,-8.4117 -42.05331,-18.22135 -52.14638,-22.72397 -68.38497,-30.50713 -10.11172,-4.84656 -18.81585,-8.81193 -19.3425,-8.81193 -0.52664,0 -6.35342,-2.17079 -12.94838,-4.82399 -6.59494,-2.65319 -13.79082,-5.52685 -15.99082,-6.3859 -2.2,-0.85904 -6.39999,-2.81508 -9.33334,-4.34676 -8.09904,-4.229 -24.71741,-10.60585 -30.33333,-11.63959 -5.0207,-0.92418 -5.99548,-2.49497 -3.75001,-6.0429 1.29384,-2.04431 6.61464,-0.1841 29.41668,10.28444 17.29353,7.93956 21.49282,9.72657 41.9922,17.8698 17.48996,6.94778 31.42074,13.25934 38.0078,17.22002 1.1,0.66142 3.2,1.73408 4.66666,2.38368 1.46667,0.64962 6.7317,3.04782 11.70006,5.32935 4.96837,2.28154 9.33497,4.14825 9.70355,4.14825 0.6625,0 22.53401,9.80431 39.20124,17.57269 4.73268,2.20584 12.83269,5.52842 18.00001,7.38353 9.2866,3.33395 12.4824,4.65414 30.72848,12.69397 11.64935,5.13308 27.45756,12.96358 29.66667,14.69519 0.91665,0.71853 1.66666,1.83286 1.66666,2.47631 0,2.17844 -6.2867,1.1859 -9.75222,-1.53968 z m 12.92817,-16.20889 c -0.53977,-0.87326 -0.28279,-1.82057 0.57109,-2.10516 3.60502,-1.2015 9.5863,-7.78716 9.5863,-10.55497 0,-4.88428 -4.40995,-6.27007 -11.96684,-3.76044 -3.57203,1.18626 -7.21424,3.02382 -8.0938,4.08346 -1.65136,1.98948 -8.91539,2.52128 -14.39664,1.054 -2.75252,-0.73684 -3.03015,-1.4083 -2.33511,-5.64763 0.43387,-2.64624 0.88964,-5.56124 1.01284,-6.47777 0.12319,-0.91653 1.25751,-1.66641 2.52071,-1.66641 1.2632,0 3.69376,-1.13106 5.40121,-2.51347 2.66148,-2.15482 2.84951,-2.82061 1.31778,-4.66596 -1.55242,-1.87028 -1.40219,-2.15251 1.14582,-2.15251 3.31319,0 10.72736,6.75628 10.72736,9.77549 0,1.48262 1.55988,1.95822 6.19295,1.88819 5.41081,-0.0819 6.63394,0.44665 9.68482,4.18418 l 3.4919,4.2778 5.52712,-4.73029 c 3.03992,-2.60166 6.49144,-4.7303 7.67006,-4.7303 2.70307,0 6.77519,8.31559 5.58751,11.41015 -0.81331,2.11915 -1.16837,2.05967 -4.09045,-0.68505 -3.72851,-3.50224 -3.60316,-3.55682 -15.76482,6.86363 -9.0908,7.78927 -11.98121,9.07898 -13.78981,6.15306 z m -13.78864,-17.32684 c 4.69064,-3.4674 5.10961,-7.40363 0.95176,-8.94149 -2.53918,-0.93915 -3.44477,-0.37543 -5.95839,3.70908 -1.63026,2.64911 -2.98286,5.56644 -3.00573,6.48298 -0.064,2.56083 3.63804,1.98304 8.01236,-1.25057 z m 49.99563,10.99602 c -0.42595,-0.68909 1.15414,-3.9886 3.5113,-7.33224 6.84871,-9.71486 10.50722,-7.33353 5.07867,3.30571 -2.59749,5.09074 -6.73371,7.02958 -8.58997,4.02653 z m 40.56175,-11.29176 c -5.63059,-3.32255 -14.89742,-10.23422 -16.2225,-12.09958 -0.60692,-0.85438 -1.53616,-0.73798 -2.6,0.3257 -2.49755,2.49717 -6.45552,2.03488 -6.45552,-0.754 0,-2.91477 6.39099,-10.92206 8.7174,-10.92206 2.37613,0 3.69407,4.25434 1.69971,5.48675 -0.92027,0.56866 -1.39059,1.26534 -1.04515,1.54816 1.98077,1.62179 16.23164,5.05271 18.24053,4.39143 2.01269,-0.66254 8.38751,-11.59934 8.38751,-14.38989 0,-0.83102 4.48289,-10.41382 20.42561,-43.66266 3.68276,-7.68042 7.79356,-15.14244 9.13515,-16.58225 1.34159,-1.4398 2.43924,-3.394 2.43924,-4.34267 0,-0.94865 2.35819,-5.5771 5.24043,-10.2854 2.88223,-4.7083 7.59118,-12.96764 10.4643,-18.35405 2.87313,-5.38644 6.8413,-12.49311 8.81815,-15.79261 1.97684,-3.29951 3.93789,-7.04894 4.35787,-8.33208 0.41998,-1.28314 1.29362,-2.33298 1.94142,-2.33298 0.64781,0 1.17784,-0.95724 1.17784,-2.12719 0,-1.16996 1.11625,-3.71957 2.48059,-5.66582 1.36433,-1.94624 4.24271,-7.13809 6.39637,-11.53743 2.15368,-4.39934 4.58838,-9.19862 5.41045,-10.66507 2.002,-3.57124 6.46768,-13.92224 7.65015,-17.73225 0.80996,-2.60974 -0.6074,-4.56369 -9.49271,-13.08641 -5.74468,-5.51024 -12.74352,-11.92856 -15.55298,-14.26294 -2.80945,-2.33438 -8.74762,-7.74216 -13.19591,-12.01731 -4.44832,-4.27515 -9.5267,-8.31996 -11.28533,-8.9885 -1.75863,-0.66853 -3.97486,-3.06402 -4.92498,-5.32332 -0.9501,-2.2593 -6.02305,-8.50183 -11.27322,-13.87228 -5.25018,-5.37045 -9.54577,-10.15278 -9.54577,-10.62739 0,-0.47461 -1.45346,-2.31617 -3.22989,-4.09234 -1.77643,-1.77617 -3.61688,-4.4485 -4.08985,-5.93851 -0.47298,-1.49 -1.41953,-2.7091 -2.10345,-2.7091 -0.68391,0 -1.24348,-0.81089 -1.24348,-1.80198 0,-0.99108 -1.65,-3.55401 -3.66667,-5.69538 -2.01667,-2.14137 -5.44336,-6.27974 -7.61491,-9.19637 -2.17153,-2.91662 -5.87955,-7.20133 -8.24007,-9.52154 -2.36052,-2.32022 -5.30615,-6.21964 -6.54588,-8.66537 -1.23972,-2.44573 -3.178,-5.5003 -4.3073,-6.78794 -1.1293,-1.28763 -1.6746,-2.71976 -1.21177,-3.18252 0.77137,-0.77126 4.68768,2.95333 10.57355,10.05597 3.95338,4.77064 5.29794,3.07768 1.72778,-2.17549 -1.85977,-2.7365 -3.3814,-5.73605 -3.3814,-6.66567 0,-0.92963 -0.89999,-1.69023 -2,-1.69023 -1.1,0 -2.00046,-0.44993 -2.00104,-0.99985 -5.7e-4,-0.54992 -2.10057,-3.35849 -4.66666,-6.24126 -2.5661,-2.88278 -4.66563,-5.73235 -4.66563,-6.33238 0,-1.4882 -3.66073,-1.38523 -4.59689,0.12931 -0.41485,0.67114 0.8244,3.0961 2.75389,5.38883 1.92948,2.29272 3.13573,4.54096 2.68055,4.99606 -0.77826,0.77815 -3.11584,-1.5104 -16.17088,-15.83163 -13.0905,-14.36016 -35.33334,-41.42813 -35.33334,-42.99821 0,-0.69455 -1.29901,-2.64536 -2.8867,-4.33512 -2.52378,-2.68603 -2.6822,-3.52099 -1.26022,-6.64145 1.4201,-3.11631 1.27019,-3.92145 -1.18149,-6.34557 -2.30413,-2.27821 -2.65052,-2.35778 -1.93047,-0.44341 1.46043,3.88272 -1.22353,2.59981 -4.2026,-2.00881 -1.53716,-2.37797 -5.09226,-7.88307 -7.90025,-12.23358 -5.88773,-9.12207 -33.17252,-39.650303 -36.61856,-40.971568 -1.27493,-0.488826 -3.64798,-2.588511 -5.27341,-4.665966 -1.62545,-2.077453 -8.14526,-9.089078 -14.48849,-15.581387 l -11.53312,-11.804198 -10.02901,3.060955 c -5.51595,1.683524 -14.5986,5.345661 -20.18364,8.138082 -5.58504,2.792393 -10.46024,5.077101 -10.83375,5.077101 -0.37354,0 -7.64874,3.299504 -16.16712,7.332231 -8.51839,4.032729 -16.54321,7.335929 -17.83292,7.340446 -1.2897,0.0045 -4.14491,0.978509 -6.34491,2.164427 -2.2,1.185919 -9.40001,4.131999 -16.00001,6.546847 -15.46353,5.657889 -35.30594,13.601921 -38.4782,15.40498 -1.363,0.77471 -5.863,2.4916 -10,3.81531 -4.13698,1.32371 -12.92179,5.14838 -19.52179,8.49928 -10.13394,5.1451 -28.19723,12.92221 -48.66667,20.95331 -2.56668,1.00703 -12.31695,5.60315 -21.66728,10.21359 -9.35035,4.61045 -17.53808,8.38264 -18.19496,8.38264 -0.65688,0 -5.90659,2.15996 -11.66604,4.79993 -5.75944,2.63998 -11.67172,5.27147 -13.13838,5.8478 -1.46667,0.57633 -15.71224,7.45815 -31.65682,15.29294 -15.944583,7.83479 -32.144583,15.35341 -36.000003,16.70804 -4.517334,1.5872 -7.174399,3.33071 -7.47261,4.90338 -0.254513,1.34221 -0.965368,2.97117 -1.579676,3.6199 -0.614306,0.64872 -0.31854,2.44844 0.657261,3.9994 0.9758,1.55094 2.154495,7.01927 2.619322,12.15183 0.464827,5.13257 1.457587,13.23952 2.206137,18.01547 0.748549,4.77594 2.411531,17.97396 3.695517,29.32893 l 2.33452,20.6454 4.59817,-0.0579 c 2.528993,-0.0317 6.472093,-0.51269 8.762446,-1.06864 3.187817,-0.77381 4.35043,-0.52581 4.958155,1.05766 1.16234,3.0286 -0.391327,6.06795 -3.101823,6.06795 -3.654701,0 -5.536115,3.28394 -5.092111,8.8881 0.303693,3.83318 -0.09484,5.10979 -1.595164,5.10979 -1.481482,0 -2,-1.55532 -2,-5.9991 l 0,-5.99909 -7.258853,0.47493 c -3.992368,0.26121 -9.979745,1.29369 -13.305281,2.29438 -6.671512,2.00753 -8.555494,1.14336 -7.882086,-3.61541 0.376322,-2.65936 1.386084,-3.25772 6.44622,-3.81987 5.495389,-0.61051 6.038691,-1.00293 6.460048,-4.66597 0.253027,-2.19967 -0.15992,-6.99895 -0.917659,-10.66506 -2.50712,-12.13003 -4.64663,-27.92608 -4.423902,-32.66177 0.120693,-2.56628 -0.67071,-10.06516 -1.75868,-16.66416 -1.087969,-6.59901 -2.567823,-17.98658 -3.288565,-25.30571 l -1.310442,-13.3075 3.619599,-3.84305 c 4.217946,-4.47831 10.568862,-7.4534 28.952934,-13.56294 7.333333,-2.4371 15.699886,-5.43431 18.592336,-6.6605 5.66635,-2.40213 5.29035,-2.56752 9.63821,4.23964 1.4253,2.23153 1.5005,2.18413 0.84872,-0.53489 -0.44608,-1.86096 -0.0312,-3.19669 1.10279,-3.55041 25.33084,-7.90133 39.62364,-13.55993 65.24816,-25.83209 9.21994,-4.41565 19.41995,-8.94035 22.66666,-10.05491 11.10706,-3.81291 46.89824,-19.91234 61.59941,-27.70837 1.29962,-0.689192 5.79962,-2.485732 10,-3.992316 4.20038,-1.506582 9.43706,-3.570632 11.63705,-4.586777 17.26544,-7.97464 27.08789,-11.420726 28.06181,-9.845136 0.44279,0.716342 1.79284,0.134781 3.0346,-1.307203 2.35848,-2.738809 16.25011,-9.187234 34.48532,-16.007926 6.00329,-2.245466 15.42409,-6.222606 20.93515,-8.838091 5.51107,-2.615484 12.14928,-5.100892 14.75162,-5.523128 2.60233,-0.422237 4.73151,-1.215245 4.73151,-1.762239 0,-2.414812 14.3716,-7.171061 22.30582,-7.382055 l 8.30581,-0.220878 11.17498,11.472113 c 6.14627,6.309663 16.36052,16.387252 22.69837,22.394642 6.33783,6.00739 12.10227,12.444963 12.80983,14.305719 0.82373,2.166253 1.98444,3.115392 3.22692,2.638689 1.17509,-0.450858 2.57798,0.479346 3.55691,2.358447 0.88907,1.70662 4.83509,6.507889 8.76893,10.669499 3.93384,4.16159 7.15762,8.06101 7.16398,8.66536 0.012,1.09777 2.1224,3.50195 18.57191,21.15274 20.21701,21.69345 38.74987,44.70352 38.74987,48.11116 0,0.47805 1.65,2.49296 3.66666,4.47758 2.01667,1.98463 5.16667,5.51786 7,7.85164 1.83334,2.33378 3.94196,4.97432 4.68584,5.86786 0.74388,0.89355 3.44388,4.31374 6,7.6004 7.43128,9.55519 10.79133,13.37968 19.64749,22.3632 4.58334,4.64925 8.33335,9.02362 8.33335,9.72082 0,0.6972 0.47064,1.26763 1.04584,1.26763 0.57523,0 2.06553,1.72592 3.31181,3.83538 1.24627,2.10945 4.05663,5.85889 6.24524,8.33208 5.59548,6.32307 8.90113,10.34848 13.54546,16.49491 2.21614,2.9329 11.03936,12.75223 19.60717,21.82076 8.5678,9.06854 16.71098,18.06719 18.09597,19.997 1.38499,1.92982 5.76867,6.20837 9.74155,9.50787 C 685.02711,331.54332 692,338.87182 692,341.53984 c 0,1.39587 -1.49999,5.81678 -3.33333,9.82425 -1.83332,4.00747 -3.33333,7.88182 -3.33333,8.60964 0,0.72784 -0.80687,2.13008 -1.79304,3.11611 -1.91745,1.91718 -12.87363,24.30688 -12.87363,26.30818 0,0.65793 -0.45,1.39621 -0.99999,1.64063 -1.44248,0.64099 -8.7743,12.96105 -10.97489,18.44167 -1.0304,2.56628 -2.90118,6.53349 -4.15724,8.81599 -3.26294,5.92935 -4.6444,8.64208 -6.71231,13.1807 -1.00223,2.19967 -2.30781,4.59931 -2.9013,5.33253 -0.59348,0.73323 -2.25272,3.31254 -3.6872,5.73181 -1.43448,2.41927 -3.0489,4.1307 -3.5876,3.80318 -0.53871,-0.32753 -1.06774,1.71316 -1.17563,4.53485 -0.10786,2.82169 -1.35312,6.80939 -2.76719,8.86158 -1.41408,2.05219 -3.39176,5.83093 -4.39481,8.39722 -1.00307,2.56627 -2.1588,4.96591 -2.56827,5.33253 -0.40946,0.36661 -1.41454,2.16634 -2.23349,3.9994 -3.12632,6.99755 -9.70656,19.71607 -15.17404,29.32893 -3.12775,5.49918 -6.53614,11.6183 -7.5742,13.59805 -1.03807,1.97975 -2.6084,3.42787 -3.4896,3.21804 -0.88124,-0.20982 -1.15224,-0.12985 -0.60223,0.17766 1.36387,0.76264 1.27264,5.66951 -0.10548,5.66951 -0.60798,0 -2.51948,3.01862 -4.24776,6.70802 -1.72829,3.68941 -3.78085,7.19295 -4.56125,7.78563 -0.79708,0.60535 -3.48829,-0.14351 -6.14088,-1.70877 z m 6.72198,-8.04023 c 0,-1.40709 -2.55882,-1.99824 -3.31989,-0.76699 -0.46061,0.74518 0.0979,1.35488 1.24119,1.35488 1.14328,0 2.0787,-0.26455 2.0787,-0.58789 z m 20,-39.40611 c 0,-0.73323 -0.26459,-1.33314 -0.58798,-1.33314 -0.32338,0 -0.95879,0.59991 -1.41202,1.33314 -0.45323,0.73322 -0.18864,1.33313 0.58798,1.33313 0.7766,0 1.41202,-0.59991 1.41202,-1.33313 z m 16.50451,-30.99535 c 0.48379,-2.01636 0.3324,-3.66611 -0.33645,-3.66611 -1.72455,0 -2.8968,3.6196 -1.9615,6.05659 0.96077,2.5033 1.17794,2.27737 2.29795,-2.39048 z m 33.4955,-62.32397 c 0.45322,-0.73322 0.18864,-1.33313 -0.58798,-1.33313 -0.77662,0 -1.41202,0.59991 -1.41202,1.33313 0,0.73322 0.26458,1.33313 0.58797,1.33313 0.32338,0 0.95879,-0.59991 1.41203,-1.33313 z m -0.86927,-84.32068 c -2.43468,-3.11619 -6.08233,-7.46554 -8.10588,-9.66521 -2.02355,-2.19967 -3.68196,-4.74928 -3.68535,-5.66582 -0.004,-0.91653 -0.45617,-1.66715 -1.00617,-1.66804 -0.55001,-9e-4 -2.69937,-1.4629 -4.77636,-3.24891 -2.077,-1.786 -4.65955,-2.90842 -5.739,-2.49425 -1.59784,0.61305 -1.39157,1.40214 1.10968,4.24532 1.6898,1.92078 3.88085,4.00633 4.86903,4.63458 0.98819,0.62826 5.94237,5.2791 11.00928,10.33522 5.06692,5.05611 9.55881,9.19293 9.98201,9.19293 0.42318,0 -1.22258,-2.54962 -3.65724,-5.66582 z M 627.496,288.56964 c -2.64341,-2.78871 -4.81141,-4.43438 -4.81777,-3.65705 -0.0143,1.74985 8.13089,10.22026 8.99605,9.35523 0.34535,-0.3453 -1.53489,-2.90947 -4.17828,-5.69818 z m 7.17067,2.39812 c 0,-0.65828 -2.52388,-4.01636 -5.60863,-7.4624 -5.74769,-6.42092 -8.37733,-10.24258 -9.85498,-14.32228 -0.46176,-1.2749 -1.28146,-2.04492 -1.82157,-1.71117 -0.5401,0.33376 -3.0219,-1.85464 -5.51509,-4.8631 -2.49318,-3.00846 -5.16664,-6.13785 -5.94099,-6.95421 -0.77438,-0.81634 -1.80555,-2.53411 -2.2915,-3.81725 -0.48595,-1.28315 -1.66992,-2.33299 -2.63104,-2.33299 -0.96113,0 -2.50301,-1.04984 -3.42643,-2.33298 -0.9234,-1.28313 -2.10584,-2.93289 -2.62766,-3.66612 -0.52183,-0.73322 -2.14878,-2.01261 -3.61544,-2.84309 -1.46667,-0.83048 -2.49256,-2.47065 -2.27978,-3.64482 0.26004,-1.43488 -0.27842,-1.8796 -1.64224,-1.35633 -1.63346,0.62673 -1.73284,1.33209 -0.50965,3.61732 0.83572,1.56132 2.17474,3.5341 2.9756,4.38393 3.087,3.27587 6.12274,7.2399 6.12274,7.99505 0,2.06673 11.57687,16.37439 13.33333,16.47841 1.1,0.0652 7.1,5.47896 13.33333,12.0307 6.23334,6.55173 11.48334,11.93159 11.66667,11.95522 0.18333,0.0236 0.33333,-0.4956 0.33333,-1.15389 z m -82.67165,-94.45544 c -0.003,-0.54992 -1.19392,-2.94956 -2.64707,-5.33253 -2.78778,-4.57162 -5.34794,-5.68845 -5.34794,-2.33298 0,1.09984 0.49861,1.9997 1.10802,1.9997 0.60942,0 1.9108,1.49978 2.89198,3.33283 1.68773,3.15309 4.00585,4.5068 3.99501,2.33298 z m -16.01543,-25.1869 c 0.0248,-3.46308 -3.74797,-5.29688 -4.872,-2.36812 -0.43532,1.13423 -0.0713,3.64244 0.80875,5.57382 1.28479,2.81939 1.84096,3.1311 2.82152,1.5814 0.67172,-1.0616 1.23051,-3.21579 1.24173,-4.7871 z m -7.45785,-10.37133 c -0.96945,-2.52595 -3.66649,-3.45519 -5.94388,-2.04789 -1.42671,0.88162 -1.0958,1.44103 1.45424,2.45842 4.59587,1.8336 5.32532,1.7669 4.48964,-0.41053 z m -9.85507,-4.09864 c 0,-0.36449 -2.16586,-3.05972 -4.81304,-5.98939 -2.64717,-2.92967 -4.49406,-6.1578 -4.1042,-7.17362 1.04968,-2.73502 -1.68448,-5.00391 -3.72894,-3.09437 -1.2944,1.20896 -0.75668,2.68417 2.49838,6.85413 5.09018,6.52083 10.1478,11.20739 10.1478,9.40325 z m -56.83522,378.67147 c -3.11781,-2.18349 -3.42456,-9.87119 -0.53288,-13.35494 2.78518,-3.35542 10.85928,-4.97827 13.3873,-2.69076 1.18467,1.07195 4.13927,2.64097 6.56576,3.48672 3.34136,1.16463 3.93642,1.80373 2.45251,2.63405 -1.07761,0.60297 -4.38129,3.51794 -7.34152,6.47773 -5.76032,5.75946 -9.8456,6.72859 -14.53117,3.4472 z m 11.45019,-5.96802 c 1.80924,-3.38005 0.41348,-6.76223 -2.79063,-6.76223 -2.29341,0 -5.15767,4.49023 -5.15767,8.08559 0,2.36332 6.55955,1.27118 7.9483,-1.32336 z m -30.12834,-3.48822 c -1.9661,-1.9658 -4.81389,-3.27401 -7.12709,-3.27401 -4.86745,0 -10.69288,-2.17106 -10.69288,-3.9851 0,-3.35399 6.40819,-10.6702 11.5215,-13.15407 4.74681,-2.30582 6.20605,-2.47744 9.73631,-1.14512 3.85855,1.45622 4.38523,1.28584 7.43694,-2.40574 1.80637,-2.18512 5.36848,-7.0432 7.9158,-10.79574 3.94344,-5.80926 5.13636,-6.72631 8.03017,-6.17321 1.86928,0.35728 3.68356,1.11045 4.03172,1.67371 0.34816,0.56327 -4.31069,6.03785 -10.35303,12.16574 -12.21077,12.38365 -16.98606,18.18913 -16.98606,20.65047 0,3.25453 4.06074,5.86879 7.76309,4.99783 5.19186,-1.22136 1.95409,1.86433 -3.63912,3.4682 -3.77915,1.08369 -4.80093,0.81304 -7.63735,-2.02296 z m -1.3331,-8.70331 c 3.93241,-3.09277 4.6103,-7.19582 1.39282,-8.4303 -2.39317,-0.91821 -3.90838,-0.24939 -8.21302,3.62524 -4.59817,4.13884 -3.9039,6.20848 2.48686,7.41344 0.45111,0.0851 2.40111,-1.08871 4.33334,-2.60838 z m -41.52352,-13.97673 c -3.19647,-2.23855 -3.63563,-4.1294 -1.67801,-7.22463 1.06217,-1.67939 1.83273,-1.53287 5.25894,0.99985 4.52216,3.34288 6.7146,3.7535 6.94695,1.30112 0.21908,-2.31194 0.15774,-2.69643 -0.83798,-5.25322 -0.67733,-1.73926 0.70662,-3.05637 6.0633,-5.77038 9.00098,-4.56047 11.59045,-2.70954 5.03553,3.59936 -2.52848,2.43358 -6.23759,6.67436 -8.24249,9.42394 -4.00107,5.4872 -7.66641,6.34141 -12.54624,2.92396 z m -19.3546,-8.09222 c -0.45964,-0.45958 0.078,-2.60235 1.19487,-4.76174 1.45005,-2.80366 1.62843,-4.41064 0.62391,-5.62083 -1.05262,-1.26814 -0.51925,-2.09898 2.11907,-3.3009 4.91689,-2.23994 6.67164,-0.16735 4.43312,5.23608 -1.4166,3.41945 -1.4206,4.39319 -0.0216,5.25766 0.9443,0.58352 1.30464,1.72793 0.80075,2.54314 -0.97328,1.57453 -7.74348,2.05296 -9.15007,0.64659 z M 367.7466,488.7706 c -0.49584,-0.49578 -0.2442,-2.34386 0.5592,-4.10687 1.97341,-4.33056 0.45022,-5.41863 -4.69002,-3.35018 -11.29427,4.54487 -18.94886,3.71763 -22.22438,-2.40179 -1.003,-1.87385 -2.79717,-2.77475 -5.52597,-2.77475 -8.68799,0 -11.21531,-4.23223 -7.18303,-12.0286 1.87395,-3.62329 1.85051,-3.8366 -0.33333,-3.03301 -1.29199,0.47541 -3.54907,1.60023 -5.01573,2.49959 -1.46667,0.89938 -4.61667,2.04174 -7,2.53857 -5.3802,1.12159 -5.57619,-0.52344 -0.80716,-6.77501 3.38273,-4.43433 3.42568,-4.6958 1.05585,-6.42841 -2.95839,-2.1629 -5.02041,-1.54083 -11.44056,3.45136 -5.03577,3.91573 -10.4844,5.0154 -10.46185,2.11149 0.007,-0.91653 2.12282,-4.32031 4.70158,-7.56395 2.96268,-3.72659 4.22214,-6.36396 3.4214,-7.16457 -1.95608,-1.9558 -9.57422,1.25115 -13.69934,5.76692 -3.89195,4.2605 -8.04886,4.99296 -13.70719,2.41522 -4.16397,-1.89694 -4.23515,-4.22183 -0.34035,-11.11764 2.66803,-4.72379 3.64652,-5.37892 8.57164,-5.7389 4.19832,-0.30684 6.2307,0.26444 8.29956,2.33299 2.03351,2.03322 4.45825,2.73935 9.40642,2.73935 7.53382,0 8.06758,1.01915 4.01461,7.66551 -2.43039,3.98554 -2.45671,4.33203 -0.32835,4.32447 1.27255,-0.004 3.99238,-0.88365 6.04403,-1.95364 4.2344,-2.20833 11.43948,-1.34864 12.53091,1.49514 0.38426,1.00124 -0.31524,3.36762 -1.55447,5.25864 -1.23923,1.89102 -2.00373,3.68758 -1.69891,3.99236 0.30483,0.30478 3.80278,-1.23617 7.7732,-3.42435 3.97045,-2.18817 7.66898,-3.98937 8.21899,-4.00264 2.23925,-0.0541 0.77832,5.3672 -2.49433,9.25594 -3.29721,3.91793 -3.36778,4.29194 -1.25098,6.63063 2.96354,3.27418 8.01249,1.93546 11.23712,-2.97947 2.08195,-3.17329 2.66256,-3.42154 4.06124,-1.73649 1.19491,1.43956 1.25011,2.67956 0.20612,4.62997 -3.28735,6.14157 -0.28556,13.35298 4.90039,11.77244 1.28723,-0.39232 7.4022,-2.55103 13.58882,-4.79714 6.18661,-2.24613 11.40956,-3.92268 11.60659,-3.7257 0.19701,0.197 -0.46088,2.73483 -1.46197,5.63966 -1.28769,3.7364 -1.40956,5.77844 -0.4166,6.98014 0.77198,0.93424 1.12434,1.97783 0.78303,2.31909 -1.18295,1.18276 -8.44895,2.18071 -9.34618,1.28363 z m -80.45821,-43.246 c 2.53188,-2.79729 1.99452,-6.30679 -1.15043,-7.51343 -3.06145,-1.17461 -8.80462,3.35915 -8.80462,6.95053 0,2.60554 0.68477,3.17951 3.79334,3.17951 2.08635,0 4.85912,-1.17748 6.16171,-2.61661 z m -186.00065,36.4916 c -1.888993,-4.96766 -1.1264,-7.87889 2.06385,-7.87889 2.19153,0 2.64841,0.90075 2.64841,5.22144 0,6.27566 -2.74727,7.82497 -4.71226,2.65745 z m 301.37894,-6.39244 c 0,-1.0155 1.44786,-2.79492 3.21745,-3.95423 1.76963,-1.15931 3.61839,-3.93289 4.10839,-6.16351 0.96191,-4.37888 5.21369,-7.72933 6.71876,-5.29445 1.67252,2.70578 -0.71199,7.61701 -6.03095,12.42166 -5.68151,5.13214 -8.01365,6.00245 -8.01365,2.99053 z m -53.33333,-2.83933 c 0,-0.41514 1.31283,-2.53022 2.91741,-4.7002 3.10128,-4.1941 7.29886,-5.50262 5.8919,-1.83669 -0.44514,1.1598 -0.80932,2.34421 -0.80932,2.63204 0,0.2878 -1.8,1.45396 -4,2.59146 -2.19999,1.1375 -3.99999,1.72851 -3.99999,1.31339 z M 98.761917,455.72392 c -1.16188,-3.05551 -1.860338,-8.04028 -1.57617,-11.24883 0.265224,-2.99464 4.182093,-1.74925 5.513923,1.75321 2.06563,5.43218 1.64938,12.57797 -0.73267,12.57797 -1.11814,0 -2.560443,-1.38705 -3.205083,-3.08235 z m 150.607493,-17.9145 c 0.0199,-1.28313 1.80094,-6.47024 3.958,-11.52689 2.15705,-5.05666 3.60541,-9.70596 3.21857,-10.33178 -1.37435,-2.2234 -4.80759,-1.0814 -8.82509,2.93551 -11.19024,11.18856 -19.8077,18.94746 -20.39352,18.36173 -0.85953,-0.85939 3.21388,-12.85544 5.80737,-17.10257 9.26315,-15.16944 19.38029,-29.32894 20.95589,-29.32894 2.55528,0 2.40556,1.65125 -0.49742,5.48604 -5.65031,7.46393 -16.40115,25.41887 -15.9787,26.68599 0.45388,1.36144 5.72002,-2.62151 20.31416,-15.36428 4.10831,-3.58715 7.76035,-6.23144 8.11563,-5.87621 0.8601,0.85997 -6.93692,17.96771 -8.67983,19.04472 -1.61512,0.99805 -1.85338,7.35147 -0.2757,7.35147 0.59882,0 6.3072,-5.42941 12.68527,-12.06537 6.3781,-6.63596 12.18815,-11.69978 12.91124,-11.25295 2.17187,1.34207 1.49022,4.38037 -1.44373,6.43507 -1.51715,1.06249 -8.96755,7.99548 -16.55644,15.40664 -7.5889,7.41113 -14.1476,13.47481 -14.5749,13.47481 -0.42727,0 -0.76064,-1.04984 -0.7408,-2.33299 z M 94.778688,426.43911 c -0.635419,-1.67103 -1.370569,-6.02038 -1.633664,-9.66522 -0.425711,-5.89764 -0.184878,-6.62697 2.18831,-6.62697 2.291486,0 2.799369,1.20311 3.609863,8.55127 0.51876,4.70322 0.63336,9.05256 0.25464,9.66521 -1.25273,2.02668 -3.246978,1.15829 -4.419149,-1.92429 z m 17.268232,-12.87173 c -2.17043,-4.05487 -1.68593,-5.01585 2.95308,-5.85741 2.38333,-0.43236 11.83334,-2.35513 21.00001,-4.27284 9.16666,-1.9177 18.90765,-3.70115 21.64662,-3.96323 2.73898,-0.26206 5.57954,-0.847 6.31236,-1.29984 0.73283,-0.45284 6.59186,-1.6714 13.02004,-2.70793 6.4282,-1.03651 16.18763,-2.90416 21.68764,-4.15033 5.49999,-1.24618 12.54414,-2.3899 15.65363,-2.54161 3.10948,-0.15172 6.40948,-0.89885 7.33333,-1.66029 0.92384,-0.76145 7.27429,-2.3472 14.11212,-3.52389 6.83783,-1.17669 14.09858,-3.00092 16.13499,-4.05384 2.13917,-1.10604 4.20859,-1.41911 4.90092,-0.74145 0.69272,0.67802 6.82419,-0.40915 14.53168,-2.57665 7.33333,-2.06226 21.13333,-5.62508 30.66666,-7.91741 25.68884,-6.17694 37.071,-9.35038 38.43751,-10.7167 0.67143,-0.67132 1.98845,-0.92604 2.92673,-0.56604 0.93827,0.35998 9.41517,-1.43743 18.83752,-3.99425 22.05697,-5.98535 54.71206,-14.19938 56.44997,-14.19938 2.2782,0 1.49484,2.49402 -1.24362,3.95939 -1.42554,0.76282 -9.37555,2.88619 -17.66666,4.71862 -8.29114,1.83244 -19.27478,4.5744 -24.40812,6.09326 -17.95802,5.31347 -22.5953,6.55885 -24.42239,6.55885 -1.0127,0 -3.73194,0.82215 -6.04275,1.827 -2.31084,1.00484 -6.60151,2.45511 -9.53485,3.22284 -2.93334,0.76771 -7.73334,2.03129 -10.66667,2.80794 -26.28747,6.96015 -44.366,11.24014 -53.33333,12.62637 -5.86667,0.90691 -12.35572,2.36813 -14.42013,3.24716 -2.0644,0.87903 -5.2662,1.59823 -7.1151,1.59823 -1.84888,0 -7.65982,1.14468 -12.9132,2.54373 -5.25336,1.39904 -12.85157,3.16726 -16.8849,3.92938 -11.94259,2.25659 -45.32082,9.32517 -54.66668,11.57687 -4.76666,1.14845 -13.76666,2.97606 -19.99999,4.06137 -6.23334,1.08532 -15.63412,3.45321 -20.89064,5.26201 -11.45385,3.94131 -10.68965,3.89754 -12.39578,0.71007 z m 4.76002,-13.19203 c -0.42009,-0.67961 -0.18585,-10.15732 0.5205,-21.06158 1.77072,-27.33467 1.71473,-32.83516 -0.32744,-32.17005 -3.07504,1.00152 -5.42898,8.19969 -5.55068,16.97354 -0.0942,6.78803 -0.56007,8.70192 -2.11835,8.70192 -3.3036,0 -2.55082,-12.50843 1.33885,-22.24674 2.61754,-6.55333 4.15386,-8.64074 7.12967,-9.68711 5.96467,-2.09736 7.90731,1.58158 7.18319,13.60328 -0.3202,5.31586 -0.0723,9.6652 0.5509,9.6652 0.62321,0 1.13309,-0.91912 1.13309,-2.04251 0,-3.09269 3.9165,-11.81666 4.87479,-10.85853 0.95274,0.95258 -4.02752,17.10969 -6.89105,22.35621 -1.03746,1.90084 -2.29432,8.34786 -2.79302,14.32671 -0.83333,9.99091 -3.10518,15.58667 -5.05045,12.43966 z m -26.050854,-7.32402 c -1.086775,-2.85801 -1.879539,-9.93139 -1.557842,-13.89976 0.07429,-0.91653 1.276179,-1.66642 2.67084,-1.66642 2.104668,0 2.692196,1.34772 3.455992,7.92766 0.506134,4.36023 0.529636,8.5596 0.05223,9.33194 -1.428612,2.31119 -3.368788,1.60024 -4.621217,-1.69342 z m 48.379194,-6.45286 c 0.44209,-4.64571 1.50932,-15.47361 2.37159,-24.06199 1.2572,-12.52178 1.23089,-16.02112 -0.1328,-17.66402 -2.38093,-2.86841 -4.84974,-2.55302 -7.44235,0.95078 -2.21805,2.99758 -2.21891,2.99691 -1.30506,-0.99985 1.20625,-5.27568 4.40258,-8.66537 8.17106,-8.66537 5.24127,0 7.20008,4.69015 7.22269,17.29408 0.014,7.83223 0.42247,10.74629 1.31293,9.36858 1.0941,-1.69275 1.29562,-1.62698 1.31292,0.42851 0.0107,1.33551 -0.87959,3.32808 -1.97958,4.42792 -1.34551,1.34529 -2.04351,4.91331 -2.13291,10.90312 -0.17928,12.00888 -1.2786,15.46867 -5.08937,16.01704 -3.05083,0.43904 -3.09691,0.27942 -2.30912,-7.9988 z m 26.56213,-4.72254 c -1.94579,-2.96962 -2.36408,-6.56685 -2.36408,-20.33028 0,-19.52627 -1.53616,-21.42515 -7.59648,-9.39003 -2.03069,4.03273 -3.70222,6.38926 -3.71452,5.23673 -0.0461,-4.328 4.23276,-14.3435 7.39821,-17.31685 2.74159,-2.57518 3.888,-2.87005 6.93213,-1.78302 l 3.64733,1.30241 -0.42706,19.6117 c -0.48376,22.21521 -0.53181,22.13422 9.76039,16.45259 4.95624,-2.73602 5.30995,-3.31671 5.00265,-8.21263 -0.46212,-7.36244 1.62632,-12.75217 6.93459,-17.89636 6.29908,-6.10441 8.72944,-4.88963 8.72944,4.36327 0,5.85552 -0.73516,8.18876 -4,12.69506 -2.2,3.03655 -4,6.39627 -4,7.46601 0,2.91153 4.12577,4.77026 7.07976,3.18958 3.8306,-2.04977 4.6371,0.13966 1.10586,3.00206 -4.32768,3.50799 -9.04948,3.19537 -12.79657,-0.84718 -1.95231,-2.10626 -3.48505,-2.85705 -4.03068,-1.97434 -0.80819,1.30747 -13.04764,8.0393 -14.61665,8.0393 -0.37414,0 -1.74409,-1.62361 -3.04432,-3.60802 z m 29.3595,-20.4726 c 2.06388,-5.25332 1.85395,-9.24771 -0.48599,-9.24771 -1.95735,0 -3.90425,4.94212 -3.90425,9.91086 0,6.28664 1.76459,6.0201 4.39024,-0.66315 z m 10.90087,8.08302 c 2.25567,-7.86601 10.48205,-22.66326 12.59944,-22.66326 0.69469,0 1.67695,1.34979 2.18278,2.99955 2.00138,6.52737 3.36067,6.667 8.69211,0.89286 5.0788,-5.50049 8.76798,-6.0172 7.46776,-1.04593 -0.36618,1.40007 0.24259,4.36616 1.35281,6.59135 1.79157,3.59072 2.49075,3.94832 6.2163,3.17935 l 4.19769,-0.86642 -6.47522,6.30522 c -7.51179,7.31457 -8.80542,6.67177 -8.8377,-4.39137 -0.0285,-9.7951 -2.73176,-9.07331 -6.76017,1.80505 -3.04841,8.232 -5.56019,11.33747 -7.55597,9.34199 -0.46607,-0.466 -0.74707,-4.48724 -0.62445,-8.93607 0.27411,-9.94406 -1.24117,-9.85505 -6.92634,0.4069 -4.85308,8.76008 -6.88313,11.10284 -5.52904,6.38078 z M 87.497611,362.10143 c -1.354294,-3.52871 -0.947268,-11.04971 0.65146,-12.03763 2.301019,-1.4219 3.915283,2.22847 3.532144,7.98731 -0.363365,5.46166 -2.753753,7.77589 -4.183604,4.05032 z m 620.643409,-4.48157 c -4.15091,-3.87694 -5.08965,-7.23598 -2.96083,-10.59465 0.62665,-0.98868 2.26745,-1.56533 3.64626,-1.28144 1.92543,0.39645 2.42721,1.51792 2.16335,4.83506 -0.62929,7.91081 7.90868,6.68422 10.11765,-1.45353 1.39215,-5.12867 0.92319,-6.30161 -2.51947,-6.30161 -4.20745,0 -3.28673,-4.8875 1.0787,-5.72597 4.18404,-0.80362 5.76756,0.0164 3.15236,1.63241 -1.22315,0.75585 -1.31947,1.37266 -0.31154,1.9955 2.98058,1.84182 4.83179,-2.14103 4.3691,-9.40009 l -0.45673,-7.16572 -5.81386,0 c -4.64504,0 -9.93799,-1.32425 -13.6374,-3.41195 -0.90637,-0.51151 1.41631,-4.44927 2.9778,-5.04838 0.95712,-0.36722 4.36072,0.23589 7.56359,1.34027 3.98948,1.3756 8.02774,1.73311 12.82334,1.13524 8.08491,-1.00795 8.46269,-0.28805 3.60485,6.86931 -1.97722,2.91314 -3.23013,6.41764 -3,8.39128 0.33842,2.90255 1.01714,3.36079 4.72848,3.19243 3.73857,-0.16959 4.33333,0.24211 4.33333,2.99955 0,1.75786 -0.74999,3.28749 -1.66667,3.39917 -0.91665,0.11171 -2.26666,0.34244 -3,0.51279 -0.73333,0.17035 -2.08817,0.37894 -3.01079,0.46351 -0.9226,0.0845 -2.64475,2.57092 -3.827,5.5252 -2.05861,5.14423 -7.1622,9.84364 -7.1622,6.59501 0,-0.80229 -0.6,-1.08796 -1.33333,-0.63479 -0.73333,0.45315 -1.33333,1.98834 -1.33333,3.4115 0,3.95196 -5.66102,3.26347 -10.52566,-1.2801 z m -447.87435,-3.0646 c -4.38329,-4.38264 0.24903,-7.86966 5.70559,-4.29493 3.14624,2.06118 3.73616,2.09161 5.54225,0.28579 1.80609,-1.80583 1.58469,-2.7303 -2.07997,-8.68525 -2.25566,-3.66537 -4.1012,-7.33401 -4.1012,-8.15254 0,-2.6725 6.43569,-5.89611 9.99028,-5.00409 4.47825,1.12379 4.4843,5.75281 0.009,7.45378 -1.83333,0.69692 -3.33333,1.66313 -3.33333,2.14712 0,0.48398 1.5,2.26992 3.33333,3.96874 3.78705,3.50919 4.3316,8.69317 1.23809,11.78621 -2.5137,2.51373 -13.93849,2.86069 -16.30437,0.49517 z m 40.33196,-17.68785 c -2.48533,-5.94736 -2.46689,-6.20286 0.95639,-13.24793 3.57697,-7.36137 9.82384,-11.26438 14.24364,-8.89933 3.30712,1.76965 2.67317,4.10714 -1.11391,4.10714 -2.92729,0 -8.01808,5.97865 -8.01808,9.4165 0,3.471 3.526,6.45543 6.65901,5.63624 7.23136,-1.89076 11.63507,-12.97465 12.71594,-32.00531 0.55465,-9.76567 2.53818,-15.04262 5.65429,-15.04262 3.13373,0 3.06272,3.25764 -0.40771,18.70131 -1.89017,8.41146 -3.76266,16.88395 -4.16108,18.82776 -1.0189,4.97113 3.57228,9.4637 8.55986,8.37596 9.04813,-1.9733 10.63214,-3.27155 13.46292,-11.03406 4.61616,-12.65835 4.92146,-12.87428 18.20314,-12.87428 6.36239,0 11.84616,0.44994 12.18616,0.99985 0.90945,1.47095 6.83552,1.21755 7.79414,-0.33328 0.45322,-0.73323 1.80639,-1.33314 3.00703,-1.33314 1.20063,0 4.31522,-1.43975 6.92131,-3.19946 7.21278,-4.8703 10.12346,-5.34773 13.1036,-2.14939 3.24061,3.47785 4.82528,1.89243 7.6651,-7.66887 1.52473,-5.13355 2.73899,-6.8833 5.20644,-7.5025 6.04082,-1.51592 8.74699,1.29129 9.50046,9.85516 0.46984,5.34013 -0.72134,7.9988 -3.58376,7.9988 -2.31491,0 -2.61095,-0.74759 -2.24348,-5.66582 0.36616,-4.90107 0.0457,-5.71973 -2.37393,-6.06524 -2.32414,-0.33188 -3.29189,0.95705 -5.72208,7.62108 -1.60868,4.41128 -3.49993,8.37587 -4.20279,8.8102 -0.70284,0.43431 -1.2779,1.91979 -1.2779,3.30106 0,3.55947 -5.32972,12.15531 -6.92536,11.16929 -0.74516,-0.46046 -0.94789,-2.65991 -0.46062,-4.99726 0.47868,-2.29615 1.19937,-6.42447 1.60153,-9.17406 0.68792,-4.70336 0.52205,-4.99925 -2.80278,-4.99925 -4.99726,0 -10.54439,5.79877 -9.26701,9.68741 1.64051,4.99415 0.82806,7.9515 -3.32532,12.10426 -3.56231,3.56178 -4.43482,3.84378 -8.39788,2.71439 -3.66453,-1.0443 -4.49339,-1.98519 -4.83578,-5.48937 -0.22726,-2.32597 0.18088,-5.33892 0.90697,-6.69545 2.16804,-4.05042 -0.21581,-6.1577 -5.91908,-5.23233 -5.54952,0.90043 -6.62822,2.02988 -8.54775,8.94988 -2.24522,8.09417 -4.37109,9.92368 -11.57526,9.96165 -4.06024,0.0213 -8.53242,1.13873 -12.06521,3.01438 -6.49187,3.44669 -12.672,3.84933 -15.05312,0.98068 -2.26656,-2.73063 -2.89628,-2.58533 -8.66667,1.9997 -3.65624,2.90517 -6.46097,3.9994 -10.25137,3.9994 -4.69397,0 -5.41207,-0.46432 -7.15,-4.62315 z m 60.26952,-15.43915 c 3.28887,-4.96906 3.4016,-5.56887 1.41917,-7.551 -1.74197,-1.74171 -2.53542,-1.83623 -4.1522,-0.49463 -2.47613,2.05472 -5.28912,10.24337 -4.15121,12.08426 1.51871,2.45697 3.26185,1.43436 6.88424,-4.03863 z m 30.54485,0.79741 c 3.15161,-4.80926 2.04297,-8.06435 -2.74662,-8.06435 -3.02698,0 -4.38694,0.88279 -5.7543,3.73524 -3.3244,6.9351 4.26153,10.79825 8.50092,4.32911 z m -142.85745,7.04437 c 0.1164,-11.40797 1.78079,-14.48738 4.54803,-8.41484 2.19535,4.8175 1.94392,12.83279 -0.51251,16.33932 -1.14158,1.6296 -2.54158,2.9629 -3.11112,2.9629 -0.56954,0 -0.98552,-4.89932 -0.9244,-10.88738 z m -164.555549,0.2732 c 0,-3.69775 0.665882,-5.72258 2.057504,-6.25651 2.748985,-1.05474 3.009621,-0.64261 3.511551,5.55255 0.377286,4.65676 0.0574,5.37209 -2.569055,5.74504 -2.692682,0.38238 -3,-0.13404 -3,-5.04108 z M 2.1222571,196.37682 C 1.1144301,194.74638 4.6720002,180.14112 8.0757098,171.93551 12.141868,162.13288 11.687155,160.18445 5.3333334,160.18445 1.7241279,160.18445 0,159.59802 0,158.37044 c 0,-3.28342 25.137149,-4.84241 33.134371,-2.05497 3.540176,1.23391 4.198962,2.13868 4.198962,5.7667 0,4.99824 -3.543538,8.83311 -10.999999,11.90436 -5.921615,2.43907 -6.120552,3.76832 -1.550728,10.36158 3.744786,5.40293 3.843857,9.54571 0.244847,10.23872 -1.533874,0.29536 -3.629843,-1.76305 -6.432388,-6.31707 -5.776641,-9.38683 -7.456419,-8.95847 -9.0604563,2.31049 -0.718523,5.04788 -1.4480056,6.34493 -3.7540675,6.67488 -1.5742367,0.22524 -3.2204645,-0.17 -3.6582841,-0.87831 z M 24.666667,167.68064 c 6.259081,-3.58319 7.734529,-8.05474 3.069959,-9.30391 -7.543081,-2.02006 -11.149442,0.1417 -12.467804,7.47354 -0.776633,4.31911 -0.561297,4.99138 1.582791,4.94142 1.364946,-0.0318 4.881721,-1.43177 7.815054,-3.11105 z M 403.30101,33.008947 c -4.86426,-2.119037 -7.30784,-6.996253 -7.28116,-14.532631 0.0156,-4.416053 0.97796,-6.732805 4.54243,-10.9356213 2.48744,-2.9328929 4.99779,-4.8633181 5.57858,-4.2898338 0.58079,0.5734845 0.33667,3.731621 -0.54244,7.0180811 -0.87913,3.286461 -1.59841,8.379275 -1.59841,11.317364 0,4.361119 0.594,5.612583 3.235,6.81573 3.66746,1.670756 8.98968,0.720245 11.82161,-2.11125 2.63162,-2.631229 4.18472,-15.118308 2.18064,-17.5327046 -0.85448,-1.0294286 -3.87814,-2.568032 -6.71922,-3.4191185 -4.09928,-1.2279864 -4.85866,-1.9172654 -3.67858,-3.3389653 4.65818,-5.6119084 15.0743,1.4077636 16.13422,10.8732294 0.98672,8.811744 -1.0078,13.327732 -7.90319,17.894346 -6.77609,4.487631 -9.66923,4.898844 -15.76948,2.241374 z"/>
</svg>
